<svg width="426" height="468" viewBox="0 0 426 468" fill="none" xmlns="http://www.w3.org/2000/svg">
<g opacity="0.67" filter="url(#filter0_b_5047_11658)">
<path d="M403.229 234.853C403.229 337.078 319.841 419.974 216.943 419.974C114.046 419.974 30.6582 337.078 30.6582 234.853C30.6582 132.628 114.046 49.7314 216.943 49.7314C319.841 49.7314 403.229 132.628 403.229 234.853Z" stroke="url(#paint0_radial_5047_11658)" stroke-width="5"/>
</g>
<path d="M142.975 233.033V255.433H139.551L127.199 240.265V255.433H123.071V233.033H126.495L138.847 248.201V233.033H142.975ZM155.121 238.153C157.638 238.153 159.558 238.761 160.881 239.977C162.225 241.171 162.897 242.985 162.897 245.417V255.433H159.121V253.353C158.63 254.099 157.926 254.675 157.009 255.081C156.113 255.465 155.025 255.657 153.745 255.657C152.465 255.657 151.345 255.443 150.385 255.017C149.425 254.569 148.678 253.961 148.145 253.193C147.633 252.403 147.377 251.518 147.377 250.537C147.377 249.001 147.942 247.774 149.073 246.857C150.225 245.918 152.027 245.449 154.481 245.449H158.897V245.193C158.897 243.998 158.534 243.081 157.809 242.441C157.105 241.801 156.049 241.481 154.641 241.481C153.681 241.481 152.731 241.63 151.793 241.929C150.875 242.227 150.097 242.643 149.457 243.177L147.889 240.265C148.785 239.582 149.862 239.059 151.121 238.697C152.379 238.334 153.713 238.153 155.121 238.153ZM154.577 252.745C155.579 252.745 156.465 252.521 157.233 252.073C158.022 251.603 158.577 250.942 158.897 250.089V248.105H154.769C152.465 248.105 151.313 248.862 151.313 250.377C151.313 251.102 151.601 251.678 152.177 252.105C152.753 252.531 153.553 252.745 154.577 252.745ZM171.838 240.841C172.99 239.049 175.017 238.153 177.918 238.153V241.961C177.577 241.897 177.268 241.865 176.99 241.865C175.433 241.865 174.217 242.323 173.342 243.241C172.468 244.137 172.03 245.438 172.03 247.145V255.433H168.03V238.345H171.838V240.841ZM188.412 234.697C186.726 234.697 185.884 235.614 185.884 237.449V238.473H190.588V241.673H186.012V255.433H182.012V241.673H179.196V238.473H182.012V237.385C182.012 235.55 182.545 234.11 183.612 233.065C184.678 231.998 186.182 231.465 188.124 231.465C189.66 231.465 190.865 231.774 191.74 232.393L190.62 235.401C189.937 234.931 189.201 234.697 188.412 234.697ZM209.094 246.985C209.094 247.262 209.073 247.657 209.03 248.169H195.622C195.857 249.427 196.465 250.43 197.446 251.177C198.449 251.902 199.686 252.265 201.158 252.265C203.036 252.265 204.582 251.646 205.798 250.409L207.942 252.873C207.174 253.79 206.204 254.483 205.03 254.953C203.857 255.422 202.534 255.657 201.062 255.657C199.185 255.657 197.532 255.283 196.102 254.537C194.673 253.79 193.564 252.755 192.774 251.433C192.006 250.089 191.622 248.574 191.622 246.889C191.622 245.225 191.996 243.731 192.742 242.409C193.51 241.065 194.566 240.019 195.91 239.273C197.254 238.526 198.769 238.153 200.454 238.153C202.118 238.153 203.601 238.526 204.902 239.273C206.225 239.998 207.249 241.033 207.974 242.377C208.721 243.699 209.094 245.235 209.094 246.985ZM200.454 241.353C199.174 241.353 198.086 241.737 197.19 242.505C196.316 243.251 195.782 244.254 195.59 245.513H205.286C205.116 244.275 204.593 243.273 203.718 242.505C202.844 241.737 201.756 241.353 200.454 241.353ZM223.348 255.433L218.964 249.513L214.548 255.433H210.132L216.788 246.761L210.42 238.345H214.868L219.06 243.945L223.252 238.345H227.572L221.172 246.697L227.86 255.433H223.348ZM249.255 233.033C251.197 233.033 252.882 233.353 254.311 233.993C255.762 234.633 256.871 235.55 257.639 236.745C258.407 237.939 258.791 239.358 258.791 241.001C258.791 242.622 258.407 244.041 257.639 245.257C256.871 246.451 255.762 247.369 254.311 248.009C252.882 248.649 251.197 248.969 249.255 248.969H244.199V255.433H240.039V233.033H249.255ZM249.063 245.449C250.877 245.449 252.253 245.065 253.191 244.297C254.13 243.529 254.599 242.43 254.599 241.001C254.599 239.571 254.13 238.473 253.191 237.705C252.253 236.937 250.877 236.553 249.063 236.553H244.199V245.449H249.063ZM277.726 251.913V255.433H261.214V252.649L270.11 244.201C271.112 243.241 271.784 242.409 272.126 241.705C272.488 240.979 272.67 240.265 272.67 239.561C272.67 238.515 272.318 237.715 271.614 237.161C270.91 236.606 269.875 236.329 268.51 236.329C266.227 236.329 264.478 237.107 263.262 238.665L260.35 236.425C261.224 235.251 262.398 234.345 263.87 233.705C265.363 233.043 267.027 232.713 268.862 232.713C271.294 232.713 273.235 233.289 274.686 234.441C276.136 235.593 276.862 237.161 276.862 239.145C276.862 240.361 276.606 241.502 276.094 242.569C275.582 243.635 274.6 244.851 273.15 246.217L267.166 251.913H277.726ZM290.943 233.033C292.884 233.033 294.569 233.353 295.999 233.993C297.449 234.633 298.559 235.55 299.327 236.745C300.095 237.939 300.479 239.358 300.479 241.001C300.479 242.622 300.095 244.041 299.327 245.257C298.559 246.451 297.449 247.369 295.999 248.009C294.569 248.649 292.884 248.969 290.943 248.969H285.887V255.433H281.727V233.033H290.943ZM290.751 245.449C292.564 245.449 293.94 245.065 294.879 244.297C295.817 243.529 296.287 242.43 296.287 241.001C296.287 239.571 295.817 238.473 294.879 237.705C293.94 236.937 292.564 236.553 290.751 236.553H285.887V245.449H290.751Z" fill="#3071EE"/>
<path d="M210.25 212.498C212.283 206.435 195 198.353 195 186.228C195 174.104 205.166 172.083 205.166 172.083C205.166 172.083 202.686 174.094 202.686 182.187C202.686 192.29 214.316 200.373 214.316 208.456C214.316 210.477 213.299 212.498 210.25 212.498Z" fill="url(#paint1_linear_5047_11658)"/>
<path d="M212.283 164C210.25 170.062 227.533 178.145 227.533 190.27C227.533 202.394 217.367 204.415 217.367 204.415C217.367 204.415 219.847 202.394 219.847 196.332C219.847 184.207 208.217 176.124 208.217 168.041C208.217 166.021 209.233 164 212.283 164Z" fill="url(#paint2_linear_5047_11658)"/>
<path d="M218.555 189.279C213.452 184.137 205.166 179.085 205.166 172.083C205.166 172.083 202.686 174.094 202.686 182.187C202.686 183.854 203.011 185.46 203.54 187.026C208.572 193.2 217.366 200.09 217.366 204.415C217.366 204.415 219.846 202.394 219.846 196.332C219.846 193.816 219.348 191.482 218.555 189.279Z" fill="url(#paint3_linear_5047_11658)"/>
<g clip-path="url(#clip0_5047_11658)">
<path d="M246.869 100.58C269.714 77.7339 269.714 40.6938 246.869 17.8481C224.023 -4.99755 186.983 -4.99755 164.137 17.8481C141.292 40.6938 141.292 77.7339 164.137 100.58C186.983 123.425 224.023 123.425 246.869 100.58Z" fill="#C1D7FD"/>
<path d="M221.116 51.5098H190.168V86.4714H221.116V51.5098Z" fill="#E2988F"/>
<path d="M255.637 89.6055C239.121 82.2275 221.116 79.6494 221.116 79.6494C212.857 88.2641 197.473 88.3898 190.168 79.6494C190.168 79.6494 172.163 82.259 155.646 89.637C160.867 98.2184 168.209 105.312 176.965 110.234C185.721 115.156 195.597 117.741 205.642 117.741C215.687 117.741 225.562 115.156 234.319 110.234C243.075 105.312 250.416 98.2184 255.637 89.637V89.6055Z" fill="white"/>
<path d="M224.48 80.1943V114.611C237.474 110.181 248.5 101.331 255.638 89.6055C245.631 85.3282 235.182 82.172 224.48 80.1943V80.1943Z" fill="#F4BA5D"/>
<path d="M186.741 80.2051C176.06 82.1917 165.631 85.355 155.646 89.6372C162.776 101.34 173.777 110.179 186.741 114.622V80.2051Z" fill="#F4BA5D"/>
<path d="M205.208 90.1295H204.914C196.918 90.0456 190.169 86.5138 186.406 80.4563L187.077 80.0476C190.693 85.8745 197.201 89.2596 204.893 89.3434C212.931 89.4063 220.33 85.8641 224.124 80.0371L224.784 80.4668C220.928 86.3985 213.434 90.1295 205.208 90.1295Z" fill="#EABFB9"/>
<path d="M235.956 32.8866C234.247 28.7994 230.716 30.7906 230.716 30.7906C232.78 12.2513 223.338 0 205.689 0C188.041 0 178.514 12.2513 180.537 30.8115C180.537 30.8115 177.047 28.7994 175.297 32.9076C173.547 37.0158 176.712 46.5317 178.64 49.6129C179.099 50.4511 179.85 51.0914 180.751 51.4121C181.651 51.7328 182.638 51.7116 183.524 51.3526C183.524 51.3526 184.236 58.3533 185.127 60.7323C186.018 63.1113 196.11 74.0211 199.087 75.6874C202.975 77.9825 208.707 77.9825 212.208 75.6874C215.174 74.0211 225.266 63.1113 226.157 60.7218C227.048 58.3323 227.75 51.2163 227.75 51.2163C228.616 51.6054 229.597 51.6543 230.498 51.3534C231.399 51.0524 232.154 50.4237 232.613 49.5919C234.551 46.5422 237.664 36.9738 235.956 32.8866Z" fill="#E2988F"/>
<path d="M205.805 77.7834C203.385 77.8117 201 77.2046 198.888 76.0228C197.085 74.9748 192.956 70.8771 189.875 67.4605L190.462 66.9365C193.606 70.4159 197.63 74.4193 199.276 75.3206C203.049 77.5529 208.624 77.5529 211.978 75.3625C213.654 74.4193 217.689 70.4159 220.823 66.9784L221.399 67.5025C218.329 70.919 214.189 75.0586 212.386 76.0752C210.398 77.2547 208.116 77.847 205.805 77.7834V77.7834Z" fill="#C46966"/>
<path d="M183.426 46.9309L182.645 47.0186L183.135 51.3928L183.916 51.3052L183.426 46.9309Z" fill="#C46966"/>
<path d="M227.801 46.9232L227.355 51.1758L228.137 51.2577L228.583 47.005L227.801 46.9232Z" fill="#C46966"/>
<path d="M177.614 42.0676C177.446 41.4597 176.063 36.1463 177.981 34.7315C178.187 34.56 178.433 34.4424 178.697 34.3894C178.96 34.3364 179.233 34.3495 179.49 34.4276C179.839 34.5902 180.154 34.8201 180.414 35.1042C180.675 35.3884 180.877 35.7211 181.009 36.0834L180.276 36.3664C180.171 36.0939 179.773 35.3184 179.228 35.1716C179.093 35.1354 178.953 35.1308 178.816 35.1581C178.68 35.1853 178.552 35.2438 178.442 35.3288C177.331 36.1673 177.813 39.7829 178.379 41.858L177.614 42.0676Z" fill="#C46966"/>
<path d="M233.682 42.0675L232.917 41.8579C233.483 39.7619 233.965 36.1672 232.833 35.3184C232.728 35.2363 232.604 35.1802 232.473 35.1547C232.342 35.1292 232.207 35.135 232.078 35.1716C231.45 35.3812 231.03 36.3559 231.03 36.3664L230.297 36.0834C230.436 35.7135 230.649 35.3759 230.923 35.0912C231.196 34.8064 231.526 34.5806 231.89 34.4275C232.135 34.3523 232.394 34.3349 232.647 34.3767C232.899 34.4185 233.139 34.5184 233.347 34.6686C235.233 36.1463 233.839 41.4597 233.682 42.0675Z" fill="#C46966"/>
<path d="M183.032 40.5685C188.272 40.5685 184.321 23.6536 188.44 19.5454C190.536 17.4494 220.844 17.5542 222.856 19.5454C226.975 23.6536 223.003 40.6 228.254 40.5685C227.887 36.649 227.876 32.3626 230.758 30.8115C232.77 12.2513 223.338 0 205.69 0C188.041 0 178.515 12.2513 180.538 30.8115C182.875 32.3312 183.409 36.4708 183.032 40.5685Z" fill="#4C224B"/>
<path d="M205.69 46.1866C205.69 46.1866 193.25 45.9141 192.736 54.2248H218.601C218.088 45.9141 205.69 46.1866 205.69 46.1866Z" fill="#4C224B"/>
</g>
<g clip-path="url(#clip1_5047_11658)">
<path d="M363.5 198.764C395.809 198.764 422 172.572 422 140.264C422 107.955 395.809 81.7637 363.5 81.7637C331.191 81.7637 305 107.955 305 140.264C305 172.572 331.191 198.764 363.5 198.764Z" fill="#C1D7FD"/>
<path d="M363.321 156.225C372.964 156.225 380.781 155.118 380.781 153.752C380.781 152.386 372.964 151.278 363.321 151.278C353.678 151.278 345.861 152.386 345.861 153.752C345.861 155.118 353.678 156.225 363.321 156.225Z" fill="#94A5E4"/>
<path d="M378.969 132.562H348.021V167.523H378.969V132.562Z" fill="#E2988F"/>
<path d="M394.752 109.903C392.992 105.711 389.397 107.807 389.397 107.807C391.472 88.6285 381.736 76 363.501 76C345.265 76 335.529 88.6285 337.604 107.765C337.604 107.765 334.01 105.669 332.249 109.861C330.488 114.053 333.706 123.936 335.697 127.08C337.193 129.23 339.06 131.097 341.209 132.593C341.346 134.623 341.729 136.629 342.352 138.566C343.274 141.019 353.681 152.274 356.741 153.993C360.755 156.351 366.666 156.351 370.26 153.993C373.321 152.306 383.727 141.05 384.65 138.598C385.275 136.65 385.658 134.634 385.792 132.593C387.941 131.1 389.807 129.237 391.304 127.091C393.296 123.978 396.513 114.116 394.752 109.903Z" fill="#E2988F"/>
<path d="M334.616 119.357C334.438 118.738 333.012 113.268 334.983 111.769C335.198 111.61 335.447 111.503 335.711 111.456C335.974 111.409 336.245 111.423 336.502 111.497C337.217 111.849 337.772 112.459 338.053 113.205L337.32 113.488C337.138 112.959 336.764 112.517 336.272 112.251C336.133 112.212 335.986 112.206 335.845 112.233C335.703 112.261 335.569 112.321 335.454 112.408C334.312 113.278 334.805 117.009 335.391 119.158L334.616 119.357Z" fill="#C46966"/>
<path d="M392.383 119.356L391.629 119.157C392.048 117.617 392.855 113.393 391.545 112.398C391.432 112.313 391.302 112.256 391.164 112.231C391.026 112.205 390.884 112.212 390.748 112.251C390.256 112.517 389.882 112.958 389.7 113.487L388.967 113.204C389.249 112.459 389.803 111.849 390.518 111.496C390.771 111.423 391.038 111.408 391.298 111.454C391.557 111.499 391.803 111.603 392.017 111.758C393.987 113.267 392.561 118.738 392.383 119.356Z" fill="#C46966"/>
<path d="M363.5 76C345.255 76 335.529 88.6285 337.604 107.765C340.025 109.327 340.57 113.592 340.193 117.826C340.193 117.826 339.386 131.272 342.037 137.613C344.689 143.953 349.279 153.867 363.49 153.752C377.701 153.867 382.354 143.964 384.953 137.613C387.552 131.262 386.787 117.826 386.787 117.826C386.41 113.781 386.399 109.358 389.365 107.765C391.472 88.6285 381.736 76 363.5 76ZM383.465 105.397C383.465 105.397 383.109 122.951 380.394 126.797C377.68 130.643 378.529 122.113 363.5 121.966C348.472 121.819 349.31 130.643 346.596 126.797C343.882 122.951 343.536 105.47 343.536 105.397C343.714 101.519 344.091 97.8091 345.758 96.1533C347.969 94.0048 351.113 94.3507 353.775 95.0424C356.919 95.8493 360.168 96.9288 363.49 97.0126C367.001 97.107 370.333 95.8179 373.708 95.0004C376.318 94.3716 379.168 94.0887 381.243 96.1533C382.91 97.8196 383.339 101.519 383.465 105.407V105.397Z" fill="#4C224B"/>
<path d="M416.434 165.175C401.762 161.623 380.802 160.669 380.802 160.669C369.976 169.273 355.44 169.409 345.872 160.669C345.872 160.669 325.247 162.01 310.711 165.469C315.469 175.438 322.954 183.856 332.298 189.749C341.641 195.641 352.463 198.767 363.51 198.764V198.764C374.609 198.764 385.48 195.606 394.852 189.658C404.223 183.71 411.709 175.219 416.434 165.175V165.175Z" fill="#94A5E4"/>
<path d="M345.873 153.752V162.503C358.261 171.642 369.914 171.767 380.782 162.503V153.752C374.61 157.745 349.803 157.2 345.873 153.752Z" fill="#94A5E4"/>
<path d="M362.904 166.034C361.216 166.034 359.518 165.961 357.884 165.814C354.645 165.531 346.953 164.494 345.496 161.056L346.219 160.742C347.121 162.838 351.459 164.462 357.957 165.039C366.907 165.814 378.047 164.378 380.447 160.689L381.108 161.119C378.959 164.41 370.921 166.034 362.904 166.034Z" fill="#6C82BC"/>
<path d="M362.966 158.793C359.822 158.793 356.678 158.646 354.173 158.384C349.729 157.902 347.078 157.126 346.281 156.068L346.91 155.596C347.214 155.995 348.524 156.99 354.246 157.598C363.343 158.562 377.187 157.787 379.765 155.502L380.289 156.089C378.141 157.965 370.323 158.793 362.966 158.793Z" fill="#6C82BC"/>
</g>
<g clip-path="url(#clip2_5047_11658)">
<path d="M408.869 358.199C431.714 335.353 431.714 298.313 408.869 275.467C386.023 252.622 348.983 252.622 326.137 275.467C303.292 298.313 303.292 335.353 326.137 358.199C348.983 381.044 386.023 381.044 408.869 358.199Z" fill="#C1D7FD"/>
<path d="M405.773 347.716C422.279 336.524 412.428 318.121 397.462 293.513C395.348 289.933 393.866 286.016 393.081 281.933C391.845 276.016 388.602 270.71 383.9 266.911C379.199 263.113 373.329 261.057 367.285 261.091C361.241 261.126 355.395 263.249 350.737 267.101C346.08 270.953 342.897 276.296 341.729 282.226C340.951 286.432 339.556 290.501 337.589 294.299C323.818 320.332 310.341 341.313 330.022 347.748L405.773 347.716Z" fill="#4C224B"/>
<path d="M381.177 309.129H353.771V344.091H381.177V309.129Z" fill="#E2988F"/>
<path d="M417.773 346.742C404.872 341.313 381.313 337.236 381.313 337.236C372.279 344.845 360.856 344.792 353.75 337.236C353.75 337.236 329.919 340.768 316.473 345.474C321.331 354.131 328.314 361.408 336.763 366.621C345.212 371.834 354.848 374.81 364.765 375.269C365.687 375.269 366.62 375.332 367.553 375.332C377.683 375.324 387.638 372.685 396.441 367.673C405.245 362.662 412.596 355.449 417.773 346.742V346.742Z" fill="#F4BA5D"/>
<path d="M353.77 333.265L348.373 338.106C348.373 338.106 351.517 351.731 357.952 351.94C364.387 352.15 367.384 342.906 367.384 342.906C361.299 341.257 356.761 338.044 353.77 333.265Z" fill="white"/>
<path d="M381.167 333.265L386.554 338.106C386.554 338.106 383.41 351.731 376.975 351.94C370.54 352.15 367.49 342.906 367.49 342.906C373.653 341.257 378.211 338.044 381.167 333.265Z" fill="white"/>
<path d="M379.887 264.595C381 257.739 376.344 251.279 369.489 250.166C362.633 249.053 356.173 253.709 355.06 260.565C353.947 267.421 358.603 273.881 365.459 274.994C372.314 276.106 378.774 271.451 379.887 264.595Z" fill="#4C224B"/>
<path d="M367.438 266.768C349.768 266.768 345.754 280.046 346.121 293.366C346.121 302.966 345.45 306.078 346.341 308.457C346.834 311.843 353.677 329.103 367.438 329.103C381.198 329.103 387.455 312.754 388.649 308.457C389.54 306.078 388.733 302.966 388.733 293.366C389.121 280.046 385.097 266.768 367.438 266.768Z" fill="#E2988F"/>
<path d="M367.438 329.492C362.292 329.492 357.597 327.165 353.479 322.586L354.055 322.062C358.027 326.505 362.523 328.706 367.438 328.706C372.353 328.706 376.975 326.474 380.884 322.072L381.471 322.596C377.415 327.176 372.689 329.492 367.438 329.492Z" fill="#C46966"/>
<path d="M346.896 293.681C346.896 293.681 343.343 289.09 339.696 291.773C336.049 294.456 339.601 309.673 346.896 306.99C354.19 304.307 346.896 293.681 346.896 293.681Z" fill="#E2988F"/>
<path d="M388.041 293.681C388.041 293.681 391.593 289.09 395.241 291.773C398.888 294.456 395.335 309.673 388.041 306.99C380.747 304.307 388.041 293.681 388.041 293.681Z" fill="#E2988F"/>
<path d="M345.523 300.715L344.744 300.823L345.656 307.362L346.435 307.254L345.523 300.715Z" fill="#C46966"/>
<path d="M389.288 300.723L388.68 307.266L389.462 307.338L390.07 300.796L389.288 300.723Z" fill="#C46966"/>
<path d="M341.488 299.676C340.681 297.328 340.639 295.641 341.362 294.687C341.549 294.446 341.789 294.252 342.064 294.119C342.338 293.987 342.64 293.919 342.945 293.922L342.892 294.708V294.31V294.708C342.713 294.707 342.536 294.748 342.376 294.829C342.216 294.909 342.077 295.025 341.97 295.169C341.593 295.683 341.331 296.835 342.222 299.424L341.488 299.676Z" fill="#C46966"/>
<path d="M393.711 299.675L392.977 299.424C393.868 296.814 393.596 295.672 393.208 295.159C393.102 295.02 392.966 294.907 392.81 294.828C392.653 294.75 392.481 294.709 392.307 294.708V293.922C392.61 293.921 392.909 293.989 393.182 294.122C393.454 294.254 393.693 294.448 393.879 294.687C394.56 295.641 394.528 297.328 393.711 299.675Z" fill="#C46966"/>
<path d="M393.585 306.372C393.585 306.694 393.489 307.008 393.311 307.275C393.133 307.542 392.879 307.75 392.582 307.873C392.285 307.996 391.959 308.028 391.643 307.966C391.328 307.903 391.039 307.748 390.812 307.521C390.585 307.294 390.43 307.005 390.367 306.689C390.304 306.374 390.337 306.048 390.46 305.751C390.583 305.454 390.791 305.2 391.058 305.022C391.325 304.843 391.639 304.748 391.96 304.748C392.174 304.747 392.386 304.788 392.584 304.869C392.781 304.95 392.961 305.07 393.112 305.221C393.263 305.372 393.383 305.552 393.464 305.749C393.545 305.947 393.586 306.159 393.585 306.372V306.372Z" fill="white"/>
<path d="M344.768 306.372C344.77 306.696 344.676 307.013 344.497 307.284C344.319 307.554 344.064 307.765 343.766 307.89C343.467 308.016 343.138 308.05 342.82 307.988C342.503 307.926 342.21 307.771 341.981 307.543C341.751 307.315 341.594 307.023 341.53 306.706C341.466 306.388 341.498 306.059 341.621 305.76C341.745 305.46 341.954 305.204 342.224 305.024C342.493 304.844 342.809 304.748 343.133 304.748C343.347 304.747 343.559 304.788 343.758 304.869C343.956 304.95 344.136 305.069 344.288 305.22C344.44 305.371 344.561 305.551 344.643 305.748C344.725 305.946 344.768 306.158 344.768 306.372V306.372Z" fill="white"/>
<path d="M345.25 286.973C359.905 290.052 375.041 290.052 389.696 286.973C389.696 286.973 389.979 265.342 368.065 264.672C346.151 264.001 345.25 286.973 345.25 286.973Z" fill="#4C224B"/>
<path d="M379.729 264.536C371.84 261.35 363.022 261.35 355.133 264.536L354.85 263.802C362.918 260.549 371.933 260.549 380.002 263.802L379.729 264.536Z" fill="#703870"/>
<path d="M390.358 286.68C389.887 280.836 387.658 275.272 383.965 270.719L384.573 270.216C388.362 274.893 390.649 280.607 391.133 286.607L390.358 286.68Z" fill="#703870"/>
<path d="M345.156 286.68L344.381 286.607C344.854 280.608 347.134 274.893 350.92 270.216L351.528 270.719C347.843 275.275 345.621 280.839 345.156 286.68V286.68Z" fill="#703870"/>
<path d="M352.272 288.19L351.486 288.127C351.779 284.605 352.483 281.13 353.582 277.772L354.326 278.014C353.251 281.315 352.562 284.73 352.272 288.19V288.19Z" fill="#703870"/>
<path d="M380.444 288.536H379.658C379.676 285.758 379.302 282.992 378.547 280.319L379.312 280.12C380.077 282.859 380.458 285.692 380.444 288.536V288.536Z" fill="#703870"/>
<path d="M377.78 277.678C377.204 275.875 376.732 274.67 376.732 274.659L377.456 274.355C377.456 274.408 377.969 275.592 378.566 277.437L377.78 277.678Z" fill="#703870"/>
</g>
<g clip-path="url(#clip3_5047_11658)">
<path d="M60.5 199.704C92.8087 199.704 119 173.513 119 141.204C119 108.895 92.8087 82.7041 60.5 82.7041C28.1913 82.7041 2 108.895 2 141.204C2 173.513 28.1913 199.704 60.5 199.704Z" fill="#C1D7FD"/>
<path d="M94.56 136.509C98.752 112.405 88.7854 81.8132 61.5057 80.063C52.8072 79.5075 44.3078 82.704 39.9167 88.8663C24.8672 94.798 23.5991 121.229 25.2864 130.305C29.8977 155.247 7.66935 150.961 13.3077 174.321L59.7765 171.764H61.5581L107.189 172.351C110.993 154.755 92.684 155.939 94.56 136.509Z" fill="#4C224B"/>
<path d="M74.177 133.501H46.7715V168.463H74.177V133.501Z" fill="#E2988F"/>
<path d="M110.772 171.103C97.8817 165.685 74.3119 161.608 74.3119 161.608C65.278 169.206 53.8547 169.165 46.7387 161.608C46.7387 161.608 22.9174 165.13 9.46094 169.846C14.321 178.501 21.3043 185.776 29.7529 190.987C38.2016 196.198 47.8376 199.172 57.7533 199.63C58.686 199.63 59.6188 199.704 60.5515 199.704C70.6836 199.699 80.6405 197.061 89.445 192.046C98.2494 187.032 105.599 179.815 110.772 171.103Z" fill="#D85D63"/>
<path d="M84.7293 129.257C83.6813 129.257 82.8848 130.724 82.8848 132.548C82.8848 134.371 83.7441 135.859 84.7293 135.859C85.7144 135.859 86.5842 134.382 86.5842 132.569C86.5842 130.755 85.7563 129.257 84.7293 129.257ZM84.7293 134.392C84.0271 134.392 83.4612 133.344 83.4612 132.128C83.4612 130.913 84.0271 129.865 84.7293 129.865C85.4314 129.865 86.0078 130.913 86.0078 132.128C86.0078 133.344 85.4314 134.413 84.7293 134.413V134.392Z" fill="white"/>
<path d="M34.2793 132.569C34.2793 134.382 35.1072 135.859 36.1343 135.859C37.1613 135.859 37.9788 134.382 37.9788 132.569C37.9788 130.755 37.1508 129.257 36.1343 129.257C35.1177 129.257 34.2793 130.745 34.2793 132.569ZM34.8557 132.149C34.8557 130.902 35.4321 129.886 36.1343 129.886C36.8364 129.886 37.4024 130.934 37.4024 132.149C37.4024 133.365 36.8364 134.413 36.1343 134.413C35.4321 134.413 34.8557 133.449 34.8557 132.149Z" fill="white"/>
<path d="M60.4483 91.1611C42.7789 91.1821 38.765 104.418 39.1318 117.728C39.1318 127.328 39.0689 134.402 39.9597 136.781C40.8505 139.16 47.0652 153.444 60.4483 153.476C73.8419 153.476 80.0357 139.16 80.9265 136.792C81.8173 134.423 81.7544 127.359 81.7544 117.739C82.1317 104.418 78.1073 91.1821 60.4483 91.1611Z" fill="#E2988F"/>
<path d="M60.4486 153.864C55.2085 153.864 50.461 151.768 46.3633 147.576L46.9292 147.031C48.6038 148.933 50.6611 150.459 52.9664 151.511C55.2717 152.562 57.7731 153.115 60.3068 153.132C62.8405 153.15 65.3494 152.633 67.6692 151.614C69.9891 150.595 72.0676 149.098 73.7688 147.22L74.3347 147.775C72.5532 149.678 70.4037 151.199 68.0167 152.245C65.6297 153.292 63.0549 153.843 60.4486 153.864Z" fill="#C46966"/>
<path d="M39.9072 117.278C39.9072 117.278 36.3545 112.038 32.7074 115.108C29.0603 118.179 32.6131 135.545 39.9072 132.464C47.2014 129.382 39.9072 117.278 39.9072 117.278Z" fill="#E2988F"/>
<path d="M81.0524 117.278C81.0524 117.278 84.6052 112.038 88.2522 115.108C91.8993 118.179 88.3466 135.545 81.0524 132.464C73.7582 129.382 81.0524 117.278 81.0524 117.278Z" fill="#E2988F"/>
<path d="M39.2391 127.3L38.4531 127.355L38.8471 132.983L39.6331 132.928L39.2391 127.3Z" fill="#C46966"/>
<path d="M81.646 126.42L81.1836 132.628L81.9674 132.686L82.4299 126.478L81.646 126.42Z" fill="#C46966"/>
<path d="M34.4882 124.09C33.6498 121.302 33.6498 119.374 34.4882 118.337C34.6634 118.109 34.8889 117.925 35.1472 117.8C35.4054 117.674 35.6893 117.611 35.9764 117.613V118.399V118.001V118.399C35.8137 118.403 35.6541 118.445 35.5104 118.522C35.3667 118.598 35.2428 118.707 35.1484 118.84C34.7816 119.301 34.331 120.579 35.3161 123.87L34.4882 124.09Z" fill="#C46966"/>
<path d="M86.7319 124.09L85.9774 123.87C86.9625 120.579 86.5119 119.301 86.1451 118.84C86.0497 118.705 85.924 118.596 85.7784 118.519C85.6327 118.443 85.4711 118.402 85.3066 118.399V117.613C85.5936 117.611 85.8772 117.675 86.1353 117.801C86.3934 117.926 86.6191 118.11 86.7948 118.336C87.5704 119.374 87.5703 121.302 86.7319 124.09Z" fill="#C46966"/>
<path d="M37.6851 133.449C37.5561 133.459 37.4264 133.459 37.2974 133.449H37.2135C36.9935 134.098 36.5952 134.497 36.1655 134.497C35.4634 134.497 34.887 133.449 34.887 132.233C34.887 131.017 35.4529 129.98 36.155 129.969C36.2357 129.969 36.313 129.937 36.37 129.88C36.4269 129.823 36.459 129.746 36.459 129.665C36.459 129.585 36.4269 129.507 36.37 129.45C36.313 129.393 36.2357 129.361 36.155 129.361C35.107 129.361 34.3105 130.839 34.3105 132.652C34.3105 134.465 35.1385 135.943 36.1655 135.943C37.0144 135.943 37.7271 134.895 37.9367 133.511L37.6851 133.449Z" fill="white"/>
<path d="M84.7926 129.257C84.712 129.257 84.6347 129.289 84.5777 129.346C84.5207 129.403 84.4887 129.48 84.4887 129.561C84.4887 129.641 84.5207 129.719 84.5777 129.776C84.6347 129.833 84.712 129.865 84.7926 129.865C85.4947 129.865 86.0607 130.913 86.0607 132.128C86.0607 133.344 85.4843 134.392 84.7821 134.392C84.3943 134.392 84.0485 134.067 83.8179 133.575C83.755 133.575 83.6922 133.679 83.6188 133.721C83.5454 133.763 83.3044 133.91 83.1367 134.004C83.4406 135.052 84.059 135.838 84.7821 135.838C85.8301 135.838 86.6371 134.361 86.6371 132.548C86.6371 130.735 85.7567 129.257 84.7926 129.257Z" fill="white"/>
<path d="M39.0157 116.209C38.9809 113.476 39.5787 110.772 40.7622 108.309C41.9458 105.846 43.6831 103.689 45.8383 102.009C52.1263 113.034 69.4604 116.785 85.2854 111.304C85.2854 111.304 83.7553 84.8211 59.0222 86.3722C34.2892 87.9233 39.0157 116.209 39.0157 116.209Z" fill="#4C224B"/>
</g>
<g clip-path="url(#clip4_5047_11658)">
<path d="M115.436 330.571C122.858 299.127 103.383 267.619 71.9387 260.198C40.494 252.776 8.98661 272.251 1.56499 303.695C-5.85663 335.14 13.6179 366.647 45.0626 374.069C76.5073 381.491 108.015 362.016 115.436 330.571Z" fill="#C1D7FD"/>
<path d="M75.8349 309.432H41.1562V344.393H75.8349V309.432Z" fill="#E2988F"/>
<path d="M88.8095 284.887C87.1012 280.799 83.6218 282.791 83.6218 282.791C85.634 264.251 76.1914 252 58.501 252C40.8105 252 31.368 264.251 33.3487 282.812C33.3487 282.812 29.8693 280.799 28.1086 284.908C26.348 289.016 29.513 298.532 31.4413 301.613C32.0031 302.484 32.8108 303.17 33.7623 303.582C34.7137 303.994 35.7661 304.115 36.7862 303.929C36.7862 303.929 37.0167 310.364 37.9075 312.743C38.7984 315.122 45.0655 329.406 58.501 329.406C71.9365 329.406 78.1197 315.101 79.0106 312.722C79.9014 310.343 80.1319 303.646 80.1319 303.646C81.1301 303.904 82.1842 303.84 83.144 303.464C84.1038 303.088 84.9202 302.418 85.4768 301.55C87.4051 298.542 90.5177 288.974 88.8095 284.887Z" fill="#E2988F"/>
<path d="M58.5005 329.794C50.1164 329.794 42.2668 320.75 40.7891 318.926L41.3969 318.434C42.8327 320.205 50.4203 329.008 58.5005 329.008C66.5806 329.008 74.1263 320.33 75.5411 318.591L76.149 319.094C74.6922 320.875 66.9998 329.794 58.5005 329.794Z" fill="#C46966"/>
<path d="M36.9386 298.943L36.1543 298.995L36.4845 303.941L37.2688 303.889L36.9386 298.943Z" fill="#C46966"/>
<path d="M80.1233 298.942L79.75 303.622L80.5335 303.685L80.9068 299.004L80.1233 298.942Z" fill="#C46966"/>
<path d="M30.5072 294.099C29.3753 289.739 29.5535 287.067 31.0626 285.715L31.5971 286.291C30.3395 287.444 30.2347 289.949 31.2722 293.942L30.5072 294.099Z" fill="#C46966"/>
<path d="M86.6698 294.099L85.9362 293.921C86.9842 289.928 86.8689 287.424 85.6113 286.271L86.1353 285.694C87.6235 287.067 87.8017 289.729 86.6698 294.099Z" fill="#C46966"/>
<path d="M86.9861 265.541C80.457 260.248 73.9174 254.977 68.8555 253.688C65.5284 252.527 62.0244 251.956 58.5011 252C46.47 252 36.409 255.7 34.8685 267.113C29.3455 269.429 30.3935 278.368 31.5568 282.319C32.1959 282.331 32.8223 282.5 33.3803 282.812V282.812C35.7278 284.332 36.2623 288.471 35.8955 292.569C41.1356 292.569 37.1741 275.654 41.2928 271.546C56.8767 281.345 77.6902 276.199 77.6902 276.199C78.2771 282.592 77.4177 292.59 81.1067 292.569C80.698 288.681 80.698 284.363 83.6115 282.812C84.0095 279.379 83.9566 275.908 83.4543 272.489C85.5015 270.729 86.7709 268.232 86.9861 265.541Z" fill="#F4BA5D"/>
<path d="M45.0651 303.741C42.9136 303.739 40.811 303.099 39.0232 301.902C37.2354 300.705 35.8428 299.005 35.0213 297.016C34.1999 295.027 33.9866 292.84 34.4083 290.73C34.8301 288.62 35.8681 286.683 37.3909 285.163C38.9137 283.643 40.853 282.609 42.9636 282.191C45.0742 281.774 47.2613 281.991 49.2483 282.816C51.2352 283.642 52.9329 285.038 54.1265 286.828C55.3201 288.618 55.9561 290.722 55.954 292.873C55.9484 295.757 54.7988 298.522 52.7573 300.559C50.7159 302.597 47.9494 303.741 45.0651 303.741V303.741ZM45.0651 282.781C43.0695 282.783 41.1193 283.377 39.461 284.487C37.8027 285.597 36.5108 287.174 35.7485 289.018C34.9862 290.863 34.7879 292.892 35.1785 294.849C35.5691 296.806 36.5311 298.603 37.943 300.013C39.3548 301.424 41.1531 302.384 43.1106 302.772C45.068 303.161 47.0967 302.96 48.9402 302.196C50.7837 301.432 52.3593 300.139 53.4678 298.479C54.5763 296.82 55.168 294.869 55.168 292.873C55.1652 290.196 54.0996 287.629 52.2052 285.736C50.3109 283.844 47.7428 282.781 45.0651 282.781V282.781Z" fill="white"/>
<path d="M71.9259 303.741C69.7735 303.743 67.6689 303.107 65.8783 301.912C64.0878 300.718 62.6918 299.019 61.8672 297.031C61.0425 295.042 60.8262 292.854 61.2456 290.743C61.665 288.632 62.7013 286.693 64.2233 285.171C65.7453 283.649 67.6846 282.612 69.7958 282.193C71.907 281.773 74.0951 281.99 76.0833 282.814C78.0715 283.639 79.7703 285.035 80.9649 286.826C82.1594 288.616 82.7959 290.721 82.7938 292.873C82.7855 295.753 81.6379 298.512 79.6015 300.549C77.5652 302.585 74.8057 303.733 71.9259 303.741V303.741ZM71.9259 282.781C69.9294 282.779 67.9771 283.369 66.3161 284.477C64.655 285.584 63.3598 287.16 62.5944 289.004C61.8289 290.848 61.6275 292.877 62.0158 294.836C62.404 296.794 63.3644 298.593 64.7754 300.006C66.1864 301.418 67.9847 302.381 69.9427 302.771C71.9007 303.161 73.9305 302.962 75.7752 302.198C77.62 301.435 79.1968 300.141 80.3062 298.481C81.4157 296.821 82.0078 294.87 82.0078 292.873C82.0051 290.199 80.9423 287.635 79.0525 285.744C77.1627 283.852 74.5999 282.786 71.9259 282.781V282.781Z" fill="white"/>
<path d="M61.508 290.515C61.0428 290.038 60.4821 289.664 59.8627 289.418C59.2433 289.173 58.579 289.061 57.9133 289.089C57.4431 289.135 56.9882 289.281 56.5795 289.518C56.1708 289.755 55.8179 290.077 55.5448 290.462L54.916 289.991C55.2568 289.518 55.6951 289.123 56.2013 288.834C56.7075 288.545 57.2699 288.367 57.8504 288.314C58.6245 288.271 59.3986 288.394 60.1214 288.675C60.8442 288.955 61.4991 289.385 62.0425 289.938L61.508 290.515Z" fill="white"/>
<path d="M108.501 347.516C98.046 342.948 87.0988 339.6 75.8767 337.539C67.6183 346.154 48.4607 346.269 41.156 337.539C29.9231 339.597 18.9653 342.945 8.5 347.516C13.7183 356.102 21.0598 363.2 29.8172 368.126C38.5747 373.051 48.453 375.639 58.5006 375.639C68.5482 375.639 78.4266 373.051 87.184 368.126C95.9415 363.2 103.283 356.102 108.501 347.516V347.516Z" fill="#94A5E4"/>
<path d="M57.9437 349.12C53.5825 349.201 49.2548 348.343 45.2548 346.603C41.2547 344.864 37.676 342.284 34.7617 339.038L35.3591 338.524C44.917 349.612 64.5567 353.301 83.5676 338.902L84.0497 339.531C75.1416 346.322 66.0868 349.12 57.9437 349.12Z" fill="#6C82BC"/>
</g>
<g clip-path="url(#clip5_5047_11658)">
<path d="M208.5 467.634C240.809 467.634 267 441.442 267 409.134C267 376.825 240.809 350.634 208.5 350.634C176.191 350.634 150 376.825 150 409.134C150 441.442 176.191 467.634 208.5 467.634Z" fill="#C1D7FD"/>
<path d="M223.969 401.431H193.021V436.392H223.969V401.431Z" fill="#E2988F"/>
<path d="M238.809 376.887C237.101 372.799 233.622 374.791 233.622 374.791C235.634 356.251 226.191 344 208.501 344C190.811 344 181.368 356.251 183.349 374.812C183.349 374.812 179.869 372.799 178.109 376.908C176.348 381.016 179.513 390.532 181.441 393.613C182.895 395.692 184.704 397.498 186.786 398.947C186.928 400.917 187.304 402.862 187.908 404.743C188.798 407.122 198.891 418.042 201.857 419.708C205.745 422.003 211.488 422.003 214.978 419.708C217.944 418.042 228.036 407.132 228.927 404.743C229.53 402.862 229.906 400.917 230.048 398.947C232.13 397.498 233.939 395.692 235.393 393.613C237.405 390.542 240.518 380.974 238.809 376.887Z" fill="#E2988F"/>
<path d="M208.689 421.783C206.269 421.809 203.885 421.202 201.772 420.023C199.969 418.975 195.84 414.877 192.77 411.461L193.346 410.937C196.49 414.416 200.514 418.419 202.16 419.321C205.933 421.542 211.508 421.542 214.872 419.321C216.549 418.377 220.584 414.374 223.717 410.937L224.294 411.461C221.223 414.877 217.083 419.017 215.281 420.033C213.294 421.229 211.008 421.836 208.689 421.783V421.783Z" fill="#C46966"/>
<path d="M186.28 390.918L185.5 391.015L186.481 398.972L187.261 398.875L186.28 390.918Z" fill="#C46966"/>
<path d="M230.657 390.931L229.771 398.889L230.553 398.976L231.438 391.018L230.657 390.931Z" fill="#C46966"/>
<path d="M180.465 386.067C180.298 385.459 178.914 380.145 180.832 378.731C181.041 378.576 181.284 378.472 181.54 378.426C181.797 378.381 182.06 378.395 182.31 378.469C182.66 378.63 182.975 378.859 183.236 379.144C183.497 379.428 183.699 379.761 183.829 380.124L183.096 380.407C182.991 380.135 182.593 379.359 182.048 379.213C181.914 379.177 181.773 379.172 181.636 379.199C181.5 379.226 181.372 379.285 181.262 379.37C180.161 380.208 180.633 383.824 181.199 385.899L180.465 386.067Z" fill="#C46966"/>
<path d="M236.534 386.067L235.768 385.858C236.345 383.762 236.816 380.167 235.695 379.318C235.589 379.234 235.464 379.176 235.331 379.151C235.197 379.125 235.06 379.132 234.93 379.171C234.301 379.381 233.882 380.356 233.882 380.366L233.148 380.083C233.279 379.72 233.481 379.387 233.742 379.102C234.002 378.818 234.317 378.588 234.668 378.427C234.913 378.354 235.172 378.338 235.424 378.38C235.677 378.422 235.916 378.52 236.125 378.668C238.085 380.146 236.691 385.459 236.534 386.067Z" fill="#C46966"/>
<path d="M185.894 384.569C191.134 384.569 187.173 367.654 191.292 363.545C193.388 361.449 196.437 361.806 199.057 362.497C202.117 363.273 205.262 364.321 208.489 364.405C211.895 364.499 215.134 363.252 218.404 362.455C220.94 361.837 223.644 361.575 225.74 363.566C229.858 367.675 225.886 384.621 231.137 384.589C230.697 380.68 230.697 376.363 233.61 374.812C235.633 356.251 226.19 344 208.5 344C190.809 344 181.367 356.251 183.348 374.812C185.727 376.331 186.261 380.471 185.894 384.569Z" fill="#4C224B"/>
<path d="M258.501 439.516C241.985 432.18 223.98 429.539 223.98 429.539C215.711 438.154 200.305 438.321 193.021 429.539C193.021 429.539 175.017 432.149 158.5 439.516C163.718 448.102 171.06 455.2 179.817 460.126C188.575 465.051 198.453 467.639 208.501 467.639C218.548 467.639 228.427 465.051 237.184 460.126C245.941 455.2 253.283 448.102 258.501 439.516V439.516Z" fill="#F4BA5D"/>
<path d="M188.84 430.136L193.021 422.632L206.562 434.789L198.282 443.865L188.84 430.136Z" fill="white"/>
<path d="M228.14 430.136L223.958 422.632L210.418 434.789L218.708 443.865L228.14 430.136Z" fill="white"/>
</g>
<defs>
<filter id="filter0_b_5047_11658" x="18.1582" y="37.2314" width="397.57" height="395.243" filterUnits="userSpaceOnUse" color-interpolation-filters="sRGB">
<feFlood flood-opacity="0" result="BackgroundImageFix"/>
<feGaussianBlur in="BackgroundImageFix" stdDeviation="5"/>
<feComposite in2="SourceAlpha" operator="in" result="effect1_backgroundBlur_5047_11658"/>
<feBlend mode="normal" in="SourceGraphic" in2="effect1_backgroundBlur_5047_11658" result="shape"/>
</filter>
<radialGradient id="paint0_radial_5047_11658" cx="0" cy="0" r="1" gradientUnits="userSpaceOnUse" gradientTransform="translate(28.1582 435.97) rotate(-42.1341) scale(411.331 1021.85)">
<stop offset="0.145833" stop-color="#73ABFF" stop-opacity="0.19"/>
<stop offset="1" stop-color="#A1C3FC"/>
</radialGradient>
<linearGradient id="paint1_linear_5047_11658" x1="204.658" y1="173.742" x2="204.658" y2="195.227" gradientUnits="userSpaceOnUse">
<stop stop-color="#F7BC4B"/>
<stop offset="1" stop-color="#F69652"/>
</linearGradient>
<linearGradient id="paint2_linear_5047_11658" x1="217.875" y1="169.878" x2="217.875" y2="190.294" gradientUnits="userSpaceOnUse">
<stop stop-color="#F7BC4B"/>
<stop offset="1" stop-color="#F69652"/>
</linearGradient>
<linearGradient id="paint3_linear_5047_11658" x1="211.266" y1="200.634" x2="211.266" y2="183.936" gradientUnits="userSpaceOnUse">
<stop stop-color="#F4B53F"/>
<stop offset="1" stop-color="#EF853F"/>
</linearGradient>
<clipPath id="clip0_5047_11658">
<rect width="117" height="117.713" fill="white" transform="translate(147)"/>
</clipPath>
<clipPath id="clip1_5047_11658">
<rect width="117" height="122.764" fill="white" transform="translate(305 76)"/>
</clipPath>
<clipPath id="clip2_5047_11658">
<rect width="117" height="125.332" fill="white" transform="translate(309 250)"/>
</clipPath>
<clipPath id="clip3_5047_11658">
<rect width="117" height="119.704" fill="white" transform="translate(2 80)"/>
</clipPath>
<clipPath id="clip4_5047_11658">
<rect width="117" height="123.634" fill="white" transform="translate(0 252)"/>
</clipPath>
<clipPath id="clip5_5047_11658">
<rect width="117" height="123.634" fill="white" transform="translate(150 344)"/>
</clipPath>
</defs>
</svg>
