<svg width="100" height="100" viewBox="0 0 100 100" fill="none" xmlns="http://www.w3.org/2000/svg">
<g clip-path="url(#clip0_279_6374)">
<path d="M100 0H0V100H100V0Z" fill="url(#paint0_linear_279_6374)"/>
<g clip-path="url(#clip1_279_6374)">
<path fill-rule="evenodd" clip-rule="evenodd" d="M49.999 14L73.999 50.0003L65.1446 63.2822L43.457 23.8132L49.999 14Z" fill="url(#paint1_linear_279_6374)"/>
<path fill-rule="evenodd" clip-rule="evenodd" d="M36.2696 34.5957L73.9999 50.0004L65.1455 63.2823L26 50.0004L36.2696 34.5957Z" fill="url(#paint2_linear_279_6374)"/>
<path fill-rule="evenodd" clip-rule="evenodd" d="M50 86.0001L26 49.9998L36.2697 34.595L59.298 72.0529L50 86.0001Z" fill="url(#paint3_linear_279_6374)"/>
</g>
</g>
<defs>
<linearGradient id="paint0_linear_279_6374" x1="100" y1="0" x2="100" y2="100" gradientUnits="userSpaceOnUse">
<stop stop-color="#4070FF"/>
<stop offset="1" stop-color="#365FD9"/>
</linearGradient>
<linearGradient id="paint1_linear_279_6374" x1="65.2211" y1="14" x2="65.2211" y2="14" gradientUnits="userSpaceOnUse">
<stop stop-color="white"/>
<stop offset="1" stop-color="#E1E1E1"/>
</linearGradient>
<linearGradient id="paint2_linear_279_6374" x1="73.9999" y1="58.9862" x2="43.4579" y2="58.9862" gradientUnits="userSpaceOnUse">
<stop stop-color="white"/>
<stop offset="1" stop-color="#E1E1E1"/>
</linearGradient>
<linearGradient id="paint3_linear_279_6374" x1="32.6031" y1="42.8468" x2="32.6031" y2="72.3292" gradientUnits="userSpaceOnUse">
<stop stop-color="white"/>
<stop offset="1" stop-color="#E1E1E1"/>
</linearGradient>
<clipPath id="clip0_279_6374">
<rect width="100" height="100" fill="white"/>
</clipPath>
<clipPath id="clip1_279_6374">
<rect width="48" height="72" fill="white" transform="translate(26 14)"/>
</clipPath>
</defs>
</svg>
