<?xml version="1.0" encoding="UTF-8"?>
<svg xmlns="http://www.w3.org/2000/svg" xmlns:xlink="http://www.w3.org/1999/xlink" width="108px" height="23px" viewBox="0 0 108 23" version="1.1">
<g id="surface1">
<path style=" stroke:none;fill-rule:evenodd;fill:rgb(0%,28.235294%,48.627451%);fill-opacity:1;" d="M 0 11.457031 C 0 17.78125 5.105469 22.914062 11.394531 22.914062 C 17.683594 22.914062 22.785156 17.78125 22.785156 11.457031 C 22.785156 5.132812 17.683594 0 11.394531 0 C 5.105469 0 0 5.132812 0 11.457031 Z M 0.402344 11.457031 C 0.402344 5.34375 5.335938 0.382812 11.414062 0.382812 C 17.492188 0.382812 22.425781 5.34375 22.425781 11.457031 C 22.425781 17.546875 17.492188 22.511719 11.414062 22.511719 C 5.335938 22.53125 0.402344 17.570312 0.402344 11.457031 Z M 0.402344 11.457031 "/>
<path style=" stroke:none;fill-rule:evenodd;fill:rgb(0%,28.235294%,48.627451%);fill-opacity:1;" d="M 3.558594 8.328125 C 6.480469 6.410156 9.699219 5.28125 15.164062 6.238281 C 15.457031 6.070312 15.628906 5.898438 15.714844 5.535156 C 14.359375 5.046875 12.875 4.875 10.96875 4.898438 C 9.253906 4.941406 6.164062 5.578125 4.511719 6.558594 L 5.019531 5.921875 C 6.183594 5.238281 9.191406 4.34375 11.433594 4.28125 C 13.023438 4.257812 13.847656 4.34375 15.734375 4.855469 C 15.566406 4.535156 15.183594 4.367188 14.613281 4.109375 C 12.789062 3.28125 9.359375 3.214844 6.566406 4.449219 C 6.925781 4.214844 7.261719 4.003906 7.730469 3.789062 C 8.660156 3.363281 10.164062 2.960938 12.050781 2.980469 C 13.554688 3.003906 15.351562 3.535156 16.453125 4.621094 C 16.644531 4.835938 16.75 5.070312 16.792969 5.261719 C 17.660156 5.707031 18.167969 6.113281 18.445312 6.601562 C 18.550781 6.855469 18.613281 7.132812 18.550781 7.433594 C 18.910156 7.644531 19.078125 7.835938 19.269531 8.070312 C 19.398438 8.261719 19.503906 8.496094 19.523438 8.710938 C 19.566406 8.988281 19.589844 9.285156 19.3125 9.648438 C 19.609375 9.796875 19.84375 10.199219 19.882812 10.394531 C 20.011719 11.054688 19.609375 11.691406 19.039062 12.203125 C 18.402344 12.777344 16.984375 13.4375 15.839844 13.734375 C 13.554688 14.3125 11.542969 14.566406 9.933594 14.863281 C 10.652344 15.035156 11.625 15.269531 13.234375 15.269531 C 16.644531 15.269531 19.652344 13.652344 19.652344 13.652344 C 19.652344 13.652344 19.589844 13.863281 19.523438 14.054688 C 17.363281 15.375 13.914062 15.929688 12.453125 15.867188 C 10.949219 15.800781 9.699219 15.566406 8.46875 15.183594 C 8.089844 15.289062 7.730469 15.398438 7.371094 15.566406 C 9.234375 16.417969 10.652344 16.609375 12.261719 16.738281 C 13.890625 16.867188 16.582031 16.460938 18.867188 15.632812 C 18.761719 15.738281 18.71875 15.910156 18.613281 15.992188 C 17.449219 16.609375 14.972656 17.230469 13.742188 17.269531 C 12.515625 17.3125 11.011719 17.269531 9.699219 17.035156 C 8.578125 16.824219 7.644531 16.460938 6.691406 16.035156 C 6.523438 16.164062 6.4375 16.335938 6.394531 16.527344 C 10.058594 18.484375 13.574219 18.527344 17.578125 17.269531 L 17.214844 17.632812 C 12.8125 19.421875 9.382812 18.71875 6.714844 17.441406 C 6.628906 17.398438 6.523438 17.355469 6.4375 17.3125 C 6.691406 17.738281 8.726562 19.230469 10.992188 19.421875 C 12.558594 19.550781 14.464844 19.273438 15.605469 18.824219 L 14.929688 19.167969 C 14.378906 19.445312 12.917969 20.0625 10.882812 19.910156 C 8.175781 19.71875 6.648438 18.527344 5.949219 17.890625 C 5.632812 17.589844 5.484375 17.25 5.378906 16.824219 C 4.765625 16.503906 4.382812 16.164062 4.066406 15.675781 C 3.875 15.375 3.917969 15.054688 3.960938 14.78125 L 4.023438 14.523438 C 3.726562 14.3125 3.429688 14.078125 3.304688 13.84375 C 3.027344 13.351562 3.199219 12.949219 3.386719 12.605469 C 3.21875 12.414062 3.070312 12.246094 3.007812 12.054688 C 2.945312 11.820312 2.921875 11.605469 2.945312 11.371094 C 2.984375 10.96875 3.21875 10.585938 3.492188 10.265625 C 4.085938 9.582031 5.019531 9.050781 6.628906 8.519531 C 8.195312 8.007812 8.808594 7.921875 9.996094 7.644531 C 11.371094 7.324219 13.023438 7.21875 14.398438 6.730469 C 10.566406 6.046875 6.566406 6.664062 3.324219 8.921875 Z M 16.625 5.941406 C 16.582031 6.132812 16.371094 6.347656 16.242188 6.496094 C 16.664062 6.601562 17.089844 6.75 17.492188 6.921875 C 17.429688 6.539062 17.003906 6.175781 16.625 5.941406 Z M 4.808594 13.652344 C 4.554688 13.5 4.382812 13.417969 4.191406 13.269531 C 4.085938 13.5 4.296875 13.777344 4.511719 13.90625 C 4.59375 13.820312 4.703125 13.734375 4.808594 13.652344 Z M 17.746094 8.605469 C 18.019531 8.730469 18.273438 8.839844 18.507812 9.007812 C 18.675781 8.667969 18.570312 8.453125 18.210938 8.15625 C 18.085938 8.328125 17.914062 8.476562 17.746094 8.605469 Z M 16.921875 9.113281 C 16.371094 9.371094 15.542969 9.648438 14.398438 9.945312 C 13.46875 10.179688 11.160156 10.519531 8.683594 11.054688 C 7.898438 11.222656 5.78125 11.734375 4.742188 12.605469 C 5.039062 12.839844 5.210938 12.90625 5.546875 13.074219 C 5.972656 12.800781 6.566406 12.542969 7.433594 12.308594 C 8.957031 11.90625 10.078125 11.734375 11.457031 11.5 C 12.8125 11.285156 15.351562 10.753906 16.773438 10.242188 C 17.238281 10.074219 17.660156 9.859375 17.980469 9.605469 C 17.871094 9.519531 16.960938 9.070312 16.921875 9.113281 Z M 6.246094 15.054688 C 6.457031 14.929688 6.714844 14.800781 6.988281 14.695312 C 6.585938 14.523438 6.183594 14.355469 5.78125 14.160156 C 5.589844 14.269531 5.421875 14.394531 5.292969 14.523438 C 5.613281 14.695312 5.910156 14.886719 6.246094 15.054688 Z M 4.933594 15.183594 C 4.933594 15.441406 5.082031 15.675781 5.421875 15.949219 C 5.464844 15.800781 5.527344 15.714844 5.632812 15.589844 C 5.378906 15.460938 5.167969 15.3125 4.933594 15.183594 Z M 6.859375 10.457031 C 9.636719 9.648438 12.558594 9.390625 15.523438 8.605469 C 14.359375 8.285156 13.742188 8.15625 12.515625 8.304688 C 10.738281 8.519531 8.789062 8.902344 7.117188 9.390625 C 6.457031 9.582031 3.007812 10.5625 4.003906 11.945312 C 4.003906 11.96875 4.59375 11.136719 6.859375 10.457031 Z M 17.28125 7.601562 C 16.835938 7.390625 16.261719 7.199219 15.648438 7.027344 C 15.375 7.242188 15.078125 7.433594 14.613281 7.601562 C 15.351562 7.730469 15.925781 7.945312 16.558594 8.136719 C 16.6875 8.199219 17.195312 7.710938 17.28125 7.601562 Z M 18.65625 10.285156 C 18.570312 10.351562 18.488281 10.433594 18.382812 10.5 C 17.746094 10.988281 16.75 11.371094 15.375 11.753906 C 12.515625 12.523438 10.441406 12.648438 8.066406 13.226562 C 7.601562 13.332031 7.136719 13.5 6.691406 13.671875 C 7.136719 13.90625 7.601562 14.097656 8.089844 14.289062 C 9.042969 14.011719 9.507812 13.886719 10.90625 13.652344 C 11.433594 13.566406 13.066406 13.269531 14.25 13.011719 C 16.371094 12.585938 19.480469 11.585938 18.65625 10.285156 Z M 18.65625 10.285156 "/>
<path style=" stroke:none;fill-rule:evenodd;fill:rgb(0%,28.235294%,48.627451%);fill-opacity:1;" d="M 33.691406 16.441406 L 36.042969 16.441406 L 36.316406 14.714844 L 37.925781 14.714844 L 38.203125 16.441406 L 40.554688 16.441406 L 38.5625 6.410156 L 35.640625 6.410156 Z M 37.144531 9.433594 L 37.589844 12.5 L 36.71875 12.5 Z M 37.144531 9.433594 "/>
<path style=" stroke:none;fill-rule:evenodd;fill:rgb(0%,28.235294%,48.627451%);fill-opacity:1;" d="M 42.796875 10.308594 C 43.179688 10.308594 43.855469 10.074219 43.855469 9.328125 C 43.855469 8.453125 43.050781 8.390625 42.839844 8.390625 C 42.566406 8.390625 42.078125 8.433594 41.570312 8.667969 L 41.546875 6.496094 C 42.332031 6.304688 42.902344 6.238281 43.558594 6.238281 C 45.445312 6.238281 46.3125 7.582031 46.3125 8.878906 C 46.3125 10.160156 45.570312 10.925781 44.871094 11.222656 L 44.871094 11.328125 C 45.550781 11.542969 46.460938 12.203125 46.460938 13.734375 C 46.460938 15.632812 45.148438 16.675781 43.476562 16.675781 C 42.566406 16.675781 41.992188 16.546875 41.292969 16.164062 L 41.335938 14.078125 C 41.992188 14.355469 42.4375 14.375 42.882812 14.375 C 43.625 14.375 43.921875 13.820312 43.921875 13.417969 C 43.921875 12.863281 43.558594 12.480469 42.777344 12.480469 L 41.824219 12.480469 L 41.824219 10.308594 Z M 42.796875 10.308594 "/>
<path style=" stroke:none;fill-rule:evenodd;fill:rgb(0%,28.235294%,48.627451%);fill-opacity:1;" d="M 53.871094 16.441406 L 51.542969 16.441406 L 51.542969 8.816406 L 49.871094 8.816406 L 49.871094 16.441406 L 47.542969 16.441406 L 47.542969 6.410156 L 53.871094 6.410156 Z M 53.871094 16.441406 "/>
<path style=" stroke:none;fill-rule:evenodd;fill:rgb(0%,28.235294%,48.627451%);fill-opacity:1;" d="M 55.1875 16.441406 L 57.492188 16.441406 L 57.492188 13.140625 L 58.277344 13.140625 C 60.566406 13.140625 61.285156 11.074219 61.285156 9.753906 C 61.285156 8.453125 60.480469 6.410156 58.277344 6.410156 L 55.1875 6.410156 Z M 57.492188 8.625 L 58.042969 8.625 C 58.574219 8.625 58.890625 8.945312 58.890625 9.773438 C 58.890625 10.859375 58.339844 10.925781 58.042969 10.925781 L 57.492188 10.925781 Z M 57.492188 8.625 "/>
<path style=" stroke:none;fill-rule:evenodd;fill:rgb(0%,28.235294%,48.627451%);fill-opacity:1;" d="M 65.5625 16.570312 C 68.316406 16.570312 69.226562 13.992188 69.226562 11.414062 C 69.226562 8.839844 68.292969 6.261719 65.5625 6.261719 C 62.808594 6.261719 61.898438 8.839844 61.898438 11.414062 C 61.898438 13.992188 62.832031 16.570312 65.5625 16.570312 Z M 65.5625 14.140625 C 64.757812 14.140625 64.335938 13.183594 64.335938 11.414062 C 64.335938 9.648438 64.757812 8.6875 65.5625 8.6875 C 66.386719 8.6875 66.789062 9.648438 66.789062 11.414062 C 66.8125 13.183594 66.386719 14.140625 65.5625 14.140625 Z M 65.5625 14.140625 "/>
<path style=" stroke:none;fill-rule:evenodd;fill:rgb(0%,28.235294%,48.627451%);fill-opacity:1;" d="M 79.304688 16.441406 L 82.078125 16.441406 C 82.671875 16.441406 85.171875 16.183594 85.191406 13.160156 C 85.191406 10.605469 83.246094 10.160156 81.996094 10.160156 L 81.59375 10.160156 L 81.59375 8.839844 L 84.664062 8.839844 L 84.664062 6.410156 L 79.328125 6.410156 L 79.328125 16.441406 Z M 81.59375 14.4375 L 81.59375 12.160156 L 81.933594 12.160156 C 82.207031 12.160156 82.925781 12.179688 82.925781 13.203125 C 82.925781 14.269531 82.1875 14.4375 81.933594 14.4375 Z M 81.59375 14.4375 "/>
<path style=" stroke:none;fill-rule:evenodd;fill:rgb(0%,28.235294%,48.627451%);fill-opacity:1;" d="M 99.65625 16.441406 L 97.410156 16.441406 L 97.410156 12.4375 L 95.78125 12.4375 L 95.78125 16.441406 L 93.515625 16.441406 L 93.515625 6.410156 L 95.78125 6.410156 L 95.78125 10.03125 L 97.410156 10.03125 L 97.410156 6.410156 L 99.65625 6.410156 Z M 99.65625 16.441406 "/>
<path style=" stroke:none;fill-rule:evenodd;fill:rgb(0%,28.235294%,48.627451%);fill-opacity:1;" d="M 107.703125 6.410156 L 105.925781 11.179688 L 107.957031 16.441406 L 105.289062 16.441406 L 103.996094 12.414062 L 103.445312 12.414062 L 103.445312 16.441406 L 101.179688 16.441406 L 101.179688 6.410156 L 103.445312 6.410156 L 103.445312 10.03125 L 103.933594 10.03125 L 105.246094 6.410156 Z M 107.703125 6.410156 "/>
<path style=" stroke:none;fill-rule:evenodd;fill:rgb(0%,28.235294%,48.627451%);fill-opacity:1;" d="M 29.222656 6.410156 L 33.96875 6.410156 L 33.96875 8.921875 L 31.574219 8.921875 L 31.574219 16.441406 L 29.222656 16.441406 Z M 29.222656 6.410156 "/>
<path style=" stroke:none;fill-rule:evenodd;fill:rgb(0%,28.235294%,48.627451%);fill-opacity:1;" d="M 75.453125 16.441406 L 75.453125 10.328125 L 74.054688 12.074219 L 72.65625 10.328125 L 72.65625 16.441406 L 70.347656 16.441406 L 70.347656 6.410156 L 72.316406 6.410156 L 74.054688 8.773438 L 75.789062 6.410156 L 77.761719 6.410156 L 77.761719 16.441406 Z M 75.453125 16.441406 "/>
<path style=" stroke:none;fill-rule:evenodd;fill:rgb(0%,28.235294%,48.627451%);fill-opacity:1;" d="M 85.636719 16.460938 L 87.988281 16.460938 L 88.261719 14.738281 L 89.871094 14.738281 L 90.167969 16.460938 L 92.519531 16.460938 L 90.53125 6.429688 L 87.605469 6.429688 Z M 89.089844 9.457031 L 89.535156 12.523438 L 88.664062 12.523438 Z M 89.089844 9.457031 "/>
</g>
</svg>
