<?xml version="1.0" encoding="UTF-8"?>
<svg xmlns="http://www.w3.org/2000/svg" xmlns:xlink="http://www.w3.org/1999/xlink" width="356px" height="32px" viewBox="0 0 354 32" version="1.1">
<g id="surface1">
<path style=" stroke:none;fill-rule:evenodd;fill:rgb(0%,0%,0%);fill-opacity:1;" d="M 23.207031 22.664062 L 23.207031 11.5 C 23.207031 8.332031 21.511719 6.828125 18.671875 6.828125 C 16.3125 6.828125 14.269531 8.234375 13.375 9.644531 C 12.800781 7.882812 11.363281 6.828125 9.097656 6.828125 C 6.734375 6.828125 4.691406 8.300781 4.054688 9.226562 L 4.054688 7.210938 L 0 7.210938 L 0 22.664062 L 4.054688 22.664062 L 4.054688 12.265625 C 4.660156 11.402344 5.839844 10.445312 7.246094 10.445312 C 8.90625 10.445312 9.542969 11.46875 9.542969 12.90625 L 9.542969 22.664062 L 13.628906 22.664062 L 13.628906 12.234375 C 14.203125 11.402344 15.386719 10.445312 16.820312 10.445312 C 18.480469 10.445312 19.121094 11.46875 19.121094 12.90625 L 19.121094 22.664062 Z M 34.34375 23.050781 C 29.269531 23.050781 26.207031 19.339844 26.207031 14.921875 C 26.207031 10.539062 29.269531 6.828125 34.34375 6.828125 C 39.453125 6.828125 42.515625 10.539062 42.515625 14.921875 C 42.515625 19.339844 39.453125 23.050781 34.34375 23.050781 Z M 34.34375 19.433594 C 36.867188 19.433594 38.304688 17.355469 38.304688 14.921875 C 38.304688 12.523438 36.867188 10.445312 34.34375 10.445312 C 31.824219 10.445312 30.417969 12.523438 30.417969 14.921875 C 30.417969 17.355469 31.824219 19.433594 34.34375 19.433594 Z M 59.976562 22.664062 L 59.976562 11.753906 C 59.976562 8.746094 58.347656 6.828125 54.964844 6.828125 C 52.445312 6.828125 50.558594 8.042969 49.570312 9.226562 L 49.570312 7.210938 L 45.515625 7.210938 L 45.515625 22.664062 L 49.570312 22.664062 L 49.570312 12.265625 C 50.242188 11.339844 51.484375 10.445312 53.082031 10.445312 C 54.804688 10.445312 55.921875 11.179688 55.921875 13.324219 L 55.921875 22.664062 Z M 71.148438 23.050781 C 66.074219 23.050781 63.007812 19.339844 63.007812 14.921875 C 63.007812 10.539062 66.074219 6.828125 71.148438 6.828125 C 76.253906 6.828125 79.320312 10.539062 79.320312 14.921875 C 79.320312 19.339844 76.253906 23.050781 71.148438 23.050781 Z M 71.148438 19.433594 C 73.667969 19.433594 75.105469 17.355469 75.105469 14.921875 C 75.105469 12.523438 73.667969 10.445312 71.148438 10.445312 C 68.625 10.445312 67.222656 12.523438 67.222656 14.921875 C 67.222656 17.355469 68.625 19.433594 71.148438 19.433594 Z M 86.375 17.707031 C 87.042969 18.699219 88.542969 19.433594 89.851562 19.433594 C 92.214844 19.433594 93.777344 17.640625 93.777344 14.953125 C 93.777344 12.265625 92.214844 10.445312 89.851562 10.445312 C 88.542969 10.445312 87.042969 11.210938 86.375 12.234375 Z M 86.375 22.664062 L 82.320312 22.664062 L 82.320312 1.324219 L 86.375 1.324219 L 86.375 9.195312 C 87.585938 7.628906 89.308594 6.828125 91.128906 6.828125 C 95.054688 6.828125 97.960938 9.898438 97.960938 14.953125 C 97.960938 20.105469 95.023438 23.050781 91.128906 23.050781 C 89.277344 23.050781 87.585938 22.21875 86.375 20.679688 Z M 114.335938 22.664062 L 110.28125 22.664062 L 110.28125 21.066406 C 109.226562 22.3125 107.410156 23.050781 105.398438 23.050781 C 102.941406 23.050781 100.035156 21.386719 100.035156 17.929688 C 100.035156 14.316406 102.941406 12.9375 105.398438 12.9375 C 107.441406 12.9375 109.257812 13.609375 110.28125 14.828125 L 110.28125 12.746094 C 110.28125 11.179688 108.941406 10.15625 106.898438 10.15625 C 105.238281 10.15625 103.707031 10.765625 102.398438 11.980469 L 100.863281 9.261719 C 102.746094 7.597656 105.171875 6.828125 107.601562 6.828125 C 111.109375 6.828125 114.335938 8.234375 114.335938 12.683594 Z M 107.023438 20.296875 C 108.332031 20.296875 109.609375 19.851562 110.28125 18.953125 L 110.28125 17.035156 C 109.609375 16.136719 108.332031 15.691406 107.023438 15.691406 C 105.429688 15.691406 104.121094 16.523438 104.121094 18.027344 C 104.121094 19.464844 105.429688 20.296875 107.023438 20.296875 Z M 132.816406 22.664062 L 132.816406 11.753906 C 132.816406 8.746094 131.1875 6.828125 127.804688 6.828125 C 125.28125 6.828125 123.398438 8.042969 122.410156 9.226562 L 122.410156 7.210938 L 118.355469 7.210938 L 118.355469 22.664062 L 122.410156 22.664062 L 122.410156 12.265625 C 123.082031 11.339844 124.324219 10.445312 125.921875 10.445312 C 127.644531 10.445312 128.761719 11.179688 128.761719 13.324219 L 128.761719 22.664062 Z M 151.902344 22.664062 L 145.617188 14.21875 L 151.710938 7.210938 L 146.734375 7.210938 L 140.890625 14.089844 L 140.890625 1.324219 L 136.835938 1.324219 L 136.835938 22.664062 L 140.890625 22.664062 L 140.890625 18.699219 L 142.742188 16.714844 L 146.828125 22.664062 Z M 151.902344 22.664062 "/>
<path style=" stroke:none;fill-rule:evenodd;fill:rgb(0%,0%,0%);fill-opacity:0.6;" d="M 342.140625 4.246094 L 345.460938 4.246094 L 345.460938 14.832031 L 345.648438 14.832031 L 349.96875 9.746094 L 353.03125 9.738281 L 348.292969 15.296875 L 354 22.25 L 350.175781 22.25 L 345.507812 15.777344 L 345.460938 15.777344 L 345.460938 22.25 L 342.140625 22.25 L 342.140625 4.246094 M 184.269531 5.050781 L 184.269531 14.921875 C 184.269531 18.285156 185.265625 20.125 188.046875 20.125 C 190.710938 20.125 191.777344 17.894531 191.777344 15.117188 L 191.777344 5.050781 L 194.917969 5.050781 L 194.917969 15.730469 C 194.917969 20.074219 192.078125 22.535156 187.949219 22.535156 C 183.222656 22.535156 180.765625 20.246094 180.765625 15.558594 L 180.765625 5.050781 L 184.269531 5.050781 M 202.253906 11.410156 C 203.375 10.234375 204.941406 9.667969 206.507812 9.667969 C 209.417969 9.667969 210.960938 11.234375 210.960938 14.328125 L 210.960938 22.238281 L 207.65625 22.238281 L 207.65625 14.703125 C 207.65625 12.980469 206.886719 11.851562 205.167969 11.851562 C 203.550781 11.851562 202.28125 12.90625 202.28125 14.921875 L 202.28125 22.238281 L 198.972656 22.238281 L 198.972656 9.960938 L 202.253906 9.960938 L 202.253906 11.410156 M 214.84375 22.238281 L 218.152344 22.238281 L 218.152344 9.960938 L 214.84375 9.960938 Z M 214.519531 6.277344 C 214.519531 5.347656 215.316406 4.386719 216.4375 4.386719 C 217.582031 4.386719 218.472656 5.320312 218.472656 6.277344 C 218.472656 7.332031 217.707031 8.339844 216.488281 8.339844 C 215.316406 8.339844 214.519531 7.332031 214.519531 6.277344 Z M 225.472656 22.238281 L 220.175781 9.90625 L 223.683594 9.90625 C 224.753906 12.734375 225.867188 15.390625 226.910156 18.800781 L 226.960938 18.800781 C 228.082031 15.390625 229.140625 12.734375 230.28125 9.90625 L 233.386719 9.90625 L 227.78125 22.238281 L 225.472656 22.238281 M 243.226562 14.628906 C 243.355469 12.757812 242.683594 11.484375 241.046875 11.484375 C 239.148438 11.484375 238.296875 12.980469 238.332031 14.628906 Z M 238.277344 16.394531 C 238.203125 18.707031 239.84375 20.421875 241.910156 20.421875 C 243.136719 20.421875 244.421875 20.003906 245.246094 19.4375 L 246.191406 21.160156 C 244.5 22.140625 242.730469 22.535156 241.316406 22.535156 C 237.558594 22.535156 234.75 19.90625 234.75 15.855469 C 234.75 12.070312 237.53125 9.667969 241.089844 9.667969 C 244.972656 9.667969 246.589844 12.734375 246.34375 16.394531 Z M 252.835938 12.121094 L 252.882812 12.121094 L 253.554688 11.164062 C 253.925781 10.621094 254.671875 9.667969 255.691406 9.667969 C 256.4375 9.667969 257.238281 10.0625 257.933594 10.769531 L 256.6875 13.03125 C 256.140625 12.757812 255.792969 12.613281 255.125 12.613281 C 253.980469 12.613281 252.859375 13.523438 252.859375 16.171875 L 252.859375 22.238281 L 249.542969 22.238281 L 249.542969 9.960938 L 252.835938 9.960938 L 252.835938 12.121094 M 266.765625 12.265625 C 266.019531 11.726562 265.25 11.484375 264.648438 11.484375 C 263.902344 11.484375 263.15625 11.898438 263.15625 12.734375 C 263.15625 13.71875 264.351562 14.285156 265.742188 15.285156 C 267.515625 16.59375 268.03125 17.871094 268.03125 18.992188 C 268.03125 20.71875 266.113281 22.535156 263.382812 22.535156 C 261.664062 22.535156 260.398438 21.945312 259.230469 21.136719 L 260.273438 19.4375 C 261.015625 20.03125 262.085938 20.617188 262.980469 20.617188 C 263.929688 20.617188 264.773438 20.125 264.773438 19.09375 C 264.773438 17.941406 263.476562 17.300781 262.285156 16.464844 C 260.867188 15.511719 259.902344 14.578125 259.902344 13.058594 C 259.902344 11.113281 261.785156 9.667969 264.222656 9.667969 C 265.597656 9.667969 266.9375 10.007812 267.839844 10.796875 L 266.765625 12.269531 M 276.1875 15.707031 C 274.574219 16.222656 273.753906 17.128906 273.753906 18.527344 C 273.753906 19.613281 274.449219 20.347656 275.253906 20.347656 C 276.566406 20.347656 278.285156 18.726562 278.039062 15.117188 Z M 277.238281 21.0625 C 276.34375 21.800781 275.199219 22.535156 274.058594 22.535156 C 272.117188 22.535156 270.492188 21.0625 270.492188 18.800781 C 270.492188 16.464844 272.214844 15.167969 275.101562 14.328125 L 278.039062 13.46875 C 277.863281 12.34375 276.839844 11.632812 275.777344 11.632812 C 274.355469 11.632812 273.359375 12.148438 272.488281 12.882812 L 271.414062 11.335938 C 272.960938 10.085938 274.476562 9.667969 276.1875 9.667969 C 278.484375 9.667969 281.296875 10.398438 281.296875 14.234375 L 281.296875 19.242188 C 281.296875 20.226562 281.417969 21.382812 281.820312 22.238281 L 278.3125 22.238281 C 278.054688 21.820312 277.984375 21.109375 277.984375 20.445312 Z M 285.003906 22.238281 L 288.316406 22.238281 L 288.316406 4.191406 L 285.003906 4.191406 Z M 317.617188 15.707031 C 315.996094 16.222656 315.175781 17.128906 315.175781 18.527344 C 315.175781 19.613281 315.871094 20.347656 316.671875 20.347656 C 317.984375 20.347656 319.703125 18.726562 319.460938 15.117188 Z M 318.65625 21.0625 C 317.765625 21.800781 316.617188 22.535156 315.472656 22.535156 C 313.535156 22.535156 311.914062 21.0625 311.914062 18.800781 C 311.914062 16.464844 313.632812 15.167969 316.523438 14.328125 L 319.460938 13.46875 C 319.277344 12.34375 318.265625 11.632812 317.1875 11.632812 C 315.773438 11.632812 314.777344 12.148438 313.90625 12.882812 L 312.835938 11.335938 C 314.378906 10.085938 315.898438 9.667969 317.617188 9.667969 C 319.902344 9.667969 322.710938 10.398438 322.710938 14.234375 L 322.710938 19.242188 C 322.710938 20.226562 322.835938 21.382812 323.230469 22.238281 L 319.726562 22.238281 C 319.480469 21.820312 319.398438 21.109375 319.398438 20.445312 Z M 329.703125 11.410156 C 330.824219 10.234375 332.394531 9.667969 333.960938 9.667969 C 336.867188 9.667969 338.410156 11.234375 338.410156 14.328125 L 338.410156 22.238281 L 335.101562 22.238281 L 335.101562 14.703125 C 335.101562 12.980469 334.332031 11.851562 332.613281 11.851562 C 330.996094 11.851562 329.726562 12.90625 329.726562 14.921875 L 329.726562 22.238281 L 326.421875 22.238281 L 326.421875 9.960938 L 329.703125 9.960938 L 329.703125 11.410156 M 300.382812 20.171875 L 302.175781 20.171875 C 304.117188 20.171875 305.589844 19.167969 305.589844 17.253906 C 305.589844 15.238281 304.070312 14.378906 302.152344 14.378906 L 300.382812 14.378906 Z M 300.382812 12.265625 L 301.484375 12.265625 C 303.5 12.265625 304.871094 10.992188 304.871094 9.390625 C 304.871094 7.871094 303.722656 7.210938 302.203125 7.210938 L 300.382812 7.210938 Z M 296.878906 22.285156 L 296.878906 5.097656 L 303.175781 5.097656 C 306.109375 5.097656 308.175781 6.421875 308.175781 8.753906 C 308.175781 11.503906 305.914062 12.636719 304.695312 12.953125 L 304.695312 13.003906 C 306.859375 13.101562 309.269531 14.574219 309.269531 17.199219 C 309.269531 20.171875 306.753906 22.285156 302.65625 22.285156 Z M 296.878906 22.285156 "/>
<path style=" stroke:none;fill-rule:evenodd;fill:rgb(0%,0%,0%);fill-opacity:0.4;" d="M 165.566406 0.00390625 L 166.894531 0.00390625 L 166.894531 31.996094 L 165.566406 31.996094 Z M 165.566406 0.00390625 "/>
</g>
</svg>
