<?xml version="1.0" encoding="UTF-8"?>
<svg xmlns="http://www.w3.org/2000/svg" xmlns:xlink="http://www.w3.org/1999/xlink" width="64px" height="32px" viewBox="0 0 64 32" version="1.1">
<g id="surface1">
<path style=" stroke:none;fill-rule:nonzero;fill:rgb(37.647059%,69.803922%,21.960784%);fill-opacity:1;" d="M 18.351562 17.785156 L 17.265625 17.785156 L 17.265625 13.925781 L 21.179688 13.925781 L 21.179688 17.785156 L 20.09375 17.785156 L 20.09375 14.675781 L 18.351562 14.675781 Z M 18.351562 17.785156 "/>
<path style=" stroke:none;fill-rule:nonzero;fill:rgb(37.647059%,69.803922%,21.960784%);fill-opacity:1;" d="M 21.707031 14.984375 L 21.707031 18.804688 L 22.710938 18.804688 L 22.710938 17.5 C 23.046875 17.863281 23.59375 17.890625 23.726562 17.890625 C 24.683594 17.890625 25.269531 17.277344 25.269531 16.390625 C 25.269531 15.464844 24.6875 14.882812 23.746094 14.882812 C 23.507812 14.882812 23.046875 14.917969 22.664062 15.320312 L 22.644531 15.320312 L 22.652344 14.984375 Z M 22.664062 16.378906 C 22.664062 15.597656 23.144531 15.445312 23.449219 15.445312 C 23.746094 15.445312 24.226562 15.597656 24.226562 16.378906 C 24.226562 16.867188 24.023438 17.328125 23.449219 17.328125 C 22.863281 17.328125 22.664062 16.867188 22.664062 16.378906 Z M 22.664062 16.378906 "/>
<path style=" stroke:none;fill-rule:nonzero;fill:rgb(37.647059%,69.803922%,21.960784%);fill-opacity:1;" d="M 27.753906 17.449219 C 27.382812 17.796875 27.027344 17.890625 26.632812 17.890625 C 25.550781 17.890625 25.511719 17.074219 25.511719 16.738281 L 25.511719 14.984375 L 26.515625 14.984375 L 26.515625 16.605469 C 26.515625 17.164062 26.707031 17.328125 27.074219 17.328125 C 27.707031 17.328125 27.753906 16.761719 27.753906 16.558594 L 27.753906 14.984375 L 28.757812 14.984375 L 28.757812 17.785156 L 27.753906 17.785156 Z M 27.753906 17.449219 "/>
<path style=" stroke:none;fill-rule:nonzero;fill:rgb(37.647059%,69.803922%,21.960784%);fill-opacity:1;" d="M 30.191406 16.605469 L 30.804688 16.605469 C 31.28125 16.605469 31.378906 16.75 31.378906 16.9375 C 31.378906 17.058594 31.3125 17.222656 30.820312 17.222656 L 30.191406 17.222656 Z M 29.191406 14.984375 L 29.191406 17.785156 L 31.183594 17.785156 C 31.90625 17.785156 32.40625 17.644531 32.40625 17.070312 C 32.40625 16.628906 32.164062 16.4375 31.609375 16.335938 L 31.609375 16.320312 C 31.972656 16.269531 32.289062 16.042969 32.289062 15.664062 C 32.289062 14.984375 31.5 14.984375 31.1875 14.984375 Z M 30.191406 15.546875 L 30.734375 15.546875 C 31.015625 15.546875 31.261719 15.59375 31.261719 15.824219 C 31.261719 16.078125 30.878906 16.082031 30.714844 16.082031 L 30.191406 16.082031 Z M 30.191406 15.546875 "/>
<path style=" stroke:none;fill-rule:nonzero;fill:rgb(37.647059%,69.803922%,21.960784%);fill-opacity:1;" d="M 33.671875 15.890625 C 33.671875 15.476562 34.109375 15.445312 34.285156 15.445312 C 34.398438 15.445312 34.8125 15.449219 34.828125 15.8125 C 34.828125 15.839844 34.828125 15.863281 34.828125 15.890625 C 34.808594 16.164062 34.542969 16.109375 33.804688 16.203125 C 33.199219 16.285156 32.558594 16.441406 32.558594 17.082031 C 32.558594 17.3125 32.660156 17.890625 33.726562 17.890625 C 34.136719 17.890625 34.582031 17.785156 34.847656 17.511719 L 34.867188 17.511719 L 34.953125 17.785156 L 36.007812 17.785156 L 36.007812 17.738281 C 35.816406 17.699219 35.804688 17.511719 35.808594 17.207031 L 35.828125 15.929688 C 35.835938 15.601562 35.804688 14.882812 34.292969 14.882812 C 33.929688 14.882812 32.765625 14.914062 32.71875 15.890625 Z M 34.832031 16.628906 C 34.832031 17.191406 34.347656 17.328125 34.101562 17.328125 C 33.917969 17.328125 33.585938 17.269531 33.585938 17.003906 C 33.585938 16.6875 33.964844 16.628906 34.175781 16.601562 C 34.5625 16.546875 34.53125 16.5625 34.832031 16.453125 Z M 34.832031 16.628906 "/>
<path style=" stroke:none;fill-rule:nonzero;fill:rgb(37.647059%,69.803922%,21.960784%);fill-opacity:1;" d="M 35.941406 15.546875 L 35.941406 14.984375 L 39.160156 14.984375 L 39.160156 15.546875 L 38.050781 15.546875 L 38.050781 17.785156 L 37.050781 17.785156 L 37.050781 15.546875 Z M 35.941406 15.546875 "/>
<path style=" stroke:none;fill-rule:nonzero;fill:rgb(37.647059%,69.803922%,21.960784%);fill-opacity:1;" d="M 40.4375 14.675781 L 42.9375 14.675781 L 42.9375 13.925781 L 39.347656 13.925781 L 39.347656 17.785156 L 41.550781 17.785156 C 42.621094 17.785156 43.304688 17.410156 43.304688 16.625 C 43.304688 15.386719 41.933594 15.359375 41.550781 15.359375 L 40.4375 15.359375 Z M 40.4375 16.109375 L 41.339844 16.109375 C 41.605469 16.109375 42.132812 16.136719 42.132812 16.601562 C 42.132812 16.964844 41.75 17.035156 41.320312 17.035156 L 40.4375 17.035156 Z M 40.4375 16.109375 "/>
<path style=" stroke:none;fill-rule:nonzero;fill:rgb(37.647059%,69.803922%,21.960784%);fill-opacity:1;" d="M 44.609375 15.890625 C 44.609375 15.476562 45.046875 15.445312 45.222656 15.445312 C 45.335938 15.445312 45.75 15.449219 45.765625 15.8125 C 45.765625 15.839844 45.765625 15.863281 45.765625 15.890625 C 45.746094 16.164062 45.480469 16.109375 44.742188 16.203125 C 44.136719 16.285156 43.496094 16.441406 43.496094 17.082031 C 43.496094 17.3125 43.59375 17.890625 44.664062 17.890625 C 45.070312 17.890625 45.519531 17.785156 45.785156 17.511719 L 45.804688 17.511719 L 45.890625 17.785156 L 46.945312 17.785156 L 46.945312 17.738281 C 46.753906 17.699219 46.738281 17.511719 46.746094 17.207031 L 46.765625 15.929688 C 46.773438 15.601562 46.738281 14.882812 45.230469 14.882812 C 44.867188 14.882812 43.699219 14.914062 43.65625 15.890625 Z M 45.769531 16.628906 C 45.769531 17.191406 45.28125 17.328125 45.039062 17.328125 C 44.855469 17.328125 44.523438 17.269531 44.523438 17.003906 C 44.523438 16.6875 44.898438 16.628906 45.109375 16.601562 C 45.5 16.546875 45.46875 16.5625 45.769531 16.453125 Z M 45.769531 16.628906 "/>
<path style=" stroke:none;fill-rule:nonzero;fill:rgb(37.647059%,69.803922%,21.960784%);fill-opacity:1;" d="M 48.195312 17.785156 L 47.195312 17.785156 L 47.195312 14.984375 L 48.195312 14.984375 L 48.195312 16.039062 L 49.402344 16.039062 L 49.402344 14.984375 L 50.40625 14.984375 L 50.40625 17.785156 L 49.402344 17.785156 L 49.402344 16.601562 L 48.195312 16.601562 Z M 48.195312 17.785156 "/>
<path style=" stroke:none;fill-rule:nonzero;fill:rgb(37.647059%,69.803922%,21.960784%);fill-opacity:1;" d="M 52.9375 14.984375 L 54.050781 14.984375 L 52.671875 16.296875 L 54.117188 17.785156 L 52.941406 17.785156 L 51.863281 16.5625 L 51.84375 16.5625 L 51.84375 17.785156 L 50.839844 17.785156 L 50.839844 14.984375 L 51.84375 14.984375 L 51.84375 16.109375 L 51.863281 16.109375 Z M 52.9375 14.984375 "/>
<path style=" stroke:none;fill-rule:nonzero;fill:rgb(21.568627%,20.392157%,20.784314%);fill-opacity:1;" d="M 9.988281 17.796875 L 12.496094 17.796875 L 12.496094 15.277344 L 9.988281 15.277344 Z M 9.988281 17.796875 "/>
<path style=" stroke:none;fill-rule:nonzero;fill:rgb(37.647059%,69.803922%,21.960784%);fill-opacity:1;" d="M 15.082031 12.6875 C 15.082031 13.542969 15.082031 15.609375 15.082031 16.464844 C 14.84375 16.464844 14.800781 16.464844 14.570312 16.464844 C 14.351562 14.597656 13.179688 13.421875 11.316406 13.199219 C 11.316406 12.96875 11.316406 12.925781 11.316406 12.6875 C 12.171875 12.6875 14.230469 12.6875 15.082031 12.6875 Z M 9.992188 11.355469 L 9.992188 14.488281 L 10.652344 14.488281 C 12.402344 14.488281 13.285156 15.378906 13.285156 17.132812 L 13.285156 17.796875 L 16.410156 17.796875 L 16.410156 11.355469 Z M 9.992188 11.355469 "/>
</g>
</svg>
