<?xml version="1.0" encoding="UTF-8"?>
<svg xmlns="http://www.w3.org/2000/svg" xmlns:xlink="http://www.w3.org/1999/xlink" width="186px" height="32px" viewBox="0 0 186 32" version="1.1">
<g id="surface1">
<path style=" stroke:none;fill-rule:evenodd;fill:rgb(40.392157%,65.098039%,0%);fill-opacity:1;" d="M 42.40625 21.328125 L 38.660156 21.328125 L 38.660156 16.691406 L 42.40625 16.691406 C 43.359375 16.691406 44.046875 16.757812 44.441406 16.921875 C 45.363281 17.214844 45.855469 17.90625 45.855469 18.960938 C 45.855469 20.539062 44.707031 21.328125 42.40625 21.328125 Z M 43.359375 13.335938 L 33.898438 13.335938 L 33.898438 30.601562 L 38.660156 30.601562 L 38.660156 24.683594 L 43.226562 24.683594 C 48.417969 24.683594 51.011719 22.742188 51.011719 18.925781 C 51.011719 15.210938 48.449219 13.335938 43.359375 13.335938 Z M 62.382812 20.078125 C 60.441406 20.078125 59.128906 20.667969 58.371094 21.886719 C 57.847656 22.707031 57.585938 23.890625 57.585938 25.472656 L 57.585938 30.601562 L 53.183594 30.601562 L 53.183594 18.105469 L 57.585938 18.105469 L 57.585938 20.144531 C 58.503906 18.464844 60.246094 17.613281 62.773438 17.613281 L 63.300781 17.613281 L 63.300781 20.078125 Z M 70.101562 16.261719 L 65.535156 16.261719 L 65.535156 13.335938 L 70.101562 13.335938 Z M 70.003906 30.601562 L 65.601562 30.601562 L 65.601562 18.105469 L 70.003906 18.105469 Z M 82.027344 30.601562 L 77.132812 30.601562 L 71.742188 18.105469 L 76.539062 18.105469 L 79.597656 26.851562 L 82.617188 18.105469 L 87.414062 18.105469 Z M 94.808594 28.5625 C 94.25 28.5625 93.753906 28.464844 93.328125 28.234375 C 92.804688 27.96875 92.574219 27.609375 92.574219 27.113281 C 92.574219 26.160156 93.425781 25.570312 95.136719 25.304688 C 96.152344 25.175781 96.679688 25.078125 96.710938 25.078125 C 96.976562 25.011719 97.402344 24.878906 98.027344 24.648438 L 98.027344 25.4375 C 98.027344 26.589844 97.597656 27.445312 96.746094 28.003906 C 96.152344 28.363281 95.53125 28.5625 94.808594 28.5625 Z M 102.429688 29.613281 C 102.363281 29.320312 102.332031 28.792969 102.332031 28.035156 L 102.429688 22.3125 C 102.429688 21.097656 102.167969 20.175781 101.640625 19.519531 C 100.621094 18.234375 98.617188 17.613281 95.660156 17.613281 C 93.195312 17.613281 91.355469 18.105469 90.175781 19.089844 C 89.253906 19.847656 88.792969 20.867188 88.730469 22.148438 L 92.933594 22.148438 C 92.933594 20.800781 93.855469 20.109375 95.660156 20.109375 C 97.238281 20.109375 98.027344 20.667969 98.027344 21.789062 C 98.027344 22.019531 98.027344 22.117188 98.027344 22.117188 C 98.027344 22.609375 97.796875 22.90625 97.335938 23.039062 C 97.039062 23.136719 96.054688 23.269531 94.445312 23.433594 C 92.308594 23.628906 90.765625 24.023438 89.8125 24.550781 C 88.628906 25.175781 88.039062 26.128906 88.039062 27.445312 C 88.039062 28.398438 88.335938 29.1875 88.960938 29.8125 C 89.8125 30.667969 91.226562 31.09375 93.164062 31.09375 C 95.367188 31.09375 97.007812 30.535156 98.09375 29.382812 L 98.191406 29.382812 L 98.550781 30.601562 L 103.183594 30.601562 L 103.183594 30.402344 C 102.789062 30.304688 102.527344 30.042969 102.429688 29.613281 Z M 110.246094 30.960938 C 108.769531 30.960938 107.71875 30.667969 107.09375 30.042969 C 106.566406 29.484375 106.339844 28.5625 106.339844 27.3125 L 106.339844 20.605469 L 103.644531 20.605469 L 103.644531 18.105469 L 106.339844 18.105469 L 106.339844 14.324219 L 110.742188 14.324219 L 110.742188 18.105469 L 113.863281 18.105469 L 113.863281 20.605469 L 110.742188 20.605469 L 110.742188 26.621094 C 110.742188 27.214844 110.804688 27.609375 110.9375 27.804688 C 111.167969 28.167969 111.695312 28.332031 112.480469 28.332031 C 112.941406 28.332031 113.402344 28.265625 113.863281 28.101562 L 113.863281 30.632812 C 112.515625 30.863281 111.300781 30.960938 110.246094 30.960938 Z M 127.132812 19.550781 C 126.738281 19.945312 126.117188 20.144531 125.292969 20.144531 L 120.890625 20.144531 L 120.890625 16.691406 L 125.097656 16.691406 C 126.804688 16.691406 127.660156 17.25 127.660156 18.367188 C 127.660156 18.828125 127.496094 19.253906 127.132812 19.550781 Z M 129.238281 21.359375 L 129.238281 21.328125 C 131.4375 20.703125 132.554688 19.519531 132.554688 17.742188 C 132.554688 14.816406 130.453125 13.335938 126.28125 13.335938 L 116.128906 13.335938 L 116.128906 30.601562 L 125.789062 30.601562 C 130.976562 30.601562 133.574219 28.988281 133.574219 25.765625 C 133.574219 24.320312 133.015625 23.203125 131.867188 22.378906 C 131.140625 21.886719 130.289062 21.523438 129.238281 21.359375 Z M 125.851562 27.28125 L 120.890625 27.28125 L 120.890625 23.332031 L 125.523438 23.332031 C 125.6875 23.367188 125.886719 23.367188 126.082031 23.367188 C 126.871094 23.367188 127.496094 23.597656 127.957031 24.023438 C 128.316406 24.386719 128.515625 24.8125 128.515625 25.304688 C 128.515625 26.03125 128.152344 26.589844 127.429688 26.917969 C 126.9375 27.148438 126.410156 27.28125 125.851562 27.28125 Z M 144.054688 28.003906 C 143.496094 28.363281 142.839844 28.5625 142.148438 28.5625 C 141.589844 28.5625 141.0625 28.464844 140.636719 28.234375 C 140.144531 27.96875 139.882812 27.609375 139.882812 27.113281 C 139.882812 26.160156 140.769531 25.570312 142.476562 25.304688 C 143.460938 25.175781 143.988281 25.078125 144.054688 25.078125 C 144.316406 25.011719 144.742188 24.878906 145.367188 24.648438 L 145.367188 25.4375 C 145.367188 26.589844 144.941406 27.445312 144.054688 28.003906 Z M 149.769531 29.613281 C 149.671875 29.320312 149.671875 28.792969 149.671875 28.035156 L 149.738281 22.3125 C 149.769531 21.097656 149.507812 20.175781 148.980469 19.519531 C 147.929688 18.234375 145.960938 17.613281 143.003906 17.613281 C 140.503906 17.613281 138.699219 18.105469 137.515625 19.089844 C 136.597656 19.847656 136.101562 20.867188 136.070312 22.148438 L 140.277344 22.148438 C 140.277344 20.800781 141.195312 20.109375 142.96875 20.109375 C 144.578125 20.109375 145.367188 20.667969 145.367188 21.789062 C 145.367188 22.019531 145.367188 22.117188 145.367188 22.117188 C 145.367188 22.609375 145.105469 22.90625 144.679688 23.039062 C 144.347656 23.136719 143.398438 23.269531 141.785156 23.433594 C 139.652344 23.628906 138.074219 24.023438 137.15625 24.550781 C 135.9375 25.175781 135.347656 26.128906 135.347656 27.445312 C 135.347656 28.398438 135.675781 29.1875 136.300781 29.8125 C 137.15625 30.667969 138.566406 31.09375 140.503906 31.09375 C 142.707031 31.09375 144.347656 30.535156 145.433594 29.382812 L 145.53125 29.382812 L 145.894531 30.601562 L 150.527344 30.601562 L 150.527344 30.402344 C 150.132812 30.304688 149.867188 30.042969 149.769531 29.613281 Z M 162.78125 30.601562 L 162.78125 23.367188 C 162.78125 21.195312 161.957031 20.109375 160.285156 20.109375 C 159.394531 20.109375 158.671875 20.40625 158.148438 21 C 157.621094 21.589844 157.359375 22.445312 157.359375 23.5625 L 157.359375 30.601562 L 152.925781 30.601562 L 152.925781 18.105469 L 157.164062 18.105469 L 157.164062 19.585938 C 158.3125 18.269531 159.988281 17.613281 162.253906 17.613281 C 165.574219 17.613281 167.214844 19.320312 167.214844 22.742188 L 167.214844 30.601562 Z M 184.988281 30.601562 L 179.765625 30.601562 L 175.625 25.40625 L 174.148438 26.71875 L 174.148438 30.601562 L 169.710938 30.601562 L 169.710938 13.335938 L 174.148438 13.335938 L 174.148438 22.839844 L 179.175781 18.105469 L 184.496094 18.105469 L 178.617188 23.039062 Z M 1.011719 0.90625 L 1.011719 15.308594 L 4.097656 15.308594 C 12.148438 15.308594 16.222656 19.421875 16.222656 27.476562 L 16.222656 30.535156 L 30.613281 30.535156 L 30.613281 0.90625 Z M 24.5 24.417969 L 22.136719 24.417969 C 21.117188 15.800781 15.730469 10.410156 7.15625 9.390625 L 7.15625 7.023438 L 24.5 7.023438 Z M 24.5 24.417969 "/>
<path style=" stroke:none;fill-rule:evenodd;fill:rgb(13.72549%,12.156863%,12.54902%);fill-opacity:1;" d="M 12.574219 30.535156 L 12.574219 18.960938 L 1.011719 18.960938 L 1.011719 30.535156 Z M 12.574219 30.535156 "/>
</g>
</svg>
