<?xml version="1.0" encoding="UTF-8"?>
<svg xmlns="http://www.w3.org/2000/svg" xmlns:xlink="http://www.w3.org/1999/xlink" width="116px" height="32px" viewBox="0 0 115 32" version="1.1">
<g id="surface1">
<path style=" stroke:none;fill-rule:nonzero;fill:rgb(95.686275%,48.627451%,12.54902%);fill-opacity:1;" d="M 105.800781 8.621094 L 100.667969 3.554688 L 95.539062 8.621094 L 100.667969 13.6875 Z M 100.847656 0.179688 L 106.152344 0.179688 L 114.734375 8.621094 L 106.152344 17.066406 L 100.847656 17.066406 L 109.425781 8.621094 Z M 100.847656 0.179688 "/>
<path style=" stroke:none;fill-rule:nonzero;fill:rgb(0%,0%,0%);fill-opacity:1;" d="M 47.0625 11.378906 C 46.355469 12.800781 44.9375 13.6875 43.347656 13.6875 C 40.425781 13.6875 39.011719 11.289062 39.011719 8.710938 C 39.011719 6.132812 40.515625 3.734375 43.347656 3.734375 C 44.9375 3.734375 46.441406 4.621094 47.0625 6.042969 L 50.953125 4.355469 C 49.625 1.6875 46.972656 0 43.347656 0 C 37.863281 0 34.765625 3.734375 34.765625 8.710938 C 34.765625 13.6875 37.949219 17.421875 43.347656 17.421875 C 46.972656 17.421875 49.625 15.734375 50.953125 13.15625 Z M 25.125 3.644531 C 28.042969 3.644531 29.457031 6.042969 29.457031 8.621094 C 29.457031 11.199219 27.953125 13.601562 25.125 13.601562 C 22.292969 13.601562 20.789062 11.199219 20.789062 8.621094 C 20.789062 6.042969 22.203125 3.644531 25.125 3.644531 Z M 25.125 0 C 19.636719 0 16.542969 3.734375 16.542969 8.710938 C 16.542969 13.6875 19.726562 17.421875 25.125 17.421875 C 30.519531 17.421875 33.703125 13.6875 33.703125 8.710938 C 33.703125 3.734375 30.519531 0 25.125 0 Z M 4.15625 9.957031 L 9.464844 9.957031 C 11.058594 9.957031 11.589844 10.578125 11.589844 12 C 11.589844 13.066406 10.96875 13.957031 8.667969 13.957031 L 4.15625 13.957031 Z M 4.070312 3.378906 L 8.757812 3.378906 C 10.171875 3.378906 10.96875 3.734375 10.96875 5.15625 C 10.96875 6.398438 10.085938 6.933594 8.757812 6.933594 L 4.070312 6.933594 Z M 0 17.066406 L 8.933594 17.066406 C 13.269531 17.066406 15.921875 15.734375 15.921875 12.265625 C 15.921875 9.777344 14.066406 8.535156 11.675781 8.445312 L 11.675781 8.355469 C 13.976562 7.820312 15.304688 6.667969 15.304688 4.535156 C 15.304688 1.332031 13.003906 0.179688 9.464844 0.179688 L 0 0.179688 Z M 73.335938 3.644531 C 76.253906 3.644531 77.667969 6.042969 77.667969 8.621094 C 77.667969 11.199219 76.253906 13.601562 73.335938 13.601562 C 70.414062 13.601562 69 11.199219 69 8.621094 C 69 6.042969 70.503906 3.644531 73.335938 3.644531 Z M 73.335938 0 C 67.851562 0 64.753906 3.734375 64.753906 8.710938 C 64.753906 13.6875 67.9375 17.421875 73.335938 17.421875 C 78.820312 17.421875 81.914062 13.6875 81.914062 8.710938 C 81.914062 3.734375 78.820312 0 73.335938 0 Z M 51.484375 3.464844 L 55.996094 3.464844 L 55.996094 17.066406 L 60.332031 17.066406 L 60.332031 3.464844 L 64.84375 3.464844 L 64.84375 0.179688 L 51.574219 0.179688 Z M 91.824219 8.710938 L 100.402344 17.15625 L 95.097656 17.15625 L 87.3125 9.511719 L 87.3125 17.15625 L 83.066406 17.15625 L 83.066406 0.265625 L 87.398438 0.265625 L 87.398438 7.910156 L 95.183594 0.265625 L 100.492188 0.265625 Z M 91.824219 8.710938 "/>
<path style=" stroke:none;fill-rule:nonzero;fill:rgb(95.686275%,48.627451%,12.54902%);fill-opacity:1;" d="M 72.539062 19.289062 L 77.492188 19.289062 L 77.492188 20.710938 L 74.042969 20.710938 L 74.042969 22.933594 C 74.394531 22.933594 75.105469 22.933594 75.371094 22.933594 C 77.136719 22.933594 78.199219 23.820312 78.199219 25.332031 C 78.199219 26.933594 77.136719 27.820312 75.371094 27.820312 C 74.394531 27.820312 73.070312 27.820312 72.539062 27.820312 Z M 74.042969 24.089844 L 74.042969 26.578125 C 74.484375 26.578125 74.660156 26.578125 75.191406 26.578125 C 76.253906 26.578125 76.785156 26.042969 76.785156 25.332031 C 76.785156 24.621094 76.253906 24.089844 75.191406 24.089844 C 74.839844 24.089844 74.484375 24.089844 74.042969 24.089844 Z M 74.042969 24.089844 "/>
<path style=" stroke:none;fill-rule:nonzero;fill:rgb(95.686275%,48.627451%,12.54902%);fill-opacity:1;" d="M 82.359375 19.289062 L 83.683594 19.289062 L 87.398438 27.820312 L 85.71875 27.820312 L 84.835938 25.777344 L 80.941406 25.777344 L 80.058594 27.820312 L 78.464844 27.820312 Z M 81.472656 24.710938 L 84.390625 24.710938 L 82.976562 21.246094 Z M 81.472656 24.710938 "/>
<path style=" stroke:none;fill-rule:nonzero;fill:rgb(95.686275%,48.627451%,12.54902%);fill-opacity:1;" d="M 93.859375 24.179688 L 89.613281 24.179688 L 89.613281 27.820312 L 88.109375 27.820312 L 88.109375 19.289062 L 89.613281 19.289062 L 89.613281 22.753906 L 93.859375 22.753906 L 93.859375 19.289062 L 95.363281 19.289062 L 95.363281 27.820312 L 93.859375 27.820312 Z M 93.859375 24.179688 "/>
<path style=" stroke:none;fill-rule:nonzero;fill:rgb(95.686275%,48.627451%,12.54902%);fill-opacity:1;" d="M 97.128906 19.289062 L 98.632812 19.289062 L 98.632812 23.289062 L 101.996094 19.289062 L 104.207031 19.289062 L 100.757812 23.289062 L 104.472656 27.820312 L 102.171875 27.820312 L 98.722656 23.464844 L 98.722656 27.820312 L 97.21875 27.820312 L 97.21875 19.289062 Z M 97.128906 19.289062 "/>
</g>
</svg>
