<svg width="1600" height="453" viewBox="0 0 1600 453" fill="none" xmlns="http://www.w3.org/2000/svg">
<path fill-rule="evenodd" clip-rule="evenodd" d="M0 453H1723L1695.98 0H0L0 453Z" fill="url(#paint0_linear)"/>
<mask id="mask0" mask-type="alpha" maskUnits="userSpaceOnUse" x="0" y="0" width="1723" height="453">
<path fill-rule="evenodd" clip-rule="evenodd" d="M0 453H1723L1695.98 0H0L0 453Z" fill="white"/>
</mask>
<g mask="url(#mask0)">
<rect y="-130" width="1600" height="1005" fill="url(#paint1_linear)"/>
<path fill-rule="evenodd" clip-rule="evenodd" d="M1273 800C1554.11 800 1782 572.113 1782 291C1782 9.88705 1554.11 -218 1273 -218C991.887 -218 764 9.88705 764 291C764 572.113 991.887 800 1273 800Z" fill="url(#paint2_linear)"/>
<path fill-rule="evenodd" clip-rule="evenodd" d="M234 460C438.345 460 604 294.345 604 90C604 -114.345 438.345 -280 234 -280C29.6546 -280 -136 -114.345 -136 90C-136 294.345 29.6546 460 234 460Z" fill="url(#paint3_linear)"/>
<path fill-rule="evenodd" clip-rule="evenodd" d="M1600.5 650C1705.16 650 1790 565.158 1790 460.5C1790 355.842 1705.16 271 1600.5 271C1495.84 271 1411 355.842 1411 460.5C1411 565.158 1495.84 650 1600.5 650Z" fill="url(#paint4_linear)"/>
<path opacity="0.683663" fill-rule="evenodd" clip-rule="evenodd" d="M53.5 120C158.158 120 243 35.158 243 -69.5C243 -174.158 158.158 -259 53.5 -259C-51.158 -259 -136 -174.158 -136 -69.5C-136 35.158 -51.158 120 53.5 120Z" fill="url(#paint5_linear)"/>
</g>
<defs>
<linearGradient id="paint0_linear" x1="-198.531" y1="193.048" x2="-172.441" y2="524.213" gradientUnits="userSpaceOnUse">
<stop stop-color="white"/>
<stop offset="1" stop-color="#FAF8F5"/>
</linearGradient>
<linearGradient id="paint1_linear" x1="-634.786" y1="338.352" x2="106.164" y2="1591.22" gradientUnits="userSpaceOnUse">
<stop stop-color="#FFC85D"/>
<stop offset="1" stop-color="#FF9E64"/>
</linearGradient>
<linearGradient id="paint2_linear" x1="764" y1="-218" x2="764" y2="800" gradientUnits="userSpaceOnUse">
<stop stop-color="#FFA561"/>
<stop offset="1" stop-color="#FFC75D" stop-opacity="0.01"/>
</linearGradient>
<linearGradient id="paint3_linear" x1="604" y1="460" x2="604" y2="-280" gradientUnits="userSpaceOnUse">
<stop stop-color="#FFCC6E" stop-opacity="0.39546"/>
<stop offset="1" stop-color="#FFAE61" stop-opacity="0.01"/>
</linearGradient>
<linearGradient id="paint4_linear" x1="1429.33" y1="298.134" x2="1203.9" y2="668.417" gradientUnits="userSpaceOnUse">
<stop stop-color="#FFAE56" stop-opacity="0.39546"/>
<stop offset="1" stop-color="#FF8613" stop-opacity="0.01"/>
</linearGradient>
<linearGradient id="paint5_linear" x1="366.85" y1="-113.795" x2="-0.503304" y2="-470.122" gradientUnits="userSpaceOnUse">
<stop stop-color="#FFC160"/>
<stop offset="1" stop-color="#FF8613" stop-opacity="0.01"/>
</linearGradient>
</defs>
</svg>
