<svg width="88" height="88" fill="none" xmlns="http://www.w3.org/2000/svg"><path d="M43.438 79.874c-.253 0-.484-.042-.716-.148l-3.808-1.767a1.694 1.694 0 01-.82-2.23c.4-.841 1.389-1.199 2.23-.82l3.114 1.451 3.113-1.451a1.67 1.67 0 012.23.82 1.67 1.67 0 01-.82 2.23l-3.808 1.767a1.679 1.679 0 01-.715.148z" fill="url(#paint0_linear)"/><path d="M38.914 77.938c-.842-.4-1.22-1.388-.82-2.23.4-.841 1.388-1.199 2.23-.82.84.4 1.199 1.388.82 2.23-.295.61-.884.968-1.515.968-.252.02-.484-.042-.715-.148z" fill="url(#paint1_linear)"/><path d="M30.605 73.9c-.253 0-.484-.043-.716-.17l-9.025-4.207a1.692 1.692 0 01-.968-1.514c0-.253.043-.484.169-.716a1.7 1.7 0 011.535-.967c.253 0 .484.042.716.168l9.025 4.207c.841.4 1.199 1.389.82 2.23-.315.59-.904.968-1.556.968z" fill="url(#paint2_linear)"/><path d="M12.554 65.505c-.231 0-.484-.042-.715-.168L8.031 63.57a1.677 1.677 0 01-.968-1.536v-4.207c0-.926.758-1.683 1.683-1.683.926 0 1.684.757 1.684 1.683v3.134l2.84 1.325c.841.4 1.199 1.389.82 2.23a1.73 1.73 0 01-1.536.99z" fill="url(#paint3_linear)"/><path d="M7.063 57.827c0-.926.758-1.683 1.683-1.683.926 0 1.684.757 1.684 1.683 0 .925-.758 1.683-1.684 1.683a1.674 1.674 0 01-1.683-1.683z" fill="url(#paint4_linear)"/><path d="M8.746 49.285a1.688 1.688 0 01-1.683-1.683V37.378c0-.926.758-1.683 1.683-1.683.926 0 1.684.757 1.684 1.683v10.224c0 .926-.758 1.683-1.684 1.683z" fill="url(#paint5_linear)"/><path d="M8.746 28.837a1.688 1.688 0 01-1.683-1.683v-4.208c0-.694.421-1.304 1.052-1.556l3.892-1.578a1.665 1.665 0 012.188.925 1.665 1.665 0 01-.925 2.188l-2.84 1.157v3.072c0 .925-.758 1.683-1.684 1.683z" fill="url(#paint6_linear)"/><path d="M11.082 21.979a1.665 1.665 0 01.925-2.188 1.665 1.665 0 012.188.925 1.665 1.665 0 01-.925 2.188 1.69 1.69 0 01-.631.127c-.674 0-1.305-.4-1.557-1.052z" fill="url(#paint7_linear)"/><path fill-rule="evenodd" clip-rule="evenodd" d="M47.203 12.154a1.685 1.685 0 002.188-.905 1.69 1.69 0 00-.925-2.187l-4.397-1.789a1.641 1.641 0 00-1.263 0L38.41 9.062a1.665 1.665 0 00-.926 2.188 1.672 1.672 0 001.557 1.051c.19 0 .358-.042.547-.105.02-.02.02-.02.042-.02.01 0 .016-.006.02-.011.006-.006.011-.01.022-.01l3.766-1.537 3.765 1.536zm18.24 7.28c-.21 0-.442-.043-.631-.127l-8.794-3.597a1.672 1.672 0 01-.926-2.188 1.672 1.672 0 012.188-.926l8.794 3.576A1.672 1.672 0 0167 18.36a1.63 1.63 0 01-1.557 1.073zm-45.567-1.032a1.672 1.672 0 001.556 1.052c.232 0 .442-.042.632-.105l8.793-3.598a1.672 1.672 0 00.926-2.187 1.672 1.672 0 00-2.188-.926l-8.794 3.576a1.665 1.665 0 00-.925 2.188zm53.73 4.502a1.672 1.672 0 002.188-.926 1.69 1.69 0 00-1.558-2.313c-.694 0-1.304.42-1.556 1.051a1.672 1.672 0 00.926 2.188z" fill="url(#paint8_linear)"/><path d="M78.128 28.837a1.688 1.688 0 01-1.683-1.683v-3.072l-2.84-1.157c-.862-.357-1.283-1.325-.926-2.188.358-.862 1.326-1.283 2.188-.925l3.892 1.578a1.693 1.693 0 011.052 1.556v4.208c0 .925-.736 1.683-1.683 1.683z" fill="url(#paint9_linear)"/><path d="M76.445 27.154c0-.926.758-1.683 1.683-1.683.926 0 1.683.757 1.683 1.683s-.757 1.683-1.683 1.683a1.688 1.688 0 01-1.683-1.683z" fill="url(#paint10_linear)"/><path fill-rule="evenodd" clip-rule="evenodd" d="M76.445 47.602c0 .926.758 1.683 1.683 1.683.947 0 1.683-.757 1.683-1.683V37.378c0-.926-.757-1.683-1.683-1.683-.925 0-1.683.757-1.683 1.683v10.224zm0 10.225c0 .925.758 1.683 1.683 1.683.947 0 1.683-.758 1.683-1.683 0-.926-.757-1.683-1.683-1.683-.925 0-1.683.757-1.683 1.683z" fill="url(#paint11_linear)"/><path d="M74.32 65.505a1.71 1.71 0 01-1.535-.968 1.669 1.669 0 01.82-2.23l2.84-1.325v-3.135c0-.925.758-1.682 1.683-1.682.926 0 1.683.757 1.683 1.682v4.208c0 .652-.378 1.241-.968 1.536l-3.807 1.767a2.067 2.067 0 01-.716.147z" fill="url(#paint12_linear)"/><path d="M72.805 64.516a1.669 1.669 0 01.82-2.23 1.669 1.669 0 012.23.82 1.67 1.67 0 01-.82 2.23 1.698 1.698 0 01-.715.17 1.676 1.676 0 01-1.515-.99z" fill="url(#paint13_linear)"/><path d="M56.27 73.9a1.7 1.7 0 01-1.535-.969 1.698 1.698 0 01-.169-.715c0-.652.38-1.241.968-1.514l9.025-4.208c.232-.105.463-.168.716-.168a1.7 1.7 0 011.535.967 1.67 1.67 0 01-.82 2.23l-9.025 4.208c-.21.126-.442.168-.695.168z" fill="url(#paint14_linear)"/><path d="M43 32c-1.1 0-2-.755-2-1.678V12.678c0-.923.9-1.678 2-1.678s2 .755 2 1.678v17.644c0 .923-.9 1.678-2 1.678z" fill="url(#paint15_linear)"/><path d="M43 78c-1.1 0-2-.755-2-1.678V58.678c0-.923.9-1.678 2-1.678s2 .755 2 1.678v17.644c0 .923-.9 1.678-2 1.678z" fill="url(#paint16_linear)"/><path d="M81.293 66a1.66 1.66 0 01-.828-.212L4.858 23.169a1.696 1.696 0 01-.636-2.311c.467-.806 1.506-1.103 2.313-.636L82.14 62.819a1.696 1.696 0 01.637 2.312 1.72 1.72 0 01-1.485.869z" fill="url(#paint17_linear)"/><path d="M6.705 65a1.717 1.717 0 01-1.484-.872c-.466-.829-.17-1.85.657-2.317l75.59-42.59c.827-.467 1.845-.17 2.311.66.466.829.17 1.85-.657 2.317l-75.59 42.59a1.653 1.653 0 01-.827.212z" fill="url(#paint18_linear)"/><path d="M43.5 63C54.27 63 63 54.27 63 43.5S54.27 24 43.5 24 24 32.73 24 43.5 32.73 63 43.5 63z" fill="url(#paint19_linear)"/><path d="M8.5 30a7.5 7.5 0 100-15 7.5 7.5 0 000 15z" fill="url(#paint20_linear)"/><path d="M78.5 30a7.5 7.5 0 100-15 7.5 7.5 0 000 15z" fill="url(#paint21_linear)"/><path d="M43.5 16a7.5 7.5 0 100-15 7.5 7.5 0 000 15z" fill="url(#paint22_linear)"/><path d="M43.5 86a7.5 7.5 0 100-15 7.5 7.5 0 000 15z" fill="url(#paint23_linear)"/><path d="M8.5 70a7.5 7.5 0 100-15 7.5 7.5 0 000 15z" fill="url(#paint24_linear)"/><path d="M78.5 70a7.5 7.5 0 100-15 7.5 7.5 0 000 15z" fill="url(#paint25_linear)"/><defs><linearGradient id="paint13_linear" x1="56.973" y1="73.882" x2="77.061" y2="73.882" gradientUnits="userSpaceOnUse"><stop stop-color="#5C8BFC"/><stop offset="1" stop-color="#84B0FF"/></linearGradient><linearGradient id="paint0_linear" x1="7.054" y1="94.26" x2="79.824" y2="94.26" gradientUnits="userSpaceOnUse"><stop stop-color="#5C8BFC"/><stop offset="1" stop-color="#84B0FF"/></linearGradient><linearGradient id="paint2_linear" x1="17.686" y1="82.956" x2="59.79" y2="82.956" gradientUnits="userSpaceOnUse"><stop stop-color="#5C8BFC"/><stop offset="1" stop-color="#84B0FF"/></linearGradient><linearGradient id="paint3_linear" x1="7.057" y1="108.28" x2="79.825" y2="108.28" gradientUnits="userSpaceOnUse"><stop stop-color="#5C8BFC"/><stop offset="1" stop-color="#84B0FF"/></linearGradient><linearGradient id="paint4_linear" x1="7.056" y1="94.211" x2="79.821" y2="94.211" gradientUnits="userSpaceOnUse"><stop stop-color="#5C8BFC"/><stop offset="1" stop-color="#84B0FF"/></linearGradient><linearGradient id="paint5_linear" x1="7.056" y1="189.379" x2="79.821" y2="189.379" gradientUnits="userSpaceOnUse"><stop stop-color="#5C8BFC"/><stop offset="1" stop-color="#84B0FF"/></linearGradient><linearGradient id="paint6_linear" x1="7.057" y1="70.12" x2="79.826" y2="70.12" gradientUnits="userSpaceOnUse"><stop stop-color="#5C8BFC"/><stop offset="1" stop-color="#84B0FF"/></linearGradient><linearGradient id="paint7_linear" x1="9.857" y1="31.576" x2="30.321" y2="31.576" gradientUnits="userSpaceOnUse"><stop stop-color="#5C8BFC"/><stop offset="1" stop-color="#84B0FF"/></linearGradient><linearGradient id="paint8_linear" x1="7.057" y1="25.36" x2="79.821" y2="25.36" gradientUnits="userSpaceOnUse"><stop stop-color="#5C8BFC"/><stop offset="1" stop-color="#84B0FF"/></linearGradient><linearGradient id="paint9_linear" x1="7.054" y1="70.119" x2="79.821" y2="70.119" gradientUnits="userSpaceOnUse"><stop stop-color="#5C8BFC"/><stop offset="1" stop-color="#84B0FF"/></linearGradient><linearGradient id="paint10_linear" x1="7.056" y1="63.526" x2="79.821" y2="63.526" gradientUnits="userSpaceOnUse"><stop stop-color="#5C8BFC"/><stop offset="1" stop-color="#84B0FF"/></linearGradient><linearGradient id="paint11_linear" x1="7.056" y1="305.005" x2="79.821" y2="305.005" gradientUnits="userSpaceOnUse"><stop stop-color="#5C8BFC"/><stop offset="1" stop-color="#84B0FF"/></linearGradient><linearGradient id="paint12_linear" x1="7.054" y1="108.113" x2="79.822" y2="108.113" gradientUnits="userSpaceOnUse"><stop stop-color="#5C8BFC"/><stop offset="1" stop-color="#84B0FF"/></linearGradient><linearGradient id="paint1_linear" x1="31.855" y1="86.433" x2="51.937" y2="86.433" gradientUnits="userSpaceOnUse"><stop stop-color="#5C8BFC"/><stop offset="1" stop-color="#84B0FF"/></linearGradient><linearGradient id="paint14_linear" x1="32.308" y1="82.969" x2="74.412" y2="82.969" gradientUnits="userSpaceOnUse"><stop stop-color="#5C8BFC"/><stop offset="1" stop-color="#84B0FF"/></linearGradient><linearGradient id="paint15_linear" x1="41.002" y1="32.003" x2="45.002" y2="32.003" gradientUnits="userSpaceOnUse"><stop stop-color="#5C8BFC"/><stop offset="1" stop-color="#84B0FF"/></linearGradient><linearGradient id="paint16_linear" x1="41.002" y1="78" x2="45.002" y2="78" gradientUnits="userSpaceOnUse"><stop stop-color="#5C8BFC"/><stop offset="1" stop-color="#84B0FF"/></linearGradient><linearGradient id="paint17_linear" x1="45.259" y1="44.968" x2="45.863" y2="41.81" gradientUnits="userSpaceOnUse"><stop stop-color="#5C8BFC"/><stop offset="1" stop-color="#84B0FF"/></linearGradient><linearGradient id="paint18_linear" x1="41.142" y1="41.031" x2="41.744" y2="44.199" gradientUnits="userSpaceOnUse"><stop stop-color="#5C8BFC"/><stop offset="1" stop-color="#84B0FF"/></linearGradient><linearGradient id="paint19_linear" x1="24.012" y1="62.984" x2="62.992" y2="62.984" gradientUnits="userSpaceOnUse"><stop stop-color="#FFB300"/><stop offset="1" stop-color="#FF8E37"/></linearGradient><linearGradient id="paint20_linear" x1="15.984" y1="29.98" x2="15.984" y2="14.999" gradientUnits="userSpaceOnUse"><stop stop-color="#FFB300"/><stop offset="1" stop-color="#FF8E37"/></linearGradient><linearGradient id="paint21_linear" x1="86.001" y1="29.98" x2="86.001" y2="14.999" gradientUnits="userSpaceOnUse"><stop stop-color="#FFB300"/><stop offset="1" stop-color="#FF8E37"/></linearGradient><linearGradient id="paint22_linear" x1="36.011" y1="15.998" x2="50.993" y2="15.998" gradientUnits="userSpaceOnUse"><stop stop-color="#FFB300"/><stop offset="1" stop-color="#FF8E37"/></linearGradient><linearGradient id="paint23_linear" x1="36.011" y1="85.993" x2="50.993" y2="85.993" gradientUnits="userSpaceOnUse"><stop stop-color="#FFB300"/><stop offset="1" stop-color="#FF8E37"/></linearGradient><linearGradient id="paint24_linear" x1="15.984" y1="69.993" x2="15.984" y2="55.012" gradientUnits="userSpaceOnUse"><stop stop-color="#FFB300"/><stop offset="1" stop-color="#FF8E37"/></linearGradient><linearGradient id="paint25_linear" x1="86.001" y1="69.993" x2="86.001" y2="55.012" gradientUnits="userSpaceOnUse"><stop stop-color="#FFB300"/><stop offset="1" stop-color="#FF8E37"/></linearGradient></defs></svg>