<svg width="88" height="88" fill="none" xmlns="http://www.w3.org/2000/svg"><path d="M16 22l48.962-11.885C68.06 9.452 71 11.747 71 14.833V22" fill="url(#paint0_linear)"/><path d="M49.807 54.187v-9.4c0-1.709 1.416-3.107 3.146-3.107h24.02V27.956c0-3.289-2.7-5.956-6.03-5.956H16.03C12.701 22 10 24.667 10 27.956v43.088C10 74.333 12.701 77 16.031 77H70.97C74.299 77 77 74.333 77 71.044v-13.75H52.98c-1.757 0-3.173-1.398-3.173-3.107z" fill="url(#paint1_linear)"/><path d="M57 53a3 3 0 100-6 3 3 0 000 6z" fill="url(#paint2_linear)"/><defs><linearGradient id="paint0_linear" x1="19.081" y1="23.364" x2="62.599" y2=".138" gradientUnits="userSpaceOnUse"><stop stop-color="#5C8BFC"/><stop offset="1" stop-color="#84B0FF"/></linearGradient><linearGradient id="paint1_linear" x1="10.001" y1="76.998" x2="76.991" y2="76.998" gradientUnits="userSpaceOnUse"><stop stop-color="#FFB300"/><stop offset="1" stop-color="#FF8E37"/></linearGradient><linearGradient id="paint2_linear" x1="54.014" y1="52.991" x2="59.991" y2="52.991" gradientUnits="userSpaceOnUse"><stop stop-color="#FFB300"/><stop offset="1" stop-color="#FF8E37"/></linearGradient></defs></svg>