<svg width="88" height="88" fill="none" xmlns="http://www.w3.org/2000/svg"><path fill-rule="evenodd" clip-rule="evenodd" d="M10.94 79h65.12c1.067 0 1.94-.885 1.94-1.968V10.968C78 9.885 77.127 9 76.06 9H10.94C9.873 9 9 9.885 9 10.968v66.064C9 78.115 9.873 79 10.94 79zm63.18-3.935H12.88v-62.13h61.24v62.13z" fill="url(#paint0_linear)"/><path d="M84.365 68H3.635C1.634 68 0 66.24 0 64.09V23.91C0 21.76 1.636 20 3.634 20h80.731c2 0 3.635 1.76 3.635 3.91v40.204C88 66.264 86.365 68 84.365 68z" fill="url(#paint1_linear)"/><path d="M10.867 54C9.84 54 9 53.119 9 52.042V34.958C9 33.881 9.84 33 10.867 33h9.266C21.16 33 22 33.881 22 34.958s-.84 1.958-1.867 1.958h-7.399v15.126c0 1.077-.84 1.958-1.867 1.958z" fill="#fff"/><path fill-rule="evenodd" clip-rule="evenodd" d="M26 52.042c0 1.077.897 1.958 1.993 1.958 1.097 0 1.994-.881 1.994-1.958v-6.119h4.435c3.613 0 6.578-2.888 6.578-6.462C41 35.913 38.06 33 34.422 33h-6.429C26.897 33 26 33.881 26 34.958v17.084zm8.422-10.035h-4.435v-5.09h4.435c1.42 0 2.591 1.125 2.591 2.544 0 1.396-1.146 2.546-2.591 2.546z" fill="#fff"/><path d="M17.182 45h-6.364C9.818 45 9 44.1 9 43s.818-2 1.818-2h6.364c1 0 1.818.9 1.818 2 0 1.125-.818 2-1.818 2zM57.133 54h-9.266C46.84 54 46 53.119 46 52.042V34.958c0-1.077.84-1.958 1.867-1.958h9.266C58.16 33 59 33.881 59 34.958s-.84 1.958-1.867 1.958h-7.399v13.168h7.399c1.027 0 1.867.881 1.867 1.958S58.16 54 57.133 54z" fill="#fff"/><path d="M56.182 45h-6.364c-1 0-1.818-.9-1.818-2s.818-2 1.818-2h6.364c1 0 1.818.9 1.818 2 0 1.125-.818 2-1.818 2zM76.133 54h-9.266C65.84 54 65 53.119 65 52.042V34.958c0-1.077.84-1.958 1.867-1.958h9.266C77.16 33 78 33.881 78 34.958s-.84 1.958-1.867 1.958h-7.399v13.168h7.399c1.027 0 1.867.881 1.867 1.958S77.16 54 76.133 54z" fill="#fff"/><path d="M74.182 45h-6.364c-1 0-1.818-.9-1.818-2s.818-2 1.818-2h6.364c1 0 1.818.9 1.818 2 0 1.125-.818 2-1.818 2zM39.185 54a1.823 1.823 0 01-1.548-.884l-4.37-7.284c-.524-.884-.25-2.024.592-2.56a1.808 1.808 0 012.504.606l4.37 7.283c.524.884.25 2.025-.592 2.56-.295.186-.637.279-.956.279z" fill="#fff"/><defs><linearGradient id="paint0_linear" x1="9.002" y1="78.998" x2="77.998" y2="78.998" gradientUnits="userSpaceOnUse"><stop stop-color="#5C8BFC"/><stop offset="1" stop-color="#84B0FF"/></linearGradient><linearGradient id="paint1_linear" x1=".001" y1="67.998" x2="87.999" y2="67.998" gradientUnits="userSpaceOnUse"><stop stop-color="#FFB300"/><stop offset="1" stop-color="#FF8E37"/></linearGradient></defs></svg>