<svg width="14" height="14" viewBox="0 0 14 14" fill="none" xmlns="http://www.w3.org/2000/svg">
<path d="M5.88012 0.839844C3.24855 0.839844 1.12012 2.96828 1.12012 5.59984C1.12012 8.23141 3.24855 10.3598 5.88012 10.3598C6.81965 10.3598 7.68918 10.0842 8.42637 9.61609L11.8651 13.0548L13.0551 11.8648L9.66012 8.47859C10.2704 7.67797 10.6401 6.68594 10.6401 5.59984C10.6401 2.96828 8.51168 0.839844 5.88012 0.839844ZM5.88012 1.95984C7.8959 1.95984 9.52012 3.58406 9.52012 5.59984C9.52012 7.61562 7.8959 9.23984 5.88012 9.23984C3.86434 9.23984 2.24012 7.61562 2.24012 5.59984C2.24012 3.58406 3.86434 1.95984 5.88012 1.95984Z" fill="#BDBDBD"/>
</svg>
