<svg width="166" height="265" fill="none" xmlns="http://www.w3.org/2000/svg"><path fill-rule="evenodd" clip-rule="evenodd" d="M97.516 117.892l-1.128 5.51c-.806 3.754-4.11 6.469-7.897 6.469h-9.427c-3.868 0-7.252-2.715-7.977-6.469l-1.128-5.51a1.07 1.07 0 00-.564-.639h-.08c-.242-.08-.564-.08-.806.08l-4.754 3.115c-3.223 2.156-7.494 1.757-10.233-.959l-6.688-6.628c-2.659-2.716-3.142-6.948-.967-10.143l3.143-4.712c.16-.24.241-.558.08-.878-.161-.4-.322-.559-.644-.639l-5.56-1.118c-3.787-.798-6.527-4.073-6.527-7.906V78.12c0-3.833 2.74-7.188 6.527-7.906l5.56-1.118c.241-.08.483-.24.644-.56.161-.319.161-.638 0-.878l-3.142-4.712a7.932 7.932 0 01.967-10.142l6.687-6.629c2.74-2.635 7.01-3.114 10.233-.958l4.754 3.115c.242.16.564.24.887.08 0-.08.08-.08.08-.08.242-.08.403-.32.484-.64l1.128-5.51c.805-3.753 4.109-6.468 7.977-6.468h9.427c3.867 0 7.252 2.715 7.977 6.468l1.128 5.51c.08.24.241.48.564.64.322.16.644.16.886 0l4.754-3.115c3.223-2.156 7.494-1.757 10.233.958l6.688 6.629c2.659 2.715 3.142 6.948.967 10.142l-3.143 4.712c-.161.24-.241.56-.08.879.08.399.322.559.644.639l5.56 1.118c3.787.798 6.527 4.073 6.527 7.906v9.344c0 3.833-2.74 7.187-6.527 7.906l-5.56 1.118c-.241.08-.483.24-.644.559-.161.32-.161.639 0 .879l3.142 4.711a7.932 7.932 0 01-.967 10.143l-6.687 6.628c-2.74 2.636-7.011 3.115-10.233.959l-4.754-3.115c-.242-.16-.564-.24-.887-.08h-.08a1.07 1.07 0 00-.564.639zm-20.546-1.358l1.128 5.511c.08.399.403.639.725.718h9.427c.403 0 .725-.319.806-.718l1.128-5.511c.564-2.635 2.337-4.871 4.915-5.909h.08c2.579-1.039 5.399-.799 7.655.718l4.754 3.115c.322.239.725.239 1.048-.08l6.687-6.628c.242-.24.323-.719.081-1.039l-3.143-4.712c-1.531-2.236-1.772-5.03-.725-7.586 1.048-2.556 3.304-4.313 5.963-4.872l5.559-1.118c.403-.08.726-.4.726-.799v-9.343c0-.4-.323-.72-.726-.799l-5.559-1.118c-2.659-.559-4.915-2.316-5.963-4.872-1.047-2.555-.806-5.43.725-7.666l3.143-4.712c.242-.32.242-.719-.081-1.038l-6.687-6.629c-.242-.24-.726-.32-1.048-.08l-4.754 3.115c-2.256 1.517-5.076 1.757-7.654.719-2.579-1.038-4.352-3.275-4.916-5.91l-1.128-5.51c-.08-.4-.402-.72-.805-.72h-9.428c-.402 0-.725.32-.805.72l-1.128 5.51c-.564 2.635-2.337 4.872-4.915 5.91-2.579 1.038-5.48.798-7.736-.719l-4.754-3.115c-.322-.24-.725-.24-1.047.08l-6.688 6.629c-.241.24-.322.718-.08 1.038l3.142 4.712c1.531 2.236 1.773 5.031.725 7.587-1.047 2.555-3.303 4.312-5.962 4.871l-5.56 1.118c-.403.08-.725.4-.725.799v9.344c0 .399.322.718.725.798l5.56 1.118c2.659.56 4.915 2.316 5.962 4.872 1.048 2.555.806 5.43-.725 7.666l-3.142 4.712c-.242.32-.242.719.08 1.039l6.688 6.628c.242.24.725.319 1.047.08l4.754-3.115c2.257-1.517 5.077-1.757 7.655-.718h.08c2.579 1.038 4.352 3.274 4.916 5.909z" fill="#FAF7F5"/><path fill-rule="evenodd" clip-rule="evenodd" d="M83.818 58.442c13.067 0 23.729 10.759 23.729 23.945s-10.662 23.864-23.729 23.945c-13.067 0-23.73-10.76-23.73-23.945 0-13.186 10.663-23.945 23.73-23.945zM67.304 82.306c0 9.222 7.455 16.664 16.514 16.664s16.514-7.442 16.514-16.664c0-9.222-7.455-16.664-16.514-16.664-9.139 0-16.514 7.442-16.514 16.664z" fill="#FAF7F5"/><path d="M60.498 219.157c-2.045 0-3.682 1.584-3.682 3.564v38.328c0 1.98 1.637 3.563 3.682 3.563 2.046 0 3.683-1.583 3.683-3.563v-38.328c0-1.98-1.637-3.564-3.682-3.564zM104.684 219.157c-2.046 0-3.682 1.584-3.682 3.564v38.328c0 1.98 1.636 3.563 3.682 3.563 2.046 0 3.682-1.583 3.682-3.563v-38.328c0-1.98-1.636-3.564-3.682-3.564zM83.409 219.157c-2.046 0-3.682 1.571-3.682 3.535v9.976c0 1.964 1.636 3.535 3.682 3.535 2.045 0 3.682-1.571 3.682-3.535v-9.976c0-1.964-1.637-3.535-3.682-3.535zM83.409 245.943c-2.046 0-3.682 1.577-3.682 3.549v6.702c0 1.971 1.636 3.548 3.682 3.548 2.045 0 3.682-1.577 3.682-3.548v-6.702c0-1.972-1.637-3.549-3.682-3.549z" fill="#FAF7F5"/><path fill-rule="evenodd" clip-rule="evenodd" d="M165.643 81.855c0 31.213-17.766 58.445-43.814 72.22l24.922 37.106c.724 1.114.804 2.468.161 3.662a3.6 3.6 0 01-3.216 1.911h-23.153v6.291c0 5.733-4.743 10.431-10.531 10.431H55.425c-5.788 0-10.531-4.698-10.531-10.431v-6.291H21.74a3.601 3.601 0 01-3.216-1.911c-.643-1.114-.563-2.548.16-3.662l24.923-37.424C17.882 139.902.356 112.909.356 81.855.356 36.707 37.417 0 83 0c45.582 0 82.643 36.707 82.643 81.855zm-52.496 91.489v-9.475l-61.098 5.176v9.475l61.098-5.176zm-61.018 12.342l61.099-5.175v9.475l-61.099 5.176v-9.476zM83.08 7.166c-41.563 0-75.408 33.522-75.408 74.689 0 41.166 33.765 74.688 75.408 74.688 41.563 0 75.408-33.522 75.408-74.688 0-41.167-33.845-74.689-75.408-74.689zM61.937 161.003l-9.888.875v-4.06c3.215 1.194 6.511 2.309 9.888 3.185zm-33.443 28.665h16.4v-24.605l-16.4 24.605zm81.437 16.721H55.345c-1.769 0-3.296-1.433-3.296-3.265v-.796l61.098-5.176v5.972c0 1.752-1.447 3.265-3.216 3.265zm10.451-41.326v24.605h16.4l-16.4-24.605z" fill="#FAF7F5"/></svg>