<svg width="39" height="39" viewBox="0 0 39 39" fill="none" xmlns="http://www.w3.org/2000/svg">
<path d="M30.875 24.375C27.2838 24.375 24.375 27.2838 24.375 30.875C24.375 32.0938 24.7162 33.2475 25.3175 34.2225C26.4387 36.1075 28.5025 37.375 30.875 37.375C33.2475 37.375 35.3112 36.1075 36.4325 34.2225C37.0337 33.2475 37.375 32.0938 37.375 30.875C37.375 27.2838 34.4662 24.375 30.875 24.375ZM34.2387 30.1762L30.7775 33.3775C30.55 33.5888 30.2413 33.7025 29.9488 33.7025C29.64 33.7025 29.3312 33.5888 29.0875 33.345L27.4787 31.7363C27.0075 31.265 27.0075 30.485 27.4787 30.0137C27.95 29.5425 28.73 29.5425 29.2012 30.0137L29.9813 30.7938L32.5812 28.3887C33.0687 27.9337 33.8488 27.9663 34.3038 28.4538C34.7588 28.9413 34.7262 29.705 34.2387 30.1762Z" fill="url(#paint0_linear_0_95)"/>
<path d="M35.75 12.2687V12.9999C35.75 13.8937 35.0187 14.6249 34.125 14.6249H4.875C3.98125 14.6249 3.25 13.8937 3.25 12.9999V12.2524C3.25 8.53115 6.25625 5.5249 9.9775 5.5249H29.0063C32.7275 5.5249 35.75 8.5474 35.75 12.2687Z" fill="#292D32"/>
<path d="M35.75 12.2687V12.9999C35.75 13.8937 35.0187 14.6249 34.125 14.6249H4.875C3.98125 14.6249 3.25 13.8937 3.25 12.9999V12.2524C3.25 8.53115 6.25625 5.5249 9.9775 5.5249H29.0063C32.7275 5.5249 35.75 8.5474 35.75 12.2687Z" fill="url(#paint1_linear_0_95)"/>
<path d="M3.25 18.6874V26.7474C3.25 30.4686 6.25625 33.4749 9.9775 33.4749H20.15C21.0925 33.4749 21.905 32.6786 21.8237 31.7361C21.5963 29.2499 22.3925 26.5524 24.6025 24.4074C25.5125 23.5136 26.6337 22.8311 27.8525 22.4411C29.8837 21.7911 31.85 21.8724 33.5888 22.4574C34.645 22.8149 35.75 22.0511 35.75 20.9299V18.6711C35.75 17.7774 35.0187 17.0461 34.125 17.0461H4.875C3.98125 17.0624 3.25 17.7936 3.25 18.6874ZM13 28.0311H9.75C9.08375 28.0311 8.53125 27.4786 8.53125 26.8124C8.53125 26.1461 9.08375 25.5936 9.75 25.5936H13C13.6663 25.5936 14.2188 26.1461 14.2188 26.8124C14.2188 27.4786 13.6663 28.0311 13 28.0311Z" fill="#292D32"/>
<path d="M3.25 18.6874V26.7474C3.25 30.4686 6.25625 33.4749 9.9775 33.4749H20.15C21.0925 33.4749 21.905 32.6786 21.8237 31.7361C21.5963 29.2499 22.3925 26.5524 24.6025 24.4074C25.5125 23.5136 26.6337 22.8311 27.8525 22.4411C29.8837 21.7911 31.85 21.8724 33.5888 22.4574C34.645 22.8149 35.75 22.0511 35.75 20.9299V18.6711C35.75 17.7774 35.0187 17.0461 34.125 17.0461H4.875C3.98125 17.0624 3.25 17.7936 3.25 18.6874ZM13 28.0311H9.75C9.08375 28.0311 8.53125 27.4786 8.53125 26.8124C8.53125 26.1461 9.08375 25.5936 9.75 25.5936H13C13.6663 25.5936 14.2188 26.1461 14.2188 26.8124C14.2188 27.4786 13.6663 28.0311 13 28.0311Z" fill="url(#paint2_linear_0_95)"/>
<defs>
<linearGradient id="paint0_linear_0_95" x1="30.875" y1="24.375" x2="30.875" y2="37.375" gradientUnits="userSpaceOnUse">
<stop stop-color="#FA9751"/>
<stop offset="1" stop-color="#FABE4C"/>
</linearGradient>
<linearGradient id="paint1_linear_0_95" x1="3.25" y1="5.5249" x2="7.97552" y2="22.4018" gradientUnits="userSpaceOnUse">
<stop stop-color="#78A0FF"/>
<stop offset="1" stop-color="#5078E6"/>
</linearGradient>
<linearGradient id="paint2_linear_0_95" x1="3.25" y1="17.0461" x2="16.479" y2="43.2164" gradientUnits="userSpaceOnUse">
<stop stop-color="#78A0FF"/>
<stop offset="1" stop-color="#5078E6"/>
</linearGradient>
</defs>
</svg>
