<svg width="38" height="38" viewBox="0 0 38 38" fill="none" xmlns="http://www.w3.org/2000/svg">
<path d="M8.31258 13.4584C11.1545 13.4584 13.4584 11.1545 13.4584 8.31258C13.4584 5.47062 11.1545 3.16675 8.31258 3.16675C5.47062 3.16675 3.16675 5.47062 3.16675 8.31258C3.16675 11.1545 5.47062 13.4584 8.31258 13.4584Z" fill="#292D32"/>
<path d="M8.31258 13.4584C11.1545 13.4584 13.4584 11.1545 13.4584 8.31258C13.4584 5.47062 11.1545 3.16675 8.31258 3.16675C5.47062 3.16675 3.16675 5.47062 3.16675 8.31258C3.16675 11.1545 5.47062 13.4584 8.31258 13.4584Z" fill="url(#paint0_linear_0_101)"/>
<path fill-rule="evenodd" clip-rule="evenodd" d="M19.9973 17.9391C24.6682 17.9391 28.8165 20.8999 30.3523 25.3016C30.357 25.3149 30.3614 25.3282 30.3656 25.3415C32.8575 25.4876 34.8333 27.5547 34.8333 30.0833C34.8333 32.7066 32.7066 34.8333 30.0833 34.8333C27.4599 34.8333 25.3333 32.7066 25.3333 30.0833C25.3333 28.2225 26.4032 26.6116 27.9615 25.8323C26.703 22.5417 23.5306 20.3616 19.9973 20.3616H19.9657L14.3765 20.3774H14.3448C12.3657 20.3774 10.5448 19.6174 9.1515 18.3824V25.4954C11.1761 26.039 12.6665 27.8871 12.6665 30.0833C12.6665 32.7066 10.5399 34.8333 7.9165 34.8333C5.29315 34.8333 3.1665 32.7066 3.1665 30.0833C3.1665 27.8699 4.6803 26.0102 6.729 25.4829V11.0991C6.729 10.4341 7.2515 9.89575 7.93234 9.89575C8.61317 9.89575 9.1515 10.4341 9.1515 11.0991V14.0124C9.80067 16.3558 11.954 17.9866 14.3607 17.9549L19.9498 17.9391H19.9973Z" fill="#292D32"/>
<path fill-rule="evenodd" clip-rule="evenodd" d="M19.9973 17.9391C24.6682 17.9391 28.8165 20.8999 30.3523 25.3016C30.357 25.3149 30.3614 25.3282 30.3656 25.3415C32.8575 25.4876 34.8333 27.5547 34.8333 30.0833C34.8333 32.7066 32.7066 34.8333 30.0833 34.8333C27.4599 34.8333 25.3333 32.7066 25.3333 30.0833C25.3333 28.2225 26.4032 26.6116 27.9615 25.8323C26.703 22.5417 23.5306 20.3616 19.9973 20.3616H19.9657L14.3765 20.3774H14.3448C12.3657 20.3774 10.5448 19.6174 9.1515 18.3824V25.4954C11.1761 26.039 12.6665 27.8871 12.6665 30.0833C12.6665 32.7066 10.5399 34.8333 7.9165 34.8333C5.29315 34.8333 3.1665 32.7066 3.1665 30.0833C3.1665 27.8699 4.6803 26.0102 6.729 25.4829V11.0991C6.729 10.4341 7.2515 9.89575 7.93234 9.89575C8.61317 9.89575 9.1515 10.4341 9.1515 11.0991V14.0124C9.80067 16.3558 11.954 17.9866 14.3607 17.9549L19.9498 17.9391H19.9973Z" fill="url(#paint1_linear_0_101)"/>
<defs>
<linearGradient id="paint0_linear_0_101" x1="8.31258" y1="3.16675" x2="8.31258" y2="13.4584" gradientUnits="userSpaceOnUse">
<stop stop-color="#FA9751"/>
<stop offset="1" stop-color="#FABE4C"/>
</linearGradient>
<linearGradient id="paint1_linear_0_101" x1="6.729" y1="9.89575" x2="26.6425" y2="33.2845" gradientUnits="userSpaceOnUse">
<stop stop-color="#78A0FF"/>
<stop offset="1" stop-color="#5078E6"/>
</linearGradient>
</defs>
</svg>
