<svg width="46" height="46" viewBox="0 0 46 46" fill="none" xmlns="http://www.w3.org/2000/svg">
<path d="M33.4459 33.1583C30.2259 33.1583 27.255 31.6442 25.3192 28.98C24.8592 28.3475 24.9934 27.4467 25.6259 26.9675C26.2584 26.4883 27.1592 26.6417 27.6384 27.2742C29.0375 29.1717 31.1459 30.2642 33.4459 30.2642C37.4517 30.2642 40.7292 27.0058 40.7292 22.9808C40.7292 18.9558 37.4709 15.6975 33.4459 15.6975C30.7242 15.6975 28.1559 17.1542 26.7567 19.4733L21.6775 27.9258C19.7609 31.1267 16.2534 33.1008 12.535 33.1008C6.93838 33.1008 2.37671 28.5392 2.37671 22.9425C2.37671 17.3458 6.93838 12.7842 12.535 12.7842C15.755 12.7842 18.7259 14.2983 20.6617 16.9625C21.1217 17.595 20.9875 18.4958 20.355 18.975C19.7034 19.4542 18.8217 19.3008 18.3425 18.6683C16.9625 16.8092 14.8542 15.7167 12.5542 15.7167C8.54838 15.7167 5.27088 18.975 5.27088 23C5.27088 27.025 8.52921 30.2833 12.5542 30.2833C15.2759 30.2833 17.8442 28.8267 19.2434 26.5075L24.3225 18.055C26.2392 14.8542 29.7467 12.88 33.465 12.88C39.0617 12.88 43.6234 17.4417 43.6234 23.0383C43.6234 28.635 39.0425 33.1583 33.4459 33.1583Z" fill="url(#paint0_linear_0_107)"/>
<path d="M12.4583 26.8334C14.5754 26.8334 16.2917 25.1172 16.2917 23.0001C16.2917 20.883 14.5754 19.1667 12.4583 19.1667C10.3412 19.1667 8.625 20.883 8.625 23.0001C8.625 25.1172 10.3412 26.8334 12.4583 26.8334Z" fill="#292D32"/>
<path d="M12.4583 26.8334C14.5754 26.8334 16.2917 25.1172 16.2917 23.0001C16.2917 20.883 14.5754 19.1667 12.4583 19.1667C10.3412 19.1667 8.625 20.883 8.625 23.0001C8.625 25.1172 10.3412 26.8334 12.4583 26.8334Z" fill="url(#paint1_linear_0_107)"/>
<path d="M33.5416 26.8334C35.6587 26.8334 37.3749 25.1172 37.3749 23.0001C37.3749 20.883 35.6587 19.1667 33.5416 19.1667C31.4245 19.1667 29.7083 20.883 29.7083 23.0001C29.7083 25.1172 31.4245 26.8334 33.5416 26.8334Z" fill="#292D32"/>
<path d="M33.5416 26.8334C35.6587 26.8334 37.3749 25.1172 37.3749 23.0001C37.3749 20.883 35.6587 19.1667 33.5416 19.1667C31.4245 19.1667 29.7083 20.883 29.7083 23.0001C29.7083 25.1172 31.4245 26.8334 33.5416 26.8334Z" fill="url(#paint2_linear_0_107)"/>
<defs>
<linearGradient id="paint0_linear_0_107" x1="7.01695" y1="12.7842" x2="20.7133" y2="38.4305" gradientUnits="userSpaceOnUse">
<stop stop-color="#78A0FF"/>
<stop offset="1" stop-color="#5078E6"/>
</linearGradient>
<linearGradient id="paint1_linear_0_107" x1="12.4583" y1="19.1667" x2="12.4583" y2="26.8334" gradientUnits="userSpaceOnUse">
<stop stop-color="#FA9751"/>
<stop offset="1" stop-color="#FABE4C"/>
</linearGradient>
<linearGradient id="paint2_linear_0_107" x1="33.5416" y1="19.1667" x2="33.5416" y2="26.8334" gradientUnits="userSpaceOnUse">
<stop stop-color="#FA9751"/>
<stop offset="1" stop-color="#FABE4C"/>
</linearGradient>
</defs>
</svg>
