<svg width="120" height="120" fill="none" xmlns="http://www.w3.org/2000/svg"><g opacity=".5"><path d="M88.998 48.796C88.75 34.146 76.764 22.2 62.064 22.003c-15.268-.221-27.723 12.07-27.723 27.236 0 2.704.394 5.334 1.134 7.792l-5.08 8.26c-1.086 1.77.197 4.08 2.293 4.08h1.702a1.87 1.87 0 011.874 1.868v10.078c0 2.36 1.924 4.277 4.292 4.277h8.238c3.355 0 6.092 2.729 6.092 6.072V97H81.5V74.041c0-3.441 1.011-6.809 2.935-9.685l.025-.049c2.762-4.547 4.612-9.783 4.538-15.51z" fill="url(#paint0_linear)"/><path d="M82 51.265v-4.53a2.15 2.15 0 00-1.739-2.106l-2.67-.54a2.165 2.165 0 01-1.566-1.297v-.025c-.27-.66-.22-1.445.195-2.032l1.519-2.278a2.152 2.152 0 00-.27-2.718l-3.208-3.208a2.152 2.152 0 00-2.718-.27l-2.278 1.519a2.151 2.151 0 01-2.032.195h-.025c-.661-.269-1.175-.857-1.298-1.567l-.539-2.67A2.15 2.15 0 0063.265 28h-4.53a2.15 2.15 0 00-2.106 1.739l-.54 2.67a2.165 2.165 0 01-1.297 1.566h-.025c-.66.27-1.445.22-2.032-.195l-2.278-1.519a2.152 2.152 0 00-2.718.27l-3.208 3.208a2.152 2.152 0 00-.27 2.718l1.519 2.278c.416.612.465 1.371.195 2.032v.025c-.269.661-.857 1.175-1.567 1.298l-2.67.539A2.15 2.15 0 0040 46.735v4.53a2.15 2.15 0 001.739 2.106l2.67.54c.71.146 1.297.636 1.566 1.297v.025c.27.66.22 1.445-.195 2.032l-1.519 2.278a2.152 2.152 0 00.27 2.718l3.208 3.208a2.152 2.152 0 002.718.27l2.278-1.519a2.151 2.151 0 012.032-.195h.025c.661.269 1.175.857 1.298 1.567l.539 2.67A2.15 2.15 0 0058.735 70h4.53a2.15 2.15 0 002.106-1.739l.54-2.67a2.165 2.165 0 011.297-1.566h.025c.66-.27 1.445-.22 2.032.195l2.278 1.519a2.152 2.152 0 002.718-.27l3.208-3.208a2.152 2.152 0 00.27-2.718l-1.519-2.278a2.151 2.151 0 01-.195-2.032v-.025c.269-.661.857-1.175 1.567-1.298l2.67-.539A2.15 2.15 0 0082 51.265z" fill="#fff"/><path d="M63.289 58c-.663 0-1.3-.41-1.57-1.059l-4.244-10.757-4.243 10.757a1.676 1.676 0 01-2.158.939c-.859-.337-1.3-1.276-.957-2.118l5.813-14.703A1.68 1.68 0 0157.5 40c.687 0 1.3.41 1.57 1.059l5.813 14.703c.344.842-.098 1.805-.956 2.118a1.65 1.65 0 01-.638.12z" fill="url(#paint1_linear)"/><path d="M61.313 55h-8.627C51.744 55 51 54.316 51 53.5c0-.838.769-1.5 1.686-1.5h8.627c.943 0 1.686.684 1.686 1.5.025.838-.743 1.5-1.686 1.5z" fill="url(#paint2_linear)"/><path d="M69 58c-1.118 0-2-.772-2-1.692v-7.616c0-.945.912-1.692 2-1.692s2 .772 2 1.692v7.616c0 .945-.912 1.692-2 1.692z" fill="url(#paint3_linear)"/><path d="M69 46c-1.118 0-2-.912-2-2 0-1.118.912-2 2-2s2 .912 2 2c0 1.118-.912 2-2 2z" fill="url(#paint4_linear)"/></g><defs><linearGradient id="paint0_linear" x1="30" y1="22" x2="69.305" y2="13.562" gradientUnits="userSpaceOnUse"><stop stop-color="#FFC75D"/><stop offset="1" stop-color="#FFA363"/></linearGradient><linearGradient id="paint1_linear" x1="50.009" y1="57.978" x2="64.96" y2="57.978" gradientUnits="userSpaceOnUse"><stop stop-color="#5C8BFC"/><stop offset="1" stop-color="#84B0FF"/></linearGradient><linearGradient id="paint2_linear" x1="51.006" y1="55.005" x2="63.012" y2="55.005" gradientUnits="userSpaceOnUse"><stop stop-color="#5C8BFC"/><stop offset="1" stop-color="#84B0FF"/></linearGradient><linearGradient id="paint3_linear" x1="66.99" y1="58.017" x2="71.001" y2="58.017" gradientUnits="userSpaceOnUse"><stop stop-color="#5C8BFC"/><stop offset="1" stop-color="#84B0FF"/></linearGradient><linearGradient id="paint4_linear" x1="66.99" y1="46.007" x2="71.001" y2="46.007" gradientUnits="userSpaceOnUse"><stop stop-color="#5C8BFC"/><stop offset="1" stop-color="#84B0FF"/></linearGradient></defs></svg>