<svg width="120" height="120" fill="none" xmlns="http://www.w3.org/2000/svg"><path fill-rule="evenodd" clip-rule="evenodd" d="M28 32c0-5.523 4.477-10 10-10h40c5.523 0 10 4.477 10 10s-4.477 10-10 10H38.828l-7.414 7.414A2 2 0 0128 48V32zm10-6a6 6 0 00-6 6v11.172l4.586-4.586A2 2 0 0138 38h40a6 6 0 000-12H38z" fill="url(#paint0_linear)"/><path fill-rule="evenodd" clip-rule="evenodd" d="M28 80c0-5.523 4.477-10 10-10h24c5.523 0 10 4.477 10 10s-4.477 10-10 10H38.828l-7.414 7.414A2 2 0 0128 96V80zm10-6a6 6 0 00-6 6v11.172l4.586-4.586A2 2 0 0138 86h24a6 6 0 000-12H38z" fill="url(#paint1_linear)"/><path d="M48 46c-5.523 0-10 4.477-10 10s4.477 10 10 10h38.343a2 2 0 011.414.586l6.829 6.828C95.846 74.674 98 73.782 98 72V56c0-5.523-4.477-10-10-10H48z" fill="url(#paint2_linear)"/><rect x="48" y="51" width="40" height="3" rx="1.5" fill="#fff"/><rect x="48" y="58" width="24" height="3" rx="1.5" fill="#fff"/><defs><linearGradient id="paint0_linear" x1="89.964" y1="56.5" x2="58.017" y2="75.276" gradientUnits="userSpaceOnUse"><stop stop-color="#658BF5"/><stop offset="1" stop-color="#8DB0FF"/></linearGradient><linearGradient id="paint1_linear" x1="73.441" y1="104.5" x2="46.858" y2="115.957" gradientUnits="userSpaceOnUse"><stop stop-color="#658BF5"/><stop offset="1" stop-color="#8DB0FF"/></linearGradient><linearGradient id="paint2_linear" x1="38" y1="74.004" x2="59.465" y2="28.014" gradientUnits="userSpaceOnUse"><stop stop-color="#FFC75D"/><stop offset="1" stop-color="#FFA363"/></linearGradient></defs></svg>