<svg width="120" height="120" fill="none" xmlns="http://www.w3.org/2000/svg"><path fill-rule="evenodd" clip-rule="evenodd" d="M42.064 34.944a3.18 3.18 0 00-4.522 0L14.936 57.721a3.239 3.239 0 000 4.556l22.606 22.779a3.18 3.18 0 004.522 0 3.239 3.239 0 000-4.556L21.718 60l20.346-20.5a3.239 3.239 0 000-4.556z" fill="url(#paint0_linear)"/><path fill-rule="evenodd" clip-rule="evenodd" d="M78.936 34.944a3.18 3.18 0 014.522 0l22.606 22.778a3.24 3.24 0 010 4.556L83.458 85.057a3.18 3.18 0 01-4.522 0 3.239 3.239 0 010-4.556L99.282 60 78.936 39.5a3.239 3.239 0 010-4.556z" fill="url(#paint1_linear)"/><path d="M62.722 36.995A4 4 0 0166.594 34h1.32a2 2 0 011.936 2.503L57.778 83.005A4 4 0 0153.906 86h-1.32a2 2 0 01-1.936-2.503l12.072-46.502z" fill="url(#paint2_linear)"/><defs><linearGradient id="paint0_linear" x1="14" y1="86" x2="58.3" y2="6.77" gradientUnits="userSpaceOnUse"><stop stop-color="#FFC75D"/><stop offset="1" stop-color="#FFA363"/></linearGradient><linearGradient id="paint1_linear" x1="14" y1="86" x2="58.3" y2="6.77" gradientUnits="userSpaceOnUse"><stop stop-color="#FFC75D"/><stop offset="1" stop-color="#FFA363"/></linearGradient><linearGradient id="paint2_linear" x1="71.171" y1="98.071" x2="56.655" y2="99.641" gradientUnits="userSpaceOnUse"><stop stop-color="#658BF5"/><stop offset="1" stop-color="#8DB0FF"/></linearGradient></defs></svg>