<svg fill="none" height="120" viewBox="0 0 120 120" width="120" xmlns="http://www.w3.org/2000/svg" xmlns:xlink="http://www.w3.org/1999/xlink"><linearGradient id="a" gradientUnits="userSpaceOnUse" x1="35" x2="85" y1="84.9976" y2="34.9976"><stop offset="0" stop-color="#ffc75d"/><stop offset="1" stop-color="#ffa363"/></linearGradient><linearGradient id="b" gradientUnits="userSpaceOnUse" x1="95.1584" x2="51.1867" y1="108.318" y2="120.378"><stop offset="0" stop-color="#658bf5"/><stop offset="1" stop-color="#8db0ff"/></linearGradient><mask id="c" height="51" maskUnits="userSpaceOnUse" width="50" x="35" y="34"><path clip-rule="evenodd" d="m35 59.9976c0 13.8071 11.1931 25 25 25 13.8074 0 25-11.1929 25-25 0-13.8074-11.1926-25-25-25-13.8069 0-25 11.1926-25 25z" fill="#fff" fill-rule="evenodd"/></mask><mask id="d" height="66" maskUnits="userSpaceOnUse" width="66" x="27" y="27"><path clip-rule="evenodd" d="m27 59.999c0 18.1554 14.7383 32.9338 32.8789 32.9985h.24c18.1409-.0647 32.8789-14.8431 32.8789-32.9985 0-18.1957-14.8033-32.999-32.999-32.999-18.1955 0-32.9988 14.8033-32.9988 32.999zm3.9551 0c0-16.015 13.0292-29.0437 29.0437-29.0437 16.015 0 29.0439 13.0287 29.0439 29.0437 0 16.0145-13.0289 29.0437-29.0439 29.0437-16.0145 0-29.0437-13.0292-29.0437-29.0437z" fill="#fff" fill-rule="evenodd"/></mask><g mask="url(#c)"><path clip-rule="evenodd" d="m35 59.9976c0 13.8071 11.1931 25 25 25 13.8074 0 25-11.1929 25-25 0-13.8074-11.1926-25-25-25-13.8069 0-25 11.1926-25 25z" fill="url(#a)" fill-rule="evenodd"/></g><g mask="url(#d)"><path clip-rule="evenodd" d="m27 59.999c0 18.1554 14.7383 32.9338 32.8789 32.9985h.24c18.1409-.0647 32.8789-14.8431 32.8789-32.9985 0-18.1957-14.8033-32.999-32.999-32.999-18.1955 0-32.9988 14.8033-32.9988 32.999zm3.9551 0c0-16.015 13.0292-29.0437 29.0437-29.0437 16.015 0 29.0439 13.0287 29.0439 29.0437 0 16.0145-13.0289 29.0437-29.0439 29.0437-16.0145 0-29.0437-13.0292-29.0437-29.0437z" fill="url(#b)" fill-rule="evenodd"/></g><g clip-rule="evenodd" fill="#fff" fill-rule="evenodd"><path d="m64.2529 68.8877c-.0094.0032-.8973.2901-1.6676.2901-.4252 0-.597-.0859-.6515-.1233-.2694-.1822-.7703-.5235.0867-2.1819l1.6048-3.1075c.9518-1.8453 1.093-3.6297.3933-5.0262-.5712-1.1421-1.6675-1.926-3.0815-2.2067-.5088-.1012-1.0254-.151-1.5373-.151-2.9678 0-4.9657 1.6829-5.0493 1.7547-.2873.2463-.3546.6545-.1634.9755.1924.3211.5888.4678.9548.3461.0079-.003.897-.2914 1.6676-.2914.4219 0 .5921.0857.6449.1216.2715.1839.7736.5297-.0816 2.1849l-1.6051 3.1091c-.9531 1.8468-1.0928 3.6312-.393 5.026.5712 1.1423 1.6657 1.9262 3.083 2.2067.5037.0985 1.0206.1515 1.5309.1515 2.9691 0 4.9691-1.6832 5.0524-1.755.2873-.2448.3546-.6547.1637-.9757-.1925-.3196-.5924-.4629-.9518-.3475z"/><path d="m62.9064 47.0317c2.2159 0 4.0122 1.7446 4.0122 3.8961 0 2.152-1.7963 3.8963-4.0122 3.8963-2.2158 0-4.0121-1.7443-4.0121-3.8963 0-2.1515 1.7963-3.8961 4.0121-3.8961z"/></g></svg>