<svg fill="none" height="120" width="120" xmlns="http://www.w3.org/2000/svg"><linearGradient id="b" gradientUnits="userSpaceOnUse" x1="35" x2="85" y1="84.998" y2="34.998"><stop offset="0" stop-color="#ffc75d"/><stop offset="1" stop-color="#ffa363"/></linearGradient><linearGradient id="d" gradientUnits="userSpaceOnUse" x1="95.158" x2="51.187" y1="108.318" y2="120.378"><stop offset="0" stop-color="#658bf5"/><stop offset="1" stop-color="#8db0ff"/></linearGradient><mask id="a" height="51" maskUnits="userSpaceOnUse" width="50" x="35" y="34"><path clip-rule="evenodd" d="M35 59.998c0 13.807 11.193 25 25 25s25-11.193 25-25c0-13.808-11.193-25-25-25s-25 11.192-25 25z" fill="#fff" fill-rule="evenodd"/></mask><mask id="c" height="66" maskUnits="userSpaceOnUse" width="66" x="27" y="27"><path clip-rule="evenodd" d="M27 59.999c0 18.155 14.738 32.934 32.879 32.998h.24C78.259 92.934 92.998 78.154 92.998 60c0-18.196-14.803-32.999-33-32.999C41.804 27 27 41.803 27 59.999zm3.955 0c0-16.015 13.03-29.044 29.044-29.044 16.015 0 29.044 13.029 29.044 29.044s-13.03 29.044-29.044 29.044c-16.015 0-29.044-13.03-29.044-29.044z" fill="#fff" fill-rule="evenodd"/></mask><g mask="url(#a)"><path clip-rule="evenodd" d="M35 59.998c0 13.807 11.193 25 25 25s25-11.193 25-25c0-13.808-11.193-25-25-25s-25 11.192-25 25z" fill="url(#b)" fill-rule="evenodd"/></g><g mask="url(#c)"><path clip-rule="evenodd" d="M27 59.999c0 18.155 14.738 32.934 32.879 32.998h.24C78.259 92.934 92.998 78.154 92.998 60c0-18.196-14.803-32.999-33-32.999C41.804 27 27 41.803 27 59.999zm3.955 0c0-16.015 13.03-29.044 29.044-29.044 16.015 0 29.044 13.029 29.044 29.044s-13.03 29.044-29.044 29.044c-16.015 0-29.044-13.03-29.044-29.044z" fill="url(#d)" fill-rule="evenodd"/></g><g clip-rule="evenodd" fill="#fff" fill-rule="evenodd"><path d="M64.253 68.888c-.01.003-.897.29-1.668.29-.425 0-.597-.086-.651-.124-.27-.182-.77-.523.087-2.181l1.604-3.108c.952-1.845 1.093-3.63.394-5.026-.572-1.142-1.668-1.926-3.082-2.207a7.892 7.892 0 00-1.537-.15c-2.968 0-4.966 1.682-5.05 1.754a.764.764 0 00-.163.975.812.812 0 00.955.346c.008-.003.897-.29 1.667-.29.422 0 .593.085.645.12.272.185.774.53-.081 2.186l-1.605 3.109c-.953 1.846-1.093 3.63-.393 5.026.57 1.142 1.665 1.926 3.083 2.206.503.099 1.02.152 1.53.152 2.97 0 4.97-1.683 5.053-1.755a.765.765 0 00.164-.976.822.822 0 00-.952-.347zM62.906 47.032c2.216 0 4.013 1.744 4.013 3.896s-1.797 3.896-4.013 3.896c-2.215 0-4.012-1.744-4.012-3.896s1.797-3.896 4.012-3.896z"/></g></svg>