<svg width="120" height="120" fill="none" xmlns="http://www.w3.org/2000/svg"><path d="M76.698 44.584c-6.334 0-11.465 5.13-11.465 11.414v8.008h-4.358V41.664h8.023c6.334 0 11.486-5.13 11.486-11.434V19H69.082c-6.334 0-11.466 5.129-11.466 11.414v25.462h-3.849v-8.008c0-6.304-5.152-11.413-11.465-11.413H31v11.231c0 6.305 5.152 11.434 11.486 11.434h15.129V74h3.259v-6.75h15.64C82.847 67.25 88 62.12 88 55.814v-11.23H76.698z" fill="url(#paint0_linear)"/><path fill-rule="evenodd" clip-rule="evenodd" d="M34.121 101.899V73.141H85.88v28.758H34.121zm9.594-25.536l-6.369 6.364-.02 9.385 6.57 6.565h32.188l6.57-6.565v-9.365l-6.389-6.384h-32.55zm-6.37 22.133l.182.181h-.181v-.181zm45.29-.02l-.202.201h.201v-.201z" fill="url(#paint1_linear)"/><path fill-rule="evenodd" clip-rule="evenodd" d="M67.579 87.52c0 4.169-3.407 7.572-7.579 7.572a7.58 7.58 0 01-7.578-7.572c0-4.169 3.406-7.572 7.578-7.572 4.172 0 7.579 3.403 7.579 7.572zm-3.225 0A4.36 4.36 0 0060 83.17a4.346 4.346 0 00-4.353 4.35A4.36 4.36 0 0060 91.87a4.36 4.36 0 004.354-4.35z" fill="url(#paint2_linear)"/><defs><linearGradient id="paint0_linear" x1="88" y1="19" x2="88" y2="74" gradientUnits="userSpaceOnUse"><stop stop-color="#FFA526"/><stop offset="1" stop-color="#FF860D"/></linearGradient><linearGradient id="paint1_linear" x1="85.879" y1="73.141" x2="85.879" y2="101.899" gradientUnits="userSpaceOnUse"><stop stop-color="#4070FF"/><stop offset="1" stop-color="#365FD9"/></linearGradient><linearGradient id="paint2_linear" x1="85.879" y1="73.141" x2="85.879" y2="101.899" gradientUnits="userSpaceOnUse"><stop stop-color="#4070FF"/><stop offset="1" stop-color="#365FD9"/></linearGradient></defs></svg>