<svg width="120" height="120" fill="none" xmlns="http://www.w3.org/2000/svg"><path d="M85 46c5.523 0 10-4.253 10-9.5S90.523 27 85 27s-10 4.253-10 9.5S79.477 46 85 46z" fill="url(#4290gun438gu2nf)"/><path d="M83.988 50C75.158 50 68 56.643 68 64.838v19.678c0 .822.713 1.484 1.599 1.484H98.4c.886 0 1.599-.662 1.599-1.484V64.838C99.975 56.666 92.818 50 83.988 50z" fill="url(#42ugn438fun)"/><path d="M34 46c5.523 0 10-4.253 10-9.5S39.523 27 34 27s-10 4.253-10 9.5S28.477 46 34 46z" fill="url(#oewugb348vm3490fi)"/><path d="M34.988 50C26.158 50 19 56.643 19 64.838v19.678c0 .822.713 1.484 1.599 1.484H49.4c.886 0 1.599-.662 1.599-1.484V64.838C50.975 56.666 43.818 50 34.988 50z" fill="url(#siogdubew8unw)"/><path fill-rule="evenodd" clip-rule="evenodd" d="M50 42c0-5.519 4.481-10 10-10s10 4.481 10 10-4.481 10-10 10-10-4.481-10-10zm16.226 0c0-3.443-2.806-6.226-6.226-6.226S53.774 38.557 53.774 42 56.58 48.226 60 48.226A6.22 6.22 0 0066.226 42z" fill="url(#ugn3409fuin329fi)"/><path d="M59.619 56.793c-8.548 0-15.476 6.523-15.476 14.57v19.32c0 .807.69 1.457 1.547 1.457h27.881c.858 0 1.548-.65 1.548-1.457v-19.32c-.024-8.047-6.952-14.57-15.5-14.57z" fill="#fff"/><path fill-rule="evenodd" clip-rule="evenodd" d="M45.667 93.933H73.57c1.881 0 3.429-1.457 3.405-3.25v-19.32c0-9.011-7.81-16.363-17.38-16.363-9.572 0-17.382 7.33-17.382 16.362v19.32c0 1.794 1.548 3.25 3.453 3.25zm27.523-3.587H46.048V71.363c0-7.038 6.095-12.776 13.571-12.776S73.19 64.324 73.19 71.362v18.985z" fill="url(#we8fh329f8u23)"/><defs><linearGradient id="4290gun438gu2nf" x1="75" y1="46" x2="93.975" y2="26.026" gradientUnits="userSpaceOnUse"><stop stop-color="#FFC75D"/><stop offset="1" stop-color="#FFA363"/></linearGradient><linearGradient id="42ugn438fun" x1="68" y1="86" x2="103.752" y2="54.221" gradientUnits="userSpaceOnUse"><stop stop-color="#FFC75D"/><stop offset="1" stop-color="#FFA363"/></linearGradient><linearGradient id="oewugb348vm3490fi" x1="24" y1="46" x2="42.975" y2="26.026" gradientUnits="userSpaceOnUse"><stop stop-color="#FFC75D"/><stop offset="1" stop-color="#FFA363"/></linearGradient><linearGradient id="siogdubew8unw" x1="19" y1="86" x2="54.752" y2="54.221" gradientUnits="userSpaceOnUse"><stop stop-color="#FFC75D"/><stop offset="1" stop-color="#FFA363"/></linearGradient><linearGradient id="ugn3409fuin329fi" x1="70.655" y1="56.643" x2="57.33" y2="60.297" gradientUnits="userSpaceOnUse"><stop stop-color="#658BF5"/><stop offset="1" stop-color="#8DB0FF"/></linearGradient><linearGradient id="we8fh329f8u23" x1="78.115" y1="102.971" x2="54.621" y2="108.724" gradientUnits="userSpaceOnUse"><stop stop-color="#658BF5"/><stop offset="1" stop-color="#8DB0FF"/></linearGradient></defs></svg>