<svg width="120" height="120" viewBox="0 0 120 120" fill="none" xmlns="http://www.w3.org/2000/svg">
<path d="M60.5 89C73.4787 89 84 78.4787 84 65.5C84 52.5213 73.4787 42 60.5 42C47.5213 42 37 52.5213 37 65.5C37 78.4787 47.5213 89 60.5 89Z" fill="url(#paint0_linear)"/>
<path d="M28.9493 66C27.8772 66 27 65.2125 27 64.2501C27 63.4189 27.0244 62.5877 27.0975 61.7565C27.9259 51.8038 33.725 42.9012 42.9596 37.3015C43.8611 36.7546 45.0551 36.9733 45.6642 37.7827C46.2733 38.592 46.0297 39.6638 45.1282 40.2107C36.8925 45.2198 31.727 53.16 30.9716 62.0408C30.8985 62.7845 30.8742 63.5283 30.8742 64.272C30.8985 65.2125 30.0214 66 28.9493 66Z" fill="url(#paint1_linear)"/>
<path d="M59.0481 98C55.3146 98 51.6467 97.3979 48.1535 96.2145C47.2365 95.9031 46.778 94.9481 47.1055 94.0969C47.433 93.2249 48.4373 92.7889 49.3325 93.1003C52.4546 94.1592 55.7295 94.699 59.0699 94.699C62.0392 94.699 64.9429 94.2837 67.7375 93.4325C68.6545 93.1626 69.637 93.6401 69.9208 94.5121C70.2046 95.3841 69.7025 96.3183 68.7855 96.5882C65.6416 97.5225 62.3666 98 59.0481 98Z" fill="url(#paint2_linear)"/>
<path d="M91.116 62C90.1945 62 89.3676 61.3514 89.2495 60.4567C88.0209 51.7337 82.7758 44.0172 74.8846 39.2978C74.0104 38.761 73.7269 37.665 74.294 36.8375C74.861 36.0099 76.0187 35.7415 76.8929 36.2783C85.7528 41.5568 91.6121 50.2127 92.9824 59.987C93.1242 60.9711 92.3918 61.8658 91.3522 62C91.2813 62 91.1868 62 91.116 62Z" fill="url(#paint3_linear)"/>
<path fill-rule="evenodd" clip-rule="evenodd" d="M47.7931 81.7849C47.8391 81.6989 47.8851 81.6129 47.908 81.5484V81.5269C47.9195 81.4839 47.931 81.4462 47.9425 81.4086C47.954 81.371 47.9655 81.3333 47.977 81.2903V81.2473C48 81.1613 48 81.0753 48 81.0108C48 80.9462 48 80.8387 47.977 80.7742V80.7312L47.977 80.731C47.954 80.645 47.931 80.5591 47.908 80.4946V80.4731C47.8966 80.4301 47.8793 80.3925 47.8621 80.3548C47.8448 80.3172 47.8276 80.2796 47.8161 80.2366V80.2151C47.7701 80.129 47.7241 80.0645 47.6782 80C47.6782 80 47.6782 79.9785 47.6552 79.9785L38.4828 68.6882C38.1379 68.2581 37.5862 68 37.0115 68C36.4368 68 35.8851 68.2581 35.5402 68.6882L26.3448 79.957C26.3448 79.957 26.3448 79.9785 26.3218 79.9785C26.313 79.9909 26.3033 80.0041 26.2932 80.0179C26.251 80.0753 26.2025 80.1415 26.1839 80.1935V80.2151C26.1379 80.2796 26.1149 80.3656 26.092 80.4516V80.4731C26.0805 80.5161 26.069 80.5538 26.0575 80.5914C26.046 80.629 26.0345 80.6667 26.023 80.7097V80.7527C26 80.8387 26 80.9247 26 80.9892C26 81.0538 26 81.1613 26.023 81.2258V81.2688L26.023 81.2688C26.046 81.3548 26.069 81.4409 26.092 81.5054V81.5269C26.1034 81.5699 26.1207 81.6075 26.1379 81.6452C26.1552 81.6828 26.1724 81.7204 26.1839 81.7634V81.7849C26.2299 81.871 26.2759 81.9355 26.3218 82C26.3218 82 26.3218 82.0215 26.3448 82.0215L35.5172 93.3118C35.8621 93.7419 36.4138 94 36.9885 94C37.5632 94 38.1149 93.7419 38.4598 93.3118L47.6322 82.0215C47.6322 82.0215 47.6322 82 47.6552 82L47.6552 82C47.7012 81.9355 47.7471 81.871 47.7931 81.7849ZM36.9886 72.5377L42.4599 79.2688H31.5173L36.9886 72.5377ZM31.5173 82.7097L36.9886 89.4408L42.4599 82.7097H31.5173Z" fill="url(#paint4_linear)"/>
<path fill-rule="evenodd" clip-rule="evenodd" d="M76.7593 66H83.6424C89.36 66 94 70.9278 94 77C94 83.0722 89.36 88 83.6424 88H76.7593C75.7917 88 75 87.1592 75 86.1316V67.8684C75 66.8408 75.7917 66 76.7593 66ZM78.5186 84.2633H83.6424C87.4028 84.2633 90.4815 81.017 90.4815 77C90.4815 72.983 87.4028 69.7368 83.6424 69.7368H78.5186V75.1317H84.5C85.4676 75.1317 86.2593 75.9724 86.2593 77C86.2593 78.0276 85.4676 78.8684 84.5 78.8684H78.5186V84.2633Z" fill="url(#paint5_linear)"/>
<path fill-rule="evenodd" clip-rule="evenodd" d="M67 30.0235C67 27.205 64.8994 24.8672 62.1732 24.3866V22.7479C62.1732 21.7866 61.3687 21 60.3855 21C59.4022 21 58.5978 21.7866 58.5978 22.7479V24.2992H56.9665V22.7479C56.9665 21.7866 56.162 21 55.1788 21C54.1955 21 53.3911 21.7866 53.3911 22.7479V24.2992H48.7877C47.8045 24.2992 47 25.0857 47 26.0471C47 27.0084 47.8045 27.795 48.7877 27.795H50.5754V40.205H48.7877C47.8045 40.205 47 40.9916 47 41.9529C47 42.9143 47.8045 43.7008 48.7877 43.7008H53.3687V45.2521C53.3687 46.2134 54.1732 47 55.1564 47C56.1397 47 56.9441 46.2134 56.9441 45.2521V43.7008H58.5754V45.2521C58.5754 46.2134 59.3799 47 60.3631 47C61.3464 47 62.1508 46.2134 62.1508 45.2521V43.6134C64.8994 43.1546 66.9777 40.795 66.9777 37.9765C66.9777 36.4252 66.352 35.0269 65.324 34C66.3743 32.9731 67 31.5748 67 30.0235ZM61.1453 27.8168C62.3967 27.8168 63.4246 28.8218 63.4246 30.0453C63.4246 31.2689 62.3967 32.2739 61.1453 32.2739H54.1509V27.8168H61.1453ZM54.1509 40.2051H61.1453C62.3967 40.2051 63.4246 39.2219 63.4246 37.9765C63.4246 36.753 62.3967 35.7479 61.1453 35.7479H54.1509V40.2051Z" fill="url(#paint6_linear)"/>
<defs>
<linearGradient id="paint0_linear" x1="37" y1="89" x2="84" y2="42" gradientUnits="userSpaceOnUse">
<stop stop-color="#FFC75D"/>
<stop offset="1" stop-color="#FFA363"/>
</linearGradient>
<linearGradient id="paint1_linear" x1="46.622" y1="72.7321" x2="33.4366" y2="75.1015" gradientUnits="userSpaceOnUse">
<stop stop-color="#658BF5"/>
<stop offset="1" stop-color="#8DB0FF"/>
</linearGradient>
<linearGradient id="paint2_linear" x1="70.753" y1="99.1607" x2="64.3955" y2="107.181" gradientUnits="userSpaceOnUse">
<stop stop-color="#658BF5"/>
<stop offset="1" stop-color="#8DB0FF"/>
</linearGradient>
<linearGradient id="paint3_linear" x1="93.622" y1="68.0357" x2="80.5365" y2="70.6584" gradientUnits="userSpaceOnUse">
<stop stop-color="#658BF5"/>
<stop offset="1" stop-color="#8DB0FF"/>
</linearGradient>
<linearGradient id="paint4_linear" x1="48.7202" y1="100.036" x2="33.7653" y2="103.506" gradientUnits="userSpaceOnUse">
<stop stop-color="#658BF5"/>
<stop offset="1" stop-color="#8DB0FF"/>
</linearGradient>
<linearGradient id="paint5_linear" x1="94.622" y1="93.1071" x2="81.7339" y2="96.1599" gradientUnits="userSpaceOnUse">
<stop stop-color="#658BF5"/>
<stop offset="1" stop-color="#8DB0FF"/>
</linearGradient>
<linearGradient id="paint6_linear" x1="67.6548" y1="53.0357" x2="53.9377" y2="55.9297" gradientUnits="userSpaceOnUse">
<stop stop-color="#658BF5"/>
<stop offset="1" stop-color="#8DB0FF"/>
</linearGradient>
</defs>
</svg>
