<svg width="120" height="120" fill="none" xmlns="http://www.w3.org/2000/svg"><path fill="url(#paint0_linear)" d="M73 25h17v70H73z"/><path fill="url(#paint1_linear)" d="M51 52h17v43H51z"/><path fill="url(#paint2_linear)" d="M29 64h17v31H29z"/><path d="M62.973 29.007l-8.436 1.102c-.77.096-1.082 1.031-.529 1.558l2.14 2.134L35.74 49.572a1.906 1.906 0 00-.336 2.685c.385.48.937.743 1.514.743.409 0 .818-.12 1.178-.407l20.79-16.084 2.428 2.421a.918.918 0 001.562-.527l1.106-8.413c.12-.552-.409-1.055-1.01-.983z" fill="url(#paint3_linear)"/><defs><linearGradient id="paint0_linear" x1="73" y1="95" x2="105.106" y2="87.203" gradientUnits="userSpaceOnUse"><stop stop-color="#FFC75D"/><stop offset="1" stop-color="#FFA363"/></linearGradient><linearGradient id="paint1_linear" x1="51" y1="95" x2="80.404" y2="83.375" gradientUnits="userSpaceOnUse"><stop stop-color="#FFC75D"/><stop offset="1" stop-color="#FFA363"/></linearGradient><linearGradient id="paint2_linear" x1="29" y1="95" x2="55.139" y2="80.666" gradientUnits="userSpaceOnUse"><stop stop-color="#FFC75D"/><stop offset="1" stop-color="#FFA363"/></linearGradient><linearGradient id="paint3_linear" x1="35.017" y1="53.016" x2="64.026" y2="53.016" gradientUnits="userSpaceOnUse"><stop stop-color="#5C8BFC"/><stop offset="1" stop-color="#84B0FF"/></linearGradient></defs></svg>