<svg width="120" height="120" viewBox="0 0 120 120" fill="none" xmlns="http://www.w3.org/2000/svg"><path d="M44.842 61.82c.394.024.764.024 1.158.049V36.148H29.197v30.516c3.991-2.803 9.264-5.115 15.645-4.844z" fill="url(#23irub23f89u32fn)"/><path d="M44.596 67.721c-4.83-.197-9.51 1.55-13.871 5.189-.567.467-1.06.934-1.528 1.377v20.68H46V67.795l-1.404-.074z" fill="url(#238u32b98fun23fu)"/><path d="M68.926 66.536V45H52.123v17.805c6.086 1.025 10.545 2.78 16.803 3.732z" fill="url(#238723ucn23f9)"/><path d="M58.603 70.268c-2.144-.561-4.213-1.098-6.505-1.512V94.95h16.803V72.439c-3.917-.513-7.144-1.366-10.298-2.171z" fill="url(#3fyb3289cu23nf)"/><path d="M75.232 72.768c-.37 0-.74 0-1.109-.025h-.098v22.208h16.803V67.764c-4.312 2.884-9.56 5.004-15.596 5.004z" fill="url(#328fun328fu3nf)"/><path d="M74.37 66.828c6.627.27 12.22-2.81 16.458-6.458V25H74.025v41.828h.345z" fill="url(#32f732hf832uf0f)"/><path d="M19.994 76.95c-.372 0-.719-.1-1.066-.3-.917-.6-1.215-1.824-.62-2.75.397-.624 9.42-14.8 25.113-14.8.372 0 .744 0 1.116.025 6.47.275 11.031 1.475 15.444 2.65 4.388 1.175 8.553 2.25 14.601 2.525 14.205.6 23.6-16.15 23.7-16.325a1.983 1.983 0 012.702-.775c.967.55 1.289 1.75.769 2.725-.422.775-10.363 18.4-26.402 18.4-.322 0-.62 0-.942-.025-6.47-.275-11.032-1.474-15.444-2.65-4.388-1.175-8.553-2.25-14.602-2.525-14.106-.6-22.633 12.776-22.733 12.9-.322.6-.966.926-1.636.926z" fill="url(#32f7h23f8732nf8)"/><defs><linearGradient id="23irub23f89u32fn" x1="29.197" y1="36.148" x2="40.648" y2="34.427" gradientUnits="userSpaceOnUse"><stop stop-color="#FFC75D"/><stop offset="1" stop-color="#FFA363"/></linearGradient><linearGradient id="238u32b98fun23fu" x1="29.197" y1="67.706" x2="40.585" y2="65.791" gradientUnits="userSpaceOnUse"><stop stop-color="#FFC75D"/><stop offset="1" stop-color="#FFA363"/></linearGradient><linearGradient id="238723ucn23f9" x1="52.123" y1="44.999" x2="63.325" y2="42.614" gradientUnits="userSpaceOnUse"><stop stop-color="#FFC75D"/><stop offset="1" stop-color="#FFA363"/></linearGradient><linearGradient id="3fyb3289cu23nf" x1="52.099" y1="68.756" x2="63.46" y2="66.767" gradientUnits="userSpaceOnUse"><stop stop-color="#FFC75D"/><stop offset="1" stop-color="#FFA363"/></linearGradient><linearGradient id="328fun328fu3nf" x1="74.025" y1="67.764" x2="85.41" y2="65.844" gradientUnits="userSpaceOnUse"><stop stop-color="#FFC75D"/><stop offset="1" stop-color="#FFA363"/></linearGradient><linearGradient id="32f732hf832uf0f" x1="74.025" y1="25" x2="85.596" y2="23.732" gradientUnits="userSpaceOnUse"><stop stop-color="#FFC75D"/><stop offset="1" stop-color="#FFA363"/></linearGradient><linearGradient id="32f7h23f8732nf8" x1="9.332" y1="72.807" x2="67.179" y2="113.301" gradientUnits="userSpaceOnUse"><stop stop-color="#658BF5"/><stop offset="1" stop-color="#8DB0FF"/></linearGradient></defs></svg>
