<svg width="17" height="17" viewBox="0 0 17 17" fill="none" xmlns="http://www.w3.org/2000/svg">
<path d="M15.1937 9.66178V10.3701C15.1937 10.5614 15.0449 10.7172 14.8466 10.7243H13.8124C13.437 10.7243 13.097 10.448 13.0687 10.0797C13.0474 9.86012 13.1324 9.6547 13.2741 9.51303C13.4016 9.37845 13.5787 9.30762 13.7699 9.30762H14.8395C15.0449 9.3147 15.1937 9.47053 15.1937 9.66178Z" fill="white"/>
<path d="M12.7429 8.98822C12.3887 9.3353 12.2187 9.85238 12.3604 10.3907C12.5445 11.0495 13.1891 11.4674 13.8691 11.4674H14.4854C14.8749 11.4674 15.1937 11.7861 15.1937 12.1757V12.3103C15.1937 13.7765 13.9966 14.9736 12.5304 14.9736H4.39868C2.93244 14.9736 1.73535 13.7765 1.73535 12.3103V7.54322C1.73535 6.67197 2.15327 5.89988 2.79785 5.41822C3.2441 5.07822 3.7966 4.87988 4.39868 4.87988H12.5304C13.9966 4.87988 15.1937 6.07697 15.1937 7.54322V7.85488C15.1937 8.24447 14.8749 8.56322 14.4854 8.56322H13.7629C13.3662 8.56322 13.0049 8.71905 12.7429 8.98822Z" fill="white"/>
<path d="M11.4748 3.41449C11.666 3.60574 11.5031 3.90324 11.2339 3.90324L5.79392 3.89616C5.48226 3.89616 5.31934 3.51366 5.54601 3.29408L6.69351 2.13949C7.66392 1.17616 9.23642 1.17616 10.2068 2.13949L11.4464 3.39324C11.4535 3.40033 11.4677 3.40741 11.4748 3.41449Z" fill="white"/>
</svg>
