<svg width="188" height="21" fill="none" xmlns="http://www.w3.org/2000/svg"><path fill-rule="evenodd" clip-rule="evenodd" d="M172.217 4.01C179.894-.983 187.661.086 187.735.117c-.253.355-9.537 13.294-20.698 14.555-.218-3.024.412-7.562 5.18-10.662zm10.213 14.255c-8.348 5.759-13.667.796-14.635-.239C180.522 16.075 187.533.571 187.735.12c.58 3.108.731 13.399-5.305 18.146z" fill="#B5B5B5"/><path d="M187 .12c-.075-.032-7.941-1.125-15.716 3.98-4.829 3.17-5.467 7.809-5.247 10.9C177.341 13.71 186.744.483 187 .12z" fill="#B5B5B5"/><path fill-rule="evenodd" clip-rule="evenodd" d="M14.939 11.088c3.802-.12 5.176-1.985 5.176-4.02C20.115 4.84 18.325 3 13.958 3H0v17h14.375c3.581 0 6.255-1.477 6.255-4.65 0-2.252-1.496-4.165-5.691-4.262zM3.9 9.878h8.733c2.232 0 3.312-.993 3.312-2.035 0-1.138-.933-1.961-3.312-1.961H3.9v3.995zm0 7.289h9.027c2.282 0 3.41-.969 3.41-2.3 0-1.381-1.153-2.447-3.41-2.447H3.9v4.747zM25.237 20V3h3.9v17h-3.9zM44.954 6.22h8.585V3H32.468v3.22h8.585V20h3.9V6.22zM56.87 20V3h18.766v2.93H60.771v4.65h9.15v2.785h-9.15V20h-3.9zM78.796 3v17h3.9V3h-3.9zm25.972 17L91.841 7.141V20h-3.876V3h4.955l12.412 12.254V3h3.851v17h-4.415zm9.684-17v17h19.085v-2.858h-15.184V12.47h9.1v-2.64h-9.1V5.93h15.184V3h-19.085zm40.053 0h5.152l-9.199 8.355L160 20h-5.249l-6.869-6.272L140.989 20h-5.151l9.517-8.621L136.181 3h5.225l6.525 5.981L154.505 3z" fill="#B5B5B5"/></svg>