<svg width="128" height="33" fill="none" xmlns="http://www.w3.org/2000/svg"><g clip-path="url(#clip0)" fill="#B5B5B5"><path d="M39.765 19.353h-5.478c-.462 0-.552.069-.593.523-.152 1.695-.29 3.384-.434 5.079-.165 1.964-.33 3.935-.503 5.899-.041.558-.317.799-.868.799h-3.86c-.571 0-.805-.227-.757-.8.138-1.75.29-3.5.434-5.25.152-1.771.31-3.542.468-5.313l.662-7.58.579-6.76c.055-.606.096-1.213.165-1.82.062-.502.331-.73.827-.73 1.31-.007 2.619-.007 3.928 0 .517 0 .765.262.723.779-.172 2.067-.351 4.141-.53 6.209-.117 1.357-.248 2.722-.358 4.08-.035.406.02.454.44.454h11.095c.42 0 .49-.062.53-.496.207-2.33.407-4.665.614-6.995.096-1.074.186-2.15.29-3.224.054-.586.316-.807.895-.814h3.755c.614 0 .834.262.786.89-.241 2.776-.475 5.56-.717 8.337-.261 2.998-.537 5.989-.799 8.986-.2 2.24-.379 4.486-.572 6.725-.076.855-.145 1.716-.22 2.57-.049.51-.324.752-.841.752h-3.859c-.544 0-.779-.234-.73-.793.117-1.502.248-2.997.379-4.492l.392-4.562c.056-.655.117-1.303.18-1.957.04-.414-.021-.49-.435-.496h-5.588zM58.205 11.525h1.791c.552 0 .806.255.765.813-.138 1.73-.296 3.452-.44 5.182-.166 1.943-.394 3.88-.483 5.83-.035.792.02 1.584.241 2.35.51 1.75 1.792 2.397 3.494 2.253 1.867-.159 2.852-1.351 3.39-3.019.338-1.054.455-2.15.544-3.252.173-2.06.359-4.114.538-6.174.083-.993.165-1.992.241-2.984.062-.806.269-1 1.075-1h3.308c.675 0 .895.221.834.903-.152 1.86-.317 3.728-.483 5.589-.193 2.157-.317 4.327-.613 6.477-.241 1.73-.813 3.342-1.909 4.727-1.185 1.496-2.763 2.357-4.603 2.757-2.164.468-4.328.482-6.47-.104-2.716-.744-4.238-2.556-4.714-5.292-.227-1.288-.165-2.584-.048-3.88.158-1.784.31-3.569.468-5.347.152-1.715.303-3.424.462-5.14.041-.42.33-.683.758-.683.613-.006 1.233-.006 1.854-.006zM14.806 10.677c.014 1.661-.654 2.977-1.592 4.197-.806 1.054-1.77 1.957-2.715 2.88-2.735 2.701-4.603 5.926-5.836 9.544-.248.717-.462 1.44-.62 2.185-.076.351-.138.372-.407.13-4.59-4.024-4.872-10.88-.634-15.277.545-.565 1.172-1.033 1.716-1.591 2.308-2.343 3.824-5.106 4.369-8.373.22-1.343.31-2.687.186-4.045-.014-.11-.07-.248.069-.31.13-.062.213.062.296.131 1.206 1.061 2.198 2.309 3.039 3.673 1.192 1.93 1.833 4.038 2.109 6.278.02.213.013.434.02.578zM10.568 32.121c-1.144-.02-2.267-.227-3.383-.516-.159-.042-.29-.083-.241-.29.034-.165.02-.33.275-.358.6-.062.986-.407 1.137-.986a4.32 4.32 0 00.152-.778c.13-1.785.972-3.253 2.033-4.624 1.047-1.344 2.322-2.48 3.473-3.728 1.909-2.074 3.459-4.369 4.396-7.05.035-.103.035-.254.18-.268.158-.014.192.145.247.248a14.853 14.853 0 011.613 4.555c.255 1.371.406 2.75.282 4.141-.268 3.101-1.578 5.65-4.086 7.532-1.792 1.35-3.804 2.102-6.078 2.122zM123.09 31.653h-1.758c-.565 0-.806-.255-.758-.848.118-1.44.255-2.88.379-4.32l.662-7.684c.186-2.163.372-4.32.565-6.477.048-.544.338-.793.882-.793h3.549c.579 0 .82.249.772.834-.159 1.944-.338 3.887-.504 5.83-.248 2.846-.489 5.692-.737 8.538-.124 1.392-.248 2.79-.386 4.183-.048.51-.303.737-.806.737h-1.86zM125.033 9.533h-1.792c-.523 0-.771-.241-.737-.758.083-1.158.186-2.308.29-3.459.034-.393.33-.662.751-.668 1.261-.014 2.522-.014 3.783 0 .461.006.709.317.668.771-.103 1.13-.207 2.26-.317 3.39-.048.483-.303.717-.792.724-.614.007-1.234 0-1.854 0zM116.564 14.102c-1.288-1.757-2.991-2.88-5.175-3.122-2.419-.269-4.713.097-6.739 1.564-.124.09-.262.159-.414.076-.137-.076-.131-.206-.117-.337.145-1.627.29-3.246.427-4.872.111-1.261.221-2.515.317-3.776.035-.476-.179-.73-.613-.738-1.288-.014-2.57-.007-3.859 0-.406 0-.654.255-.703.662-.034.303-.055.613-.082.923-.22 2.508-.441 5.01-.662 7.511-.172 1.992-.33 3.976-.503 5.968l-.6 6.787c-.172 2.033-.344 4.073-.523 6.105-.041.497.207.8.703.8 1.24.007 2.481.007 3.721 0 .462 0 .717-.241.785-.696.035-.248.076-.496.124-.806.311.386.621.696.979.964.358.242.73.469 1.144.62 1.709.635 3.473.745 5.251.435 2.474-.435 4.382-1.792 5.898-3.749 1.523-1.97 2.309-4.231 2.557-6.691.282-2.77-.248-5.347-1.916-7.628zm-3.342 6.822c-.055 2.274-.772 4.251-2.577 5.733-1.564 1.282-4.21 1.433-5.699.303-1.24-.95-1.943-2.219-2.136-3.755-.248-1.985.165-3.832 1.392-5.43 1.337-1.744 3.101-2.591 5.333-2.192 1.323.235 2.226 1.09 2.881 2.212.565.965.834 2.012.806 3.129zM95.726 18.285c-.51-2.984-2.164-5.196-4.934-6.498-1.489-.703-3.08-.938-4.72-.903-4.156.09-7.387 1.846-9.53 5.416-1.592 2.653-2.02 5.575-1.489 8.6.427 2.453 1.688 4.417 3.763 5.823 1.722 1.171 3.665 1.564 5.712 1.578.159 0 .317.013.476 0 .4-.028.799-.049 1.199-.104 3.37-.455 5.988-2.115 7.814-4.961 1.757-2.736 2.246-5.782 1.709-8.951zm-6.312 6.842c-.717 1.144-1.695 2.04-3.04 2.384-1.742.441-3.39.262-4.747-1.054-.985-.958-1.42-2.17-1.502-3.528-.007-.18 0-.365 0-.544.014-1.964.537-3.742 1.922-5.196 1.434-1.51 3.198-2.026 5.21-1.557 1.426.323 2.322 1.33 2.86 2.625.985 2.398.647 4.7-.703 6.87z"/></g><defs><clipPath id="clip0"><path fill="#fff" d="M0 0h128v32.336H0z"/></clipPath></defs></svg>