<svg width="180" height="29" fill="none" xmlns="http://www.w3.org/2000/svg"><g clip-path="url(#clip0)" fill="#B5B5B5"><path d="M16.931 0A17.884 17.884 0 0135.98 17.884v8.465a2.62 2.62 0 01-1.482 1.693c-.423.318-1.058.318-1.587.212-1.164-.212-2.01-1.27-2.01-2.434v-7.09c0-.635 0-1.375-.318-1.905-.635-1.058-2.01-1.587-3.175-1.164-.952.318-1.693 1.376-1.693 2.328v7.196l-.105 1.27c-.212.847-.953 1.482-1.8 1.799-1.058.317-2.328-.212-2.857-1.27-.423-.529-.423-1.27-.317-2.01l-.106-7.09a2.54 2.54 0 00-4.338-1.694c-.424.424-.741 1.165-.741 1.8v6.878c0 .635 0 1.164-.212 1.799-.317.952-1.27 1.693-2.328 1.587-1.058.106-2.116-.635-2.434-1.693-.211-.424-.211-.953-.211-1.482v-7.195c0-1.165-.847-2.223-2.011-2.434a2.54 2.54 0 00-3.069 2.54v7.724a2.645 2.645 0 01-4.127 2.117C.423 27.3 0 26.56 0 25.714V17.99A17.99 17.99 0 0116.825 0h.106zM86.984 9.1h-3.915c.211-2.75.74-5.185 3.28-6.772C88.783.741 91.534.423 94.391.635c1.588.106 3.07.423 4.445 1.164 2.54 1.164 3.704 3.069 3.704 5.82v14.497c0 1.694.423 2.117 2.222 1.905l.529-.106.106.212v2.963c-1.482.53-2.857.635-4.339.212-1.058-.212-1.693-.953-2.01-2.011l-.53-1.587-.423.423c-3.069 3.175-6.667 4.445-11.005 3.386-3.069-.846-5.185-3.598-5.291-6.772 0-1.058.106-2.01.317-3.069.53-2.222 2.222-3.598 4.233-4.55 1.481-.635 3.069-.847 4.55-1.059l5.503-.634c1.27-.212 1.799-.847 2.01-2.117.424-2.434-.634-4.127-3.068-4.762-1.482-.317-2.963-.423-4.445-.106-2.116.424-3.28 1.588-3.703 3.704l-.212.953zm11.534 4.763c-1.799.952-3.492 1.164-5.29 1.481-1.482.212-2.964.423-4.445.952-1.905.53-2.751 2.117-2.54 4.233.106 1.8 1.27 3.175 3.175 3.492 2.963.424 5.502-.317 7.513-2.54.635-.529 1.058-1.481 1.164-2.328.317-1.693.317-3.386.423-5.29zm55.556 5.079L153.862 20c-1.693 5.185-5.079 7.407-9.206 7.83-7.196.742-11.323-3.915-12.381-8.888-.847-4.021-.741-7.937 1.058-11.64 1.587-3.492 4.233-5.82 8.148-6.561C146.243 0 152.91 2.328 154.074 9.63l.529 5.82h-18.307c.212 2.751.635 5.29 2.54 7.195.846.847 1.905 1.27 3.069 1.376 3.703.635 6.666-1.058 7.936-4.656.106-.317.318-.423.635-.423h3.598zm-17.566-6.984h13.651c-.212-1.482-.424-2.963-1.164-4.339-.741-1.376-1.799-2.328-3.281-2.857a7.088 7.088 0 00-9.206 7.301v-.105zm27.407 15.026h-4.127V1.27h3.916v3.598l.634-.741c2.858-3.28 6.456-4.127 10.477-3.069 2.751.635 4.338 2.646 4.867 5.397L180 9.947v17.037h-4.233V10.794c0-1.164-.212-2.328-.529-3.387-.529-1.798-2.011-2.75-3.915-2.857-3.387-.106-6.138 1.693-6.985 4.762-.317 1.164-.317 2.328-.423 3.492v14.18zM109.312 1.27h4.021v10.9l.529-.53 9.842-10.053c.317-.317.529-.423.952-.423h4.762l-.423.53-8.678 8.676c-.317.318-.317.53-.106.953l9.418 15.026.318.635h-4.762c-.423 0-.635-.106-.847-.423l-7.195-12.064-.318-.634-3.28 3.28-.212.635v9.206h-2.328c-.529 0-1.27.106-1.587-.106-.212-.317-.106-1.058-.106-1.587V1.27zM63.28 1.164l-9.63 9.524 10.16 16.296h-4.763c-.423 0-.634-.106-.846-.423l-7.196-12.17-.317-.528-1.8 1.798c-1.375 1.059-1.798 2.329-1.692 3.916v7.407H43.28V1.27h3.916v10.688l.317.211.318-.635 9.735-9.947c.212-.317.53-.423.952-.423h4.762zm7.937 4.339C73.227 2.54 75.344.106 79.259.74v4.444c-.952.106-2.01 0-3.069.212-2.433.529-4.338 2.751-4.656 5.397l-.106 1.693v14.497h-4.127V1.27h3.916v4.233z"/></g><defs><clipPath id="clip0"><path fill="#fff" d="M0 0h180v28.254H0z"/></clipPath></defs></svg>