<svg width="120" height="43" fill="none" xmlns="http://www.w3.org/2000/svg"><g clip-path="url(#clip0)" fill="#B5B5B5"><path d="M67.43 21.188c0 1.422-.22 2.764-.681 4.006-.46 1.261-1.102 2.343-1.963 3.284-.861.941-1.903 1.682-3.164 2.243-1.262.56-2.684.821-4.286.821-1.602 0-3.024-.28-4.286-.821-1.261-.56-2.303-1.302-3.164-2.243a9.568 9.568 0 01-1.962-3.284 12.004 12.004 0 01-.661-4.006c0-1.402.22-2.743.66-4.005a9.472 9.472 0 011.963-3.304c.861-.942 1.923-1.683 3.164-2.243 1.262-.561 2.684-.821 4.286-.821 1.602 0 3.024.28 4.286.82 1.261.561 2.303 1.302 3.164 2.244.861.94 1.502 2.042 1.963 3.304.46 1.262.68 2.603.68 4.005zm-10.074 7.07c.981 0 1.843-.18 2.564-.541a5.338 5.338 0 001.842-1.482c.5-.64.861-1.382 1.102-2.243.24-.861.36-1.802.36-2.804 0-1.001-.12-1.942-.36-2.803-.24-.862-.601-1.603-1.102-2.243a5.117 5.117 0 00-1.842-1.482c-.741-.36-1.583-.541-2.564-.541-.981 0-1.842.18-2.563.54a5.337 5.337 0 00-1.843 1.483c-.5.64-.86 1.381-1.101 2.242-.24.862-.36 1.803-.36 2.804 0 1.002.12 1.943.36 2.804.24.861.6 1.602 1.101 2.243.5.64 1.102 1.122 1.843 1.482.72.36 1.582.54 2.563.54zm12.717 2.944V11.175h4.206v9.613l6.949-9.613h4.867l-7.37 9.893 7.87 10.134h-5.207l-7.13-9.834v9.834h-4.185zm18.204-20.027h12.036v3.344h-7.81v4.847h7.45v3.324h-7.45v5.167h7.911v3.345H88.297V11.175h-.02zm27.036 0h4.566l-6.588 9.953L120 31.202h-4.606l-4.326-6.83-4.326 6.83h-4.606l6.709-10.074-6.589-9.953h4.566l4.246 6.769 4.245-6.77zM21.228 19.226a9.613 9.613 0 100-19.226 9.613 9.613 0 100 19.226zM21.228 42.457a9.613 9.613 0 000-19.226 9.613 9.613 0 100 19.226z"/><path d="M32.844 30.841a9.613 9.613 0 000-19.226 9.613 9.613 0 100 19.226zM9.613 30.841a9.613 9.613 0 100-19.225 9.613 9.613 0 000 19.225z"/><path d="M18.955 18.955a9.627 9.627 0 01-7.07-7.07 9.627 9.627 0 017.07 7.07zM11.886 30.57a9.629 9.629 0 017.07-7.069 9.628 9.628 0 01-7.07 7.07zM23.502 23.501a9.629 9.629 0 017.07 7.07 9.628 9.628 0 01-7.07-7.07zM30.57 11.886a9.628 9.628 0 01-7.069 7.07 9.628 9.628 0 017.07-7.07z"/></g><defs><clipPath id="clip0"><path fill="#fff" d="M0 0h120v42.457H0z"/></clipPath></defs></svg>