<svg width="144" height="23" fill="none" xmlns="http://www.w3.org/2000/svg"><g clip-path="url(#clip0)" fill="#B5B5B5"><path d="M137.779 9.147l5.889-8.9h-6.43l-2.767 4.056 3.308 4.844zM137.766 13.263l-3.295 4.602 3.116 4.353H144l-6.234-8.955zM11.501.251c2.138 0 3.707.537 4.706 1.61 1 1.074 1.5 3.368 1.5 5.506 0 2.166-.522 4.763-1.563 5.831-1.04 1.07-2.589 1.604-4.643 1.604H4.936v7.426H0V.25h11.501zM4.936 3.988v7.105h4.976c.558 0 1.018-.051 1.38-.153.363-.102.65-.26.865-.474.213-.214.363-.493.446-.837.083-.344.125-2.42.125-2.895 0-.473-.037-.885-.111-1.233a1.734 1.734 0 00-.432-.858c-.214-.223-.51-.388-.886-.495-.377-.107-.871-.16-1.485-.16H4.936zM19.353 7.501c0-1.338.16-2.482.48-3.43.322-.948.819-1.724 1.493-2.328C22 1.139 22.859.697 23.906.418 24.95.14 26.202 0 27.662 0h2.34c1.47 0 2.727.137 3.772.412 1.046.274 1.903.71 2.573 1.31.669.6 1.159 1.376 1.47 2.328.312.954.468 2.104.468 3.451v6.869c0 1.339-.159 3.09-.474 4.038-.316.948-.809 1.724-1.478 2.328-.67.604-1.527 1.046-2.573 1.325-1.045.28-2.298.418-3.757.418h-2.341c-1.46 0-2.713-.139-3.758-.418-1.046-.279-1.906-.72-2.58-1.325-.674-.604-1.17-1.38-1.491-2.328-.321-.948-.482-2.7-.482-4.038V7.5zm9.308-3.276c-.78 0-1.44.053-1.978.16-.538.107-.979.312-1.322.614-.344.302-.592.727-.745 1.275-.153.549-.23 1.873-.23 2.756v4.447c0 .884.077 2.205.23 2.749.153.543.401.969.745 1.275.343.307.784.514 1.322.62.538.108 1.198.161 1.978.161h.317c.78 0 1.439-.053 1.977-.16.538-.107.98-.311 1.323-.613.343-.303.592-.728.745-1.276.153-.548.23-1.872.23-2.756V9.002c0-.883-.077-2.205-.23-2.748-.153-.544-.4-.967-.738-1.27-.34-.301-.78-.503-1.323-.606-.543-.102-1.204-.153-1.984-.153h-.317zM45.284 18.004h8.44v4.224H40.348V.251h4.936v17.753zM54.785 7.501c0-1.338.16-2.482.481-3.43.32-.948.818-1.724 1.492-2.328.674-.604 1.534-1.046 2.58-1.325C60.383.14 61.636 0 63.096 0h2.34c1.469 0 2.726.137 3.771.412 1.046.274 1.904.71 2.573 1.31.67.6 1.16 1.376 1.471 2.328.312.954.468 2.104.468 3.451v6.869c0 1.339-.16 3.09-.475 4.038-.316.948-.808 1.724-1.478 2.328-.67.604-1.526 1.046-2.573 1.325-1.045.28-2.298.418-3.757.418h-2.34c-1.46 0-2.713-.139-3.758-.418-1.046-.279-1.906-.72-2.58-1.325-.674-.604-1.171-1.38-1.492-2.328-.32-.948-.48-2.7-.48-4.038V7.5zm9.308-3.276c-.78 0-1.439.053-1.977.16-.539.107-.98.312-1.323.614-.344.302-.591.727-.745 1.275-.153.549-.23 1.873-.23 2.756v4.447c0 .884.077 2.205.23 2.749.154.543.401.969.745 1.275.343.307.784.514 1.323.62.538.108 1.197.161 1.977.161h.317c.78 0 1.44-.053 1.978-.16.538-.107.979-.311 1.322-.613.344-.303.592-.728.745-1.276.153-.548.23-1.872.23-2.756V9.002c0-.883-.077-2.205-.23-2.748-.153-.544-.4-.967-.738-1.27-.339-.301-.78-.503-1.323-.606-.543-.102-1.204-.153-1.984-.153h-.317zM76.063.251h5.675l8.221 15.004V.25h4.63v21.977h-5.676L80.692 7.057v15.171h-4.63V.251zM97.587.251h4.935v21.977h-4.935V.251zM105.495.251h15.182v4.225h-10.246v4.498h9.912v4.197h-9.912v4.832h10.246v4.225h-15.182V.25zM136.317 11.24l-7.899 10.988h-6.401l7.654-10.968L122.365.251h6.429l7.523 10.989z"/></g><defs><clipPath id="clip0"><path fill="#fff" d="M0 0h144v22.479H0z"/></clipPath></defs></svg>