<svg width="78" height="78" fill="none" xmlns="http://www.w3.org/2000/svg"><path d="M39 68.347c16.208 0 29.347-13.139 29.347-29.347 0-16.208-13.14-29.347-29.347-29.347C22.79 9.653 9.651 22.792 9.651 39c0 16.208 13.14 29.347 29.347 29.347z" fill="url(#paint0_linear)"/><path d="M39 39l25.085-15.264C58.93 15.298 49.627 9.653 39 9.653V39z" fill="url(#paint1_linear)"/><path d="M39 77.448C17.803 77.448.552 60.197.552 39S17.803.552 39 .552 77.448 17.803 77.448 39 60.197 77.448 39 77.448zM39 5.16C20.337 5.16 5.16 20.338 5.16 39c0 18.662 15.177 33.84 33.84 33.84 18.662 0 33.84-15.178 33.84-33.84C72.84 20.338 57.662 5.16 39 5.16z" fill="url(#paint2_linear)"/><path d="M54.552 29.41c-.691-1.066-2.103-1.412-3.168-.72l-10.051 6.336V14.318a2.31 2.31 0 00-2.304-2.304 2.31 2.31 0 00-2.304 2.304V39a2.31 2.31 0 002.304 2.304c.403 0 .806-.115 1.123-.288.288-.058.547-.144.806-.317l12.874-8.093a2.35 2.35 0 00.72-3.196z" fill="#fff"/><defs><linearGradient id="paint0_linear" x1="9.652" y1="39" x2="68.347" y2="39" gradientUnits="userSpaceOnUse"><stop stop-color="#FFB300"/><stop offset="1" stop-color="#FF8E37"/></linearGradient><linearGradient id="paint1_linear" x1="39" y1="24.326" x2="64.085" y2="24.326" gradientUnits="userSpaceOnUse"><stop stop-color="#5C8BFC"/><stop offset="1" stop-color="#84B0FF"/></linearGradient><linearGradient id="paint2_linear" x1=".552" y1="39" x2="77.448" y2="39" gradientUnits="userSpaceOnUse"><stop stop-color="#5C8BFC"/><stop offset="1" stop-color="#84B0FF"/></linearGradient></defs></svg>