<svg width="45" height="34" viewBox="0 0 45 34" fill="none" xmlns="http://www.w3.org/2000/svg">
<path d="M12.5023 4.53951C10.6698 7.02124 10.4288 8.78552 10.4008 12.1597C10.3963 12.7119 10.8492 13.1557 11.3989 13.2097C22.6578 14.3154 23.7542 34 9.33797 34C-3.12541 33.4624 -2.86216 12.3728 8.6309 0.693047C9.01529 0.302421 9.64445 0.317268 10.0252 0.711426L12.4309 3.20178C12.7821 3.56536 12.8026 4.13284 12.5023 4.53951Z" fill="#78A0FF"/>
<path d="M12.5023 4.53951C10.6698 7.02124 10.4288 8.78552 10.4008 12.1597C10.3963 12.7119 10.8492 13.1557 11.3989 13.2097C22.6578 14.3154 23.7542 34 9.33797 34C-3.12541 33.4624 -2.86216 12.3728 8.6309 0.693047C9.01529 0.302421 9.64445 0.317268 10.0252 0.711426L12.4309 3.20178C12.7821 3.56536 12.8026 4.13284 12.5023 4.53951Z" fill="url(#paint0_linear_2_71)"/>
<path d="M37.1108 4.56105C35.2019 7.03147 34.9502 8.79529 34.9209 12.1597C34.9161 12.7119 35.37 13.1563 35.9201 13.2052C47.7875 14.2613 48.9626 34 33.8049 34C20.6996 33.4617 20.9956 12.3124 33.1143 0.643032C33.4954 0.276 34.0989 0.28992 34.4757 0.661417L37.0365 3.18601C37.4096 3.55392 37.4312 4.14638 37.1108 4.56105Z" fill="#78A0FF"/>
<path d="M37.1108 4.56105C35.2019 7.03147 34.9502 8.79529 34.9209 12.1597C34.9161 12.7119 35.37 13.1563 35.9201 13.2052C47.7875 14.2613 48.9626 34 33.8049 34C20.6996 33.4617 20.9956 12.3124 33.1143 0.643032C33.4954 0.276 34.0989 0.28992 34.4757 0.661417L37.0365 3.18601C37.4096 3.55392 37.4312 4.14638 37.1108 4.56105Z" fill="url(#paint1_linear_2_71)"/>
<defs>
<linearGradient id="paint0_linear_2_71" x1="0" y1="0" x2="29.7172" y2="17.4807" gradientUnits="userSpaceOnUse">
<stop stop-color="#78A0FF"/>
<stop offset="1" stop-color="#5078E6"/>
</linearGradient>
<linearGradient id="paint1_linear_2_71" x1="24" y1="0" x2="54.402" y2="18.7777" gradientUnits="userSpaceOnUse">
<stop stop-color="#78A0FF"/>
<stop offset="1" stop-color="#5078E6"/>
</linearGradient>
</defs>
</svg>
