<svg width="120" height="120" viewBox="0 0 120 120" fill="none" xmlns="http://www.w3.org/2000/svg">
    <path d="M95.1231 25C95.1231 25 68.867 24.9316 48.3973 45.3376C47.4595 46.2724 46.6133 47.2984 45.8586 48.3472C42.222 48.0736 36.6872 48.1648 33.8512 50.992C27.2185 57.604 25 68.6392 25 68.6392L39.6147 66.5644V71.5804L48.3744 80.3128H53.3832L51.3019 94.882C51.3019 94.882 62.3716 92.6704 69.0042 86.0584C71.8402 83.2312 71.9546 77.7136 71.6573 74.0884C72.7322 73.336 73.7386 72.5152 74.6763 71.5576C95.1689 51.1744 95.1231 25 95.1231 25ZM65.9395 48.256C65.9395 45.0412 68.5468 42.4192 71.7945 42.4192C75.0193 42.4192 77.6495 45.0184 77.6495 48.256C77.6495 51.4708 75.0422 54.0928 71.7945 54.0928C68.5697 54.0928 65.9395 51.4936 65.9395 48.256Z" fill="url(#paint0_linear)"/>
    <path d="M29.3226 94.1522C28.2705 94.1522 27.5844 94.1066 27.47 94.0838L25.8919 93.9698L25.7776 92.3966C25.7547 91.9406 25.0457 81.3614 30.1689 76.2542C31.3353 75.0914 32.8219 74.2478 34.4915 73.8146L35.4978 73.541L46.3845 84.3938L46.1101 85.397C45.6755 87.0386 44.8293 88.5434 43.6629 89.7062C39.7519 93.6506 32.6847 94.1522 29.3226 94.1522ZM34.4915 77.6906C33.8511 77.9642 33.2793 78.3518 32.799 78.8534C30.0545 81.5894 29.437 87.221 29.437 90.5042C32.2959 90.5042 38.1738 90.0938 41.1242 87.1526C41.6045 86.6738 41.9933 86.1038 42.2906 85.4654L34.4915 77.6906Z" fill="url(#paint1_linear)"/>
    <defs>
        <linearGradient id="paint0_linear" x1="95.1231" y1="25" x2="95.1231" y2="94.882" gradientUnits="userSpaceOnUse">
            <stop stop-color="#4070FF"/>
            <stop offset="1" stop-color="#365FD9"/>
        </linearGradient>
        <linearGradient id="paint1_linear" x1="46.3845" y1="73.541" x2="46.3845" y2="94.1522" gradientUnits="userSpaceOnUse">
            <stop stop-color="#FFA526"/>
            <stop offset="1" stop-color="#FF860D"/>
        </linearGradient>
    </defs>
</svg>
