<svg width="120" height="120" viewBox="0 0 120 120" fill="none" xmlns="http://www.w3.org/2000/svg">
    <path d="M44.842 61.8196C45.2362 61.8442 45.6058 61.8442 46 61.8688V36.1475H29.1971V66.6639C33.1884 63.8606 38.4609 61.5491 44.842 61.8196Z" fill="url(#paint0_linear)"/>
    <path d="M44.5956 67.7213C39.7666 67.5246 35.0855 69.2705 30.7246 72.9098C30.158 73.377 29.6652 73.8442 29.1971 74.2868V94.9672H46V67.795C45.5319 67.7705 45.0637 67.7459 44.5956 67.7213Z" fill="url(#paint1_linear)"/>
    <path d="M68.9261 66.5361V44.9995H52.1232V62.8044C58.2087 63.8288 62.6681 65.5849 68.9261 66.5361Z" fill="url(#paint2_linear)"/>
    <path d="M58.6029 70.2678C56.4594 69.7068 54.3898 69.1702 52.0985 68.7556V94.9507H68.9014V72.4385C64.984 71.9263 61.7565 71.0727 58.6029 70.2678Z" fill="url(#paint3_linear)"/>
    <path d="M75.2319 72.7677C74.8623 72.7677 74.4927 72.7677 74.1232 72.743C74.0985 72.743 74.0739 72.743 74.0246 72.743V94.9508H90.8275V67.7642C86.5159 70.648 81.2681 72.7677 75.2319 72.7677Z" fill="url(#paint4_linear)"/>
    <path d="M74.3696 66.8275C80.9971 67.0986 86.5898 64.0176 90.8275 60.3697V25H74.0246V66.8275C74.1478 66.8275 74.271 66.8275 74.3696 66.8275Z" fill="url(#paint5_linear)"/>
    <path d="M19.9942 76.9507C19.6223 76.9507 19.2753 76.8507 18.9282 76.6507C18.011 76.0507 17.7135 74.8256 18.3084 73.9006C18.7051 73.2756 27.7288 59.1003 43.421 59.1003C43.7929 59.1003 44.1647 59.1003 44.5366 59.1253C51.0069 59.4004 55.5683 60.6004 59.981 61.7754C64.3689 62.9504 68.5336 64.0254 74.5825 64.3004C88.7873 64.9005 98.1829 48.1501 98.282 47.9751C98.8274 47.0001 100.017 46.6751 100.984 47.2001C101.951 47.7501 102.273 48.9502 101.753 49.9252C101.331 50.7002 91.3903 68.3255 75.351 68.3255C75.0287 68.3255 74.7312 68.3255 74.4089 68.3005C67.9387 68.0255 63.3772 66.8255 58.9646 65.6505C54.5767 64.4754 50.4119 63.4004 44.3631 63.1254C30.2574 62.5254 21.7295 75.9007 21.6303 76.0257C21.3081 76.6257 20.6635 76.9507 19.9942 76.9507Z" fill="url(#paint6_linear)"/>
    <defs>
        <linearGradient id="paint0_linear" x1="90.8275" y1="25" x2="90.8275" y2="94.9672" gradientUnits="userSpaceOnUse">
            <stop stop-color="#4070FF"/>
            <stop offset="1" stop-color="#365FD9"/>
        </linearGradient>
        <linearGradient id="paint1_linear" x1="90.8275" y1="25" x2="90.8275" y2="94.9672" gradientUnits="userSpaceOnUse">
            <stop stop-color="#4070FF"/>
            <stop offset="1" stop-color="#365FD9"/>
        </linearGradient>
        <linearGradient id="paint2_linear" x1="90.8275" y1="25" x2="90.8275" y2="94.9672" gradientUnits="userSpaceOnUse">
            <stop stop-color="#4070FF"/>
            <stop offset="1" stop-color="#365FD9"/>
        </linearGradient>
        <linearGradient id="paint3_linear" x1="90.8275" y1="25" x2="90.8275" y2="94.9672" gradientUnits="userSpaceOnUse">
            <stop stop-color="#4070FF"/>
            <stop offset="1" stop-color="#365FD9"/>
        </linearGradient>
        <linearGradient id="paint4_linear" x1="90.8275" y1="25" x2="90.8275" y2="94.9672" gradientUnits="userSpaceOnUse">
            <stop stop-color="#4070FF"/>
            <stop offset="1" stop-color="#365FD9"/>
        </linearGradient>
        <linearGradient id="paint5_linear" x1="90.8275" y1="25" x2="90.8275" y2="94.9672" gradientUnits="userSpaceOnUse">
            <stop stop-color="#4070FF"/>
            <stop offset="1" stop-color="#365FD9"/>
        </linearGradient>
        <linearGradient id="paint6_linear" x1="102" y1="46.9507" x2="102" y2="76.9507" gradientUnits="userSpaceOnUse">
            <stop stop-color="#FFA526"/>
            <stop offset="1" stop-color="#FF860D"/>
        </linearGradient>
    </defs>
</svg>
