<svg width="120" height="120" fill="none" xmlns="http://www.w3.org/2000/svg"><path d="M84.977 30.225c-15.579-8.3-34.423-8.3-49.977 0v11.227C35 61.482 45.197 78.768 60 87c14.803-8.209 25-25.518 25-45.548l-.023-11.227z" fill="url(#paint0_linear)"/><path fill-rule="evenodd" clip-rule="evenodd" d="M56.385 92.982L60 95l3.615-2.04c8.48-4.74 15.594-11.995 20.622-21.019C89.313 62.85 92 52.306 92 41.513v-1.61c0-1.428-.742-2.72-1.97-3.468A57.55 57.55 0 0060 28a57.361 57.361 0 00-30.03 8.457 4.07 4.07 0 00-1.97 3.47v1.609c0 10.793 2.688 21.313 7.763 30.428 5.028 9.024 12.165 16.28 20.622 21.018zM31.94 39.518c8.435-5.17 18.12-7.89 28.061-7.89 9.94 0 19.626 2.743 28.06 7.89a.5.5 0 01.21.386v1.61c0 10.202-2.526 20.133-7.3 28.704-4.704 8.412-11.33 15.191-19.209 19.59L60 90.805l-1.761-.997c-7.878-4.399-14.529-11.156-19.21-19.59-4.773-8.57-7.298-18.502-7.298-28.705v-1.61c0-.158.07-.294.208-.385z" fill="url(#paint1_linear)"/><path fill-rule="evenodd" clip-rule="evenodd" d="M70.337 49.199c-.33-3.282-3.198-4.368-6.819-4.669V40h-2.82v4.414c-.365 0-.741.006-1.117.012a73.21 73.21 0 01-1.117.012V40h-2.798v4.53c-.611.023-1.199.023-1.787.023v-.023H50v2.958s2.069-.046 2.045 0c1.129 0 1.505.648 1.623 1.202v5.178c.07 0 .188 0 .305.023h-.305v7.234c-.047.346-.259.924-1.058.924.047.023-2.046 0-2.046 0L50 65.354h3.668c.343 0 .681.006 1.016.012.33.006.656.011.982.011v4.6h2.798v-4.53c.776.023 1.528.023 2.233.023V70h2.822v-4.576c4.725-.278 8.04-1.433 8.44-5.802.329-3.513-1.34-5.084-4.02-5.708 1.622-.879 2.633-2.312 2.398-4.715zm-3.927 9.823c0 3.151-5.07 3.085-7.356 3.055-.195-.002-.37-.005-.52-.005v-6.078c.17-.002.373-.008.6-.015 2.323-.07 7.276-.22 7.276 3.043zM59 53.18c1.913.032 6.094.102 6.094-2.756 0-2.88-3.946-2.813-5.925-2.779-.246.004-.461.008-.635.005v5.524c.133 0 .29.003.465.006z" fill="#fff"/><defs><linearGradient id="paint0_linear" x1="35" y1="24" x2="96.354" y2="72.694" gradientUnits="userSpaceOnUse"><stop stop-color="#78A0FF"/><stop offset="1" stop-color="#5078E6"/></linearGradient><linearGradient id="paint1_linear" x1="28" y1="28" x2="94.93" y2="91.933" gradientUnits="userSpaceOnUse"><stop stop-color="#FFBE41"/><stop offset="1" stop-color="#FF9141"/></linearGradient></defs></svg>