<svg width="120" height="120" fill="none" xmlns="http://www.w3.org/2000/svg"><path d="M35 26v60h50V26H35z" fill="url(#paint0_linear)"/><path fill-rule="evenodd" clip-rule="evenodd" d="M30.113 30h59.774c1.159 0 2.113.905 2.113 2.045V90.72c0 1.274-1.056 2.28-2.317 2.28H30.317C29.022 93 28 91.96 28 90.72V32.08c0-1.14.954-2.079 2.113-2.079zM32 89h56V40H32v49z" fill="url(#paint1_linear)"/><path d="M32.5 36a1.5 1.5 0 100-3 1.5 1.5 0 000 3zM38.5 36a1.5 1.5 0 100-3 1.5 1.5 0 000 3zM44.5 36a1.5 1.5 0 100-3 1.5 1.5 0 000 3z" fill="#fff"/><path fill-rule="evenodd" clip-rule="evenodd" d="M70 57h.546C71.906 57 73 58.125 73 59.523v15.954C73 76.875 71.906 78 70.546 78H50.454C49.094 78 48 76.875 48 75.477V59.523C48 58.125 49.094 57 50.454 57H51v-3.137c0-5.415 4.363-9.934 9.676-9.862 5.172.107 9.324 4.411 9.324 9.683V57zm-3.519 0v-3.173c0-3.335-2.568-6.168-5.84-6.276-3.413-.107-6.193 2.69-6.193 6.133V57h12.033zm-4.423 11.046v4.33h-3.183v-4.33c-.762-.512-1.26-1.398-1.26-2.42 0-1.603 1.26-2.933 2.852-2.933 1.558 0 2.851 1.296 2.851 2.932-.033 1.023-.53 1.91-1.26 2.42z" fill="#fff"/><defs><linearGradient id="paint0_linear" x1="35" y1="26" x2="94.016" y2="75.18" gradientUnits="userSpaceOnUse"><stop stop-color="#78A0FF"/><stop offset="1" stop-color="#5078E6"/></linearGradient><linearGradient id="paint1_linear" x1="28" y1="30" x2="90.992" y2="93.992" gradientUnits="userSpaceOnUse"><stop stop-color="#FFBE41"/><stop offset="1" stop-color="#FF9141"/></linearGradient></defs></svg>