<svg width="88" height="88" fill="none" xmlns="http://www.w3.org/2000/svg"><path fill-rule="evenodd" clip-rule="evenodd" d="M18 71h51V10H18v61z" fill="url(#paint0_linear)"/><mask id="a" maskUnits="userSpaceOnUse" x="11" y="13" width="65" height="65"><path fill-rule="evenodd" clip-rule="evenodd" d="M13.133 13A2.133 2.133 0 0011 15.133v60.521A2.346 2.346 0 0013.346 78h60.308A2.346 2.346 0 0076 75.654V15.133A2.133 2.133 0 0073.867 13H13.133zm1.28 61.587h58.174V22.574H14.413v52.013z" fill="#fff"/></mask><g mask="url(#a)"><path fill-rule="evenodd" clip-rule="evenodd" d="M13.133 13A2.133 2.133 0 0011 15.133v60.521A2.346 2.346 0 0013.346 78h60.308A2.346 2.346 0 0076 75.654V15.133A2.133 2.133 0 0073.867 13H13.133zm1.28 61.587h58.174V22.574H14.413v52.013z" fill="url(#paint1_linear)"/></g><path fill-rule="evenodd" clip-rule="evenodd" d="M17.394 18.673c0 .917-.76 1.66-1.697 1.66S14 19.59 14 18.672c0-.916.76-1.659 1.697-1.659s1.697.743 1.697 1.66zM23.01 18.673c0 .917-.76 1.66-1.698 1.66-.937 0-1.697-.743-1.697-1.66 0-.916.76-1.659 1.697-1.659s1.697.743 1.697 1.66zM28.623 18.673c0 .917-.76 1.66-1.697 1.66s-1.696-.743-1.696-1.66c0-.916.76-1.659 1.697-1.659s1.696.743 1.696 1.66zM44.532 53.003v4.272h-3.315v-4.272a2.858 2.858 0 01-1.292-2.382c0-1.59 1.32-2.879 2.95-2.879 1.628 0 2.949 1.29 2.949 2.88 0 .99-.512 1.863-1.292 2.38zM37.03 38.119c0-3.236 2.742-5.858 6.074-5.76 3.207.092 5.717 2.747 5.717 5.883v3.86H37.03V38.12zm16.313 3.984h-1.128v-3.984c0-4.955-4.08-8.995-9.128-9.08-5.197-.087-9.451 4.16-9.451 9.242v3.822h-1.128c-1.414 0-2.56 1.119-2.56 2.5v15.731c0 1.38 1.146 2.5 2.56 2.5h20.834c1.415 0 2.56-1.12 2.56-2.5V44.602c0-1.38-1.145-2.5-2.56-2.5z" fill="#fff"/><defs><linearGradient id="paint0_linear" x1="18" y1="71" x2="69" y2="71" gradientUnits="userSpaceOnUse"><stop stop-color="#FFB833"/><stop offset="1" stop-color="#FF954D"/></linearGradient><linearGradient id="paint1_linear" x1="11" y1="78" x2="76" y2="78" gradientUnits="userSpaceOnUse"><stop stop-color="#648AF4"/><stop offset="1" stop-color="#8CAFFF"/></linearGradient></defs></svg>