<svg width="12" height="12" viewBox="0 0 12 12" fill="none" xmlns="http://www.w3.org/2000/svg">
<g clip-path="url(#clip0_102_1653)">
<path d="M9.53554 2.46449C8.83627 1.76523 7.94536 1.28902 6.97545 1.0961C6.00555 0.903172 5.00022 1.00219 4.08658 1.38063C3.17295 1.75906 2.39206 2.39993 1.84265 3.22217C1.29325 4.04442 1 5.01112 1 6.00002C1 6.98893 1.29325 7.95563 1.84265 8.77788C2.39206 9.60012 3.17295 10.241 4.08658 10.6194C5.00021 10.9979 6.00555 11.0969 6.97545 10.9039C7.94536 10.711 8.83627 10.2348 9.53553 9.53556C9.99983 9.07126 10.3681 8.52007 10.6194 7.91344C10.8707 7.30681 11 6.65663 11 6.00002C11 5.34341 10.8707 4.69323 10.6194 4.08661C10.3681 3.47998 9.99983 2.92878 9.53554 2.46449V2.46449ZM6.50205 7.41424C6.50232 7.48024 6.48952 7.54565 6.46438 7.60668C6.43925 7.66771 6.40228 7.72317 6.3556 7.76984C6.30893 7.81651 6.25348 7.85348 6.19245 7.87862C6.13141 7.90375 6.06601 7.91655 6 7.91628C5.934 7.91655 5.86859 7.90375 5.80756 7.87862C5.74652 7.85348 5.69107 7.81651 5.6444 7.76984C5.59772 7.72317 5.56075 7.66771 5.53562 7.60668C5.51049 7.54565 5.49768 7.48024 5.49796 7.41424L5.50149 6.49853L4.58579 6.50207C4.51978 6.50234 4.45438 6.48954 4.39334 6.46441C4.33231 6.43927 4.27686 6.4023 4.23018 6.35563C4.18351 6.30895 4.14654 6.2535 4.12141 6.19247C4.09627 6.13143 4.08347 6.06603 4.08374 6.00002C4.08347 5.93402 4.09627 5.86861 4.12141 5.80758C4.14654 5.74655 4.18351 5.69109 4.23018 5.64442C4.27686 5.59775 4.33231 5.56078 4.39334 5.53564C4.45438 5.51051 4.51978 5.49771 4.58579 5.49798L5.50149 5.50151L5.49796 4.58581C5.49796 4.45266 5.55085 4.32496 5.645 4.23081C5.73915 4.13666 5.86685 4.08376 6 4.08376C6.13315 4.08376 6.26085 4.13666 6.355 4.23081C6.44915 4.32496 6.50205 4.45266 6.50205 4.58581L6.49851 5.50151L7.41421 5.49798C7.54737 5.49798 7.67506 5.55087 7.76921 5.64502C7.86337 5.73918 7.91626 5.86687 7.91626 6.00002C7.91626 6.13317 7.86337 6.26087 7.76921 6.35502C7.67506 6.44918 7.54737 6.50207 7.41421 6.50207L6.49851 6.49853L6.50205 7.41424Z" fill="#2D313F"/>
</g>
<defs>
<clipPath id="clip0_102_1653">
<rect width="12" height="12" fill="white"/>
</clipPath>
</defs>
</svg>
