<svg width="20" height="21" viewBox="0 0 20 21" fill="none" xmlns="http://www.w3.org/2000/svg">
<path fill-rule="evenodd" clip-rule="evenodd" d="M10 2.5C5.58172 2.5 2 6.08172 2 10.5C2 14.9183 5.58172 18.5 10 18.5C14.4183 18.5 18 14.9183 18 10.5C18 6.08172 14.4183 2.5 10 2.5ZM0 10.5C0 4.97715 4.47715 0.5 10 0.5C15.5228 0.5 20 4.97715 20 10.5C20 16.0228 15.5228 20.5 10 20.5C4.47715 20.5 0 16.0228 0 10.5ZM10 5.5C10.5523 5.5 11 5.94772 11 6.5V9.5H14C14.5523 9.5 15 9.94771 15 10.5C15 11.0523 14.5523 11.5 14 11.5H11V14.5C11 15.0523 10.5523 15.5 10 15.5C9.44771 15.5 9 15.0523 9 14.5V11.5H6C5.44772 11.5 5 11.0523 5 10.5C5 9.94771 5.44772 9.5 6 9.5H9V6.5C9 5.94772 9.44771 5.5 10 5.5Z" fill="#DFE3F0"/>
<path fill-rule="evenodd" clip-rule="evenodd" d="M10 2.5C5.58172 2.5 2 6.08172 2 10.5C2 14.9183 5.58172 18.5 10 18.5C14.4183 18.5 18 14.9183 18 10.5C18 6.08172 14.4183 2.5 10 2.5ZM0 10.5C0 4.97715 4.47715 0.5 10 0.5C15.5228 0.5 20 4.97715 20 10.5C20 16.0228 15.5228 20.5 10 20.5C4.47715 20.5 0 16.0228 0 10.5ZM10 5.5C10.5523 5.5 11 5.94772 11 6.5V9.5H14C14.5523 9.5 15 9.94771 15 10.5C15 11.0523 14.5523 11.5 14 11.5H11V14.5C11 15.0523 10.5523 15.5 10 15.5C9.44771 15.5 9 15.0523 9 14.5V11.5H6C5.44772 11.5 5 11.0523 5 10.5C5 9.94771 5.44772 9.5 6 9.5H9V6.5C9 5.94772 9.44771 5.5 10 5.5Z" fill="url(#paint0_linear_2743_4231)"/>
<defs>
<linearGradient id="paint0_linear_2743_4231" x1="0" y1="0.5" x2="20" y2="20.5" gradientUnits="userSpaceOnUse">
<stop stop-color="#78A0FF"/>
<stop offset="1" stop-color="#5078E6"/>
</linearGradient>
</defs>
</svg>
