<svg width="14" height="14" viewBox="0 0 14 14" fill="none" xmlns="http://www.w3.org/2000/svg">
<path d="M4.55 0H9.45C10.9968 0 12.25 1.25371 12.25 2.8V11.2C12.25 12.7463 10.9968 14 9.45 14H4.55C3.00371 14 1.75 12.7463 1.75 11.2V2.8C1.75 1.25371 3.00371 0 4.55 0ZM4.55 1.4C3.77699 1.4 3.15 2.02672 3.15 2.8V11.2C3.15 11.973 3.77699 12.6 4.55 12.6H9.45C10.2238 12.6 10.85 11.9733 10.85 11.2V2.8C10.85 2.02672 10.2238 1.4 9.45 1.4H4.55ZM5.25 2.8H8.75C9.13691 2.8 9.45 3.11309 9.45 3.5V4.9C9.45 5.28637 9.13691 5.6 8.75 5.6H5.25C4.86363 5.6 4.55 5.28609 4.55 4.9V3.5C4.55 3.11309 4.86391 2.8 5.25 2.8ZM5.25 6.3H5.95C6.33691 6.3 6.65 6.61309 6.65 7V7.7C6.65 8.08637 6.33691 8.4 5.95 8.4H5.25C4.86363 8.4 4.55 8.08609 4.55 7.7V7C4.55 6.61309 4.86391 6.3 5.25 6.3ZM8.05 6.3H8.75C9.13691 6.3 9.45 6.61309 9.45 7V7.7C9.45 8.08637 9.13691 8.4 8.75 8.4H8.05C7.66363 8.4 7.35 8.08609 7.35 7.7V7C7.35 6.61309 7.66363 6.3 8.05 6.3ZM8.05 9.1H8.75C9.13691 9.1 9.45 9.41309 9.45 9.8V10.5C9.45 10.8864 9.13691 11.2 8.75 11.2H8.05C7.66363 11.2 7.35 10.8861 7.35 10.5V9.8C7.35 9.41309 7.66363 9.1 8.05 9.1ZM5.25 9.1H5.95C6.33691 9.1 6.65 9.41309 6.65 9.8V10.5C6.65 10.8864 6.33691 11.2 5.95 11.2H5.25C4.86363 11.2 4.55 10.8861 4.55 10.5V9.8C4.55 9.41309 4.86391 9.1 5.25 9.1Z" fill="#9095A5"/>
</svg>
