<svg width="25" height="25" viewBox="0 0 25 25" fill="none" xmlns="http://www.w3.org/2000/svg">
<path d="M19.8672 15.4131C17.6572 15.4131 15.8672 17.2031 15.8672 19.4131C15.8672 20.1631 16.0772 20.8731 16.4472 21.4731C17.1372 22.6331 18.4072 23.4131 19.8672 23.4131C21.3272 23.4131 22.5972 22.6331 23.2872 21.4731C23.6572 20.8731 23.8672 20.1631 23.8672 19.4131C23.8672 17.2031 22.0772 15.4131 19.8672 15.4131ZM21.9372 18.9831L19.8072 20.9531C19.6672 21.0831 19.4772 21.1531 19.2972 21.1531C19.1072 21.1531 18.9172 21.0831 18.7672 20.9331L17.7772 19.9431C17.4872 19.6531 17.4872 19.1731 17.7772 18.8831C18.0672 18.5931 18.5472 18.5931 18.8372 18.8831L19.3172 19.3631L20.9172 17.8831C21.2172 17.6031 21.6972 17.6231 21.9772 17.9231C22.2572 18.2231 22.2372 18.6931 21.9372 18.9831Z" fill="#FA9751"/>
<path d="M22.8672 7.96299V8.41299C22.8672 8.96299 22.4172 9.41299 21.8672 9.41299H3.86719C3.31719 9.41299 2.86719 8.96299 2.86719 8.41299V7.95299C2.86719 5.66299 4.71719 3.81299 7.00719 3.81299H18.7172C21.0072 3.81299 22.8672 5.67299 22.8672 7.96299Z" fill="#5078E6"/>
<path d="M2.86719 11.9133V16.8733C2.86719 19.1633 4.71719 21.0133 7.00719 21.0133H13.2672C13.8472 21.0133 14.3472 20.5233 14.2972 19.9433C14.1572 18.4133 14.6472 16.7533 16.0072 15.4333C16.5672 14.8833 17.2572 14.4633 18.0072 14.2233C19.2572 13.8233 20.4672 13.8733 21.5372 14.2333C22.1872 14.4533 22.8672 13.9833 22.8672 13.2933V11.9033C22.8672 11.3533 22.4172 10.9033 21.8672 10.9033H3.86719C3.31719 10.9133 2.86719 11.3633 2.86719 11.9133ZM8.86719 17.6633H6.86719C6.45719 17.6633 6.11719 17.3233 6.11719 16.9133C6.11719 16.5033 6.45719 16.1633 6.86719 16.1633H8.86719C9.27719 16.1633 9.61719 16.5033 9.61719 16.9133C9.61719 17.3233 9.27719 17.6633 8.86719 17.6633Z" fill="#5078E6"/>
</svg>
