<svg width="27" height="27" viewBox="0 0 27 27" fill="none" xmlns="http://www.w3.org/2000/svg">
<path d="M21.4231 8.58627L21.6513 8.46616C21.8794 8.34604 21.9618 8.04268 21.8324 7.79698C21.6717 7.49162 21.5314 7.48923 21.3192 7.5203L20.9 7.58409L21.4267 8.58442L21.4231 8.58627Z" fill="#FA9751"/>
<path d="M18.558 3.80801C16.6242 4.83508 15.885 7.23706 16.9121 9.17085C17.9391 11.1046 20.3411 11.8439 22.2749 10.8168C24.2087 9.78973 24.9479 7.38775 23.9209 5.45396C22.8938 3.52017 20.4937 2.78445 18.558 3.80801ZM21.2282 6.92988C21.5519 6.88051 22.0276 6.89005 22.3584 7.51833C22.6429 8.05886 22.4474 8.71769 21.9279 8.99118L21.6998 9.1113L21.8069 9.31487C21.8827 9.45878 21.8262 9.64095 21.6823 9.71671C21.5384 9.79248 21.3562 9.73597 21.2805 9.59206L21.1733 9.38848L21.0469 9.45501C20.4713 9.75807 19.7495 9.51947 19.4353 8.92278C19.3595 8.77887 19.4161 8.5967 19.56 8.52094C19.7039 8.44518 19.886 8.50168 19.9618 8.64559C20.1226 8.95096 20.4854 9.0782 20.7697 8.92852L20.8961 8.86199L20.2715 7.67563L19.6417 7.76513C19.318 7.8145 18.8423 7.80496 18.5115 7.17668C18.227 6.63615 18.4225 5.97732 18.942 5.70383L19.1701 5.58371L19.063 5.38014C18.9872 5.23623 19.0437 5.05406 19.1876 4.9783C19.3315 4.90253 19.5137 4.95904 19.5894 5.10295L19.6966 5.30653L19.823 5.24C20.3986 4.93694 21.1204 5.17554 21.4346 5.77223C21.5104 5.91614 21.4538 6.0983 21.3099 6.17407C21.166 6.24983 20.9839 6.19332 20.9081 6.04942C20.7473 5.74405 20.3845 5.61681 20.1002 5.76649L19.9738 5.83302L20.5984 7.01937L21.2282 6.92988Z" fill="#FA9751"/>
<path d="M19.0431 6.90298C19.2038 7.20834 19.3441 7.21073 19.5563 7.17966L19.9755 7.11587L19.447 6.11203L19.2189 6.23214C18.9907 6.35226 18.9119 6.65377 19.0431 6.90298Z" fill="#FA9751"/>
<path d="M21.0524 10.9012C21.0524 11.4519 20.6012 11.9031 20.0505 11.9031H3.15582C2.60511 11.9031 2.15391 11.4519 2.15391 10.9012V10.8916C2.15391 8.77619 3.86261 7.06748 5.978 7.06748H17.2187C19.3341 7.06748 21.0524 8.78579 21.0524 10.9012Z" fill="#5078E6" stroke="#F7F9FC" stroke-width="0.3"/>
<path d="M2.00391 14.6441V19.4533C2.00391 21.6516 3.77977 23.4274 5.978 23.4274H17.2187C19.417 23.4274 21.2024 21.642 21.2024 19.4437V14.6441C21.2024 14.0105 20.6841 13.4922 20.0505 13.4922H3.15582C2.52227 13.4922 2.00391 14.0105 2.00391 14.6441ZM7.76346 20.2117H5.84361C5.45004 20.2117 5.12367 19.8853 5.12367 19.4917C5.12367 19.0982 5.45004 18.7718 5.84361 18.7718H7.76346C8.15703 18.7718 8.48341 19.0982 8.48341 19.4917C8.48341 19.8853 8.15703 20.2117 7.76346 20.2117ZM14.003 20.2117H10.1633C9.76971 20.2117 9.44334 19.8853 9.44334 19.4917C9.44334 19.0982 9.76971 18.7718 10.1633 18.7718H14.003C14.3966 18.7718 14.7229 19.0982 14.7229 19.4917C14.7229 19.8853 14.3966 20.2117 14.003 20.2117Z" fill="#5078E6"/>
<path d="M17.344 2.20424C14.8197 1.06022 11.8811 2.1143 10.772 4.56159L12.2144 4.41491" stroke="#5078E6" stroke-linecap="round" stroke-linejoin="round"/>
</svg>
