<svg width="16" height="16" viewBox="0 0 16 16" fill="none" xmlns="http://www.w3.org/2000/svg">
<g clip-path="url(#clip0_6230_18435)">
<path d="M7.98812 1.33203C4.30812 1.33203 1.32812 4.3187 1.32812 7.9987C1.32812 11.6787 4.30812 14.6654 7.98812 14.6654C11.6748 14.6654 14.6615 11.6787 14.6615 7.9987C14.6615 4.3187 11.6748 1.33203 7.98812 1.33203ZM7.99479 13.332C5.04812 13.332 2.66146 10.9454 2.66146 7.9987C2.66146 5.05203 5.04812 2.66536 7.99479 2.66536C10.9415 2.66536 13.3281 5.05203 13.3281 7.9987C13.3281 10.9454 10.9415 13.332 7.99479 13.332Z" fill="#9095A5"/>
<path d="M8.32812 4.66797H7.32812V8.66797L10.8281 10.768L11.3281 9.94797L8.32812 8.16797V4.66797Z" fill="#9095A5"/>
</g>
<defs>
<clipPath id="clip0_6230_18435">
<rect width="16" height="16" fill="white"/>
</clipPath>
</defs>
</svg>
