<svg width="26" height="26" viewBox="0 0 26 26" fill="none" xmlns="http://www.w3.org/2000/svg">
<path d="M23.4629 17.9582C23.1192 20.7097 20.8483 22.9646 18.0775 23.306C16.4004 23.5129 14.8379 23.0577 13.6192 22.1681C12.9212 21.6613 13.0879 20.5855 13.9212 20.3373C17.0567 19.396 19.5254 16.9341 20.4837 13.8206C20.7337 13.0034 21.8171 12.8379 22.3275 13.5206C23.2129 14.7412 23.6712 16.2928 23.4629 17.9582Z" fill="white"/>
<path d="M11.0368 2.70117C6.44303 2.70117 2.71387 6.40429 2.71387 10.966C2.71387 15.5276 6.44303 19.2307 11.0368 19.2307C15.6305 19.2307 19.3597 15.5276 19.3597 10.966C19.3493 6.40429 15.6305 2.70117 11.0368 2.70117ZM10.0576 9.80744L12.568 10.6763C13.4743 10.997 13.9118 11.628 13.9118 12.6003C13.9118 13.7174 13.016 14.638 11.9222 14.638H11.8285V14.6898C11.8285 15.1139 11.4743 15.4656 11.0472 15.4656C10.6201 15.4656 10.266 15.1139 10.266 14.6898V14.6277C9.1097 14.576 8.18262 13.614 8.18262 12.4141C8.18262 11.99 8.53678 11.6383 8.96387 11.6383C9.39095 11.6383 9.74512 11.99 9.74512 12.4141C9.74512 12.7865 10.016 13.0865 10.3493 13.0865H11.9118C12.1514 13.0865 12.3389 12.8692 12.3389 12.6003C12.3389 12.2383 12.2764 12.2176 12.0368 12.1348L9.52637 11.2659C8.63053 10.9556 8.18262 10.3246 8.18262 9.34196C8.18262 8.22482 9.07845 7.30421 10.1722 7.30421H10.266V7.26284C10.266 6.83874 10.6201 6.48704 11.0472 6.48704C11.4743 6.48704 11.8285 6.83874 11.8285 7.26284V7.3249C12.9847 7.37662 13.9118 8.3386 13.9118 9.53849C13.9118 9.96259 13.5576 10.3143 13.1305 10.3143C12.7035 10.3143 12.3493 9.96259 12.3493 9.53849C12.3493 9.16611 12.0785 8.86614 11.7451 8.86614H10.1826C9.94303 8.86614 9.75553 9.08336 9.75553 9.3523C9.74512 9.704 9.80762 9.72469 10.0576 9.80744Z" fill="white"/>
</svg>
