<svg width="23" height="23" viewBox="0 0 23 23" fill="none" xmlns="http://www.w3.org/2000/svg">
<path d="M20.0966 15.4093C19.8666 17.9681 18.017 19.6452 15.3337 19.6452H6.70866C4.06366 19.6452 1.91699 17.4985 1.91699 14.8535V8.14518C1.91699 5.53852 3.48866 3.71768 5.93241 3.41102C6.18158 3.37268 6.44033 3.35352 6.70866 3.35352H15.3337C15.5828 3.35352 15.8224 3.3631 16.0524 3.40143C18.3428 3.66977 19.8953 5.27018 20.0966 7.58935C20.1253 7.86727 19.8953 8.09727 19.6174 8.09727H18.132C17.212 8.09727 16.3591 8.45185 15.7457 9.08435C15.0174 9.79352 14.6532 10.7902 14.7395 11.7868C14.8928 13.531 16.4262 14.9014 18.247 14.9014H19.6174C19.8953 14.9014 20.1253 15.1314 20.0966 15.4093Z" fill="white"/>
<path d="M21.0834 10.5127V12.4868C21.0834 13.0139 20.6617 13.4452 20.125 13.4643H18.2467C17.2117 13.4643 16.263 12.7072 16.1767 11.6722C16.1192 11.0685 16.3492 10.5031 16.7517 10.1102C17.1063 9.74599 17.595 9.53516 18.1317 9.53516H20.125C20.6617 9.55432 21.0834 9.98557 21.0834 10.5127Z" fill="white"/>
</svg>
