<svg width="23" height="23" viewBox="0 0 23 23" fill="none" xmlns="http://www.w3.org/2000/svg">
<path d="M7.91446 20.359C8.53446 19.739 8.89062 18.9475 8.98296 18.1296C9.10828 17.0413 8.74552 15.9135 7.91446 15.0824C7.41979 14.5878 6.81299 14.258 6.17321 14.1063C4.95301 13.7963 3.60089 14.1195 2.63793 15.0824C1.97176 15.7486 1.609 16.5994 1.56283 17.4767C1.52985 17.8526 1.56283 18.2418 1.66177 18.6177C1.81347 19.2575 2.14325 19.8643 2.63793 20.359C4.09557 21.8166 6.45682 21.8166 7.91446 20.359ZM6.67448 17.0348C7.05703 17.0348 7.37362 17.3513 7.37362 17.7339C7.36702 18.123 7.05703 18.433 6.66788 18.4396L5.97534 18.433L5.98193 19.0992C5.97534 19.4883 5.66534 19.7983 5.2762 19.8049C4.88705 19.7983 4.57705 19.4883 4.57046 19.0992L4.57705 18.433L3.88451 18.4396C3.49536 18.433 3.18537 18.123 3.17877 17.7339C3.18537 17.5426 3.26451 17.3711 3.38983 17.2458C3.51515 17.1205 3.68664 17.0413 3.87791 17.0348L4.57705 17.0348L4.57705 16.3092C4.57705 16.1114 4.6562 15.9399 4.78152 15.8146C4.90684 15.6892 5.07832 15.6101 5.2762 15.6101C5.65874 15.6101 5.97534 15.9267 5.97534 16.3092L5.97534 17.0348L6.67448 17.0348Z" fill="white"/>
<path d="M14.465 3.68535V7.22987H13.0659V3.68535C13.0659 3.4335 12.842 3.31224 12.6927 3.31224C12.6461 3.31224 12.5995 3.32157 12.5528 3.34022L5.15597 6.1292C4.66161 6.31576 4.34447 6.78214 4.34447 7.31382V7.93877C3.49565 8.57306 2.94531 9.58977 2.94531 10.7371V7.31382C2.94531 6.20382 3.62623 5.21509 4.66161 4.82333L12.0678 2.02502C12.273 1.9504 12.4875 1.91309 12.6927 1.91309C13.6255 1.91309 14.465 2.66863 14.465 3.68535Z" fill="white"/>
<path d="M20.6698 13.5269V14.4597C20.6698 14.7115 20.4739 14.9168 20.2127 14.9261H18.8509C18.3565 14.9261 17.9088 14.5623 17.8715 14.0773C17.8435 13.7881 17.9554 13.5176 18.142 13.331C18.3099 13.1538 18.543 13.0605 18.7949 13.0605H20.2034C20.4739 13.0699 20.6698 13.2751 20.6698 13.5269Z" fill="white"/>
<path d="M18.7837 12.0789H19.7352C20.2482 12.0789 20.6679 11.6592 20.6679 11.1461V10.7357C20.6679 8.8049 19.0915 7.22852 17.1607 7.22852H6.45252C5.65967 7.22852 4.93211 7.48969 4.34447 7.93742C3.49565 8.5717 2.94531 9.58842 2.94531 10.7357V12.3961C2.94531 12.7505 3.31842 12.9744 3.65422 12.8624C4.17657 12.6852 4.7269 12.5919 5.27724 12.5919C8.10353 12.5919 10.4075 14.8959 10.4075 17.7222C10.4075 18.3938 10.2302 19.1306 9.95041 19.7836C9.80117 20.1194 10.0344 20.5205 10.3981 20.5205H17.1607C19.0915 20.5205 20.6679 18.9441 20.6679 17.0133V16.836C20.6679 16.323 20.2482 15.9033 19.7352 15.9033H18.9236C18.0282 15.9033 17.17 15.3529 16.9368 14.4855C16.7503 13.7766 16.9742 13.0863 17.4405 12.6386C17.7857 12.2841 18.2614 12.0789 18.7837 12.0789ZM13.6722 11.8924H9.00831C8.62588 11.8924 8.30873 11.5752 8.30873 11.1928C8.30873 10.8103 8.62588 10.4932 9.00831 10.4932H13.6722C14.0546 10.4932 14.3717 10.8103 14.3717 11.1928C14.3717 11.5752 14.0546 11.8924 13.6722 11.8924Z" fill="white"/>
</svg>
