<svg width="33" height="33" viewBox="0 0 33 33" fill="none" xmlns="http://www.w3.org/2000/svg">
<path d="M20.664 5.42739V10.475H18.6716V5.42739C18.6716 5.06875 18.3528 4.89606 18.1402 4.89606C18.0738 4.89606 18.0074 4.90935 17.941 4.93591L7.40747 8.90757C6.70346 9.17323 6.25184 9.83739 6.25184 10.5945V11.4845C5.04307 12.3878 4.25937 13.8356 4.25937 15.4694V10.5945C4.25937 9.01384 5.22904 7.60582 6.70347 7.04793L17.2503 3.06299C17.5425 2.95673 17.848 2.90359 18.1402 2.90359C19.4686 2.90359 20.664 3.97953 20.664 5.42739Z" fill="#5078E6"/>
<path d="M29.4989 19.441V20.7694C29.4989 21.128 29.22 21.4202 28.8481 21.4335H26.9087C26.2047 21.4335 25.5671 20.9155 25.514 20.2247C25.4742 19.813 25.6336 19.4278 25.8992 19.1621C26.1383 18.9097 26.4704 18.7769 26.829 18.7769H28.8348C29.22 18.7902 29.4989 19.0824 29.4989 19.441Z" fill="#FA9751"/>
<path d="M26.5548 16.9072H27.9096C28.6402 16.9072 29.238 16.3095 29.238 15.5789V14.9945C29.238 12.2448 26.9931 10 24.2435 10H8.99446C7.86539 10 6.82931 10.3719 5.99247 11.0095C4.7837 11.9128 4 13.3606 4 14.9945V23.934C4 26.6836 6.24485 28.9285 8.99446 28.9285H24.2435C26.9931 28.9285 29.238 26.6836 29.238 23.934V23.6816C29.238 22.9511 28.6402 22.3533 27.9096 22.3533H26.754C25.4788 22.3533 24.2568 21.5696 23.9247 20.3343C23.6458 19.3248 23.9778 18.3551 24.642 17.7042C25.1335 17.1995 25.8109 16.9072 26.5548 16.9072ZM19.2756 16.6416H9.97741C9.4328 16.6416 8.98118 16.1899 8.98118 15.6453C8.98118 15.1007 9.4328 14.6491 9.97741 14.6491H19.2756C19.8202 14.6491 20.2718 15.1007 20.2718 15.6453C20.2718 16.1899 19.8202 16.6416 19.2756 16.6416Z" fill="#5078E6"/>
</svg>
