<svg width="29" height="29" viewBox="0 0 29 29" fill="none" xmlns="http://www.w3.org/2000/svg">
<path d="M9.97923 25.6692C10.7609 24.8875 11.21 23.8896 11.3264 22.8584C11.4844 21.4862 11.0271 20.0642 9.97923 19.0163C9.35552 18.3926 8.59044 17.9768 7.78378 17.7856C6.24531 17.3947 4.54051 17.8022 3.32636 19.0163C2.48643 19.8563 2.02905 20.929 1.97084 22.0351C1.92926 22.5091 1.97084 22.9997 2.09558 23.4738C2.28685 24.2804 2.70265 25.0455 3.32636 25.6692C5.16421 27.5071 8.14137 27.5071 9.97923 25.6692ZM8.4158 21.4779C8.89814 21.4779 9.29731 21.8771 9.29731 22.3594C9.28899 22.8501 8.89814 23.2409 8.40749 23.2492L7.5343 23.2409L7.54261 24.0808C7.5343 24.5715 7.14344 24.9623 6.65279 24.9707C6.16214 24.9623 5.77129 24.5715 5.76297 24.0808L5.77129 23.2409L4.8981 23.2492C4.40745 23.2409 4.01659 22.8501 4.00828 22.3594C4.01659 22.1182 4.11639 21.902 4.27439 21.744C4.4324 21.586 4.64862 21.4862 4.88978 21.4779L5.77129 21.4779L5.77129 20.5631C5.77129 20.3136 5.87108 20.0974 6.02909 19.9394C6.18709 19.7814 6.40331 19.6816 6.65279 19.6816C7.13513 19.6816 7.5343 20.0808 7.5343 20.5631L7.5343 21.4779L8.4158 21.4779Z" fill="#9095A5"/>
<path d="M18.2386 4.64634V9.11542H16.4745V4.64634C16.4745 4.3288 16.1922 4.17591 16.0041 4.17591C15.9453 4.17591 15.8865 4.18767 15.8277 4.21119L6.5014 7.72765C5.87808 7.96287 5.47822 8.5509 5.47822 9.22126V10.0092C4.40799 10.809 3.71411 12.0909 3.71411 13.5374V9.22126C3.71411 7.82174 4.57264 6.5751 5.87808 6.08115L15.2161 2.55293C15.4748 2.45885 15.7453 2.4118 16.0041 2.4118C17.1801 2.4118 18.2386 3.36442 18.2386 4.64634Z" fill="#9095A5"/>
<path d="M26.0607 17.0549V18.2309C26.0607 18.5485 25.8137 18.8072 25.4844 18.819H23.7674C23.144 18.819 22.5795 18.3603 22.5325 17.7487C22.4972 17.3842 22.6383 17.0431 22.8735 16.8079C23.0852 16.5844 23.3792 16.4668 23.6968 16.4668H25.4727C25.8137 16.4786 26.0607 16.7373 26.0607 17.0549Z" fill="#9095A5"/>
<path d="M23.6838 15.2302H24.8834C25.5303 15.2302 26.0595 14.7009 26.0595 14.0541V13.5366C26.0595 11.1022 24.0719 9.11459 21.6375 9.11459H8.13614C7.13648 9.11459 6.21915 9.44389 5.47822 10.0084C4.40799 10.8081 3.71411 12.0901 3.71411 13.5366V15.63C3.71411 16.0769 4.18454 16.3592 4.60793 16.2181C5.26653 15.9946 5.96041 15.877 6.65429 15.877C10.2178 15.877 13.1227 18.7819 13.1227 22.3454C13.1227 23.1922 12.8992 24.1213 12.5464 24.9445C12.3582 25.3679 12.6523 25.8736 13.1109 25.8736H21.6375C24.0719 25.8736 26.0595 23.8861 26.0595 21.4516V21.2281C26.0595 20.5813 25.5303 20.0521 24.8834 20.0521H23.8602C22.7312 20.0521 21.6492 19.3582 21.3552 18.2644C21.12 17.3706 21.4022 16.5003 21.9903 15.9358C22.4254 15.4889 23.0252 15.2302 23.6838 15.2302ZM17.2389 14.995H11.3586C10.8764 14.995 10.4765 14.5951 10.4765 14.1129C10.4765 13.6307 10.8764 13.2308 11.3586 13.2308H17.2389C17.7211 13.2308 18.121 13.6307 18.121 14.1129C18.121 14.5951 17.7211 14.995 17.2389 14.995Z" fill="#9095A5"/>
</svg>
