<svg width="25" height="25" viewBox="0 0 25 25" fill="none" xmlns="http://www.w3.org/2000/svg">
<path d="M11 10.4431C11 10.9831 11.15 11.0631 11.49 11.1831L12 11.3631V9.66309H11.7C11.32 9.66309 11 10.0131 11 10.4431Z" fill="#5078E6"/>
<path d="M13.5 15.1629H13.8C14.19 15.1629 14.5 14.8129 14.5 14.3829C14.5 13.8429 14.35 13.7629 14.01 13.6429L13.5 13.4629V15.1629Z" fill="#5078E6"/>
<path d="M20.33 5.89309L18.28 7.94309C18.13 8.09309 17.94 8.16309 17.75 8.16309C17.56 8.16309 17.37 8.09309 17.22 7.94309C16.93 7.65309 16.93 7.17309 17.22 6.88309L19.27 4.83309C17.51 3.33309 15.24 2.41309 12.75 2.41309C7.23 2.41309 2.75 6.89309 2.75 12.4131C2.75 17.9331 7.23 22.4131 12.75 22.4131C18.27 22.4131 22.75 17.9331 22.75 12.4131C22.75 9.92309 21.83 7.65309 20.33 5.89309ZM14.5 12.2331C15.14 12.4631 16 12.9231 16 14.3931C16 15.6431 15.01 16.6731 13.8 16.6731H13.5V16.9231C13.5 17.3331 13.16 17.6731 12.75 17.6731C12.34 17.6731 12 17.3331 12 16.9231V16.6731H11.92C10.59 16.6731 9.5 15.5531 9.5 14.1731C9.5 13.7531 9.84 13.4131 10.25 13.4131C10.66 13.4131 11 13.7531 11 14.1631C11 14.7131 11.41 15.1631 11.92 15.1631H12V12.9431L11 12.5931C10.36 12.3631 9.5 11.9031 9.5 10.4331C9.5 9.18309 10.49 8.15309 11.7 8.15309H12V7.91309C12 7.50309 12.34 7.16309 12.75 7.16309C13.16 7.16309 13.5 7.50309 13.5 7.91309V8.16309H13.58C14.91 8.16309 16 9.28309 16 10.6631C16 11.0731 15.66 11.4131 15.25 11.4131C14.84 11.4131 14.5 11.0731 14.5 10.6631C14.5 10.1131 14.09 9.66309 13.58 9.66309H13.5V11.8831L14.5 12.2331Z" fill="#5078E6"/>
<path d="M23.44 2.12309C23.36 1.94309 23.22 1.79309 23.03 1.71309C22.94 1.68309 22.85 1.66309 22.75 1.66309H18.75C18.34 1.66309 18 2.00309 18 2.41309C18 2.82309 18.34 3.16309 18.75 3.16309H20.94L19.27 4.83309C19.65 5.16309 20 5.51309 20.33 5.89309L22 4.22309V6.41309C22 6.82309 22.34 7.16309 22.75 7.16309C23.16 7.16309 23.5 6.82309 23.5 6.41309V2.41309C23.5 2.31309 23.48 2.22309 23.44 2.12309Z" fill="#5078E6"/>
</svg>
