<svg width="25" height="25" viewBox="0 0 25 25" fill="none" xmlns="http://www.w3.org/2000/svg">
<path d="M20.1459 15.0937L19.1042 13.3645C18.8854 12.9791 18.6875 12.2499 18.6875 11.8228V9.18742C18.6875 6.7395 17.25 4.62492 15.1771 3.63534C14.6354 2.677 13.6354 2.08325 12.4896 2.08325C11.3542 2.08325 10.3334 2.69784 9.79169 3.66659C7.76044 4.677 6.35419 6.77075 6.35419 9.18742V11.8228C6.35419 12.2499 6.15627 12.9791 5.93752 13.3541L4.88544 15.0937C4.46877 15.7916 4.37502 16.5624 4.63544 17.2708C4.88544 17.9687 5.47919 18.5103 6.25002 18.7708C8.27085 19.4583 10.3959 19.7916 12.5209 19.7916C14.6459 19.7916 16.7709 19.4583 18.7917 18.7812C19.5209 18.5416 20.0834 17.9895 20.3542 17.2708C20.625 16.552 20.5521 15.7603 20.1459 15.0937Z" fill="#9095A5"/>
<path d="M15.4469 20.8436C15.0094 22.0519 13.8532 22.9165 12.499 22.9165C11.6761 22.9165 10.8636 22.5832 10.2907 21.9894C9.95736 21.6769 9.70736 21.2603 9.56152 20.8332C9.69694 20.854 9.83236 20.8644 9.97819 20.8853C10.2178 20.9165 10.4678 20.9478 10.7178 20.9686C11.3115 21.0207 11.9157 21.0519 12.5199 21.0519C13.1136 21.0519 13.7074 21.0207 14.2907 20.9686C14.5094 20.9478 14.7282 20.9374 14.9365 20.9061C15.1032 20.8853 15.2699 20.8644 15.4469 20.8436Z" fill="#9095A5"/>
</svg>
