<svg width="14" height="14" viewBox="0 0 14 14" fill="none" xmlns="http://www.w3.org/2000/svg">
<circle cx="7" cy="7" r="6.125" stroke="#9095A5" stroke-width="1.75"/>
<path d="M6.446 7.96C6.446 7.69333 6.50467 7.47467 6.622 7.304C6.73933 7.128 6.91 6.936 7.134 6.728C7.28867 6.584 7.40333 6.464 7.478 6.368C7.55267 6.26667 7.59 6.16 7.59 6.048C7.59 5.89333 7.52333 5.77067 7.39 5.68C7.262 5.584 7.094 5.536 6.886 5.536C6.67267 5.536 6.478 5.58667 6.302 5.688C6.13133 5.78933 5.99267 5.93067 5.886 6.112L4.694 5.472C4.91267 5.09867 5.222 4.808 5.622 4.6C6.022 4.392 6.50467 4.288 7.07 4.288C7.70467 4.288 8.214 4.42133 8.598 4.688C8.98733 4.94933 9.182 5.31733 9.182 5.792C9.182 6.01067 9.14467 6.20533 9.07 6.376C8.99533 6.54133 8.90467 6.68267 8.798 6.8C8.69667 6.912 8.56333 7.04 8.398 7.184C8.21667 7.33867 8.08333 7.472 7.998 7.584C7.91267 7.69067 7.87 7.816 7.87 7.96H6.446ZM7.158 10.072C6.89667 10.072 6.68067 9.992 6.51 9.832C6.33933 9.66667 6.254 9.46667 6.254 9.232C6.254 8.992 6.33667 8.79467 6.502 8.64C6.67267 8.48533 6.89133 8.408 7.158 8.408C7.42467 8.408 7.64333 8.48533 7.814 8.64C7.98467 8.79467 8.07 8.992 8.07 9.232C8.07 9.46667 7.98467 9.66667 7.814 9.832C7.64333 9.992 7.42467 10.072 7.158 10.072Z" fill="#9095A5"/>
</svg>
