<svg width="41" height="31" viewBox="0 0 41 31" fill="none" xmlns="http://www.w3.org/2000/svg">
<rect x="3.05664" y="5.34912" width="27.9147" height="7.65065" fill="white"/>
<path fill-rule="evenodd" clip-rule="evenodd" d="M6.4596 30.0888C6.58206 30.1395 6.72302 30.1115 6.81675 30.0178L10.0611 26.7751C10.1891 26.6471 10.1891 26.4397 10.0611 26.3118L6.81679 23.0691C6.72306 22.9754 6.5821 22.9474 6.45964 22.9981C6.33718 23.0488 6.25733 23.1682 6.25733 23.3007L6.2573 24.8681C4.52684 24.8182 3.40258 24.3713 2.70631 23.7519C1.9717 23.0985 1.66912 22.2135 1.66912 21.2695C1.66912 21.0886 1.5224 20.942 1.3414 20.942C1.1604 20.942 1.01367 21.0886 1.01367 21.2695C1.01367 23.6018 1.51265 25.329 2.48406 26.4765C3.40062 27.5591 4.69747 28.0791 6.25732 28.1419L6.25729 29.7862C6.25729 29.9187 6.33713 30.0381 6.4596 30.0888Z" fill="url(#paint0_linear_2597_3572)" stroke="#5078E6" stroke-width="0.5" stroke-linejoin="round"/>
<path d="M41.0009 14.3162V16.4203C41.0009 16.9884 40.5588 17.4513 39.9693 17.4724H36.8958C35.7801 17.4724 34.7696 16.6518 34.6854 15.5576C34.6223 14.9054 34.8749 14.2952 35.2959 13.8744C35.6748 13.4746 36.2011 13.2642 36.7695 13.2642H39.9483C40.5588 13.2852 41.0009 13.7481 41.0009 14.3162Z" fill="url(#paint1_linear_2597_3572)"/>
<path fill-rule="evenodd" clip-rule="evenodd" d="M38.8927 11.0552H36.7455C35.5666 11.0552 34.493 11.5181 33.714 12.3176C32.6615 13.3486 32.1352 14.8846 32.5773 16.4838C33.1036 18.4406 35.0403 19.682 37.0612 19.682H38.8927C40.0505 19.682 40.9979 20.6289 40.9979 21.7861V22.1859C40.9979 26.5414 37.4402 30.0974 33.0825 30.0974H12.4601C12.904 29.0467 13.1495 27.8918 13.1495 26.6795C13.1495 21.826 9.21494 17.8915 4.36143 17.8915H3.81833C2.83256 17.8915 1.88469 18.0538 1 18.3531V8.02523C1 5.43717 2.24204 3.14369 4.15773 1.7129C5.48397 0.702921 7.12599 0.11377 8.91537 0.11377H33.0825C37.4402 0.11377 40.9979 3.66972 40.9979 8.02523V8.95104C40.9979 10.1083 40.0505 11.0552 38.8927 11.0552ZM10.4732 10.6343H25.2092C26.0723 10.6343 26.7881 9.91893 26.7881 9.05624C26.7881 8.19356 26.0723 7.47816 25.2092 7.47816H10.4732C9.61007 7.47816 8.89432 8.19356 8.89432 9.05624C8.89432 9.91893 9.61007 10.6343 10.4732 10.6343Z" fill="url(#paint2_linear_2597_3572)"/>
<defs>
<linearGradient id="paint0_linear_2597_3572" x1="10.1571" y1="30.1138" x2="10.1571" y2="20.942" gradientUnits="userSpaceOnUse">
<stop stop-color="#4070FF"/>
<stop offset="1" stop-color="#365FD9"/>
</linearGradient>
<linearGradient id="paint1_linear_2597_3572" x1="41.0009" y1="13.2642" x2="41.0009" y2="17.4724" gradientUnits="userSpaceOnUse">
<stop stop-color="#FFA526"/>
<stop offset="1" stop-color="#FF860D"/>
</linearGradient>
<linearGradient id="paint2_linear_2597_3572" x1="40.9979" y1="0.11377" x2="40.9979" y2="30.0972" gradientUnits="userSpaceOnUse">
<stop stop-color="#FFA526"/>
<stop offset="1" stop-color="#FF860D"/>
</linearGradient>
</defs>
</svg>
