<svg width="25" height="25" viewBox="0 0 25 25" fill="none" xmlns="http://www.w3.org/2000/svg">
<path d="M20.9372 9.6042C19.0518 9.6042 18.2809 8.27087 19.2184 6.63545C19.7601 5.68754 19.4372 4.4792 18.4893 3.93754L16.6872 2.90629C15.8643 2.4167 14.8018 2.70837 14.3122 3.53129L14.1976 3.7292C13.2601 5.36462 11.7184 5.36462 10.7705 3.7292L10.6559 3.53129C10.1872 2.70837 9.12467 2.4167 8.30176 2.90629L6.49967 3.93754C5.55176 4.4792 5.22884 5.69795 5.77051 6.64587C6.71842 8.27087 5.94759 9.6042 4.06217 9.6042C2.97884 9.6042 2.08301 10.4896 2.08301 11.5834V13.4167C2.08301 14.5 2.96842 15.3959 4.06217 15.3959C5.94759 15.3959 6.71842 16.7292 5.77051 18.3646C5.22884 19.3125 5.55176 20.5209 6.49967 21.0625L8.30176 22.0938C9.12467 22.5834 10.1872 22.2917 10.6768 21.4688L10.7913 21.2709C11.7288 19.6355 13.2705 19.6355 14.2184 21.2709L14.333 21.4688C14.8226 22.2917 15.8851 22.5834 16.708 22.0938L18.5101 21.0625C19.458 20.5209 19.7809 19.3021 19.2393 18.3646C18.2913 16.7292 19.0622 15.3959 20.9476 15.3959C22.0309 15.3959 22.9268 14.5105 22.9268 13.4167V11.5834C22.9163 10.5 22.0309 9.6042 20.9372 9.6042ZM12.4997 15.8855C10.6351 15.8855 9.11426 14.3646 9.11426 12.5C9.11426 10.6355 10.6351 9.11462 12.4997 9.11462C14.3643 9.11462 15.8851 10.6355 15.8851 12.5C15.8851 14.3646 14.3643 15.8855 12.4997 15.8855Z" fill="#9095A5"/>
</svg>
