<svg width="26" height="22" viewBox="0 0 26 22" fill="none" xmlns="http://www.w3.org/2000/svg">
<path d="M20.5579 6.30801C22.2625 6.30801 23.6444 4.99526 23.6444 3.37591C23.6444 1.75655 22.2625 0.443809 20.5579 0.443809C18.8533 0.443809 17.4715 1.75655 17.4715 3.37591C17.4715 4.99526 18.8533 6.30801 20.5579 6.30801Z" fill="#DFE3F0"/>
<path d="M20.5579 6.30801C22.2625 6.30801 23.6444 4.99526 23.6444 3.37591C23.6444 1.75655 22.2625 0.443809 20.5579 0.443809C18.8533 0.443809 17.4715 1.75655 17.4715 3.37591C17.4715 4.99526 18.8533 6.30801 20.5579 6.30801Z" fill="url(#paint0_linear_2803_5375)"/>
<path d="M20.5579 7.52774C17.8326 7.52774 15.6235 9.57804 15.6235 12.1075V18.1809C15.6235 18.4345 15.8436 18.6388 16.1169 18.6388H25.0066C25.2798 18.6388 25.5 18.4345 25.5 18.1809V12.1075C25.4924 9.58509 23.2833 7.52774 20.5579 7.52774Z" fill="#DFE3F0"/>
<path d="M20.5579 7.52774C17.8326 7.52774 15.6235 9.57804 15.6235 12.1075V18.1809C15.6235 18.4345 15.8436 18.6388 16.1169 18.6388H25.0066C25.2798 18.6388 25.5 18.4345 25.5 18.1809V12.1075C25.4924 9.58509 23.2833 7.52774 20.5579 7.52774Z" fill="url(#paint1_linear_2803_5375)"/>
<path d="M5.43448 6.27927C7.13906 6.27927 8.5209 4.96653 8.5209 3.34718C8.5209 1.72782 7.13906 0.415078 5.43448 0.415078C3.72989 0.415078 2.34806 1.72782 2.34806 3.34718C2.34806 4.96653 3.72989 6.27927 5.43448 6.27927Z" fill="#DFE3F0"/>
<path d="M5.43448 6.27927C7.13906 6.27927 8.5209 4.96653 8.5209 3.34718C8.5209 1.72782 7.13906 0.415078 5.43448 0.415078C3.72989 0.415078 2.34806 1.72782 2.34806 3.34718C2.34806 4.96653 3.72989 6.27927 5.43448 6.27927Z" fill="url(#paint2_linear_2803_5375)"/>
<path d="M5.43448 7.52774C2.70913 7.52774 0.5 9.57804 0.5 12.1075V18.1809C0.5 18.4345 0.720154 18.6388 0.993448 18.6388H9.8831C10.1564 18.6388 10.3765 18.4345 10.3765 18.1809V12.1075C10.369 9.58509 8.15983 7.52774 5.43448 7.52774Z" fill="#DFE3F0"/>
<path d="M5.43448 7.52774C2.70913 7.52774 0.5 9.57804 0.5 12.1075V18.1809C0.5 18.4345 0.720154 18.6388 0.993448 18.6388H9.8831C10.1564 18.6388 10.3765 18.4345 10.3765 18.1809V12.1075C10.369 9.58509 8.15983 7.52774 5.43448 7.52774Z" fill="url(#paint3_linear_2803_5375)"/>
<path d="M12.8419 9.22527C14.5465 9.22527 15.9283 7.91252 15.9283 6.29317C15.9283 4.67382 14.5465 3.36107 12.8419 3.36107C11.1373 3.36107 9.75546 4.67382 9.75546 6.29317C9.75546 7.91252 11.1373 9.22527 12.8419 9.22527Z" fill="#DFE3F0"/>
<path d="M12.8419 9.22527C14.5465 9.22527 15.9283 7.91252 15.9283 6.29317C15.9283 4.67382 14.5465 3.36107 12.8419 3.36107C11.1373 3.36107 9.75546 4.67382 9.75546 6.29317C9.75546 7.91252 11.1373 9.22527 12.8419 9.22527Z" fill="url(#paint4_linear_2803_5375)"/>
<path d="M12.8419 10.445C10.1165 10.445 7.90741 12.4953 7.90741 15.0247V21.0981C7.90741 21.3518 8.12756 21.5561 8.40086 21.5561H17.2905C17.5638 21.5561 17.784 21.3518 17.784 21.0981V15.0247C17.7764 12.5023 15.5672 10.445 12.8419 10.445Z" fill="#DFE3F0"/>
<path d="M12.8419 10.445C10.1165 10.445 7.90741 12.4953 7.90741 15.0247V21.0981C7.90741 21.3518 8.12756 21.5561 8.40086 21.5561H17.2905C17.5638 21.5561 17.784 21.3518 17.784 21.0981V15.0247C17.7764 12.5023 15.5672 10.445 12.8419 10.445Z" fill="url(#paint5_linear_2803_5375)"/>
<defs>
<linearGradient id="paint0_linear_2803_5375" x1="0.5" y1="0.415039" x2="21.3474" y2="25.0677" gradientUnits="userSpaceOnUse">
<stop stop-color="#78A0FF"/>
<stop offset="1" stop-color="#5078E6"/>
</linearGradient>
<linearGradient id="paint1_linear_2803_5375" x1="0.5" y1="0.415039" x2="21.3474" y2="25.0677" gradientUnits="userSpaceOnUse">
<stop stop-color="#78A0FF"/>
<stop offset="1" stop-color="#5078E6"/>
</linearGradient>
<linearGradient id="paint2_linear_2803_5375" x1="0.5" y1="0.415039" x2="21.3474" y2="25.0677" gradientUnits="userSpaceOnUse">
<stop stop-color="#78A0FF"/>
<stop offset="1" stop-color="#5078E6"/>
</linearGradient>
<linearGradient id="paint3_linear_2803_5375" x1="0.5" y1="0.415039" x2="21.3474" y2="25.0677" gradientUnits="userSpaceOnUse">
<stop stop-color="#78A0FF"/>
<stop offset="1" stop-color="#5078E6"/>
</linearGradient>
<linearGradient id="paint4_linear_2803_5375" x1="0.5" y1="0.415039" x2="21.3474" y2="25.0677" gradientUnits="userSpaceOnUse">
<stop stop-color="#78A0FF"/>
<stop offset="1" stop-color="#5078E6"/>
</linearGradient>
<linearGradient id="paint5_linear_2803_5375" x1="0.5" y1="0.415039" x2="21.3474" y2="25.0677" gradientUnits="userSpaceOnUse">
<stop stop-color="#78A0FF"/>
<stop offset="1" stop-color="#5078E6"/>
</linearGradient>
</defs>
</svg>
