<svg width="17" height="21" viewBox="0 0 17 21" fill="none" xmlns="http://www.w3.org/2000/svg">
<path d="M7.2735 0.216298C7.46033 0.138907 7.67539 0.181685 7.81839 0.324684L11.8184 4.32468C11.9122 4.41845 11.9648 4.54563 11.9648 4.67824C11.9648 4.81085 11.9122 4.93802 11.8184 5.03179L7.81839 9.03179C7.67539 9.17479 7.46033 9.21757 7.2735 9.14018C7.08666 9.06279 6.96484 8.88047 6.96484 8.67824V7.19448C4.81798 7.33633 3.18954 7.67824 1.99249 10.691C1.97454 10.7362 1.9572 10.7817 1.94193 10.8278C1.87644 11.0367 1.68268 11.1787 1.46374 11.1782C1.24464 11.1778 1.05138 11.0347 0.986947 10.8253C0.957257 10.7285 0.930317 10.6308 0.903957 10.533C0.855344 10.3527 0.790741 10.0983 0.726133 9.79953C0.598168 9.20768 0.464844 8.41772 0.464844 7.67824C0.464844 6.29173 1.02136 4.90273 2.19653 3.86582C3.2854 2.90505 4.87182 2.27474 6.96484 2.18841V0.678237C6.96484 0.476006 7.08666 0.293688 7.2735 0.216298Z" fill="url(#paint0_linear_408_1531)"/>
<path fill-rule="evenodd" clip-rule="evenodd" d="M9.65619 20.1402C9.46935 20.2176 9.25429 20.1748 9.11129 20.0318L5.11129 16.0318C5.01752 15.938 4.96484 15.8108 4.96484 15.6782C4.96484 15.5456 5.01752 15.4184 5.11129 15.3247L9.11129 11.3247C9.25429 11.1817 9.46935 11.1389 9.65619 11.2163C9.84302 11.2937 9.96484 11.476 9.96484 11.6782V13.162C11.8881 13.0349 13.1139 12.183 13.8756 11.3425C14.2928 10.8821 14.5739 10.4209 14.75 10.0759C14.8378 9.90384 14.8988 9.76199 14.9372 9.66548C14.9551 9.62029 14.9725 9.5748 14.9877 9.52863C15.0532 9.31975 15.247 9.17774 15.4659 9.17822C15.685 9.17871 15.8783 9.32177 15.9427 9.53118C15.9724 9.62799 15.9994 9.72568 16.0257 9.82343C16.0743 10.0037 16.1389 10.2581 16.2035 10.5569C16.3315 11.1488 16.4648 11.9387 16.4648 12.6782C16.4648 14.0647 15.9083 15.4537 14.7331 16.4906C13.6443 17.4514 12.0579 18.0817 9.96484 18.1681V19.6782C9.96484 19.8805 9.84302 20.0628 9.65619 20.1402ZM15.2982 11.1247C15.1175 11.4049 14.8927 11.7093 14.6166 12.014C13.6299 13.1028 12.001 14.1782 9.46484 14.1782C9.33224 14.1782 9.20506 14.1255 9.11129 14.0318C9.01752 13.938 8.96484 13.8108 8.96484 13.6782V12.8853L6.17195 15.6782L8.96484 18.4711V17.6782C8.96484 17.4021 9.1887 17.1782 9.46484 17.1782C11.6228 17.1782 13.1205 16.58 14.0715 15.7408C15.0214 14.9027 15.4648 13.7917 15.4648 12.6782C15.4648 12.1705 15.3904 11.6153 15.2982 11.1247Z" fill="#5078E6" stroke="#5078E6" stroke-linecap="round" stroke-linejoin="round"/>
<defs>
<linearGradient id="paint0_linear_408_1531" x1="11.9648" y1="0.178223" x2="11.9648" y2="11.1782" gradientUnits="userSpaceOnUse">
<stop stop-color="#FFA526"/>
<stop offset="1" stop-color="#FF860D"/>
</linearGradient>
</defs>
</svg>
