<svg width="22" height="24" viewBox="0 0 22 24" fill="none" xmlns="http://www.w3.org/2000/svg">
<path d="M10.7734 6.79315H11.0508C11.3281 6.79315 11.5585 6.54568 11.5585 6.24702C11.5585 5.87582 11.4262 5.80328 11.2086 5.72648L10.7777 5.57715V6.79315H10.7734Z" fill="#FA9751"/>
<path d="M10.4375 0.809577C8.08229 0.818111 6.17509 2.73384 6.18362 5.08905C6.19216 7.44425 8.10789 9.35145 10.4631 9.34291C12.8183 9.33438 14.7255 7.41865 14.717 5.06345C14.7084 2.70824 12.7927 0.805311 10.4375 0.809577ZM11.4146 5.11891C11.7474 5.23411 12.1954 5.48158 12.1954 6.24531C12.1954 6.90238 11.6791 7.43145 11.0476 7.43145H10.7703V7.67891C10.7703 7.85385 10.6252 7.99891 10.4503 7.99891C10.2754 7.99891 10.1303 7.85385 10.1303 7.67891V7.43145H9.97669C9.27696 7.43145 8.70949 6.84265 8.70949 6.11731C8.70949 5.94238 8.85456 5.79731 9.02949 5.79731C9.20442 5.79731 9.34949 5.94238 9.34949 6.11731C9.34949 6.48851 9.63109 6.79145 9.97669 6.79145H10.1303V5.34931L9.48602 5.11891C9.15322 5.00371 8.70522 4.75624 8.70522 3.99251C8.70522 3.33544 9.22149 2.80638 9.85296 2.80638H10.1303V2.55891C10.1303 2.38398 10.2754 2.23891 10.4503 2.23891C10.6252 2.23891 10.7703 2.38398 10.7703 2.55891V2.80638H10.9239C11.6236 2.80638 12.1911 3.39518 12.1911 4.12051C12.1911 4.29544 12.046 4.44051 11.8711 4.44051C11.6962 4.44051 11.5511 4.29544 11.5511 4.12051C11.5511 3.74931 11.2695 3.44638 10.9239 3.44638H10.7703V4.88851L11.4146 5.11891Z" fill="#FA9751"/>
<path d="M9.34961 3.99718C9.34961 4.36838 9.48188 4.44091 9.69948 4.51771L10.1304 4.66704V3.44678H9.85308C9.57574 3.44678 9.34961 3.69424 9.34961 3.99718Z" fill="#FA9751"/>
<path d="M19.5553 12.4179V14.249C19.5553 14.7379 19.1642 15.1379 18.6664 15.1557H16.9242C15.9642 15.1557 15.0842 14.4535 15.0042 13.4935C14.9509 12.9335 15.1642 12.409 15.5375 12.0446C15.8664 11.7068 16.3198 11.5112 16.8175 11.5112H18.6664C19.1642 11.529 19.5553 11.929 19.5553 12.4179Z" fill="white"/>
<path d="M18.1932 16.4889H16.9221C15.2332 16.4889 13.8109 15.2178 13.6687 13.6001C13.5887 12.6756 13.9265 11.7512 14.6021 11.0934C15.1709 10.5067 15.9621 10.1778 16.8154 10.1778H18.1932C18.4509 10.1778 18.6643 9.9645 18.6376 9.70672C18.4421 7.54672 17.0109 6.07117 14.8865 5.82228C14.6732 5.78672 14.4509 5.77783 14.2198 5.77783H6.21983C5.97095 5.77783 5.73095 5.79561 5.49984 5.83117C3.23317 6.11561 1.77539 7.8045 1.77539 10.2223V16.4445C1.77539 18.8978 3.7665 20.8889 6.21983 20.8889H14.2198C16.7087 20.8889 18.4243 19.3334 18.6376 16.9601C18.6643 16.7023 18.4509 16.4889 18.1932 16.4889ZM11.5532 11.3334H6.21983C5.85539 11.3334 5.55317 11.0312 5.55317 10.6667C5.55317 10.3023 5.85539 10.0001 6.21983 10.0001H11.5532C11.9176 10.0001 12.2198 10.3023 12.2198 10.6667C12.2198 11.0312 11.9176 11.3334 11.5532 11.3334Z" fill="white"/>
</svg>
