<svg width="42" height="31" viewBox="0 0 42 31" fill="none" xmlns="http://www.w3.org/2000/svg">
<rect x="6.15625" y="5.91357" width="21.1359" height="5.79563" fill="white"/>
<path fill-rule="evenodd" clip-rule="evenodd" d="M4.7173 21.0728C4.59484 21.0221 4.45388 21.0501 4.36015 21.1438L1.11588 24.3866C0.987899 24.5145 0.987899 24.7219 1.11588 24.8499L4.36012 28.0926C4.45384 28.1863 4.5948 28.2143 4.71726 28.1636C4.83972 28.1129 4.91957 27.9935 4.91957 27.861L4.9196 26.2936C6.65001 26.3435 7.77424 26.7905 8.47049 27.4098C9.20508 28.0633 9.50765 28.9483 9.50765 29.8922C9.50765 30.0731 9.65437 30.2198 9.83537 30.2198C10.0164 30.2198 10.1631 30.0731 10.1631 29.8922C10.1631 27.5599 9.66412 25.8327 8.69274 24.6852C7.7762 23.6025 6.47939 23.0826 4.91957 23.0198L4.9196 21.3754C4.91961 21.2429 4.83976 21.1235 4.7173 21.0728Z" fill="url(#paint0_linear_2597_3571)" stroke="url(#paint1_linear_2597_3571)" stroke-width="0.5" stroke-linejoin="round"/>
<path d="M41.0036 14.4217V16.5258C41.0036 17.094 40.5616 17.5569 39.9721 17.5779H36.8987C35.783 17.5779 34.7725 16.7573 34.6883 15.6631C34.6252 15.0109 34.8778 14.4007 35.2988 13.9798C35.6777 13.58 36.204 13.3696 36.7724 13.3696H39.9511C40.5616 13.3907 41.0036 13.8536 41.0036 14.4217Z" fill="url(#paint2_linear_2597_3571)"/>
<path fill-rule="evenodd" clip-rule="evenodd" d="M38.8956 11.1613H36.7484C35.5696 11.1613 34.496 11.6242 33.7171 12.4238C32.6646 13.4548 32.1383 14.9908 32.5803 16.59C33.1066 18.5468 35.0433 19.7883 37.0642 19.7883H38.8956C40.0534 19.7883 41.0007 20.7351 41.0007 21.8924V22.2922C41.0007 26.6478 37.4431 30.2038 33.0856 30.2038H12.4643C12.9084 29.153 13.1539 27.9978 13.1539 26.7853C13.1539 21.9317 9.2193 17.9971 4.36571 17.9971H3.82335C2.83716 17.9971 1.88892 18.1596 1.00391 18.4592V8.13131C1.00391 5.54321 2.24591 3.24969 4.16155 1.81888C5.48776 0.808887 7.12974 0.219727 8.91907 0.219727H33.0856C37.4431 0.219727 41.0007 3.77573 41.0007 8.13131V9.05713C41.0007 10.2144 40.0534 11.1613 38.8956 11.1613ZM10.4768 10.7404H25.2125C26.0756 10.7404 26.7913 10.025 26.7913 9.16234C26.7913 8.29964 26.0756 7.58423 25.2125 7.58423H10.4768C9.61375 7.58423 8.89802 8.29964 8.89802 9.16234C8.89802 10.025 9.61375 10.7404 10.4768 10.7404Z" fill="url(#paint3_linear_2597_3571)"/>
<defs>
<linearGradient id="paint0_linear_2597_3571" x1="1.01989" y1="21.0479" x2="1.01989" y2="30.2198" gradientUnits="userSpaceOnUse">
<stop stop-color="#FFA526"/>
<stop offset="1" stop-color="#FF860D"/>
</linearGradient>
<linearGradient id="paint1_linear_2597_3571" x1="1.01989" y1="21.0479" x2="1.01989" y2="30.2198" gradientUnits="userSpaceOnUse">
<stop stop-color="#FFA526"/>
<stop offset="1" stop-color="#FF860D"/>
</linearGradient>
<linearGradient id="paint2_linear_2597_3571" x1="41.0036" y1="13.3696" x2="41.0036" y2="17.5779" gradientUnits="userSpaceOnUse">
<stop stop-color="#4070FF"/>
<stop offset="1" stop-color="#365FD9"/>
</linearGradient>
<linearGradient id="paint3_linear_2597_3571" x1="41.0008" y1="0.219727" x2="41.0008" y2="30.2036" gradientUnits="userSpaceOnUse">
<stop stop-color="#4070FF"/>
<stop offset="1" stop-color="#365FD9"/>
</linearGradient>
</defs>
</svg>
