<svg width="64" height="71" fill="none" xmlns="http://www.w3.org/2000/svg"><path d="M56.977 6.225c-15.578-8.3-34.422-8.3-49.977 0v11.227C7 37.482 17.197 54.768 32 63c14.803-8.209 25-25.518 25-45.548l-.023-11.227z" fill="url(#paint0_linear)"/><path fill-rule="evenodd" clip-rule="evenodd" d="M28.385 68.982L32 71l3.615-2.04c8.48-4.74 15.594-11.995 20.622-21.019C61.313 38.85 64 28.306 64 17.513v-1.61c0-1.428-.742-2.72-1.97-3.469A57.55 57.55 0 0032 4a57.361 57.361 0 00-30.03 8.457A4.07 4.07 0 000 15.927v1.609c0 10.793 2.688 21.313 7.762 30.428 5.029 9.024 12.166 16.28 20.623 21.018zM3.94 15.518c8.435-5.17 18.12-7.89 28.061-7.89 9.94 0 19.626 2.743 28.06 7.89.117.09.21.227.21.386v1.61c0 10.202-2.526 20.133-7.3 28.704-4.703 8.412-11.33 15.191-19.209 19.59L32 66.805l-1.761-.997c-7.878-4.399-14.529-11.156-19.21-19.59-4.773-8.57-7.298-18.502-7.298-28.705v-1.61c0-.158.07-.294.208-.385z" fill="url(#paint1_linear)"/><path fill-rule="evenodd" clip-rule="evenodd" d="M42.337 25.199c-.33-3.282-3.198-4.369-6.819-4.669V16h-2.82v4.415c-.365 0-.741.005-1.117.011-.377.006-.753.012-1.117.012V16h-2.798v4.53c-.611.023-1.199.023-1.787.023v-.023H22v2.958s2.069-.046 2.045 0c1.129 0 1.505.648 1.623 1.202v5.177c.07 0 .188 0 .305.024h-.305v7.234c-.047.346-.259.924-1.058.924.047.023-2.046 0-2.046 0L22 41.354h3.668c.344 0 .681.006 1.016.012.33.006.656.011.982.011v4.6h2.798v-4.53c.776.023 1.528.023 2.233.023V46h2.822v-4.576c4.725-.278 8.04-1.433 8.44-5.801.329-3.514-1.34-5.085-4.02-5.71 1.622-.878 2.633-2.31 2.398-4.714zm-3.927 9.823c0 3.151-5.07 3.085-7.356 3.055-.195-.002-.37-.005-.52-.005v-6.078c.17-.002.373-.008.6-.015 2.323-.07 7.276-.22 7.276 3.043zM31 29.18c1.913.032 6.094.102 6.094-2.756 0-2.88-3.946-2.813-5.925-2.779-.246.004-.461.008-.635.005v5.524c.133 0 .29.003.465.006z" fill="#fff"/><defs><linearGradient id="paint0_linear" x1="6.985" y1="62.997" x2="56.967" y2="62.997" gradientUnits="userSpaceOnUse"><stop stop-color="#FFB300"/><stop offset="1" stop-color="#FF8E37"/></linearGradient><linearGradient id="paint1_linear" x1=".018" y1="70.984" x2="63.98" y2="70.984" gradientUnits="userSpaceOnUse"><stop stop-color="#5C8BFC"/><stop offset="1" stop-color="#84B0FF"/></linearGradient></defs></svg>