<svg width="78" height="61" fill="none" xmlns="http://www.w3.org/2000/svg"><path fill-rule="evenodd" clip-rule="evenodd" d="M1.952 26h74.072c1.073 0 1.952-.822 1.976-1.879V1.879C78 .846 77.122 0 76.048 0H1.952C.878 0 0 .846 0 1.879V24.12C0 25.155.878 26 1.952 26zm72.144-3.758H3.904V3.758h70.192v18.484z" fill="url(#paint0_linear)"/><path fill="url(#paint1_linear)" d="M15 4h49v57H15z"/><path fill="#fff" d="M45 5h11v49H45zM23 54c-1.1 0-2-.839-2-1.864V29.864c0-1.025.9-1.864 2-1.864s2 .839 2 1.864v22.272C25 53.185 24.1 54 23 54zM32 54c-1.1 0-2-.857-2-1.904V16.904c0-1.047.9-1.904 2-1.904s2 .857 2 1.904v35.192C34 53.167 33.1 54 32 54z"/><defs><linearGradient id="paint0_linear" x1="-.008" y1="26.005" x2="77.983" y2="26.005" gradientUnits="userSpaceOnUse"><stop stop-color="#5C8BFC"/><stop offset="1" stop-color="#84B0FF"/></linearGradient><linearGradient id="paint1_linear" x1="15.001" y1="61.006" x2="64.007" y2="61.006" gradientUnits="userSpaceOnUse"><stop stop-color="#FFB300"/><stop offset="1" stop-color="#FF8E37"/></linearGradient></defs></svg>