<svg width="86" height="88" fill="none" xmlns="http://www.w3.org/2000/svg"><path d="M68.483 57.329c-1.791 0-3.35.99-4.05 2.395l-.442-2.864c0-2.291-1.998-4.166-4.49-4.166-2.467 0-4.492 1.849-4.492 4.166v-2.083c0-2.291-2-4.166-4.492-4.166s-4.49 1.849-4.49 4.166V38.166c0-2.291-2-4.166-4.492-4.166-2.467 0-4.492 1.849-4.492 4.166V70.347c-5.737-2.708-8.333-3.124-11.215-3.124-3.349 0-6.724 1.197-6.724 5.155l10.099 4.192 7.088 6.561C39.666 86.255 44.209 88 48.986 88h15.006c4.958 0 8.982-3.723 8.982-8.306v-18.2c-.026-2.29-2.025-4.165-4.491-4.165z" fill="url(#paint0_linear)"/><path fill-rule="evenodd" clip-rule="evenodd" d="M24.765 43.952c.052-.106.104-.212.13-.29v-.027l.04-.146c.013-.046.026-.092.039-.145v-.053C25 43.185 25 43.079 25 43c0-.08 0-.212-.026-.29v-.054c-.026-.106-.052-.211-.079-.29v-.027c-.013-.053-.032-.1-.052-.146a.956.956 0 01-.052-.145v-.026c-.053-.106-.105-.186-.157-.265 0 0 0-.026-.026-.026L14.174 27.846A2.098 2.098 0 0012.5 27c-.654 0-1.281.317-1.674.846L.392 41.731s0 .026-.026.026l-.032.048c-.048.071-.104.152-.125.217v.026c-.052.08-.078.185-.104.29v.027c-.013.053-.027.1-.04.146a4.402 4.402 0 00-.039.145v.053C0 42.815 0 42.921 0 43c0 .08 0 .212.026.29v.054c.026.106.052.211.079.29v.027c.013.053.032.1.052.146.02.046.04.092.052.145v.026c.053.106.105.186.157.265 0 0 0 .026.026.026l10.434 13.885c.393.529 1.02.846 1.674.846.654 0 1.281-.317 1.674-.846l10.434-13.885s0-.026.026-.026a.98.98 0 01.13-.29zM12.474 32.554l6.224 8.277H6.25l6.224-8.277zM6.25 45.089l6.224 8.278 6.224-8.278H6.25z" fill="url(#paint1_linear)"/><path fill-rule="evenodd" clip-rule="evenodd" d="M65.13 19h8.332C80.356 19 86 24.376 86 31s-5.617 12-12.538 12H65.13c-1.172 0-2.13-.917-2.13-2.038V21.038c0-1.12.958-2.038 2.13-2.038zm2.13 19.898h6.202c4.552 0 8.279-3.516 8.279-7.898s-3.727-7.924-8.28-7.924H67.26v5.86H74.5c1.171 0 2.13.918 2.13 2.038 0 1.122-.959 2.039-2.13 2.039h-7.24v5.885z" fill="url(#paint2_linear)"/><path fill-rule="evenodd" clip-rule="evenodd" d="M51 10.759c0-3.36-2.418-6.148-5.557-6.721V2.084C45.443.938 44.517 0 43.385 0c-1.132 0-2.058.938-2.058 2.084v1.85h-1.878v-1.85C39.449.938 38.522 0 37.39 0c-1.132 0-2.058.938-2.058 2.084v1.85h-5.274C28.926 3.934 28 4.87 28 6.018c0 1.146.926 2.084 2.058 2.084h2.058v14.796h-2.058c-1.132 0-2.058.938-2.058 2.084 0 1.147.926 2.084 2.058 2.084h5.274v1.85c0 1.146.926 2.084 2.058 2.084 1.132 0 2.059-.938 2.059-2.084v-1.85h1.878v1.85c0 1.146.926 2.084 2.058 2.084 1.132 0 2.058-.938 2.058-2.084v-1.954c3.164-.547 5.557-3.36 5.557-6.72 0-1.85-.72-3.518-1.904-4.742A6.784 6.784 0 0051 10.759zm-6.74-2.631c1.44 0 2.624 1.198 2.624 2.657s-1.184 2.657-2.624 2.657h-8.053V8.128h8.053zm-8.053 14.77h8.053a2.635 2.635 0 002.624-2.657c0-1.459-1.184-2.657-2.624-2.657h-8.053v5.314z" fill="url(#paint3_linear)"/><defs><linearGradient id="paint0_linear" x1="19.119" y1="87.987" x2="72.958" y2="87.987" gradientUnits="userSpaceOnUse"><stop stop-color="#FFB300"/><stop offset="1" stop-color="#FF8E37"/></linearGradient><linearGradient id="paint1_linear" x1="-.058" y1="59.008" x2="25.017" y2="59.008" gradientUnits="userSpaceOnUse"><stop stop-color="#5C8BFC"/><stop offset="1" stop-color="#84B0FF"/></linearGradient><linearGradient id="paint2_linear" x1="62.998" y1="42.984" x2="85.984" y2="42.984" gradientUnits="userSpaceOnUse"><stop stop-color="#5C8BFC"/><stop offset="1" stop-color="#84B0FF"/></linearGradient><linearGradient id="paint3_linear" x1="27.974" y1="31.033" x2="51" y2="31.033" gradientUnits="userSpaceOnUse"><stop stop-color="#5C8BFC"/><stop offset="1" stop-color="#84B0FF"/></linearGradient></defs></svg>