<svg width="160" height="160" viewBox="0 0 160 160" fill="none" xmlns="http://www.w3.org/2000/svg">
    <path opacity="0.1" d="M149.84 28.0391C151.783 58.3362 115.282 91.0311 88.9703 99.5655C63.6156 107.803 12.9143 104.735 10.3225 69.0326C9.34903 55.6215 17.084 40.9911 28.5465 34.001C46.9775 22.7721 61.4253 37.7561 79.5926 40.1661C94.0282 42.0802 105.207 35.6306 116.037 26.824C125.057 19.4966 148.38 5.30914 149.84 28.0391Z" fill="#4070FF"/>
    <path opacity="0.1" d="M79.9999 144.179C114.266 144.179 142.045 142.558 142.045 140.557C142.045 138.556 114.266 136.935 79.9999 136.935C45.7335 136.935 17.9551 138.556 17.9551 140.557C17.9551 142.558 45.7335 144.179 79.9999 144.179Z" fill="#4070FF"/>
    <path d="M47.0148 92.5841C53.7831 85.8159 53.7831 74.8423 47.0148 68.0741C40.2466 61.3058 29.2731 61.3058 22.5048 68.0741C15.7366 74.8423 15.7366 85.8159 22.5048 92.5841C29.2731 99.3524 40.2466 99.3524 47.0148 92.5841Z" fill="#4070FF"/>
    <path opacity="0.2" d="M47.0148 92.5841C53.7831 85.8159 53.7831 74.8423 47.0148 68.0741C40.2466 61.3058 29.2731 61.3058 22.5048 68.0741C15.7366 74.8423 15.7366 85.8159 22.5048 92.5841C29.2731 99.3524 40.2466 99.3524 47.0148 92.5841Z" fill="black"/>
    <path opacity="0.2" d="M49.1076 82.7764C50.4591 74.8531 45.1316 67.3344 37.2083 65.9829C29.285 64.6313 21.7663 69.9588 20.4148 77.8821C19.0633 85.8054 24.3908 93.3241 32.3141 94.6756C40.2374 96.0271 47.7561 90.6997 49.1076 82.7764Z" fill="black"/>
    <path d="M49.8032 81.7231C50.3433 74.007 44.5261 67.314 36.81 66.7739C29.0939 66.2338 22.4009 72.051 21.8608 79.7671C21.3207 87.4832 27.1379 94.1761 34.854 94.7163C42.5701 95.2564 49.2631 89.4391 49.8032 81.7231Z" fill="#4070FF"/>
    <path opacity="0.2" d="M49.8032 81.7231C50.3433 74.007 44.5261 67.314 36.81 66.7739C29.0939 66.2338 22.4009 72.051 21.8608 79.7671C21.3207 87.4832 27.1379 94.1761 34.854 94.7163C42.5701 95.2564 49.2631 89.4391 49.8032 81.7231Z" fill="black"/>
    <path d="M40.5152 78.9952L41.4272 82.9472C41.4659 83.0981 41.4728 83.2553 41.4475 83.409C41.4221 83.5627 41.3651 83.7095 41.28 83.84C41.1973 83.9733 41.0887 84.0888 40.9606 84.1794C40.8326 84.2701 40.6876 84.3342 40.5344 84.368L37.0592 85.1712L37.6992 87.952C37.7368 88.1023 37.7426 88.2588 37.7162 88.4114C37.6897 88.5641 37.6316 88.7095 37.5456 88.8384C37.4629 88.9695 37.354 89.0822 37.2257 89.1692C37.0974 89.2562 36.9524 89.3157 36.8 89.344C36.6473 89.3822 36.4885 89.3895 36.3329 89.3653C36.1774 89.3411 36.0282 89.286 35.8944 89.2032C35.761 89.1247 35.6455 89.0193 35.5551 88.8937C35.4647 88.768 35.4016 88.625 35.3696 88.4736L34.7296 85.6608L31.2832 86.4576C31.1347 86.4934 30.9804 86.4989 30.8297 86.4736C30.6791 86.4483 30.535 86.3928 30.4064 86.3104C30.2727 86.2319 30.1567 86.1266 30.0658 86.001C29.9749 85.8754 29.9111 85.7323 29.8784 85.5808C29.842 85.4312 29.8363 85.2759 29.8616 85.1241C29.8869 84.9723 29.9427 84.8272 30.0256 84.6976C30.1047 84.565 30.2103 84.4503 30.3359 84.3605C30.4614 84.2708 30.6042 84.2079 30.7552 84.176L38.8192 82.3168L38.4416 80.6752L30.4 82.528C30.2511 82.5659 30.0961 82.5733 29.9443 82.5497C29.7925 82.526 29.647 82.4718 29.5168 82.3904C29.3832 82.3102 29.2678 82.2031 29.178 82.0758C29.0882 81.9485 29.0259 81.8039 28.9952 81.6512L28.0864 77.7152C28.0164 77.4126 28.0695 77.0947 28.2339 76.8312C28.3983 76.5678 28.6607 76.3804 28.9632 76.3104L32.3936 75.52L31.7536 72.736C31.7165 72.5887 31.7092 72.4356 31.7323 72.2855C31.7554 72.1355 31.8083 71.9916 31.888 71.8624C31.9724 71.7223 32.0857 71.602 32.2203 71.5093C32.355 71.4165 32.5079 71.3536 32.6688 71.3247C32.8168 71.2888 32.9705 71.2833 33.1207 71.3086C33.2709 71.3339 33.4143 71.3895 33.5424 71.472C33.6738 71.5528 33.7875 71.6594 33.8766 71.7853C33.9657 71.9112 34.0283 72.0539 34.0608 72.2048L34.7008 74.9856L38.2208 74.1792C38.373 74.1423 38.5312 74.1366 38.6857 74.1624C38.8403 74.1883 38.988 74.2451 39.12 74.3296C39.2535 74.4063 39.3696 74.5099 39.4611 74.6339C39.5525 74.7578 39.6172 74.8993 39.6512 75.0496C39.7186 75.359 39.6623 75.6826 39.4942 75.9511C39.3262 76.2196 39.0598 76.4117 38.752 76.4864L30.688 78.3456L31.04 79.9776L39.0752 78.1248C39.2274 78.0879 39.3856 78.0822 39.5401 78.1081C39.6947 78.1339 39.8424 78.1907 39.9744 78.2752C40.11 78.3504 40.2283 78.4535 40.3215 78.5775C40.4147 78.7016 40.4807 78.8439 40.5152 78.9952Z" fill="#4070FF"/>
    <g opacity="0.7">
        <path opacity="0.7" d="M40.5152 78.9952L41.4272 82.9472C41.4659 83.0981 41.4728 83.2553 41.4475 83.409C41.4221 83.5627 41.3651 83.7095 41.28 83.84C41.1973 83.9733 41.0887 84.0888 40.9606 84.1794C40.8326 84.2701 40.6876 84.3342 40.5344 84.368L37.0592 85.1712L37.6992 87.952C37.7368 88.1023 37.7426 88.2588 37.7162 88.4114C37.6897 88.5641 37.6316 88.7095 37.5456 88.8384C37.4629 88.9695 37.354 89.0822 37.2257 89.1692C37.0974 89.2562 36.9524 89.3157 36.8 89.344C36.6473 89.3822 36.4885 89.3895 36.3329 89.3653C36.1774 89.3411 36.0282 89.286 35.8944 89.2032C35.761 89.1247 35.6455 89.0193 35.5551 88.8937C35.4647 88.768 35.4016 88.625 35.3696 88.4736L34.7296 85.6608L31.2832 86.4576C31.1347 86.4934 30.9804 86.4989 30.8297 86.4736C30.6791 86.4483 30.535 86.3928 30.4064 86.3104C30.2727 86.2319 30.1567 86.1266 30.0658 86.001C29.9749 85.8754 29.9111 85.7323 29.8784 85.5808C29.842 85.4312 29.8363 85.2759 29.8616 85.1241C29.8869 84.9723 29.9427 84.8272 30.0256 84.6976C30.1047 84.565 30.2103 84.4503 30.3359 84.3605C30.4614 84.2708 30.6042 84.2079 30.7552 84.176L38.8192 82.3168L38.4416 80.6752L30.4 82.528C30.2511 82.5659 30.0961 82.5733 29.9443 82.5497C29.7925 82.526 29.647 82.4718 29.5168 82.3904C29.3832 82.3102 29.2678 82.2031 29.178 82.0758C29.0882 81.9485 29.0259 81.8039 28.9952 81.6512L28.0864 77.7152C28.0164 77.4126 28.0695 77.0947 28.2339 76.8312C28.3983 76.5678 28.6607 76.3804 28.9632 76.3104L32.3936 75.52L31.7536 72.736C31.7165 72.5887 31.7092 72.4356 31.7323 72.2855C31.7554 72.1355 31.8083 71.9916 31.888 71.8624C31.9724 71.7223 32.0857 71.602 32.2203 71.5093C32.355 71.4165 32.5079 71.3536 32.6688 71.3247C32.8168 71.2888 32.9705 71.2833 33.1207 71.3086C33.2709 71.3339 33.4143 71.3895 33.5424 71.472C33.6738 71.5528 33.7875 71.6594 33.8766 71.7853C33.9657 71.9112 34.0283 72.0539 34.0608 72.2048L34.7008 74.9856L38.2208 74.1792C38.373 74.1423 38.5312 74.1366 38.6857 74.1624C38.8403 74.1883 38.988 74.2451 39.12 74.3296C39.2535 74.4063 39.3696 74.5099 39.4611 74.6339C39.5525 74.7578 39.6172 74.8993 39.6512 75.0496C39.7186 75.359 39.6623 75.6826 39.4942 75.9511C39.3262 76.2196 39.0598 76.4117 38.752 76.4864L30.688 78.3456L31.04 79.9776L39.0752 78.1248C39.2274 78.0879 39.3856 78.0822 39.5401 78.1081C39.6947 78.1339 39.8424 78.1907 39.9744 78.2752C40.11 78.3504 40.2283 78.4535 40.3215 78.5775C40.4147 78.7016 40.4807 78.8439 40.5152 78.9952Z" fill="white"/>
    </g>
    <path d="M71.7435 66.5464C76.0555 61.444 75.4146 53.812 70.3121 49.5001C65.2096 45.1882 57.5777 45.829 53.2658 50.9315C48.9538 56.034 49.5947 63.6659 54.6972 67.9779C59.7997 72.2898 67.4316 71.6489 71.7435 66.5464Z" fill="#4070FF"/>
    <path opacity="0.2" d="M71.7435 66.5464C76.0555 61.444 75.4146 53.812 70.3121 49.5001C65.2096 45.1882 57.5777 45.829 53.2658 50.9315C48.9538 56.034 49.5947 63.6659 54.6972 67.9779C59.7997 72.2898 67.4316 71.6489 71.7435 66.5464Z" fill="black"/>
    <path opacity="0.2" d="M70.3336 65.2016C73.9076 60.8782 73.3002 54.476 68.9768 50.9019C64.6534 47.3279 58.2512 47.9353 54.6771 52.2587C51.1031 56.5821 51.7105 62.9843 56.0339 66.5584C60.3573 70.1325 66.7595 69.525 70.3336 65.2016Z" fill="black"/>
    <path d="M70.6402 65.3076C73.9101 61.0291 73.0926 54.9099 68.8141 51.6399C64.5356 48.3699 58.4164 49.1875 55.1464 53.466C51.8764 57.7445 52.694 63.8637 56.9725 67.1337C61.251 70.4037 67.3702 69.5861 70.6402 65.3076Z" fill="#4070FF"/>
    <path opacity="0.2" d="M70.6402 65.3076C73.9101 61.0291 73.0926 54.9099 68.8141 51.6399C64.5356 48.3699 58.4164 49.1875 55.1464 53.466C51.8764 57.7445 52.694 63.8637 56.9725 67.1337C61.251 70.4037 67.3702 69.5861 70.6402 65.3076Z" fill="black"/>
    <path d="M66.5024 59.7314L65.8144 62.477C65.7894 62.5815 65.7429 62.6795 65.6779 62.7649C65.6129 62.8503 65.5307 62.9212 65.4368 62.973C65.3418 63.0308 65.2362 63.0688 65.1262 63.0847C65.0162 63.1007 64.9042 63.0942 64.7968 63.0658L62.4 62.461L61.9136 64.381C61.8888 64.486 61.8425 64.5845 61.7774 64.6705C61.7124 64.7565 61.6302 64.8279 61.536 64.8802C61.4452 64.9366 61.3439 64.9739 61.2383 64.9898C61.1327 65.0058 61.0249 65.0001 60.9216 64.973C60.8151 64.948 60.7147 64.902 60.6262 64.8377C60.5378 64.7735 60.463 64.6922 60.4064 64.5986C60.3486 64.5073 60.3103 64.405 60.2938 64.2982C60.2772 64.1914 60.2829 64.0824 60.3104 63.9778L60.8 62.0258L58.4 61.4402C58.296 61.4154 58.1981 61.3696 58.1123 61.3058C58.0265 61.242 57.9545 61.1615 57.9008 61.069C57.8429 60.9783 57.8045 60.8766 57.788 60.7703C57.7715 60.664 57.7772 60.5554 57.8048 60.4514C57.8287 60.3462 57.874 60.2471 57.9378 60.1601C58.0017 60.0731 58.0827 60.0002 58.176 59.9458C58.268 59.8897 58.3705 59.8528 58.4772 59.8374C58.5839 59.822 58.6926 59.8284 58.7968 59.8562L64.3968 61.261L64.6848 60.1218L59.1008 58.7202C58.9962 58.6968 58.8976 58.6521 58.8111 58.5887C58.7247 58.5254 58.6522 58.4449 58.5984 58.3522C58.5404 58.261 58.5024 58.1585 58.487 58.0515C58.4715 57.9444 58.479 57.8354 58.5088 57.7314L59.1936 54.9954C59.2193 54.8912 59.2655 54.793 59.3295 54.7067C59.3934 54.6204 59.4738 54.5476 59.5661 54.4925C59.6583 54.4375 59.7606 54.4013 59.8669 54.386C59.9732 54.3707 60.0815 54.3766 60.1856 54.4034L62.56 54.9986L63.0464 53.0786C63.0699 52.9703 63.1156 52.8679 63.1806 52.7781C63.2456 52.6883 63.3285 52.6129 63.4241 52.5566C63.5197 52.5004 63.6259 52.4646 63.736 52.4515C63.8462 52.4383 63.9578 52.4481 64.064 52.4802C64.1671 52.5041 64.2641 52.5492 64.349 52.6125C64.4338 52.6759 64.5046 52.7561 64.5568 52.8482C64.6134 52.9395 64.6508 53.0413 64.6667 53.1475C64.6827 53.2537 64.6768 53.362 64.6496 53.4658L64.1632 55.3858L66.5952 55.997C66.7018 56.0225 66.8022 56.0694 66.8903 56.1349C66.9783 56.2003 67.0521 56.283 67.1072 56.3778C67.1655 56.4677 67.2047 56.5687 67.2223 56.6744C67.2399 56.7801 67.2356 56.8883 67.2096 56.9922C67.1828 57.0988 67.1351 57.199 67.0692 57.287C67.0032 57.3749 66.9204 57.4488 66.8256 57.5042C66.7311 57.563 66.6255 57.6019 66.5155 57.6184C66.4054 57.6349 66.2931 57.6287 66.1856 57.6002L60.5824 56.1954L60.3008 57.3282L65.8816 58.7266C65.9882 58.7521 66.0886 58.799 66.1767 58.8645C66.2647 58.9299 66.3385 59.0126 66.3936 59.1074C66.4552 59.1976 66.4968 59.3 66.5156 59.4077C66.5344 59.5153 66.5298 59.6257 66.5024 59.7314Z" fill="#4070FF"/>
    <g opacity="0.7">
        <path opacity="0.7" d="M66.5024 59.7314L65.8144 62.477C65.7894 62.5815 65.7429 62.6795 65.6779 62.7649C65.6129 62.8503 65.5307 62.9212 65.4368 62.973C65.3418 63.0308 65.2362 63.0688 65.1262 63.0847C65.0162 63.1007 64.9042 63.0942 64.7968 63.0658L62.4 62.461L61.9136 64.381C61.8888 64.486 61.8425 64.5845 61.7774 64.6705C61.7124 64.7565 61.6302 64.8279 61.536 64.8802C61.4452 64.9366 61.3439 64.9739 61.2383 64.9898C61.1327 65.0058 61.0249 65.0001 60.9216 64.973C60.8151 64.948 60.7147 64.902 60.6262 64.8377C60.5378 64.7735 60.463 64.6922 60.4064 64.5986C60.3486 64.5073 60.3103 64.405 60.2938 64.2982C60.2772 64.1914 60.2829 64.0824 60.3104 63.9778L60.8 62.0258L58.4 61.4402C58.296 61.4154 58.1981 61.3696 58.1123 61.3058C58.0265 61.242 57.9545 61.1615 57.9008 61.069C57.8429 60.9783 57.8045 60.8766 57.788 60.7703C57.7715 60.664 57.7772 60.5554 57.8048 60.4514C57.8287 60.3462 57.874 60.2471 57.9378 60.1601C58.0017 60.0731 58.0827 60.0002 58.176 59.9458C58.268 59.8897 58.3705 59.8528 58.4772 59.8374C58.5839 59.822 58.6926 59.8284 58.7968 59.8562L64.3968 61.261L64.6848 60.1218L59.1008 58.7202C58.9962 58.6968 58.8976 58.6521 58.8111 58.5887C58.7247 58.5254 58.6522 58.4449 58.5984 58.3522C58.5404 58.261 58.5024 58.1585 58.487 58.0515C58.4715 57.9444 58.479 57.8354 58.5088 57.7314L59.1936 54.9954C59.2193 54.8912 59.2655 54.793 59.3295 54.7067C59.3934 54.6204 59.4738 54.5476 59.5661 54.4925C59.6583 54.4375 59.7606 54.4013 59.8669 54.386C59.9732 54.3707 60.0815 54.3766 60.1856 54.4034L62.56 54.9986L63.0464 53.0786C63.0699 52.9703 63.1156 52.8679 63.1806 52.7781C63.2456 52.6883 63.3285 52.6129 63.4241 52.5566C63.5197 52.5004 63.6259 52.4646 63.736 52.4515C63.8462 52.4383 63.9578 52.4481 64.064 52.4802C64.1671 52.5041 64.2641 52.5492 64.349 52.6125C64.4338 52.6759 64.5046 52.7561 64.5568 52.8482C64.6134 52.9395 64.6508 53.0413 64.6667 53.1475C64.6827 53.2537 64.6768 53.362 64.6496 53.4658L64.1632 55.3858L66.5952 55.997C66.7018 56.0225 66.8022 56.0694 66.8903 56.1349C66.9783 56.2003 67.0521 56.283 67.1072 56.3778C67.1655 56.4677 67.2047 56.5687 67.2223 56.6744C67.2399 56.7801 67.2356 56.8883 67.2096 56.9922C67.1828 57.0988 67.1351 57.199 67.0692 57.287C67.0032 57.3749 66.9204 57.4488 66.8256 57.5042C66.7311 57.563 66.6255 57.6019 66.5155 57.6184C66.4054 57.6349 66.2931 57.6287 66.1856 57.6002L60.5824 56.1954L60.3008 57.3282L65.8816 58.7266C65.9882 58.7521 66.0886 58.799 66.1767 58.8645C66.2647 58.9299 66.3385 59.0126 66.3936 59.1074C66.4552 59.1976 66.4968 59.3 66.5156 59.4077C66.5344 59.5153 66.5298 59.6257 66.5024 59.7314Z" fill="white"/>
    </g>
    <path d="M33.0431 131.83H32.7231V135.443H33.0431V131.83Z" fill="#4070FF"/>
    <path opacity="0.1" d="M33.0431 131.83H32.7231V135.443H33.0431V131.83Z" fill="black"/>
    <path d="M127.277 103.209H126.957V108.16H127.277V103.209Z" fill="#4070FF"/>
    <path d="M127.277 110.755H126.957V113.44H127.277V110.755Z" fill="#4070FF"/>
    <path opacity="0.1" d="M127.277 103.209H126.957V108.16H127.277V103.209Z" fill="black"/>
    <path opacity="0.1" d="M127.277 110.755H126.957V113.44H127.277V110.755Z" fill="black"/>
    <path d="M121.344 81.7407H38.6591C35.9993 81.7407 33.8431 83.8969 33.8431 86.5567V134.957C33.8431 137.617 35.9993 139.773 38.6591 139.773H121.344C124.004 139.773 126.16 137.617 126.16 134.957V86.5567C126.16 83.8969 124.004 81.7407 121.344 81.7407Z" fill="#4070FF"/>
    <path opacity="0.05" d="M121.344 81.7407H38.6591C35.9993 81.7407 33.8431 83.8969 33.8431 86.5567V134.957C33.8431 137.617 35.9993 139.773 38.6591 139.773H121.344C124.004 139.773 126.16 137.617 126.16 134.957V86.5567C126.16 83.8969 124.004 81.7407 121.344 81.7407Z" fill="black"/>
    <path opacity="0.2" d="M111.216 101.949C114.516 101.949 117.19 99.274 117.19 95.9744C117.19 92.6748 114.516 90 111.216 90C107.916 90 105.242 92.6748 105.242 95.9744C105.242 99.274 107.916 101.949 111.216 101.949Z" fill="black"/>
    <path d="M103.504 101.949C106.804 101.949 109.478 99.274 109.478 95.9744C109.478 92.6748 106.804 90 103.504 90C100.204 90 97.5295 92.6748 97.5295 95.9744C97.5295 99.274 100.204 101.949 103.504 101.949Z" fill="#4070FF"/>
    <path opacity="0.3" d="M103.504 101.949C106.804 101.949 109.478 99.274 109.478 95.9744C109.478 92.6748 106.804 90 103.504 90C100.204 90 97.5295 92.6748 97.5295 95.9744C97.5295 99.274 100.204 101.949 103.504 101.949Z" fill="white"/>
    <path d="M59.1168 101.949H44.8863C43.7411 101.949 42.8127 102.877 42.8127 104.022V113.325C42.8127 114.47 43.7411 115.398 44.8863 115.398H59.1168C60.262 115.398 61.1903 114.47 61.1903 113.325V104.022C61.1903 102.877 60.262 101.949 59.1168 101.949Z" fill="#4070FF"/>
    <path opacity="0.3" d="M59.1168 101.949H44.8863C43.7411 101.949 42.8127 102.877 42.8127 104.022V113.325C42.8127 114.47 43.7411 115.398 44.8863 115.398H59.1168C60.262 115.398 61.1903 114.47 61.1903 113.325V104.022C61.1903 102.877 60.262 101.949 59.1168 101.949Z" fill="white"/>
    <path d="M68.9631 88.5342H44.2815C43.4704 88.5342 42.8127 89.1911 42.8127 90.0014C42.8127 90.8117 43.4704 91.4686 44.2815 91.4686H68.9631C69.7743 91.4686 70.4319 90.8117 70.4319 90.0014C70.4319 89.1911 69.7743 88.5342 68.9631 88.5342Z" fill="#4070FF"/>
    <path opacity="0.3" d="M68.9631 88.5342H44.2815C43.4704 88.5342 42.8127 89.1911 42.8127 90.0014C42.8127 90.8117 43.4704 91.4686 44.2815 91.4686H68.9631C69.7743 91.4686 70.4319 90.8117 70.4319 90.0014C70.4319 89.1911 69.7743 88.5342 68.9631 88.5342Z" fill="white"/>
    <path d="M56.0672 122.074H44.9663C43.7769 122.074 42.8127 123.038 42.8127 124.227V126.24C42.8127 127.43 43.7769 128.394 44.9663 128.394H56.0672C57.2566 128.394 58.2207 127.43 58.2207 126.24V124.227C58.2207 123.038 57.2566 122.074 56.0672 122.074Z" fill="#4070FF"/>
    <path opacity="0.3" d="M56.0672 122.074H44.9663C43.7769 122.074 42.8127 123.038 42.8127 124.227V126.24C42.8127 127.43 43.7769 128.394 44.9663 128.394H56.0672C57.2566 128.394 58.2207 127.43 58.2207 126.24V124.227C58.2207 123.038 57.2566 122.074 56.0672 122.074Z" fill="white"/>
    <path d="M75.7216 122.074H64.6208C63.4314 122.074 62.4672 123.038 62.4672 124.227V126.24C62.4672 127.43 63.4314 128.394 64.6208 128.394H75.7216C76.911 128.394 77.8752 127.43 77.8752 126.24V124.227C77.8752 123.038 76.911 122.074 75.7216 122.074Z" fill="#4070FF"/>
    <path opacity="0.3" d="M75.7216 122.074H64.6208C63.4314 122.074 62.4672 123.038 62.4672 124.227V126.24C62.4672 127.43 63.4314 128.394 64.6208 128.394H75.7216C76.911 128.394 77.8752 127.43 77.8752 126.24V124.227C77.8752 123.038 76.911 122.074 75.7216 122.074Z" fill="white"/>
    <path d="M95.3792 122.074H84.2783C83.0889 122.074 82.1248 123.038 82.1248 124.227V126.24C82.1248 127.43 83.0889 128.394 84.2783 128.394H95.3792C96.5686 128.394 97.5328 127.43 97.5328 126.24V124.227C97.5328 123.038 96.5686 122.074 95.3792 122.074Z" fill="#4070FF"/>
    <path opacity="0.3" d="M95.3792 122.074H84.2783C83.0889 122.074 82.1248 123.038 82.1248 124.227V126.24C82.1248 127.43 83.0889 128.394 84.2783 128.394H95.3792C96.5686 128.394 97.5328 127.43 97.5328 126.24V124.227C97.5328 123.038 96.5686 122.074 95.3792 122.074Z" fill="white"/>
    <path d="M115.034 122.074H103.933C102.743 122.074 101.779 123.038 101.779 124.227V126.24C101.779 127.43 102.743 128.394 103.933 128.394H115.034C116.223 128.394 117.187 127.43 117.187 126.24V124.227C117.187 123.038 116.223 122.074 115.034 122.074Z" fill="#4070FF"/>
    <path opacity="0.3" d="M115.034 122.074H103.933C102.743 122.074 101.779 123.038 101.779 124.227V126.24C101.779 127.43 102.743 128.394 103.933 128.394H115.034C116.223 128.394 117.187 127.43 117.187 126.24V124.227C117.187 123.038 116.223 122.074 115.034 122.074Z" fill="white"/>
    <path d="M93.76 60.7419C93.0016 62.8827 92.16 64.9531 91.2672 67.0235C90.3636 69.1289 89.3268 71.1747 88.1632 73.1483C88.0064 73.4011 87.8432 73.6539 87.6736 73.9067L87.5488 74.0955L87.3792 74.3291C87.264 74.4763 87.1552 74.6043 87.0592 74.7291C86.656 75.1786 86.2287 75.6059 85.7792 76.0091C84.9248 76.7995 84.0544 77.5163 83.1744 78.2235C81.408 79.6251 79.6032 80.9371 77.7344 82.1819L76.6176 80.7963L81.3216 76.1595C82.0992 75.3883 82.8704 74.6107 83.5904 73.8331C83.9456 73.4459 84.2912 73.0491 84.576 72.6843C84.6464 72.5947 84.7072 72.5051 84.7616 72.4283L84.8288 72.3195L84.9216 72.1531C85.0464 71.9323 85.1776 71.7179 85.2992 71.4907C86.2784 69.6507 87.1424 67.6507 87.9744 65.6219C88.8064 63.5931 89.6064 61.5483 90.3744 59.5195L93.76 60.7419Z" fill="#E4897B"/>
    <path d="M94.6592 59.1998C95.3856 61.3246 91.1168 67.5742 91.1168 67.5742L87.04 65.3054C87.7347 63.3554 88.5557 61.4527 89.4976 59.6094C90.9248 56.9086 93.8624 56.867 94.6592 59.1998Z" fill="#4070FF"/>
    <path opacity="0.7" d="M94.6592 59.1998C95.3856 61.3246 91.1168 67.5742 91.1168 67.5742L87.04 65.3054C87.7347 63.3554 88.5557 61.4527 89.4976 59.6094C90.9248 56.9086 93.8624 56.867 94.6592 59.1998Z" fill="white"/>
    <path opacity="0.31" d="M94.72 59.4654C93.8048 59.027 92.752 59.395 91.6416 61.1486C90.5312 62.9022 89.5872 65.8302 89.4848 66.6654L91.12 67.571C91.12 67.571 95.0592 61.7982 94.72 59.4654Z" fill="#4070FF"/>
    <path d="M91.8976 57.5739C91.8976 57.5739 88.8512 64.7387 91.0464 78.0795H103.734C103.891 76.1307 102.995 66.6299 105.194 57.4523C103.797 57.1804 102.384 57.0008 100.963 56.9147C99.1674 56.8123 97.3671 56.8123 95.5712 56.9147C94.3317 57.0406 93.1036 57.261 91.8976 57.5739Z" fill="#4070FF"/>
    <path opacity="0.7" d="M91.8976 57.5739C91.8976 57.5739 88.8512 64.7387 91.0464 78.0795H103.734C103.891 76.1307 102.995 66.6299 105.194 57.4523C103.797 57.1804 102.384 57.0008 100.963 56.9147C99.1674 56.8123 97.3671 56.8123 95.5712 56.9147C94.3317 57.0406 93.1036 57.261 91.8976 57.5739Z" fill="white"/>
    <path d="M108.227 134.921L106.349 136.605L102.768 132.877L104.65 131.193L108.227 134.921Z" fill="#E4897B"/>
    <path d="M101.786 138.422H99.4144L99.1072 132.931H101.478L101.786 138.422Z" fill="#E4897B"/>
    <path d="M102.771 132.877L104.614 134.8L106.496 133.113L104.653 131.193L102.771 132.877Z" fill="#CE6F64"/>
    <path d="M101.478 132.931H99.1072L99.2672 135.763H101.638L101.478 132.931Z" fill="#CE6F64"/>
    <path d="M91.0464 78.0799C91.0464 78.0799 88.5472 95.3791 87.696 104.794C87.0112 112.349 103.347 134.874 103.347 134.874L106.506 131.901C106.506 131.901 94.576 111.706 95.4944 103.296C96.384 95.1519 99.3984 78.0703 99.3984 78.0703L91.0464 78.0799Z" fill="#4070FF"/>
    <path opacity="0.7" d="M91.0464 78.0799C91.0464 78.0799 88.5472 95.3791 87.696 104.794C87.0112 112.349 103.347 134.874 103.347 134.874L106.506 131.901C106.506 131.901 94.576 111.706 95.4944 103.296C96.384 95.1519 99.3984 78.0703 99.3984 78.0703L91.0464 78.0799Z" fill="black"/>
    <path opacity="0.2" d="M95.4944 103.305C95.952 99.1101 96.976 92.5373 97.856 87.1549C97.3952 86.2525 96.1024 84.4253 96.1024 84.4253C94.944 88.4285 92.4256 103.52 96.0192 123.901C99.7632 129.936 103.347 134.883 103.347 134.883L103.837 127.101C100.378 120.592 94.8576 109.12 95.4944 103.305Z" fill="black"/>
    <path d="M95.5584 78.0796C95.5584 78.0796 95.3344 96.2076 95.7184 103.001C96.1376 110.438 98.2496 135.081 98.2496 135.081H102.595C102.595 135.081 102.464 111.04 102.72 103.68C103.005 95.6796 103.741 78.0796 103.741 78.0796H95.5584Z" fill="#4070FF"/>
    <path opacity="0.7" d="M95.5584 78.0796C95.5584 78.0796 95.3344 96.2076 95.7184 103.001C96.1376 110.438 98.2496 135.081 98.2496 135.081H102.595C102.595 135.081 102.464 111.04 102.72 103.68C103.005 95.6796 103.741 78.0796 103.741 78.0796H95.5584Z" fill="black"/>
    <path d="M99.2896 138.151H101.955C102 138.149 102.043 138.165 102.076 138.194C102.109 138.224 102.129 138.266 102.131 138.311L102.262 140.419C102.263 140.474 102.252 140.529 102.232 140.58C102.211 140.631 102.181 140.677 102.142 140.717C102.103 140.756 102.057 140.787 102.007 140.809C101.956 140.83 101.901 140.841 101.846 140.842C100.918 140.826 100.474 140.771 99.3024 140.771C98.5824 140.771 95.5168 140.848 94.5216 140.848C93.5264 140.848 93.5616 139.863 93.9744 139.773C95.8656 139.373 98.2112 138.813 98.8832 138.295C98.9991 138.203 99.142 138.152 99.2896 138.151Z" fill="#263238"/>
    <path d="M105.83 135.93L108.115 134.39C108.153 134.361 108.199 134.345 108.246 134.345C108.294 134.345 108.34 134.361 108.378 134.39L110.125 136.154C110.159 136.192 110.184 136.238 110.199 136.288C110.213 136.337 110.216 136.389 110.208 136.44C110.2 136.491 110.181 136.54 110.153 136.583C110.124 136.626 110.086 136.661 110.042 136.688C108.582 137.811 107.53 138.659 106.698 139.594C105.738 140.685 105.219 140.842 102.979 140.842C101.942 140.842 101.357 139.968 101.779 139.834C105.51 138.653 104.512 138.138 105.421 136.406C105.516 136.216 105.656 136.052 105.83 135.93Z" fill="#263238"/>
    <path d="M77.1552 80.499L74.6816 80.5854L75.2 82.5246C75.2 82.5246 77.7856 82.755 78.016 81.9742L77.1552 80.499Z" fill="#E4897B"/>
    <path d="M72.0128 81.7406L73.7472 82.7518L75.2 82.5246L74.6816 80.5854L72.0128 81.7406Z" fill="#E4897B"/>
    <path opacity="0.31" d="M102.358 59.7184C102.096 61.2288 102.445 64.8384 103.741 69.0176C103.842 65.437 104.259 61.8723 104.986 58.3648V58.3456C104.154 58.2624 102.611 58.3008 102.358 59.7184Z" fill="#4070FF"/>
    <path d="M100.64 50.8413C100.24 52.5757 99.7888 55.7565 100.96 56.9213C100.96 56.9213 100.454 58.3581 97.2288 58.3581C93.6832 58.3581 95.568 56.9213 95.568 56.9213C97.52 56.4605 97.52 55.0237 97.2288 53.6765L100.64 50.8413Z" fill="#E4897B"/>
    <path d="M97.1392 58.3516L96.1792 59.3724L96.6496 60.358L97.4144 60.3932L98.0672 59.4524L97.1392 58.3516Z" fill="#4070FF"/>
    <path d="M99.2513 51.9966L97.2321 53.667C97.3048 53.9825 97.3497 54.3037 97.3665 54.627C98.1089 54.5214 99.1521 53.7086 99.2577 52.9342C99.3142 52.624 99.312 52.306 99.2513 51.9966Z" fill="#CE6F64"/>
    <path d="M96.432 44.9597C95.2192 45.3725 94.2496 48.5885 95.664 49.4397C97.0784 50.2909 98.736 44.1757 96.432 44.9597Z" fill="#263238"/>
    <path d="M101.398 49.0238C100.675 51.2638 100.368 52.6174 98.9088 53.5358C98.4381 53.8384 97.8936 54.0064 97.3342 54.0219C96.7748 54.0373 96.2219 53.8995 95.7352 53.6234C95.2485 53.3472 94.8466 52.9433 94.5729 52.4552C94.2992 51.9671 94.1642 51.4135 94.1824 50.8542C94.2112 48.7006 95.3888 45.3854 97.8688 44.9694C98.4033 44.8662 98.9555 44.9053 99.4702 45.0827C99.9848 45.26 100.444 45.5695 100.801 45.9801C101.159 46.3907 101.402 46.8879 101.507 47.4221C101.612 47.9563 101.574 48.5086 101.398 49.0238Z" fill="#E4897B"/>
    <path d="M103.19 45.2798C102.467 47.027 104.15 45.5678 103.715 47.6414C103.434 48.9918 100.995 52.227 100.054 51.9326C99.1136 51.6382 99.1232 49.3438 100.323 47.7214C101.014 46.7902 99.52 45.7342 96.1632 45.8462C92.8064 45.9582 90.7776 44.0702 95.2384 42.6846C95.2384 42.6846 93.5936 43.6446 94.5696 43.9646C95.952 44.4798 104.64 41.779 103.19 45.2798Z" fill="#263238"/>
    <path d="M102.55 46.08C102.515 46.08 103.302 45.8848 103.722 44.48C103.722 44.5024 103.584 46.5728 102.55 46.08Z" fill="#263238"/>
    <path d="M96.2688 42.9951C94.2048 43.6351 95.0592 44.3551 95.9136 44.5343L97.872 43.7663C94.896 44.1599 96.2688 42.9951 96.2688 42.9951Z" fill="#263238"/>
    <path d="M101.795 51.7597C101.366 52.1767 100.794 52.4138 100.195 52.4221C99.4048 52.4221 99.2352 51.6733 99.6608 51.0461C100.038 50.4829 100.902 49.8045 101.6 50.1085C102.298 50.4125 102.32 51.2445 101.795 51.7597Z" fill="#E4897B"/>
    <path d="M97.7536 48.8989C97.7056 49.0845 97.568 49.2189 97.4336 49.1869C97.2992 49.1549 97.2512 48.9853 97.2992 48.7997C97.3472 48.6141 97.4848 48.4797 97.6192 48.5149C97.7536 48.5501 97.8016 48.7133 97.7536 48.8989Z" fill="#263238"/>
    <path d="M95.6416 48.4351C95.5936 48.6207 95.456 48.7551 95.3216 48.7231C95.1872 48.6911 95.1392 48.5247 95.1872 48.3391C95.2352 48.1535 95.3696 48.0191 95.5072 48.0511C95.6448 48.0831 95.68 48.2495 95.6416 48.4351Z" fill="#263238"/>
    <path d="M96.288 48.6748C95.9242 49.1929 95.4939 49.6609 95.0081 50.0668C95.1149 50.1856 95.2465 50.2795 95.3936 50.3419C95.5406 50.4044 95.6996 50.4339 95.8593 50.4284L96.288 48.6748Z" fill="#DE5753"/>
    <path d="M96.64 51.104C96.5075 51.1039 96.3755 51.0888 96.2464 51.0592C96.2322 51.0554 96.22 51.0464 96.2122 51.0339C96.2045 51.0214 96.2018 51.0064 96.2048 50.992C96.2086 50.9778 96.2176 50.9656 96.2301 50.9579C96.2426 50.9501 96.2576 50.9475 96.272 50.9504C96.5076 51.0029 96.7521 51.0014 96.9871 50.9459C97.222 50.8905 97.4414 50.7827 97.6288 50.6304C97.6395 50.62 97.6539 50.6143 97.6688 50.6143C97.6837 50.6143 97.698 50.62 97.7088 50.6304C97.7191 50.6411 97.7249 50.6555 97.7249 50.6704C97.7249 50.6853 97.7191 50.6997 97.7088 50.7104C97.4116 50.9662 97.0321 51.106 96.64 51.104Z" fill="#263238"/>
    <path d="M98.5921 48.3644C98.5702 48.3648 98.5488 48.3586 98.5305 48.3466C98.5122 48.3346 98.498 48.3174 98.4897 48.2972C98.4371 48.1688 98.3544 48.055 98.2486 47.9653C98.1428 47.8757 98.0169 47.8128 97.8817 47.782C97.8669 47.7801 97.8527 47.7752 97.8398 47.7676C97.8269 47.7601 97.8157 47.7501 97.8068 47.7382C97.7978 47.7263 97.7914 47.7127 97.7877 47.6982C97.7841 47.6838 97.7834 47.6687 97.7857 47.654C97.7904 47.6245 97.8064 47.5981 97.8303 47.5802C97.8542 47.5623 97.884 47.5543 97.9137 47.558C98.086 47.5931 98.2473 47.6698 98.3833 47.7813C98.5194 47.8929 98.6262 48.0359 98.6945 48.198C98.7008 48.2114 98.7043 48.2259 98.7048 48.2407C98.7053 48.2555 98.7027 48.2702 98.6973 48.284C98.692 48.2978 98.6838 48.3103 98.6734 48.3209C98.663 48.3314 98.6506 48.3397 98.6369 48.3452C98.6235 48.3548 98.6082 48.3614 98.5921 48.3644Z" fill="#263238"/>
    <path d="M94.928 47.5164C94.9023 47.5162 94.8775 47.5071 94.8576 47.4908C94.8346 47.4714 94.8201 47.4439 94.8171 47.414C94.8141 47.3841 94.8229 47.3543 94.8416 47.3308C94.9544 47.1905 95.0978 47.078 95.261 47.002C95.4241 46.926 95.6025 46.8885 95.7824 46.8924C95.7972 46.8936 95.8115 46.8977 95.8246 46.9045C95.8378 46.9112 95.8494 46.9205 95.859 46.9318C95.8685 46.9432 95.8757 46.9562 95.8801 46.9703C95.8845 46.9844 95.8862 46.9992 95.8848 47.014C95.8841 47.0289 95.8802 47.0434 95.8736 47.0568C95.867 47.0701 95.8577 47.082 95.8463 47.0916C95.8349 47.1012 95.8216 47.1083 95.8073 47.1126C95.793 47.1169 95.778 47.1181 95.7632 47.1164C95.6193 47.1149 95.477 47.1464 95.3472 47.2085C95.2173 47.2706 95.1035 47.3617 95.0144 47.4748C95.0042 47.4878 94.991 47.4984 94.9761 47.5056C94.9611 47.5128 94.9447 47.5165 94.928 47.5164Z" fill="#263238"/>
    <path d="M105.808 59.0879C106.058 59.4751 106.266 59.8175 106.477 60.1887C106.688 60.5599 106.89 60.9183 107.088 61.2895C107.478 62.0287 107.846 62.7839 108.182 63.5551C108.887 65.1339 109.416 66.7854 109.76 68.4799L109.792 68.6431L109.808 68.7231L109.83 68.8575C109.858 69.0365 109.872 69.2172 109.872 69.3983C109.869 69.7015 109.837 70.0036 109.776 70.3007C109.668 70.7907 109.511 71.2687 109.309 71.7279C108.95 72.5325 108.521 73.3044 108.029 74.0351C107.098 75.4245 106.04 76.724 104.867 77.9167L103.475 76.7999C104.25 75.4495 105.021 74.0479 105.667 72.6751C105.985 72.0186 106.257 71.3406 106.48 70.6463C106.571 70.3567 106.633 70.0587 106.666 69.7567C106.677 69.6578 106.677 69.558 106.666 69.4591C106.666 69.4303 106.666 69.4047 106.646 69.4015C106.627 69.3983 106.646 69.4015 106.646 69.3855L106.627 69.3215L106.589 69.1903C106.387 68.4845 106.146 67.7901 105.869 67.1103C105.587 66.4159 105.274 65.7247 104.944 65.0367C104.614 64.3487 104.259 63.6703 103.894 62.9919C103.715 62.6527 103.526 62.3167 103.338 61.9839L102.774 61.0239L105.808 59.0879Z" fill="#E4897B"/>
    <path d="M98.4512 138.56C98.2915 138.576 98.1316 138.531 98.0032 138.435C97.9671 138.395 97.9416 138.346 97.9293 138.294C97.917 138.241 97.9182 138.186 97.9328 138.134C97.9399 138.099 97.9556 138.067 97.9785 138.039C98.0014 138.012 98.0308 137.991 98.064 137.977C98.3552 137.862 99.024 138.323 99.1008 138.374C99.1103 138.38 99.1176 138.389 99.1217 138.399C99.1257 138.41 99.1263 138.421 99.1232 138.432C99.1216 138.443 99.1167 138.453 99.1093 138.461C99.1019 138.469 99.0922 138.474 99.0816 138.477C98.875 138.526 98.6637 138.554 98.4512 138.56ZM98.1728 138.07C98.1506 138.067 98.1279 138.067 98.1056 138.07C98.0893 138.076 98.075 138.086 98.0643 138.1C98.0535 138.114 98.0468 138.13 98.0448 138.147C98.0332 138.181 98.0306 138.217 98.0374 138.251C98.0441 138.286 98.0599 138.319 98.0832 138.345C98.192 138.454 98.5024 138.467 98.928 138.384C98.7017 138.227 98.4441 138.121 98.1728 138.073V138.07Z" fill="white"/>
    <path d="M99.0688 138.48H99.04C98.8032 138.339 98.4512 137.84 98.5056 137.584C98.515 137.537 98.5401 137.495 98.5767 137.464C98.6134 137.433 98.6594 137.416 98.7072 137.414C98.7494 137.409 98.7923 137.413 98.8327 137.426C98.8732 137.44 98.9101 137.462 98.9408 137.491C99.1808 137.725 99.1264 138.406 99.1264 138.435C99.1252 138.445 99.1217 138.454 99.1161 138.462C99.1105 138.47 99.1031 138.476 99.0944 138.48H99.0688ZM98.7488 137.52H98.7232C98.6432 137.52 98.624 137.568 98.6176 137.6C98.5824 137.77 98.816 138.144 99.0208 138.317C99.0503 138.057 98.9965 137.795 98.8672 137.568C98.8511 137.552 98.8321 137.54 98.8112 137.532C98.7904 137.524 98.7681 137.52 98.7456 137.52H98.7488Z" fill="white"/>
    <path d="M104.294 137.216C104.235 137.217 104.176 137.207 104.122 137.184C104.079 137.167 104.042 137.14 104.012 137.105C103.983 137.071 103.962 137.03 103.952 136.985C103.944 136.958 103.943 136.93 103.949 136.902C103.955 136.875 103.968 136.849 103.987 136.828C104.202 136.569 105.325 136.646 105.453 136.656C105.465 136.656 105.476 136.66 105.485 136.668C105.495 136.675 105.501 136.686 105.504 136.697C105.507 136.709 105.505 136.721 105.501 136.732C105.496 136.743 105.488 136.752 105.478 136.758C105.121 136.994 104.717 137.15 104.294 137.216ZM104.973 136.748C104.579 136.748 104.166 136.787 104.074 136.899C104.068 136.908 104.065 136.917 104.065 136.928C104.065 136.938 104.068 136.948 104.074 136.956C104.079 136.984 104.091 137.01 104.109 137.032C104.127 137.054 104.15 137.071 104.176 137.081C104.355 137.155 104.758 137.033 105.267 136.761L104.973 136.748Z" fill="white"/>
    <path d="M105.45 136.768C105.13 136.768 104.41 136.522 104.355 136.266C104.355 136.202 104.355 136.112 104.509 136.038C105.059 135.779 105.485 136.65 105.504 136.678C105.508 136.687 105.51 136.697 105.51 136.707C105.51 136.717 105.508 136.727 105.504 136.736C105.499 136.746 105.491 136.754 105.481 136.76C105.472 136.765 105.461 136.768 105.45 136.768ZM104.71 136.106C104.656 136.105 104.602 136.117 104.554 136.141C104.486 136.173 104.454 136.208 104.461 136.24C104.493 136.39 105.011 136.602 105.35 136.646C105.248 136.474 105.002 136.106 104.71 136.106Z" fill="white"/>
    <path d="M104.109 76.2815L101.76 75.8687L102.973 78.6047C102.973 78.6047 105.126 78.6047 105.03 77.4783L104.109 76.2815Z" fill="#E4897B"/>
    <path d="M99.984 77.2447L101.094 79.4527L102.96 78.6047L101.747 75.8687L99.984 77.2447Z" fill="#E4897B"/>
    <path d="M106.698 131.731L103.155 135.065L102.013 133.84L106.067 130.147L106.698 131.731Z" fill="#4070FF"/>
    <path opacity="0.6" d="M106.698 131.731L103.155 135.065L102.013 133.84L106.067 130.147L106.698 131.731Z" fill="white"/>
    <path d="M102.768 135.081H98.0737L97.8145 133.43L102.995 133.689L102.768 135.081Z" fill="#4070FF"/>
    <path opacity="0.6" d="M102.768 135.081H98.0737L97.8145 133.43L102.995 133.689L102.768 135.081Z" fill="white"/>
    <path d="M105.194 57.4526C107.434 57.7726 109.728 65.555 109.728 65.555L104.928 68.2174C104.928 68.2174 102.979 64.5182 102.048 61.7726C101.072 58.8958 102.797 57.1006 105.194 57.4526Z" fill="#4070FF"/>
    <path opacity="0.7" d="M105.194 57.4526C107.434 57.7726 109.728 65.555 109.728 65.555L104.928 68.2174C104.928 68.2174 102.979 64.5182 102.048 61.7726C101.072 58.8958 102.797 57.1006 105.194 57.4526Z" fill="white"/>
    <path opacity="0.2" d="M97.1392 58.3516L96.1792 59.3724L96.6496 60.358L97.4144 60.3932L98.0672 59.4524L97.1392 58.3516Z" fill="black"/>
    <path d="M96.7328 60.1821C96.7328 60.1821 94.912 67.7245 94.8416 69.2925C94.7424 71.4493 95.6448 75.1325 95.6448 75.1325C95.6448 75.1325 96.9248 72.0701 97.1872 69.2253C97.4496 66.3805 97.2544 61.7789 97.3728 60.1821H96.7328Z" fill="#4070FF"/>
    <path opacity="0.2" d="M96.7328 60.1821C96.7328 60.1821 94.912 67.7245 94.8416 69.2925C94.7424 71.4493 95.6448 75.1325 95.6448 75.1325C95.6448 75.1325 96.9248 72.0701 97.1872 69.2253C97.4496 66.3805 97.2544 61.7789 97.3728 60.1821H96.7328Z" fill="black"/>
    <path d="M97.1392 58.3518C97.5039 58.9421 97.7151 59.6143 97.7536 60.307C97.7536 60.307 101.747 58.899 101.558 56.835C101.558 56.835 100.992 56.4991 100.634 56.2271C100.634 56.2271 100.499 57.5263 97.1392 58.3518Z" fill="#4070FF"/>
    <path opacity="0.6" d="M97.1392 58.3518C97.5039 58.9421 97.7151 59.6143 97.7536 60.307C97.7536 60.307 101.747 58.899 101.558 56.835C101.558 56.835 100.992 56.4991 100.634 56.2271C100.634 56.2271 100.499 57.5263 97.1392 58.3518Z" fill="white"/>
    <path d="M97.1392 58.352C96.7721 58.9108 96.5077 59.5306 96.3584 60.1824C96.3584 60.1824 94.5504 58.96 95.0944 56.9216C95.4257 56.7881 95.767 56.6811 96.1152 56.6016C96.1152 56.6016 95.8784 57.92 97.1392 58.352Z" fill="#4070FF"/>
    <path opacity="0.6" d="M97.1392 58.352C96.7721 58.9108 96.5077 59.5306 96.3584 60.1824C96.3584 60.1824 94.5504 58.96 95.0944 56.9216C95.4257 56.7881 95.767 56.6811 96.1152 56.6016C96.1152 56.6016 95.8784 57.92 97.1392 58.352Z" fill="white"/>
</svg>
