<svg width="16" height="98" viewBox="0 0 16 98" fill="none" xmlns="http://www.w3.org/2000/svg">
<line x1="9" y1="1.11133" x2="9" y2="31.1113" stroke="#DFE3F0" stroke-width="2" stroke-linecap="round"/>
<path fill-rule="evenodd" clip-rule="evenodd" d="M0.886149 42.5107C0.371284 43.0433 0.371284 43.9067 0.886149 44.4392L4.29524 47.9653C4.81011 48.4978 4.81011 49.3612 4.29524 49.8937L0.886149 53.4198C0.371284 53.9524 0.371284 54.8158 0.886149 55.3483C1.40101 55.8808 2.23578 55.8808 2.75064 55.3483L6.15973 51.8222C7.70433 50.2246 7.70433 47.6344 6.15974 46.0368L2.75064 42.5107C2.23578 41.9782 1.40101 41.9782 0.886149 42.5107Z" fill="#DFE3F0"/>
<path fill-rule="evenodd" clip-rule="evenodd" d="M0.886149 42.5107C0.371284 43.0433 0.371284 43.9067 0.886149 44.4392L4.29524 47.9653C4.81011 48.4978 4.81011 49.3612 4.29524 49.8937L0.886149 53.4198C0.371284 53.9524 0.371284 54.8158 0.886149 55.3483C1.40101 55.8808 2.23578 55.8808 2.75064 55.3483L6.15973 51.8222C7.70433 50.2246 7.70433 47.6344 6.15974 46.0368L2.75064 42.5107C2.23578 41.9782 1.40101 41.9782 0.886149 42.5107Z" fill="url(#paint0_linear_2803_5453)"/>
<path fill-rule="evenodd" clip-rule="evenodd" d="M9.06797 42.5107C8.5531 43.0433 8.5531 43.9067 9.06797 44.4392L12.4771 47.9653C12.9919 48.4978 12.9919 49.3612 12.4771 49.8937L9.06797 53.4198C8.5531 53.9524 8.5531 54.8158 9.06797 55.3483C9.58283 55.8808 10.4176 55.8808 10.9325 55.3483L14.3416 51.8222C15.8861 50.2246 15.8862 47.6344 14.3416 46.0368L10.9325 42.5107C10.4176 41.9782 9.58283 41.9782 9.06797 42.5107Z" fill="#DFE3F0"/>
<path fill-rule="evenodd" clip-rule="evenodd" d="M9.06797 42.5107C8.5531 43.0433 8.5531 43.9067 9.06797 44.4392L12.4771 47.9653C12.9919 48.4978 12.9919 49.3612 12.4771 49.8937L9.06797 53.4198C8.5531 53.9524 8.5531 54.8158 9.06797 55.3483C9.58283 55.8808 10.4176 55.8808 10.9325 55.3483L14.3416 51.8222C15.8861 50.2246 15.8862 47.6344 14.3416 46.0368L10.9325 42.5107C10.4176 41.9782 9.58283 41.9782 9.06797 42.5107Z" fill="url(#paint1_linear_2803_5453)"/>
<line x1="9" y1="66.7476" x2="9" y2="96.7476" stroke="#DFE3F0" stroke-width="2" stroke-linecap="round"/>
<defs>
<linearGradient id="paint0_linear_2803_5453" x1="0.5" y1="42.1113" x2="14.0747" y2="57.0435" gradientUnits="userSpaceOnUse">
<stop stop-color="#78A0FF"/>
<stop offset="1" stop-color="#5078E6"/>
</linearGradient>
<linearGradient id="paint1_linear_2803_5453" x1="0.5" y1="42.1113" x2="14.0747" y2="57.0435" gradientUnits="userSpaceOnUse">
<stop stop-color="#78A0FF"/>
<stop offset="1" stop-color="#5078E6"/>
</linearGradient>
</defs>
</svg>
