<svg width="27" height="27" viewBox="0 0 27 27" fill="none" xmlns="http://www.w3.org/2000/svg">
<path d="M24.75 16.875C24.75 21.2287 21.2287 24.75 16.875 24.75L18.0562 22.7812" stroke="white" stroke-width="1.5" stroke-linecap="round" stroke-linejoin="round"/>
<path d="M2.25 10.125C2.25 5.77125 5.77125 2.25 10.125 2.25L8.94375 4.21875" stroke="white" stroke-width="1.5" stroke-linecap="round" stroke-linejoin="round"/>
<path d="M24.75 4.725V4.84875C24.75 5.16375 24.5025 5.41125 24.1875 5.41125H14.0625C13.7475 5.41125 13.5 5.16375 13.5 4.84875V4.725C13.5 2.745 13.995 2.25 15.9975 2.25H22.2525C24.255 2.25 24.75 2.745 24.75 4.725Z" fill="white"/>
<path d="M14.0625 6.53516C13.7475 6.53516 13.5 6.78266 13.5 7.09766V8.22266V9.33641C13.5 11.3164 13.995 11.8114 15.9975 11.8114H22.2525C24.255 11.8114 24.75 11.3164 24.75 9.33641V8.22266V7.09766C24.75 6.78266 24.5025 6.53516 24.1875 6.53516H14.0625Z" fill="white"/>
<path d="M13.5 17.6625V17.7863C13.5 18.1013 13.2525 18.3487 12.9375 18.3487H2.8125C2.4975 18.3487 2.25 18.1013 2.25 17.7863V17.6625C2.25 15.6825 2.745 15.1875 4.7475 15.1875H11.0025C13.005 15.1875 13.5 15.6825 13.5 17.6625Z" fill="white"/>
<path d="M2.8125 19.4727C2.4975 19.4727 2.25 19.7202 2.25 20.0352V21.1602V22.2739C2.25 24.2539 2.745 24.7489 4.7475 24.7489H11.0025C13.005 24.7489 13.5 24.2539 13.5 22.2739V21.1602V20.0352C13.5 19.7202 13.2525 19.4727 12.9375 19.4727H2.8125Z" fill="white"/>
</svg>
