<svg width="15" height="15" viewBox="0 0 15 15" fill="none" xmlns="http://www.w3.org/2000/svg">
<path fill-rule="evenodd" clip-rule="evenodd" d="M7.5 1.5C4.18629 1.5 1.5 4.18629 1.5 7.5C1.5 10.8137 4.18629 13.5 7.5 13.5C10.8137 13.5 13.5 10.8137 13.5 7.5C13.5 4.18629 10.8137 1.5 7.5 1.5ZM0 7.5C0 3.35786 3.35786 0 7.5 0C11.6421 0 15 3.35786 15 7.5C15 11.6421 11.6421 15 7.5 15C3.35786 15 0 11.6421 0 7.5Z" fill="#3071EE"/>
<path d="M6.43748 4.15052C6.4227 3.93387 6.59446 3.75 6.81161 3.75H8.18839C8.40554 3.75 8.5773 3.93387 8.56252 4.15052L8.2504 8.72573C8.23698 8.92248 8.07347 9.07521 7.87627 9.07521H7.12373C6.92653 9.07521 6.76302 8.92248 6.7496 8.72573L6.43748 4.15052ZM7.5 12C7.17969 12 6.91016 11.899 6.69141 11.697C6.48047 11.4873 6.375 11.2348 6.375 10.9396C6.375 10.6444 6.48047 10.3997 6.69141 10.2055C6.90234 10.0035 7.17188 9.90254 7.5 9.90254C7.82812 9.90254 8.09766 10.0035 8.30859 10.2055C8.51953 10.3997 8.625 10.6444 8.625 10.9396C8.625 11.2348 8.51562 11.4873 8.29688 11.697C8.08594 11.899 7.82031 12 7.5 12Z" fill="#3071EE"/>
</svg>
