<svg width="167" height="227" fill="none" xmlns="http://www.w3.org/2000/svg"><g opacity=".2"><g filter="url(#filter0_d)"><circle cx="143.962" cy="144.961" transform="rotate(30 143.962 144.961)" fill="url(#paint0_linear)" r="33.333"/></g><path d="M132.101 142.771l1.861 19.511 17.843-8.173-13.252.22-6.452-11.558z" fill="#fff"/><path d="M140.312 151.284l13.937-.075-.287-23.568-20.555 11.535 6.905 12.108z" fill="#fff"/><g filter="url(#filter1_d)"><circle cx="60.98" cy="60" r="33.333" fill="url(#paint1_linear)"/></g><path d="M75.98 69.61L74.527 75h-25.8l2.85-10.656-3.93 1.418.956-3.617 3.63-1.312a.464.464 0 00.318-.372l4.587-17.128h9.013l-3.63 13.76 5.03-1.845-.957 3.617-4.763 1.738a.464.464 0 00-.32.372l-2.319 8.653H75.98v-.018z" fill="#fff"/><g filter="url(#filter2_d)"><circle cx="86" cy="117.999" r="44.444" fill="url(#paint2_linear)"/></g><path d="M103.683 128.393c.356-2.334-.266-4.357-1.845-6.025-.711-.8-1.623-1.378-2.49-2.111.156-.045.267-.112.356-.134 5.624-1.067 7.358-8.715 4.557-12.316-1.156-1.467-2.534-2.579-4.135-3.446-1.133-.6-2.267-1.156-3.468-1.734.623-2.157 1.556-5.18 2.245-7.581l-4.535-1.312c-.733 2.357-1.578 5.314-2.245 7.403l-3.646-1.067c.645-2.156 1.534-5.046 2.2-7.403l-4.557-1.334c-.689 2.401-1.6 5.38-2.378 7.403-3.113-.956-6.136-1.823-9.204-2.756-.49 1.667-.978 3.223-1.445 4.846.644.245 1.222.4 1.823.578.578.178 1.156.334 1.734.556 1.534.578 2.112 1.69 1.667 3.268-1.934 6.514-3.913 13.005-5.891 19.497-.4 1.423-1.156 1.823-2.579 1.423l-.044-.022-3.024-.89c-.867 1.779-1.667 3.424-2.534 5.158 3.112.956 6.069 1.845 9.181 2.801-.689 2.357-1.578 5.314-2.29 7.759l4.558 1.334c.756-2.446 1.6-5.336 2.312-7.625 1.29.377 2.445.755 3.624 1.133-.667 2.335-1.556 5.18-2.246 7.537l4.558 1.334c.756-2.446 1.578-5.314 2.267-7.537.156.045.267.022.378.067 2.312.267 4.558.734 6.825.822 2.98.134 5.603-.8 7.559-3.201 1.512-1.845 2.379-4.046 2.712-6.425zM87.01 105.495l2.334.667c2 .578 3.957 1.289 5.58 2.645 1.49 1.245 1.912 2.846 1.334 4.536-.6 1.756-2.023 2.756-4.002 2.801-1.956.111-3.823-.312-5.691-.845-.778-.222-1.534-.489-2.268-.712.89-3.001 1.757-5.98 2.713-9.092zm3.245 25.544c-2.823.4-5.513-.378-8.18-1.112l-.156-.044c-.712-.2-1.4-.445-2.157-.667 1.023-3.357 2.023-6.67 3.046-10.004l2.69.778c2.579.756 5.024 1.6 7.047 3.312 1.445 1.178 2.068 2.757 1.534 4.669-.555 1.89-1.934 2.801-3.823 3.068z" fill="#fff"/></g><defs><linearGradient id="paint0_linear" x1="177.295" y1="111.628" x2="110.629" y2="178.294" gradientUnits="userSpaceOnUse"><stop stop-color="#98B1F1"/><stop offset="1" stop-color="#896ADF"/></linearGradient><linearGradient id="paint1_linear" x1="94.313" y1="26.667" x2="27.646" y2="93.334" gradientUnits="userSpaceOnUse"><stop stop-color="#7AC4F2"/><stop offset="1" stop-color="#619ABE"/><stop offset="1" stop-color="#619ABE"/></linearGradient><linearGradient id="paint2_linear" x1="130.444" y1="73.555" x2="41.556" y2="162.444" gradientUnits="userSpaceOnUse"><stop stop-color="#F7B73B"/><stop offset="1" stop-color="#F8A15D"/></linearGradient><filter id="filter0_d" x="102.623" y="107.622" width="82.678" height="82.678" filterUnits="userSpaceOnUse" color-interpolation-filters="sRGB"><feFlood flood-opacity="0" result="BackgroundImageFix"/><feColorMatrix in="SourceAlpha" values="0 0 0 0 0 0 0 0 0 0 0 0 0 0 0 0 0 0 127 0"/><feOffset dy="4"/><feGaussianBlur stdDeviation="4"/><feColorMatrix values="0 0 0 0 0.564706 0 0 0 0 0.552941 0 0 0 0 0.909804 0 0 0 0.3 0"/><feBlend in2="BackgroundImageFix" result="effect1_dropShadow"/><feBlend in="SourceGraphic" in2="effect1_dropShadow" result="shape"/></filter><filter id="filter1_d" x="19.646" y="22.667" width="82.667" height="82.667" filterUnits="userSpaceOnUse" color-interpolation-filters="sRGB"><feFlood flood-opacity="0" result="BackgroundImageFix"/><feColorMatrix in="SourceAlpha" values="0 0 0 0 0 0 0 0 0 0 0 0 0 0 0 0 0 0 127 0"/><feOffset dy="4"/><feGaussianBlur stdDeviation="4"/><feColorMatrix values="0 0 0 0 0.486275 0 0 0 0 0.803922 0 0 0 0 1 0 0 0 0.3 0"/><feBlend in2="BackgroundImageFix" result="effect1_dropShadow"/><feBlend in="SourceGraphic" in2="effect1_dropShadow" result="shape"/></filter><filter id="filter2_d" x="33.556" y="69.555" width="104.889" height="104.889" filterUnits="userSpaceOnUse" color-interpolation-filters="sRGB"><feFlood flood-opacity="0" result="BackgroundImageFix"/><feColorMatrix in="SourceAlpha" values="0 0 0 0 0 0 0 0 0 0 0 0 0 0 0 0 0 0 127 0"/><feOffset dy="4"/><feGaussianBlur stdDeviation="4"/><feColorMatrix values="0 0 0 0 0.968627 0 0 0 0 0.694118 0 0 0 0 0.266667 0 0 0 0.3 0"/><feBlend in2="BackgroundImageFix" result="effect1_dropShadow"/><feBlend in="SourceGraphic" in2="effect1_dropShadow" result="shape"/></filter></defs></svg>