<svg width="45" height="45" viewBox="0 0 45 45" fill="none" xmlns="http://www.w3.org/2000/svg">
<path d="M31.9275 0H13.0725C4.8825 0 0 4.8825 0 13.0725V31.9275C0 34.38 0.4275 36.5175 1.26 38.3175C3.195 42.5925 7.335 45 13.0725 45H31.9275C40.1175 45 45 40.1175 45 31.9275V26.775V13.0725C45 4.8825 40.1175 0 31.9275 0ZM41.3325 23.625C39.5775 22.1175 36.7425 22.1175 34.9875 23.625L25.6275 31.6575C23.8725 33.165 21.0375 33.165 19.2825 31.6575L18.5175 31.0275C16.92 29.6325 14.3775 29.4975 12.5775 30.7125L4.1625 36.36C3.6675 35.1 3.375 33.6375 3.375 31.9275V13.0725C3.375 6.7275 6.7275 3.375 13.0725 3.375H31.9275C38.2725 3.375 41.625 6.7275 41.625 13.0725V23.8725L41.3325 23.625Z" fill="#292D32"/>
</svg>
