<svg width="10" height="10" viewBox="0 0 10 10" fill="none" xmlns="http://www.w3.org/2000/svg">
<path d="M4.58386 7.49884C4.47269 7.49631 4.36665 7.45163 4.28719 7.37384L2.62052 5.68093C2.57863 5.64278 2.54496 5.5965 2.52156 5.54489C2.49816 5.49329 2.48554 5.43746 2.48445 5.38082C2.48337 5.32417 2.49385 5.2679 2.51525 5.21544C2.53665 5.16298 2.56853 5.11544 2.60893 5.07571C2.64933 5.03599 2.69741 5.00493 2.75022 4.98442C2.80304 4.96391 2.85948 4.95439 2.9161 4.95644C2.97272 4.95849 3.02833 4.97206 3.07953 4.99633C3.13072 5.0206 3.17643 5.05506 3.21386 5.09759L4.58594 6.49093L8.45594 2.62134C8.49438 2.58155 8.54035 2.54981 8.59119 2.52797C8.64202 2.50613 8.6967 2.49464 8.75202 2.49416C8.80735 2.49368 8.86221 2.50422 8.91342 2.52517C8.96463 2.54612 9.01115 2.57706 9.05027 2.61618C9.08939 2.6553 9.12033 2.70182 9.14128 2.75303C9.16223 2.80424 9.17278 2.8591 9.17229 2.91443C9.17181 2.96975 9.16032 3.02443 9.13848 3.07526C9.11665 3.1261 9.0849 3.17207 9.04511 3.21051L4.87844 7.37718C4.80025 7.45517 4.69429 7.49893 4.58386 7.49884Z" fill="#00B277"/>
<path opacity="0.4" d="M4.58346 5.83259C4.50107 5.83258 4.42053 5.80813 4.35202 5.76234C4.28352 5.71656 4.23012 5.65149 4.1986 5.57537C4.16707 5.49924 4.15882 5.41548 4.17489 5.33466C4.19096 5.25385 4.23062 5.17962 4.28888 5.12134L6.78888 2.62134C6.82731 2.58155 6.87329 2.54981 6.92413 2.52797C6.97496 2.50613 7.02964 2.49464 7.08496 2.49416C7.14029 2.49368 7.19515 2.50422 7.24636 2.52517C7.29757 2.54612 7.34409 2.57706 7.38321 2.61618C7.42233 2.6553 7.45327 2.70182 7.47422 2.75303C7.49517 2.80424 7.50571 2.8591 7.50523 2.91443C7.50475 2.96975 7.49326 3.02443 7.47142 3.07526C7.44958 3.1261 7.41784 3.17207 7.37805 3.21051L4.87805 5.71051C4.79992 5.78866 4.69396 5.83257 4.58346 5.83259ZM2.91679 7.49926C2.86153 7.49914 2.80683 7.48803 2.7559 7.46657C2.70497 7.44511 2.65882 7.41373 2.62013 7.37426L0.953461 5.68259C0.883097 5.60262 0.846032 5.49874 0.849882 5.39229C0.853732 5.28584 0.898205 5.18491 0.974163 5.11023C1.05012 5.03555 1.1518 4.9928 1.2583 4.99076C1.36479 4.98872 1.46803 5.02755 1.54679 5.09926L3.21346 6.79093C3.27085 6.84947 3.30969 6.92364 3.32512 7.00416C3.34055 7.08467 3.33189 7.16794 3.30022 7.24356C3.26855 7.31917 3.21528 7.38376 3.14708 7.42925C3.07888 7.47473 2.99877 7.49909 2.91679 7.49926Z" fill="#00B277"/>
</svg>
