<svg width="105" height="105" viewBox="0 0 105 105" fill="none" xmlns="http://www.w3.org/2000/svg">
<circle cx="52.4154" cy="52.4163" r="41.0833" fill="#FF0000" fill-opacity="0.56"/>
<path fill-rule="evenodd" clip-rule="evenodd" d="M52.4167 5.66667C26.5974 5.66667 5.66667 26.5974 5.66667 52.4167C5.66667 78.236 26.5974 99.1667 52.4167 99.1667C78.236 99.1667 99.1667 78.236 99.1667 52.4167C99.1667 26.5974 78.236 5.66667 52.4167 5.66667ZM0 52.4167C0 23.4677 23.4677 0 52.4167 0C81.3656 0 104.833 23.4677 104.833 52.4167C104.833 81.3656 81.3656 104.833 52.4167 104.833C23.4677 104.833 0 81.3656 0 52.4167Z" fill="#FF0000" fill-opacity="0.56"/>
<path d="M67.4119 33.4129C68.5184 32.3064 70.3123 32.3064 71.4188 33.4129C72.5253 34.5194 72.5253 36.3133 71.4188 37.4198L56.4223 52.4163L71.4188 67.4129C72.5253 68.5194 72.5253 70.3133 71.4188 71.4198C70.3124 72.5263 68.5184 72.5263 67.4119 71.4198L52.4154 56.4233L37.4188 71.4198C36.3123 72.5263 34.5184 72.5263 33.4119 71.4198C32.3054 70.3133 32.3054 68.5194 33.4119 67.4129L48.4084 52.4163L33.4119 37.4198C32.3054 36.3133 32.3054 34.5194 33.4119 33.4129C34.5184 32.3064 36.3124 32.3064 37.4188 33.4129L52.4154 48.4094L67.4119 33.4129Z" fill="white"/>
</svg>
