<svg width="11" height="11" viewBox="0 0 11 11" fill="none" xmlns="http://www.w3.org/2000/svg">
<circle cx="5.5" cy="5.5" r="5.5" fill="#FA9751"/>
<path d="M4.7684 2H6.2484L5.9984 6.68H5.0084L4.7684 2ZM5.5084 9.07C5.27507 9.07 5.08173 8.99667 4.9284 8.85C4.77507 8.69667 4.6984 8.51 4.6984 8.29C4.6984 8.07 4.77507 7.88667 4.9284 7.74C5.08173 7.59333 5.27507 7.52 5.5084 7.52C5.73507 7.52 5.92173 7.59333 6.0684 7.74C6.22173 7.88667 6.2984 8.07 6.2984 8.29C6.2984 8.51 6.22173 8.69667 6.0684 8.85C5.92173 8.99667 5.73507 9.07 5.5084 9.07Z" fill="white"/>
</svg>
