<svg width="68" height="68" viewBox="0 0 68 68" fill="none" xmlns="http://www.w3.org/2000/svg">
<g clip-path="url(#clip0_6238_787)">
<path d="M58.0468 58.0992C71.3246 44.9018 71.3246 23.5045 58.0468 10.307C44.7689 -2.8904 23.2413 -2.8904 9.96351 10.307C-3.31432 23.5045 -3.31432 44.9018 9.96351 58.0992C23.2413 71.2966 44.7689 71.2967 58.0468 58.0992Z" fill="url(#paint0_linear_6238_787)"/>
<path d="M43.0844 29.75H25.0977V49.9466H43.0844V29.75Z" fill="#E2988F"/>
<path d="M63.1417 51.7592C53.5422 47.4971 43.0779 46.0078 43.0779 46.0078C38.2782 50.9843 29.3366 51.057 25.0911 46.0078C25.0911 46.0078 14.6268 47.5153 5.02734 51.7774C8.06167 56.7347 12.3287 60.8323 17.4177 63.6757C22.5068 66.5191 28.2465 68.0127 34.0845 68.0127C39.9225 68.0127 45.6622 66.5191 50.7513 63.6757C55.8403 60.8323 60.1073 56.7347 63.1417 51.7774V51.7592Z" fill="white"/>
<path d="M45.0391 46.3242V66.206C52.5906 63.6467 58.9991 58.5347 63.1476 51.7608C57.3318 49.29 51.2586 47.4666 45.0391 46.3242Z" fill="#F4BA5D"/>
<path d="M23.0994 46.3242C16.8915 47.4718 10.8305 49.2992 5.02734 51.7729C9.17125 58.5336 15.5648 63.6397 23.0994 66.206V46.3242Z" fill="#F4BA5D"/>
<path d="M33.8335 52.0606H33.663C29.0155 52.0122 25.0929 49.9719 22.9062 46.4726L23.2961 46.2365C25.3975 49.6026 29.18 51.5581 33.6508 51.6065C38.3226 51.6429 42.6228 49.5966 44.8278 46.2305L45.2115 46.4787C42.97 49.9053 38.615 52.0606 33.8335 52.0606Z" fill="#EABFB9"/>
<path d="M51.6994 18.9979C50.7066 16.6368 48.6539 17.787 48.6539 17.787C49.8538 7.07728 44.3658 0 34.1086 0C23.8513 0 18.3146 7.07728 19.4902 17.7991C19.4902 17.7991 17.4619 16.6368 16.4447 19.01C15.4275 21.3832 17.267 26.8804 18.3877 28.6603C18.6546 29.1445 19.0912 29.5144 19.6145 29.6996C20.1378 29.8849 20.7113 29.8727 21.2261 29.6653C21.2261 29.6653 21.6403 33.7094 22.158 35.0837C22.6758 36.458 28.5414 42.7603 30.2713 43.7229C32.531 45.0488 35.8628 45.0488 37.8972 43.7229C39.6209 42.7603 45.4866 36.458 46.0043 35.0776C46.5221 33.6973 46.9302 29.5865 46.9302 29.5865C47.4337 29.8113 48.004 29.8396 48.5276 29.6657C49.0512 29.4919 49.4898 29.1286 49.7564 28.6482C50.8832 26.8864 52.6922 21.359 51.6994 18.9979Z" fill="#E2988F"/>
<path d="M34.1841 44.9301C32.7777 44.9464 31.3915 44.5957 30.164 43.913C29.1164 43.3076 26.7165 40.9404 24.9258 38.9668L25.2669 38.6641C27.0942 40.674 29.4331 42.9867 30.3894 43.5074C32.5822 44.7969 35.8226 44.7969 37.7717 43.5316C38.7463 42.9867 41.0913 40.674 42.9125 38.6883L43.2475 38.991C41.4629 40.9646 39.0569 43.356 38.0093 43.9433C36.8536 44.6247 35.5273 44.9668 34.1841 44.9301Z" fill="#C46966"/>
<path d="M21.1727 27.1056L20.7188 27.1562L21.0039 29.6831L21.4579 29.6325L21.1727 27.1056Z" fill="#C46966"/>
<path d="M46.9659 27.1019L46.707 29.5586L47.1614 29.6059L47.4203 27.1493L46.9659 27.1019Z" fill="#C46966"/>
<path d="M17.7972 24.3016C17.6998 23.9505 16.8958 20.881 18.0104 20.0637C18.1306 19.9647 18.2736 19.8968 18.4267 19.8661C18.5798 19.8355 18.7381 19.8431 18.8875 19.8882C19.0908 19.9821 19.2734 20.1149 19.4249 20.2791C19.5765 20.4432 19.694 20.6354 19.7707 20.8447L19.3444 21.0082C19.2834 20.8508 19.052 20.4028 18.7353 20.318C18.6572 20.2971 18.5754 20.2944 18.4961 20.3102C18.4169 20.3259 18.3424 20.3597 18.2784 20.4088C17.6328 20.8932 17.913 22.9818 18.2419 24.1805L17.7972 24.3016Z" fill="#C46966"/>
<path d="M50.3854 24.3033L49.9407 24.1822C50.2696 22.9714 50.5498 20.8948 49.892 20.4045C49.8308 20.357 49.7591 20.3246 49.6829 20.3099C49.6067 20.2952 49.5281 20.2985 49.4534 20.3197C49.088 20.4408 48.8443 21.0038 48.8443 21.0099L48.418 20.8464C48.4987 20.6327 48.6224 20.4377 48.7816 20.2732C48.9408 20.1087 49.1321 19.9783 49.3438 19.8899C49.4861 19.8464 49.6367 19.8363 49.7836 19.8605C49.9305 19.8847 50.0698 19.9424 50.1904 20.0291C51.2868 20.8827 50.4767 23.9522 50.3854 24.3033Z" fill="#C46966"/>
<path d="M20.9414 23.4355C23.9869 23.4355 21.6906 13.6642 24.0843 11.291C25.3025 10.0801 42.9177 10.1407 44.0872 11.291C46.481 13.6642 44.1725 23.4537 47.2241 23.4355C47.0109 21.1713 47.0048 18.6952 48.6798 17.7991C49.8493 7.07728 44.3674 0 34.1101 0C23.8529 0 18.3162 7.07728 19.4917 17.7991C20.85 18.677 21.1607 21.0684 20.9414 23.4355Z" fill="#4C224B"/>
<path d="M34.1105 26.6803C34.1105 26.6803 26.8805 26.5229 26.582 31.3238H41.6146C41.3162 26.5229 34.1105 26.6803 34.1105 26.6803Z" fill="#4C224B"/>
</g>
<defs>
<linearGradient id="paint0_linear_6238_787" x1="9.96351" y1="10.307" x2="57.7548" y2="58.3894" gradientUnits="userSpaceOnUse">
<stop stop-color="#EFF5FF"/>
<stop offset="1" stop-color="#C1D7FD" stop-opacity="0"/>
</linearGradient>
<clipPath id="clip0_6238_787">
<rect width="68" height="68" fill="white"/>
</clipPath>
</defs>
</svg>
