<svg width="66" height="66" fill="none" xmlns="http://www.w3.org/2000/svg"><mask id="a" maskUnits="userSpaceOnUse" x="8" y="7" width="50" height="51"><path fill-rule="evenodd" clip-rule="evenodd" d="M8 32.998c0 13.807 11.193 25 25 25s25-11.193 25-25c0-13.808-11.193-25-25-25s-25 11.192-25 25z" fill="#fff"/></mask><g mask="url(#a)"><path fill-rule="evenodd" clip-rule="evenodd" d="M8 32.998c0 13.807 11.193 25 25 25s25-11.193 25-25c0-13.808-11.193-25-25-25s-25 11.192-25 25z" fill="url(#paint0_linear)"/></g><mask id="b" maskUnits="userSpaceOnUse" x="0" y="0" width="66" height="66"><path fill-rule="evenodd" clip-rule="evenodd" d="M0 32.999c0 18.155 14.738 32.934 32.879 32.998h.24C51.259 65.934 65.998 51.154 65.998 33 65.998 14.803 51.194 0 32.998 0 14.804 0 0 14.803 0 32.999zm3.955 0C3.955 16.984 16.985 3.955 33 3.955c16.015 0 29.044 13.029 29.044 29.044 0 16.014-13.03 29.044-29.044 29.044-16.015 0-29.044-13.03-29.044-29.044z" fill="#fff"/></mask><g mask="url(#b)"><path fill-rule="evenodd" clip-rule="evenodd" d="M0 32.999c0 18.155 14.738 32.934 32.879 32.998h.24C51.259 65.934 65.998 51.154 65.998 33 65.998 14.803 51.194 0 32.998 0 14.804 0 0 14.803 0 32.999zm3.955 0C3.955 16.984 16.985 3.955 33 3.955c16.015 0 29.044 13.029 29.044 29.044 0 16.014-13.03 29.044-29.044 29.044-16.015 0-29.044-13.03-29.044-29.044z" fill="url(#paint1_linear)"/></g><path fill-rule="evenodd" clip-rule="evenodd" d="M37.253 41.888c-.01.003-.897.29-1.668.29-.425 0-.597-.086-.651-.124-.27-.182-.77-.523.087-2.182l1.604-3.107c.952-1.845 1.093-3.63.394-5.026-.572-1.142-1.668-1.926-3.082-2.207a7.892 7.892 0 00-1.537-.15c-2.968 0-4.966 1.682-5.05 1.754a.764.764 0 00-.163.975.812.812 0 00.955.346c.008-.003.897-.291 1.668-.291.421 0 .592.086.644.122.272.184.774.53-.081 2.184l-1.605 3.11c-.953 1.846-1.093 3.63-.393 5.026.57 1.142 1.665 1.926 3.083 2.206.503.099 1.02.152 1.53.152 2.97 0 4.97-1.683 5.053-1.755a.765.765 0 00.164-.976.822.822 0 00-.952-.347zM35.907 20.032c2.215 0 4.012 1.744 4.012 3.896s-1.797 3.896-4.012 3.896c-2.216 0-4.013-1.744-4.013-3.896s1.797-3.896 4.013-3.896z" fill="#fff"/><defs><linearGradient id="paint0_linear" x1="8" y1="57.998" x2="58" y2="57.998" gradientUnits="userSpaceOnUse"><stop stop-color="#FFB833"/><stop offset="1" stop-color="#FF954D"/></linearGradient><linearGradient id="paint1_linear" x1="0" y1="65.998" x2="65.998" y2="65.998" gradientUnits="userSpaceOnUse"><stop stop-color="#648AF4"/><stop offset="1" stop-color="#8CAFFF"/></linearGradient></defs></svg>