<svg width="94" height="77" fill="none" xmlns="http://www.w3.org/2000/svg"><path d="M53.163 17c-1.01 0-1.837-.81-1.837-1.801 0-6.395-5.304-11.596-11.826-11.596S27.674 8.804 27.674 15.199c0 .99-.827 1.801-1.837 1.801S24 16.19 24 15.199C24 6.823 30.958 0 39.5 0S55 6.823 55 15.199c0 .99-.827 1.801-1.837 1.801z" fill="url(#paint0_linear)"/><path d="M73.187 14H5.813C4.803 14 4 14.814 4 15.837v47.326C4 64.186 4.803 65 5.813 65h67.374c1.01 0 1.813-.814 1.813-1.837V15.837c0-1-.803-1.837-1.813-1.837z" fill="url(#paint1_linear)"/><path d="M74 77c11.046 0 20-9.178 20-20.5S85.046 36 74 36s-20 9.178-20 20.5S62.954 77 74 77z" fill="url(#paint2_linear)"/><path d="M74 66c-1.1 0-2-.833-2-1.85v-14.3c0-1.017.9-1.85 2-1.85s2 .833 2 1.85v14.3c0 1.017-.9 1.85-2 1.85z" fill="#fff"/><path d="M81.15 59h-14.3c-1.017 0-1.85-.9-1.85-2s.833-2 1.85-2h14.3c1.017 0 1.85.9 1.85 2s-.833 2-1.85 2zM39.67 44.99c-3.296 0-6.616-.984-9.428-2.929-.023-.023-.046-.046-.07-.046L.713 19.27a1.814 1.814 0 01-.323-2.563 1.845 1.845 0 012.581-.32l29.416 22.723c4.357 2.998 10.212 2.998 14.57 0L75 17.99a1.849 1.849 0 012.582.343 1.817 1.817 0 01-.346 2.563l-28.068 21.12c-.023.022-.046.022-.069.045a16.611 16.611 0 01-9.429 2.93z" fill="#fff"/><defs><linearGradient id="paint0_linear" x1="24.012" y1="17.005" x2="55.004" y2="17.005" gradientUnits="userSpaceOnUse"><stop stop-color="#FFB300"/><stop offset="1" stop-color="#FF8E37"/></linearGradient><linearGradient id="paint1_linear" x1="3.998" y1="65.011" x2="75.009" y2="65.011" gradientUnits="userSpaceOnUse"><stop stop-color="#FFB300"/><stop offset="1" stop-color="#FF8E37"/></linearGradient><linearGradient id="paint2_linear" x1="53.981" y1="77.003" x2="93.999" y2="77.003" gradientUnits="userSpaceOnUse"><stop stop-color="#5C8BFC"/><stop offset="1" stop-color="#84B0FF"/></linearGradient></defs></svg>