<svg width="53" height="67" fill="none" xmlns="http://www.w3.org/2000/svg"><path fill-rule="evenodd" clip-rule="evenodd" d="M4.64 64h46.72c.902 0 1.64-.734 1.64-1.653V12.65c0-.449-.164-.857-.471-1.163L41.459.47A1.664 1.664 0 0040.288 0H4.64A1.64 1.64 0 003 1.632v60.736A1.64 1.64 0 004.64 64zm45.08-3.264H6.28V3.285h33.333L49.72 13.343v47.393z" fill="url(#paint0_linear)"/><path d="M0 6v61h46V17.069L35.105 6H0z" fill="url(#paint1_linear)"/><path d="M26.398 22H8.602C7.72 22 7 21.325 7 20.5S7.72 19 8.602 19h17.796c.881 0 1.602.675 1.602 1.5s-.72 1.5-1.602 1.5zM36.383 32H8.617C7.727 32 7 31.325 7 30.5S7.728 29 8.617 29h27.766c.89 0 1.617.675 1.617 1.5s-.727 1.5-1.617 1.5zM36.383 42H8.617C7.727 42 7 41.325 7 40.5S7.728 39 8.617 39h27.766c.89 0 1.617.675 1.617 1.5s-.727 1.5-1.617 1.5zM36.383 51H8.617C7.727 51 7 50.325 7 49.5S7.728 48 8.617 48h27.766c.89 0 1.617.675 1.617 1.5s-.727 1.5-1.617 1.5z" fill="#fff"/><defs><linearGradient id="paint0_linear" x1="2.992" y1="64.004" x2="52.999" y2="64.004" gradientUnits="userSpaceOnUse"><stop stop-color="#5C8BFC"/><stop offset="1" stop-color="#84B0FF"/></linearGradient><linearGradient id="paint1_linear" x1=".007" y1="66.994" x2="45.994" y2="66.994" gradientUnits="userSpaceOnUse"><stop stop-color="#FFB300"/><stop offset="1" stop-color="#FF8E37"/></linearGradient></defs></svg>