<svg width="71" height="67" fill="none" xmlns="http://www.w3.org/2000/svg"><mask id="a" maskUnits="userSpaceOnUse" x="33" y="0" width="27" height="34"><path fill-rule="evenodd" clip-rule="evenodd" d="M35.308 0c-1.17 0-2.118.937-2.118 2.092V31.581c0 1.155.948 2.092 2.118 2.092s2.117-.937 2.117-2.092v-9.912l20.487-.372a2.118 2.118 0 001.906-1.263 2.073 2.073 0 00-.377-2.236l-6.573-7.15 6.573-7.15a2.073 2.073 0 00.369-2.253A2.118 2.118 0 0057.873 0H35.308zm2.117 4.185H53.09L48.44 9.24a2.074 2.074 0 000 2.814l4.727 5.142-15.742.287v-13.3z" fill="#fff"/></mask><g mask="url(#a)"><path fill-rule="evenodd" clip-rule="evenodd" d="M35.308 0c-1.17 0-2.118.937-2.118 2.092V31.581c0 1.155.948 2.092 2.118 2.092s2.117-.937 2.117-2.092v-9.912l20.487-.372a2.118 2.118 0 001.906-1.263 2.073 2.073 0 00-.377-2.236l-6.573-7.15 6.573-7.15a2.073 2.073 0 00.369-2.253A2.118 2.118 0 0057.873 0H35.308zm2.117 4.185H53.09L48.44 9.24a2.074 2.074 0 000 2.814l4.727 5.142-15.742.287v-13.3z" fill="url(#paint0_linear)"/></g><mask id="b" maskUnits="userSpaceOnUse" x="0" y="29" width="71" height="38"><path fill-rule="evenodd" clip-rule="evenodd" d="M32.902 30.817L1.192 60.13A3.677 3.677 0 000 62.81v.053c.003.447.088.898.26 1.335a3.69 3.69 0 003.456 2.35h63.419a3.69 3.69 0 003.456-2.35 3.676 3.676 0 00-.933-4.068l-31.71-29.313a3.71 3.71 0 00-2.523-.981c-.908 0-1.816.327-2.523.981zm2.523 3.432L65.792 62.32H5.059l30.366-28.07z" fill="#fff"/></mask><g mask="url(#b)"><path fill-rule="evenodd" clip-rule="evenodd" d="M32.902 30.817L1.192 60.13A3.677 3.677 0 000 62.81v.053c.003.447.088.898.26 1.335a3.69 3.69 0 003.456 2.35h63.419a3.69 3.69 0 003.456-2.35 3.676 3.676 0 00-.933-4.068l-31.71-29.313a3.71 3.71 0 00-2.523-.981c-.908 0-1.816.327-2.523.981zm2.523 3.432L65.792 62.32H5.059l30.366-28.07z" fill="url(#paint1_linear)"/></g><mask id="c" maskUnits="userSpaceOnUse" x="3" y="47" width="66" height="19"><path fill-rule="evenodd" clip-rule="evenodd" d="M29.901 53.145L17.094 49.43l-3.82 2.345L3.028 63.389l50.749 2.195 15.178-2.746L51.88 47.956 29.9 53.146z" fill="#fff"/></mask><g mask="url(#c)"><path fill-rule="evenodd" clip-rule="evenodd" d="M29.901 53.145L17.094 49.43l-3.82 2.345L3.028 63.389l50.749 2.195 15.178-2.746L51.88 47.956 29.9 53.146z" fill="url(#paint2_linear)"/></g><defs><linearGradient id="paint0_linear" x1="33.19" y1="33.673" x2="59.991" y2="33.673" gradientUnits="userSpaceOnUse"><stop stop-color="#5B8AFB"/><stop offset="1" stop-color="#83AFFF"/></linearGradient><linearGradient id="paint1_linear" x1="0" y1="66.549" x2="70.85" y2="66.549" gradientUnits="userSpaceOnUse"><stop stop-color="#FFB300"/><stop offset="1" stop-color="#FF8E36"/></linearGradient><linearGradient id="paint2_linear" x1="3.027" y1="65.584" x2="68.955" y2="65.584" gradientUnits="userSpaceOnUse"><stop stop-color="#FFB300"/><stop offset="1" stop-color="#FF8E36"/></linearGradient></defs></svg>