<svg width="228" height="120" fill="none" xmlns="http://www.w3.org/2000/svg"><path fill-rule="evenodd" clip-rule="evenodd" d="M113 0l24 36-8.854 13.282-21.688-39.469L113 0z" fill="url(#paint0_linear)"/><path fill-rule="evenodd" clip-rule="evenodd" d="M99.27 20.596L137 36l-8.854 13.282L89 36l10.27-15.404z" fill="url(#paint1_linear)"/><path fill-rule="evenodd" clip-rule="evenodd" d="M113 72L89 36l10.27-15.405 23.028 37.458L113 72z" fill="url(#paint2_linear)"/><path d="M6.133 119v-17.8l13.8 17.8h5.04V91.12h-5.96v17.32L5.653 91.12H.173V119h5.96zm22.675-10.08c0 2.96.96 5.44 2.84 7.48 1.92 2 4.32 3 7.16 3 3.16 0 5.36-.96 6.68-2.92.28.84.88 1.56 1.8 2.16.84.48 1.96.72 3.28.72 1.16 0 2.04-.12 2.68-.32v-4.96c-.36.04-.72.08-1 .08-1.08 0-1.48-.64-1.48-2.24V98.84h-5.96v2.64c-.6-1.76-2.96-3-6-3-2.84 0-5.24 1-7.16 3.04-1.88 2-2.84 4.48-2.84 7.4zm11.08 5.04c-1.44 0-2.64-.48-3.64-1.44-1-1-1.48-2.2-1.48-3.6s.48-2.6 1.48-3.56c1-1 2.2-1.48 3.64-1.48 1.48 0 2.72.48 3.72 1.48 1.04.96 1.56 2.16 1.56 3.56s-.52 2.6-1.56 3.6c-1 .96-2.24 1.44-3.72 1.44zm21.97 5.04v-9.84c0-3.32 2-5.24 5.4-5.24.72 0 1.4.08 2 .2v-5.6c-.64-.08-1.16-.12-1.56-.12-2.76 0-4.92 1.16-5.84 3.2v-2.76h-5.96V119h5.96zm18.448 0v-14.76h4.04v-5.4h-4.04v-.92c0-1.72.84-2.4 2.76-2.4.84 0 1.44.08 1.8.2v-4.96c-.8-.12-1.6-.2-2.4-.2-2.52 0-4.4.48-5.56 1.48-1.56 1.24-2.36 3.32-2.36 6.24v.56h-3.32v5.4h3.32V119h5.76zm5.337-9.96c0 3.16 1 5.68 3.04 7.6 2.04 1.88 4.68 2.84 8 2.84 3.4 0 6.32-1.24 8.68-3.68l-3.48-3.32c-1.4 1.32-3.04 1.96-4.92 1.96-3.16 0-5.24-1.56-5.36-3.96h15.24c.04-.6.08-1.24.08-1.92 0-2.92-.96-5.32-2.88-7.28s-4.4-2.96-7.48-2.96c-3.16 0-5.8.96-7.84 2.92-2.04 1.92-3.08 4.48-3.08 7.64v.16zm6.04-2.44c.16-1.88 2.28-3.36 4.88-3.36 2.4 0 4.36 1.48 4.36 3.36h-9.24z" fill="#fff"/><path d="M112.841 119l4.52-6.28 4.52 6.28h6.44l-7.64-10.6 6.92-9.56h-6.48l-3.76 5.32-3.76-5.32h-6.48l6.92 9.56-7.64 10.6h6.44zm45.192-28.32c-4.2 0-7.72 1.36-10.64 4.12-2.92 2.76-4.36 6.16-4.36 10.28 0 4.12 1.44 7.52 4.36 10.28 2.92 2.72 6.44 4.08 10.64 4.08 4.44 0 8.48-1.92 11.32-5.24l-4.2-3.56c-1.88 2.12-4.24 3.2-7.12 3.2-2.52 0-4.6-.84-6.32-2.48-1.68-1.68-2.52-3.76-2.52-6.28 0-2.52.84-4.6 2.56-6.28 1.72-1.68 3.8-2.52 6.28-2.52 2.84 0 5.2 1.04 7.08 3.16l4.2-3.56c-2.84-3.24-6.84-5.2-11.28-5.2zm23.303 7.56c-3.12 0-5.76 1.04-7.96 3.12-2.16 2.04-3.24 4.56-3.24 7.56s1.08 5.52 3.24 7.6c2.2 2.04 4.84 3.08 7.96 3.08 3.08 0 5.72-1.04 7.92-3.08 2.2-2.08 3.28-4.6 3.28-7.6s-1.08-5.52-3.28-7.56c-2.2-2.08-4.84-3.12-7.92-3.12zm-5.24 10.68c0-1.48.52-2.72 1.52-3.72 1-1.04 2.24-1.56 3.72-1.56s2.72.52 3.72 1.56c1 1 1.52 2.24 1.52 3.72s-.52 2.72-1.52 3.76c-1 1-2.24 1.52-3.72 1.52s-2.72-.52-3.72-1.52-1.52-2.28-1.52-3.76zm19.568 4.76c0 3.8 1.76 5.68 5.28 5.68 1.32 0 2.24-.12 2.76-.32v-5.08c-.12.04-.36.08-.72.08-1 0-1.36-.64-1.36-2.12V98.84h-5.96v14.84zm-.44-19.92c0 1.88 1.52 3.36 3.4 3.36s3.4-1.48 3.4-3.36c0-1.92-1.52-3.4-3.4-3.4s-3.4 1.48-3.4 3.4zM212.366 119v-11.32c0-2.36 1.64-4 3.88-4 2.36 0 3.6 1.44 3.6 3.8v6c0 3.84 1.76 5.76 5.32 5.76 1.24 0 2.12-.08 2.6-.28v-5.04l-.24.04h-.4c-1 0-1.32-.56-1.32-2.12v-5.08c0-5.24-2.8-8.36-7.64-8.36-2.72 0-4.96 1.2-5.8 2.96v-2.52h-5.96V119h5.96z" fill="#fff"/><defs><linearGradient id="paint0_linear" x1="128.222" y1="0" x2="128.222" y2="0" gradientUnits="userSpaceOnUse"><stop stop-color="#FABE4C"/><stop offset="1" stop-color="#FA9751"/></linearGradient><linearGradient id="paint1_linear" x1="137" y1="44.986" x2="106.458" y2="44.986" gradientUnits="userSpaceOnUse"><stop stop-color="#FABE4C"/><stop offset="1" stop-color="#FA9751"/></linearGradient><linearGradient id="paint2_linear" x1="95.603" y1="28.847" x2="95.603" y2="58.329" gradientUnits="userSpaceOnUse"><stop stop-color="#FABE4C"/><stop offset="1" stop-color="#FA9751"/></linearGradient></defs></svg>