<svg width="26" height="26" viewBox="0 0 26 26" fill="none" xmlns="http://www.w3.org/2000/svg">
<mask id="mask0_4515_11118" style="mask-type:alpha" maskUnits="userSpaceOnUse" x="0" y="0" width="26" height="26">
<rect width="26" height="26" fill="#D9D9D9"/>
</mask>
<g mask="url(#mask0_4515_11118)">
<path d="M12.241 16.0327C12.4577 16.2493 12.7105 16.3577 12.9993 16.3577C13.2882 16.3577 13.541 16.2493 13.7577 16.0327L17.116 12.6743C17.3146 12.4757 17.4092 12.223 17.3998 11.916C17.3912 11.6091 17.2875 11.3563 17.0889 11.1577C16.8723 10.941 16.6195 10.8327 16.3306 10.8327C16.0417 10.8327 15.7889 10.941 15.5723 11.1577L12.9993 13.7306L10.3993 11.1306C10.2007 10.932 9.94796 10.837 9.64102 10.8457C9.33407 10.8551 9.08129 10.9591 8.88268 11.1577C8.66602 11.3743 8.55768 11.6271 8.55768 11.916C8.55768 12.2049 8.66602 12.4577 8.88268 12.6743L12.241 16.0327ZM12.9993 23.8327C11.5007 23.8327 10.0924 23.5481 8.77435 22.979C7.45629 22.4106 6.30977 21.6389 5.33477 20.6639C4.35977 19.6889 3.58807 18.5424 3.01968 17.2243C2.45057 15.9063 2.16602 14.498 2.16602 12.9993C2.16602 11.5007 2.45057 10.0924 3.01968 8.77435C3.58807 7.45629 4.35977 6.30977 5.33477 5.33477C6.30977 4.35977 7.45629 3.58771 8.77435 3.0186C10.0924 2.45021 11.5007 2.16602 12.9993 2.16602C14.498 2.16602 15.9063 2.45021 17.2243 3.0186C18.5424 3.58771 19.6889 4.35977 20.6639 5.33477C21.6389 6.30977 22.4106 7.45629 22.979 8.77435C23.5481 10.0924 23.8327 11.5007 23.8327 12.9993C23.8327 14.498 23.5481 15.9063 22.979 17.2243C22.4106 18.5424 21.6389 19.6889 20.6639 20.6639C19.6889 21.6389 18.5424 22.4106 17.2243 22.979C15.9063 23.5481 14.498 23.8327 12.9993 23.8327ZM12.9993 21.666C15.4007 21.666 17.4457 20.8221 19.1343 19.1343C20.8221 17.4457 21.666 15.4007 21.666 12.9993C21.666 10.598 20.8221 8.55299 19.1343 6.86443C17.4457 5.1766 15.4007 4.33268 12.9993 4.33268C10.598 4.33268 8.55335 5.1766 6.86552 6.86443C5.17696 8.55299 4.33268 10.598 4.33268 12.9993C4.33268 15.4007 5.17696 17.4457 6.86552 19.1343C8.55335 20.8221 10.598 21.666 12.9993 21.666Z" fill="#5078E6"/>
</g>
</svg>
