<svg width="18" height="10" viewBox="0 0 18 10" fill="none" xmlns="http://www.w3.org/2000/svg">
<path fill-rule="evenodd" clip-rule="evenodd" d="M0.292893 0.471985C0.683417 0.0887655 1.31658 0.0887655 1.70711 0.471985L8.29289 6.93457C8.68342 7.31779 9.31658 7.31779 9.70711 6.93457L16.2929 0.471985C16.6834 0.0887655 17.3166 0.0887655 17.7071 0.471985C18.0976 0.855203 18.0976 1.47652 17.7071 1.85974L11.1213 8.32233C9.94975 9.47198 8.05025 9.47199 6.87868 8.32233L0.292893 1.85974C-0.0976311 1.47652 -0.0976311 0.855203 0.292893 0.471985Z" fill="#DFE3F0"/>
<path fill-rule="evenodd" clip-rule="evenodd" d="M0.292893 0.471985C0.683417 0.0887655 1.31658 0.0887655 1.70711 0.471985L8.29289 6.93457C8.68342 7.31779 9.31658 7.31779 9.70711 6.93457L16.2929 0.471985C16.6834 0.0887655 17.3166 0.0887655 17.7071 0.471985C18.0976 0.855203 18.0976 1.47652 17.7071 1.85974L11.1213 8.32233C9.94975 9.47198 8.05025 9.47199 6.87868 8.32233L0.292893 1.85974C-0.0976311 1.47652 -0.0976311 0.855203 0.292893 0.471985Z" fill="#5078E6"/>
</svg>
