<svg width="19" height="15" viewBox="0 0 19 15" fill="none" xmlns="http://www.w3.org/2000/svg">
<path d="M17.7229 7.04132L11.425 0.7433C11.2452 0.563523 11.0056 0.464844 10.7501 0.464844C10.4944 0.464844 10.2549 0.563665 10.0751 0.7433L9.50331 1.31524C9.32367 1.49474 9.22471 1.73449 9.22471 1.99012C9.22471 2.2456 9.32367 2.49344 9.50331 2.67293L13.1774 6.35511H1.50463C0.978342 6.35511 0.5625 6.76712 0.5625 7.29355V8.10212C0.5625 8.62855 0.978342 9.08211 1.50463 9.08211H13.2191L9.50345 12.7848C9.32381 12.9646 9.22485 13.1978 9.22485 13.4535C9.22485 13.7088 9.32381 13.9455 9.50345 14.1251L10.0753 14.6952C10.255 14.875 10.4945 14.9729 10.7503 14.9729C11.0058 14.9729 11.2454 14.8737 11.4251 14.6939L17.723 8.39603C17.9032 8.21569 18.0023 7.97495 18.0016 7.71903C18.0022 7.46227 17.9032 7.22138 17.7229 7.04132Z" fill="white"/>
</svg>
