<svg width="9" height="9" viewBox="0 0 9 9" fill="none" xmlns="http://www.w3.org/2000/svg">
<path d="M5.70093 8.03416C5.70195 8.03316 5.70296 8.03213 5.70398 8.03111L8.85452 4.8847C8.87939 4.8597 8.90147 4.83207 8.92041 4.80232L8.96983 4.71172L8.99043 4.64995V4.60464C9.00319 4.53522 9.00319 4.46404 8.99043 4.3946V4.35343V4.30401L8.95336 4.23399C8.93217 4.19497 8.90586 4.15895 8.87512 4.1269L5.70398 0.968135C5.49414 0.756613 5.15254 0.755242 4.94101 0.965085C4.93999 0.966089 4.93899 0.967112 4.93796 0.968135C4.73453 1.18136 4.73453 1.5168 4.93796 1.73004L6.81594 3.61212C6.89555 3.69332 6.89427 3.8237 6.81306 3.90332C6.77528 3.94036 6.7247 3.96144 6.67179 3.96218L0.539554 3.96218C0.241584 3.96216 2.43783e-05 4.20368 4.35114e-06 4.50165C-1.47223e-05 4.79962 0.241507 5.04116 0.539477 5.0412C0.539497 5.0412 0.539535 5.0412 0.539554 5.0412L6.67179 5.0412C6.78549 5.0428 6.8764 5.13628 6.8748 5.24998C6.87404 5.30288 6.85298 5.35347 6.81594 5.39125L4.93796 7.26511C4.7319 7.47888 4.7319 7.81737 4.93796 8.03113C5.14781 8.24265 5.48941 8.24402 5.70093 8.03416Z" fill="#2D313F"/>
</svg>
