<svg width="81" height="67" fill="none" xmlns="http://www.w3.org/2000/svg"><path d="M66 19c5.523 0 10-4.253 10-9.5S71.523 0 66 0 56 4.253 56 9.5 60.477 19 66 19z" fill="url(#paint0_linear)"/><path d="M64.988 23C56.158 23 49 29.643 49 37.838v19.678c0 .822.713 1.484 1.599 1.484H79.4c.886 0 1.599-.662 1.599-1.484V37.838C80.975 29.666 73.818 23 64.988 23z" fill="url(#paint1_linear)"/><path d="M15 19c5.523 0 10-4.253 10-9.5S20.523 0 15 0 5 4.253 5 9.5 9.477 19 15 19z" fill="url(#paint2_linear)"/><path d="M15.988 23C7.158 23 0 29.643 0 37.838v19.678C0 58.338.713 59 1.599 59H30.4c.886 0 1.599-.662 1.599-1.484V37.838C31.975 29.666 24.818 23 15.988 23z" fill="url(#paint3_linear)"/><path fill-rule="evenodd" clip-rule="evenodd" d="M31 15c0-5.519 4.481-10 10-10s10 4.481 10 10-4.481 10-10 10-10-4.481-10-10zm16.226 0c0-3.443-2.806-6.226-6.226-6.226S34.774 11.557 34.774 15 37.58 21.226 41 21.226A6.22 6.22 0 0047.226 15z" fill="url(#paint4_linear)"/><path d="M40.62 29.793c-8.548 0-15.477 6.523-15.477 14.57v19.32c0 .807.69 1.457 1.548 1.457h27.88c.858 0 1.548-.65 1.548-1.457v-19.32c-.024-8.047-6.952-14.57-15.5-14.57z" fill="#fff"/><path fill-rule="evenodd" clip-rule="evenodd" d="M23.214 63.683c0 1.793 1.548 3.25 3.453 3.25H54.57c1.881 0 3.43-1.457 3.405-3.25v-19.32c0-9.011-7.81-16.363-17.38-16.363-9.572 0-17.382 7.33-17.382 16.362v19.32zm30.977-19.32v18.983H27.047V44.362c0-7.038 6.095-12.776 13.571-12.776s13.572 5.738 13.572 12.776z" fill="url(#paint5_linear)"/><defs><linearGradient id="paint0_linear" x1="56.007" y1="18.999" x2="75.998" y2="18.999" gradientUnits="userSpaceOnUse"><stop stop-color="#FFB300"/><stop offset="1" stop-color="#FF8E37"/></linearGradient><linearGradient id="paint1_linear" x1="48.996" y1="58.998" x2="80.985" y2="58.998" gradientUnits="userSpaceOnUse"><stop stop-color="#FFB300"/><stop offset="1" stop-color="#FF8E37"/></linearGradient><linearGradient id="paint2_linear" x1="5.002" y1="18.999" x2="24.993" y2="18.999" gradientUnits="userSpaceOnUse"><stop stop-color="#FFB300"/><stop offset="1" stop-color="#FF8E37"/></linearGradient><linearGradient id="paint3_linear" x1="-.009" y1="58.998" x2="31.98" y2="58.998" gradientUnits="userSpaceOnUse"><stop stop-color="#FFB300"/><stop offset="1" stop-color="#FF8E37"/></linearGradient><linearGradient id="paint4_linear" x1="31.005" y1="24.981" x2="50.995" y2="24.981" gradientUnits="userSpaceOnUse"><stop stop-color="#5C8BFC"/><stop offset="1" stop-color="#84B0FF"/></linearGradient><linearGradient id="paint5_linear" x1="23.232" y1="66.938" x2="58.007" y2="66.938" gradientUnits="userSpaceOnUse"><stop stop-color="#5C8BFC"/><stop offset="1" stop-color="#84B0FF"/></linearGradient></defs></svg>