<svg width="57" height="83" fill="none" xmlns="http://www.w3.org/2000/svg"><path d="M45.698 25.584c-6.334 0-11.465 5.13-11.465 11.414v8.008h-4.358V22.664h8.023c6.333 0 11.486-5.13 11.486-11.434V0H38.08c-6.333 0-11.465 5.129-11.465 11.414v25.462h-3.849v-8.008c0-6.304-5.152-11.413-11.465-11.413H0v11.231C0 34.991 5.152 40.12 11.486 40.12H26.615V55h3.259v-6.75h15.639C51.849 48.25 57 43.12 57 36.814v-11.23H45.698z" fill="url(#paint0_linear)"/><path fill-rule="evenodd" clip-rule="evenodd" d="M3.121 82.9V54.14H54.88v28.758H3.121zm9.594-25.537l-6.37 6.364h-.02v9.385l6.571 6.565h32.188l6.57-6.565v-9.365l-6.389-6.384h-32.55zm-6.37 22.133l.182.181h-.181v-.181zm45.29-.02l-.202.201h.201v-.201z" fill="url(#paint1_linear)"/><path fill-rule="evenodd" clip-rule="evenodd" d="M36.578 68.52c0 4.169-3.406 7.572-7.578 7.572a7.58 7.58 0 01-7.578-7.572c0-4.169 3.406-7.572 7.578-7.572 4.172 0 7.578 3.403 7.578 7.572zm-3.224 0A4.36 4.36 0 0029 64.17a4.346 4.346 0 00-4.353 4.35A4.36 4.36 0 0029 72.87a4.36 4.36 0 004.354-4.35z" fill="url(#paint2_linear)"/><defs><linearGradient id="paint0_linear" x1="56.991" y1="-.001" x2="-.008" y2="-.001" gradientUnits="userSpaceOnUse"><stop stop-color="#FFB300"/><stop offset="1" stop-color="#FF8E37"/></linearGradient><linearGradient id="paint1_linear" x1="3.111" y1="82.895" x2="54.87" y2="82.895" gradientUnits="userSpaceOnUse"><stop stop-color="#5C8BFC"/><stop offset="1" stop-color="#84B0FF"/></linearGradient><linearGradient id="paint2_linear" x1="21.407" y1="76.094" x2="36.575" y2="76.094" gradientUnits="userSpaceOnUse"><stop stop-color="#5C8BFC"/><stop offset="1" stop-color="#84B0FF"/></linearGradient></defs></svg>