<svg width="64" height="64" fill="none" xmlns="http://www.w3.org/2000/svg"><g filter="url(#filter0_d)"><path d="M32 48c8.837 0 16-7.163 16-16s-7.163-16-16-16-16 7.163-16 16 7.163 16 16 16z" fill="#1DA1F2"/><path d="M32 48c8.837 0 16-7.163 16-16s-7.163-16-16-16-16 7.163-16 16 7.163 16 16 16z" fill="url(#paint0_linear)"/></g><path d="M29.072 40.44c7.096 0 10.976-5.88 10.976-10.976 0-.168 0-.336-.008-.496a7.903 7.903 0 001.928-2 7.83 7.83 0 01-2.216.608 3.855 3.855 0 001.696-2.136c-.744.44-1.568.76-2.448.936a3.839 3.839 0 00-2.816-1.216 3.858 3.858 0 00-3.856 3.856c0 .304.032.6.104.88a10.943 10.943 0 01-7.952-4.032 3.87 3.87 0 00-.52 1.936c0 1.336.68 2.52 1.72 3.208a3.79 3.79 0 01-1.744-.48v.048a3.862 3.862 0 003.096 3.784 3.846 3.846 0 01-1.744.064 3.852 3.852 0 003.6 2.68 7.754 7.754 0 01-5.712 1.592 10.748 10.748 0 005.896 1.744z" fill="#fff"/><defs><linearGradient id="paint0_linear" x1="32" y1="16" x2="32" y2="48" gradientUnits="userSpaceOnUse"><stop stop-color="#5EC2FF"/><stop offset="1" stop-color="#1DA1F2"/></linearGradient><filter id="filter0_d" x="8" y="12" width="48" height="48" filterUnits="userSpaceOnUse" color-interpolation-filters="sRGB"><feFlood flood-opacity="0" result="BackgroundImageFix"/><feColorMatrix in="SourceAlpha" values="0 0 0 0 0 0 0 0 0 0 0 0 0 0 0 0 0 0 127 0"/><feOffset dy="4"/><feGaussianBlur stdDeviation="4"/><feColorMatrix values="0 0 0 0 0.113725 0 0 0 0 0.631373 0 0 0 0 0.94902 0 0 0 0.3 0"/><feBlend in2="BackgroundImageFix" result="effect1_dropShadow"/><feBlend in="SourceGraphic" in2="effect1_dropShadow" result="shape"/></filter></defs></svg>