<svg width="64" height="67" fill="none" xmlns="http://www.w3.org/2000/svg"><path d="M6 0v60h52V0H6z" fill="url(#paint0_linear)"/><path fill-rule="evenodd" clip-rule="evenodd" d="M2.113 4h59.774C63.046 4 64 4.905 64 6.045V64.72c0 1.274-1.056 2.28-2.317 2.28H2.317C1.022 67 0 65.96 0 64.72V6.08C0 4.939.954 4 2.113 4zm1.26 59.647H60.66V13.254H3.374v50.393z" fill="url(#paint1_linear)"/><path d="M4.5 10a1.5 1.5 0 100-3 1.5 1.5 0 000 3zM10.5 10a1.5 1.5 0 100-3 1.5 1.5 0 000 3zM15.5 10a1.5 1.5 0 100-3 1.5 1.5 0 000 3z" fill="#fff"/><path fill-rule="evenodd" clip-rule="evenodd" d="M22.454 31h20.092C43.906 31 45 32.125 45 33.523v15.954C45 50.875 43.906 52 42.546 52H22.454C21.094 52 20 50.875 20 49.477V33.523C20 32.125 21.094 31 22.454 31zm11.604 15.375v-4.33c.73-.511 1.227-1.397 1.26-2.42 0-1.636-1.293-2.932-2.851-2.932-1.592 0-2.851 1.33-2.851 2.932 0 1.023.497 1.909 1.26 2.42v4.33h3.182z" fill="#fff"/><path d="M40.206 35c-.95 0-1.725-.789-1.725-1.757v-5.416c0-3.335-2.568-6.168-5.84-6.276-3.413-.107-6.193 2.69-6.193 6.133v5.559c0 .968-.774 1.757-1.724 1.757S23 34.211 23 33.243v-5.38c0-5.415 4.363-9.934 9.676-9.862 5.172.107 9.324 4.411 9.324 9.683v5.559c-.07.968-.844 1.757-1.794 1.757z" fill="#fff"/><defs><linearGradient id="paint0_linear" x1="6.009" y1="60.011" x2="58.026" y2="60.011" gradientUnits="userSpaceOnUse"><stop stop-color="#FFB833"/><stop offset="1" stop-color="#FF964D"/></linearGradient><linearGradient id="paint1_linear" x1=".075" y1="66.434" x2="62.932" y2="66.434" gradientUnits="userSpaceOnUse"><stop stop-color="#658BF5"/><stop offset="1" stop-color="#8DB0FF"/></linearGradient></defs></svg>