<svg width="633" height="557" viewBox="0 0 633 557" fill="none" xmlns="http://www.w3.org/2000/svg">
<path d="M353.266 428.265L339.886 420.635C308.579 402.716 282.162 375.28 263.55 341.157C244.766 306.691 234.816 266.909 234.816 226.099V220.012C234.816 214.696 237.561 209.723 242.107 206.894C275.472 186.06 313.897 175 353.266 175C392.635 175 431.06 186.06 464.425 206.894C468.97 209.723 471.715 214.61 471.715 220.012V226.099C471.715 266.909 461.766 306.777 442.982 341.157C424.37 375.28 398.038 402.716 366.646 420.635L353.266 428.265ZM353.266 188.718C316.47 188.718 280.618 199.006 249.397 218.554C248.883 218.897 248.625 219.411 248.625 220.012V226.099C248.625 264.68 257.975 302.233 275.643 334.641C292.969 366.535 317.585 392.085 346.747 408.717L353.266 412.49L359.784 408.717C388.946 392.085 413.477 366.449 430.888 334.641C448.557 302.233 457.906 264.68 457.906 226.099V220.012C457.906 219.411 457.563 218.897 457.134 218.554C425.914 199.006 390.061 188.718 353.266 188.718Z" fill="#FAF7F5"/>
<path d="M350.693 329.411C348.977 329.411 347.262 328.725 345.975 327.525L308.665 291.944C305.92 289.287 305.835 285 308.408 282.256C311.067 279.513 315.355 279.427 318.1 281.999L349.32 311.835L388.689 249.419C390.748 246.247 394.95 245.218 398.124 247.276C401.297 249.333 402.327 253.534 400.268 256.707L356.525 326.239C355.41 327.954 353.609 329.154 351.55 329.411C351.207 329.411 350.95 329.411 350.693 329.411Z" fill="#FAF7F5"/>
</svg>
