<svg width="633" height="557" fill="none" xmlns="http://www.w3.org/2000/svg"><path d="M353.266 428.265l-13.38-7.63c-31.307-17.919-57.724-45.355-76.336-79.478-18.784-34.466-28.734-74.248-28.734-115.058v-6.087a15.461 15.461 0 017.291-13.118C275.472 186.06 313.897 175 353.266 175s77.794 11.06 111.159 31.894c4.545 2.829 7.29 7.716 7.29 13.118v6.087c0 40.81-9.949 80.678-28.733 115.058-18.612 34.123-44.944 61.559-76.336 79.478l-13.38 7.63zm0-239.547c-36.796 0-72.648 10.288-103.869 29.836-.514.343-.772.857-.772 1.458v6.087c0 38.581 9.35 76.134 27.018 108.542 17.326 31.894 41.942 57.444 71.104 74.076l6.519 3.773 6.518-3.773c29.162-16.632 53.693-42.268 71.104-74.076 17.669-32.408 27.018-69.961 27.018-108.542v-6.087c0-.601-.343-1.115-.772-1.458-31.22-19.548-67.073-29.836-103.868-29.836z" fill="#FAF7F5"/><path d="M350.693 329.411c-1.716 0-3.431-.686-4.718-1.886l-37.31-35.581a6.884 6.884 0 01-.257-9.688 6.891 6.891 0 019.692-.257l31.22 29.836 39.369-62.416c2.059-3.172 6.261-4.201 9.435-2.143 3.173 2.057 4.203 6.258 2.144 9.431l-43.743 69.532c-1.115 1.715-2.916 2.915-4.975 3.172h-.857z" fill="#FAF7F5"/></svg>