<svg width="101" height="101" viewBox="0 0 101 101" fill="none" xmlns="http://www.w3.org/2000/svg">
<circle cx="50.7116" cy="50.9767" r="24.1667" fill="#C3D8F7"/>
<path fill-rule="evenodd" clip-rule="evenodd" d="M50.7103 23.4764C35.5225 23.4764 23.2103 35.7886 23.2103 50.9764C23.2103 66.1642 35.5225 78.4764 50.7103 78.4764C65.8981 78.4764 78.2103 66.1642 78.2103 50.9764C78.2103 35.7886 65.8981 23.4764 50.7103 23.4764ZM19.877 50.9764C19.877 33.9476 33.6815 20.1431 50.7103 20.1431C67.7391 20.1431 81.5436 33.9476 81.5436 50.9764C81.5436 68.0052 67.7391 81.8097 50.7103 81.8097C33.6815 81.8097 19.877 68.0052 19.877 50.9764Z" fill="#C3D8F7"/>
<path d="M59.5331 39.7982C60.184 39.1473 61.2392 39.1473 61.8901 39.7982C62.541 40.4491 62.541 41.5044 61.8901 42.1552L53.0686 50.9767L61.8901 59.7982C62.541 60.4491 62.541 61.5044 61.8901 62.1552C61.2392 62.8061 60.184 62.8061 59.5331 62.1552L50.7116 53.3337L41.8901 62.1552C41.2392 62.8061 40.184 62.8061 39.5331 62.1552C38.8822 61.5044 38.8822 60.4491 39.5331 59.7982L48.3546 50.9767L39.5331 42.1552C38.8822 41.5044 38.8822 40.4491 39.5331 39.7982C40.184 39.1473 41.2392 39.1473 41.8901 39.7982L50.7116 48.6197L59.5331 39.7982Z" fill="white"/>
</svg>
