<svg width="117" height="92" viewBox="0 0 117 92" fill="none" xmlns="http://www.w3.org/2000/svg">
<g clip-path="url(#clip0_4136_8048)">
<path d="M100.605 37.4067C105.401 33.438 108.323 29.1827 107.133 27.9023C105.943 26.6219 101.091 28.8012 96.2956 32.77C91.5005 36.7387 88.5781 40.994 89.7682 42.2744C90.9583 43.5548 95.8103 41.3755 100.605 37.4067Z" fill="#94BCFA"/>
<path d="M91.6165 44.2632L89.7656 42.274L107.028 27.8164L108.844 30.0055C108.844 30.0055 105.425 39.5709 91.7375 44.3917" fill="#94BCFA"/>
<path d="M100.005 36.7593C104.063 33.4006 106.616 29.8849 105.707 28.9068C104.798 27.9287 100.771 29.8586 96.713 33.2173C92.6549 36.576 90.1022 40.0917 91.0113 41.0698C91.9204 42.0479 95.9471 40.118 100.005 36.7593Z" fill="#A8C8F5"/>
<path d="M91.0977 42.3262L92.4643 43.7967" stroke="#5984E4" stroke-opacity="0.8" stroke-width="1.15" stroke-miterlimit="10" stroke-linecap="round"/>
<path d="M92.5801 42.0117L93.7753 43.3014" stroke="#5984E4" stroke-opacity="0.8" stroke-width="1.15" stroke-miterlimit="10" stroke-linecap="round"/>
<path d="M93.7695 41.4404L94.9648 42.7253" stroke="#5984E4" stroke-opacity="0.8" stroke-width="1.15" stroke-miterlimit="10" stroke-linecap="round"/>
<path d="M95.041 40.874L96.2362 42.1589" stroke="#5984E4" stroke-opacity="0.8" stroke-width="1.15" stroke-miterlimit="10" stroke-linecap="round"/>
<path d="M96.2812 40.1943L97.4765 41.484" stroke="#5984E4" stroke-opacity="0.8" stroke-width="1.15" stroke-miterlimit="10" stroke-linecap="round"/>
<path d="M97.6641 39.3516L98.8593 40.6412" stroke="#5984E4" stroke-opacity="0.8" stroke-width="1.15" stroke-miterlimit="10" stroke-linecap="round"/>
<path d="M99.1758 38.3564L100.371 39.6461" stroke="#5984E4" stroke-opacity="0.8" stroke-width="1.15" stroke-miterlimit="10" stroke-linecap="round"/>
<path d="M100.549 37.3389L101.744 38.6285" stroke="#5984E4" stroke-opacity="0.8" stroke-width="1.15" stroke-miterlimit="10" stroke-linecap="round"/>
<path d="M101.93 36.0771L103.13 37.3621" stroke="#5984E4" stroke-opacity="0.8" stroke-width="1.15" stroke-miterlimit="10" stroke-linecap="round"/>
<path d="M103.176 34.793L104.371 36.0779" stroke="#5984E4" stroke-opacity="0.8" stroke-width="1.15" stroke-miterlimit="10" stroke-linecap="round"/>
<path d="M104.34 33.5264L105.535 34.816" stroke="#5984E4" stroke-opacity="0.8" stroke-width="1.15" stroke-miterlimit="10" stroke-linecap="round"/>
<path d="M105.375 32.2041L106.57 33.4938" stroke="#5984E4" stroke-opacity="0.8" stroke-width="1.15" stroke-miterlimit="10" stroke-linecap="round"/>
<path d="M106.191 30.8564L107.387 32.1461" stroke="#5984E4" stroke-opacity="0.8" stroke-width="1.15" stroke-miterlimit="10" stroke-linecap="round"/>
<path d="M107.084 29.2812L108.284 30.5662" stroke="#5984E4" stroke-opacity="0.8" stroke-width="1.15" stroke-miterlimit="10" stroke-linecap="round"/>
</g>
<g clip-path="url(#clip1_4136_8048)">
<path d="M38.6647 33.3867C39.186 27.1082 38.1684 21.8989 36.3918 21.7513C34.6151 21.6038 32.7523 26.574 32.231 32.8525C31.7097 39.131 32.7273 44.3403 34.504 44.4878C36.2806 44.6353 38.1434 39.6652 38.6647 33.3867Z" fill="#94BCFA"/>
<path d="M37.2622 44.7164L34.5007 44.4886L36.2539 21.7579L39.1356 22.1605C39.1356 22.1605 43.6614 31.709 37.4416 44.7301" fill="#94BCFA"/>
<path d="M37.7662 33.3117C38.2074 27.9983 37.4648 23.5995 36.1077 23.4869C34.7505 23.3742 33.2927 27.5902 32.8515 32.9036C32.4104 38.217 33.1529 42.6158 34.5101 42.7284C35.8672 42.8411 37.325 38.6251 37.7662 33.3117Z" fill="#A8C8F5"/>
<path d="M35.4844 43.6152L37.5247 43.7847" stroke="#5984E4" stroke-opacity="0.8" stroke-width="1.15" stroke-miterlimit="10" stroke-linecap="round"/>
<path d="M36.3105 42.3613L38.0975 42.5123" stroke="#5984E4" stroke-opacity="0.8" stroke-width="1.15" stroke-miterlimit="10" stroke-linecap="round"/>
<path d="M36.7402 41.1143L38.5238 41.2616" stroke="#5984E4" stroke-opacity="0.8" stroke-width="1.15" stroke-miterlimit="10" stroke-linecap="round"/>
<path d="M37.2305 39.8164L39.014 39.9638" stroke="#5984E4" stroke-opacity="0.8" stroke-width="1.15" stroke-miterlimit="10" stroke-linecap="round"/>
<path d="M37.6191 38.4521L39.4061 38.6031" stroke="#5984E4" stroke-opacity="0.8" stroke-width="1.15" stroke-miterlimit="10" stroke-linecap="round"/>
<path d="M37.9883 36.8701L39.7753 37.0211" stroke="#5984E4" stroke-opacity="0.8" stroke-width="1.15" stroke-miterlimit="10" stroke-linecap="round"/>
<path d="M38.3398 35.083L40.1268 35.234" stroke="#5984E4" stroke-opacity="0.8" stroke-width="1.15" stroke-miterlimit="10" stroke-linecap="round"/>
<path d="M38.5742 33.375L40.3612 33.526" stroke="#5984E4" stroke-opacity="0.8" stroke-width="1.15" stroke-miterlimit="10" stroke-linecap="round"/>
<path d="M38.6387 31.4775L40.4258 31.6215" stroke="#5984E4" stroke-opacity="0.8" stroke-width="1.15" stroke-miterlimit="10" stroke-linecap="round"/>
<path d="M38.5898 29.6553L40.3734 29.8027" stroke="#5984E4" stroke-opacity="0.8" stroke-width="1.15" stroke-miterlimit="10" stroke-linecap="round"/>
<path d="M38.4961 27.9023L40.2831 28.0533" stroke="#5984E4" stroke-opacity="0.8" stroke-width="1.15" stroke-miterlimit="10" stroke-linecap="round"/>
<path d="M38.2695 26.1973L40.0565 26.3482" stroke="#5984E4" stroke-opacity="0.8" stroke-width="1.15" stroke-miterlimit="10" stroke-linecap="round"/>
<path d="M37.8711 24.6221L39.6581 24.773" stroke="#5984E4" stroke-opacity="0.8" stroke-width="1.15" stroke-miterlimit="10" stroke-linecap="round"/>
<path d="M37.3594 22.8242L39.1465 22.9681" stroke="#5984E4" stroke-opacity="0.8" stroke-width="1.15" stroke-miterlimit="10" stroke-linecap="round"/>
</g>
<g clip-path="url(#clip2_4136_8048)">
<path d="M11.5896 59.9098C6.7922 56.8786 2.20777 55.5217 1.35001 56.8792C0.492256 58.2368 3.68599 61.7946 8.48341 64.8259C13.2808 67.8571 17.8653 69.214 18.723 67.8564C19.5808 66.4989 16.387 62.9411 11.5896 59.9098Z" fill="#94BCFA"/>
<path d="M20.0534 65.7488L18.7212 67.8594L1.29674 56.9922L2.81849 54.8583C2.81849 54.8583 12.3297 55.2204 20.139 65.6112" fill="#94BCFA"/>
<path d="M11.1543 60.5959C7.09432 58.0305 3.27186 56.7916 2.61663 57.8286C1.9614 58.8656 4.72152 61.7858 8.78152 64.3512C12.8415 66.9165 16.664 68.1554 17.3192 67.1184C17.9744 66.0814 15.2143 63.1612 11.1543 60.5959Z" fill="#A8C8F5"/>
<path d="M18.4336 66.709L19.4187 65.15" stroke="#5984E4" stroke-opacity="0.8" stroke-width="1.15" stroke-miterlimit="10" stroke-linecap="round"/>
<path d="M17.7754 65.5283L18.6402 64.164" stroke="#5984E4" stroke-opacity="0.8" stroke-width="1.15" stroke-miterlimit="10" stroke-linecap="round"/>
<path d="M16.959 64.665L17.8195 63.302" stroke="#5984E4" stroke-opacity="0.8" stroke-width="1.15" stroke-miterlimit="10" stroke-linecap="round"/>
<path d="M16.127 63.7314L16.9875 62.3684" stroke="#5984E4" stroke-opacity="0.8" stroke-width="1.15" stroke-miterlimit="10" stroke-linecap="round"/>
<path d="M15.1992 62.8545L16.0641 61.4901" stroke="#5984E4" stroke-opacity="0.8" stroke-width="1.15" stroke-miterlimit="10" stroke-linecap="round"/>
<path d="M14.0898 61.9014L14.9547 60.537" stroke="#5984E4" stroke-opacity="0.8" stroke-width="1.15" stroke-miterlimit="10" stroke-linecap="round"/>
<path d="M12.8086 60.876L13.6734 59.5116" stroke="#5984E4" stroke-opacity="0.8" stroke-width="1.15" stroke-miterlimit="10" stroke-linecap="round"/>
<path d="M11.541 59.9775L12.4059 58.6132" stroke="#5984E4" stroke-opacity="0.8" stroke-width="1.15" stroke-miterlimit="10" stroke-linecap="round"/>
<path d="M10.0527 59.1348L10.912 57.7674" stroke="#5984E4" stroke-opacity="0.8" stroke-width="1.15" stroke-miterlimit="10" stroke-linecap="round"/>
<path d="M8.57812 58.415L9.43866 57.052" stroke="#5984E4" stroke-opacity="0.8" stroke-width="1.15" stroke-miterlimit="10" stroke-linecap="round"/>
<path d="M7.13867 57.7598L8.00351 56.3954" stroke="#5984E4" stroke-opacity="0.8" stroke-width="1.15" stroke-miterlimit="10" stroke-linecap="round"/>
<path d="M5.68164 57.2314L6.54648 55.8671" stroke="#5984E4" stroke-opacity="0.8" stroke-width="1.15" stroke-miterlimit="10" stroke-linecap="round"/>
<path d="M4.25781 56.8936L5.12265 55.5292" stroke="#5984E4" stroke-opacity="0.8" stroke-width="1.15" stroke-miterlimit="10" stroke-linecap="round"/>
<path d="M2.60938 56.5527L3.46864 55.1853" stroke="#5984E4" stroke-opacity="0.8" stroke-width="1.15" stroke-miterlimit="10" stroke-linecap="round"/>
</g>
<g clip-path="url(#clip3_4136_8048)">
<path d="M61.9635 29.691L59.125 25.8164L55.5272 28.8732L58.3657 32.7479L61.9635 29.691Z" fill="#3E6DF9"/>
</g>
<g clip-path="url(#clip4_4136_8048)">
<path d="M111.809 79.3601L107.879 74.6553L102.897 78.3672L106.828 83.072L111.809 79.3601Z" fill="#3E6DF9"/>
</g>
<g clip-path="url(#clip5_4136_8048)">
<path d="M116.259 50.0697L114 47.6182L111.527 49.863L113.786 52.3146L116.259 50.0697Z" fill="#3E6DF9"/>
</g>
<g clip-path="url(#clip6_4136_8048)">
<path d="M12.3623 32.2748L8.01758 30.4912L6.19845 34.8303L10.5432 36.6139L12.3623 32.2748Z" fill="#3E6DF9"/>
</g>
<path d="M77.1074 29.5184C79.167 27.1416 84.9854 22.0128 91.7821 20.5117" stroke="#3E6DF9" stroke-width="3" stroke-linecap="round"/>
<path d="M71.4938 1.50023C70.2802 2.63701 67.4408 5.81348 65.7914 9.42513" stroke="#3E6DF9" stroke-width="3" stroke-linecap="round"/>
<path d="M33.9629 3.97949C35.5641 4.73265 39.095 7.12602 40.4097 10.6742" stroke="#3E6DF9" stroke-width="3" stroke-linecap="round"/>
<circle cx="58.4985" cy="77.1245" r="14.3813" fill="#DFE3F0"/>
<circle cx="58.4985" cy="77.1245" r="14.3813" fill="url(#paint0_linear_4136_8048)"/>
<path d="M50.0684 78.1161L52.6949 80.7427C54.257 82.3048 56.7897 82.3048 58.3518 80.7427L66.4333 72.6611" stroke="white" stroke-width="3" stroke-linecap="round" stroke-linejoin="round"/>
<defs>
<linearGradient id="paint0_linear_4136_8048" x1="44.1172" y1="62.7432" x2="72.8798" y2="91.5058" gradientUnits="userSpaceOnUse">
<stop stop-color="#78A0FF"/>
<stop offset="1" stop-color="#5078E6"/>
</linearGradient>
<clipPath id="clip0_4136_8048">
<rect width="19.3404" height="16.8608" fill="white" transform="translate(89.5039 27.5352)"/>
</clipPath>
<clipPath id="clip1_4136_8048">
<rect width="19.1035" height="17.6489" fill="white" transform="translate(23.5977 33.5713) rotate(-43.9998)"/>
</clipPath>
<clipPath id="clip2_4136_8048">
<rect width="17.2075" height="15.8973" fill="white" transform="translate(5.46094 72.0205) rotate(-106.459)"/>
</clipPath>
<clipPath id="clip3_4136_8048">
<rect width="6.44679" height="6.9427" fill="white" transform="translate(55.5254 25.8096)"/>
</clipPath>
<clipPath id="clip4_4136_8048">
<rect width="8.92632" height="8.43042" fill="white" transform="translate(102.895 74.6465)"/>
</clipPath>
<clipPath id="clip5_4136_8048">
<rect width="4.71187" height="4.67595" fill="white" transform="translate(111.375 47.8047) rotate(-4.17573)"/>
</clipPath>
<clipPath id="clip6_4136_8048">
<rect width="6.63812" height="6.58753" fill="white" transform="translate(4.7793 32.2939) rotate(-29.1961)"/>
</clipPath>
</defs>
</svg>
