<svg width="77" height="77" viewBox="0 0 77 77" fill="none" xmlns="http://www.w3.org/2000/svg">
<path d="M38.4488 67.795C54.6568 67.795 67.796 54.6558 67.796 38.4478C67.796 22.2398 54.6568 9.10059 38.4488 9.10059C22.2407 9.10059 9.10156 22.2398 9.10156 38.4478C9.10156 54.6558 22.2407 67.795 38.4488 67.795Z" fill="#3071EE" fill-opacity="0.5"/>
<path d="M38.448 76.896C17.2512 76.896 0 59.6448 0 38.448C0 17.2512 17.2512 0 38.448 0C59.6448 0 76.896 17.2512 76.896 38.448C76.896 59.6448 59.6448 76.896 38.448 76.896ZM38.448 4.608C19.7856 4.608 4.608 19.7856 4.608 38.448C4.608 57.1104 19.7856 72.288 38.448 72.288C57.1104 72.288 72.288 57.1104 72.288 38.448C72.288 19.7856 57.1104 4.608 38.448 4.608Z" fill="#3071EE" fill-opacity="0.5"/>
<path d="M53.9991 28.8581C53.3079 27.7925 51.8967 27.4469 50.8311 28.1381L40.7799 34.4741V13.7669C40.7799 12.4997 39.7431 11.4629 38.4759 11.4629C37.2087 11.4629 36.1719 12.4997 36.1719 13.7669V38.4485C36.1719 39.7157 37.2087 40.7525 38.4759 40.7525C38.8791 40.7525 39.2823 40.6373 39.5991 40.4645C39.8871 40.4069 40.1463 40.3205 40.4055 40.1477L53.2791 32.0549C54.3447 31.3637 54.6615 29.9525 53.9991 28.8581Z" fill="white"/>
</svg>
