<svg width="60" height="61" viewBox="0 0 60 61" fill="none" xmlns="http://www.w3.org/2000/svg">
<path d="M30.0004 53.1464C42.6471 53.1464 52.8993 42.8942 52.8993 30.2475C52.8993 17.6008 42.6471 7.34863 30.0004 7.34863C17.3537 7.34863 7.10156 17.6008 7.10156 30.2475C7.10156 42.8942 17.3537 53.1464 30.0004 53.1464Z" fill="#3071EE" fill-opacity="0.3"/>
<path d="M30 30.2475L49.573 18.3374C45.5506 11.7531 38.2921 7.34863 30 7.34863V30.2475Z" fill="#3071EE" fill-opacity="0.3"/>
<path d="M30 60.248C13.4607 60.248 0 46.7874 0 30.248C0 13.7087 13.4607 0.248047 30 0.248047C46.5393 0.248047 60 13.7087 60 30.248C60 46.7874 46.5393 60.248 30 60.248ZM30 3.84355C15.4382 3.84355 3.59551 15.6862 3.59551 30.248C3.59551 44.8098 15.4382 56.6525 30 56.6525C44.5618 56.6525 56.4045 44.8098 56.4045 30.248C56.4045 15.6862 44.5618 3.84355 30 3.84355Z" fill="#3071EE" fill-opacity="0.3"/>
<path d="M42.1328 22.7654C41.5934 21.934 40.4923 21.6643 39.6609 22.2036L31.8182 27.1474V10.9901C31.8182 10.0014 31.0092 9.19238 30.0204 9.19238C29.0316 9.19238 28.2227 10.0014 28.2227 10.9901V30.2486C28.2227 31.2373 29.0316 32.0463 30.0204 32.0463C30.335 32.0463 30.6496 31.9564 30.8968 31.8216C31.1215 31.7766 31.3238 31.7092 31.526 31.5744L41.571 25.2598C42.4024 24.7205 42.6496 23.6193 42.1328 22.7654Z" fill="white"/>
</svg>
