<svg width="64" height="54" viewBox="0 0 65 56" fill="none" xmlns="http://www.w3.org/2000/svg">
<path d="M32.1829 55.0808C45.7599 55.0808 56.7663 44.6244 56.7663 31.7257C56.7663 18.827 45.7599 8.37061 32.1829 8.37061C18.6059 8.37061 7.59961 18.827 7.59961 31.7257C7.59961 44.6244 18.6059 55.0808 32.1829 55.0808Z" fill="#C3D8F7"/>
<path d="M30.3791 27.9835L44.252 22.3944C44.8771 22.1455 45.5743 22.417 45.8388 22.9827C46.0552 23.4579 45.8869 24.0236 45.4782 24.3178L33.649 33.1201C32.2545 34.1609 30.2349 33.9347 29.1289 32.6222C28.0229 31.3098 28.2634 29.4091 29.6579 28.3682C29.8742 28.2324 30.1387 28.0966 30.3791 27.9835Z" fill="white"/>
<path d="M53.4917 54.2617C53.0107 54.2617 52.5056 54.0765 52.1208 53.7292C51.3752 53.0116 51.3752 51.831 52.1208 51.1134C57.46 45.9743 60.3941 39.1684 60.3941 31.8996C60.3941 16.9222 47.7436 4.72261 32.1589 4.72261C16.5742 4.72261 3.94769 16.899 3.94769 31.8765C3.94769 39.1222 6.88184 45.9511 12.221 51.0902C12.9666 51.8078 12.9666 52.9885 12.221 53.7061C11.4755 54.4237 10.2489 54.4237 9.50334 53.7061C3.44263 47.8725 0.0996094 40.1176 0.0996094 31.8765C0.0996094 14.8619 14.4818 0.995605 32.1829 0.995605C49.8841 0.995605 64.2663 14.8388 64.2663 31.8765C64.2663 40.1176 60.9233 47.8725 54.8625 53.7061C54.4777 54.0765 53.9967 54.2617 53.4917 54.2617Z" fill="#3071EE"/>
</svg>
