<svg width="178" height="36" fill="none" xmlns="http://www.w3.org/2000/svg"><path fill-rule="evenodd" clip-rule="evenodd" d="M18 8.137l-6.991 6.99L6.94 11.06 18 0l11.063 11.063-4.068 4.068L18 8.137zm-9.864 9.862l-4.068-4.067L0 18l4.068 4.068 4.068-4.069zm2.873 2.873l6.99 6.991 6.995-6.994 4.07 4.066-.001.002L18 36 6.94 24.94l-.005-.005 4.074-4.063zm20.923 1.197L36 18.001l-4.068-4.068-4.068 4.069 4.068 4.067z" fill="#B5B5B5"/><path fill-rule="evenodd" clip-rule="evenodd" d="M151.07 28c-1.382 0-2.665-.245-3.85-.735a9.467 9.467 0 01-3.069-2.007 9.106 9.106 0 01-2.019-3.005 9.458 9.458 0 01-.727-3.7V18.5c0-1.312.242-2.541.727-3.687a9.443 9.443 0 012.019-3.018c.861-.866 1.893-1.549 3.096-2.047 1.202-.499 2.531-.748 3.985-.748.879 0 1.682.07 2.409.21.727.14 1.386.332 1.979.577.579.238 1.13.537 1.642.892.499.347.967.734 1.4 1.155l-2.638 2.966c-.737-.647-1.486-1.155-2.248-1.522-.764-.368-1.62-.551-2.572-.551-.789 0-1.521.148-2.193.446a5.185 5.185 0 00-1.737 1.233 5.713 5.713 0 00-1.131 1.824 6.06 6.06 0 00-.403 2.218v.052c0 .787.134 1.53.403 2.23s.641 1.312 1.117 1.837c.476.525 1.05.94 1.723 1.247a5.3 5.3 0 002.221.46c1.078 0 1.988-.193 2.733-.578.745-.385 1.486-.91 2.221-1.575l2.639 2.598c-.467.491-.971.948-1.508 1.365a8.998 8.998 0 01-1.71 1.037 9.021 9.021 0 01-2.032.656c-.737.148-1.562.223-2.477.223zM106.849 9.184h-3.822l-8.078 18.501h4.228l1.723-4.12h7.969l1.723 4.12h4.335l-8.078-18.501zm-64.741.13h8.734c2.168 0 3.807.543 4.918 1.628.86.84 1.29 1.88 1.29 3.123v.052c0 .525-.067.989-.2 1.391a4.278 4.278 0 01-.536 1.089 4.187 4.187 0 01-.776.853c-.291.243-.61.455-.95.63 1.09.403 1.948.949 2.574 1.64.625.691.938 1.65.938 2.874v.052c0 .84-.166 1.575-.497 2.205a4.32 4.32 0 01-1.425 1.574c-.618.42-1.362.735-2.231.945-.87.21-1.832.315-2.889.315h-8.95V9.315zM22.15 18.24h.001l-4.075-3.972-3.012 2.935-.346.338-.713.695-.006.006.006.005 4.071 3.97 4.075-3.973.002-.002-.003-.002zm29.999-1.958c-.538.307-1.265.46-2.181.46h-3.823v-3.884h4.092c.88 0 1.552.162 2.02.485.466.324.7.792.7 1.404v.053c0 .682-.27 1.176-.808 1.482zm-1.077 7.86c.915 0 1.633-.161 2.154-.485.52-.324.78-.827.78-1.51v-.051c0-.613-.242-1.098-.726-1.457-.485-.358-1.266-.538-2.343-.538h-4.792v4.042h4.927zM67.448 9.315h-4.146v18.37h4.146V9.315zm6.28 0h3.823l8.83 11.31V9.316h4.093v18.37h-3.527L77.82 16.007v11.678h-4.092V9.315zm33.66 10.68l-2.504-5.956-2.503 5.957h5.007zm15.838-10.68h-3.824v18.37h4.093V16.007l9.127 11.678h3.527V9.315h-4.093v11.31l-8.83-11.31zm54.639 0h-14.189v18.37H178V24.09h-10.231v-3.858h8.885v-3.595h-8.885V12.91h10.096V9.315z" fill="#B5B5B5"/></svg>