<svg width="148" height="34" fill="none" xmlns="http://www.w3.org/2000/svg"><g clip-path="url(#clip0)" fill="#B5B5B5"><path d="M0 33.399h128.119v-3.355H0v3.355zM136.999 33.399H148v-3.355h-11.001v3.355zM24.962 24.963h4.589V7.696h-4.588v17.267zm-.443-22.25c0-.789.246-1.43.789-1.973C25.8.247 26.492 0 27.28 0c.839 0 1.48.247 1.974.74.493.493.789 1.135.789 1.973 0 .79-.247 1.431-.79 1.974-.493.493-1.184.74-1.973.74-.79 0-1.43-.247-1.973-.74-.543-.494-.79-1.184-.79-1.974zM40.108 7.647h4.687V11.1h-4.687v8.288c0 .74.197 1.332.641 1.776.444.444.987.69 1.727.69.641 0 1.381-.098 2.17-.295l.593 3.404c-1.332.345-2.615.542-3.848.542a6.922 6.922 0 01-2.319-.394c-.69-.247-1.283-.642-1.825-1.135a5.6 5.6 0 01-1.184-1.776c-.296-.69-.395-1.43-.395-2.27V11.2h-3.157V7.745h3.157V2.664h4.39v4.983h.05zM47.508 12.432c0-.74.148-1.48.494-2.121a6.246 6.246 0 011.332-1.678 6.892 6.892 0 012.072-1.085 9.14 9.14 0 012.664-.395c.986 0 2.022.099 3.058.296a20.87 20.87 0 013.207.888l-.987 3.256a16.436 16.436 0 00-2.516-.789 10.362 10.362 0 00-2.368-.296c-.789 0-1.43.148-1.924.493-.493.346-.69.79-.69 1.382 0 .542.246.937.69 1.184.444.246.987.493 1.678.69.69.198 1.381.395 2.17.543a7.72 7.72 0 012.171.888c.69.395 1.233.937 1.677 1.579.444.69.691 1.578.691 2.664 0 .789-.148 1.48-.493 2.17a5.77 5.77 0 01-1.382 1.727c-.592.493-1.282.839-2.17 1.135a9.836 9.836 0 01-2.763.394c-2.121 0-4.39-.444-6.759-1.381l.938-3.207c2.022.839 3.848 1.234 5.476 1.234.838 0 1.529-.198 2.022-.543.494-.345.74-.839.74-1.48 0-.543-.246-.937-.69-1.233-.444-.296-.987-.543-1.678-.74a64.902 64.902 0 00-2.17-.592 8.377 8.377 0 01-2.171-.888 4.995 4.995 0 01-1.677-1.53c-.444-.592-.642-1.48-.642-2.565zM70.152 7.647h4.687V11.1h-4.687v8.288c0 .74.197 1.332.641 1.776.444.444.987.69 1.727.69.641 0 1.381-.098 2.17-.295l.593 3.404c-1.332.345-2.615.542-3.848.542a6.923 6.923 0 01-2.319-.394c-.69-.247-1.283-.642-1.825-1.135-.543-.493-.888-1.085-1.184-1.776-.296-.69-.395-1.43-.395-2.27V11.2h-3.157V7.745h3.157V2.664h4.39v4.983h.05zM82.09 19.684c0 .69.297 1.283.84 1.776.591.493 1.282.74 2.12.74 1.185 0 2.122-.395 2.862-1.135.74-.74 1.085-1.726 1.085-2.91v-1.036c-.838-.247-1.775-.346-2.811-.346-1.283 0-2.27.247-3.01.79a2.53 2.53 0 00-1.085 2.121zm-4.291.247c0-1.826.69-3.256 2.072-4.243 1.381-.987 3.305-1.48 5.821-1.48.543 0 1.086.05 1.628.099.543.05 1.135.148 1.678.246v-.937c0-.888-.297-1.628-.938-2.17-.641-.543-1.48-.84-2.565-.84-1.727 0-3.602.395-5.624 1.234l-1.135-3.157c2.467-.987 4.884-1.43 7.252-1.43 1.085 0 2.023.147 2.91.492.889.296 1.629.74 2.27 1.332a5.518 5.518 0 011.48 2.023c.346.79.543 1.677.543 2.615v7.054c0 .395.099.691.296.888.197.247.493.346.888.346.197 0 .345 0 .543-.05.147 0 .295-.049.345-.049l.296 3.305c-.395.05-.74.148-1.135.198-.395.05-.79.05-1.233.05-.888 0-1.628-.198-2.27-.642-.64-.395-1.085-.987-1.38-1.727a8.108 8.108 0 01-2.566 1.727 8.04 8.04 0 01-3.059.592 7.836 7.836 0 01-2.466-.395 5.377 5.377 0 01-1.925-1.135 4.816 4.816 0 01-1.233-1.726c-.345-.69-.493-1.43-.493-2.22zM98.124 7.597h3.552l.542 2.368c.691-.888 1.48-1.578 2.467-2.072a6.916 6.916 0 013.157-.74c1.283 0 2.368.296 3.355.839a5.482 5.482 0 012.171 2.319c.789-1.036 1.726-1.826 2.762-2.368 1.036-.543 2.171-.79 3.454-.79.937 0 1.776.148 2.565.444.789.296 1.48.74 2.023 1.332.592.543 1.036 1.234 1.332 2.023.296.79.493 1.628.493 2.565v11.446h-4.489V14.257c0-.986-.296-1.776-.938-2.417-.641-.592-1.43-.937-2.417-.937-1.135 0-2.072.394-2.812 1.184-.74.789-1.085 1.776-1.085 3.058v9.818h-4.49V14.257c0-.986-.296-1.776-.888-2.417-.592-.592-1.381-.937-2.368-.937-1.184 0-2.121.394-2.861 1.184-.74.789-1.085 1.776-1.085 3.058v9.818h-4.49V7.597h.05z"/><path d="M143.067 16.23c0-.789-.099-1.529-.345-2.22a4.47 4.47 0 00-.938-1.726 4.357 4.357 0 00-1.381-1.135c-.543-.296-1.135-.394-1.776-.394-1.184 0-2.121.394-2.911 1.233-.74.79-1.134 1.825-1.134 3.108v2.319c0 .641.098 1.233.296 1.726.197.543.493.987.838 1.382.346.394.79.69 1.283.888a4.345 4.345 0 001.628.296c.641 0 1.233-.148 1.776-.395.543-.247.987-.641 1.381-1.135.395-.493.691-1.085.938-1.726.246-.642.345-1.431.345-2.22zM130.24 7.598h3.552l.543 2.22a6.87 6.87 0 012.319-1.973 7.179 7.179 0 013.108-.69 7.57 7.57 0 013.157.69 7.63 7.63 0 012.467 1.875c.69.789 1.233 1.726 1.628 2.861.394 1.085.592 2.319.592 3.65 0 1.333-.198 2.566-.592 3.651-.395 1.086-.938 2.072-1.628 2.862a7.63 7.63 0 01-2.467 1.874 7.401 7.401 0 01-3.157.691c-1.036 0-2.023-.197-2.862-.592a5.557 5.557 0 01-2.22-1.776v10.508h-4.44V7.598zM15.096 20.523c-.69.69-1.628.986-2.812.986H6.759v-7.153h5.525c1.135 0 2.072.345 2.812.987.69.641 1.036 1.529 1.036 2.565.05 1.085-.296 1.973-1.036 2.615zM6.759 4.687h5.081c1.036 0 1.875.296 2.565.937.691.592.987 1.43.987 2.417 0 .987-.345 1.776-.987 2.368-.69.592-1.529.888-2.565.888H6.759v-6.61zM19.635 14.8c-.74-1.036-1.727-1.776-2.96-2.22a5.314 5.314 0 002.318-1.973c.592-.888.888-1.924.888-3.108 0-.938-.197-1.776-.542-2.516-.346-.79-.888-1.43-1.53-1.974a7.038 7.038 0 00-2.318-1.282c-.888-.296-1.875-.444-2.96-.444H0V4.44c1.924 0 3.453 1.579 3.453 3.503 0 1.924-1.529 3.502-3.453 3.502v2.862c1.924 0 3.453 1.578 3.453 3.502v.543c0 1.924-1.529 3.503-3.453 3.503v3.157h13.073c1.135 0 2.122-.148 3.059-.493a6.78 6.78 0 002.417-1.332c.691-.592 1.234-1.283 1.579-2.072.395-.79.592-1.678.592-2.664 0-1.431-.345-2.615-1.085-3.651z"/></g><defs><clipPath id="clip0"><path fill="#fff" d="M0 0h148v33.448H0z"/></clipPath></defs></svg>