<svg width="188" height="41" fill="none" xmlns="http://www.w3.org/2000/svg"><g clip-path="url(#clip0)" fill="#B5B5B5"><path d="M114.731 34.93c0 .374.015.894.042 1.562.028.663.046 1.048.055 1.153h-.042l-4.952-8.006h-2.003v10.1h1.5v-5.25c0-.71-.032-1.492-.097-2.349l-.035-.448h.055l4.967 8.048h2.024v-10.1h-1.512v5.29h-.002zM104.053 32.581c0-.986-.313-1.723-.94-2.21-.626-.488-1.592-.732-2.893-.732h-2.854v10.1h1.651v-4.035h1.631l2.418 4.035h1.878l-2.853-4.47c1.308-.533 1.962-1.43 1.962-2.688zm-3.888 1.755h-1.147v-3.302h1.092c.751 0 1.312.124 1.685.374.374.248.56.659.56 1.23 0 .562-.173.986-.518 1.271-.346.284-.904.427-1.672.427zM73.027 34.93c0 .374.015.894.042 1.562.028.663.046 1.048.055 1.153h-.042l-4.952-8.006h-2.003v10.1h1.5v-5.25c0-.71-.032-1.492-.097-2.349l-.035-.448h.055l4.967 8.048h2.023v-10.1h-1.513v5.29zM77.488 31.055h2.97v8.684h1.653v-8.684h2.97v-1.416h-7.593v1.416zM88.05 39.739h5.712v-1.403h-4.061v-3.17h3.806v-1.382h-3.806v-2.75h4.061V29.64H88.05v10.1zM62.038 29.639h-1.65v10.1h1.65v-10.1zM129.961 31.055h2.97v8.684h1.651v-8.684h2.97v-1.416h-7.591v1.416zM165.712 34.93c0 .374.014.894.042 1.562.027.663.046 1.048.055 1.153h-.042l-4.953-8.006h-2.002v10.1h1.499v-5.25c0-.71-.032-1.492-.097-2.349l-.034-.448h.055l4.967 8.048h2.024v-10.1h-1.513v5.29h-.001zM183.723 38.323v-8.684h-1.651v10.1h5.927v-1.416h-4.276zM150.515 29.48c-1.524 0-2.699.447-3.523 1.341-.819.894-1.23 2.174-1.23 3.841 0 1.667.408 2.954 1.222 3.861.819.903 1.991 1.354 3.517 1.354 1.505 0 2.669-.456 3.488-1.368.824-.912 1.237-2.19 1.237-3.834 0-1.648-.41-2.927-1.23-3.834-.819-.907-1.98-1.36-3.481-1.36zm2.205 8.034c-.498.636-1.237.953-2.218.953-.986 0-1.728-.32-2.232-.96-.501-.645-.752-1.59-.752-2.832 0-1.238.251-2.179.752-2.819.506-.64 1.255-.96 2.245-.96.981 0 1.717.32 2.211.96.497.64.745 1.58.745 2.819.001 1.257-.249 2.203-.751 2.839zM173.751 29.597l-3.779 10.14h1.74l.988-2.804h3.861l1.009 2.804h1.755l-3.779-10.14h-1.795zm-.567 5.914l.911-2.631c.24-.672.421-1.292.547-1.859.046.185.128.475.248.871.124.397.22.686.289.871l.946 2.75h-2.941v-.002zM142.171 29.639h-1.65v10.1h1.65v-10.1zM122.771 29.597l-3.779 10.14h1.74l.988-2.804h3.861l1.009 2.804h1.755l-3.779-10.14h-1.795zm-.567 5.914l.912-2.631c.239-.672.421-1.292.546-1.859a20.057 20.057 0 00.538 1.742l.947 2.748h-2.943zM83.425 0H80.8v23.353h2.624V0zM70.023 11.331c2.487-.76 3.834-2.695 3.834-5.492 0-3.663-2.73-5.839-7.39-5.839h-7.39v23.353h8.081c4.904 0 7.805-2.384 7.805-6.392 0-2.797-1.831-4.905-4.94-5.63zM61.7 2.211h4.766c2.97 0 4.698 1.451 4.698 3.834 0 2.73-1.728 4.457-4.386 4.457H61.7V2.21H61.7zm5.458 18.931h-5.457v-8.567h5.665c2.97 0 4.903 1.728 4.903 4.388-.001 2.625-1.9 4.18-5.11 4.18zM98.276 23.353V2.212h6.529V0h-15.75v2.212h6.597v21.14h2.624zM165.003 21.142h-10.947V12.68h9.807v-2.106h-9.807V2.212h10.842V0h-13.466v23.354h13.571v-2.212zM124.352 0h-15.748v2.212h6.596v21.14h2.624V2.213h6.528V0zM173.226 23.354l5.353-9.605.206-.898.207.898 5.389 9.605h3.212l-7.149-11.92 6.94-11.4h-3.177l-5.215 9.258-.207.9-.206-.9-5.216-9.257h-3.142l6.942 11.4-7.149 11.92h3.212zM139.689 13.991c3.108-.725 5.076-3.074 5.076-6.84 0-4.49-3.039-7.151-8.186-7.151h-6.733v23.353h2.624v-9.05h5.042l5.076 9.05h3.109l-5.319-8.671-.689-.69zm-2.799-1.762h-4.455V2.212h4.628c3.178 0 5.042 1.83 5.042 4.94 0 3.385-2.106 5.077-5.215 5.077zM8.274 0v6.347h3.986v-2.36h23.909V27.91h-23.91V15.055H8.274v16.842h31.88V0H8.274zM0 8.97V40.87h31.878v-6.605h-3.984v2.617H3.984V12.959h23.91v12.598h3.984V8.971H0z"/></g><defs><clipPath id="clip0"><path fill="#fff" d="M0 0h188v40.869H0z"/></clipPath></defs></svg>