<svg width="154" height="34" fill="none" xmlns="http://www.w3.org/2000/svg"><g clip-path="url(#clip0)"><path d="M11.985 29.375c1.2 0 2.309-.218 3.36-.628.009.02 2.148 3.344 2.179 3.367-1.937 1.04-3.96 1.5-6.173 1.5C4.774 33.613 0 29.278 0 22.36c0-6.969 5.018-11.303 11.351-11.303 2.255 0 4.032.49 5.823 1.447-.198.328-2.04 3.457-2.047 3.47a8.873 8.873 0 00-3.338-.629c-3.898 0-6.917 2.485-6.917 7.015 0 4.286 2.922 7.014 7.113 7.014zm16.588-18.317c6.48 0 11.156 4.58 11.156 11.303 0 6.673-4.676 11.252-11.156 11.252-6.43 0-11.106-4.578-11.106-11.252 0-6.722 4.677-11.303 11.106-11.303zm0 4.142c-3.603 0-6.235 2.777-6.235 7.16 0 4.337 2.63 7.113 6.237 7.113 3.702 0 6.284-2.776 6.284-7.112 0-4.384-2.582-7.161-6.286-7.161zM42.8 33.127V11.545h4.822v21.582h-4.822zm-.634-28.208c0-1.655 1.414-2.97 3.021-2.97 1.608 0 3.02 1.315 3.02 2.971 0 1.706-1.412 3.07-3.02 3.07-1.607 0-3.02-1.364-3.02-3.07V4.92zm9.664 7.991c3.02-1.169 6.724-1.851 9.89-1.851 5.505 0 9.012 2.094 9.012 8.183v13.885h-4.774V19.68c0-3.117-1.948-4.239-4.63-4.239-1.705 0-3.408.244-4.675.634v17.05h-4.823V12.91zM74.769 0h4.822v12.131c1.023-.536 3.02-1.072 4.92-1.072 6.236 0 10.911 3.993 10.911 10.912 0 6.966-4.626 11.642-12.615 11.642a23.972 23.972 0 01-8.037-1.412V0zm4.822 29.035c.925.292 2.143.437 3.361.437 4.433 0 7.6-2.435 7.6-7.405 0-4.189-2.97-6.673-6.625-6.673-1.899 0-3.362.487-4.337 1.024v12.617h.001zm29.763-10.378c0-2.338-1.754-3.408-4.141-3.408-2.485 0-4.433.73-6.235 1.753v-4.19c1.9-1.07 4.334-1.753 7.015-1.753 4.724 0 8.085 1.948 8.085 7.354v14.275c-2.046.535-4.966.878-7.402.878-5.603 0-9.696-1.706-9.696-6.578 0-4.383 3.75-6.526 9.986-6.526h2.387l.001-1.805c-.001 0 0 0 0 0zm0 5.018h-2.046c-3.362 0-5.555.975-5.555 3.167 0 2.24 2.048 3.117 4.97 3.117.732 0 1.755-.097 2.631-.243v-6.041zm8.231 3.606c1.999 1.51 4.384 2.435 6.576 2.435 2.145 0 3.558-.73 3.558-2.435 0-1.755-1.267-2.388-4.043-3.118-4.483-1.023-6.383-2.825-6.383-6.576 0-4.385 3.313-6.528 7.697-6.528 2.436 0 4.384.536 6.186 1.655v4.434c-1.899-1.363-3.75-2.192-6.039-2.192-2.095 0-3.215 1.023-3.215 2.436 0 1.411.924 2.143 3.41 2.823 4.921 1.073 7.063 2.926 7.063 6.822 0 4.53-3.459 6.576-8.135 6.576-2.533 0-5.067-.68-6.673-1.753v-4.579h-.002zm21.412-3.849v.098c.292 3.847 3.603 5.942 6.964 5.942 2.972 0 5.117-.682 7.259-2.095v4.24c-1.948 1.363-4.823 1.996-7.598 1.996-6.723 0-11.302-4.286-11.302-11.106 0-6.868 4.48-11.447 10.425-11.447 6.283 0 9.255 4.042 9.255 9.935v2.439h-15.003v-.002zm10.472-3.118c-.097-3.362-1.752-5.212-4.871-5.212-2.777 0-4.822 1.95-5.455 5.213l10.326-.001c.001.001 0 0 0 0z" fill="#B5B5B5"/></g><defs><clipPath id="clip0"><path fill="#fff" d="M0 0h154v33.613H0z"/></clipPath></defs></svg>