<svg width="75" height="75" fill="none" xmlns="http://www.w3.org/2000/svg"><path d="M75 41.54v-8.08a3.825 3.825 0 00-3.084-3.757l-4.79-.946a3.843 3.843 0 01-2.813-2.325s0-.027-.027-.027c-.487-1.189-.38-2.567.324-3.648l2.706-4.054c1.028-1.514.812-3.54-.487-4.838L61.12 8.162a3.855 3.855 0 00-4.843-.486l-4.058 2.702c-1.083.73-2.435.838-3.653.325 0 0-.027 0-.027-.027-1.19-.487-2.083-1.54-2.327-2.811l-.947-4.784A3.827 3.827 0 0041.505 0h-8.01a3.827 3.827 0 00-3.76 3.081l-.947 4.784c-.244 1.27-1.137 2.324-2.327 2.81 0 0-.027 0-.027.028-1.19.486-2.57.378-3.653-.325l-4.058-2.702c-1.515-1.027-3.544-.811-4.843.486L8.17 13.865a3.845 3.845 0 00-.487 4.838l2.706 4.054c.73 1.08.838 2.432.324 3.648 0 0 0 .027-.027.027a3.843 3.843 0 01-2.814 2.325l-4.789.946A3.825 3.825 0 000 33.459v8.081a3.825 3.825 0 003.084 3.757l4.79.946a3.843 3.843 0 012.813 2.325s0 .027.027.027c.487 1.189.38 2.567-.324 3.648l-2.706 4.054c-1.028 1.514-.812 3.54.487 4.838l5.709 5.703a3.855 3.855 0 004.843.486l4.058-2.702c1.083-.73 2.435-.838 3.653-.325 0 0 .027 0 .027.027 1.19.487 2.083 1.54 2.327 2.811l.947 4.784A3.827 3.827 0 0033.495 75h8.09c1.84 0 3.41-1.297 3.761-3.081l.947-4.784c.244-1.27 1.137-2.324 2.327-2.81 0 0 .027 0 .027-.028 1.19-.486 2.57-.378 3.653.325l4.058 2.702c1.515 1.027 3.545.811 4.843-.486l5.71-5.703a3.845 3.845 0 00.486-4.838l-2.705-4.054c-.731-1.08-.84-2.432-.325-3.648 0 0 0-.027.027-.027a3.844 3.844 0 012.814-2.325l4.789-.946C73.728 44.946 75 43.378 75 41.541z" fill="url(#paint0_linear)"/><path d="M37.5 59C49.374 59 59 49.374 59 37.5S49.374 16 37.5 16 16 25.626 16 37.5 25.626 59 37.5 59z" fill="#fff"/><path fill-rule="evenodd" clip-rule="evenodd" d="M30.057 47.707c.317.186.687.293 1.057.293.344 0 .713-.107 1.057-.267l14.746-8.367A2.154 2.154 0 0048 37.5c0-.773-.423-1.492-1.083-1.865L32.17 27.267c-.66-.373-1.453-.347-2.114.027A2.119 2.119 0 0029 29.132v16.736c0 .746.396 1.466 1.057 1.839zm3.171-5.49v-9.46l8.324 4.743-8.324 4.717z" fill="url(#paint1_linear)"/><defs><linearGradient id="paint0_linear" x1=".036" y1="75" x2="75.009" y2="75" gradientUnits="userSpaceOnUse"><stop stop-color="#FFB300"/><stop offset="1" stop-color="#FF8E37"/></linearGradient><linearGradient id="paint1_linear" x1="28.991" y1="47.977" x2="47.967" y2="47.977" gradientUnits="userSpaceOnUse"><stop stop-color="#5C8BFC"/><stop offset="1" stop-color="#84B0FF"/></linearGradient></defs></svg>