<svg width="68" height="77" fill="none" xmlns="http://www.w3.org/2000/svg"><path d="M34.5 68C47.479 68 58 57.479 58 44.5S47.479 21 34.5 21 11 31.521 11 44.5 21.521 68 34.5 68z" fill="url(#paint0_linear)"/><path d="M2.95 45C1.876 45 1 44.212 1 43.25c0-.831.024-1.662.097-2.493.829-9.953 6.628-18.856 15.863-24.455.901-.547 2.095-.329 2.704.48.61.81.366 1.882-.536 2.429C10.892 24.22 5.727 32.16 4.972 41.04a22.782 22.782 0 00-.098 2.231C4.9 44.212 4.021 45 2.95 45z" fill="url(#paint1_linear)"/><path d="M33.048 77c-3.733 0-7.401-.602-10.895-1.785-.916-.312-1.375-1.267-1.047-2.118.327-.872 1.331-1.308 2.226-.997A30.248 30.248 0 0033.07 73.7c2.97 0 5.873-.415 8.667-1.266.917-.27 1.9.207 2.184 1.08.284.871-.218 1.805-1.136 2.075A34.158 34.158 0 0133.048 77z" fill="url(#paint2_linear)"/><path d="M65.116 41c-.921 0-1.748-.649-1.867-1.543-1.228-8.723-6.473-16.44-14.364-21.16-.875-.536-1.158-1.632-.591-2.46.567-.827 1.725-1.095 2.599-.559 8.86 5.279 14.72 13.935 16.09 23.709.141.984-.591 1.879-1.63 2.013h-.237z" fill="url(#paint3_linear)"/><path fill-rule="evenodd" clip-rule="evenodd" d="M21.793 60.785c.046-.086.092-.172.115-.237v-.021c.011-.043.023-.08.034-.118l.035-.119v-.043a.903.903 0 00.023-.236c0-.065 0-.172-.023-.237v-.043a3.344 3.344 0 00-.069-.236v-.022c-.011-.043-.029-.08-.046-.118a.73.73 0 01-.046-.118v-.022c-.046-.086-.092-.15-.138-.215 0 0 0-.022-.023-.022l-9.172-11.29A1.897 1.897 0 0011.01 47c-.574 0-1.126.258-1.47.688L.344 58.957s0 .021-.023.021l-.029.04a.828.828 0 00-.11.175v.022c-.045.065-.068.15-.091.237v.021l-.035.118a3.346 3.346 0 00-.034.119v.043C0 59.839 0 59.925 0 59.989c0 .065 0 .172.023.237v.043c.023.086.046.172.069.236v.022c.011.043.029.08.046.118.017.038.034.075.046.118v.022c.046.086.092.15.138.215 0 0 0 .022.023.022l9.172 11.29c.345.43.897.688 1.472.688.574 0 1.126-.258 1.47-.688l9.173-11.29s0-.022.023-.022c.046-.065.092-.129.138-.215zM10.99 51.538l5.47 6.73H5.518l5.471-6.73zM5.516 61.71l5.471 6.73 5.472-6.73H5.517z" fill="url(#paint4_linear)"/><path fill-rule="evenodd" clip-rule="evenodd" d="M50.76 45h6.882C63.36 45 68 49.928 68 56s-4.64 11-10.358 11H50.76C49.792 67 49 66.16 49 65.132V46.868c0-1.027.792-1.868 1.76-1.868zm1.759 18.263h5.123c3.76 0 6.84-3.246 6.84-7.263 0-4.017-3.08-7.263-6.84-7.263H52.52v5.395H58.5c.968 0 1.76.84 1.76 1.868s-.792 1.868-1.76 1.868h-5.981v5.395z" fill="url(#paint5_linear)"/><path fill-rule="evenodd" clip-rule="evenodd" d="M41 9.024c0-2.819-2.1-5.157-4.827-5.637v-1.64C36.173.788 35.37 0 34.385 0c-.983 0-1.787.787-1.787 1.748v1.551h-1.631V1.748C30.966.787 30.162 0 29.178 0S27.39.787 27.39 1.748v1.551h-4.603C21.805 3.3 21 4.086 21 5.047s.805 1.748 1.788 1.748h1.787v12.41h-1.787c-.983 0-1.788.787-1.788 1.748s.805 1.748 1.788 1.748h4.58v1.551c0 .961.805 1.748 1.788 1.748.984 0 1.788-.787 1.788-1.748v-1.551h1.631v1.551c0 .961.805 1.748 1.788 1.748s1.788-.787 1.788-1.748v-1.639c2.748-.458 4.827-2.818 4.827-5.636 0-1.552-.626-2.95-1.654-3.977A5.517 5.517 0 0041 9.024zm-5.855-2.207c1.252 0 2.28 1.005 2.28 2.228 0 1.224-1.028 2.229-2.28 2.229h-6.994V6.817h6.994zm-6.994 12.388h6.994c1.252 0 2.28-.983 2.28-2.228 0-1.224-1.028-2.23-2.28-2.23h-6.994v4.458z" fill="url(#paint6_linear)"/><defs><linearGradient id="paint0_linear" x1="11.004" y1="68.012" x2="58.014" y2="68.012" gradientUnits="userSpaceOnUse"><stop stop-color="#FFB300"/><stop offset="1" stop-color="#FF8E37"/></linearGradient><linearGradient id="paint1_linear" x1=".989" y1="45.008" x2="19.99" y2="45.008" gradientUnits="userSpaceOnUse"><stop stop-color="#5C8BFC"/><stop offset="1" stop-color="#84B0FF"/></linearGradient><linearGradient id="paint2_linear" x1="20.994" y1="76.998" x2="44.004" y2="76.998" gradientUnits="userSpaceOnUse"><stop stop-color="#5C8BFC"/><stop offset="1" stop-color="#84B0FF"/></linearGradient><linearGradient id="paint3_linear" x1="47.994" y1="41.003" x2="67.003" y2="41.003" gradientUnits="userSpaceOnUse"><stop stop-color="#5C8BFC"/><stop offset="1" stop-color="#84B0FF"/></linearGradient><linearGradient id="paint4_linear" x1="-.04" y1="73.015" x2="22.003" y2="73.015" gradientUnits="userSpaceOnUse"><stop stop-color="#5C8BFC"/><stop offset="1" stop-color="#84B0FF"/></linearGradient><linearGradient id="paint5_linear" x1="49.006" y1="66.999" x2="67.994" y2="66.999" gradientUnits="userSpaceOnUse"><stop stop-color="#5C8BFC"/><stop offset="1" stop-color="#84B0FF"/></linearGradient><linearGradient id="paint6_linear" x1="20.993" y1="26.011" x2="40.993" y2="26.011" gradientUnits="userSpaceOnUse"><stop stop-color="#5C8BFC"/><stop offset="1" stop-color="#84B0FF"/></linearGradient></defs></svg>