<svg width="61" height="77" fill="none" xmlns="http://www.w3.org/2000/svg"><path fill-rule="evenodd" clip-rule="evenodd" d="M5.87 74h53.283A1.85 1.85 0 0061 72.112V14.63c0-.519-.186-.991-.537-1.345L47.842.543A1.883 1.883 0 0046.51 0H5.87C4.84 0 4 .85 4 1.888v70.224C4 73.15 4.841 74 5.87 74zm51.39-3.775H7.74V3.775h37.999L57.26 15.41v54.816z" fill="url(#paint0_linear)"/><path d="M0 7v70h53V19.702L40.442 7H0z" fill="url(#paint1_linear)"/><path d="M7.873 51c-.61 0-1.221-.305-1.574-.867a1.888 1.888 0 01.564-2.602l10.22-6.611a1.936 1.936 0 011.855-.117l9.116 4.454 11.793-10.76a1.87 1.87 0 012.655.117 1.86 1.86 0 01-.117 2.65L29.65 48.866a1.906 1.906 0 01-2.09.305l-9.304-4.548-9.327 6.024A1.732 1.732 0 017.873 51z" fill="#fff"/><path d="M40.078 39.41l2.387 2.335a.9.9 0 001.522-.537l1.007-8.197c.07-.584-.445-1.074-1.03-1.004l-8.193 1.167a.898.898 0 00-.492 1.542l2.107 2.055" fill="#fff"/><path fill-rule="evenodd" clip-rule="evenodd" d="M8 23.5c0 4.691 3.809 8.5 8.5 8.5s8.5-3.809 8.5-8.5-3.809-8.5-8.5-8.5S8 18.809 8 23.5zm3.716 0a4.777 4.777 0 014.784-4.784 4.777 4.777 0 014.784 4.784 4.777 4.777 0 01-4.784 4.784 4.777 4.777 0 01-4.784-4.784z" fill="#fff"/><path d="M32.871 70c-.466 0-.956-.187-1.329-.537a1.873 1.873 0 010-2.636l9.28-9.285a1.871 1.871 0 012.636 0 1.873 1.873 0 010 2.637l-9.28 9.284c-.35.374-.817.537-1.307.537z" fill="#fff"/><path d="M42.152 70c-.466 0-.956-.187-1.33-.537l-9.28-9.284a1.873 1.873 0 010-2.637 1.871 1.871 0 012.635 0l9.28 9.285a1.873 1.873 0 010 2.636c-.349.374-.839.537-1.305.537z" fill="#fff"/><defs><linearGradient id="paint0_linear" x1="4.006" y1="74.009" x2="61.014" y2="74.009" gradientUnits="userSpaceOnUse"><stop stop-color="#5C8BFC"/><stop offset="1" stop-color="#84B0FF"/></linearGradient><linearGradient id="paint1_linear" x1="-.01" y1="77.001" x2="52.998" y2="77.001" gradientUnits="userSpaceOnUse"><stop stop-color="#FFB300"/><stop offset="1" stop-color="#FF8E37"/></linearGradient></defs></svg>