<svg width="73" height="73" fill="none" xmlns="http://www.w3.org/2000/svg"><path fill-rule="evenodd" clip-rule="evenodd" d="M24.357 21.245C45.667-.071 73 0 73 0s.048 27.342-21.286 48.635c-.976 1-2.023 1.858-3.143 2.644.31 3.787.19 9.55-2.761 12.504C38.904 70.69 27.38 73 27.38 73l2.167-15.22h-5.215l-9.119-9.121v-5.24L0 45.586S2.31 34.06 9.214 27.152c2.953-2.954 8.715-3.049 12.5-2.763a25.325 25.325 0 012.643-3.144zm24.357-3.049a6.093 6.093 0 00-6.095 6.098 6.093 6.093 0 006.095 6.097 6.093 6.093 0 006.096-6.097 6.093 6.093 0 00-6.096-6.098z" fill="url(#paint0_linear)"/><path fill-rule="evenodd" clip-rule="evenodd" d="M2.767 71.93c.116.023.814.07 1.884.07 3.419 0 10.605-.511 14.582-4.53 1.186-1.185 2.046-2.718 2.488-4.39L22 62.057 10.93 51l-1.023.279a9.621 9.621 0 00-4.396 2.485C.414 58.856.995 69.288 1.044 70.167l.002.044.116 1.603 1.605.116zm5.419-15.517a5.181 5.181 0 011.72-1.185l7.931 7.921a5.967 5.967 0 01-1.186 1.72c-3 2.996-8.977 3.414-11.884 3.414 0-3.345.628-9.083 3.419-11.87z" fill="url(#paint1_linear)"/><defs><linearGradient id="paint0_linear" x1=".011" y1="73.003" x2="72.993" y2="73.003" gradientUnits="userSpaceOnUse"><stop stop-color="#FFB300"/><stop offset="1" stop-color="#FF8E37"/></linearGradient><linearGradient id="paint1_linear" x1="1.021" y1="72.011" x2="22.021" y2="72.011" gradientUnits="userSpaceOnUse"><stop stop-color="#5C8BFC"/><stop offset="1" stop-color="#84B0FF"/></linearGradient></defs></svg>