<svg width="14" height="14" viewBox="0 0 14 14" fill="none" xmlns="http://www.w3.org/2000/svg">
<g clip-path="url(#clip0_1242_5555)">
<path fill-rule="evenodd" clip-rule="evenodd" d="M1.97681 1.97681C1.7548 2.19881 1.60547 2.56784 1.60547 3.1688V7.3338C1.60547 7.93477 1.7548 8.3038 1.97681 8.5258C2.19881 8.7478 2.56784 8.89714 3.1688 8.89714H4.66797C4.90959 8.89714 5.10547 9.09301 5.10547 9.33464C5.10547 9.57626 4.90959 9.77214 4.66797 9.77214H3.1688C2.43393 9.77214 1.80254 9.58897 1.35809 9.14452C0.913633 8.70006 0.730469 8.06867 0.730469 7.3338V3.1688C0.730469 2.43393 0.913633 1.80254 1.35809 1.35809C1.80254 0.913633 2.43393 0.730469 3.1688 0.730469H5.83464C6.56951 0.730469 7.20089 0.913633 7.64535 1.35809C8.0898 1.80254 8.27297 2.43393 8.27297 3.1688C8.27297 3.41043 8.07709 3.6063 7.83547 3.6063C7.59384 3.6063 7.39797 3.41043 7.39797 3.1688C7.39797 2.56784 7.24863 2.19881 7.02663 1.97681C6.80463 1.7548 6.4356 1.60547 5.83464 1.60547H3.1688C2.56784 1.60547 2.19881 1.7548 1.97681 1.97681Z" fill="#9095A5"/>
<path fill-rule="evenodd" clip-rule="evenodd" d="M6.9729 5.47681C6.7509 5.69881 6.60156 6.06784 6.60156 6.6688V10.8338C6.60156 11.4348 6.7509 11.8038 6.9729 12.0258C7.1949 12.2478 7.56393 12.3971 8.1649 12.3971H10.8307C11.4317 12.3971 11.8007 12.2478 12.0227 12.0258C12.2447 11.8038 12.3941 11.4348 12.3941 10.8338V6.6688C12.3941 6.06784 12.2447 5.69881 12.0227 5.47681C11.8007 5.2548 11.4317 5.10547 10.8307 5.10547H8.1649C7.56393 5.10547 7.1949 5.2548 6.9729 5.47681ZM6.35418 4.85809C6.79864 4.41363 7.43003 4.23047 8.1649 4.23047H10.8307C11.5656 4.23047 12.197 4.41363 12.6414 4.85809C13.0859 5.30254 13.2691 5.93393 13.2691 6.6688V10.8338C13.2691 11.5687 13.0859 12.2001 12.6414 12.6445C12.197 13.089 11.5656 13.2721 10.8307 13.2721H8.1649C7.43003 13.2721 6.79864 13.089 6.35418 12.6445C5.90973 12.2001 5.72656 11.5687 5.72656 10.8338V6.6688C5.72656 5.93393 5.90973 5.30254 6.35418 4.85809Z" fill="#9095A5"/>
<path fill-rule="evenodd" clip-rule="evenodd" d="M8.23828 8.75C8.23828 8.50838 8.43416 8.3125 8.67578 8.3125H10.5774C10.8191 8.3125 11.0149 8.50838 11.0149 8.75C11.0149 8.99162 10.8191 9.1875 10.5774 9.1875H8.67578C8.43416 9.1875 8.23828 8.99162 8.23828 8.75Z" fill="#9095A5"/>
<path fill-rule="evenodd" clip-rule="evenodd" d="M9.625 7.36328C9.86662 7.36328 10.0625 7.55916 10.0625 7.80078V9.70245C10.0625 9.94407 9.86662 10.1399 9.625 10.1399C9.38338 10.1399 9.1875 9.94407 9.1875 9.70245V7.80078C9.1875 7.55916 9.38338 7.36328 9.625 7.36328Z" fill="#9095A5"/>
</g>
<defs>
<clipPath id="clip0_1242_5555">
<rect width="14" height="14" fill="white"/>
</clipPath>
</defs>
</svg>
