<svg width="15" height="15" viewBox="0 0 15 15" fill="none" xmlns="http://www.w3.org/2000/svg">
<path fill-rule="evenodd" clip-rule="evenodd" d="M9.05556 5.00944C9.48511 5.00944 9.83333 5.35766 9.83333 5.78722V12.0094C9.83333 12.439 9.48511 12.7872 9.05556 12.7872H2.83333C2.40378 12.7872 2.05556 12.439 2.05556 12.0094V5.78722C2.05556 5.35766 2.40378 5.00944 2.83333 5.00944H9.05556ZM11.3889 5.78722C11.3889 4.49855 10.3442 3.45388 9.05556 3.45388H2.83333C1.54467 3.45388 0.5 4.49855 0.5 5.78722V12.0094C0.5 13.2981 1.54467 14.3428 2.83333 14.3428H9.05556C10.3442 14.3428 11.3889 13.2981 11.3889 12.0094V5.78722Z" fill="#5078E6"/>
<path fill-rule="evenodd" clip-rule="evenodd" d="M3.61111 1.12055C3.61111 0.690996 3.95933 0.342773 4.38889 0.342773H12.1667C13.4553 0.342773 14.5 1.38744 14.5 2.67611V10.4539C14.5 10.8834 14.1518 11.2317 13.7222 11.2317C13.2927 11.2317 12.9444 10.8834 12.9444 10.4539V2.67611C12.9444 2.24655 12.5962 1.89833 12.1667 1.89833H4.38889C3.95933 1.89833 3.61111 1.55011 3.61111 1.12055Z" fill="#5078E6"/>
</svg>
