<svg width="10" height="10" viewBox="0 0 10 10" fill="none" xmlns="http://www.w3.org/2000/svg">
<rect x="1.66602" y="0.833008" width="6.66667" height="8.33333" rx="3.33333" fill="#5078E6"/>
<path d="M7.09854 0H2.90645C1.08554 0 0 1.085 0 2.905V7.09C0 8.915 1.08554 10 2.90645 10H7.09353C8.91444 10 9.99998 8.915 9.99998 7.095V2.905C10.005 1.085 8.91945 0 7.09854 0ZM5.00249 8.005C3.4167 8.005 2.12606 6.715 2.12606 5.13C2.12606 4.56 2.29114 4.005 2.6113 3.535C2.72636 3.36 2.96148 3.315 3.13156 3.43C3.30165 3.545 3.35167 3.78 3.23161 3.95C3.0015 4.3 2.87643 4.71 2.87643 5.13C2.87643 6.3 3.83191 7.255 5.00249 7.255C6.17308 7.255 7.12855 6.3 7.12855 5.13C7.12855 3.96 6.17308 3.005 5.00249 3.005C4.90745 3.005 4.8174 3.015 4.72235 3.025L5.00249 3.23C5.16758 3.35 5.2076 3.585 5.08253 3.755C5.0075 3.855 4.89244 3.91 4.77738 3.91C4.70234 3.91 4.6223 3.885 4.55727 3.84L3.58679 3.125C3.58679 3.125 3.58178 3.12 3.57678 3.115C3.57178 3.11 3.56678 3.11 3.56177 3.105C3.54677 3.095 3.54176 3.075 3.52676 3.06C3.51175 3.04 3.49674 3.025 3.48174 3C3.47173 2.98 3.46673 2.955 3.45672 2.935C3.45172 2.91 3.44172 2.89 3.44172 2.865C3.44172 2.84 3.44172 2.82 3.44672 2.795C3.44672 2.77 3.44672 2.75 3.45672 2.725C3.45672 2.7 3.47173 2.68 3.48174 2.655C3.49174 2.64 3.49174 2.62 3.50675 2.6C3.51175 2.6 3.51675 2.595 3.52175 2.59C3.52676 2.585 3.52676 2.58 3.53176 2.575L4.36718 1.62C4.50224 1.465 4.74236 1.445 4.89744 1.585C5.05252 1.72 5.06753 1.96 4.93246 2.115L4.79239 2.275C4.86242 2.27 4.93246 2.26 5.0075 2.26C6.59329 2.26 7.88393 3.55 7.88393 5.135C7.88393 6.72 6.58828 8.005 5.00249 8.005Z" fill="#5078E6"/>
<path d="M7.22169 4.98016H6.82932C6.74806 4.98016 6.68218 5.04604 6.68218 5.1273V6.91624C6.68218 7.01119 6.6049 7.08845 6.50995 7.08845H3.08146C2.98653 7.08845 2.90931 7.01119 2.90931 6.91624V3.48781C2.90931 3.39283 2.98653 3.31556 3.08146 3.31556H4.962C5.04326 3.31556 5.10914 3.24968 5.10914 3.16842V2.77605C5.10914 2.69479 5.04326 2.62891 4.962 2.62891H3.08146C2.60791 2.62891 2.22266 3.01422 2.22266 3.48781V6.91626C2.22266 7.38985 2.60793 7.77512 3.08146 7.77512H6.50993C6.98352 7.77512 7.36881 7.38983 7.36881 6.91626V5.12732C7.36883 5.04604 7.30295 4.98016 7.22169 4.98016Z" fill="white"/>
<path d="M7.63074 2.22168H6.07002C5.98876 2.22168 5.92288 2.28756 5.92288 2.36882V2.76119C5.92288 2.84245 5.98876 2.90833 6.07002 2.90833H6.60568L4.58997 4.924C4.53251 4.98147 4.53251 5.07462 4.58997 5.1321L4.86742 5.40956C4.89502 5.43717 4.93243 5.45267 4.97148 5.45267C5.0105 5.45267 5.04793 5.43717 5.07551 5.40956L7.09123 3.39385V3.9295C7.09123 4.01076 7.1571 4.07664 7.23837 4.07664H7.63074C7.712 4.07664 7.77788 4.01076 7.77788 3.9295V2.36882C7.77788 2.28756 7.712 2.22168 7.63074 2.22168Z" fill="white"/>
</svg>
