<svg width="6" height="6" viewBox="0 0 6 6" fill="none" xmlns="http://www.w3.org/2000/svg">
<path d="M5.22169 2.98016H4.82932C4.74806 2.98016 4.68218 3.04604 4.68218 3.1273V4.91624C4.68218 5.01119 4.6049 5.08845 4.50995 5.08845H1.08146C0.986526 5.08845 0.909307 5.01119 0.909307 4.91624V1.48781C0.909307 1.39283 0.986526 1.31556 1.08146 1.31556H2.962C3.04326 1.31556 3.10914 1.24968 3.10914 1.16842V0.776046C3.10914 0.694785 3.04326 0.628906 2.962 0.628906H1.08146C0.607907 0.628906 0.222656 1.01422 0.222656 1.48781V4.91626C0.222656 5.38985 0.607926 5.77512 1.08146 5.77512H4.50993C4.98352 5.77512 5.36881 5.38983 5.36881 4.91626V3.12732C5.36883 3.04604 5.30295 2.98016 5.22169 2.98016Z" fill="white"/>
<path d="M5.63074 0.22168H4.07002C3.98876 0.22168 3.92288 0.287559 3.92288 0.368819V0.761191C3.92288 0.842451 3.98876 0.908331 4.07002 0.908331H4.60568L2.58997 2.924C2.53251 2.98147 2.53251 3.07462 2.58997 3.1321L2.86742 3.40956C2.89502 3.43717 2.93243 3.45267 2.97148 3.45267C3.0105 3.45267 3.04793 3.43717 3.07551 3.40956L5.09123 1.39385V1.9295C5.09123 2.01076 5.1571 2.07664 5.23837 2.07664H5.63074C5.712 2.07664 5.77788 2.01076 5.77788 1.9295V0.368819C5.77788 0.287559 5.712 0.22168 5.63074 0.22168Z" fill="white"/>
</svg>
