<svg width="27" height="27" viewBox="0 0 27 27" fill="none" xmlns="http://www.w3.org/2000/svg">
<mask id="mask0_13744_10229" style="mask-type:alpha" maskUnits="userSpaceOnUse" x="0" y="0" width="27" height="27">
<rect width="27" height="27" fill="#D9D9D9"/>
</mask>
<g mask="url(#mask0_13744_10229)">
<path d="M10.6875 18.5625L18.5625 13.5L10.6875 8.4375V18.5625ZM13.5 24.75C11.9438 24.75 10.4813 24.4545 9.1125 23.8635C7.74375 23.2733 6.55313 22.4719 5.54063 21.4594C4.52813 20.4469 3.72675 19.2563 3.1365 17.8875C2.5455 16.5187 2.25 15.0562 2.25 13.5C2.25 11.9438 2.5455 10.4813 3.1365 9.1125C3.72675 7.74375 4.52813 6.55313 5.54063 5.54063C6.55313 4.52813 7.74375 3.72637 9.1125 3.13537C10.4813 2.54512 11.9438 2.25 13.5 2.25C15.0562 2.25 16.5187 2.54512 17.8875 3.13537C19.2563 3.72637 20.4469 4.52813 21.4594 5.54063C22.4719 6.55313 23.2733 7.74375 23.8635 9.1125C24.4545 10.4813 24.75 11.9438 24.75 13.5C24.75 15.0562 24.4545 16.5187 23.8635 17.8875C23.2733 19.2563 22.4719 20.4469 21.4594 21.4594C20.4469 22.4719 19.2563 23.2733 17.8875 23.8635C16.5187 24.4545 15.0562 24.75 13.5 24.75ZM13.5 22.5C16.0125 22.5 18.1406 21.6281 19.8844 19.8844C21.6281 18.1406 22.5 16.0125 22.5 13.5C22.5 10.9875 21.6281 8.85937 19.8844 7.11562C18.1406 5.37187 16.0125 4.5 13.5 4.5C10.9875 4.5 8.85937 5.37187 7.11562 7.11562C5.37187 8.85937 4.5 10.9875 4.5 13.5C4.5 16.0125 5.37187 18.1406 7.11562 19.8844C8.85937 21.6281 10.9875 22.5 13.5 22.5Z" fill="#5078E6"/>
</g>
</svg>
