<svg width="20" height="20" viewBox="0 0 20 20" fill="none" xmlns="http://www.w3.org/2000/svg">
<g clip-path="url(#clip0_6262_19309)">
<path d="M15.832 6.66536L12.4987 9.9987H14.9987C14.9987 12.757 12.757 14.9987 9.9987 14.9987C9.15703 14.9987 8.35703 14.7904 7.66537 14.4154L6.4487 15.632C7.4737 16.282 8.69037 16.6654 9.9987 16.6654C13.682 16.6654 16.6654 13.682 16.6654 9.9987H19.1654L15.832 6.66536ZM4.9987 9.9987C4.9987 7.24036 7.24037 4.9987 9.9987 4.9987C10.8404 4.9987 11.6404 5.20703 12.332 5.58203L13.5487 4.36536C12.5237 3.71536 11.307 3.33203 9.9987 3.33203C6.31537 3.33203 3.33203 6.31536 3.33203 9.9987H0.832031L4.16536 13.332L7.4987 9.9987H4.9987Z" fill="#DFE3F0"/>
<path d="M15.832 6.66536L12.4987 9.9987H14.9987C14.9987 12.757 12.757 14.9987 9.9987 14.9987C9.15703 14.9987 8.35703 14.7904 7.66537 14.4154L6.4487 15.632C7.4737 16.282 8.69037 16.6654 9.9987 16.6654C13.682 16.6654 16.6654 13.682 16.6654 9.9987H19.1654L15.832 6.66536ZM4.9987 9.9987C4.9987 7.24036 7.24037 4.9987 9.9987 4.9987C10.8404 4.9987 11.6404 5.20703 12.332 5.58203L13.5487 4.36536C12.5237 3.71536 11.307 3.33203 9.9987 3.33203C6.31537 3.33203 3.33203 6.31536 3.33203 9.9987H0.832031L4.16536 13.332L7.4987 9.9987H4.9987Z" fill="url(#paint0_linear_6262_19309)"/>
</g>
<defs>
<linearGradient id="paint0_linear_6262_19309" x1="0.832031" y1="3.33203" x2="13.5167" y2="20.7735" gradientUnits="userSpaceOnUse">
<stop stop-color="#78A0FF"/>
<stop offset="1" stop-color="#5078E6"/>
</linearGradient>
<clipPath id="clip0_6262_19309">
<rect width="20" height="20" fill="white"/>
</clipPath>
</defs>
</svg>
