<svg width="14" height="14" viewBox="0 0 14 14" fill="none" xmlns="http://www.w3.org/2000/svg">
<path d="M11.9936 10.7564L9.77244 8.53519C10.2314 7.8435 10.5 7.01531 10.5 6.125C10.5 3.71262 8.53737 1.75 6.125 1.75C3.71262 1.75 1.75 3.71262 1.75 6.125C1.75 8.53737 3.71262 10.5 6.125 10.5C7.01531 10.5 7.8435 10.2314 8.53519 9.77244L10.7564 11.9936C11.0976 12.3353 11.6524 12.3353 11.9936 11.9936C12.3353 11.6519 12.3353 11.0981 11.9936 10.7564V10.7564ZM3.0625 6.125C3.0625 4.43625 4.43625 3.0625 6.125 3.0625C7.81375 3.0625 9.1875 4.43625 9.1875 6.125C9.1875 7.81375 7.81375 9.1875 6.125 9.1875C4.43625 9.1875 3.0625 7.81375 3.0625 6.125V6.125Z" fill="#9095A5"/>
</svg>
