<svg width="20" height="22" viewBox="0 0 20 22" fill="none" xmlns="http://www.w3.org/2000/svg">
<path fill-rule="evenodd" clip-rule="evenodd" d="M20 4.44444C20 6.89904 18.0102 8.88889 15.5556 8.88889C14.2178 8.88889 13.0182 8.29789 12.2034 7.36276L8.79119 9.06886C8.8552 9.36913 8.88889 9.68063 8.88889 10C8.88889 10.4383 8.82543 10.8619 8.7072 11.2619L12.4372 13.4999C13.2394 12.7098 14.3406 12.2222 15.5556 12.2222C18.0102 12.2222 20 14.2121 20 16.6667C20 19.1213 18.0102 21.1111 15.5556 21.1111C13.101 21.1111 11.1111 19.1213 11.1111 16.6667C11.1111 16.2283 11.1746 15.8048 11.2928 15.4048L7.56284 13.1668C6.76055 13.9569 5.65943 14.4444 4.44444 14.4444C1.98985 14.4444 0 12.4546 0 10C0 7.5454 1.98985 5.55556 4.44444 5.55556C5.78214 5.55556 6.9818 6.14653 7.79658 7.08164L11.2088 5.37553C11.1448 5.07528 11.1111 4.76379 11.1111 4.44444C11.1111 1.98985 13.101 0 15.5556 0C18.0102 0 20 1.98985 20 4.44444ZM17.7778 4.44444C17.7778 5.67174 16.7829 6.66667 15.5556 6.66667C14.3283 6.66667 13.3333 5.67174 13.3333 4.44444C13.3333 3.21714 14.3283 2.22222 15.5556 2.22222C16.7829 2.22222 17.7778 3.21714 17.7778 4.44444ZM17.7778 16.6667C17.7778 17.894 16.7829 18.8889 15.5556 18.8889C14.3283 18.8889 13.3333 17.894 13.3333 16.6667C13.3333 15.4394 14.3283 14.4444 15.5556 14.4444C16.7829 14.4444 17.7778 15.4394 17.7778 16.6667ZM6.66667 10C6.66667 11.2273 5.67174 12.2222 4.44444 12.2222C3.21715 12.2222 2.22222 11.2273 2.22222 10C2.22222 8.7727 3.21715 7.77778 4.44444 7.77778C5.67174 7.77778 6.66667 8.7727 6.66667 10Z" fill="#DFE3F0"/>
<path fill-rule="evenodd" clip-rule="evenodd" d="M20 4.44444C20 6.89904 18.0102 8.88889 15.5556 8.88889C14.2178 8.88889 13.0182 8.29789 12.2034 7.36276L8.79119 9.06886C8.8552 9.36913 8.88889 9.68063 8.88889 10C8.88889 10.4383 8.82543 10.8619 8.7072 11.2619L12.4372 13.4999C13.2394 12.7098 14.3406 12.2222 15.5556 12.2222C18.0102 12.2222 20 14.2121 20 16.6667C20 19.1213 18.0102 21.1111 15.5556 21.1111C13.101 21.1111 11.1111 19.1213 11.1111 16.6667C11.1111 16.2283 11.1746 15.8048 11.2928 15.4048L7.56284 13.1668C6.76055 13.9569 5.65943 14.4444 4.44444 14.4444C1.98985 14.4444 0 12.4546 0 10C0 7.5454 1.98985 5.55556 4.44444 5.55556C5.78214 5.55556 6.9818 6.14653 7.79658 7.08164L11.2088 5.37553C11.1448 5.07528 11.1111 4.76379 11.1111 4.44444C11.1111 1.98985 13.101 0 15.5556 0C18.0102 0 20 1.98985 20 4.44444ZM17.7778 4.44444C17.7778 5.67174 16.7829 6.66667 15.5556 6.66667C14.3283 6.66667 13.3333 5.67174 13.3333 4.44444C13.3333 3.21714 14.3283 2.22222 15.5556 2.22222C16.7829 2.22222 17.7778 3.21714 17.7778 4.44444ZM17.7778 16.6667C17.7778 17.894 16.7829 18.8889 15.5556 18.8889C14.3283 18.8889 13.3333 17.894 13.3333 16.6667C13.3333 15.4394 14.3283 14.4444 15.5556 14.4444C16.7829 14.4444 17.7778 15.4394 17.7778 16.6667ZM6.66667 10C6.66667 11.2273 5.67174 12.2222 4.44444 12.2222C3.21715 12.2222 2.22222 11.2273 2.22222 10C2.22222 8.7727 3.21715 7.77778 4.44444 7.77778C5.67174 7.77778 6.66667 8.7727 6.66667 10Z" fill="url(#paint0_linear_2803_5443)"/>
<defs>
<linearGradient id="paint0_linear_2803_5443" x1="0" y1="0" x2="21.0803" y2="19.9708" gradientUnits="userSpaceOnUse">
<stop stop-color="#78A0FF"/>
<stop offset="1" stop-color="#5078E6"/>
</linearGradient>
</defs>
</svg>
