<svg width="15" height="15" viewBox="0 0 15 15" fill="none" xmlns="http://www.w3.org/2000/svg">
<path fill-rule="evenodd" clip-rule="evenodd" d="M11.5781 9.20241C11.9175 8.27719 11.9552 7.26827 11.686 6.32027C11.4167 5.37227 10.8542 4.53384 10.0792 3.92516C9.30409 3.31647 8.35623 2.96879 7.37142 2.93192C6.38661 2.89506 5.4154 3.17091 4.597 3.71995C3.7786 4.26898 3.15503 5.06301 2.81564 5.98823C2.47626 6.91345 2.43849 7.92237 2.70776 8.87037C2.97702 9.81838 3.53949 10.6568 4.31456 11.2655C5.08962 11.8742 6.03748 12.2219 7.02229 12.2587C7.66617 12.2828 8.1686 12.8243 8.1445 13.4682C8.1204 14.1121 7.57889 14.6145 6.93501 14.5904C5.45779 14.5351 4.036 14.0136 2.8734 13.1006C1.71081 12.1875 0.867104 10.9299 0.463208 9.5079C0.0593121 8.08589 0.11596 6.57252 0.625035 5.18469C1.13411 3.79686 2.06948 2.60581 3.29708 1.78226C4.52467 0.958706 5.98148 0.544926 7.4587 0.600222C8.93592 0.655518 10.3577 1.17705 11.5203 2.09007C12.6829 3.0031 13.5266 4.26074 13.9305 5.68274C14.3344 7.10475 14.2777 8.61812 13.7687 10.006C13.5468 10.6109 12.8765 10.9214 12.2716 10.6995C11.6667 10.4776 11.3562 9.80733 11.5781 9.20241Z" fill="#365FD9"/>
</svg>
