<svg width="33" height="27" viewBox="0 0 33 27" fill="none" xmlns="http://www.w3.org/2000/svg">
<g opacity="0.68">
<path d="M32.0245 1.75562C32.0245 2.13989 31.8718 2.50843 31.6001 2.78015C31.3284 3.05187 30.9599 3.20453 30.5756 3.20453L27.6778 3.20453C26.2043 3.19954 24.7588 3.6075 23.5054 4.38216C22.2519 5.15682 21.2406 6.26718 20.5861 7.58734L14.1791 20.4031C13.2851 22.2056 11.904 23.7216 10.1924 24.7792C8.48084 25.8369 6.50717 26.3939 4.49517 26.3871H1.59735C1.21307 26.3871 0.844537 26.2345 0.572814 25.9627C0.30109 25.691 0.148437 25.3225 0.148437 24.9382C0.148437 24.5539 0.30109 24.1854 0.572814 23.9137C0.844537 23.6419 1.21307 23.4893 1.59735 23.4893H4.49517C5.96866 23.4942 7.41405 23.0862 8.66748 22.3115C9.92092 21.5369 10.9323 20.4266 11.5869 19.1065L17.9938 6.29071C18.8877 4.48816 20.2688 2.97212 21.9804 1.91446C23.692 0.856795 25.6657 0.299829 27.6778 0.306704L30.5756 0.306704C30.9599 0.306704 31.3284 0.459356 31.6001 0.73108C31.8718 1.0028 32.0245 1.37134 32.0245 1.75562V1.75562Z" fill="url(#paint0_linear_803_1865)"/>
</g>
<defs>
<linearGradient id="paint0_linear_803_1865" x1="0.148438" y1="0.306641" x2="25.7125" y2="31.5515" gradientUnits="userSpaceOnUse">
<stop stop-color="#78A0FF"/>
<stop offset="1" stop-color="#5078E6"/>
</linearGradient>
</defs>
</svg>
