<svg width="20" height="20" viewBox="0 0 20 20" fill="none" xmlns="http://www.w3.org/2000/svg">
<path d="M11.5707 9.87523L11.9513 9.55095L18.3581 4.09221C18.6246 3.86515 18.7857 3.54995 18.8136 3.20133C18.8414 2.85272 18.7324 2.51593 18.5053 2.24943C18.2783 1.98294 17.9631 1.82183 17.6144 1.79397C17.2658 1.76612 16.929 1.87514 16.6625 2.1022L10.2558 7.56094L9.87517 7.88521L9.5509 7.50462L4.09216 1.09783C3.8651 0.831331 3.54989 0.670217 3.20128 0.642363C2.85266 0.614508 2.51587 0.723529 2.24938 0.950589C1.98288 1.17765 1.82177 1.49285 1.79391 1.84147C1.76606 2.19009 1.87508 2.52687 2.10214 2.79337L7.56088 9.20016L7.88515 9.58075L7.50456 9.90502L1.09777 15.3638L1.09775 15.3638C0.831287 15.5908 0.670161 15.906 0.642306 16.2546C0.614462 16.6031 0.723386 16.9398 0.950264 17.2062C1.17814 17.4732 1.49303 17.6342 1.84141 17.662C2.18979 17.6898 2.52624 17.5809 2.79363 17.3535L9.2001 11.895L9.58069 11.5708L9.90496 11.9514L15.3634 18.3578C15.5913 18.6248 15.9062 18.7858 16.2546 18.8136C16.6028 18.8414 16.9392 18.7326 17.2065 18.5054L11.5707 9.87523ZM11.5707 9.87523L11.895 10.2558M11.5707 9.87523L11.895 10.2558M11.895 10.2558L17.3537 16.6626C17.5808 16.9291 17.6898 17.2659 17.6619 17.6145C17.6341 17.963 17.4731 18.2781 17.2068 18.5051L11.895 10.2558Z" fill="url(#paint0_linear_5044_11467)" stroke="url(#paint1_linear_5044_11467)"/>
<defs>
<linearGradient id="paint0_linear_5044_11467" x1="1.43945" y1="0" x2="18.0164" y2="19.456" gradientUnits="userSpaceOnUse">
<stop stop-color="#78A0FF"/>
<stop offset="1" stop-color="#5078E6"/>
</linearGradient>
<linearGradient id="paint1_linear_5044_11467" x1="1.43945" y1="0" x2="18.0164" y2="19.456" gradientUnits="userSpaceOnUse">
<stop stop-color="#78A0FF"/>
<stop offset="1" stop-color="#5078E6"/>
</linearGradient>
</defs>
</svg>
