<svg width="32" height="111" viewBox="0 0 32 111" fill="none" xmlns="http://www.w3.org/2000/svg">
<path d="M31 95C31 103.284 24.2843 110 16 110C7.71573 110 1 103.284 1 95C1 86.7157 7.71573 80 16 80C24.2843 80 31 86.7157 31 95Z" stroke="url(#paint0_linear)" stroke-width="2"/>
<path fill-rule="evenodd" clip-rule="evenodd" d="M16 88.4414C18.1361 88.4414 18.3891 88.4495 19.2326 88.488C20.0126 88.5236 20.4362 88.6539 20.7181 88.7635C21.0915 88.9086 21.3581 89.082 21.638 89.3619C21.9179 89.6418 22.0913 89.9084 22.2364 90.2818C22.346 90.5637 22.4763 90.9873 22.5119 91.7672C22.5504 92.6108 22.5585 92.8638 22.5585 95C22.5585 97.1361 22.5504 97.3891 22.5119 98.2326C22.4763 99.0126 22.346 99.4362 22.2364 99.7181C22.0913 100.092 21.9179 100.358 21.638 100.638C21.3581 100.918 21.0915 101.091 20.7181 101.236C20.4362 101.346 20.0126 101.476 19.2326 101.512C18.3892 101.55 18.1362 101.558 16 101.558C13.8637 101.558 13.6107 101.55 12.7673 101.512C11.9873 101.476 11.5637 101.346 11.2818 101.236C10.9084 101.091 10.6418 100.918 10.3619 100.638C10.082 100.358 9.9086 100.092 9.76351 99.7181C9.65395 99.4362 9.52362 99.0126 9.48802 98.2327C9.44954 97.3891 9.44141 97.1361 9.44141 95C9.44141 92.8638 9.44954 92.6108 9.48802 91.7673C9.52362 90.9873 9.65395 90.5637 9.76351 90.2818C9.9086 89.9084 10.082 89.6418 10.3619 89.3619C10.6418 89.082 10.9084 88.9086 11.2818 88.7635C11.5637 88.6539 11.9873 88.5236 12.7672 88.488C13.6108 88.4495 13.8638 88.4414 16 88.4414ZM16 87C13.8273 87 13.5549 87.0092 12.7016 87.0481C11.8501 87.087 11.2686 87.2222 10.7597 87.42C10.2336 87.6245 9.78745 87.898 9.34271 88.3427C8.89797 88.7875 8.62442 89.2336 8.41997 89.7597C8.2222 90.2686 8.08698 90.8501 8.04811 91.7016C8.00918 92.5549 8 92.8273 8 95C8 97.1727 8.00918 97.4451 8.04811 98.2984C8.08698 99.1499 8.2222 99.7314 8.41997 100.24C8.62442 100.766 8.89797 101.213 9.34271 101.657C9.78745 102.102 10.2336 102.376 10.7597 102.58C11.2686 102.778 11.8501 102.913 12.7016 102.952C13.5549 102.991 13.8273 103 16 103C18.1727 103 18.4451 102.991 19.2984 102.952C20.1499 102.913 20.7314 102.778 21.2403 102.58C21.7664 102.376 22.2125 102.102 22.6573 101.657C23.102 101.213 23.3755 100.766 23.58 100.24C23.7778 99.7314 23.913 99.1499 23.9519 98.2984C23.9908 97.4451 24 97.1727 24 95C24 92.8273 23.9908 92.5549 23.9519 91.7016C23.913 90.8501 23.7778 90.2686 23.58 89.7597C23.3755 89.2336 23.102 88.7875 22.6573 88.3427C22.2125 87.898 21.7664 87.6245 21.2403 87.42C20.7314 87.2222 20.1499 87.087 19.2984 87.0481C18.4451 87.0092 18.1727 87 16 87ZM16.0159 90.9048C13.7454 90.9048 11.9048 92.7454 11.9048 95.0159C11.9048 97.2864 13.7454 99.127 16.0159 99.127C18.2864 99.127 20.127 97.2864 20.127 95.0159C20.127 92.7454 18.2864 90.9048 16.0159 90.9048ZM16.0159 97.6845C14.542 97.6845 13.3472 96.4897 13.3472 95.0159C13.3472 93.542 14.542 92.3472 16.0159 92.3472C17.4897 92.3472 18.6845 93.542 18.6845 95.0159C18.6845 96.4897 17.4897 97.6845 16.0159 97.6845ZM21.2065 90.7143C21.2065 91.2403 20.7801 91.6667 20.2542 91.6667C19.7282 91.6667 19.3018 91.2403 19.3018 90.7143C19.3018 90.1883 19.7282 89.762 20.2542 89.762C20.7801 89.762 21.2065 90.1883 21.2065 90.7143Z" fill="url(#paint1_linear)"/>
<defs>
<linearGradient id="paint0_linear" x1="-17.6391" y1="93.0495" x2="12.844" y2="124.26" gradientUnits="userSpaceOnUse">
<stop stop-color="#FFCC5C"/>
<stop offset="1" stop-color="#FF9E65"/>
</linearGradient>
<linearGradient id="paint1_linear" x1="-0.819534" y1="94.0247" x2="14.422" y2="109.63" gradientUnits="userSpaceOnUse">
<stop stop-color="#FFCC5C"/>
<stop offset="1" stop-color="#FF9E65"/>
</linearGradient>
</defs>
</svg>
