<svg width="190" height="31" viewBox="0 0 190 31" fill="none" xmlns="http://www.w3.org/2000/svg">
<path d="M0 24.9677L1.51882 19.0462C3.74689 19.0462 5.93914 18.9179 8.1099 19.089C9.66812 19.2138 10.2878 20.4401 9.87588 21.9588C9.43528 23.5844 7.89856 24.8108 5.84242 24.9391C3.94749 25.0568 2.0418 24.9677 0 24.9677Z" fill="white"/>
<path d="M4 12L5.50563 6.03569C7.30066 6.03569 8.99678 5.94203 10.6746 6.05817C12.7957 6.20802 13.51 7.58296 12.6345 9.56482C12.041 10.906 11.0849 11.7827 9.62688 11.9588C9.082 12 8.53524 12.0088 7.98937 11.985H4V12Z" fill="white"/>
<path fill-rule="evenodd" clip-rule="evenodd" d="M45.332 8.91488C47.3502 4.22562 44.6243 0.0602605 39.457 0.0196769C36.5066 -0.00983694 33.5545 -9.83438e-07 30.6018 0.00983688H30.6018H30.6017C29.1252 0.0147566 27.6485 0.0196769 26.1719 0.0196769H17.5597C24.7415 2.665 23.4122 11.5196 15.4404 14.5413C19.4656 16.3159 20.5178 18.8136 18.9114 22.9384C17.1478 27.469 13.6131 29.8745 9 30.985C10.8972 30.985 12.7945 30.9888 14.6917 30.9925C19.8415 31.0027 24.9912 31.0128 30.1409 30.9481C31.8216 30.863 33.4866 30.5857 35.1023 30.1217C40.0973 28.8747 42.651 25.4029 43.5983 20.6399C44.0589 18.3303 43.003 16.5815 41.0184 15.3566C40.7046 15.1619 40.3745 14.9912 39.9927 14.7938L39.9926 14.7937C39.7957 14.6919 39.5851 14.5831 39.3559 14.4601C42.2803 13.3533 44.2049 11.5344 45.332 8.91488ZM33.8854 21.3556C33.2675 23.2004 31.7885 24.1338 29.9612 24.285C28.5164 24.405 27.0572 24.3784 25.5292 24.3507C24.8476 24.3383 24.1523 24.3256 23.4385 24.3256L25.1384 17.8728C27.5835 17.6551 29.8751 17.895 32.148 18.1385C33.7206 18.3045 34.4246 19.7212 33.8854 21.3556ZM31.8559 12.2132C34.125 12.1948 35.4356 11.1322 35.9972 9.01817L35.9897 9.01448C36.3717 7.57929 35.7314 6.5647 34.447 6.42819C33.0034 6.27273 31.5393 6.30651 30.0706 6.3404C29.448 6.35477 28.8245 6.36916 28.2014 6.36916L26.7036 12.2132H31.8559Z" fill="white"/>
<path fill-rule="evenodd" clip-rule="evenodd" d="M54.4131 7H62.4955C66.4895 7 68 8.75109 68 11.0137C68 13.1755 66.573 14.9228 64.4453 15.5949C66.0133 15.8791 67.1297 17.3201 67.0487 18.9552C67.0487 23.2004 63.5194 25 58.8936 25H51L54.4131 7ZM56.5662 17.4542L55.7638 21.6733H58.8646C61.6677 21.6733 62.7933 21.0311 62.7933 19.2539C62.7933 18.1338 61.9908 17.4542 60.041 17.4542H56.5662ZM57.1399 14.374L57.9169 10.3603H60.9669C62.8441 10.3603 63.5703 10.9278 63.5703 12.0852C63.5703 13.448 62.51 14.374 60.6946 14.374H57.1399Z" fill="white"/>
<path fill-rule="evenodd" clip-rule="evenodd" d="M75.9999 7.85801C75.9999 6.86955 75.2971 6 73.9653 6V6.00743C72.6089 6.00743 71.9307 6.86955 71.9307 7.85801C71.9307 8.93565 72.5597 9.8052 73.9653 9.8052C75.2725 9.8052 75.9999 8.93194 75.9999 7.85801ZM75.0793 11.6855H71.4458L69 25H72.6195L75.0793 11.6855Z" fill="white"/>
<path d="M77.5853 11.2027H80.1662L80.9187 8H84.6702L83.9177 11.2027H88L87.4256 14.3522H83.2707L82.1256 19.2039C81.7984 20.9099 82.2019 21.5916 83.2161 21.5916C84.1098 21.5626 84.9777 21.2709 85.7208 20.75L86.2951 23.3739C85.4445 24.2155 83.7505 25 81.7875 25C78.9085 25 77.578 23.45 78.1523 20.3273L79.5046 14.3445H77L77.5853 11.2027Z" fill="white"/>
<path d="M100.819 22.7547C99.2488 24.2222 97.1789 25.0258 95.0371 24.9994C91.1491 24.9994 88 22.8594 88 19.0435C88 14.4044 91.7618 11 96.8011 11C99.5899 11 101.202 12.0812 102 12.8032L99.9279 15.5118C98.989 14.732 97.8021 14.3201 96.5857 14.3521C94.3836 14.3521 92.1851 16.0805 92.1851 18.5534C92.1851 20.3304 93.4403 21.5463 95.4085 21.5463C96.8113 21.5041 98.1611 20.9964 99.2483 20.1022L100.819 22.7547Z" fill="white"/>
<path fill-rule="evenodd" clip-rule="evenodd" d="M119 16.7735C119 13.2436 116.383 11 112.372 11C107.038 11 103 14.2981 103 19.2265C103 22.7564 105.877 25 110.05 25C115.119 25 119 21.6944 119 16.7735ZM114.72 17.1325C114.72 19.9408 112.636 21.7693 110.391 21.7693H110.395C108.544 21.7693 107.276 20.6101 107.272 18.7816C107.272 16.0893 109.598 14.2196 111.709 14.2196C113.533 14.2196 114.72 15.1993 114.72 17.1325Z" fill="white"/>
<path fill-rule="evenodd" clip-rule="evenodd" d="M127 7.85801C127 6.86955 126.297 6 124.965 6V6.00743C123.609 6.00743 122.931 6.86955 122.931 7.85801C122.931 8.93565 123.56 9.8052 124.965 9.8052C126.273 9.8052 127 8.93194 127 7.85801ZM126.079 11.6855H122.446L120 25H123.619L126.079 11.6855Z" fill="white"/>
<path d="M128.579 11.2495H132.389L132.238 12.017C132.175 12.4082 132.082 12.7932 131.958 13.1683H132.035C132.872 11.9786 134.677 11 136.479 11C139.427 11 140.974 12.324 141 14.9413C140.996 15.4823 140.946 16.0217 140.849 16.5532L139.265 25H135.455L136.851 17.4896C136.92 17.132 136.954 16.7682 136.954 16.4035C136.929 15.0296 136.192 14.4194 134.721 14.4194C133.402 14.4194 132.054 15.1064 131.472 16.1656L129.821 24.9923H126L128.579 11.2495Z" fill="white"/>
<path fill-rule="evenodd" clip-rule="evenodd" d="M147.407 7H155.493C159.489 7 161 8.75109 161 11.0137C161 13.1755 159.572 14.9228 157.444 15.5949C159.012 15.8791 160.129 17.3201 160.048 18.9552C160.048 23.2004 156.518 25 151.89 25H144L147.407 7ZM149.561 17.4542L148.759 21.6733H151.861C154.665 21.6733 155.791 21.0311 155.791 19.2539C155.791 18.1338 154.988 17.4542 153.038 17.4542H149.561ZM150.135 14.374L150.913 10.3604H153.964C155.842 10.3604 156.568 10.9279 156.568 12.0853C156.568 13.4481 155.508 14.374 153.691 14.374H150.135Z" fill="white"/>
<path fill-rule="evenodd" clip-rule="evenodd" d="M177 16.7735C177 13.2436 174.383 11 170.372 11C165.038 11 161.015 14.2981 161 19.2265C161 22.7564 163.877 25 168.05 25C173.119 25 177 21.6944 177 16.7735ZM172.72 17.1325C172.72 19.9408 170.636 21.7693 168.391 21.7693C166.544 21.7693 165.276 20.6101 165.272 18.7816C165.272 16.0893 167.598 14.2196 169.709 14.2196C171.533 14.2196 172.72 15.1993 172.72 17.1325Z" fill="white"/>
<path d="M179.592 11.202H182.17L182.922 8H186.673L185.922 11.202H190L189.426 14.3507H185.272L184.121 19.2052C183.794 20.9109 184.197 21.5924 185.21 21.5924C186.103 21.5631 186.97 21.2716 187.712 20.751L188.286 23.3742C187.436 24.2157 185.744 25 183.783 25C180.907 25 179.577 23.4504 180.151 20.3283L181.502 14.3469H179L179.592 11.202Z" fill="white"/>
</svg>
