<svg width="190" height="31" fill="none" xmlns="http://www.w3.org/2000/svg"><path d="M0 24.968l1.519-5.922c2.228 0 4.42-.128 6.59.043 1.56.125 2.179 1.351 1.767 2.87-.44 1.625-1.977 2.852-4.034 2.98-1.895.118-3.8.029-5.842.029zM4 12l1.506-5.964c1.795 0 3.49-.094 5.169.022 2.12.15 2.835 1.525 1.96 3.507-.594 1.341-1.55 2.218-3.008 2.394-.545.041-1.092.05-1.638.026H4V12z" fill="currentColor"/><path fill-rule="evenodd" clip-rule="evenodd" d="M45.332 8.915C47.35 4.225 44.624.06 39.457.02c-2.95-.03-5.902-.02-8.855-.01-1.477.005-2.954.01-4.43.01H17.56c7.181 2.645 5.852 11.5-2.12 14.521 4.026 1.775 5.078 4.273 3.471 8.397-1.763 4.531-5.298 6.937-9.911 8.047 1.897 0 3.794.004 5.692.008 5.15.01 10.3.02 15.449-.045a22.008 22.008 0 0 0 4.961-.826c4.995-1.247 7.549-4.72 8.496-9.482.46-2.31-.595-4.059-2.58-5.283a14.996 14.996 0 0 0-1.025-.563c-.197-.102-.408-.21-.637-.334 2.924-1.107 4.849-2.926 5.976-5.545zm-11.447 12.44c-.617 1.845-2.096 2.779-3.924 2.93-1.445.12-2.904.093-4.432.066-.681-.013-1.377-.025-2.09-.025l1.7-6.453c2.445-.218 4.736.022 7.009.265 1.573.166 2.276 1.583 1.737 3.218zm-2.03-9.142c2.27-.018 3.58-1.08 4.142-3.195l-.007-.004c.382-1.435-.259-2.45-1.543-2.586-1.444-.155-2.908-.121-4.377-.088-.622.015-1.245.03-1.869.03l-1.497 5.843h5.152zM54.413 7h8.083C66.49 7 68 8.751 68 11.014c0 2.162-1.427 3.909-3.555 4.58 1.568.285 2.685 1.726 2.604 3.361 0 4.245-3.53 6.045-8.155 6.045H51l3.413-18zm2.153 10.454l-.802 4.22h3.1c2.804 0 3.93-.643 3.93-2.42 0-1.12-.803-1.8-2.753-1.8h-3.475zm.574-3.08l.777-4.014h3.05c1.877 0 2.603.568 2.603 1.725 0 1.363-1.06 2.289-2.875 2.289H57.14zM76 7.858C76 6.87 75.297 6 73.965 6v.007c-1.356 0-2.034.863-2.034 1.851 0 1.078.629 1.947 2.034 1.947 1.308 0 2.035-.873 2.035-1.947zm-.92 3.827h-3.634L69 25h3.62l2.46-13.315z" fill="currentColor"/><path d="M77.585 11.203h2.581L80.92 8h3.751l-.752 3.203H88l-.574 3.15H83.27l-1.145 4.85c-.328 1.707.076 2.389 1.09 2.389a4.622 4.622 0 0 0 2.505-.842l.574 2.624c-.85.841-2.544 1.626-4.508 1.626-2.879 0-4.209-1.55-3.635-4.673l1.353-5.983H77l.585-3.141zM100.819 22.755a8.317 8.317 0 0 1-5.782 2.244C91.15 25 88 22.86 88 19.044 88 14.404 91.762 11 96.801 11c2.789 0 4.401 1.081 5.199 1.803l-2.072 2.709a5.024 5.024 0 0 0-3.342-1.16c-2.202 0-4.4 1.729-4.4 4.201 0 1.777 1.254 2.993 3.222 2.993a6.345 6.345 0 0 0 3.84-1.444l1.571 2.653z" fill="currentColor"/><path fill-rule="evenodd" clip-rule="evenodd" d="M119 16.773c0-3.53-2.617-5.773-6.628-5.773-5.334 0-9.372 3.298-9.372 8.227 0 3.53 2.877 5.773 7.05 5.773 5.069 0 8.95-3.306 8.95-8.227zm-4.28.36c0 2.808-2.084 4.636-4.329 4.636h.004c-1.851 0-3.119-1.159-3.123-2.987 0-2.693 2.326-4.562 4.437-4.562 1.824 0 3.011.98 3.011 2.912zM127 7.858C127 6.87 126.297 6 124.965 6v.007c-1.356 0-2.034.863-2.034 1.851 0 1.078.629 1.947 2.034 1.947 1.308 0 2.035-.873 2.035-1.947zm-.921 3.827h-3.633L120 25h3.619l2.46-13.315z" fill="currentColor"/><path d="M128.579 11.25h3.81l-.151.767a7.43 7.43 0 0 1-.28 1.151h.077c.837-1.19 2.642-2.168 4.444-2.168 2.948 0 4.495 1.324 4.521 3.941a9.364 9.364 0 0 1-.151 1.612L139.265 25h-3.81l1.396-7.51c.069-.358.103-.722.103-1.086-.025-1.374-.762-1.985-2.233-1.985-1.319 0-2.667.687-3.249 1.747l-1.651 8.826H126l2.579-13.743z" fill="currentColor"/><path fill-rule="evenodd" clip-rule="evenodd" d="M147.407 7h8.086C159.489 7 161 8.751 161 11.014c0 2.162-1.428 3.909-3.556 4.58 1.568.285 2.685 1.726 2.604 3.361 0 4.245-3.53 6.045-8.158 6.045H144l3.407-18zm2.154 10.454l-.802 4.22h3.102c2.804 0 3.93-.643 3.93-2.42 0-1.12-.803-1.8-2.753-1.8h-3.477zm.574-3.08l.778-4.014h3.051c1.878 0 2.604.568 2.604 1.725 0 1.363-1.06 2.289-2.877 2.289h-3.556zM177 16.773c0-3.53-2.617-5.773-6.628-5.773-5.334 0-9.357 3.298-9.372 8.227 0 3.53 2.877 5.773 7.05 5.773 5.069 0 8.95-3.306 8.95-8.227zm-4.28.36c0 2.808-2.084 4.636-4.329 4.636-1.847 0-3.115-1.159-3.119-2.987 0-2.693 2.326-4.562 4.437-4.562 1.824 0 3.011.98 3.011 2.912z" fill="currentColor"/><path d="M179.592 11.202h2.578L182.922 8h3.751l-.751 3.202H190l-.574 3.149h-4.154l-1.151 4.854c-.327 1.706.076 2.387 1.089 2.387.893-.029 1.76-.32 2.502-.841l.574 2.623c-.85.842-2.542 1.626-4.503 1.626-2.876 0-4.206-1.55-3.632-4.672l1.351-5.981H179l.592-3.145z" fill="currentColor"/></svg>