<svg id="NarfexTokenEcosystem" xmlns="http://www.w3.org/2000/svg" xmlns:xlink="http://www.w3.org/1999/xlink"
     viewBox="0 0 702 705.35">
    <defs>
        <style>
            .cls-1{fill:url(#Безымянный_градиент);}.cls-14,.cls-15,.cls-2,.cls-4{fill:none;}.cls-2{stroke-width:10px;stroke:url(#Безымянный_градиент_2);}.cls-3,.cls-5{fill:#fff;}.cls-3{fill-rule:evenodd;}.cls-4{stroke:#d5e4fe;stroke-width:3px;stroke-dasharray:5
            5;}.cls-6{fill:url(#Безымянный_градиент_3);}.cls-7{fill:url(#Безымянный_градиент_4);}.cls-8{fill:url(#Безымянный_градиент_5);}.cls-9{fill:url(#Безымянный_градиент_6);}.cls-10{fill:url(#Безымянный_градиент_7);}.cls-11{fill:url(#Безымянный_градиент_8);}.cls-12{fill:url(#Безымянный_градиент_9);}.cls-13{fill:url(#Безымянный_градиент_11);}.cls-14,.cls-15{stroke-linecap:round;stroke-linejoin:round;stroke-width:1.5px;}.cls-14{stroke:url(#Безымянный_градиент_12);}.cls-15{stroke:url(#Безымянный_градиент_13);}.cls-16{fill:url(#Безымянный_градиент_15);}.cls-17{fill:url(#Безымянный_градиент_17);}.cls-18{fill:url(#Безымянный_градиент_18);}.cls-19{fill:url(#Безымянный_градиент_19);}.cls-20{fill:url(#Безымянный_градиент_20);}.cls-21{fill:url(#Безымянный_градиент_21);}.cls-22{fill:url(#Безымянный_градиент_22);}.cls-23{fill:url(#Безымянный_градиент_23);}.cls-24{fill:url(#Безымянный_градиент_24);}.cls-25{fill:url(#Безымянный_градиент_25);}.cls-26{fill:url(#Безымянный_градиент_26);}.cls-27{fill:url(#Безымянный_градиент_27);}.cls-28{fill:url(#Безымянный_градиент_28);}.cls-29{fill:url(#Безымянный_градиент_29);}.cls-30{fill:url(#Безымянный_градиент_30);}.cls-31{fill:url(#Безымянный_градиент_31);}.cls-32{fill:url(#Безымянный_градиент_32);}.cls-33{fill:#e3edff;}.cls-34{opacity:0.5;}.cls-35{fill:#224dcf;}.cls-36{fill:#839de7;}
            #NarfexTokenEcosystem {
                --loop-animation: 180s;
                --loop-animation-delay: 1s;
                --icon-animation: 0.5s;
                --circle-start: 16.4%;
            }

            @keyframes rotate-outer {
                from {
                    transform: rotate(0deg);
                }
                to {
                    transform: rotate(360deg);
                }
            }
            @keyframes usd-enter {
                from {
                    transform: translateX(250%);
                }
                to {
                    transform: translateX(0px);
                }
            }
            @keyframes bnb-enter {
                from {
                    transform: translateY(250%);
                }
                to {
                    transform: translateY(0px);
                }
            }
            @keyframes rub-enter {
                from {
                    transform: translateX(-250%);
                }
                to {
                    transform: translateX(0px);
                }
            }
            @keyframes eth-enter {
                from {
                    transform: translateY(-250%);
                }
                to {
                    transform: translateY(0px);
                }
            }
            @keyframes circle-outer {
                from {
                    transform: scale(0);
                }
                to {
                    transform: scale(1);
                }
            }
            @keyframes circle-top {
                0% {
                    transform: translateY(var(--circle-start));
                    opacity: 0;
                }
                50% {
                    transform: translateY(var(--circle-start));
                    opacity: 0;
                }
                to {
                    transform: translateY(0);
                    opacity: 1;
                }
            }
            @keyframes circle-bottom {
                0% {
                    transform: translateY(calc(var(--circle-start) * -1));
                    opacity: 0;
                }
                50% {
                    transform: translateY(calc(var(--circle-start) * -1));
                    opacity: 0;
                }
                to {
                    transform: translateY(0);
                    opacity: 1;
                }
            }
            @keyframes circle-left {
                0% {
                    transform: translateX(var(--circle-start));
                    opacity: 0;
                }
                50% {
                    transform: translateX(var(--circle-start));
                    opacity: 0;
                }
                to {
                    transform: translateX(0);
                    opacity: 1;
                }
            }
            @keyframes circle-right {
                0% {
                    transform: translateX(calc(var(--circle-start) * -1));
                    opacity: 0;
                }
                50% {
                    transform: translateX(calc(var(--circle-start) * -1));
                    opacity: 0;
                }
                to {
                    transform: translateX(0);
                    opacity: 1;
                }
            }
            @keyframes icon-opacity {
                from {
                    opacity: 0;
                }
                to {
                    opacity: 1;
                }
            }
            @keyframes icon-center {
                0% {
                    transform: scale(1);
                }
                50% {
                    transform: scale(1.375);
                }
                100% {
                    transform: scale(1);
                }
            }

            #Currencies {
                transform-box: fill-box;
                transform-origin: center;
                animation: rotate-outer var(--loop-animation) var(--loop-animation-delay) linear infinite;
            }
            .currency {
                transform-box: fill-box;
                transform-origin: center;
                animation: rotate-outer var(--loop-animation) var(--loop-animation-delay) linear infinite reverse;
            }
            #USD {
                animation: rotate-outer var(--loop-animation) var(--loop-animation-delay) linear infinite reverse,
                    usd-enter var(--icon-animation) ease-out;
            }
            #BNB {
                animation: rotate-outer var(--loop-animation) var(--loop-animation-delay) linear infinite reverse,
                bnb-enter var(--icon-animation) ease-out;
            }
            #RUB {
                animation: rotate-outer var(--loop-animation) var(--loop-animation-delay) linear infinite reverse,
                rub-enter var(--icon-animation) ease-out;
            }
            #ETH {
                animation: rotate-outer var(--loop-animation) var(--loop-animation-delay) linear infinite reverse,
                eth-enter var(--icon-animation) ease-out;
            }

            #CircleOuter {
                transform-box: fill-box;
                transform-origin: center;
                animation: rotate-outer var(--loop-animation) var(--loop-animation-delay) linear infinite reverse,
                    circle-outer var(--icon-animation) ease-out;
            }
            #CircleLeft {
                transform-box: fill-box;
                transform-origin: center;
                animation: rotate-outer var(--loop-animation) var(--loop-animation-delay) linear infinite,
                    circle-left var(--loop-animation-delay) ease-out;
            }
            #CircleRight {
                transform-box: fill-box;
                transform-origin: center;
                animation: rotate-outer var(--loop-animation) var(--loop-animation-delay) linear infinite reverse,
                    circle-right var(--loop-animation-delay) ease-out;
            }
            #CircleTop {
                transform-box: fill-box;
                transform-origin: center;
                animation: rotate-outer var(--loop-animation) var(--loop-animation-delay) linear infinite reverse,
                    circle-top var(--loop-animation-delay) ease-out;
            }
            #CircleBottom {
                transform-box: fill-box;
                transform-origin: center;
                animation: rotate-outer var(--loop-animation) var(--loop-animation-delay) linear infinite,
                    circle-bottom var(--loop-animation-delay) ease-out;
            }
            #Icons {
                transform-box: fill-box;
                transform-origin: center;
                animation: rotate-outer var(--loop-animation) var(--loop-animation-delay) linear infinite reverse;
            }
            .icon {
                transform-box: fill-box;
                transform-origin: center;
                opacity: 0;
            }
            #IconTop {
                animation: rotate-outer var(--loop-animation) var(--loop-animation-delay) linear infinite,
                    icon-opacity var(--icon-animation) calc(var(--icon-animation)) ease-out forwards;
            }
            #IconTopRight {
                animation: rotate-outer var(--loop-animation) var(--loop-animation-delay) linear infinite,
                    icon-opacity var(--icon-animation) calc(var(--icon-animation) + 0.125s) ease-out forwards;
            }
            #IconRight {
                animation: rotate-outer var(--loop-animation) var(--loop-animation-delay) linear infinite,
                    icon-opacity var(--icon-animation) calc(var(--icon-animation) + 0.25s) ease-out forwards;
            }
            #IconBottomRight {
                animation: rotate-outer var(--loop-animation) var(--loop-animation-delay) linear infinite,
                    icon-opacity var(--icon-animation) calc(var(--icon-animation) + 0.375s) ease-out forwards;
            }
            #IconBottom {
                animation: rotate-outer var(--loop-animation) var(--loop-animation-delay) linear infinite,
                    icon-opacity var(--icon-animation) calc(var(--icon-animation) + 0.500s) ease-out forwards;
            }
            #IconBottomLeft {
                animation: rotate-outer var(--loop-animation) var(--loop-animation-delay) linear infinite,
                    icon-opacity var(--icon-animation) calc(var(--icon-animation) + 0.625s) ease-out forwards;
            }
            #IconLeft {
                animation: rotate-outer var(--loop-animation) var(--loop-animation-delay) linear infinite,
                    icon-opacity var(--icon-animation) calc(var(--icon-animation) + 0.75s) ease-out forwards;
            }
            #IconTopLeft {
                animation: rotate-outer var(--loop-animation) var(--loop-animation-delay) linear infinite,
                    icon-opacity var(--icon-animation) calc(var(--icon-animation) + 0.875s) ease-out forwards;
            }
            #IconCenter {
                transform-box: fill-box;
                transform-origin: center;
                animation: icon-center calc(var(--icon-animation) / 2) ease;
            }
        </style>
        <linearGradient id="Безымянный_градиент" x1="351" y1="316.48" x2="351" y2="378.53"
                        gradientTransform="matrix(1, 0, 0, -1, 0, 705.89)" gradientUnits="userSpaceOnUse">
            <stop offset="0" stop-color="#fabe4c"/>
            <stop offset="1" stop-color="#fa9751"/>
        </linearGradient>
        <linearGradient id="Безымянный_градиент_2" x1="353.9" y1="399.89" x2="347.89" y2="303.09"
                        xlink:href="#Безымянный_градиент"/>
        <linearGradient id="Безымянный_градиент_3" x1="193.34" y1="372.14" x2="208.56" y2="352.27"
                        gradientTransform="matrix(1, 0, 0, -1, 0, 705.89)" gradientUnits="userSpaceOnUse">
            <stop offset="0" stop-color="#78a0ff"/>
            <stop offset="1" stop-color="#5078e6"/>
        </linearGradient>
        <linearGradient id="Безымянный_градиент_4" x1="218.93" y1="351.29" x2="222.01" y2="346.67"
                        xlink:href="#Безымянный_градиент_3"/>
        <linearGradient id="Безымянный_градиент_5" x1="195.6" y1="364.3" x2="218.4" y2="333.9"
                        xlink:href="#Безымянный_градиент_3"/>
        <linearGradient id="Безымянный_градиент_6" x1="203.14" y1="356.83" x2="204.64" y2="350.06"
                        gradientTransform="matrix(1, 0, 0, -1, 0, 705.89)" gradientUnits="userSpaceOnUse">
            <stop offset="0" stop-color="#fecf8e"/>
            <stop offset="1" stop-color="#d27624"/>
        </linearGradient>
        <linearGradient id="Безымянный_градиент_7" x1="219.69" y1="351.68" x2="222.75" y2="346.32"
                        xlink:href="#Безымянный_градиент_6"/>
        <linearGradient id="Безымянный_градиент_8" x1="242.63" y1="269.73" x2="256.76" y2="246.05"
                        xlink:href="#Безымянный_градиент_3"/>
        <linearGradient id="Безымянный_градиент_9" x1="232.01" y1="251.67" x2="250.97" y2="238.32"
                        xlink:href="#Безымянный_градиент_3"/>
        <linearGradient id="Безымянный_градиент_11" x1="247.99" y1="251.73" x2="266.95" y2="238.37"
                        xlink:href="#Безымянный_градиент_6"/>
        <linearGradient id="Безымянный_градиент_12" x1="255.5" y1="450.39" x2="268.33" y2="437.56"
                        xlink:href="#Безымянный_градиент_3"/>
        <linearGradient id="Безымянный_градиент_13" x1="231.67" y1="474.22" x2="244.5" y2="461.39"
                        xlink:href="#Безымянный_градиент_3"/>
        <linearGradient id="Безымянный_градиент_15" x1="256.16" y1="470.13" x2="262.77" y2="456.03"
                        xlink:href="#Безымянный_градиент_3"/>
        <linearGradient id="Безымянный_градиент_17" x1="237.82" y1="449.04" x2="244.43" y2="434.95"
                        xlink:href="#Безымянный_градиент_3"/>
        <linearGradient id="Безымянный_градиент_18" x1="256.45" y1="477.8" x2="260.88" y2="465.61"
                        xlink:href="#Безымянный_градиент_6"/>
        <linearGradient id="Безымянный_градиент_19" x1="238.33" y1="457.1" x2="242.77" y2="444.91"
                        xlink:href="#Безымянный_градиент_6"/>
        <linearGradient id="Безымянный_градиент_20" x1="431.95" y1="244.79" x2="445.78" y2="234.99"
                        xlink:href="#Безымянный_градиент_3"/>
        <linearGradient id="Безымянный_градиент_21" x1="442.49" y1="248.46" x2="461.17" y2="238.08"
                        xlink:href="#Безымянный_градиент_3"/>
        <linearGradient id="Безымянный_градиент_22" x1="460.3" y1="242.05" x2="469.4" y2="231.73"
                        xlink:href="#Безымянный_градиент_3"/>
        <linearGradient id="Безымянный_градиент_23" x1="445.37" y1="270.08" x2="457.61" y2="257.71"
                        xlink:href="#Безымянный_градиент_6"/>
        <linearGradient id="Безымянный_градиент_24" x1="431.42" y1="464.47" x2="456.33" y2="450.15"
                        xlink:href="#Безымянный_градиент_3"/>
        <linearGradient id="Безымянный_градиент_25" x1="450.67" y1="464.46" x2="475.57" y2="450.14"
                        xlink:href="#Безымянный_градиент_3"/>
        <linearGradient id="Безымянный_градиент_26" x1="448.19" y1="453.7" x2="455.9" y2="434.4"
                        xlink:href="#Безымянный_градиент_6"/>
        <linearGradient id="Безымянный_градиент_27" x1="476.43" y1="372.53" x2="505.63" y2="341.15"
                        xlink:href="#Безымянный_градиент_3"/>
        <linearGradient id="Безымянный_градиент_28" x1="493.02" y1="345.73" x2="497.37" y2="336.67"
                        xlink:href="#Безымянный_градиент_6"/>
        <linearGradient id="Безымянный_градиент_29" x1="328.31" y1="499.67" x2="351.52" y2="492.11"
                        xlink:href="#Безымянный_градиент_3"/>
        <linearGradient id="Безымянный_градиент_30" x1="348.48" y1="499.67" x2="371.69" y2="492.11"
                        xlink:href="#Безымянный_градиент_3"/>
        <linearGradient id="Безымянный_градиент_31" x1="493.89" y1="520.61" x2="505.8" y2="500.19"
                        gradientTransform="matrix(0, 1, 1, 0, -150.13, -284.47)" xlink:href="#Безымянный_градиент_6"/>
        <linearGradient id="Безымянный_градиент_32" x1="333.93" y1="220.55" x2="368.07" y2="193.23"
                        xlink:href="#Безымянный_градиент_3"/>
    </defs>
    <title>NarfexTokenEcosystem</title>
    <circle id="CircleOuter" class="cls-4" cx="347.64" cy="351.84" r="293.31"/>
    <circle id="CircleLeft" class="cls-4" cx="273.84" cy="351.84" r="219.5"/>
    <circle id="CircleRight" class="cls-4" cx="421.45" cy="351.84" r="219.5"/>
    <circle id="CircleTop" class="cls-4" cx="347.65" cy="277.61" r="219.5"/>
    <circle id="CircleBottom" class="cls-4" cx="355.19" cy="424.39" r="219.5"/>
    <g id="Icons">
        <g id="IconLeft" class="icon">
            <circle class="cls-5" cx="208.42" cy="351.84" r="41.52"/>
            <path class="cls-6"
                  d="M211.75,338.58v6.34h-2.5v-6.34a.67.67,0,0,0-.67-.66.59.59,0,0,0-.25.05l-13.21,5a2.23,2.23,0,0,0-1.45,2.12v1.11a6.23,6.23,0,0,0-2.5,5v-6.11a4.73,4.73,0,0,1,3.06-4.45l13.24-5a3.1,3.1,0,0,1,1.11-.2A3.17,3.17,0,0,1,211.75,338.58Z"
                  transform="translate(0 0)"/>
            <path class="cls-7"
                  d="M222.83,356.17v1.66a.84.84,0,0,1-.81.84h-2.44a1.73,1.73,0,0,1-1.75-1.52,1.63,1.63,0,0,1,.49-1.33,1.56,1.56,0,0,1,1.16-.49H222A.84.84,0,0,1,222.83,356.17Z"
                  transform="translate(0 0)"/>
            <path class="cls-8"
                  d="M219.47,353.58h1.7a1.67,1.67,0,0,0,1.66-1.66v-.74a6.27,6.27,0,0,0-6.26-6.26H197.43a6.27,6.27,0,0,0-6.26,6.26V362.4a6.28,6.28,0,0,0,6.26,6.27h19.14a6.28,6.28,0,0,0,6.26-6.27v-.32a1.67,1.67,0,0,0-1.66-1.66h-1.45a3.62,3.62,0,0,1-3.55-2.54,3.43,3.43,0,0,1,3.3-4.3Zm-9.14-.33H198.67a1.25,1.25,0,1,1,0-2.5h11.66a1.25,1.25,0,1,1,0,2.5Z"
                  transform="translate(0 0)"/>
            <rect class="cls-9" x="195.89" y="350.67" width="16" height="3.56" rx="1.78"/>
            <rect class="cls-10" x="218.11" y="355.11" width="6.22" height="3.56" rx="1.78"/>
        </g>
        <g id="IconBottomLeft" class="icon">
            <circle class="cls-5" cx="248.68" cy="455" r="41.52"/>
            <path class="cls-11"
                  d="M262.16,449.06l-11.87,6.87a1.59,1.59,0,0,1-1.58,0l-11.87-6.87a1.57,1.57,0,0,1-.41-2.38,5.51,5.51,0,0,1,1.49-1.22l8.36-4.62a7.35,7.35,0,0,1,6.47,0l8.36,4.62a5.91,5.91,0,0,1,1.49,1.22A1.59,1.59,0,0,1,262.16,449.06Z"
                  transform="translate(0 0)"/>
            <path class="cls-12"
                  d="M248.62,458.8v10.51a1.56,1.56,0,0,1-2.23,1.44c-3.18-1.56-8.53-4.47-8.53-4.47a7.57,7.57,0,0,1-3.42-5.95v-8a1.56,1.56,0,0,1,2.33-1.39l11.08,6.43A1.66,1.66,0,0,1,248.62,458.8Z"
                  transform="translate(0 0)"/>
            <path class="cls-13"
                  d="M250.38,458.8v10.51a1.56,1.56,0,0,0,2.23,1.44c3.18-1.56,8.53-4.47,8.53-4.47a7.57,7.57,0,0,0,3.42-5.95v-8a1.56,1.56,0,0,0-2.33-1.39l-11.08,6.43A1.66,1.66,0,0,0,250.38,458.8Z"
                  transform="translate(0 0)"/>
        </g>
        <g id="IconTopLeft" class="icon">
            <circle class="cls-5" cx="250.35" cy="250.35" r="41.52"/>
            <path class="cls-14" d="M268.33,255.5a12.82,12.82,0,0,1-12.83,12.83l1.92-3.21" transform="translate(0 0)"/>
            <path class="cls-15" d="M231.67,244.5a12.81,12.81,0,0,1,12.83-12.83l-1.93,3.2" transform="translate(0 0)"/>
            <path class="cls-16"
                  d="M250.92,238.65a.91.91,0,0,0-.92.92v3.65c0,3.22.81,4,4.07,4h10.19c3.27,0,4.07-.81,4.07-4v-3.65a.9.9,0,0,0-.91-.92Z"
                  transform="translate(0 0)"/>
            <path class="cls-17"
                  d="M232.58,259.73a.91.91,0,0,0-.91.92v3.65c0,3.23.8,4,4.07,4h10.19c3.26,0,4.07-.8,4.07-4v-3.65a.91.91,0,0,0-.92-.92Z"
                  transform="translate(0 0)"/>
            <path class="cls-18"
                  d="M249.57,235.52a4.93,4.93,0,0,1,4.93-4.93h9.12a4.93,4.93,0,0,1,4.93,4.93,2,2,0,0,1-2,2h-15A2,2,0,0,1,249.57,235.52Z"
                  transform="translate(0 0)"/>
            <path class="cls-19"
                  d="M231.45,256.22a4.93,4.93,0,0,1,4.93-4.93h9.12a4.93,4.93,0,0,1,4.93,4.93,2,2,0,0,1-2,2h-15A2,2,0,0,1,231.45,256.22Z"
                  transform="translate(0 0)"/>
        </g>
        <g id="IconBottomRight" class="icon">
            <circle class="cls-5" cx="451.64" cy="455" r="41.52"/>
            <path class="cls-20"
                  d="M442.23,458.67h-4.9a3.67,3.67,0,0,0-3.66,3.66v9.17a1.83,1.83,0,0,0,1.83,1.83h6.73a1.83,1.83,0,0,0,1.83-1.83v-11A1.83,1.83,0,0,0,442.23,458.67Z"
                  transform="translate(0 0)"/>
            <path class="cls-21"
                  d="M454.44,451.33h-4.9a3.68,3.68,0,0,0-3.66,3.67v16.5a1.83,1.83,0,0,0,1.83,1.83h8.56a1.84,1.84,0,0,0,1.84-1.83V455A3.67,3.67,0,0,0,454.44,451.33Z"
                  transform="translate(0 0)"/>
            <path class="cls-22"
                  d="M466.67,464.17h-4.9a1.83,1.83,0,0,0-1.83,1.83v5.5a1.83,1.83,0,0,0,1.83,1.83h6.73a1.83,1.83,0,0,0,1.83-1.83v-3.67A3.67,3.67,0,0,0,466.67,464.17Z"
                  transform="translate(0 0)"/>
            <path class="cls-23"
                  d="M457.52,441.89a1.83,1.83,0,0,0,.6-1.83,1.8,1.8,0,0,0-1.55-1.14l-1.77-.29a.52.52,0,0,1-.27-.2l-1-1.95a1.67,1.67,0,0,0-3.14,0l-1,1.95a.41.41,0,0,1-.25.2l-1.77.29a1.64,1.64,0,0,0-.95,3l1.36,1.38a.48.48,0,0,1,.11.34l-.39,1.69c-.29,1.27.19,1.83.5,2.05a1.82,1.82,0,0,0,2.11-.14l1.65-1a.42.42,0,0,1,.38,0l1.63,1a2.46,2.46,0,0,0,1.27.4,1.44,1.44,0,0,0,.82-.26c.31-.22.79-.78.5-2.05l-.39-1.69a.5.5,0,0,1,.11-.34Z"
                  transform="translate(0 0)"/>
        </g>
        <g id="IconTopRight" class="icon">
            <circle class="cls-5" cx="453.32" cy="250.35" r="41.52"/>
            <path class="cls-24"
                  d="M452.16,236v16.16a1.8,1.8,0,0,1-.77,1.47l-12.92,9.05a1.8,1.8,0,0,1-2.8-1.12,8.15,8.15,0,0,1,1.17-5.3l5.59-10.05,5.27-9.48a12.07,12.07,0,0,1,1.32-1.93A1.8,1.8,0,0,1,452.16,236Z"
                  transform="translate(0 0)"/>
            <path class="cls-25"
                  d="M468.53,262.67l-12.92-9.05a1.8,1.8,0,0,1-.77-1.47V236a1.8,1.8,0,0,1,3.14-1.2,12.07,12.07,0,0,1,1.32,1.93l5.27,9.48,5.59,10.05a8.15,8.15,0,0,1,1.17,5.3A1.8,1.8,0,0,1,468.53,262.67Z"
                  transform="translate(0 0)"/>
            <path class="cls-26"
                  d="M441.42,263.29l11-7.34a2.08,2.08,0,0,1,2.15,0l11,7.34c2.92,2,2.44,3.55-1.07,3.55H442.48C439,266.82,438.5,265.23,441.42,263.29Z"
                  transform="translate(0 0)"/>
        </g>
        <g id="IconRight" class="icon">
            <circle class="cls-5" cx="493.58" cy="351.84" r="41.52"/>
            <path class="cls-27"
                  d="M495.4,337.82a3.39,3.39,0,0,1,.44,0v-5.31a1.34,1.34,0,0,0-2.68,0v5.31a3.1,3.1,0,0,1,.44,0,15.61,15.61,0,0,0-14.83,15.59v3.47a3.59,3.59,0,0,0,3.58,3.58h24.3a3.59,3.59,0,0,0,3.58-3.58v-3.47A15.61,15.61,0,0,0,495.4,337.82Z"
                  transform="translate(0 0)"/>
            <path class="cls-28" d="M499.39,362.24a.91.91,0,0,1,.88,1.13,6,6,0,0,1-11.54,0,.91.91,0,0,1,.88-1.13Z"
                  transform="translate(0 0)"/>
        </g>
        <g id="IconTop" class="icon">
            <circle class="cls-5" cx="350.48" cy="209.52" r="41.52"/>
            <path class="cls-29"
                  d="M341.75,196.25h-.46v-4.58a1.38,1.38,0,1,0-2.75,0v4.58h-.46c-2.91,0-4.58,1.67-4.58,4.58v11c0,2.92,1.67,4.59,4.58,4.59h.46v11.91a1.38,1.38,0,1,0,2.75,0V216.42h.46c2.92,0,4.58-1.67,4.58-4.59v-11C346.33,197.92,344.67,196.25,341.75,196.25Z"
                  transform="translate(0 0)"/>
            <path class="cls-30"
                  d="M361.92,203.58h-.46V191.67a1.38,1.38,0,1,0-2.75,0v11.91h-.46c-2.92,0-4.58,1.67-4.58,4.59v11c0,2.91,1.66,4.58,4.58,4.58h.46v4.58a1.38,1.38,0,1,0,2.75,0v-4.58h.46c2.91,0,4.58-1.67,4.58-4.58v-11C366.5,205.25,364.83,203.58,361.92,203.58Z"
                  transform="translate(0 0)"/>
            <rect class="cls-31" x="353.42" y="203.65" width="13.69" height="23.47" rx="4"/>
        </g>
        <g id="IconBottom" class="icon">
            <circle class="cls-5" cx="350.16" cy="496.1" r="41.52"/>
            <path class="cls-32"
                  d="M358.42,481.5H343.58c-4.83,0-6.58,1.75-6.58,6.67v21.66c0,4.92,1.75,6.67,6.58,6.67H358.4c4.85,0,6.6-1.75,6.6-6.67V488.17C365,483.25,363.25,481.5,358.42,481.5ZM351,511.77a3.06,3.06,0,1,1,3.06-3.06A3.07,3.07,0,0,1,351,511.77Zm3.5-22.83h-7a1.32,1.32,0,0,1,0-2.63h7a1.32,1.32,0,0,1,0,2.63Z"
                  transform="translate(0 0)"/>
        </g>
    </g>
    <g id="Currencies">
        <g id="BNB" class="currency">
            <circle class="cls-33" cx="347.64" cy="59.97" r="59.97"/>
            <g class="cls-34">
                <path class="cls-35"
                      d="M347.46,32,331.82,47.6a1.45,1.45,0,0,0,0,2.1l3.81,3.82a1.47,1.47,0,0,0,2.1,0l9.73-9.73a1.46,1.46,0,0,1,2.11,0l9.73,9.73a1.47,1.47,0,0,0,2.1,0l3.81-3.82a1.45,1.45,0,0,0,0-2.1L349.57,32A1.53,1.53,0,0,0,347.46,32Z"
                      transform="translate(0 0)"/>
                <path class="cls-35"
                      d="M347.46,89.05,331.82,73.4a1.45,1.45,0,0,1,0-2.1l3.81-3.82a1.47,1.47,0,0,1,2.1,0l9.73,9.73a1.46,1.46,0,0,0,2.11,0l9.73-9.73a1.47,1.47,0,0,1,2.1,0l3.81,3.82a1.45,1.45,0,0,1,0,2.1L349.57,89.05A1.53,1.53,0,0,1,347.46,89.05Z"
                      transform="translate(0 0)"/>
                <path class="cls-35"
                      d="M372.46,54.88,377,59.43a1.47,1.47,0,0,1,0,2.1l-4.56,4.56a1.47,1.47,0,0,1-2.1,0l-4.55-4.56a1.45,1.45,0,0,1,0-2.1l4.55-4.55A1.52,1.52,0,0,1,372.46,54.88Z"
                      transform="translate(0 0)"/>
                <path class="cls-35"
                      d="M326.61,54.88l4.55,4.55a1.45,1.45,0,0,1,0,2.1l-4.55,4.56a1.47,1.47,0,0,1-2.1,0L320,61.53a1.47,1.47,0,0,1,0-2.1l4.56-4.55A1.52,1.52,0,0,1,326.61,54.88Z"
                      transform="translate(0 0)"/>
                <path class="cls-35"
                      d="M349.54,54.23l5.23,5.24a1.47,1.47,0,0,1,0,2.1l-5.23,5.23a1.48,1.48,0,0,1-2.11,0l-5.23-5.23a1.47,1.47,0,0,1,0-2.1l5.23-5.24A1.48,1.48,0,0,1,349.54,54.23Z"
                      transform="translate(0 0)"/>
            </g>
        </g>
        <g id="ETH" class="currency">
            <circle class="cls-33" cx="355.19" cy="645.39" r="59.97"/>
            <path class="cls-36"
                  d="M340.41,636.92l14.11-6.27a2.4,2.4,0,0,1,1.93,0l14.11,6.27a1.3,1.3,0,0,0,1.54-2l-14.8-18.08a2.27,2.27,0,0,0-3.66,0l-14.79,18.08A1.31,1.31,0,0,0,340.41,636.92Z"
                  transform="translate(0 0)"/>
            <path class="cls-36"
                  d="M340.41,654.08l14.14,6.27a2.4,2.4,0,0,0,1.93,0l14.14-6.27a1.3,1.3,0,0,1,1.53,2l-14.79,18.08a2.27,2.27,0,0,1-3.66,0l-14.8-18.08A1.29,1.29,0,0,1,340.41,654.08Z"
                  transform="translate(0 0)"/>
            <path class="cls-36"
                  d="M354.85,638.07l-12.22,6.1a1.47,1.47,0,0,0,0,2.63l12.22,6.1a1.55,1.55,0,0,0,1.33,0l12.22-6.1a1.47,1.47,0,0,0,0-2.63l-12.22-6.1A1.55,1.55,0,0,0,354.85,638.07Z"
                  transform="translate(0 0)"/>
        </g>
        <g id="RUB" class="currency">
            <circle class="cls-33" cx="642.03" cy="351.84" r="59.97"/>
            <path class="cls-36"
                  d="M639.5,355.55v2.8h10.8v4.15H639.5V367h-8.15v-4.5H626.5v-4.15h4.85V332H646.5q7.15,0,11.15,3t4.05,8.8q0,5.74-4.05,8.75t-11.15,3Zm14-11.7a4.54,4.54,0,0,0-1.85-3.9,8.55,8.55,0,0,0-5.2-1.35h-7v10.6h7a8.55,8.55,0,0,0,5.2-1.35A4.73,4.73,0,0,0,653.5,343.85Z"
                  transform="translate(0 0)"/>
        </g>
        <g id="USD" class="currency">
            <circle class="cls-33" cx="59.97" cy="351.84" r="59.97"/>
            <path class="cls-36"
                  d="M72.5,356.75a9.55,9.55,0,0,1-3,7.05q-3,2.9-8.65,3.6V373h-5v-5.45a27.15,27.15,0,0,1-7.05-1.3,17.67,17.67,0,0,1-5.4-2.7l2.75-6.1a18.18,18.18,0,0,0,4.45,2.35,20.63,20.63,0,0,0,5.25,1.2v-8.35a37.84,37.84,0,0,1-6-1.9,10.74,10.74,0,0,1-4.1-3.05,8.36,8.36,0,0,1-1.65-5.4,9.6,9.6,0,0,1,3-7.1q3-3,8.75-3.65V326h5v5.45A22,22,0,0,1,71,334.5l-2.5,6.15a19.94,19.94,0,0,0-7.65-2.6v8.5a33.35,33.35,0,0,1,5.9,1.85,10.08,10.08,0,0,1,4.1,3.05A8.06,8.06,0,0,1,72.5,356.75ZM52.15,341.9a2.57,2.57,0,0,0,1,2.05,7.91,7.91,0,0,0,2.75,1.35v-7.1a5.27,5.27,0,0,0-2.8,1.45A3.15,3.15,0,0,0,52.15,341.9Zm8.7,18.9a5.42,5.42,0,0,0,2.7-1.3,2.94,2.94,0,0,0,.9-2.15,2.57,2.57,0,0,0-1-2.05,7.83,7.83,0,0,0-2.65-1.4Z"
                  transform="translate(0 0)"/>
        </g>
    </g>
    <g id="IconCenter">
        <circle class="cls-1" cx="351" cy="352.68" r="54.1"/>
        <circle class="cls-2" cx="351" cy="352.68" r="54.1"/>
        <path id="NarfexLogo" class="cls-3"
              d="M351,315l22.46,38-8.29,14h0L351.88,362l7.82,14.34L351,391l-22.46-38h0l9.61-16.25h0L354,344.05l-9.09-18.66Z"
              transform="translate(0 0)"/>
    </g>
</svg>