<svg viewBox="0 0 104 32" fill="none" xmlns="http://www.w3.org/2000/svg"><g clip-path="url(#clip0)"><path d="M14.3 26c0-3.9-11.05-11.05-11.05-15.6 0-3.25 3.25-5.2 3.25-5.2 0 6.5 11.05 10.4 11.05 15.6 0 3.9-3.25 5.2-3.25 5.2z" fill="url(#paint0_linear)"/><path d="M9.75 31.2C11.05 27.3 0 22.1 0 14.3c0-7.8 6.5-9.1 6.5-9.1s-1.589 1.292-1.589 6.5c0 6.5 7.439 11.7 7.439 16.9 0 1.3-.65 2.6-2.6 2.6z" fill="url(#paint1_linear)"/><path d="M11.05 0c-1.3 3.9 9.75 9.1 9.75 16.9 0 7.8-6.5 9.1-6.5 9.1s1.589-1.3 1.589-5.2c0-7.8-7.439-13-7.439-18.2 0-1.3.65-2.6 2.6-2.6z" fill="url(#paint2_linear)"/><path d="M26 24.398V6.848h3.338l8.137 10.903v-10.9h3.63V24.4h-3.07L29.63 13.195v11.203H26zM45.163 13.397c1.17-1.284 2.63-1.913 4.361-1.913 1.851 0 3.29.78 3.654 1.885v-1.658h3.631v8.231c0 1.008.243 1.41.901 1.41.17 0 .39-.025.61-.05v3.12c-.39.127-.927.203-1.633.203-.804 0-1.486-.151-1.998-.455-.56-.377-.926-.83-1.096-1.36-.805 1.235-2.145 1.837-4.069 1.837-1.73 0-3.191-.628-4.36-1.885-1.146-1.284-1.731-2.845-1.731-4.708 0-1.838.585-3.398 1.73-4.657zm7.285 6.923a3.078 3.078 0 00.95-2.266c0-.882-.317-1.636-.95-2.24-.61-.63-1.364-.929-2.269-.929-.877 0-1.608.302-2.217.931-.609.604-.9 1.359-.9 2.24 0 .882.291 1.638.9 2.266.61.605 1.34.91 2.217.91.904-.003 1.66-.307 2.269-.912zM59.919 24.398V11.711h3.63v1.736c.561-1.284 1.877-2.015 3.557-2.015.318.005.635.03.95.075v3.524a6.051 6.051 0 00-1.217-.127c-2.072 0-3.29 1.21-3.29 3.299v6.193l-3.63.002zM71.267 24.398v-9.29h-2.023v-3.397h2.023v-.353c0-1.837.487-3.147 1.437-3.928.707-.628 1.85-.93 3.387-.93.49.004.978.046 1.461.125v3.12c-.219-.076-.585-.126-1.096-.126-1.17 0-1.68.428-1.68 1.51v.58h2.46v3.398h-2.46v9.291h-3.51zM78.01 18.029c0-1.988.634-3.6 1.876-4.81 1.243-1.235 2.851-1.838 4.776-1.838 1.876 0 3.387.63 4.555 1.864 1.169 1.234 1.755 2.743 1.755 4.58 0 .429-.024.832-.048 1.21H81.64c.072 1.51 1.34 2.492 3.264 2.492 1.145 0 2.145-.403 2.996-1.235l2.125 2.091c-1.44 1.537-3.22 2.317-5.29 2.317-2.022 0-3.63-.604-4.875-1.787-1.243-1.209-1.851-2.795-1.851-4.784l.002-.1zm9.307-1.436c0-1.183-1.194-2.113-2.655-2.113-1.584 0-2.875.93-2.972 2.113h5.627z" fill="#648CFA"/><path d="M90.65 24.398l4.652-6.67-4.215-6.017h3.948l2.29 3.347 2.29-3.347h3.947l-4.216 6.016L104 24.398h-3.922l-2.754-3.952-2.749 3.952H90.65z" fill="#648CFA"/></g><path d="M22.603 8.842c-.039.02-.066.1-.067.168.099.32.217.611.387.877.462-.42.86-.84 1.367-1.197.136-.086.203-.254.435-.27.662-.019.91.727.63 1.44-.375.994-.796 2.13-.722 3.265.01.128.094.17.21.145.374-.09.73-.22 1.073-.411.623-.35 1.008-.797 1.294-1.461-.012-.027-.017-.109-.069-.116-.224-.037-.432.136-.633.187-.47.122-.706-.043-.77-.53-.11-.833.215-1.55.572-2.269.073-.154.262-.334.135-.47-.171-.165-.341.056-.446.176-.085.093-.133.336-.306.239-.16-.104-.194-.354-.224-.523-.03-.17.004-.304.013-.46-.004-.148.081-.275-.072-.365-.153-.09-.207.105-.247.192-.219.463-.602.708-1.06.823-.103.02-.167-.016-.257-.037a.37.37 0 00-.472.19c-.238.455-.246.577-.72.381a9.048 9.048 0 01-.051.026z" fill="#DD2814"/><path d="M21.144 8.761c-.66.302-.892.772-1.024 1.492-.056.297-.027.534-.044.844-.015.175-.005.338.16.455.124-.08.068-.236.147-.343.344.714.763 1.105 1.533 1.217-.005-.149-.146-.178-.176-.313.778.024 1.207-.294 1.462-1.06-.097.065-.195.131-.292.198-.076-.096.01-.257-.008-.331-.092-.34-.228-.706-.582-.71-.354-.006-.391.365-.415.662 0 .068.093.272-.017.31-.123.046-.21-.077-.306-.18-.17-.197-.232-.434-.535-.398-.09.012-.107-.164-.105-.265-.019-.493.006-.925.346-1.299.065-.066.163-.132.08-.242-.062-.102-.146-.076-.224-.037z" fill="#fff"/><path d="M21.144 8.762c.14.062.22-.011.043.196-.459.568-.533 1.242-.175 1.915.15-.227.177-.24.353.005.101.15.22.341.412.445.191.104.327.085.24-.206a.2.2 0 01-.024-.088c-.028-.27-.1-.636.204-.74.303-.104.447.209.585.44.019.04.07.116.088.157.178-.309.1-.654.04-.993-.06-.338-.178-.63-.387-.876-.448-.56-.886-.573-1.53-.447.14.03.263.051.404.08-.071.02-.162.065-.253.112z" fill="#F7F0F0"/><path d="M22.623 8.816c-.011-.129.514-.932.554-.986-.15-.292.092-.633.23-.854.44-1.061.788-1.556 1.953-2.114.628-.302 2.14-.315 3.083-.174.141.03.88.14 1.043.393.032.034.133.116.152.157-.093.215-.299.219-.48.277-.743.26-1.39.555-1.926 1.162.65-.463 1.283-.684 2.078-.484.198.05.38-.009.58-.06.42-.13.819-.198 1.221.017.191.104.318.274.431.452.44.68.875 1.349 1.407 1.95-.072.087-.156.113-.253.145a6.57 6.57 0 00-1.248.45c-.498.236-.954.6-1.44.83-.303.138-.385-.005-.316-.308-.21.274-.312.644-.604.843a5.659 5.659 0 00-1.368 1.23c-.104.12-.21.274-.395.184-.172-.097-.015-.277-.058-.44-.024-.088-.554.08-.703.14-.323.13-.78.11-.85-.357-.083-.528-.115-.98.072-1.478.194-.551.459-1.054.704-1.564-.278.09-.358.3-.554.5-.19.213-.279.157-.365-.1-.124-.306-.185-.577-.141-.934.014-.108.049-.277-.02-.392-.086.127-.14.356-.22.463-.268.354-.762.739-1.166.659-.282-.058-.436-.08-.569.188-.27.523-.35.63-.832.205z" fill="#F03723"/><path d="M29.651 5.232c-.44.156-.872.292-1.3.475-.614.261-1.005.661-1.373 1.217.355-.097.603-.357.939-.494.336-.137.711-.26 1.076-.16.423.12.77.077 1.165-.072.33-.117.63-.019.96-.035-.439-.431-.904-.748-1.467-.931z" fill="#DD2814"/><path d="M24.273 13.559c.118-.16.331-.218.5-.304.375-.19.795-.286 1.164-.49.577-.31.886-.819 1.26-1.36.08-.108.124-.114.193.002-.028.182-.12.295-.038.472.193-.065.299-.219.41-.359.294-.367.562-.654.951-.885.279-.158.474-.325.62-.633.126-.248.296-.469.555-.567-.049.243-.211.376-.176.626l1.038-.627c.707-.443 1.38-.785 2.199-.882.983.507 1.351 1.309 1.316 2.45-.114-.11-.131-.286-.285-.342.087 1.129-.171 1.68-1.181 2.125-.175.072-.362.15-.524.249-.695.436-1.289 1.056-1.882 1.608-.098.1-.255.28-.33.185-.19-.205-.334-.065-.464.034a5.11 5.11 0 01-1.543.884c-1.131.423-2.117.504-3.221-.058-.039-.014-.044-.061-.07-.082.13-.066.218.057.335-.036-.28-.227-.54-.446-.755-.74-.315-.443-.426-.822-.072-1.27z" fill="#FEFEFE"/><defs><linearGradient id="paint0_linear" x1="10.4" y1="22.4" x2="10.4" y2="12.8" gradientUnits="userSpaceOnUse"><stop stop-color="#F5B63F"/><stop offset="1" stop-color="#F0873E"/></linearGradient><linearGradient id="paint1_linear" x1="6.175" y1="6.267" x2="6.175" y2="18.8" gradientUnits="userSpaceOnUse"><stop stop-color="#FABE4C"/><stop offset="1" stop-color="#FA9751"/></linearGradient><linearGradient id="paint2_linear" x1="14.625" y1="1.067" x2="14.625" y2="18.8" gradientUnits="userSpaceOnUse"><stop stop-color="#FABE4C"/><stop offset="1" stop-color="#FA9751"/></linearGradient><clipPath id="clip0"><path fill="#fff" d="M0 0h104v31.2H0z"/></clipPath></defs></svg>