<svg width="130" height="40" fill="none" xmlns="http://www.w3.org/2000/svg"><g clip-path="url(#clip0)"><path d="M17.875 32.5c0-4.875-13.813-13.813-13.813-19.5 0-4.063 4.063-6.5 4.063-6.5 0 8.125 13.813 13 13.813 19.5 0 4.875-4.063 6.5-4.063 6.5z" fill="url(#paint0_linear)"/><path d="M12.188 39C13.812 34.125 0 27.625 0 17.875S8.125 6.5 8.125 6.5s-1.986 1.615-1.986 8.125c0 8.125 9.298 14.625 9.298 21.125 0 1.625-.812 3.25-3.25 3.25z" fill="url(#paint1_linear)"/><path d="M13.813 0C12.187 4.875 26 11.375 26 21.125S17.875 32.5 17.875 32.5s1.986-1.625 1.986-6.5c0-9.75-9.299-16.25-9.299-22.75 0-1.625.813-3.25 3.25-3.25z" fill="url(#paint2_linear)"/><path d="M32.5 30.498V8.56h4.172l10.172 13.63V8.563h4.538V30.5h-3.839L37.037 16.494v14.004H32.5zm23.954-13.751c1.463-1.606 3.288-2.392 5.451-2.392 2.314 0 4.111.975 4.568 2.357v-2.073h4.539v10.289c0 1.259.303 1.761 1.126 1.761.213 0 .487-.03.761-.06v3.9c-.487.158-1.158.252-2.04.252-1.005 0-1.858-.189-2.498-.569-.7-.471-1.157-1.038-1.37-1.7-1.005 1.544-2.68 2.297-5.086 2.297-2.163 0-3.99-.785-5.45-2.356-1.433-1.605-2.164-3.556-2.164-5.886 0-2.297.731-4.247 2.163-5.82zM65.56 25.4a3.85 3.85 0 001.187-2.833c0-1.102-.396-2.045-1.187-2.8-.762-.787-1.706-1.16-2.836-1.16-1.096 0-2.01.376-2.771 1.164-.762.754-1.126 1.698-1.126 2.8 0 1.101.364 2.046 1.126 2.832.761.756 1.675 1.137 2.771 1.137 1.13-.004 2.075-.384 2.836-1.14zm9.339 5.098v-15.86h4.537v2.17c.702-1.604 2.346-2.519 4.446-2.519.398.007.795.039 1.188.095v4.405a7.57 7.57 0 00-1.521-.159c-2.59 0-4.113 1.513-4.113 4.123v7.742l-4.537.003zm14.184 0V18.886h-2.528v-4.247h2.528v-.441c0-2.297.609-3.934 1.797-4.91.883-.786 2.313-1.163 4.234-1.163.612.005 1.222.057 1.826.156v3.9c-.273-.094-.73-.158-1.37-.158-1.462 0-2.1.536-2.1 1.89v.723h3.075v4.247h-3.076v11.615h-4.386zm8.43-7.962c0-2.485.792-4.5 2.345-6.012 1.553-1.544 3.564-2.297 5.97-2.297 2.344 0 4.233.787 5.694 2.33 1.46 1.541 2.193 3.428 2.193 5.725 0 .535-.031 1.04-.06 1.512h-11.606c.091 1.887 1.675 3.115 4.082 3.115 1.43 0 2.681-.504 3.744-1.544l2.656 2.614c-1.8 1.92-4.025 2.896-6.612 2.896-2.528 0-4.537-.755-6.094-2.234-1.554-1.51-2.314-3.493-2.314-5.98l.002-.125zm11.634-1.795c0-1.478-1.493-2.641-3.319-2.641-1.981 0-3.594 1.163-3.716 2.641h7.035z" fill="#648CFA"/><path d="M113.312 30.498l5.815-8.339-5.268-7.52h4.935l2.861 4.183 2.863-4.183h4.934l-5.269 7.52L130 30.5h-4.903l-3.442-4.942-3.436 4.941h-4.907z" fill="#648CFA"/></g><path d="M27.954 10.332c-.053.026-.09.132-.091.22.135.417.297.799.53 1.146.637-.548 1.184-1.097 1.881-1.565.187-.112.279-.332.598-.354.91-.024 1.25.952.865 1.883-.514 1.3-1.094 2.786-.992 4.27.015.169.13.223.29.19a5.92 5.92 0 001.475-.537c.856-.457 1.386-1.042 1.78-1.911-.018-.036-.025-.142-.096-.151-.309-.049-.595.177-.87.244-.648.16-.972-.057-1.06-.694-.152-1.088.296-2.027.787-2.966.1-.201.36-.436.186-.615-.236-.215-.47.073-.614.23-.116.122-.183.44-.42.313-.219-.136-.267-.463-.308-.684-.04-.222.006-.398.018-.6-.006-.195.111-.361-.1-.479-.21-.117-.284.138-.34.252-.3.605-.826.925-1.456 1.076-.142.024-.23-.02-.353-.049a.52.52 0 00-.65.248c-.327.596-.338.755-.989.499l-.07.034z" fill="#DD2814"/><path d="M25.948 10.227c-.908.394-1.226 1.008-1.408 1.95-.077.388-.037.698-.06 1.104-.022.229-.007.441.22.594.17-.104.093-.308.202-.447.472.933 1.048 1.444 2.107 1.59-.006-.194-.2-.232-.241-.41 1.07.032 1.66-.384 2.01-1.386l-.402.26c-.104-.125.014-.336-.011-.433-.126-.443-.314-.923-.8-.93-.486-.005-.538.48-.57.868-.001.088.127.355-.024.406-.169.06-.29-.101-.42-.235-.235-.26-.32-.57-.736-.522-.124.016-.147-.214-.145-.346-.026-.646.01-1.21.476-1.699.09-.087.224-.173.111-.316-.086-.134-.202-.1-.309-.048z" fill="#fff"/><path d="M25.948 10.227c.194.082.301-.014.058.256-.63.743-.731 1.625-.24 2.505.208-.297.243-.314.486.007.139.196.303.445.567.581.263.136.449.112.33-.27a.24.24 0 01-.033-.114c-.039-.354-.138-.832.28-.968.417-.136.615.273.805.575.025.054.095.152.12.205.245-.403.137-.855.055-1.297-.082-.443-.244-.825-.531-1.147-.617-.732-1.218-.748-2.105-.583.194.037.361.066.555.104a2.107 2.107 0 00-.347.146z" fill="#F7F0F0"/><path d="M27.981 10.297c-.015-.168.708-1.218.762-1.288-.206-.382.127-.828.317-1.117.605-1.388 1.083-2.035 2.685-2.765.864-.395 2.942-.412 4.24-.227.194.038 1.208.184 1.433.513.044.045.184.153.21.206-.128.281-.411.286-.66.362-1.022.34-1.912.726-2.65 1.52.894-.606 1.765-.895 2.858-.634.273.066.522-.01.797-.078.577-.169 1.127-.259 1.68.022.263.136.437.36.592.591.606.891 1.203 1.764 1.934 2.551-.099.114-.214.147-.347.19a9.334 9.334 0 00-1.716.587c-.685.309-1.311.786-1.979 1.087-.418.18-.53-.007-.436-.403-.288.358-.428.842-.83 1.101a7.662 7.662 0 00-1.88 1.61c-.145.157-.29.358-.544.24-.237-.127-.021-.363-.08-.575-.033-.115-.762.105-.966.181-.445.171-1.073.145-1.17-.465-.113-.69-.157-1.283.1-1.933.267-.72.63-1.378.967-2.045-.382.118-.492.39-.76.652-.261.28-.384.207-.503-.13-.17-.4-.254-.754-.194-1.221.02-.141.067-.361-.028-.513-.117.166-.192.466-.3.606-.37.463-1.05.966-1.605.862-.388-.076-.6-.105-.782.246-.373.684-.48.824-1.145.267z" fill="#F03723"/><path d="M37.645 5.61c-.604.205-1.2.382-1.787.622-.845.342-1.383.865-1.889 1.591.488-.126.83-.466 1.292-.645.462-.18.978-.34 1.48-.21.581.157 1.06.102 1.602-.094.453-.153.867-.024 1.318-.045-.602-.564-1.241-.979-2.016-1.218z" fill="#DD2814"/><path d="M30.25 16.5c.163-.21.456-.285.687-.397.517-.25 1.094-.375 1.601-.642.794-.404 1.219-1.07 1.734-1.779.108-.14.17-.148.265.004-.04.238-.165.386-.054.617.267-.084.412-.286.565-.47.405-.48.773-.854 1.308-1.157.383-.207.651-.424.852-.827.173-.325.407-.613.763-.741-.067.317-.29.49-.242.818l1.427-.82c.972-.58 1.898-1.026 3.023-1.153 1.352.662 1.859 1.711 1.81 3.203-.157-.143-.18-.373-.391-.447.12 1.477-.236 2.196-1.624 2.779a5.25 5.25 0 00-.721.326c-.955.57-1.772 1.38-2.587 2.103-.135.13-.35.366-.455.241-.261-.268-.458-.085-.637.045-.707.538-1.313.875-2.122 1.156-1.556.553-2.91.66-4.43-.076-.052-.018-.06-.08-.095-.107.178-.086.3.075.46-.047-.384-.297-.742-.584-1.037-.967-.434-.58-.586-1.077-.1-1.662z" fill="#FEFEFE"/><defs><linearGradient id="paint0_linear" x1="13" y1="28" x2="13" y2="16" gradientUnits="userSpaceOnUse"><stop stop-color="#F5B63F"/><stop offset="1" stop-color="#F0873E"/></linearGradient><linearGradient id="paint1_linear" x1="7.719" y1="7.834" x2="7.719" y2="23.5" gradientUnits="userSpaceOnUse"><stop stop-color="#FABE4C"/><stop offset="1" stop-color="#FA9751"/></linearGradient><linearGradient id="paint2_linear" x1="18.281" y1="1.334" x2="18.281" y2="23.5" gradientUnits="userSpaceOnUse"><stop stop-color="#FABE4C"/><stop offset="1" stop-color="#FA9751"/></linearGradient><clipPath id="clip0"><path fill="#fff" d="M0 0h130v39H0z"/></clipPath></defs></svg>