<svg width="130" height="41" viewBox="0 0 130 41" fill="none" xmlns="http://www.w3.org/2000/svg">
<path fill-rule="evenodd" clip-rule="evenodd" d="M13.6556 0L27.3111 20.4831L22.2731 28.0401L9.93335 5.58345L13.6556 0Z" fill="url(#paint0_linear_102_184)"/>
<path fill-rule="evenodd" clip-rule="evenodd" d="M5.84318 11.7183L27.3109 20.4831L22.2729 28.0401L0 20.4831L5.84318 11.7183Z" fill="url(#paint1_linear_102_184)"/>
<path fill-rule="evenodd" clip-rule="evenodd" d="M13.6557 40.9658L0.00019862 20.4827L5.84344 11.7178L18.946 33.0303L13.6557 40.9658Z" fill="url(#paint2_linear_102_184)"/>
<path d="M53.2107 10.8135V22.9926L43.8171 10.8135H39.9662V30.4149H44.1547V17.9L53.8579 30.4149H57.4011V10.8135H53.2107Z" fill="#729AFB"/>
<path d="M70.4946 25.8579C71.2262 25.1564 71.5901 24.3123 71.5901 23.3275C71.5901 22.3428 71.2262 21.5006 70.4946 20.8253C69.7913 20.1219 68.919 19.7862 67.8799 19.7862C66.867 19.7862 66.0229 20.1219 65.3195 20.8253C64.618 21.5006 64.2804 22.3428 64.2804 23.3275C64.2804 24.3123 64.618 25.1564 65.3195 25.8579C66.0229 26.535 66.867 26.8727 67.8799 26.8727C68.919 26.8727 69.7913 26.535 70.4946 25.8579ZM62.0857 18.1261C63.4363 16.6912 65.1226 15.9878 67.1202 15.9878C69.2567 15.9878 70.9167 16.86 71.3387 18.0961V16.241H75.5291V25.4359C75.5291 26.5632 75.8105 27.0115 76.5683 27.0115C76.7652 27.0115 77.0184 26.9852 77.2717 26.9571V30.4422C76.8215 30.5848 76.2025 30.6673 75.3866 30.6673C74.4599 30.6673 73.6721 30.5003 73.0813 30.1627C72.436 29.7407 72.014 29.2361 71.817 28.6415C70.8886 30.022 69.3411 30.6954 67.1202 30.6954C65.1226 30.6954 63.4363 29.9939 62.0857 28.5871C60.7652 27.1522 60.09 25.4096 60.09 23.3275C60.09 21.2755 60.7652 19.5311 62.0857 18.1261Z" fill="#729AFB"/>
<path d="M79.1177 30.4151V16.2402H83.3081V18.1815C83.9552 16.7485 85.4745 15.9307 87.414 15.9307C87.6954 15.9307 88.0612 15.9588 88.5113 16.0151V19.9541C88.0893 19.8697 87.611 19.8134 87.1045 19.8134C84.7149 19.8134 83.3081 21.1621 83.3081 23.4974V30.4151H79.1177Z" fill="#729AFB"/>
<path d="M92.2175 30.4153V20.0388H89.8822V16.2404H92.2175V15.8465C92.2175 13.7963 92.7783 12.3314 93.8756 11.461C94.6916 10.7595 96.0121 10.4219 97.7847 10.4219C98.3474 10.4219 98.9101 10.4763 99.4728 10.5607V14.0477C99.2196 13.9633 98.7976 13.907 98.2067 13.907C96.8581 13.907 96.2672 14.3853 96.2672 15.5952V16.2404H99.1071V20.0388H96.2672V30.4153H92.2175Z" fill="#729AFB"/>
<path d="M110.744 21.6963C110.744 20.3758 109.365 19.3348 107.679 19.3348C105.85 19.3348 104.361 20.3758 104.248 21.6963H110.744ZM99.9999 23.3001C99.9999 21.0792 100.733 19.2785 102.166 17.928C103.601 16.553 105.458 15.874 107.679 15.874C109.846 15.874 111.588 16.5793 112.937 17.958C114.287 19.3348 114.963 21.0229 114.963 23.075C114.963 23.5533 114.934 24.0035 114.906 24.4255H104.192C104.277 26.1118 105.738 27.2091 107.96 27.2091C109.281 27.2091 110.435 26.7589 111.419 25.8304L113.865 28.1638C112.207 29.8801 110.153 30.7524 107.764 30.7524C105.43 30.7524 103.573 30.079 102.138 28.7566C100.703 27.406 99.9999 25.6354 99.9999 23.4126V23.3001Z" fill="#729AFB"/>
<path d="M114.589 30.4152L119.959 22.9629L115.095 16.2402H119.651L122.294 19.9823L124.939 16.2402H129.493L124.628 22.9629L130 30.4152H125.472L122.294 25.9997L119.117 30.4152H114.589Z" fill="#729AFB"/>
<defs>
<linearGradient id="paint0_linear_102_184" x1="22.3166" y1="0" x2="22.3166" y2="1.15635e-07" gradientUnits="userSpaceOnUse">
<stop stop-color="#FABE4C"/>
<stop offset="1" stop-color="#FA9751"/>
</linearGradient>
<linearGradient id="paint1_linear_102_184" x1="27.3109" y1="25.5957" x2="9.93316" y2="25.5957" gradientUnits="userSpaceOnUse">
<stop stop-color="#FABE4C"/>
<stop offset="1" stop-color="#FA9751"/>
</linearGradient>
<linearGradient id="paint2_linear_102_184" x1="3.7572" y1="16.4128" x2="3.7572" y2="33.1875" gradientUnits="userSpaceOnUse">
<stop stop-color="#FABE4C"/>
<stop offset="1" stop-color="#FA9751"/>
</linearGradient>
</defs>
</svg>
