<svg width="130" height="39" viewBox="0 0 130 39" fill="none" xmlns="http://www.w3.org/2000/svg">
    <g clip-path="url(#clip0)">
        <path d="M17.875 32.5C17.875 27.625 4.0625 18.6875 4.0625 13C4.0625 8.9375 8.125 6.5 8.125 6.5C8.125 14.625 21.9375 19.5 21.9375 26C21.9375 30.875 17.875 32.5 17.875 32.5Z" fill="#FFAA50"/>
        <path d="M12.1875 39C13.8125 34.125 0 27.625 0 17.875C0 8.125 8.125 6.5 8.125 6.5C8.125 6.5 6.13925 8.11525 6.13925 14.625C6.13925 22.75 15.4375 29.25 15.4375 35.75C15.4375 37.375 14.625 39 12.1875 39Z" fill="#FFAA50"/>
        <path d="M13.8125 0C12.1875 4.875 26 11.375 26 21.125C26 30.875 17.875 32.5 17.875 32.5C17.875 32.5 19.8608 30.875 19.8608 26C19.8608 16.25 10.5625 9.75 10.5625 3.25C10.5625 1.625 11.375 0 13.8125 0Z" fill="#FFAA50"/>
        <path d="M32.5 30.4979V8.56042H36.6722L46.8439 22.1893V8.56367H51.3817V30.5012H47.5434L37.037 16.4937V30.4979H32.5Z" fill="#648CFA"/>
        <path d="M56.4541 16.7465C57.9166 15.141 59.7423 14.3553 61.9052 14.3553C64.2192 14.3553 66.0164 15.3303 66.4731 16.7116V14.6389H71.0117V24.9276C71.0117 26.187 71.3156 26.6891 72.1378 26.6891C72.3507 26.6891 72.6253 26.6582 72.8991 26.6282V30.5282C72.4116 30.6866 71.7413 30.7808 70.8581 30.7808C69.8539 30.7808 69.0008 30.5923 68.3613 30.2121C67.6609 29.7408 67.2043 29.1743 66.9914 28.5123C65.9856 30.0561 64.3102 30.8093 61.9052 30.8093C59.7423 30.8093 57.9158 30.0236 56.4541 28.453C55.0225 26.8475 54.2913 24.8967 54.2913 22.5673C54.2913 20.2703 55.0225 18.3195 56.4541 16.7465ZM65.5598 25.3997C65.9414 25.0343 66.2437 24.5942 66.448 24.1069C66.6522 23.6197 66.7539 23.0956 66.7469 22.5673C66.7469 21.4655 66.3512 20.5222 65.5598 19.7674C64.7977 18.9801 63.8544 18.6063 62.7242 18.6063C61.6281 18.6063 60.7141 18.9833 59.9528 19.7707C59.1914 20.5255 58.8266 21.4688 58.8266 22.5705C58.8266 23.6723 59.1914 24.6172 59.9528 25.4029C60.7141 26.1593 61.6281 26.5404 62.7242 26.5404C63.8536 26.5361 64.7988 26.1558 65.5598 25.3997Z" fill="#648CFA"/>
        <path d="M74.8987 30.4979V14.6387H79.4365V16.8081C80.1377 15.2042 81.7822 14.2893 83.8825 14.2893C84.2801 14.296 84.6768 14.3275 85.0704 14.3836V18.7889C84.5698 18.6849 84.0599 18.6318 83.5486 18.6305C80.9592 18.6305 79.4365 20.1426 79.4365 22.7531V30.4954L74.8987 30.4979Z" fill="#648CFA"/>
        <path d="M89.0834 30.498V18.8857H86.5549V14.6388H89.0834V14.1976C89.0834 11.9007 89.692 10.2643 90.8799 9.28769C91.7631 8.502 93.1931 8.125 95.1138 8.125C95.7257 8.13021 96.3364 8.18236 96.9403 8.281V12.181C96.6665 12.0867 96.2091 12.0234 95.5704 12.0234C94.1079 12.0234 93.4693 12.5588 93.4693 13.9124V14.6364H96.5446V18.8833H93.4693V30.498H89.0834Z" fill="#648CFA"/>
        <path d="M97.5132 22.5362C97.5132 20.0508 98.3046 18.0366 99.8581 16.5237C101.411 14.98 103.422 14.2268 105.827 14.2268C108.172 14.2268 110.061 15.0141 111.521 16.5562C112.982 18.0984 113.715 19.985 113.715 22.2819C113.715 22.8174 113.684 23.3219 113.655 23.794H102.049C102.14 25.6806 103.724 26.9091 106.131 26.9091C107.561 26.9091 108.812 26.4046 109.875 25.3654L112.531 27.9792C110.731 29.8999 108.506 30.8749 105.918 30.8749C103.391 30.8749 101.381 30.1201 99.8247 28.6414C98.2712 27.1301 97.5107 25.1476 97.5107 22.6614L97.5132 22.5362ZM109.147 20.7414C109.147 19.2627 107.654 18.1 105.827 18.1C103.847 18.1 102.234 19.2627 102.112 20.7414H109.147Z" fill="#648CFA"/>
        <path d="M113.312 30.4981L119.127 22.1594L113.859 14.6389H118.793L121.655 18.8225L124.518 14.6389H129.452L124.183 22.1594L130 30.4981H125.097L121.655 25.5573L118.219 30.4981H113.312Z" fill="#648CFA"/>
    </g>
    <defs>
        <clipPath id="clip0">
            <rect width="130" height="39" fill="white"/>
        </clipPath>
    </defs>
</svg>
