<svg width="104" height="32" fill="none" xmlns="http://www.w3.org/2000/svg"><g clip-path="url(#clip0)"><path d="M14.3 26c0-3.9-11.05-11.05-11.05-15.6 0-3.25 3.25-5.2 3.25-5.2 0 6.5 11.05 10.4 11.05 15.6 0 3.9-3.25 5.2-3.25 5.2z" fill="#FFAA50"/><path d="M9.75 31.2C11.05 27.3 0 22.1 0 14.3c0-7.8 6.5-9.1 6.5-9.1s-1.589 1.292-1.589 6.5c0 6.5 7.439 11.7 7.439 16.9 0 1.3-.65 2.6-2.6 2.6zM11.05 0c-1.3 3.9 9.75 9.1 9.75 16.9 0 7.8-6.5 9.1-6.5 9.1s1.589-1.3 1.589-5.2c0-7.8-7.439-13-7.439-18.2 0-1.3.65-2.6 2.6-2.6z" fill="#FFAA50"/><path d="M26 24.398V6.848h3.338l8.137 10.904V6.85h3.63v17.55h-3.07L29.63 13.195v11.203H26zM45.163 13.397c1.17-1.284 2.631-1.913 4.361-1.913 1.852 0 3.29.78 3.655 1.885v-1.658h3.63v8.231c0 1.008.244 1.41.901 1.41.17 0 .39-.025.61-.05v3.12c-.39.127-.927.203-1.633.203-.804 0-1.486-.151-1.998-.455-.56-.377-.925-.83-1.096-1.36-.804 1.235-2.145 1.837-4.069 1.837-1.73 0-3.191-.628-4.36-1.885-1.146-1.284-1.73-2.845-1.73-4.708 0-1.838.584-3.398 1.73-4.657zm7.285 6.923a3.08 3.08 0 00.95-2.266c0-.882-.317-1.636-.95-2.24-.61-.63-1.364-.929-2.269-.929-.876 0-1.608.302-2.217.931-.609.604-.9 1.359-.9 2.24 0 .882.291 1.638.9 2.266.61.605 1.34.91 2.217.91.904-.003 1.66-.307 2.269-.912zM59.919 24.398V11.711h3.63v1.735c.561-1.283 1.877-2.015 3.557-2.015.318.006.635.031.95.076v3.524a6.058 6.058 0 00-1.217-.127c-2.072 0-3.29 1.21-3.29 3.298v6.194l-3.63.002zM71.267 24.398v-9.29h-2.023v-3.397h2.023v-.353c0-1.837.487-3.147 1.437-3.928.706-.628 1.85-.93 3.387-.93.49.004.978.046 1.461.125v3.12c-.219-.076-.585-.126-1.096-.126-1.17 0-1.68.428-1.68 1.51v.58h2.46v3.398h-2.46v9.291h-3.51zM78.01 18.029c0-1.988.634-3.6 1.876-4.81 1.243-1.235 2.851-1.837 4.776-1.837 1.876 0 3.386.63 4.555 1.863 1.169 1.234 1.755 2.743 1.755 4.58 0 .429-.025.833-.048 1.21h-9.285c.073 1.51 1.34 2.492 3.265 2.492 1.145 0 2.145-.403 2.996-1.235l2.124 2.091c-1.44 1.537-3.219 2.317-5.29 2.317-2.021 0-3.629-.604-4.874-1.787-1.243-1.209-1.852-2.795-1.852-4.784l.002-.1zm9.307-1.436c0-1.183-1.194-2.113-2.655-2.113-1.584 0-2.875.93-2.973 2.113h5.628z" fill="#648CFA"/><path d="M90.65 24.398l4.652-6.67-4.215-6.017h3.948l2.289 3.347 2.29-3.347h3.947l-4.215 6.017 4.654 6.67h-3.923l-2.753-3.952-2.749 3.952H90.65z" fill="#648CFA"/></g><defs><clipPath id="clip0"><path fill="#fff" d="M0 0h104v31.2H0z"/></clipPath></defs></svg>