<svg width="130" height="39" viewBox="0 0 130 39" fill="none" xmlns="http://www.w3.org/2000/svg">
    <g clip-path="url(#clip0)">
        <path d="M17.875 32.5C17.875 27.625 4.0625 18.6875 4.0625 13C4.0625 8.9375 8.125 6.5 8.125 6.5C8.125 14.625 21.9375 19.5 21.9375 26C21.9375 30.875 17.875 32.5 17.875 32.5Z" fill="currentColor"/>
        <path d="M12.1875 39C13.8125 34.125 0 27.625 0 17.875C0 8.125 8.125 6.5 8.125 6.5C8.125 6.5 6.13925 8.11525 6.13925 14.625C6.13925 22.75 15.4375 29.25 15.4375 35.75C15.4375 37.375 14.625 39 12.1875 39Z" fill="currentColor"/>
        <path d="M13.8125 0C12.1875 4.875 26 11.375 26 21.125C26 30.875 17.875 32.5 17.875 32.5C17.875 32.5 19.8608 30.875 19.8608 26C19.8608 16.25 10.5625 9.75 10.5625 3.25C10.5625 1.625 11.375 0 13.8125 0Z" fill="currentColor"/>
        <path d="M32.5 30.4978V8.5603H36.6722L46.8439 22.1892V8.56355H51.3817V30.5011H47.5434L37.037 16.4936V30.4978H32.5Z" fill="currentColor"/>
        <path d="M56.4539 16.7464C57.9164 15.1409 59.7421 14.3552 61.905 14.3552C64.219 14.3552 66.0162 15.3302 66.4728 16.7115V14.6388H71.0115V24.9275C71.0115 26.1868 71.3153 26.689 72.1376 26.689C72.3505 26.689 72.6251 26.6581 72.8989 26.628V30.528C72.4114 30.6865 71.7411 30.7807 70.8579 30.7807C69.8536 30.7807 69.0005 30.5922 68.3611 30.212C67.6607 29.7407 67.2041 29.1741 66.9912 28.5122C65.9853 30.056 64.31 30.8092 61.905 30.8092C59.7421 30.8092 57.9156 30.0235 56.4539 28.4529C55.0223 26.8474 54.291 24.8966 54.291 22.5672C54.291 20.2702 55.0223 18.3194 56.4539 16.7464ZM65.5596 25.3995C65.9412 25.0341 66.2435 24.5941 66.4477 24.1068C66.6519 23.6195 66.7537 23.0955 66.7466 22.5672C66.7466 21.4654 66.351 20.5221 65.5596 19.7673C64.7975 18.98 63.8541 18.6062 62.724 18.6062C61.6279 18.6062 60.7138 18.9832 59.9525 19.7705C59.1912 20.5254 58.8264 21.4687 58.8264 22.5704C58.8264 23.6722 59.1912 24.6171 59.9525 25.4028C60.7138 26.1592 61.6279 26.5403 62.724 26.5403C63.8533 26.536 64.7985 26.1557 65.5596 25.3995Z" fill="currentColor"/>
        <path d="M74.8984 30.4979V14.6387H79.4363V16.8081C80.1375 15.2042 81.782 14.2893 83.8823 14.2893C84.2798 14.296 84.6766 14.3275 85.0702 14.3836V18.7889C84.5696 18.6849 84.0597 18.6318 83.5484 18.6305C80.9589 18.6305 79.4363 20.1426 79.4363 22.7531V30.4954L74.8984 30.4979Z" fill="currentColor"/>
        <path d="M89.0832 30.498V18.8857H86.5547V14.6388H89.0832V14.1976C89.0832 11.9007 89.6918 10.2643 90.8796 9.28769C91.7628 8.502 93.1928 8.125 95.1136 8.125C95.7255 8.13021 96.3361 8.18236 96.9401 8.281V12.181C96.6663 12.0867 96.2088 12.0234 95.5702 12.0234C94.1077 12.0234 93.4691 12.5588 93.4691 13.9124V14.6364H96.5444V18.8833H93.4691V30.498H89.0832Z" fill="currentColor"/>
        <path d="M97.5142 22.5362C97.5142 20.0508 98.3055 18.0366 99.859 16.5237C101.412 14.98 103.423 14.2268 105.828 14.2268C108.173 14.2268 110.062 15.0141 111.522 16.5562C112.983 18.0984 113.716 19.985 113.716 22.2819C113.716 22.8174 113.685 23.3219 113.656 23.794H102.05C102.141 25.6806 103.725 26.9091 106.132 26.9091C107.562 26.9091 108.813 26.4046 109.876 25.3654L112.532 27.9792C110.732 29.8999 108.507 30.8749 105.919 30.8749C103.392 30.8749 101.382 30.1201 99.8257 28.6414C98.2722 27.1301 97.5117 25.1476 97.5117 22.6614L97.5142 22.5362ZM109.148 20.7414C109.148 19.2627 107.655 18.1 105.828 18.1C103.848 18.1 102.235 19.2627 102.113 20.7414H109.148Z" fill="currentColor"/>
        <path d="M113.312 30.4981L119.128 22.1594L113.86 14.6389H118.794L121.656 18.8225L124.519 14.6389H129.453L124.184 22.1594L130.001 30.4981H125.098L121.656 25.5573L118.22 30.4981H113.312Z" fill="currentColor"/>
    </g>
    <defs>
        <clipPath id="clip0">
            <rect width="130" height="39" fill="white"/>
        </clipPath>
    </defs>
</svg>
