<svg width="121" height="39" viewBox="0 0 121 39" fill="none" xmlns="http://www.w3.org/2000/svg">
<path fill-rule="evenodd" clip-rule="evenodd" d="M12.7107 0L25.4208 19.0651L20.7316 26.0989L9.24609 5.1969L12.7107 0Z" fill="url(#paint0_linear_92_1071)"/>
<path fill-rule="evenodd" clip-rule="evenodd" d="M5.43865 10.9071L25.4201 19.0651L20.731 26.099L0 19.0651L5.43865 10.9071Z" fill="url(#paint1_linear_92_1071)"/>
<path fill-rule="evenodd" clip-rule="evenodd" d="M12.7107 38.1299L0.000556946 19.0649L5.43926 10.9068L17.6348 30.7438L12.7107 38.1299Z" fill="url(#paint2_linear_92_1071)"/>
<path d="M49.5259 10.0651V21.4011L40.7825 10.0651H37.1982V28.3095H41.0968V16.661L50.1282 28.3095H53.4261V10.0651H49.5259Z" fill="#224DCF"/>
<path d="M49.5259 10.0651V21.4011L40.7825 10.0651H37.1982V28.3095H41.0968V16.661L50.1282 28.3095H53.4261V10.0651H49.5259Z" fill="#5078E6"/>
<path d="M65.6131 24.0678C66.294 23.4148 66.6327 22.6292 66.6327 21.7126C66.6327 20.796 66.294 20.0121 65.6131 19.3836C64.9584 18.7289 64.1465 18.4164 63.1793 18.4164C62.2366 18.4164 61.4509 18.7289 60.7962 19.3836C60.1432 20.0121 59.829 20.796 59.829 21.7126C59.829 22.6292 60.1432 23.4148 60.7962 24.0678C61.4509 24.698 62.2366 25.0123 63.1793 25.0123C64.1465 25.0123 64.9584 24.698 65.6131 24.0678ZM57.7863 16.8713C59.0433 15.5357 60.6129 14.881 62.4722 14.881C64.4608 14.881 66.0059 15.6928 66.3987 16.8433V15.1167H70.299V23.675C70.299 24.7242 70.5609 25.1415 71.2662 25.1415C71.4495 25.1415 71.6852 25.117 71.9209 25.0909V28.3347C71.5019 28.4674 70.9258 28.5442 70.1663 28.5442C69.3038 28.5442 68.5706 28.3888 68.0206 28.0746C67.42 27.6817 67.0272 27.2121 66.8439 26.6587C65.9797 27.9436 64.5394 28.5704 62.4722 28.5704C60.6129 28.5704 59.0433 27.9174 57.7863 26.608C56.5572 25.2724 55.9287 23.6505 55.9287 21.7126C55.9287 19.8026 56.5572 18.1789 57.7863 16.8713Z" fill="#224DCF"/>
<path d="M65.6131 24.0678C66.294 23.4148 66.6327 22.6292 66.6327 21.7126C66.6327 20.796 66.294 20.0121 65.6131 19.3836C64.9584 18.7289 64.1465 18.4164 63.1793 18.4164C62.2366 18.4164 61.4509 18.7289 60.7962 19.3836C60.1432 20.0121 59.829 20.796 59.829 21.7126C59.829 22.6292 60.1432 23.4148 60.7962 24.0678C61.4509 24.698 62.2366 25.0123 63.1793 25.0123C64.1465 25.0123 64.9584 24.698 65.6131 24.0678ZM57.7863 16.8713C59.0433 15.5357 60.6129 14.881 62.4722 14.881C64.4608 14.881 66.0059 15.6928 66.3987 16.8433V15.1167H70.299V23.675C70.299 24.7242 70.5609 25.1415 71.2662 25.1415C71.4495 25.1415 71.6852 25.117 71.9209 25.0909V28.3347C71.5019 28.4674 70.9258 28.5442 70.1663 28.5442C69.3038 28.5442 68.5706 28.3888 68.0206 28.0746C67.42 27.6817 67.0272 27.2121 66.8439 26.6587C65.9797 27.9436 64.5394 28.5704 62.4722 28.5704C60.6129 28.5704 59.0433 27.9174 57.7863 26.608C56.5572 25.2724 55.9287 23.6505 55.9287 21.7126C55.9287 19.8026 56.5572 18.1789 57.7863 16.8713Z" fill="#5078E6"/>
<path d="M73.6406 28.3097V15.1161H77.5409V16.9231C78.1432 15.5892 79.5574 14.828 81.3626 14.828C81.6245 14.828 81.9649 14.8542 82.384 14.9066V18.5729C81.9911 18.4943 81.5459 18.442 81.0746 18.442C78.8503 18.442 77.5409 19.6973 77.5409 21.8709V28.3097H73.6406Z" fill="#224DCF"/>
<path d="M73.6406 28.3097V15.1161H77.5409V16.9231C78.1432 15.5892 79.5574 14.828 81.3626 14.828C81.6245 14.828 81.9649 14.8542 82.384 14.9066V18.5729C81.9911 18.4943 81.5459 18.442 81.0746 18.442C78.8503 18.442 77.5409 19.6973 77.5409 21.8709V28.3097H73.6406Z" fill="#5078E6"/>
<path d="M85.8338 28.3098V18.6516H83.6602V15.1162H85.8338V14.7496C85.8338 12.8413 86.3558 11.4778 87.3771 10.6677C88.1366 10.0148 89.3657 9.7005 91.0155 9.7005C91.5393 9.7005 92.063 9.75113 92.5868 9.8297V13.0753C92.3511 12.9967 91.9583 12.9443 91.4083 12.9443C90.1531 12.9443 89.6031 13.3895 89.6031 14.5156V15.1162H92.2464V18.6516H89.6031V28.3098H85.8338Z" fill="#224DCF"/>
<path d="M85.8338 28.3098V18.6516H83.6602V15.1162H85.8338V14.7496C85.8338 12.8413 86.3558 11.4778 87.3771 10.6677C88.1366 10.0148 89.3657 9.7005 91.0155 9.7005C91.5393 9.7005 92.063 9.75113 92.5868 9.8297V13.0753C92.3511 12.9967 91.9583 12.9443 91.4083 12.9443C90.1531 12.9443 89.6031 13.3895 89.6031 14.5156V15.1162H92.2464V18.6516H89.6031V28.3098H85.8338Z" fill="#5078E6"/>
<path d="M103.077 20.1946C103.077 18.9655 101.794 17.9965 100.225 17.9965C98.5225 17.9965 97.1363 18.9655 97.0315 20.1946H103.077ZM93.0771 21.6873C93.0771 19.6202 93.7598 17.9442 95.0936 16.6871C96.4292 15.4074 98.1576 14.7754 100.225 14.7754C102.241 14.7754 103.863 15.4318 105.118 16.7151C106.375 17.9965 107.004 19.5678 107.004 21.4778C107.004 21.923 106.978 22.342 106.952 22.7348H96.9792C97.0577 24.3044 98.4178 25.3257 100.487 25.3257C101.716 25.3257 102.789 24.9067 103.706 24.0425L105.983 26.2144C104.439 27.8119 102.528 28.6237 100.303 28.6237C98.1314 28.6237 96.403 27.9969 95.0674 26.7661C93.7319 25.509 93.0771 23.8609 93.0771 21.7921V21.6873Z" fill="#224DCF"/>
<path d="M103.077 20.1946C103.077 18.9655 101.794 17.9965 100.225 17.9965C98.5225 17.9965 97.1363 18.9655 97.0315 20.1946H103.077ZM93.0771 21.6873C93.0771 19.6202 93.7598 17.9442 95.0936 16.6871C96.4292 15.4074 98.1576 14.7754 100.225 14.7754C102.241 14.7754 103.863 15.4318 105.118 16.7151C106.375 17.9965 107.004 19.5678 107.004 21.4778C107.004 21.923 106.978 22.342 106.952 22.7348H96.9792C97.0577 24.3044 98.4178 25.3257 100.487 25.3257C101.716 25.3257 102.789 24.9067 103.706 24.0425L105.983 26.2144C104.439 27.8119 102.528 28.6237 100.303 28.6237C98.1314 28.6237 96.403 27.9969 95.0674 26.7661C93.7319 25.509 93.0771 23.8609 93.0771 21.7921V21.6873Z" fill="#5078E6"/>
<path d="M106.656 28.3097L111.655 21.3734L107.128 15.1161H111.368L113.828 18.5992L116.29 15.1161H120.529L116 21.3734L121 28.3097H116.786L113.828 24.1999L110.871 28.3097H106.656Z" fill="#224DCF"/>
<path d="M106.656 28.3097L111.655 21.3734L107.128 15.1161H111.368L113.828 18.5992L116.29 15.1161H120.529L116 21.3734L121 28.3097H116.786L113.828 24.1999L110.871 28.3097H106.656Z" fill="#5078E6"/>
<defs>
<linearGradient id="paint0_linear_92_1071" x1="20.7721" y1="0" x2="20.7721" y2="1.07629e-07" gradientUnits="userSpaceOnUse">
<stop stop-color="#FABE4C"/>
<stop offset="1" stop-color="#FA9751"/>
</linearGradient>
<linearGradient id="paint1_linear_92_1071" x1="25.4201" y1="23.8238" x2="9.24548" y2="23.8238" gradientUnits="userSpaceOnUse">
<stop stop-color="#FABE4C"/>
<stop offset="1" stop-color="#FA9751"/>
</linearGradient>
<linearGradient id="paint2_linear_92_1071" x1="3.49746" y1="15.2768" x2="3.49746" y2="30.8901" gradientUnits="userSpaceOnUse">
<stop stop-color="#FABE4C"/>
<stop offset="1" stop-color="#FA9751"/>
</linearGradient>
</defs>
</svg>
