<svg width="30" height="30" viewBox="0 0 30 30" fill="none" xmlns="http://www.w3.org/2000/svg">
<path d="M26.8125 17.0498V18.2998C26.8125 18.6373 26.55 18.9123 26.2 18.9248H24.375C23.7125 18.9248 23.1125 18.4373 23.0625 17.7873C23.025 17.3998 23.175 17.0373 23.425 16.7873C23.65 16.5498 23.9625 16.4248 24.3 16.4248H26.1875C26.55 16.4373 26.8125 16.7123 26.8125 17.0498Z" fill="#5C84ED"/>
<path d="M22.4875 15.8623C21.8625 16.4748 21.5625 17.3873 21.8125 18.3373C22.1375 19.4998 23.275 20.2373 24.475 20.2373H25.5625C26.25 20.2373 26.8125 20.7998 26.8125 21.4873V21.7248C26.8125 24.3123 24.7 26.4248 22.1125 26.4248H7.7625C5.175 26.4248 3.0625 24.3123 3.0625 21.7248V13.3123C3.0625 11.7748 3.8 10.4123 4.9375 9.5623C5.725 8.9623 6.7 8.6123 7.7625 8.6123H22.1125C24.7 8.6123 26.8125 10.7248 26.8125 13.3123V13.8623C26.8125 14.5498 26.25 15.1123 25.5625 15.1123H24.2875C23.5875 15.1123 22.95 15.3873 22.4875 15.8623Z" fill="#5C84ED"/>
<path d="M20.25 6.025C20.5875 6.3625 20.3 6.8875 19.825 6.8875L10.225 6.875C9.67501 6.875 9.38751 6.2 9.78751 5.8125L11.8125 3.775C13.525 2.075 16.3 2.075 18.0125 3.775L20.2 5.9875C20.2125 6 20.2375 6.0125 20.25 6.025Z" fill="#5C84ED"/>
</svg>
