<svg width="45" height="45" viewBox="0 0 45 45" fill="none" xmlns="http://www.w3.org/2000/svg">
<path d="M14.0625 8.4375H13.5938V3.75C13.5938 2.98125 12.9563 2.34375 12.1875 2.34375C11.4187 2.34375 10.7812 2.98125 10.7812 3.75V8.4375H10.3125C7.33125 8.4375 5.625 10.1437 5.625 13.125V24.375C5.625 27.3563 7.33125 29.0625 10.3125 29.0625H10.7812V41.25C10.7812 42.0187 11.4187 42.6562 12.1875 42.6562C12.9563 42.6562 13.5938 42.0187 13.5938 41.25V29.0625H14.0625C17.0437 29.0625 18.75 27.3563 18.75 24.375V13.125C18.75 10.1437 17.0437 8.4375 14.0625 8.4375Z" fill="#292D32"/>
<path d="M14.0625 8.4375H13.5938V3.75C13.5938 2.98125 12.9563 2.34375 12.1875 2.34375C11.4187 2.34375 10.7812 2.98125 10.7812 3.75V8.4375H10.3125C7.33125 8.4375 5.625 10.1437 5.625 13.125V24.375C5.625 27.3563 7.33125 29.0625 10.3125 29.0625H10.7812V41.25C10.7812 42.0187 11.4187 42.6562 12.1875 42.6562C12.9563 42.6562 13.5938 42.0187 13.5938 41.25V29.0625H14.0625C17.0437 29.0625 18.75 27.3563 18.75 24.375V13.125C18.75 10.1437 17.0437 8.4375 14.0625 8.4375Z" fill="url(#paint0_linear_0_188)"/>
<path d="M34.6875 15.9375H34.2188V3.75C34.2188 2.98125 33.5813 2.34375 32.8125 2.34375C32.0437 2.34375 31.4062 2.98125 31.4062 3.75V15.9375H30.9375C27.9562 15.9375 26.25 17.6438 26.25 20.625V31.875C26.25 34.8563 27.9562 36.5625 30.9375 36.5625H31.4062V41.25C31.4062 42.0187 32.0437 42.6562 32.8125 42.6562C33.5813 42.6562 34.2188 42.0187 34.2188 41.25V36.5625H34.6875C37.6687 36.5625 39.375 34.8563 39.375 31.875V20.625C39.375 17.6438 37.6687 15.9375 34.6875 15.9375Z" fill="#292D32"/>
<path d="M34.6875 15.9375H34.2188V3.75C34.2188 2.98125 33.5813 2.34375 32.8125 2.34375C32.0437 2.34375 31.4062 2.98125 31.4062 3.75V15.9375H30.9375C27.9562 15.9375 26.25 17.6438 26.25 20.625V31.875C26.25 34.8563 27.9562 36.5625 30.9375 36.5625H31.4062V41.25C31.4062 42.0187 32.0437 42.6562 32.8125 42.6562C33.5813 42.6562 34.2188 42.0187 34.2188 41.25V36.5625H34.6875C37.6687 36.5625 39.375 34.8563 39.375 31.875V20.625C39.375 17.6438 37.6687 15.9375 34.6875 15.9375Z" fill="url(#paint1_linear_0_188)"/>
<rect x="40" y="16" width="24" height="14" rx="4" transform="rotate(90 40 16)" fill="#C4C4C4"/>
<rect x="40" y="16" width="24" height="14" rx="4" transform="rotate(90 40 16)" fill="url(#paint2_linear_0_188)"/>
<defs>
<linearGradient id="paint0_linear_0_188" x1="5.625" y1="2.34375" x2="29.3591" y2="10.0711" gradientUnits="userSpaceOnUse">
<stop stop-color="#78A0FF"/>
<stop offset="1" stop-color="#5078E6"/>
</linearGradient>
<linearGradient id="paint1_linear_0_188" x1="26.25" y1="2.34375" x2="49.9841" y2="10.0711" gradientUnits="userSpaceOnUse">
<stop stop-color="#78A0FF"/>
<stop offset="1" stop-color="#5078E6"/>
</linearGradient>
<linearGradient id="paint2_linear_0_188" x1="40" y1="16" x2="52.1865" y2="36.8912" gradientUnits="userSpaceOnUse">
<stop stop-color="#FECF8E"/>
<stop offset="1" stop-color="#D27624"/>
</linearGradient>
</defs>
</svg>
