<svg width="51" height="51" viewBox="0 0 51 51" fill="none" xmlns="http://www.w3.org/2000/svg">
<path d="M46.75 31.875C46.75 40.0987 40.0987 46.75 31.875 46.75L34.1062 43.0312" stroke="url(#paint0_linear_0_172)" stroke-width="1.5" stroke-linecap="round" stroke-linejoin="round"/>
<path d="M4.25 19.125C4.25 10.9013 10.9013 4.25 19.125 4.25L16.8937 7.96875" stroke="url(#paint1_linear_0_172)" stroke-width="1.5" stroke-linecap="round" stroke-linejoin="round"/>
<path d="M46.75 8.925V9.15875C46.75 9.75375 46.2825 10.2213 45.6875 10.2213H26.5625C25.9675 10.2213 25.5 9.75375 25.5 9.15875V8.925C25.5 5.185 26.435 4.25 30.2175 4.25H42.0325C45.815 4.25 46.75 5.185 46.75 8.925Z" fill="#292D32"/>
<path d="M46.75 8.925V9.15875C46.75 9.75375 46.2825 10.2213 45.6875 10.2213H26.5625C25.9675 10.2213 25.5 9.75375 25.5 9.15875V8.925C25.5 5.185 26.435 4.25 30.2175 4.25H42.0325C45.815 4.25 46.75 5.185 46.75 8.925Z" fill="url(#paint2_linear_0_172)"/>
<path d="M26.5625 12.3462C25.9675 12.3462 25.5 12.8137 25.5 13.4087V15.5337V17.6374C25.5 21.3774 26.435 22.3124 30.2175 22.3124H42.0325C45.815 22.3124 46.75 21.3774 46.75 17.6374V15.5337V13.4087C46.75 12.8137 46.2825 12.3462 45.6875 12.3462H26.5625Z" fill="#292D32"/>
<path d="M26.5625 12.3462C25.9675 12.3462 25.5 12.8137 25.5 13.4087V15.5337V17.6374C25.5 21.3774 26.435 22.3124 30.2175 22.3124H42.0325C45.815 22.3124 46.75 21.3774 46.75 17.6374V15.5337V13.4087C46.75 12.8137 46.2825 12.3462 45.6875 12.3462H26.5625Z" fill="url(#paint3_linear_0_172)"/>
<path d="M25.5 33.3625V33.5963C25.5 34.1913 25.0325 34.6587 24.4375 34.6587H5.3125C4.7175 34.6587 4.25 34.1913 4.25 33.5963V33.3625C4.25 29.6225 5.185 28.6875 8.9675 28.6875H20.7825C24.565 28.6875 25.5 29.6225 25.5 33.3625Z" fill="#292D32"/>
<path d="M25.5 33.3625V33.5963C25.5 34.1913 25.0325 34.6587 24.4375 34.6587H5.3125C4.7175 34.6587 4.25 34.1913 4.25 33.5963V33.3625C4.25 29.6225 5.185 28.6875 8.9675 28.6875H20.7825C24.565 28.6875 25.5 29.6225 25.5 33.3625Z" fill="url(#paint4_linear_0_172)"/>
<path d="M5.3125 36.7837C4.7175 36.7837 4.25 37.2512 4.25 37.8462V39.9712V42.0749C4.25 45.8149 5.185 46.7499 8.9675 46.7499H20.7825C24.565 46.7499 25.5 45.8149 25.5 42.0749V39.9712V37.8462C25.5 37.2512 25.0325 36.7837 24.4375 36.7837H5.3125Z" fill="#292D32"/>
<path d="M5.3125 36.7837C4.7175 36.7837 4.25 37.2512 4.25 37.8462V39.9712V42.0749C4.25 45.8149 5.185 46.7499 8.9675 46.7499H20.7825C24.565 46.7499 25.5 45.8149 25.5 42.0749V39.9712V37.8462C25.5 37.2512 25.0325 36.7837 24.4375 36.7837H5.3125Z" fill="url(#paint5_linear_0_172)"/>
<path d="M25 8.71429C25 5.55837 27.5584 3 30.7143 3H41.2857C44.4416 3 47 5.55837 47 8.71429C47 9.97665 45.9767 11 44.7143 11H27.2857C26.0234 11 25 9.97665 25 8.71429Z" fill="#C4C4C4"/>
<path d="M25 8.71429C25 5.55837 27.5584 3 30.7143 3H41.2857C44.4416 3 47 5.55837 47 8.71429C47 9.97665 45.9767 11 44.7143 11H27.2857C26.0234 11 25 9.97665 25 8.71429Z" fill="url(#paint6_linear_0_172)"/>
<path d="M4 32.7143C4 29.5584 6.55837 27 9.71429 27H20.2857C23.4416 27 26 29.5584 26 32.7143C26 33.9767 24.9767 35 23.7143 35H6.28572C5.02335 35 4 33.9767 4 32.7143Z" fill="#C4C4C4"/>
<path d="M4 32.7143C4 29.5584 6.55837 27 9.71429 27H20.2857C23.4416 27 26 29.5584 26 32.7143C26 33.9767 24.9767 35 23.7143 35H6.28572C5.02335 35 4 33.9767 4 32.7143Z" fill="url(#paint7_linear_0_172)"/>
<defs>
<linearGradient id="paint0_linear_0_172" x1="31.875" y1="31.875" x2="46.75" y2="46.75" gradientUnits="userSpaceOnUse">
<stop stop-color="#78A0FF"/>
<stop offset="1" stop-color="#5078E6"/>
</linearGradient>
<linearGradient id="paint1_linear_0_172" x1="4.25" y1="4.25" x2="19.125" y2="19.125" gradientUnits="userSpaceOnUse">
<stop stop-color="#78A0FF"/>
<stop offset="1" stop-color="#5078E6"/>
</linearGradient>
<linearGradient id="paint2_linear_0_172" x1="25.5" y1="4.25" x2="28.6103" y2="15.3185" gradientUnits="userSpaceOnUse">
<stop stop-color="#78A0FF"/>
<stop offset="1" stop-color="#5078E6"/>
</linearGradient>
<linearGradient id="paint3_linear_0_172" x1="25.5" y1="12.3462" x2="33.1628" y2="28.6848" gradientUnits="userSpaceOnUse">
<stop stop-color="#78A0FF"/>
<stop offset="1" stop-color="#5078E6"/>
</linearGradient>
<linearGradient id="paint4_linear_0_172" x1="4.25" y1="28.6875" x2="7.36025" y2="39.756" gradientUnits="userSpaceOnUse">
<stop stop-color="#78A0FF"/>
<stop offset="1" stop-color="#5078E6"/>
</linearGradient>
<linearGradient id="paint5_linear_0_172" x1="4.25" y1="36.7837" x2="11.9128" y2="53.1223" gradientUnits="userSpaceOnUse">
<stop stop-color="#78A0FF"/>
<stop offset="1" stop-color="#5078E6"/>
</linearGradient>
<linearGradient id="paint6_linear_0_172" x1="25" y1="3" x2="30.1387" y2="17.1314" gradientUnits="userSpaceOnUse">
<stop stop-color="#FECF8E"/>
<stop offset="1" stop-color="#D27624"/>
</linearGradient>
<linearGradient id="paint7_linear_0_172" x1="4" y1="27" x2="9.13869" y2="41.1314" gradientUnits="userSpaceOnUse">
<stop stop-color="#FECF8E"/>
<stop offset="1" stop-color="#D27624"/>
</linearGradient>
</defs>
</svg>
