<svg width="51" height="51" viewBox="0 0 51 51" fill="none" xmlns="http://www.w3.org/2000/svg">
<path d="M34.51 4.25H16.49C10.625 4.25 8.5 6.375 8.5 12.3462V38.6538C8.5 44.625 10.625 46.75 16.49 46.75H34.4887C40.375 46.75 42.5 44.625 42.5 38.6538V12.3462C42.5 6.375 40.375 4.25 34.51 4.25ZM25.5 41.0125C23.46 41.0125 21.7812 39.3337 21.7812 37.2937C21.7812 35.2537 23.46 33.575 25.5 33.575C27.54 33.575 29.2188 35.2537 29.2188 37.2937C29.2188 39.3337 27.54 41.0125 25.5 41.0125ZM29.75 13.2812H21.25C20.3787 13.2812 19.6562 12.5588 19.6562 11.6875C19.6562 10.8162 20.3787 10.0938 21.25 10.0938H29.75C30.6213 10.0938 31.3438 10.8162 31.3438 11.6875C31.3438 12.5588 30.6213 13.2812 29.75 13.2812Z" fill="#292D32"/>
<path d="M34.51 4.25H16.49C10.625 4.25 8.5 6.375 8.5 12.3462V38.6538C8.5 44.625 10.625 46.75 16.49 46.75H34.4887C40.375 46.75 42.5 44.625 42.5 38.6538V12.3462C42.5 6.375 40.375 4.25 34.51 4.25ZM25.5 41.0125C23.46 41.0125 21.7812 39.3337 21.7812 37.2937C21.7812 35.2537 23.46 33.575 25.5 33.575C27.54 33.575 29.2188 35.2537 29.2188 37.2937C29.2188 39.3337 27.54 41.0125 25.5 41.0125ZM29.75 13.2812H21.25C20.3787 13.2812 19.6562 12.5588 19.6562 11.6875C19.6562 10.8162 20.3787 10.0938 21.25 10.0938H29.75C30.6213 10.0938 31.3438 10.8162 31.3438 11.6875C31.3438 12.5588 30.6213 13.2812 29.75 13.2812Z" fill="url(#paint0_linear_0_198)"/>
<defs>
<linearGradient id="paint0_linear_0_198" x1="8.5" y1="4.25" x2="49.9634" y2="37.4207" gradientUnits="userSpaceOnUse">
<stop stop-color="#78A0FF"/>
<stop offset="1" stop-color="#5078E6"/>
</linearGradient>
</defs>
</svg>
