<svg width="45" height="45" viewBox="0 0 45 45" fill="none" xmlns="http://www.w3.org/2000/svg">
<path d="M37.8937 14.6625L23.4562 23.025C22.8749 23.3625 22.1437 23.3625 21.5437 23.025L7.10616 14.6625C6.07491 14.0625 5.81241 12.6562 6.59991 11.775C7.14366 11.1562 7.76241 10.65 8.41866 10.2937L18.5812 4.6687C20.7562 3.44995 24.2812 3.44995 26.4562 4.6687L36.6187 10.2937C37.2749 10.65 37.8937 11.175 38.4374 11.775C39.1874 12.6562 38.9249 14.0625 37.8937 14.6625Z" fill="#292D32"/>
<path d="M37.8937 14.6625L23.4562 23.025C22.8749 23.3625 22.1437 23.3625 21.5437 23.025L7.10616 14.6625C6.07491 14.0625 5.81241 12.6562 6.59991 11.775C7.14366 11.1562 7.76241 10.65 8.41866 10.2937L18.5812 4.6687C20.7562 3.44995 24.2812 3.44995 26.4562 4.6687L36.6187 10.2937C37.2749 10.65 37.8937 11.175 38.4374 11.775C39.1874 12.6562 38.9249 14.0625 37.8937 14.6625Z" fill="url(#paint0_linear_0_205)"/>
<path d="M21.4312 26.5125V39.3C21.4312 40.725 19.9874 41.6625 18.7124 41.0438C14.8499 39.15 8.34365 35.6063 8.34365 35.6063C6.05615 34.3125 4.18115 31.05 4.18115 28.3688V18.6938C4.18115 17.2125 5.7374 16.275 7.0124 17.0063L20.4937 24.825C21.0562 25.1813 21.4312 25.8188 21.4312 26.5125Z" fill="#292D32"/>
<path d="M21.4312 26.5125V39.3C21.4312 40.725 19.9874 41.6625 18.7124 41.0438C14.8499 39.15 8.34365 35.6063 8.34365 35.6063C6.05615 34.3125 4.18115 31.05 4.18115 28.3688V18.6938C4.18115 17.2125 5.7374 16.275 7.0124 17.0063L20.4937 24.825C21.0562 25.1813 21.4312 25.8188 21.4312 26.5125Z" fill="url(#paint1_linear_0_205)"/>
<path d="M23.5688 26.5125V39.3C23.5688 40.725 25.0126 41.6625 26.2876 41.0438C30.1501 39.15 36.6563 35.6063 36.6563 35.6063C38.9438 34.3125 40.8188 31.05 40.8188 28.3688V18.6938C40.8188 17.2125 39.2626 16.275 37.9876 17.0063L24.5063 24.825C23.9438 25.1813 23.5688 25.8188 23.5688 26.5125Z" fill="#292D32"/>
<path d="M23.5688 26.5125V39.3C23.5688 40.725 25.0126 41.6625 26.2876 41.0438C30.1501 39.15 36.6563 35.6063 36.6563 35.6063C38.9438 34.3125 40.8188 31.05 40.8188 28.3688V18.6938C40.8188 17.2125 39.2626 16.275 37.9876 17.0063L24.5063 24.825C23.9438 25.1813 23.5688 25.8188 23.5688 26.5125Z" fill="url(#paint2_linear_0_205)"/>
<path d="M23.5688 26.5125V39.3C23.5688 40.725 25.0126 41.6625 26.2876 41.0438C30.1501 39.15 36.6563 35.6063 36.6563 35.6063C38.9438 34.3125 40.8188 31.05 40.8188 28.3688V18.6938C40.8188 17.2125 39.2626 16.275 37.9876 17.0063L24.5063 24.825C23.9438 25.1813 23.5688 25.8188 23.5688 26.5125Z" fill="url(#paint3_linear_0_205)"/>
<defs>
<linearGradient id="paint0_linear_0_205" x1="6.14087" y1="3.75464" x2="23.3207" y2="32.5526" gradientUnits="userSpaceOnUse">
<stop stop-color="#78A0FF"/>
<stop offset="1" stop-color="#5078E6"/>
</linearGradient>
<linearGradient id="paint1_linear_0_205" x1="4.18115" y1="16.7526" x2="27.2375" y2="32.996" gradientUnits="userSpaceOnUse">
<stop stop-color="#78A0FF"/>
<stop offset="1" stop-color="#5078E6"/>
</linearGradient>
<linearGradient id="paint2_linear_0_205" x1="23.5688" y1="16.7526" x2="46.6252" y2="32.996" gradientUnits="userSpaceOnUse">
<stop stop-color="#78A0FF"/>
<stop offset="1" stop-color="#5078E6"/>
</linearGradient>
<linearGradient id="paint3_linear_0_205" x1="23.5688" y1="16.7526" x2="46.6252" y2="32.996" gradientUnits="userSpaceOnUse">
<stop stop-color="#FECF8E"/>
<stop offset="1" stop-color="#D27624"/>
</linearGradient>
</defs>
</svg>
