<svg width="45" height="45" viewBox="0 0 45 45" fill="none" xmlns="http://www.w3.org/2000/svg">
<path d="M27.8438 7.40625V14.5312H25.0313V7.40625C25.0313 6.9 24.5813 6.65625 24.2812 6.65625C24.1875 6.65625 24.0938 6.675 24 6.7125L9.13125 12.3188C8.1375 12.6938 7.5 13.6312 7.5 14.7V15.9562C5.79375 17.2312 4.6875 19.275 4.6875 21.5812V14.7C4.6875 12.4687 6.05625 10.4812 8.1375 9.69375L23.025 4.06875C23.4375 3.91875 23.8688 3.84375 24.2812 3.84375C26.1563 3.84375 27.8438 5.3625 27.8438 7.40625Z" fill="#292D32"/>
<path d="M27.8438 7.40625V14.5312H25.0313V7.40625C25.0313 6.9 24.5813 6.65625 24.2812 6.65625C24.1875 6.65625 24.0938 6.675 24 6.7125L9.13125 12.3188C8.1375 12.6938 7.5 13.6312 7.5 14.7V15.9562C5.79375 17.2312 4.6875 19.275 4.6875 21.5812V14.7C4.6875 12.4687 6.05625 10.4812 8.1375 9.69375L23.025 4.06875C23.4375 3.91875 23.8688 3.84375 24.2812 3.84375C26.1563 3.84375 27.8438 5.3625 27.8438 7.40625Z" fill="url(#paint0_linear_0_213)"/>
<path d="M40.3125 27.1875V29.0625C40.3125 29.5687 39.9188 29.9813 39.3938 30H36.6563C35.6625 30 34.7625 29.2688 34.6875 28.2938C34.6313 27.7125 34.8563 27.1687 35.2313 26.7937C35.5688 26.4375 36.0375 26.25 36.5438 26.25H39.375C39.9188 26.2687 40.3125 26.6812 40.3125 27.1875Z" fill="#292D32"/>
<path d="M40.3125 27.1875V29.0625C40.3125 29.5687 39.9188 29.9813 39.3938 30H36.6563C35.6625 30 34.7625 29.2688 34.6875 28.2938C34.6313 27.7125 34.8563 27.1687 35.2313 26.7937C35.5688 26.4375 36.0375 26.25 36.5438 26.25H39.375C39.9188 26.2687 40.3125 26.6812 40.3125 27.1875Z" fill="url(#paint1_linear_0_213)"/>
<path d="M36.525 24.2812H38.4375C39.4688 24.2812 40.3125 23.4375 40.3125 22.4062V21.5813C40.3125 17.7 37.1437 14.5312 33.2625 14.5312H11.7375C10.1438 14.5312 8.68125 15.0563 7.5 15.9563C5.79375 17.2313 4.6875 19.275 4.6875 21.5813V34.2C4.6875 38.0812 7.85625 41.25 11.7375 41.25H33.2625C37.1437 41.25 40.3125 38.0812 40.3125 34.2V33.8437C40.3125 32.8125 39.4688 31.9687 38.4375 31.9687H36.8062C35.0062 31.9687 33.2812 30.8625 32.8125 29.1187C32.4188 27.6937 32.8875 26.325 33.825 25.4062C34.5188 24.6938 35.475 24.2812 36.525 24.2812ZM26.25 23.9062H13.125C12.3562 23.9062 11.7188 23.2688 11.7188 22.5C11.7188 21.7312 12.3562 21.0938 13.125 21.0938H26.25C27.0187 21.0938 27.6562 21.7312 27.6562 22.5C27.6562 23.2688 27.0187 23.9062 26.25 23.9062Z" fill="#292D32"/>
<path d="M36.525 24.2812H38.4375C39.4688 24.2812 40.3125 23.4375 40.3125 22.4062V21.5813C40.3125 17.7 37.1437 14.5312 33.2625 14.5312H11.7375C10.1438 14.5312 8.68125 15.0563 7.5 15.9563C5.79375 17.2313 4.6875 19.275 4.6875 21.5813V34.2C4.6875 38.0812 7.85625 41.25 11.7375 41.25H33.2625C37.1437 41.25 40.3125 38.0812 40.3125 34.2V33.8437C40.3125 32.8125 39.4688 31.9687 38.4375 31.9687H36.8062C35.0062 31.9687 33.2812 30.8625 32.8125 29.1187C32.4188 27.6937 32.8875 26.325 33.825 25.4062C34.5188 24.6938 35.475 24.2812 36.525 24.2812ZM26.25 23.9062H13.125C12.3562 23.9062 11.7188 23.2688 11.7188 22.5C11.7188 21.7312 12.3562 21.0938 13.125 21.0938H26.25C27.0187 21.0938 27.6562 21.7312 27.6562 22.5C27.6562 23.2688 27.0187 23.9062 26.25 23.9062Z" fill="url(#paint2_linear_0_213)"/>
<rect x="10" y="21" width="18" height="4" rx="2" fill="#C4C4C4"/>
<rect x="10" y="21" width="18" height="4" rx="2" fill="url(#paint3_linear_0_213)"/>
<rect x="35" y="26" width="7" height="4" rx="2" fill="#C4C4C4"/>
<rect x="35" y="26" width="7" height="4" rx="2" fill="url(#paint4_linear_0_213)"/>
<defs>
<linearGradient id="paint0_linear_0_213" x1="4.6875" y1="3.84375" x2="21.8129" y2="26.2009" gradientUnits="userSpaceOnUse">
<stop stop-color="#78A0FF"/>
<stop offset="1" stop-color="#5078E6"/>
</linearGradient>
<linearGradient id="paint1_linear_0_213" x1="34.679" y1="26.25" x2="38.1385" y2="31.4472" gradientUnits="userSpaceOnUse">
<stop stop-color="#78A0FF"/>
<stop offset="1" stop-color="#5078E6"/>
</linearGradient>
<linearGradient id="paint2_linear_0_213" x1="4.6875" y1="14.5313" x2="30.3375" y2="48.7313" gradientUnits="userSpaceOnUse">
<stop stop-color="#78A0FF"/>
<stop offset="1" stop-color="#5078E6"/>
</linearGradient>
<linearGradient id="paint3_linear_0_213" x1="10" y1="21" x2="11.6941" y2="28.6235" gradientUnits="userSpaceOnUse">
<stop stop-color="#FECF8E"/>
<stop offset="1" stop-color="#D27624"/>
</linearGradient>
<linearGradient id="paint4_linear_0_213" x1="35" y1="26" x2="38.4462" y2="32.0308" gradientUnits="userSpaceOnUse">
<stop stop-color="#FECF8E"/>
<stop offset="1" stop-color="#D27624"/>
</linearGradient>
</defs>
</svg>
