<svg width="98" height="84" fill="none" xmlns="http://www.w3.org/2000/svg"><path fill-rule="evenodd" clip-rule="evenodd" d="M18.247 65.834c.273.11.547.166.849.166.575 0 1.096-.222 1.534-.61l12.247-11.858H48.63c14 0 25.37-11.527 25.37-25.658v-2.217C74 11.5 62.603 0 48.63 0H25.37C11.37 0 0 11.526 0 25.657v2.217c0 10.834 6.877 20.56 16.904 24.161v11.748c0 .887.548 1.69 1.343 2.05zm3.04-7.232v-8.008a2.144 2.144 0 00-1.534-2.244.208.208 0 00-.137-.055c-8.986-2.605-15.26-11-15.26-20.421v-2.217c0-11.72 9.425-21.224 20.986-21.224h23.26c11.59 0 20.987 9.532 20.987 21.224v2.217c0 11.72-9.425 21.224-20.986 21.224H32.191a2.226 2.226 0 00-1.727.61l-9.177 8.894z" fill="url(#paint0_linear)"/><path d="M83.652 84a2.22 2.22 0 01-1.506-.609l-9.857-9.433H60.926c-7.12 0-13.855-3.845-17.606-10.042a2.222 2.222 0 01.739-3.043 2.174 2.174 0 013.012.747c2.93 4.897 8.242 7.912 13.855 7.912H73.11c.576 0 1.15.194 1.561.609l6.79 6.5V70.64c0-.941.576-1.77 1.452-2.075 6.407-2.352 10.706-8.52 10.706-15.381 0-7.414-4.956-13.915-12.048-15.824-1.177-.304-1.862-1.521-1.56-2.71a2.19 2.19 0 012.683-1.577C91.702 35.478 98 43.75 98 53.155c0 8.189-4.82 15.602-12.13 18.95v9.654c0 .885-.52 1.688-1.314 2.02a1.818 1.818 0 01-.904.221z" fill="url(#paint1_linear)"/><path d="M34.864 30.439c0-.936.207-1.71.621-2.322.432-.612 1.053-1.287 1.863-2.025.594-.54 1.026-.99 1.296-1.35.288-.378.432-.801.432-1.269 0-.666-.27-1.188-.81-1.566-.522-.396-1.224-.594-2.106-.594-.846 0-1.602.18-2.268.54a4.713 4.713 0 00-1.647 1.458l-3.267-1.917c.756-1.152 1.773-2.043 3.051-2.673 1.296-.63 2.826-.945 4.59-.945 2.07 0 3.726.441 4.968 1.323 1.26.882 1.89 2.106 1.89 3.672 0 .738-.126 1.386-.378 1.944a4.95 4.95 0 01-.89 1.431c-.343.378-.793.819-1.35 1.323-.667.594-1.153 1.098-1.459 1.512-.306.396-.459.882-.459 1.458h-4.077zm2.052 6.777c-.738 0-1.359-.234-1.863-.702a2.392 2.392 0 01-.729-1.755c0-.684.243-1.251.73-1.701.485-.468 1.106-.702 1.862-.702s1.377.234 1.863.702c.486.45.73 1.017.73 1.701 0 .684-.253 1.269-.757 1.755-.486.468-1.098.702-1.836.702z" fill="#FFB95F"/><defs><linearGradient id="paint0_linear" x1="-40.79" y1="28.977" x2="21.505" y2="100.489" gradientUnits="userSpaceOnUse"><stop stop-color="#FFCC5C"/><stop offset="1" stop-color="#FF9E65"/></linearGradient><linearGradient id="paint1_linear" x1="12.683" y1="55.391" x2="61.041" y2="108.786" gradientUnits="userSpaceOnUse"><stop stop-color="#FFCC5C"/><stop offset="1" stop-color="#FF9E65"/></linearGradient></defs></svg>