<svg width="24" height="24" viewBox="0 0 24 24" fill="none" xmlns="http://www.w3.org/2000/svg">
<path fill="currentColor" d="M3 3.00001V20H20V3.00001H3ZM19 19H4V4.00001H19V19ZM7 13.232V16H8V13.232C8.738 13.014 9.281 12.338 9.281 11.531C9.281 10.724 8.738 10.048 8 9.83001V7.00001H7V9.83001C6.262 10.048 5.719 10.724 5.719 11.531C5.719 12.338 6.262 13.015 7 13.232ZM7.5 10.75C7.931 10.75 8.281 11.101 8.281 11.531C8.281 11.961 7.931 12.312 7.5 12.312C7.069 12.312 6.719 11.962 6.719 11.531C6.719 11.1 7.069 10.75 7.5 10.75ZM11 11.107V16H12V11.107C12.738 10.889 13.281 10.213 13.281 9.40601C13.281 8.59901 12.738 7.92301 12 7.70501V7.00001H11V7.70501C10.262 7.92301 9.719 8.59901 9.719 9.40601C9.719 10.213 10.262 10.89 11 11.107ZM11.5 8.62501C11.931 8.62501 12.281 8.97601 12.281 9.40601C12.281 9.83601 11.931 10.188 11.5 10.188C11.069 10.188 10.719 9.83701 10.719 9.40601C10.719 8.97501 11.069 8.62501 11.5 8.62501ZM15.5 16.417C16.482 16.417 17.281 15.618 17.281 14.636C17.281 13.828 16.738 13.153 16 12.935V7.00001H15V12.935C14.262 13.153 13.719 13.829 13.719 14.636C13.719 15.618 14.518 16.417 15.5 16.417ZM15.5 13.854C15.931 13.854 16.281 14.205 16.281 14.635C16.281 15.065 15.93 15.416 15.5 15.416C15.07 15.416 14.719 15.065 14.719 14.635C14.719 14.205 15.069 13.854 15.5 13.854Z" />
</svg>
