<svg width="24" height="24" viewBox="0 0 24 24" fill="none" xmlns="http://www.w3.org/2000/svg">
<path fill="currentColor" d="M4 12C4 14.206 5.711 16 7.813 16V17C5.159 17 3 14.757 3 12C3 9.24303 5.159 7.00003 7.813 7.00003H12.042L10.396 5.35403L11.103 4.64703L13.957 7.50003L11.104 10.354L10.396 9.64603L12.043 8.00003H7.813C5.711 8.00003 4 9.79403 4 12ZM15.187 7.00003V8.00003C17.289 8.00003 19 9.79403 19 12C19 14.206 17.289 16 15.187 16H10.957L12.603 14.354L11.896 13.647L9.043 16.5L11.897 19.354L12.604 18.647L10.957 17H15.186C17.841 17 20 14.757 20 12C20 9.24303 17.841 7.00003 15.187 7.00003Z" fill="#808080"/>
</svg>
