<svg width="24" height="24" viewBox="0 0 24 24" fill="none" xmlns="http://www.w3.org/2000/svg">
    <path fill-rule="evenodd" clip-rule="evenodd" d="M2.17873 4.17357C2.50301 3.45894 3.21525 3 4 3H20C20.7848 3 21.497 3.45894 21.8213 4.17357C22.1455 4.88819 22.0219 5.72642 21.5052 6.31701L15 13.7515V20C15 20.6932 14.6411 21.3369 14.0515 21.7013C13.4618 22.0657 12.7255 22.0988 12.1056 21.7889L10.1056 20.7889C9.428 20.4501 9 19.7575 9 19V13.7515L2.49485 6.31701C1.97808 5.72642 1.85446 4.88819 2.17873 4.17357ZM4 5L10.7526 12.7172C10.9121 12.8995 11 13.1335 11 13.3757V19L13 20V13.3757C13 13.1335 13.0879 12.8995 13.2474 12.7172L20 5H4Z" fill="#FFB560"/>
</svg>