<svg width="24" height="24" viewBox="0 0 24 24" fill="none" xmlns="http://www.w3.org/2000/svg">
<path fill-rule="evenodd" clip-rule="evenodd" d="M9.5 15C12.5376 15 15 12.5376 15 9.5C15 6.46243 12.5376 4 9.5 4C6.46243 4 4 6.46243 4 9.5C4 12.5376 6.46243 15 9.5 15ZM9.5 16C13.0899 16 16 13.0899 16 9.5C16 5.91015 13.0899 3 9.5 3C5.91015 3 3 5.91015 3 9.5C3 13.0899 5.91015 16 9.5 16Z" fill="#808080"/>
<path fill-rule="evenodd" clip-rule="evenodd" d="M9.5 5C9.22386 5 9 5.22386 9 5.5V6H8C7.44772 6 7 6.44772 7 7V9V10V12C7 12.5523 7.44772 13 8 13H9V13.5C9 13.7761 9.22386 14 9.5 14C9.77614 14 10 13.7761 10 13.5V13H10.5C11.6046 13 12.5 12.1046 12.5 11C12.5 10.4027 12.2381 9.86647 11.8229 9.5C12.2381 9.13353 12.5 8.59735 12.5 8C12.5 6.89543 11.6046 6 10.5 6H10V5.5C10 5.22386 9.77614 5 9.5 5ZM10.5 9C11.0523 9 11.5 8.55228 11.5 8C11.5 7.44772 11.0523 7 10.5 7H8V9H10.5ZM8 10V12H10.5C11.0523 12 11.5 11.5523 11.5 11C11.5 10.4477 11.0523 10 10.5 10H8Z" fill="#808080"/>
<path fill-rule="evenodd" clip-rule="evenodd" d="M12 19H11L11 20H12V19ZM11 18C10.4477 18 10 18.4477 10 19V20C10 20.5523 10.4477 21 11 21H12C12.5523 21 13 20.5523 13 20V19C13 18.4477 12.5523 18 12 18H11Z" fill="#808080"/>
<path fill-rule="evenodd" clip-rule="evenodd" d="M6.5 20C6.22386 20 6 20.2239 6 20.5C6 20.7761 6.22386 21 6.5 21H8.5C8.77614 21 9 20.7761 9 20.5C9 20.2239 8.77614 20 8.5 20H6.5Z" fill="#808080"/>
<path fill-rule="evenodd" clip-rule="evenodd" d="M16 16H15L15 20H16V16ZM15 15C14.4477 15 14 15.4477 14 16V20C14 20.5523 14.4477 21 15 21H16C16.5523 21 17 20.5523 17 20V16C17 15.4477 16.5523 15 16 15H15Z" fill="#808080"/>
<path fill-rule="evenodd" clip-rule="evenodd" d="M20 10H19L19 20H20V10ZM19 9C18.4477 9 18 9.44772 18 10V20C18 20.5523 18.4477 21 19 21H20C20.5523 21 21 20.5523 21 20V10C21 9.44772 20.5523 9 20 9H19Z" fill="#808080"/>
</svg>
