<svg width="34" height="34" viewBox="0 0 34 34" fill="none" xmlns="http://www.w3.org/2000/svg">
<path d="M5.9613 21.9472C6.19596 22.4693 5.96287 23.0829 5.44069 23.3176C4.9185 23.5522 4.30495 23.3191 4.07029 22.7969C3.25867 20.9909 2.83331 19.0243 2.83331 17.0007C2.83331 9.17678 9.1761 2.83398 17 2.83398C24.8239 2.83398 31.1666 9.17678 31.1666 17.0007C31.1666 24.8245 24.8239 31.1673 17 31.1673C13.6756 31.1673 10.5254 30.0171 8.00793 27.9488C7.56558 27.5853 7.5016 26.9321 7.86502 26.4898C8.22844 26.0474 8.88165 25.9835 9.32399 26.3469C11.474 28.1133 14.1603 29.0941 17 29.0941C23.6789 29.0941 29.0935 23.6795 29.0935 17.0007C29.0935 10.3218 23.6789 4.90716 17 4.90716C10.3211 4.90716 4.90648 10.3218 4.90648 17.0007C4.90648 18.7301 5.26923 20.4071 5.9613 21.9472Z" fill="url(#paint0_linear)"/>
<defs>
<linearGradient id="paint0_linear" x1="17" y1="2.83398" x2="17" y2="31.1673" gradientUnits="userSpaceOnUse">
<stop stop-color="#FFCC5C"/>
<stop offset="1" stop-color="#FF9E65"/>
</linearGradient>
</defs>
</svg>
