<svg width="24" height="24" viewBox="0 0 24 24" fill="none" xmlns="http://www.w3.org/2000/svg">
<path fill="currentColor" d="M18.312 17.125C18.298 17.112 17 15.831 17 13.915V10.623C17 7.522 14.532 5 11.5 5C8.46799 5 5.99999 7.522 5.99999 10.623V13.915C5.99999 15.776 4.69399 17.118 4.68199 17.131L3.83899 17.984H19.196L18.312 17.125ZM6.05199 16.984C6.49599 16.292 6.99999 15.22 6.99999 13.915V10.623C6.99999 8.074 9.01899 6 11.5 6C13.981 6 16 8.074 16 10.623V13.915C16 15.235 16.495 16.298 16.938 16.984H6.05199ZM12 5H11V4H12V5ZM12 18H13C13 18.827 12.327 19.5 11.5 19.5C10.673 19.5 9.99999 18.827 9.99999 18H11C11 18.276 11.225 18.5 11.5 18.5C11.775 18.5 12 18.276 12 18Z" fill="#808080"/>
</svg>
