<svg width="24" height="24" viewBox="0 0 24 24" fill="none" xmlns="http://www.w3.org/2000/svg">
<path fill="currentColor" d="M11.5 8.97198C10.122 8.97198 9 10.094 9 11.472C9 12.85 10.122 13.972 11.5 13.972C12.878 13.972 14 12.85 14 11.472C14 10.094 12.878 8.97198 11.5 8.97198ZM11.5 12.972C10.673 12.972 10 12.299 10 11.472C10 10.645 10.673 9.97198 11.5 9.97198C12.327 9.97198 13 10.645 13 11.472C13 12.299 12.327 12.972 11.5 12.972ZM19.94 12.446C19.977 12.125 20 11.801 20 11.472C20 11.143 19.977 10.819 19.94 10.498L17.352 9.71998C17.233 9.31798 17.074 8.93298 16.878 8.57098L18.157 6.19398C17.751 5.68398 17.288 5.22098 16.777 4.81398L14.4 6.09399C14.037 5.89798 13.652 5.73998 13.25 5.61998L12.474 3.03198C12.154 2.99498 11.83 2.97198 11.5 2.97198C11.17 2.97198 10.846 2.99498 10.526 3.03198L9.75 5.61998C9.347 5.73898 8.961 5.89798 8.6 6.09499L6.223 4.81498C5.712 5.22098 5.249 5.68398 4.844 6.19498L6.123 8.56998C5.927 8.93198 5.769 9.31798 5.649 9.71998L3.06 10.498C3.023 10.818 3 11.142 3 11.472C3 11.802 3.023 12.126 3.06 12.446L5.648 13.222C5.768 13.625 5.926 14.011 6.122 14.373L4.843 16.749C5.249 17.26 5.712 17.723 6.223 18.129L8.6 16.85C8.962 17.046 9.348 17.204 9.75 17.324L10.526 19.912C10.847 19.949 11.171 19.972 11.5 19.972C11.829 19.972 12.154 19.949 12.474 19.912L13.25 17.324C13.652 17.204 14.038 17.046 14.4 16.85L16.776 18.129C17.287 17.722 17.75 17.259 18.156 16.748L16.878 14.372C17.074 14.01 17.232 13.624 17.352 13.222L19.94 12.446ZM16.548 12.419L16.394 12.937C16.294 13.274 16.161 13.597 15.998 13.896L15.742 14.371L15.997 14.846L16.949 16.616C16.85 16.721 16.748 16.823 16.643 16.922L14.4 15.713L13.925 15.969C13.624 16.132 13.301 16.264 12.965 16.365L12.447 16.519L12.292 17.037L11.713 18.969C11.641 18.971 11.57 18.972 11.5 18.972C11.43 18.972 11.359 18.971 11.287 18.969L10.708 17.037L10.553 16.519L10.035 16.365C9.699 16.265 9.376 16.132 9.076 15.969L8.601 15.713L6.356 16.92C6.252 16.821 6.149 16.719 6.05 16.614L7.258 14.37L7.002 13.895C6.84 13.595 6.707 13.272 6.606 12.935L6.453 12.418L4.004 11.684C4.001 11.612 4 11.541 4 11.472C4 11.402 4.001 11.331 4.004 11.259L6.452 10.525L6.606 10.007C6.706 9.66998 6.839 9.34698 7.002 9.04798L7.258 8.57298L6.05 6.32799C6.149 6.22398 6.251 6.12099 6.355 6.02199L8.602 7.23198L9.078 6.97298C9.375 6.81098 9.697 6.67798 10.034 6.57799L10.552 6.42399L10.707 5.90598L11.286 3.97398C11.359 3.97298 11.43 3.97198 11.5 3.97198C11.57 3.97198 11.641 3.97298 11.713 3.97498L12.292 5.90699L12.447 6.42498L12.965 6.57898C13.3 6.67898 13.624 6.81198 13.925 6.97498L14.4 7.22998L16.644 6.02199C16.748 6.12099 16.851 6.22299 16.95 6.32799L15.997 8.09798L15.742 8.57298L15.999 9.04798C16.162 9.34798 16.294 9.66998 16.394 10.005L16.548 10.523L17.066 10.678L18.998 11.259C18.999 11.331 19 11.402 19 11.472C19 11.542 18.999 11.613 18.996 11.685L16.548 12.419Z" fill="#808080"/>
</svg>
