<svg width="24" height="24" viewBox="0 0 24 24" fill="none" xmlns="http://www.w3.org/2000/svg">
    <path fill-rule="evenodd" clip-rule="evenodd" d="M21 7C21 9.20914 19.2091 11 17 11C15.7961 11 14.7164 10.4681 13.983 9.62649L10.9121 11.162C10.9697 11.4322 11 11.7126 11 12C11 12.3945 10.9429 12.7757 10.8365 13.1357L14.1934 15.1499C14.9155 14.4388 15.9065 14 17 14C19.2091 14 21 15.7909 21 18C21 20.2091 19.2091 22 17 22C14.7909 22 13 20.2091 13 18C13 17.6055 13.0571 17.2243 13.1635 16.8643L9.80656 14.8501C9.08449 15.5612 8.09349 16 7 16C4.79086 16 3 14.2091 3 12C3 9.79086 4.79086 8 7 8C8.20392 8 9.28362 8.53188 10.0169 9.37348L13.0879 7.83798C13.0303 7.56775 13 7.28741 13 7C13 4.79086 14.7909 3 17 3C19.2091 3 21 4.79086 21 7ZM19 7C19 8.10457 18.1046 9 17 9C15.8954 9 15 8.10457 15 7C15 5.89543 15.8954 5 17 5C18.1046 5 19 5.89543 19 7ZM19 18C19 19.1046 18.1046 20 17 20C15.8954 20 15 19.1046 15 18C15 16.8954 15.8954 16 17 16C18.1046 16 19 16.8954 19 18ZM9 12C9 13.1046 8.10457 14 7 14C5.89543 14 5 13.1046 5 12C5 10.8954 5.89543 10 7 10C8.10457 10 9 10.8954 9 12Z" fill="currentColor"/>
</svg>