<svg width="24" height="24" viewBox="0 0 24 24" fill="none" xmlns="http://www.w3.org/2000/svg">
<path fill="currentColor" fill-rule="evenodd" clip-rule="evenodd" d="M16.5 9C17.8807 9 19 7.88071 19 6.5C19 5.11929 17.8807 4 16.5 4C15.1193 4 14 5.11929 14 6.5C14 7.88071 15.1193 9 16.5 9ZM16.5 10C18.433 10 20 8.433 20 6.5C20 4.567 18.433 3 16.5 3C14.567 3 13 4.567 13 6.5C13 8.433 14.567 10 16.5 10Z" fill="#808080"/>
<path fill="currentColor" fill-rule="evenodd" clip-rule="evenodd" d="M16.5 19C17.8807 19 19 17.8807 19 16.5C19 15.1193 17.8807 14 16.5 14C15.1193 14 14 15.1193 14 16.5C14 17.8807 15.1193 19 16.5 19ZM16.5 20C18.433 20 20 18.433 20 16.5C20 14.567 18.433 13 16.5 13C14.567 13 13 14.567 13 16.5C13 18.433 14.567 20 16.5 20Z" fill="#808080"/>
<path fill="currentColor" fill-rule="evenodd" clip-rule="evenodd" d="M6.5 14C7.88071 14 9 12.8807 9 11.5C9 10.1193 7.88071 9 6.5 9C5.11929 9 4 10.1193 4 11.5C4 12.8807 5.11929 14 6.5 14ZM6.5 15C8.433 15 10 13.433 10 11.5C10 9.567 8.433 8 6.5 8C4.567 8 3 9.567 3 11.5C3 13.433 4.567 15 6.5 15Z" fill="#808080"/>
<path fill="currentColor" fill-rule="evenodd" clip-rule="evenodd" d="M8.81433 9.53564L13.8143 7.53564L14.1857 8.46412L9.18572 10.4641L8.81433 9.53564ZM13.8143 15.4641L8.81433 13.4641L9.18572 12.5356L14.1857 14.5356L13.8143 15.4641Z" fill="#808080"/>
</svg>
