<svg width="24" height="24" viewBox="0 0 24 24" fill="none" xmlns="http://www.w3.org/2000/svg">
<path fill="currentColor" d="M4.564 5C3.71 5 3.014 5.68926 3.014 6.53635H3V17.4636C3 18.3107 3.695 19 4.55 19H18.042V17.3468H20V5H4.564ZM4.55 18.0001C4.247 18.0001 4 17.7593 4 17.4626V7.8899C4.024 7.89689 4.054 7.8949 4.078 7.90189C4.221 7.94384 4.371 7.96982 4.531 7.97281C4.538 7.97281 4.543 7.97581 4.55 7.97581H17.043V11.0076H14.184C13.322 11.0076 12.621 11.6798 12.621 12.506V13.5049C12.621 14.331 13.322 15.0033 14.184 15.0033H17.043V18.0001H4.55ZM14.183 14.0044C13.872 14.0044 13.62 13.7806 13.62 13.5049V12.506C13.62 12.2303 13.873 12.0065 14.183 12.0065H19V14.0044H14.183ZM19 16.3468H18.042V15.0033H19V16.3468ZM18.042 11.0076V6.97688H4.564C4.291 6.97688 4.014 6.84003 4.014 6.53635C4.015 6.23967 4.262 5.99893 4.564 5.99893H19V11.0076H18.042Z" fill="#808080"/>
</svg>
