<svg width="61" height="70" viewBox="0 0 61 70" fill="none" xmlns="http://www.w3.org/2000/svg">
<rect x="44" width="17" height="70" fill="url(#paint0_linear)"/>
<rect x="22" y="27" width="17" height="43" fill="url(#paint1_linear)"/>
<rect y="39" width="17" height="31" fill="url(#paint2_linear)"/>
<path d="M33.9733 4.00688L25.537 5.10946C24.7679 5.20533 24.4554 6.14013 25.0082 6.66745L27.1474 8.80071L6.74155 24.5724C5.90032 25.2196 5.75611 26.418 6.40506 27.257C6.78962 27.7363 7.34243 28 7.91927 28C8.32787 28 8.73647 27.8802 9.09699 27.5925L29.8874 11.5092L32.3149 13.9301C32.8677 14.4814 33.7811 14.1458 33.8772 13.4028L34.9828 4.98961C35.103 4.43832 34.5742 3.93497 33.9733 4.00688Z" fill="url(#paint3_linear)"/>
<defs>
<linearGradient id="paint0_linear" x1="44.0001" y1="70.0145" x2="61.0013" y2="70.0145" gradientUnits="userSpaceOnUse">
<stop stop-color="#FFB300"/>
<stop offset="1" stop-color="#FF8E37"/>
</linearGradient>
<linearGradient id="paint1_linear" x1="21.9994" y1="69.9983" x2="39.0005" y2="69.9983" gradientUnits="userSpaceOnUse">
<stop stop-color="#FFB300"/>
<stop offset="1" stop-color="#FF8E37"/>
</linearGradient>
<linearGradient id="paint2_linear" x1="-0.00127126" y1="70.014" x2="16.9999" y2="70.014" gradientUnits="userSpaceOnUse">
<stop stop-color="#FFB300"/>
<stop offset="1" stop-color="#FF8E37"/>
</linearGradient>
<linearGradient id="paint3_linear" x1="6.01665" y1="28.0159" x2="35.0262" y2="28.0159" gradientUnits="userSpaceOnUse">
<stop stop-color="#5C8BFC"/>
<stop offset="1" stop-color="#84B0FF"/>
</linearGradient>
</defs>
</svg>
