<svg width="74" height="71" fill="none" xmlns="http://www.w3.org/2000/svg"><path d="M65 35.5c0 2.82-3.8 4.983-4.634 7.511-.858 2.626.883 6.588-.711 8.776-1.618 2.212-5.983 1.774-8.214 3.379-2.206 1.58-3.138 5.834-5.786 6.684-2.55.827-5.81-2.041-8.655-2.041-2.844 0-6.08 2.868-8.655 2.041-2.648-.85-3.58-5.104-5.786-6.684-2.232-1.605-6.596-1.167-8.214-3.38-1.594-2.187.147-6.15-.711-8.775C12.8 40.483 9 38.295 9 35.5c0-2.82 3.8-4.983 4.634-7.511.858-2.626-.883-6.588.711-8.776 1.618-2.212 5.982-1.774 8.214-3.379 2.206-1.58 3.138-5.834 5.786-6.684 2.55-.827 5.81 2.041 8.655 2.041 2.844 0 6.08-2.868 8.655-2.041 2.648.85 3.58 5.104 5.786 6.684 2.231 1.605 6.596 1.167 8.214 3.38 1.594 2.187-.147 6.15.711 8.775C61.2 30.517 65 32.68 65 35.5z" fill="url(#paint0_linear)"/><path fill-rule="evenodd" clip-rule="evenodd" d="M25.576 70.744c.54.172 1.105.246 1.646.246 1.941 0 3.859-.961 5.61-1.84l.065-.032c1.474-.738 2.997-1.502 4.103-1.502 1.106 0 2.629.764 4.103 1.502 2.26 1.158 4.815 2.439 7.321 1.626 2.6-.836 3.927-3.44 5.105-5.753l.005-.01.052-.1c.72-1.396 1.442-2.796 2.258-3.398.86-.615 2.506-.886 4.078-1.132l.03-.005c2.523-.418 5.382-.89 6.972-3.074 1.597-2.167 1.155-5.024.762-7.561l-.024-.152c-.238-1.553-.481-3.132-.148-4.134.32-.935 1.45-2.093 2.555-3.201C71.912 40.377 74 38.284 74 35.5c0-2.783-2.088-4.877-3.93-6.724-1.106-1.108-2.261-2.265-2.556-3.201-.32-1.035-.074-2.685.172-4.286l.011-.076c.366-2.494.784-5.34-.773-7.485-1.59-2.183-4.449-2.656-6.972-3.074l-.03-.005c-1.597-.246-3.218-.517-4.078-1.132-.835-.616-1.597-2.07-2.31-3.498l-.047-.092c-1.168-2.269-2.494-4.845-5.063-5.67-2.477-.804-5.002.462-7.242 1.585l-.08.04C39.63 2.62 38.107 3.384 37 3.384c-1.106 0-2.629-.764-4.103-1.502C30.637.724 28.082-.557 25.576.256c-2.6.836-3.927 3.44-5.105 5.753l-.006.01-.051.1c-.72 1.396-1.442 2.796-2.258 3.398-.86.615-2.506.886-4.078 1.132l-.03.005c-2.524.418-5.382.89-6.972 3.074-1.597 2.167-1.155 5.024-.762 7.561l.023.152c.24 1.553.482 3.132.15 4.134-.32.936-1.45 2.093-2.556 3.201C2.088 30.624 0 32.716 0 35.5c0 2.783 2.088 4.877 3.93 6.724h.001c1.106 1.108 2.26 2.266 2.555 3.201.32 1.035.074 2.685-.172 4.286l-.011.076c-.366 2.494-.784 5.34.773 7.485 1.59 2.183 4.449 2.656 6.972 3.074l.03.005c1.597.246 3.218.517 4.078 1.133.835.615 1.597 2.068 2.31 3.497l.047.093c1.168 2.268 2.493 4.844 5.063 5.67zm17.162-5.214c-1.85-.915-3.747-1.855-5.738-1.855-1.991 0-3.889.94-5.738 1.855a163.986 163.986 0 01-.282.14c-1.559.77-3.272 1.616-4.2 1.306-1.057-.345-1.966-2.118-2.826-3.818l-.036-.07c-.922-1.801-1.876-3.664-3.453-4.806-1.596-1.182-3.71-1.527-5.748-1.847-1.868-.296-3.809-.616-4.447-1.503-.64-.862-.344-2.783-.05-4.655.32-2.069.64-4.187.025-6.108-.614-1.822-2.088-3.325-3.513-4.753-1.376-1.355-2.776-2.783-2.776-3.94 0-1.158 1.4-2.562 2.776-3.941 1.45-1.429 2.923-2.907 3.513-4.754.614-1.92.295-4.039-.024-6.108l-.019-.126c-.265-1.832-.533-3.686.068-4.529.638-.886 2.58-1.206 4.447-1.502 2.039-.32 4.152-.665 5.748-1.847 1.577-1.143 2.53-3.005 3.453-4.806l.036-.07c.86-1.7 1.77-3.473 2.826-3.818.968-.315 2.723.565 4.279 1.344l.07.035.133.066c1.85.916 3.747 1.855 5.738 1.855 2.04 0 3.96-.962 5.807-1.888l.065-.033.208-.103c1.54-.761 3.2-1.582 4.14-1.276 1.057.345 1.966 2.118 2.826 3.817l.036.07c.922 1.802 1.876 3.664 3.453 4.807 1.597 1.182 3.71 1.527 5.748 1.847 1.868.296 3.809.616 4.447 1.502.64.863.344 2.784.05 4.655-.32 2.07-.64 4.187-.025 6.108.614 1.823 2.088 3.325 3.513 4.754 1.376 1.354 2.776 2.783 2.776 3.94 0 1.158-1.4 2.562-2.776 3.941-1.45 1.428-2.923 2.906-3.513 4.753-.614 1.921-.295 4.04.024 6.108l.019.127c.265 1.831.533 3.686-.068 4.528-.638.887-2.58 1.207-4.447 1.503-2.039.32-4.151.664-5.748 1.847-1.577 1.142-2.53 3.005-3.453 4.806l-.036.07c-.86 1.7-1.77 3.473-2.825 3.818-.969.315-2.724-.565-4.28-1.345l-.07-.034-.133-.067z" fill="url(#paint1_linear)"/><path d="M26.721 47c-.44 0-.882-.172-1.225-.49a1.731 1.731 0 010-2.426l20.582-20.588a1.73 1.73 0 012.426 0 1.731 1.731 0 010 2.427L27.922 46.51c-.319.318-.76.49-1.2.49z" fill="#fff"/><path fill-rule="evenodd" clip-rule="evenodd" d="M22 27.5c0 3.579 2.921 6.5 6.5 6.5s6.5-2.921 6.5-6.5-2.921-6.5-6.5-6.5-6.5 2.921-6.5 6.5zm3.408-.024a3.096 3.096 0 013.092-3.092 3.096 3.096 0 013.092 3.092 3.096 3.096 0 01-3.092 3.091 3.096 3.096 0 01-3.092-3.091zM39 43.5c0 3.579 2.921 6.5 6.5 6.5 3.603 0 6.5-2.921 6.5-6.5S49.079 37 45.5 37 39 39.921 39 43.5zm3.408-.024a3.096 3.096 0 013.092-3.092 3.096 3.096 0 013.092 3.092 3.096 3.096 0 01-3.092 3.091 3.096 3.096 0 01-3.092-3.091z" fill="#fff"/><defs><linearGradient id="paint0_linear" x1="9.053" y1="61.973" x2="64.996" y2="61.973" gradientUnits="userSpaceOnUse"><stop stop-color="#FFB833"/><stop offset="1" stop-color="#FF964D"/></linearGradient><linearGradient id="paint1_linear" x1=".028" y1="70.948" x2="73.972" y2="70.948" gradientUnits="userSpaceOnUse"><stop stop-color="#658BF5"/><stop offset="1" stop-color="#8DB0FF"/></linearGradient></defs></svg>