<svg width="77" height="66" fill="none" xmlns="http://www.w3.org/2000/svg"><path d="M38.5 66C54.792 66 68 53.24 68 37.5S54.792 9 38.5 9 9 21.76 9 37.5 22.208 66 38.5 66z" fill="url(#paint0_linear)"/><path d="M36.335 32.933l16.647-6.82c.75-.304 1.587.028 1.904.718.26.58.058 1.27-.433 1.63L40.258 39.2c-1.673 1.27-4.097.995-5.424-.607-1.327-1.602-1.038-3.921.635-5.191.26-.166.577-.332.866-.47z" fill="#fff"/><path d="M64.07 65a2.47 2.47 0 01-1.645-.65 2.234 2.234 0 010-3.192c6.407-6.271 9.928-14.576 9.928-23.446 0-18.277-15.18-33.164-33.882-33.164-18.701 0-33.853 14.859-33.853 33.136 0 8.841 3.52 17.175 9.928 23.446a2.234 2.234 0 010 3.192 2.353 2.353 0 01-3.261 0C4.011 57.203 0 47.74 0 37.684 0 16.92 17.259 0 38.5 0S77 16.893 77 37.684c0 10.056-4.012 19.52-11.284 26.638A2.32 2.32 0 0164.07 65z" fill="url(#paint1_linear)"/><defs><linearGradient id="paint0_linear" x1="8.994" y1="66.011" x2="68.007" y2="66.011" gradientUnits="userSpaceOnUse"><stop stop-color="#FFB833"/><stop offset="1" stop-color="#FF964D"/></linearGradient><linearGradient id="paint1_linear" x1=".013" y1="64.992" x2="76.987" y2="64.992" gradientUnits="userSpaceOnUse"><stop stop-color="#658BF5"/><stop offset="1" stop-color="#8DB0FF"/></linearGradient></defs></svg>