<svg width="67" height="70" fill="none" xmlns="http://www.w3.org/2000/svg"><path d="M7 0v63h34V0H7z" fill="url(#paint0_linear)"/><path d="M45 48v15h15V48H45z" fill="url(#paint1_linear)"/><path d="M45 16v28h15V16H45z" fill="url(#paint2_linear)"/><path fill-rule="evenodd" clip-rule="evenodd" d="M2.199 4h62.624c1.21 0 2.199.975 2.177 2.166v61.451C67 68.94 65.922 70 64.58 70H2.42C1.077 70 0 68.939 0 67.617V6.167C0 4.974.99 4 2.199 4zm1.32 62.534H63.48V13.726H3.518v52.808z" fill="url(#paint3_linear)"/><path d="M5 10c1.105 0 2-.672 2-1.5S6.105 7 5 7s-2 .672-2 1.5.895 1.5 2 1.5zM11 10c1.105 0 2-.672 2-1.5S12.105 7 11 7s-2 .672-2 1.5.895 1.5 2 1.5zM17 10c1.105 0 2-.672 2-1.5S18.105 7 17 7s-2 .672-2 1.5.895 1.5 2 1.5zM23.178 47c-.434 0-.868-.173-1.194-.476l-9.446-8.98a1.734 1.734 0 01-.065-2.446 1.748 1.748 0 012.454-.065l7.904 7.53 9.967-15.753c.521-.8 1.585-1.06 2.389-.54.803.519 1.064 1.579.543 2.38L24.655 46.2a1.775 1.775 0 01-1.26.8h-.217z" fill="#fff"/><defs><linearGradient id="paint0_linear" x1="6.989" y1="63.002" x2="40.999" y2="63.002" gradientUnits="userSpaceOnUse"><stop stop-color="#FFB833"/><stop offset="1" stop-color="#FF964D"/></linearGradient><linearGradient id="paint1_linear" x1="45.002" y1="62.992" x2="59.999" y2="62.992" gradientUnits="userSpaceOnUse"><stop stop-color="#658BF5"/><stop offset="1" stop-color="#8DB0FF"/></linearGradient><linearGradient id="paint2_linear" x1="45.002" y1="43.992" x2="59.999" y2="43.992" gradientUnits="userSpaceOnUse"><stop stop-color="#FFB833"/><stop offset="1" stop-color="#FF964D"/></linearGradient><linearGradient id="paint3_linear" x1=".008" y1="70.005" x2="67.014" y2="70.005" gradientUnits="userSpaceOnUse"><stop stop-color="#658BF5"/><stop offset="1" stop-color="#8DB0FF"/></linearGradient></defs></svg>