<svg width="16" height="16" viewBox="0 0 16 16" fill="none" xmlns="http://www.w3.org/2000/svg">
<path fill-rule="evenodd" clip-rule="evenodd" d="M8.00002 11C5.4347 11 3.21653 9.57553 2.11194 7.5C3.21653 5.42447 5.4347 4 8.00002 4C10.5653 4 12.7835 5.42447 13.8881 7.5C12.7835 9.57552 10.5653 11 8.00002 11ZM8.00002 3C11.131 3 13.8218 4.85115 15 7.5C13.8218 10.1489 11.131 12 8.00002 12C4.86904 12 2.17822 10.1489 1 7.5C2.17822 4.85114 4.86904 3 8.00002 3ZM9.5 7.5C9.5 8.32843 8.82843 9 8 9C7.17157 9 6.5 8.32843 6.5 7.5C6.5 6.67157 7.17157 6 8 6C8.82843 6 9.5 6.67157 9.5 7.5ZM10.5 7.5C10.5 8.88071 9.38071 10 8 10C6.61929 10 5.5 8.88071 5.5 7.5C5.5 6.11929 6.61929 5 8 5C9.38071 5 10.5 6.11929 10.5 7.5Z" fill="currentColor" fill-opacity="0.87"/>
</svg>
