<svg width="16" height="16" viewBox="0 0 16 16" fill="none" xmlns="http://www.w3.org/2000/svg">
<path fill-rule="evenodd" clip-rule="evenodd" d="M8.00006 4C4.06863 4 2.61018 6.47298 2.16636 7.53C2.03927 7.83268 2.03927 8.16732 2.16636 8.47C2.61018 9.52702 4.06863 12 8.00006 12C11.9315 12 13.3899 9.52702 13.8338 8.47C13.9608 8.16732 13.9608 7.83268 13.8338 7.53C13.3899 6.47298 11.9315 4 8.00006 4ZM10 8C10 9.10457 9.10457 10 8 10C6.89543 10 6 9.10457 6 8C6 6.89543 6.89543 6 8 6C9.10457 6 10 6.89543 10 8Z" fill="#808080"/>
</svg>
