<svg width="16" height="16" viewBox="0 0 16 16" fill="none" xmlns="http://www.w3.org/2000/svg">
<path fill-rule="evenodd" clip-rule="evenodd" d="M10 7C10 8.65685 8.65685 10 7 10C5.34315 10 4 8.65685 4 7C4 5.34315 5.34315 4 7 4C8.65685 4 10 5.34315 10 7ZM10.1595 9.45337C10.6863 8.77594 11 7.92461 11 7C11 4.79086 9.20914 3 7 3C4.79086 3 3 4.79086 3 7C3 9.20914 4.79086 11 7 11C7.92461 11 8.77594 10.6863 9.45337 10.1595L12.3 13L13 12.3L10.1595 9.45337Z" fill="currentColor" fill-opacity="0.87"/>
</svg>
