<svg width="16" height="16" viewBox="0 0 16 16" fill="none" xmlns="http://www.w3.org/2000/svg">
<path fill-rule="evenodd" clip-rule="evenodd" d="M8.01746 3.00003C6.93471 2.99625 5.88 3.34404 5.01188 3.99112C4.14375 4.6382 3.50914 5.54959 3.20343 6.58829C2.89773 7.62699 2.93745 8.73685 3.31664 9.75104C3.69583 10.7652 4.39398 11.6289 5.30615 12.2123C6.21831 12.7956 7.29519 13.0671 8.37489 12.9859C9.4546 12.9047 10.4788 12.4753 11.2934 11.7621C12.1081 11.0489 12.6693 10.0905 12.8925 9.03102C13.1158 7.97154 12.9891 6.86821 12.5315 5.88691C12.2981 5.38637 12.5147 4.79139 13.0152 4.55798C13.5158 4.32458 14.1108 4.54113 14.3442 5.04167C14.9848 6.4155 15.1621 7.96016 14.8496 9.44343C14.537 10.9267 13.7514 12.2684 12.6108 13.2669C11.4703 14.2654 10.0364 14.8666 8.52485 14.9803C7.01327 15.094 5.50563 14.7139 4.2286 13.8972C2.95157 13.0805 1.97416 11.8713 1.44329 10.4514C0.912433 9.0316 0.856816 7.47778 1.2848 6.02361C1.71279 4.56943 2.60126 3.29348 3.81663 2.38757C5.032 1.48166 6.5086 0.994751 8.02444 1.00004C8.57672 1.00197 9.02287 1.45125 9.02094 2.00353C9.01901 2.55581 8.56974 3.00196 8.01746 3.00003Z" fill="#808080"/>
</svg>
