<svg width="16" height="16" viewBox="0 0 16 16" fill="none" xmlns="http://www.w3.org/2000/svg">
<g clip-path="url(#clip0)">
<path fill-rule="evenodd" clip-rule="evenodd" d="M2.80443 1.91675C4.25287 0.679667 6.09519 0 8.00002 0C8.27616 0 8.50002 0.223858 8.50002 0.5C8.50002 0.776142 8.27616 1 8.00002 1C6.3333 1 4.72127 1.59471 3.45388 2.67716C2.1865 3.75961 1.34693 5.25876 1.0862 6.90496C0.825467 8.55116 1.16068 10.2364 2.03154 11.6575C2.9024 13.0786 4.25175 14.1423 5.8369 14.6574C7.42205 15.1724 9.13895 15.105 10.6788 14.4672C12.2187 13.8293 13.4804 12.663 14.2371 11.1779C14.9937 9.69287 15.1957 7.98655 14.8066 6.36588C14.5936 5.47883 14.2113 4.64931 13.6876 3.91941C13.5267 3.69504 13.578 3.38266 13.8024 3.22169C14.0268 3.06072 14.3392 3.11211 14.5001 3.33648C15.0986 4.17061 15.5356 5.11866 15.779 6.13244C16.2236 7.98463 15.9928 9.93471 15.1281 11.6319C14.2633 13.3291 12.8213 14.6621 11.0615 15.391C9.30166 16.12 7.33948 16.1971 5.52788 15.6085C3.71628 15.0198 2.17416 13.8041 1.1789 12.18C0.183628 10.5559 -0.199469 8.6299 0.0985113 6.74852C0.396492 4.86715 1.35599 3.15384 2.80443 1.91675Z" fill="currentColor" fill-opacity="0.87"/>
</g>
<defs>
<clipPath id="clip0">
<rect width="16" height="16" fill="white"/>
</clipPath>
</defs>
</svg>
