<svg width="16" height="16" fill="none" xmlns="http://www.w3.org/2000/svg"><path fill-rule="evenodd" clip-rule="evenodd" d="M4.077 12h7.847c-.085-.489-.23-.82-.392-1.052-.173-.248-.4-.43-.698-.57C10.185 10.077 9.258 10 8 10s-2.185.076-2.834.379a1.682 1.682 0 00-.698.569c-.162.232-.307.563-.391 1.052zm.244-3.434C5.421 8.053 6.771 8 8 8c1.23 0 2.579.053 3.679.566a3.679 3.679 0 011.493 1.237c.396.566.641 1.255.754 2.06C14.101 13.11 13.055 14 12 14H4c-1.055 0-2.101-.889-1.926-2.137.113-.805.358-1.494.754-2.06a3.68 3.68 0 011.493-1.237z" fill="currentColor"/><path fill-rule="evenodd" clip-rule="evenodd" d="M8 4a1 1 0 100 2 1 1 0 000-2zM5 5a3 3 0 116 0 3 3 0 01-6 0z" fill="currentColor"/></svg>