<svg width="16" height="16" viewBox="0 0 16 16" fill="none" xmlns="http://www.w3.org/2000/svg">
<path fill-rule="evenodd" clip-rule="evenodd" d="M10 5C10 6.10457 9.10457 7 8 7C6.89543 7 6 6.10457 6 5C6 3.89543 6.89543 3 8 3C9.10457 3 10 3.89543 10 5ZM9.91121 7.31253C10.5763 6.76226 11 5.93062 11 5C11 3.34315 9.65685 2 8 2C6.34315 2 5 3.34315 5 5C5 5.93062 5.42374 6.76226 6.08879 7.31253C5.2186 7.60497 4.41873 8.09599 3.75736 8.75736C2.87067 9.64405 2.29016 10.7797 2.08389 12C2.02841 12.3283 2 12.6627 2 13L14 13C14 12.6627 13.9716 12.3283 13.9161 12C13.7098 10.7797 13.1293 9.64405 12.2426 8.75736C11.5813 8.09599 10.7814 7.60497 9.91121 7.31253ZM11.5355 9.46447C12.2339 10.1628 12.7044 11.0466 12.899 12L3.101 12C3.29564 11.0466 3.76608 10.1628 4.46447 9.46447C5.40215 8.52678 6.67392 8 8 8C9.32608 8 10.5979 8.52678 11.5355 9.46447Z" fill="currentColor" fill-opacity="0.87"/>
</svg>
