<svg width="504" height="307" viewBox="0 0 504 307" fill="none" xmlns="http://www.w3.org/2000/svg">
<mask id="mask0_13744_10698" style="mask-type:alpha" maskUnits="userSpaceOnUse" x="0" y="0" width="504" height="307">
<rect width="504" height="307" rx="30" fill="#5078E6"/>
</mask>
<g mask="url(#mask0_13744_10698)">
<g filter="url(#filter0_f_13744_10698)">
<ellipse cx="504" cy="108.936" rx="378" ry="267.387" fill="#6CCAFF"/>
</g>
<rect opacity="0.23" x="259" y="22" width="134.295" height="134.295" rx="67.1474" fill="white"/>
<path d="M340.816 96.8601C340.816 96.8026 340.854 96.7451 340.854 96.6685V78.4601C340.854 75.5468 338.497 73.1893 335.583 73.1893H328.051L330.753 70.9468C331.367 70.4293 331.443 69.5285 330.945 68.9151C330.428 68.3018 329.527 68.2251 328.913 68.7235L323.163 73.5151C322.838 73.7835 322.646 74.186 322.646 74.6268C322.646 75.0676 322.838 75.451 323.163 75.7385L328.913 80.5301C329.182 80.7601 329.508 80.856 329.833 80.856C330.236 80.856 330.658 80.6835 330.945 80.3385C331.463 79.7251 331.367 78.8243 330.753 78.3068L328.051 76.0643H335.583C336.906 76.0643 337.979 77.1376 337.979 78.4601V96.6685C337.979 96.7451 338.018 96.8026 338.018 96.8601C335.526 97.4926 333.667 99.7351 333.667 102.418C333.667 105.6 336.235 108.168 339.417 108.168C342.598 108.168 345.167 105.6 345.167 102.418C345.167 99.7351 343.308 97.4926 340.816 96.8601Z" fill="white"/>
<path d="M328.837 102.264L323.087 97.4722C322.473 96.9547 321.573 97.0505 321.055 97.6639C320.538 98.2772 320.633 99.178 321.247 99.6955L323.949 101.938H316.417C315.094 101.938 314.021 100.865 314.021 99.5422V81.3339C314.021 81.2572 313.983 81.1997 313.983 81.1422C316.474 80.5097 318.333 78.2672 318.333 75.5839C318.333 72.4022 315.765 69.8339 312.583 69.8339C309.402 69.8339 306.833 72.4022 306.833 75.5839C306.833 78.2672 308.693 80.5097 311.184 81.1422C311.184 81.1997 311.146 81.2572 311.146 81.3339V99.5422C311.146 102.456 313.503 104.813 316.417 104.813H323.949L321.247 107.056C320.633 107.573 320.557 108.474 321.055 109.087C321.343 109.432 321.745 109.605 322.167 109.605C322.493 109.605 322.818 109.49 323.087 109.279L328.837 104.487C329.163 104.219 329.354 103.816 329.354 103.376C329.354 102.935 329.163 102.551 328.837 102.264Z" fill="white"/>
<rect opacity="0.12" x="379" y="209" width="88.8936" height="88.8936" rx="44.4468" stroke="white" stroke-width="2"/>
<path d="M428.384 239.132C427.803 238.551 426.797 238.947 426.797 239.755V244.699C426.797 246.767 428.554 248.482 430.693 248.482C432.039 248.496 433.909 248.496 435.509 248.496C436.317 248.496 436.742 247.547 436.175 246.98C434.135 244.926 430.48 241.228 428.384 239.132Z" fill="white"/>
<path d="M426.91 263.285C423.581 263.526 423.581 268.342 426.91 268.583H434.787C435.736 268.583 436.671 268.229 437.365 267.591C439.703 265.551 438.456 261.471 435.382 261.089C434.277 254.445 424.672 256.966 426.938 263.299" fill="white"/>
<path d="M436.458 251.852V256.457C436.458 256.882 435.835 257.08 435.523 256.782C434.843 256.117 434.007 255.607 433.044 255.309C430.664 254.572 427.902 255.295 426.187 257.108C425.04 258.298 424.459 259.814 424.473 261.457C424.473 261.727 424.346 261.967 424.133 262.123C423 262.987 422.292 264.347 422.292 265.92C422.292 266.033 422.292 266.147 422.306 266.26C422.334 266.713 422.008 267.152 421.541 267.152H417.432C413.069 267.152 409.542 264.319 409.542 259.262V246.724C409.542 241.667 413.069 238.833 417.432 238.833H423.439C424.218 238.833 424.856 239.471 424.856 240.25V244.344C424.856 247.716 427.576 250.436 430.947 250.436H435.042C435.821 250.436 436.458 251.073 436.458 251.852Z" fill="white"/>
<circle cx="462.305" cy="223.695" r="15.6952" fill="white" stroke="#62ABF4" stroke-width="4"/>
<mask id="mask1_13744_10698" style="mask-type:alpha" maskUnits="userSpaceOnUse" x="454" y="215" width="17" height="17">
<rect x="454.276" y="215.668" width="16.0564" height="16.0564" fill="#D9D9D9"/>
</mask>
<g mask="url(#mask1_13744_10698)">
<path d="M461.418 228.596V224.582H457.404V222.809H461.418V218.795H463.191V222.809H467.205V224.582H463.191V228.596H461.418Z" fill="#60A8F1"/>
</g>
<rect x="168" y="5" width="62.7362" height="62.7362" rx="31.3681" fill="white"/>
<path d="M204.409 23.8552C203.879 23.3256 202.962 23.6873 202.962 24.4235V28.9315C202.962 30.8173 204.564 32.3802 206.514 32.3802C207.741 32.3931 209.446 32.3931 210.906 32.3931C211.642 32.3931 212.03 31.5277 211.513 31.011C209.653 29.1381 206.32 25.7669 204.409 23.8552Z" fill="#5993EE"/>
<path d="M210.479 34.163H206.746C203.685 34.163 201.192 31.6701 201.192 28.6088V24.8759C201.192 24.1655 200.611 23.5842 199.9 23.5842H194.424C190.445 23.5842 187.229 26.1676 187.229 30.7788V42.223C187.229 46.8342 190.445 49.4176 194.424 49.4176H204.576C208.554 49.4176 211.771 46.8342 211.771 42.223V35.4546C211.771 34.7442 211.189 34.163 210.479 34.163ZM198.854 43.928H193.687C193.158 43.928 192.719 43.4888 192.719 42.9592C192.719 42.4296 193.158 41.9905 193.687 41.9905H198.854C199.384 41.9905 199.823 42.4296 199.823 42.9592C199.823 43.4888 199.384 43.928 198.854 43.928ZM201.437 38.7613H193.687C193.158 38.7613 192.719 38.3221 192.719 37.7926C192.719 37.263 193.158 36.8238 193.687 36.8238H201.437C201.967 36.8238 202.406 37.263 202.406 37.7926C202.406 38.3221 201.967 38.7613 201.437 38.7613Z" fill="#5993EE"/>
<rect x="371" y="34" width="38" height="38" rx="19" fill="white"/>
<path d="M393.054 45.4226C392.733 45.1018 392.177 45.3209 392.177 45.7668V48.4973C392.177 49.6396 393.147 50.5863 394.329 50.5863C395.072 50.5941 396.105 50.5941 396.989 50.5941C397.435 50.5941 397.67 50.0699 397.357 49.757C396.23 48.6225 394.211 46.5805 393.054 45.4226Z" fill="#5993EE"/>
<path d="M396.73 51.666H394.469C392.615 51.666 391.105 50.156 391.105 48.3017V46.0407C391.105 45.6104 390.753 45.2583 390.322 45.2583H387.005C384.595 45.2583 382.647 46.8231 382.647 49.6161V56.548C382.647 59.3411 384.595 60.9058 387.005 60.9058H393.155C395.564 60.9058 397.512 59.3411 397.512 56.548V52.4483C397.512 52.018 397.16 51.666 396.73 51.666ZM389.689 57.5807H386.559C386.238 57.5807 385.972 57.3147 385.972 56.9939C385.972 56.6732 386.238 56.4072 386.559 56.4072H389.689C390.009 56.4072 390.275 56.6732 390.275 56.9939C390.275 57.3147 390.009 57.5807 389.689 57.5807ZM391.253 54.4512H386.559C386.238 54.4512 385.972 54.1852 385.972 53.8644C385.972 53.5437 386.238 53.2777 386.559 53.2777H391.253C391.574 53.2777 391.84 53.5437 391.84 53.8644C391.84 54.1852 391.574 54.4512 391.253 54.4512Z" fill="#5993EE"/>
<g filter="url(#filter1_d_13744_10698)">
<rect x="309" y="129" width="174" height="57" rx="20" fill="white"/>
</g>
<path d="M369.296 148.593C368.906 148.593 368.531 148.542 368.171 148.44C367.811 148.332 367.529 148.197 367.325 148.035L367.685 147.351C367.895 147.501 368.15 147.621 368.45 147.711C368.75 147.801 369.053 147.846 369.359 147.846C370.115 147.846 370.493 147.63 370.493 147.198C370.493 147.054 370.442 146.94 370.34 146.856C370.238 146.772 370.109 146.712 369.953 146.676C369.803 146.634 369.587 146.589 369.305 146.541C368.921 146.481 368.606 146.412 368.36 146.334C368.12 146.256 367.913 146.124 367.739 145.938C367.565 145.752 367.478 145.491 367.478 145.155C367.478 144.723 367.658 144.378 368.018 144.12C368.378 143.856 368.861 143.724 369.467 143.724C369.785 143.724 370.103 143.763 370.421 143.841C370.739 143.919 371 144.024 371.204 144.156L370.835 144.84C370.445 144.588 369.986 144.462 369.458 144.462C369.092 144.462 368.813 144.522 368.621 144.642C368.429 144.762 368.333 144.921 368.333 145.119C368.333 145.275 368.387 145.398 368.495 145.488C368.603 145.578 368.735 145.644 368.891 145.686C369.053 145.728 369.278 145.776 369.566 145.83C369.95 145.896 370.259 145.968 370.493 146.046C370.733 146.118 370.937 146.244 371.105 146.424C371.273 146.604 371.357 146.856 371.357 147.18C371.357 147.612 371.171 147.957 370.799 148.215C370.433 148.467 369.932 148.593 369.296 148.593ZM376.748 146.181C376.748 146.247 376.742 146.334 376.73 146.442H372.86C372.914 146.862 373.097 147.201 373.409 147.459C373.727 147.711 374.12 147.837 374.588 147.837C375.158 147.837 375.617 147.645 375.965 147.261L376.442 147.819C376.226 148.071 375.956 148.263 375.632 148.395C375.314 148.527 374.957 148.593 374.561 148.593C374.057 148.593 373.61 148.491 373.22 148.287C372.83 148.077 372.527 147.786 372.311 147.414C372.101 147.042 371.996 146.622 371.996 146.154C371.996 145.692 372.098 145.275 372.302 144.903C372.512 144.531 372.797 144.243 373.157 144.039C373.523 143.829 373.934 143.724 374.39 143.724C374.846 143.724 375.251 143.829 375.605 144.039C375.965 144.243 376.244 144.531 376.442 144.903C376.646 145.275 376.748 145.701 376.748 146.181ZM374.39 144.453C373.976 144.453 373.628 144.579 373.346 144.831C373.07 145.083 372.908 145.413 372.86 145.821H375.92C375.872 145.419 375.707 145.092 375.425 144.84C375.149 144.582 374.804 144.453 374.39 144.453ZM380.495 143.724C381.101 143.724 381.581 143.901 381.935 144.255C382.295 144.603 382.475 145.116 382.475 145.794V148.539H381.611V145.893C381.611 145.431 381.5 145.083 381.278 144.849C381.056 144.615 380.738 144.498 380.324 144.498C379.856 144.498 379.487 144.636 379.217 144.912C378.947 145.182 378.812 145.572 378.812 146.082V148.539H377.948V143.769H378.776V144.489C378.95 144.243 379.184 144.054 379.478 143.922C379.778 143.79 380.117 143.724 380.495 143.724ZM388.6 141.861V148.539H387.772V147.783C387.58 148.047 387.337 148.248 387.043 148.386C386.749 148.524 386.425 148.593 386.071 148.593C385.609 148.593 385.195 148.491 384.829 148.287C384.463 148.083 384.175 147.798 383.965 147.432C383.761 147.06 383.659 146.634 383.659 146.154C383.659 145.674 383.761 145.251 383.965 144.885C384.175 144.519 384.463 144.234 384.829 144.03C385.195 143.826 385.609 143.724 386.071 143.724C386.413 143.724 386.728 143.79 387.016 143.922C387.304 144.048 387.544 144.237 387.736 144.489V141.861H388.6ZM386.143 147.837C386.443 147.837 386.716 147.768 386.962 147.63C387.208 147.486 387.4 147.288 387.538 147.036C387.676 146.778 387.745 146.484 387.745 146.154C387.745 145.824 387.676 145.533 387.538 145.281C387.4 145.023 387.208 144.825 386.962 144.687C386.716 144.549 386.443 144.48 386.143 144.48C385.837 144.48 385.561 144.549 385.315 144.687C385.075 144.825 384.883 145.023 384.739 145.281C384.601 145.533 384.532 145.824 384.532 146.154C384.532 146.484 384.601 146.778 384.739 147.036C384.883 147.288 385.075 147.486 385.315 147.63C385.561 147.768 385.837 147.837 386.143 147.837Z" fill="#939393"/>
<path d="M372.821 169.719C371.869 169.719 371.019 169.481 370.271 169.005C369.523 168.517 368.934 167.815 368.503 166.897C368.073 165.967 367.857 164.868 367.857 163.599C367.857 162.329 368.073 161.236 368.503 160.318C368.934 159.388 369.523 158.686 370.271 158.21C371.019 157.722 371.869 157.479 372.821 157.479C373.773 157.479 374.623 157.722 375.371 158.21C376.131 158.686 376.726 159.388 377.156 160.318C377.587 161.236 377.802 162.329 377.802 163.599C377.802 164.868 377.587 165.967 377.156 166.897C376.726 167.815 376.131 168.517 375.371 169.005C374.623 169.481 373.773 169.719 372.821 169.719ZM372.821 167.798C373.671 167.798 374.34 167.446 374.827 166.744C375.326 166.041 375.575 164.993 375.575 163.599C375.575 162.205 375.326 161.156 374.827 160.454C374.34 159.751 373.671 159.4 372.821 159.4C371.983 159.4 371.314 159.751 370.815 160.454C370.328 161.156 370.084 162.205 370.084 163.599C370.084 164.993 370.328 166.041 370.815 166.744C371.314 167.446 371.983 167.798 372.821 167.798ZM380.423 169.668C380.037 169.668 379.709 169.537 379.437 169.277C379.165 169.005 379.029 168.665 379.029 168.257C379.029 167.837 379.159 167.497 379.42 167.237C379.692 166.976 380.026 166.846 380.423 166.846C380.819 166.846 381.148 166.976 381.409 167.237C381.681 167.497 381.817 167.837 381.817 168.257C381.817 168.665 381.681 169.005 381.409 169.277C381.137 169.537 380.808 169.668 380.423 169.668ZM393.772 166.846H391.664V169.549H389.522V166.846H382.994V165.316L388.859 157.649H391.222L385.697 164.976H389.59V162.579H391.664V164.976H393.772V166.846ZM398.375 162.256C400.053 162.256 401.294 162.584 402.098 163.242C402.903 163.888 403.305 164.772 403.305 165.894C403.305 166.608 403.13 167.254 402.778 167.832C402.427 168.41 401.9 168.869 401.197 169.209C400.495 169.549 399.628 169.719 398.596 169.719C397.746 169.719 396.925 169.6 396.131 169.362C395.338 169.112 394.669 168.772 394.125 168.342L395.06 166.625C395.502 166.987 396.029 167.276 396.641 167.492C397.265 167.696 397.905 167.798 398.562 167.798C399.344 167.798 399.956 167.639 400.398 167.322C400.852 166.993 401.078 166.545 401.078 165.979C401.078 165.367 400.835 164.908 400.347 164.602C399.871 164.284 399.05 164.126 397.882 164.126H395.009L395.621 157.649H402.608V159.502H397.491L397.236 162.256H398.375ZM409.563 162.562C410.662 162.698 411.501 163.072 412.079 163.684C412.657 164.296 412.946 165.061 412.946 165.979C412.946 166.67 412.77 167.299 412.419 167.866C412.068 168.432 411.535 168.886 410.821 169.226C410.118 169.554 409.257 169.719 408.237 169.719C407.387 169.719 406.565 169.6 405.772 169.362C404.99 169.112 404.321 168.772 403.766 168.342L404.718 166.625C405.149 166.987 405.67 167.276 406.282 167.492C406.905 167.696 407.546 167.798 408.203 167.798C408.985 167.798 409.597 167.639 410.039 167.322C410.492 166.993 410.719 166.551 410.719 165.996C410.719 165.44 410.504 165.01 410.073 164.704C409.654 164.386 409.008 164.228 408.135 164.228H407.047V162.715L409.75 159.502H404.344V157.649H412.453V159.128L409.563 162.562ZM425 166.846H422.892V169.549H420.75V166.846H414.222V165.316L420.087 157.649H422.45L416.925 164.976H420.818V162.579H422.892V164.976H425V166.846ZM439.808 165.061C439.808 165.208 439.797 165.418 439.774 165.69H432.651C432.776 166.358 433.099 166.891 433.62 167.288C434.153 167.673 434.81 167.866 435.592 167.866C436.589 167.866 437.411 167.537 438.057 166.88L439.196 168.189C438.788 168.676 438.272 169.044 437.649 169.294C437.026 169.543 436.323 169.668 435.541 169.668C434.544 169.668 433.665 169.469 432.906 169.073C432.147 168.676 431.557 168.126 431.138 167.424C430.73 166.71 430.526 165.905 430.526 165.01C430.526 164.126 430.724 163.332 431.121 162.63C431.529 161.916 432.09 161.36 432.804 160.964C433.518 160.567 434.323 160.369 435.218 160.369C436.102 160.369 436.89 160.567 437.581 160.964C438.284 161.349 438.828 161.899 439.213 162.613C439.61 163.315 439.808 164.131 439.808 165.061ZM435.218 162.069C434.538 162.069 433.96 162.273 433.484 162.681C433.019 163.077 432.736 163.61 432.634 164.279H437.785C437.694 163.621 437.417 163.089 436.952 162.681C436.487 162.273 435.909 162.069 435.218 162.069ZM447.306 169.056C447.057 169.26 446.751 169.413 446.388 169.515C446.037 169.617 445.663 169.668 445.266 169.668C444.269 169.668 443.498 169.407 442.954 168.886C442.41 168.364 442.138 167.605 442.138 166.608V162.239H440.642V160.539H442.138V158.465H444.263V160.539H446.694V162.239H444.263V166.557C444.263 166.999 444.371 167.339 444.586 167.577C444.801 167.803 445.113 167.917 445.521 167.917C445.997 167.917 446.394 167.792 446.711 167.543L447.306 169.056ZM454.205 160.369C455.35 160.369 456.268 160.703 456.959 161.372C457.65 162.04 457.996 163.032 457.996 164.347V169.549H455.871V164.619C455.871 163.825 455.684 163.23 455.31 162.834C454.936 162.426 454.403 162.222 453.712 162.222C452.93 162.222 452.312 162.46 451.859 162.936C451.406 163.4 451.179 164.075 451.179 164.959V169.549H449.054V156.935H451.179V161.525C451.53 161.151 451.961 160.867 452.471 160.675C452.992 160.471 453.57 160.369 454.205 160.369Z" fill="#2F323D"/>
<circle cx="337.621" cy="157.621" r="16.4787" fill="#D9D9D9"/>
<circle cx="337.621" cy="157.621" r="16.4787" fill="url(#paint0_linear_13744_10698)"/>
<circle cx="337.621" cy="157.621" r="16.4787" stroke="url(#paint1_linear_13744_10698)" stroke-width="4"/>
<path d="M333.72 155.813L337.842 153.98C338.024 153.903 338.231 153.903 338.404 153.98L342.527 155.813C342.89 155.977 343.227 155.536 342.976 155.225L338.655 149.944C338.361 149.581 337.877 149.581 337.583 149.944L333.262 155.225C333.02 155.536 333.357 155.977 333.72 155.813Z" fill="white"/>
<path d="M333.719 160.827L337.85 162.659C338.032 162.737 338.239 162.737 338.412 162.659L342.543 160.827C342.906 160.662 343.244 161.103 342.993 161.414L338.671 166.695C338.378 167.058 337.894 167.058 337.6 166.695L333.278 161.414C333.019 161.103 333.347 160.662 333.719 160.827Z" fill="white"/>
<path d="M337.937 156.151L334.368 157.931C334.048 158.087 334.048 158.545 334.368 158.7L337.937 160.481C338.058 160.541 338.205 160.541 338.326 160.481L341.896 158.7C342.215 158.545 342.215 158.087 341.896 157.931L338.326 156.151C338.197 156.09 338.058 156.09 337.937 156.151Z" fill="white"/>
<circle opacity="0.2" cx="149.5" cy="88.8025" r="8.5" fill="#FABE4C"/>
<circle cx="149.5" cy="88.8025" r="4.25" fill="#FABE4C"/>
<circle opacity="0.2" cx="332.5" cy="247.5" r="8.5" fill="#FABE4C"/>
<circle cx="332.5" cy="247.5" r="4.25" fill="#FABE4C"/>
<circle opacity="0.2" cx="457.803" cy="126.803" r="9.80254" fill="#FABE4C"/>
<circle cx="457.803" cy="126.802" r="4.90127" fill="#FABE4C"/>
<circle opacity="0.2" cx="49" cy="47.8025" r="16" fill="#FABE4C"/>
<circle cx="49" cy="47.8005" r="8" fill="#FABE4C"/>
</g>
<defs>
<filter id="filter0_f_13744_10698" x="-358" y="-642.451" width="1724" height="1502.77" filterUnits="userSpaceOnUse" color-interpolation-filters="sRGB">
<feFlood flood-opacity="0" result="BackgroundImageFix"/>
<feBlend mode="normal" in="SourceGraphic" in2="BackgroundImageFix" result="shape"/>
<feGaussianBlur stdDeviation="242" result="effect1_foregroundBlur_13744_10698"/>
</filter>
<filter id="filter1_d_13744_10698" x="245" y="69" width="302" height="185" filterUnits="userSpaceOnUse" color-interpolation-filters="sRGB">
<feFlood flood-opacity="0" result="BackgroundImageFix"/>
<feColorMatrix in="SourceAlpha" type="matrix" values="0 0 0 0 0 0 0 0 0 0 0 0 0 0 0 0 0 0 127 0" result="hardAlpha"/>
<feOffset dy="4"/>
<feGaussianBlur stdDeviation="32"/>
<feComposite in2="hardAlpha" operator="out"/>
<feColorMatrix type="matrix" values="0 0 0 0 0 0 0 0 0 0 0 0 0 0 0 0 0 0 0.08 0"/>
<feBlend mode="normal" in2="BackgroundImageFix" result="effect1_dropShadow_13744_10698"/>
<feBlend mode="normal" in="SourceGraphic" in2="effect1_dropShadow_13744_10698" result="shape"/>
</filter>
<linearGradient id="paint0_linear_13744_10698" x1="347.564" y1="168.809" x2="347.564" y2="149.907" gradientUnits="userSpaceOnUse">
<stop stop-color="#FABE4C"/>
<stop offset="1" stop-color="#FA9751"/>
</linearGradient>
<linearGradient id="paint1_linear_13744_10698" x1="352.365" y1="143.311" x2="326.78" y2="169.33" gradientUnits="userSpaceOnUse">
<stop stop-color="#FABE4C"/>
<stop offset="1" stop-color="#FA9751"/>
</linearGradient>
</defs>
</svg>
