<svg width="306" height="191" viewBox="0 0 306 191" fill="none" xmlns="http://www.w3.org/2000/svg">
<g filter="url(#filter0_d_13744_10661)">
<circle cx="0.5" cy="91.5" r="45.5" fill="white"/>
</g>
<path d="M12 96.1447C12 98.3277 11.1771 100.187 9.53131 101.723C7.91294 103.233 5.55396 104.149 2.45438 104.472V109H-0.919499V104.513C-2.94931 104.378 -4.86941 104.014 -6.67979 103.421C-8.49016 102.828 -9.93023 102.074 -11 101.157L-9.14848 97.0745C-8.13357 97.883 -6.89923 98.5702 -5.44544 99.1362C-3.99165 99.6752 -2.48301 100.012 -0.919499 100.147V92.0617C-2.86702 91.6035 -4.49911 91.105 -5.81574 90.566C-7.10495 90 -8.18843 89.1915 -9.06619 88.1404C-9.94395 87.0624 -10.3828 85.6475 -10.3828 83.8957C-10.3828 81.7128 -9.57364 79.8532 -7.95528 78.317C-6.33691 76.7809 -3.99165 75.8645 -0.919499 75.5681V71H2.45438V75.4872C3.99046 75.5681 5.48539 75.8241 6.93918 76.2553C8.42039 76.6865 9.7096 77.2525 10.8068 77.9532L9.11986 82.0362C7.03518 80.8504 4.81336 80.1227 2.45438 79.8532V88.0191C4.42934 88.4773 6.06142 88.9759 7.35063 89.5149C8.66726 90.0539 9.76446 90.8624 10.6422 91.9404C11.5474 92.9915 12 94.3929 12 96.1447ZM-5.07513 83.6532C-5.07513 84.5426 -4.71854 85.2567 -4.00537 85.7957C-3.29219 86.3348 -2.26357 86.7929 -0.919499 87.1702V79.9745C-2.31843 80.1901 -3.36076 80.6213 -4.04651 81.2681C-4.73226 81.9149 -5.07513 82.7099 -5.07513 83.6532ZM2.45438 100.066C3.90817 99.8504 4.97794 99.4326 5.66368 98.8128C6.37686 98.1929 6.73345 97.4248 6.73345 96.5085C6.73345 95.5922 6.36315 94.8645 5.62254 94.3255C4.88193 93.7596 3.82588 93.2879 2.45438 92.9106V100.066Z" fill="#FAAE4E"/>
<g filter="url(#filter1_d_13744_10661)">
<circle cx="104.5" cy="91.5" r="45.5" fill="white"/>
</g>
<path d="M101.734 102.087H118.223V107H91V102.087H95.7961V93.0732H91V89.3775H95.7961V87.3042C95.7961 84.8103 96.3442 82.6469 97.4405 80.8141C98.5672 78.9512 100.196 77.5239 102.328 76.5324C104.459 75.5108 107.017 75 110.002 75C113.625 75 116.625 75.7061 119 77.1183L117.127 81.8958C115.27 80.7239 112.788 80.138 109.682 80.138C107.094 80.138 105.114 80.754 103.744 81.9859C102.404 83.1878 101.734 84.9455 101.734 87.2592V89.3775H113.29V93.0732H101.734V102.087Z" fill="#FAAE4E"/>
<g filter="url(#filter2_d_13744_10661)">
<circle cx="208.5" cy="91.5" r="45.5" fill="white"/>
</g>
<path d="M213.165 93.8457H221.027V97.2457H211.602V100.549H221.027V103.949H211.602V109H205.445V103.949H196.02V100.549H205.445V97.2457H196.02V93.8457H203.835L191 75H197.536L208.666 91.32L219.796 75H226L213.165 93.8457Z" fill="#FAAE4E"/>
<g filter="url(#filter3_d_13744_10661)">
<circle cx="312.5" cy="91.5" r="45.5" fill="white"/>
</g>
<path d="M310.776 100.933C314.126 100.933 316.949 99.7037 319.242 97.2444L323 100.8C321.551 102.489 319.74 103.778 317.567 104.667C315.424 105.556 313.055 106 310.459 106C307.834 106 305.389 105.526 303.125 104.578C300.892 103.63 298.99 102.296 297.421 100.578C295.881 98.8593 294.795 96.8741 294.161 94.6222H289V91.5111H293.573C293.542 91.1852 293.527 90.6815 293.527 90C293.527 89.3185 293.542 88.8148 293.573 88.4889H289V85.3778H294.161C294.795 83.1259 295.881 81.1407 297.421 79.4222C298.99 77.7037 300.892 76.3704 303.125 75.4222C305.389 74.4741 307.834 74 310.459 74C313.055 74 315.424 74.4444 317.567 75.3333C319.74 76.2222 321.551 77.5111 323 79.2L319.242 82.7111C316.949 80.2815 314.126 79.0667 310.776 79.0667C308.362 79.0667 306.234 79.6296 304.393 80.7556C302.582 81.8815 301.239 83.4222 300.364 85.3778H313.357V88.4889H299.503C299.443 89.1407 299.413 89.6444 299.413 90C299.413 90.3556 299.443 90.8593 299.503 91.5111H313.357V94.6222H300.364C301.239 96.5778 302.582 98.1185 304.393 99.2444C306.234 100.37 308.362 100.933 310.776 100.933Z" fill="#FAAE4E"/>
<defs>
<filter id="filter0_d_13744_10661" x="-95" y="0" width="191" height="191" filterUnits="userSpaceOnUse" color-interpolation-filters="sRGB">
<feFlood flood-opacity="0" result="BackgroundImageFix"/>
<feColorMatrix in="SourceAlpha" type="matrix" values="0 0 0 0 0 0 0 0 0 0 0 0 0 0 0 0 0 0 127 0" result="hardAlpha"/>
<feOffset dy="4"/>
<feGaussianBlur stdDeviation="25"/>
<feComposite in2="hardAlpha" operator="out"/>
<feColorMatrix type="matrix" values="0 0 0 0 0.225 0 0 0 0 0.225 0 0 0 0 0.225 0 0 0 0.16 0"/>
<feBlend mode="normal" in2="BackgroundImageFix" result="effect1_dropShadow_13744_10661"/>
<feBlend mode="normal" in="SourceGraphic" in2="effect1_dropShadow_13744_10661" result="shape"/>
</filter>
<filter id="filter1_d_13744_10661" x="9" y="0" width="191" height="191" filterUnits="userSpaceOnUse" color-interpolation-filters="sRGB">
<feFlood flood-opacity="0" result="BackgroundImageFix"/>
<feColorMatrix in="SourceAlpha" type="matrix" values="0 0 0 0 0 0 0 0 0 0 0 0 0 0 0 0 0 0 127 0" result="hardAlpha"/>
<feOffset dy="4"/>
<feGaussianBlur stdDeviation="25"/>
<feComposite in2="hardAlpha" operator="out"/>
<feColorMatrix type="matrix" values="0 0 0 0 0.225 0 0 0 0 0.225 0 0 0 0 0.225 0 0 0 0.16 0"/>
<feBlend mode="normal" in2="BackgroundImageFix" result="effect1_dropShadow_13744_10661"/>
<feBlend mode="normal" in="SourceGraphic" in2="effect1_dropShadow_13744_10661" result="shape"/>
</filter>
<filter id="filter2_d_13744_10661" x="113" y="0" width="191" height="191" filterUnits="userSpaceOnUse" color-interpolation-filters="sRGB">
<feFlood flood-opacity="0" result="BackgroundImageFix"/>
<feColorMatrix in="SourceAlpha" type="matrix" values="0 0 0 0 0 0 0 0 0 0 0 0 0 0 0 0 0 0 127 0" result="hardAlpha"/>
<feOffset dy="4"/>
<feGaussianBlur stdDeviation="25"/>
<feComposite in2="hardAlpha" operator="out"/>
<feColorMatrix type="matrix" values="0 0 0 0 0.225 0 0 0 0 0.225 0 0 0 0 0.225 0 0 0 0.16 0"/>
<feBlend mode="normal" in2="BackgroundImageFix" result="effect1_dropShadow_13744_10661"/>
<feBlend mode="normal" in="SourceGraphic" in2="effect1_dropShadow_13744_10661" result="shape"/>
</filter>
<filter id="filter3_d_13744_10661" x="217" y="0" width="191" height="191" filterUnits="userSpaceOnUse" color-interpolation-filters="sRGB">
<feFlood flood-opacity="0" result="BackgroundImageFix"/>
<feColorMatrix in="SourceAlpha" type="matrix" values="0 0 0 0 0 0 0 0 0 0 0 0 0 0 0 0 0 0 127 0" result="hardAlpha"/>
<feOffset dy="4"/>
<feGaussianBlur stdDeviation="25"/>
<feComposite in2="hardAlpha" operator="out"/>
<feColorMatrix type="matrix" values="0 0 0 0 0.225 0 0 0 0 0.225 0 0 0 0 0.225 0 0 0 0.16 0"/>
<feBlend mode="normal" in2="BackgroundImageFix" result="effect1_dropShadow_13744_10661"/>
<feBlend mode="normal" in="SourceGraphic" in2="effect1_dropShadow_13744_10661" result="shape"/>
</filter>
</defs>
</svg>
