<svg width="352" height="307" viewBox="0 0 352 307" fill="none" xmlns="http://www.w3.org/2000/svg">
<circle cx="229.821" cy="98.8099" r="52.5833" fill="#C4C4C4"/>
<circle cx="229.821" cy="98.8099" r="52.5833" fill="url(#paint0_linear_13744_10544)"/>
<circle cx="229.821" cy="98.8099" r="52.5833" stroke="url(#paint1_linear_13744_10544)" stroke-width="10"/>
<path fill-rule="evenodd" clip-rule="evenodd" d="M229.82 62.2168L251.651 99.1436L251.652 99.1441L251.651 99.1449L251.652 99.1465L243.597 112.771L243.596 112.769L230.677 107.826L238.277 121.767L229.819 136.074L207.986 99.1445L207.986 99.1442L207.986 99.1441L217.329 83.3418L232.707 90.422L223.868 72.2834L229.82 62.2168Z" fill="white"/>
<circle cx="298.301" cy="97.9969" r="213.317" stroke="#D2DBE9" stroke-width="3" stroke-dasharray="5 5"/>
<circle cx="226.56" cy="25.8485" r="213.317" transform="rotate(90 226.56 25.8485)" stroke="#D2DBE9" stroke-width="3" stroke-dasharray="5 5"/>
<circle cx="233.896" cy="168.514" r="213.317" transform="rotate(90 233.896 168.514)" stroke="#D2DBE9" stroke-width="3" stroke-dasharray="5 5"/>
<g filter="url(#filter0_d_13744_10544)">
<circle cx="91.2287" cy="97.9953" r="40.3547" fill="white"/>
</g>
<path d="M94.4655 85.1093V91.2655H92.0354V85.1093C92.0354 84.6719 91.6466 84.4613 91.3874 84.4613C91.3064 84.4613 91.2254 84.4775 91.1444 84.5099L78.2975 89.3538C77.4389 89.6778 76.8881 90.4879 76.8881 91.4113V92.4967C75.4138 93.5983 74.458 95.3642 74.458 97.3568V91.4113C74.458 89.4834 75.6406 87.7662 77.4389 87.0858L90.302 82.2257C90.6584 82.0961 91.031 82.0312 91.3874 82.0312C93.0075 82.0312 94.4655 83.3435 94.4655 85.1093Z" fill="#292D32"/>
<path d="M94.4655 85.1093V91.2655H92.0354V85.1093C92.0354 84.6719 91.6466 84.4613 91.3874 84.4613C91.3064 84.4613 91.2254 84.4775 91.1444 84.5099L78.2975 89.3538C77.4389 89.6778 76.8881 90.4879 76.8881 91.4113V92.4967C75.4138 93.5983 74.458 95.3642 74.458 97.3568V91.4113C74.458 89.4834 75.6406 87.7662 77.4389 87.0858L90.302 82.2257C90.6584 82.0961 91.031 82.0312 91.3874 82.0312C93.0075 82.0312 94.4655 83.3435 94.4655 85.1093Z" fill="url(#paint2_linear_13744_10544)"/>
<path d="M105.239 102.203V103.823C105.239 104.26 104.898 104.616 104.445 104.633H102.08C101.221 104.633 100.443 104.001 100.379 103.158C100.33 102.656 100.524 102.186 100.848 101.862C101.14 101.555 101.545 101.393 101.982 101.393H104.429C104.898 101.409 105.239 101.765 105.239 102.203Z" fill="#292D32"/>
<path d="M105.239 102.203V103.823C105.239 104.26 104.898 104.616 104.445 104.633H102.08C101.221 104.633 100.443 104.001 100.379 103.158C100.33 102.656 100.524 102.186 100.848 101.862C101.14 101.555 101.545 101.393 101.982 101.393H104.429C104.898 101.409 105.239 101.765 105.239 102.203Z" fill="url(#paint3_linear_13744_10544)"/>
<path d="M101.966 99.6898H103.619C104.51 99.6898 105.239 98.9608 105.239 98.0698V97.357C105.239 94.0035 102.501 91.2656 99.1474 91.2656H80.5494C79.1723 91.2656 77.9087 91.7192 76.8881 92.4969C75.4138 93.5985 74.458 95.3643 74.458 97.357V108.26C74.458 111.613 77.1959 114.351 80.5494 114.351H99.1474C102.501 114.351 105.239 111.613 105.239 108.26V107.952C105.239 107.061 104.51 106.332 103.619 106.332H102.209C100.654 106.332 99.1636 105.376 98.7586 103.87C98.4184 102.638 98.8234 101.456 99.6334 100.662C100.233 100.046 101.059 99.6898 101.966 99.6898ZM93.0885 99.3658H81.7482C81.084 99.3658 80.5332 98.815 80.5332 98.1508C80.5332 97.4866 81.084 96.9358 81.7482 96.9358H93.0885C93.7527 96.9358 94.3035 97.4866 94.3035 98.1508C94.3035 98.815 93.7527 99.3658 93.0885 99.3658Z" fill="#292D32"/>
<path d="M101.966 99.6898H103.619C104.51 99.6898 105.239 98.9608 105.239 98.0698V97.357C105.239 94.0035 102.501 91.2656 99.1474 91.2656H80.5494C79.1723 91.2656 77.9087 91.7192 76.8881 92.4969C75.4138 93.5985 74.458 95.3643 74.458 97.357V108.26C74.458 111.613 77.1959 114.351 80.5494 114.351H99.1474C102.501 114.351 105.239 111.613 105.239 108.26V107.952C105.239 107.061 104.51 106.332 103.619 106.332H102.209C100.654 106.332 99.1636 105.376 98.7586 103.87C98.4184 102.638 98.8234 101.456 99.6334 100.662C100.233 100.046 101.059 99.6898 101.966 99.6898ZM93.0885 99.3658H81.7482C81.084 99.3658 80.5332 98.815 80.5332 98.1508C80.5332 97.4866 81.084 96.9358 81.7482 96.9358H93.0885C93.7527 96.9358 94.3035 97.4866 94.3035 98.1508C94.3035 98.815 93.7527 99.3658 93.0885 99.3658Z" fill="url(#paint4_linear_13744_10544)"/>
<rect x="79.0479" y="96.8555" width="15.5524" height="3.45608" rx="1.72804" fill="#C4C4C4"/>
<rect x="79.0479" y="96.8555" width="15.5524" height="3.45608" rx="1.72804" fill="url(#paint5_linear_13744_10544)"/>
<rect x="100.649" y="101.176" width="6.04815" height="3.45608" rx="1.72804" fill="#C4C4C4"/>
<rect x="100.649" y="101.176" width="6.04815" height="3.45608" rx="1.72804" fill="url(#paint6_linear_13744_10544)"/>
<g filter="url(#filter1_d_13744_10544)">
<circle cx="130.36" cy="198.271" r="40.3547" fill="white"/>
</g>
<path d="M143.462 192.493L131.924 199.177C131.459 199.446 130.875 199.446 130.395 199.177L118.856 192.493C118.032 192.014 117.822 190.89 118.452 190.185C118.886 189.691 119.381 189.286 119.905 189.002L128.027 184.506C129.766 183.532 132.583 183.532 134.321 184.506L142.443 189.002C142.968 189.286 143.462 189.706 143.897 190.185C144.496 190.89 144.287 192.014 143.462 192.493Z" fill="#292D32"/>
<path d="M143.462 192.493L131.924 199.177C131.459 199.446 130.875 199.446 130.395 199.177L118.856 192.493C118.032 192.014 117.822 190.89 118.452 190.185C118.886 189.691 119.381 189.286 119.905 189.002L128.027 184.506C129.766 183.532 132.583 183.532 134.321 184.506L142.443 189.002C142.968 189.286 143.462 189.706 143.897 190.185C144.496 190.89 144.287 192.014 143.462 192.493Z" fill="url(#paint7_linear_13744_10544)"/>
<path d="M130.306 201.962V212.182C130.306 213.321 129.152 214.071 128.133 213.576C125.046 212.063 119.846 209.23 119.846 209.23C118.018 208.196 116.52 205.589 116.52 203.446V195.714C116.52 194.53 117.763 193.78 118.782 194.365L129.557 200.614C130.006 200.898 130.306 201.408 130.306 201.962Z" fill="#292D32"/>
<path d="M130.306 201.962V212.182C130.306 213.321 129.152 214.071 128.133 213.576C125.046 212.063 119.846 209.23 119.846 209.23C118.018 208.196 116.52 205.589 116.52 203.446V195.714C116.52 194.53 117.763 193.78 118.782 194.365L129.557 200.614C130.006 200.898 130.306 201.408 130.306 201.962Z" fill="url(#paint8_linear_13744_10544)"/>
<path d="M132.015 201.962V212.182C132.015 213.321 133.169 214.071 134.188 213.576C137.275 212.063 142.474 209.23 142.474 209.23C144.303 208.196 145.801 205.589 145.801 203.446V195.714C145.801 194.53 144.557 193.78 143.538 194.365L132.764 200.614C132.314 200.898 132.015 201.408 132.015 201.962Z" fill="#292D32"/>
<path d="M132.015 201.962V212.182C132.015 213.321 133.169 214.071 134.188 213.576C137.275 212.063 142.474 209.23 142.474 209.23C144.303 208.196 145.801 205.589 145.801 203.446V195.714C145.801 194.53 144.557 193.78 143.538 194.365L132.764 200.614C132.314 200.898 132.015 201.408 132.015 201.962Z" fill="url(#paint9_linear_13744_10544)"/>
<path d="M132.015 201.962V212.182C132.015 213.321 133.169 214.071 134.188 213.576C137.275 212.063 142.474 209.23 142.474 209.23C144.303 208.196 145.801 205.589 145.801 203.446V195.714C145.801 194.53 144.557 193.78 143.538 194.365L132.764 200.614C132.314 200.898 132.015 201.408 132.015 201.962Z" fill="url(#paint10_linear_13744_10544)"/>
<g filter="url(#filter2_d_13744_10544)">
<circle cx="131.99" cy="-0.649246" r="40.3547" fill="white"/>
</g>
<path d="M149.467 4.34985C149.467 11.2464 143.889 16.8242 136.992 16.8242L138.864 13.7056" stroke="url(#paint11_linear_13744_10544)" stroke-width="1.5" stroke-linecap="round" stroke-linejoin="round"/>
<path d="M131.647 5.59628V5.7923C131.647 6.29127 131.255 6.68332 130.756 6.68332H114.717C114.218 6.68332 113.826 6.29127 113.826 5.7923V5.59628C113.826 2.45988 114.61 1.67578 117.782 1.67578H127.69C130.863 1.67578 131.647 2.45988 131.647 5.59628Z" fill="#292D32"/>
<path d="M131.647 5.59628V5.7923C131.647 6.29127 131.255 6.68332 130.756 6.68332H114.717C114.218 6.68332 113.826 6.29127 113.826 5.7923V5.59628C113.826 2.45988 114.61 1.67578 117.782 1.67578H127.69C130.863 1.67578 131.647 2.45988 131.647 5.59628Z" fill="url(#paint12_linear_13744_10544)"/>
<path d="M114.717 8.46484C114.218 8.46484 113.826 8.85689 113.826 9.35587V11.1379V12.9021C113.826 16.0385 114.61 16.8226 117.782 16.8226H127.69C130.863 16.8226 131.647 16.0385 131.647 12.9021V11.1379V9.35587C131.647 8.85689 131.255 8.46484 130.756 8.46484H114.717V8.46484Z" fill="#292D32"/>
<path d="M114.717 8.46484C114.218 8.46484 113.826 8.85689 113.826 9.35587V11.1379V12.9021C113.826 16.0385 114.61 16.8226 117.782 16.8226H127.69C130.863 16.8226 131.647 16.0385 131.647 12.9021V11.1379V9.35587C131.647 8.85689 131.255 8.46484 130.756 8.46484H114.717V8.46484Z" fill="url(#paint13_linear_13744_10544)"/>
<path d="M113.616 5.05182C113.616 2.40524 115.762 0.259766 118.408 0.259766H127.274C129.92 0.259766 132.066 2.40524 132.066 5.05182V5.05182C132.066 6.11045 131.207 6.96864 130.149 6.96864H115.533C114.474 6.96864 113.616 6.11045 113.616 5.05182V5.05182Z" fill="#C4C4C4"/>
<path d="M113.616 5.05182C113.616 2.40524 115.762 0.259766 118.408 0.259766H127.274C129.92 0.259766 132.066 2.40524 132.066 5.05182V5.05182C132.066 6.11045 131.207 6.96864 130.149 6.96864H115.533C114.474 6.96864 113.616 6.11045 113.616 5.05182V5.05182Z" fill="url(#paint14_linear_13744_10544)"/>
<g filter="url(#filter3_d_13744_10544)">
<circle cx="327.65" cy="198.271" r="40.3547" fill="white"/>
</g>
<path d="M318.497 201.835H313.739C311.778 201.835 310.174 203.439 310.174 205.399V214.31C310.174 215.29 310.976 216.092 311.956 216.092H318.497C319.477 216.092 320.279 215.29 320.279 214.31V203.617C320.279 202.637 319.477 201.835 318.497 201.835Z" fill="#292D32"/>
<path d="M318.497 201.835H313.739C311.778 201.835 310.174 203.439 310.174 205.399V214.31C310.174 215.29 310.976 216.092 311.956 216.092H318.497C319.477 216.092 320.279 215.29 320.279 214.31V203.617C320.279 202.637 319.477 201.835 318.497 201.835Z" fill="url(#paint15_linear_13744_10544)"/>
<path d="M330.365 194.707H325.607C323.647 194.707 322.043 196.311 322.043 198.271V214.31C322.043 215.29 322.845 216.092 323.825 216.092H332.147C333.127 216.092 333.929 215.29 333.929 214.31V198.271C333.929 196.311 332.343 194.707 330.365 194.707Z" fill="#292D32"/>
<path d="M330.365 194.707H325.607C323.647 194.707 322.043 196.311 322.043 198.271V214.31C322.043 215.29 322.845 216.092 323.825 216.092H332.147C333.127 216.092 333.929 215.29 333.929 214.31V198.271C333.929 196.311 332.343 194.707 330.365 194.707Z" fill="url(#paint16_linear_13744_10544)"/>
<path d="M342.251 207.181H337.493C336.513 207.181 335.711 207.983 335.711 208.964V214.31C335.711 215.29 336.513 216.092 337.493 216.092H344.033C345.013 216.092 345.815 215.29 345.815 214.31V210.746C345.815 208.785 344.211 207.181 342.251 207.181Z" fill="#292D32"/>
<path d="M342.251 207.181H337.493C336.513 207.181 335.711 207.983 335.711 208.964V214.31C335.711 215.29 336.513 216.092 337.493 216.092H344.033C345.013 216.092 345.815 215.29 345.815 214.31V210.746C345.815 208.785 344.211 207.181 342.251 207.181Z" fill="url(#paint17_linear_13744_10544)"/>
<path d="M333.359 185.53C333.911 184.977 334.125 184.318 333.947 183.748C333.769 183.177 333.216 182.767 332.432 182.643L330.721 182.358C330.65 182.358 330.49 182.233 330.454 182.162L329.51 180.273C328.797 178.829 327.175 178.829 326.462 180.273L325.518 182.162C325.5 182.233 325.34 182.358 325.268 182.358L323.558 182.643C322.773 182.767 322.239 183.177 322.043 183.748C321.865 184.318 322.078 184.977 322.631 185.53L323.95 186.866C324.021 186.92 324.074 187.133 324.057 187.205L323.682 188.844C323.397 190.074 323.861 190.626 324.163 190.84C324.466 191.054 325.126 191.339 326.213 190.698L327.817 189.753C327.888 189.7 328.12 189.7 328.191 189.753L329.777 190.698C330.276 191 330.686 191.09 331.007 191.09C331.381 191.09 331.648 190.947 331.808 190.84C332.111 190.626 332.575 190.074 332.29 188.844L331.915 187.205C331.898 187.116 331.951 186.92 332.022 186.866L333.359 185.53Z" fill="#292D32"/>
<path d="M333.359 185.53C333.911 184.977 334.125 184.318 333.947 183.748C333.769 183.177 333.216 182.767 332.432 182.643L330.721 182.358C330.65 182.358 330.49 182.233 330.454 182.162L329.51 180.273C328.797 178.829 327.175 178.829 326.462 180.273L325.518 182.162C325.5 182.233 325.34 182.358 325.268 182.358L323.558 182.643C322.773 182.767 322.239 183.177 322.043 183.748C321.865 184.318 322.078 184.977 322.631 185.53L323.95 186.866C324.021 186.92 324.074 187.133 324.057 187.205L323.682 188.844C323.397 190.074 323.861 190.626 324.163 190.84C324.466 191.054 325.126 191.339 326.213 190.698L327.817 189.753C327.888 189.7 328.12 189.7 328.191 189.753L329.777 190.698C330.276 191 330.686 191.09 331.007 191.09C331.381 191.09 331.648 190.947 331.808 190.84C332.111 190.626 332.575 190.074 332.29 188.844L331.915 187.205C331.898 187.116 331.951 186.92 332.022 186.866L333.359 185.53Z" fill="url(#paint18_linear_13744_10544)"/>
<g filter="url(#filter4_d_13744_10544)">
<circle cx="329.28" cy="-0.649246" r="40.3547" fill="white"/>
</g>
<path d="M328.147 -14.6149V1.09381C328.147 1.66852 327.868 2.19098 327.398 2.52188L314.841 11.3167C313.814 12.0307 312.351 11.4734 312.124 10.2369C311.863 8.73918 312.211 6.98022 313.256 5.08194L318.69 -4.68811L323.81 -13.9009C324.211 -14.6149 324.646 -15.2419 325.099 -15.7817C326.144 -17.0008 328.147 -16.2171 328.147 -14.6149Z" fill="#292D32"/>
<path d="M328.147 -14.6149V1.09381C328.147 1.66852 327.868 2.19098 327.398 2.52188L314.841 11.3167C313.814 12.0307 312.351 11.4734 312.124 10.2369C311.863 8.73918 312.211 6.98022 313.256 5.08194L318.69 -4.68811L323.81 -13.9009C324.211 -14.6149 324.646 -15.2419 325.099 -15.7817C326.144 -17.0008 328.147 -16.2171 328.147 -14.6149Z" fill="url(#paint19_linear_13744_10544)"/>
<path d="M344.064 11.3169L331.508 2.52212C331.037 2.19123 330.759 1.66876 330.759 1.09405V-14.6147C330.759 -16.2169 332.762 -17.0006 333.806 -15.7815C334.259 -15.2416 334.695 -14.6147 335.095 -13.9006L340.215 -4.68787L345.649 5.08219C346.694 6.98047 347.042 8.73943 346.781 10.2372C346.555 11.4736 345.092 12.0309 344.064 11.3169Z" fill="#292D32"/>
<path d="M344.064 11.3169L331.508 2.52212C331.037 2.19123 330.759 1.66876 330.759 1.09405V-14.6147C330.759 -16.2169 332.762 -17.0006 333.806 -15.7815C334.259 -15.2416 334.695 -14.6147 335.095 -13.9006L340.215 -4.68787L345.649 5.08219C346.694 6.98047 347.042 8.73943 346.781 10.2372C346.555 11.4736 345.092 12.0309 344.064 11.3169Z" fill="url(#paint20_linear_13744_10544)"/>
<path d="M317.714 11.9257L328.425 4.7854C329 4.40226 329.94 4.40226 330.515 4.7854L341.225 11.9257C344.064 13.824 343.594 15.374 340.18 15.374H318.742C315.346 15.3566 314.876 13.8066 317.714 11.9257Z" fill="#292D32"/>
<path d="M317.714 11.9257L328.425 4.7854C329 4.40226 329.94 4.40226 330.515 4.7854L341.225 11.9257C344.064 13.824 343.594 15.374 340.18 15.374H318.742C315.346 15.3566 314.876 13.8066 317.714 11.9257Z" fill="url(#paint21_linear_13744_10544)"/>
<g filter="url(#filter5_d_13744_10544)">
<circle cx="368.411" cy="97.9953" r="40.3547" fill="white"/>
</g>
<g filter="url(#filter6_d_13744_10544)">
<circle cx="229.318" cy="-40.3446" r="40.3547" transform="rotate(90 229.318 -40.3446)" fill="white"/>
</g>
<g filter="url(#filter7_d_13744_10544)">
<circle cx="229.005" cy="238.218" r="40.3547" transform="rotate(90 229.005 238.218)" fill="white"/>
</g>
<path d="M237.032 224.027H222.607C217.912 224.027 216.211 225.728 216.211 230.508V251.567C216.211 256.347 217.912 258.048 222.607 258.048H237.015C241.726 258.048 243.427 256.347 243.427 251.567V230.508C243.427 225.728 241.726 224.027 237.032 224.027ZM229.819 253.455C228.186 253.455 226.842 252.112 226.842 250.479C226.842 248.846 228.186 247.502 229.819 247.502C231.452 247.502 232.796 248.846 232.796 250.479C232.796 252.112 231.452 253.455 229.819 253.455ZM233.221 231.257H226.417C225.72 231.257 225.141 230.678 225.141 229.981C225.141 229.284 225.72 228.705 226.417 228.705H233.221C233.919 228.705 234.497 229.284 234.497 229.981C234.497 230.678 233.919 231.257 233.221 231.257Z" fill="#292D32"/>
<path d="M237.032 224.027H222.607C217.912 224.027 216.211 225.728 216.211 230.508V251.567C216.211 256.347 217.912 258.048 222.607 258.048H237.015C241.726 258.048 243.427 256.347 243.427 251.567V230.508C243.427 225.728 241.726 224.027 237.032 224.027ZM229.819 253.455C228.186 253.455 226.842 252.112 226.842 250.479C226.842 248.846 228.186 247.502 229.819 247.502C231.452 247.502 232.796 248.846 232.796 250.479C232.796 252.112 231.452 253.455 229.819 253.455ZM233.221 231.257H226.417C225.72 231.257 225.141 230.678 225.141 229.981C225.141 229.284 225.72 228.705 226.417 228.705H233.221C233.919 228.705 234.497 229.284 234.497 229.981C234.497 230.678 233.919 231.257 233.221 231.257Z" fill="url(#paint22_linear_13744_10544)"/>
<defs>
<filter id="filter0_d_13744_10544" x="0.874023" y="11.6406" width="180.709" height="180.709" filterUnits="userSpaceOnUse" color-interpolation-filters="sRGB">
<feFlood flood-opacity="0" result="BackgroundImageFix"/>
<feColorMatrix in="SourceAlpha" type="matrix" values="0 0 0 0 0 0 0 0 0 0 0 0 0 0 0 0 0 0 127 0" result="hardAlpha"/>
<feOffset dy="4"/>
<feGaussianBlur stdDeviation="25"/>
<feComposite in2="hardAlpha" operator="out"/>
<feColorMatrix type="matrix" values="0 0 0 0 0.778646 0 0 0 0 0.788677 0 0 0 0 0.8125 0 0 0 0.45 0"/>
<feBlend mode="normal" in2="BackgroundImageFix" result="effect1_dropShadow_13744_10544"/>
<feBlend mode="normal" in="SourceGraphic" in2="effect1_dropShadow_13744_10544" result="shape"/>
</filter>
<filter id="filter1_d_13744_10544" x="40.0049" y="111.916" width="180.709" height="180.709" filterUnits="userSpaceOnUse" color-interpolation-filters="sRGB">
<feFlood flood-opacity="0" result="BackgroundImageFix"/>
<feColorMatrix in="SourceAlpha" type="matrix" values="0 0 0 0 0 0 0 0 0 0 0 0 0 0 0 0 0 0 127 0" result="hardAlpha"/>
<feOffset dy="4"/>
<feGaussianBlur stdDeviation="25"/>
<feComposite in2="hardAlpha" operator="out"/>
<feColorMatrix type="matrix" values="0 0 0 0 0.778646 0 0 0 0 0.788677 0 0 0 0 0.8125 0 0 0 0.45 0"/>
<feBlend mode="normal" in2="BackgroundImageFix" result="effect1_dropShadow_13744_10544"/>
<feBlend mode="normal" in="SourceGraphic" in2="effect1_dropShadow_13744_10544" result="shape"/>
</filter>
<filter id="filter2_d_13744_10544" x="41.6357" y="-87.0039" width="180.709" height="180.709" filterUnits="userSpaceOnUse" color-interpolation-filters="sRGB">
<feFlood flood-opacity="0" result="BackgroundImageFix"/>
<feColorMatrix in="SourceAlpha" type="matrix" values="0 0 0 0 0 0 0 0 0 0 0 0 0 0 0 0 0 0 127 0" result="hardAlpha"/>
<feOffset dy="4"/>
<feGaussianBlur stdDeviation="25"/>
<feComposite in2="hardAlpha" operator="out"/>
<feColorMatrix type="matrix" values="0 0 0 0 0.778646 0 0 0 0 0.788677 0 0 0 0 0.8125 0 0 0 0.45 0"/>
<feBlend mode="normal" in2="BackgroundImageFix" result="effect1_dropShadow_13744_10544"/>
<feBlend mode="normal" in="SourceGraphic" in2="effect1_dropShadow_13744_10544" result="shape"/>
</filter>
<filter id="filter3_d_13744_10544" x="237.295" y="111.916" width="180.709" height="180.709" filterUnits="userSpaceOnUse" color-interpolation-filters="sRGB">
<feFlood flood-opacity="0" result="BackgroundImageFix"/>
<feColorMatrix in="SourceAlpha" type="matrix" values="0 0 0 0 0 0 0 0 0 0 0 0 0 0 0 0 0 0 127 0" result="hardAlpha"/>
<feOffset dy="4"/>
<feGaussianBlur stdDeviation="25"/>
<feComposite in2="hardAlpha" operator="out"/>
<feColorMatrix type="matrix" values="0 0 0 0 0.778646 0 0 0 0 0.788677 0 0 0 0 0.8125 0 0 0 0.45 0"/>
<feBlend mode="normal" in2="BackgroundImageFix" result="effect1_dropShadow_13744_10544"/>
<feBlend mode="normal" in="SourceGraphic" in2="effect1_dropShadow_13744_10544" result="shape"/>
</filter>
<filter id="filter4_d_13744_10544" x="238.926" y="-87.0039" width="180.709" height="180.709" filterUnits="userSpaceOnUse" color-interpolation-filters="sRGB">
<feFlood flood-opacity="0" result="BackgroundImageFix"/>
<feColorMatrix in="SourceAlpha" type="matrix" values="0 0 0 0 0 0 0 0 0 0 0 0 0 0 0 0 0 0 127 0" result="hardAlpha"/>
<feOffset dy="4"/>
<feGaussianBlur stdDeviation="25"/>
<feComposite in2="hardAlpha" operator="out"/>
<feColorMatrix type="matrix" values="0 0 0 0 0.778646 0 0 0 0 0.788677 0 0 0 0 0.8125 0 0 0 0.45 0"/>
<feBlend mode="normal" in2="BackgroundImageFix" result="effect1_dropShadow_13744_10544"/>
<feBlend mode="normal" in="SourceGraphic" in2="effect1_dropShadow_13744_10544" result="shape"/>
</filter>
<filter id="filter5_d_13744_10544" x="278.057" y="11.6406" width="180.709" height="180.709" filterUnits="userSpaceOnUse" color-interpolation-filters="sRGB">
<feFlood flood-opacity="0" result="BackgroundImageFix"/>
<feColorMatrix in="SourceAlpha" type="matrix" values="0 0 0 0 0 0 0 0 0 0 0 0 0 0 0 0 0 0 127 0" result="hardAlpha"/>
<feOffset dy="4"/>
<feGaussianBlur stdDeviation="25"/>
<feComposite in2="hardAlpha" operator="out"/>
<feColorMatrix type="matrix" values="0 0 0 0 0.778646 0 0 0 0 0.788677 0 0 0 0 0.8125 0 0 0 0.45 0"/>
<feBlend mode="normal" in2="BackgroundImageFix" result="effect1_dropShadow_13744_10544"/>
<feBlend mode="normal" in="SourceGraphic" in2="effect1_dropShadow_13744_10544" result="shape"/>
</filter>
<filter id="filter6_d_13744_10544" x="138.964" y="-126.699" width="180.709" height="180.709" filterUnits="userSpaceOnUse" color-interpolation-filters="sRGB">
<feFlood flood-opacity="0" result="BackgroundImageFix"/>
<feColorMatrix in="SourceAlpha" type="matrix" values="0 0 0 0 0 0 0 0 0 0 0 0 0 0 0 0 0 0 127 0" result="hardAlpha"/>
<feOffset dy="4"/>
<feGaussianBlur stdDeviation="25"/>
<feComposite in2="hardAlpha" operator="out"/>
<feColorMatrix type="matrix" values="0 0 0 0 0.778646 0 0 0 0 0.788677 0 0 0 0 0.8125 0 0 0 0.45 0"/>
<feBlend mode="normal" in2="BackgroundImageFix" result="effect1_dropShadow_13744_10544"/>
<feBlend mode="normal" in="SourceGraphic" in2="effect1_dropShadow_13744_10544" result="shape"/>
</filter>
<filter id="filter7_d_13744_10544" x="138.65" y="151.863" width="180.709" height="180.709" filterUnits="userSpaceOnUse" color-interpolation-filters="sRGB">
<feFlood flood-opacity="0" result="BackgroundImageFix"/>
<feColorMatrix in="SourceAlpha" type="matrix" values="0 0 0 0 0 0 0 0 0 0 0 0 0 0 0 0 0 0 127 0" result="hardAlpha"/>
<feOffset dy="4"/>
<feGaussianBlur stdDeviation="25"/>
<feComposite in2="hardAlpha" operator="out"/>
<feColorMatrix type="matrix" values="0 0 0 0 0.778646 0 0 0 0 0.788677 0 0 0 0 0.8125 0 0 0 0.45 0"/>
<feBlend mode="normal" in2="BackgroundImageFix" result="effect1_dropShadow_13744_10544"/>
<feBlend mode="normal" in="SourceGraphic" in2="effect1_dropShadow_13744_10544" result="shape"/>
</filter>
<linearGradient id="paint0_linear_13744_10544" x1="261.549" y1="134.511" x2="261.549" y2="74.1951" gradientUnits="userSpaceOnUse">
<stop stop-color="#FABE4C"/>
<stop offset="1" stop-color="#FA9751"/>
</linearGradient>
<linearGradient id="paint1_linear_13744_10544" x1="235.356" y1="53.6067" x2="229.513" y2="147.703" gradientUnits="userSpaceOnUse">
<stop stop-color="#FABE4C"/>
<stop offset="1" stop-color="#FA9751"/>
</linearGradient>
<linearGradient id="paint2_linear_13744_10544" x1="74.458" y1="82.0313" x2="89.2547" y2="101.348" gradientUnits="userSpaceOnUse">
<stop stop-color="#78A0FF"/>
<stop offset="1" stop-color="#5078E6"/>
</linearGradient>
<linearGradient id="paint3_linear_13744_10544" x1="100.371" y1="101.393" x2="103.36" y2="105.883" gradientUnits="userSpaceOnUse">
<stop stop-color="#78A0FF"/>
<stop offset="1" stop-color="#5078E6"/>
</linearGradient>
<linearGradient id="paint4_linear_13744_10544" x1="74.458" y1="91.2656" x2="96.6201" y2="120.815" gradientUnits="userSpaceOnUse">
<stop stop-color="#78A0FF"/>
<stop offset="1" stop-color="#5078E6"/>
</linearGradient>
<linearGradient id="paint5_linear_13744_10544" x1="79.0479" y1="96.8555" x2="80.5116" y2="103.442" gradientUnits="userSpaceOnUse">
<stop stop-color="#FECF8E"/>
<stop offset="1" stop-color="#D27624"/>
</linearGradient>
<linearGradient id="paint6_linear_13744_10544" x1="100.649" y1="101.176" x2="103.627" y2="106.386" gradientUnits="userSpaceOnUse">
<stop stop-color="#FECF8E"/>
<stop offset="1" stop-color="#D27624"/>
</linearGradient>
<linearGradient id="paint7_linear_13744_10544" x1="118.085" y1="183.775" x2="131.815" y2="206.791" gradientUnits="userSpaceOnUse">
<stop stop-color="#78A0FF"/>
<stop offset="1" stop-color="#5078E6"/>
</linearGradient>
<linearGradient id="paint8_linear_13744_10544" x1="116.52" y1="194.162" x2="134.947" y2="207.144" gradientUnits="userSpaceOnUse">
<stop stop-color="#78A0FF"/>
<stop offset="1" stop-color="#5078E6"/>
</linearGradient>
<linearGradient id="paint9_linear_13744_10544" x1="132.015" y1="194.162" x2="150.442" y2="207.144" gradientUnits="userSpaceOnUse">
<stop stop-color="#78A0FF"/>
<stop offset="1" stop-color="#5078E6"/>
</linearGradient>
<linearGradient id="paint10_linear_13744_10544" x1="132.015" y1="194.162" x2="150.442" y2="207.144" gradientUnits="userSpaceOnUse">
<stop stop-color="#FECF8E"/>
<stop offset="1" stop-color="#D27624"/>
</linearGradient>
<linearGradient id="paint11_linear_13744_10544" x1="136.992" y1="4.34985" x2="149.467" y2="16.8242" gradientUnits="userSpaceOnUse">
<stop stop-color="#78A0FF"/>
<stop offset="1" stop-color="#5078E6"/>
</linearGradient>
<linearGradient id="paint12_linear_13744_10544" x1="113.826" y1="1.67578" x2="116.434" y2="10.9579" gradientUnits="userSpaceOnUse">
<stop stop-color="#78A0FF"/>
<stop offset="1" stop-color="#5078E6"/>
</linearGradient>
<linearGradient id="paint13_linear_13744_10544" x1="113.826" y1="8.46484" x2="120.252" y2="22.1666" gradientUnits="userSpaceOnUse">
<stop stop-color="#78A0FF"/>
<stop offset="1" stop-color="#5078E6"/>
</linearGradient>
<linearGradient id="paint14_linear_13744_10544" x1="113.616" y1="0.259766" x2="117.926" y2="12.1105" gradientUnits="userSpaceOnUse">
<stop stop-color="#FECF8E"/>
<stop offset="1" stop-color="#D27624"/>
</linearGradient>
<linearGradient id="paint15_linear_13744_10544" x1="310.174" y1="201.835" x2="323.626" y2="211.369" gradientUnits="userSpaceOnUse">
<stop stop-color="#78A0FF"/>
<stop offset="1" stop-color="#5078E6"/>
</linearGradient>
<linearGradient id="paint16_linear_13744_10544" x1="322.043" y1="194.707" x2="340.204" y2="204.802" gradientUnits="userSpaceOnUse">
<stop stop-color="#78A0FF"/>
<stop offset="1" stop-color="#5078E6"/>
</linearGradient>
<linearGradient id="paint17_linear_13744_10544" x1="335.711" y1="207.181" x2="344.551" y2="217.206" gradientUnits="userSpaceOnUse">
<stop stop-color="#78A0FF"/>
<stop offset="1" stop-color="#5078E6"/>
</linearGradient>
<linearGradient id="paint18_linear_13744_10544" x1="321.981" y1="179.19" x2="333.883" y2="191.216" gradientUnits="userSpaceOnUse">
<stop stop-color="#FECF8E"/>
<stop offset="1" stop-color="#D27624"/>
</linearGradient>
<linearGradient id="paint19_linear_13744_10544" x1="312.041" y1="-16.3772" x2="336.248" y2="-2.45808" gradientUnits="userSpaceOnUse">
<stop stop-color="#78A0FF"/>
<stop offset="1" stop-color="#5078E6"/>
</linearGradient>
<linearGradient id="paint20_linear_13744_10544" x1="330.759" y1="-16.377" x2="354.966" y2="-2.45783" gradientUnits="userSpaceOnUse">
<stop stop-color="#78A0FF"/>
<stop offset="1" stop-color="#5078E6"/>
</linearGradient>
<linearGradient id="paint21_linear_13744_10544" x1="315.856" y1="4.49805" x2="323.35" y2="23.2564" gradientUnits="userSpaceOnUse">
<stop stop-color="#FECF8E"/>
<stop offset="1" stop-color="#D27624"/>
</linearGradient>
<linearGradient id="paint22_linear_13744_10544" x1="216.211" y1="224.027" x2="249.402" y2="250.58" gradientUnits="userSpaceOnUse">
<stop stop-color="#78A0FF"/>
<stop offset="1" stop-color="#5078E6"/>
</linearGradient>
</defs>
</svg>
