<svg width="217" height="182" viewBox="0 0 217 182" fill="none" xmlns="http://www.w3.org/2000/svg">
<path opacity="0.23" d="M30.4102 45.832L29.6451 45.1881L28.4584 46.5982L30.2874 46.8244L30.4102 45.832ZM43.4342 51.64L44.1612 50.9534L44.1612 50.9534L43.4342 51.64ZM45.1942 73.288L46.0441 73.8149L46.0441 73.8149L45.1942 73.288ZM36.9222 80.328L37.3459 81.2338L37.3522 81.2309L36.9222 80.328ZM10.7862 81.032L10.4824 81.9847L10.4906 81.9874L10.4989 81.9898L10.7862 81.032ZM0.402217 75.752L-0.472349 75.2671L-0.888056 76.0169L-0.210607 76.5422L0.402217 75.752ZM5.33022 66.864L5.97435 66.0991L5.04488 65.3164L4.45565 66.3791L5.33022 66.864ZM13.4262 71.352L13.0943 72.2953L13.1047 72.299L13.1152 72.3024L13.4262 71.352ZM32.8742 70.472L33.4574 71.2843L33.4612 71.2816L32.8742 70.472ZM33.0502 56.92L32.4468 57.7174L32.4588 57.7265L32.471 57.7352L33.0502 56.92ZM17.3862 54.456H16.3862V55.456H17.3862V54.456ZM17.3862 46.624L16.621 45.9802L16.3862 46.2593V46.624H17.3862ZM31.3782 29.992L32.1434 30.6358L33.5263 28.992H31.3782V29.992ZM3.39422 29.992H2.39422V30.992H3.39422V29.992ZM3.39422 20.4V19.4H2.39422V20.4H3.39422ZM45.3702 20.4H46.3702V19.4H45.3702V20.4ZM45.3702 28.056L46.1353 28.6999L46.3702 28.4208V28.056H45.3702ZM30.2874 46.8244C35.8209 47.509 39.9194 49.3748 42.7072 52.3266L44.1612 50.9534C40.9651 47.5692 36.3809 45.563 30.533 44.8396L30.2874 46.8244ZM42.7072 52.3266C45.5073 55.2914 46.9222 58.9981 46.9222 63.52H48.9222C48.9222 58.5379 47.3451 54.3246 44.1612 50.9534L42.7072 52.3266ZM46.9222 63.52C46.9222 66.9197 46.0611 69.992 44.3443 72.7611L46.0441 73.8149C47.9646 70.7173 48.9222 67.2776 48.9222 63.52H46.9222ZM44.3443 72.7611C42.6442 75.5031 40.0478 77.732 36.4923 79.4251L37.3522 81.2309C41.1886 79.404 44.1069 76.9395 46.0441 73.8149L44.3443 72.7611ZM36.4985 79.4222C33.0287 81.0452 28.7239 81.88 23.5462 81.88V83.88C28.9285 83.88 33.5411 83.0135 37.3459 81.2338L36.4985 79.4222ZM23.5462 81.88C19.241 81.88 15.0846 81.2775 11.0736 80.0742L10.4989 81.9898C14.7012 83.2505 19.0515 83.88 23.5462 83.88V81.88ZM11.09 80.0793C7.13533 78.8184 3.78289 77.1083 1.01504 74.9618L-0.210607 76.5422C2.77088 78.8544 6.3411 80.6643 10.4824 81.9847L11.09 80.0793ZM1.27678 76.2369L6.20478 67.3489L4.45565 66.3791L-0.472349 75.2671L1.27678 76.2369ZM4.68608 67.6289C7.02079 69.595 9.82943 71.1466 13.0943 72.2953L13.7581 70.4087C10.687 69.3281 8.09831 67.8877 5.97435 66.0991L4.68608 67.6289ZM13.1152 72.3024C16.4425 73.3913 19.8621 73.936 23.3702 73.936V71.936C20.073 71.936 16.8633 71.4247 13.7373 70.4016L13.1152 72.3024ZM23.3702 73.936C27.5395 73.936 30.9398 73.0919 33.4574 71.2843L32.291 69.6597C30.2327 71.1374 27.2969 71.936 23.3702 71.936V73.936ZM33.4612 71.2816C36.0647 69.394 37.3942 66.8063 37.3942 63.608H35.3942C35.3942 66.1591 34.377 68.1473 32.2872 69.6624L33.4612 71.2816ZM37.3942 63.608C37.3942 60.4291 36.1383 57.8874 33.6294 56.1048L32.471 57.7352C34.4208 59.1206 35.3942 61.0376 35.3942 63.608H37.3942ZM33.6537 56.1226C31.2278 54.2868 27.6223 53.456 23.0182 53.456V55.456C27.4488 55.456 30.5313 56.2679 32.4468 57.7174L33.6537 56.1226ZM23.0182 53.456H17.3862V55.456H23.0182V53.456ZM18.3862 54.456V46.624H16.3862V54.456H18.3862ZM18.1514 47.2678L32.1434 30.6358L30.613 29.3482L16.621 45.9802L18.1514 47.2678ZM31.3782 28.992H3.39422V30.992H31.3782V28.992ZM4.39422 29.992V20.4H2.39422V29.992H4.39422ZM3.39422 21.4H45.3702V19.4H3.39422V21.4ZM44.3702 20.4V28.056H46.3702V20.4H44.3702ZM44.6051 27.4121L29.6451 45.1881L31.1753 46.4759L46.1353 28.6999L44.6051 27.4121ZM61.741 79.184L61.1951 80.0219L61.2041 80.0277L61.741 79.184ZM52.589 68.272L51.6816 68.6925L51.6836 68.6967L52.589 68.272ZM52.589 34.216L53.4943 34.6407L53.4963 34.6365L52.589 34.216ZM61.741 23.304L62.2779 24.1477L62.2868 24.1419L61.741 23.304ZM88.141 23.304L87.5951 24.1419L87.6024 24.1466L87.6098 24.1513L88.141 23.304ZM97.381 34.216L96.4736 34.6365L96.4756 34.6407L97.381 34.216ZM97.381 68.272L98.2863 68.6967L98.2883 68.6925L97.381 68.272ZM88.141 79.184L88.6778 80.0277L88.6811 80.0256L88.141 79.184ZM85.325 67.48L84.5094 66.9012L84.5033 66.9101L85.325 67.48ZM85.325 34.92L84.5032 35.4899L84.5095 35.4987L85.325 34.92ZM64.557 34.92L63.7414 34.3412L63.7353 34.3501L64.557 34.92ZM64.557 67.48L63.7352 68.0499L63.7415 68.0587L64.557 67.48ZM74.941 81.88C70.1885 81.88 65.9775 80.6946 62.2778 78.3403L61.2041 80.0277C65.2485 82.6014 69.8374 83.88 74.941 83.88V81.88ZM62.2868 78.3461C58.5911 75.9383 55.6556 72.4542 53.4943 67.8473L51.6836 68.6967C53.981 73.5938 57.1468 77.3843 61.1951 80.0219L62.2868 78.3461ZM53.4963 67.8515C51.3408 63.2002 50.245 57.6593 50.245 51.2H48.245C48.245 57.882 49.3785 63.7224 51.6817 68.6925L53.4963 67.8515ZM50.245 51.2C50.245 44.7402 51.341 39.2307 53.4943 34.6407L51.6836 33.7913C49.3783 38.7053 48.245 44.5185 48.245 51.2H50.245ZM53.4963 34.6365C55.6579 29.9718 58.5911 26.4938 62.2778 24.1477L61.2041 22.4603C57.1468 25.0422 53.9787 28.8388 51.6817 33.7955L53.4963 34.6365ZM62.2868 24.1419C65.9855 21.7321 70.1933 20.52 74.941 20.52V18.52C69.8326 18.52 65.2404 19.8305 61.1951 22.4661L62.2868 24.1419ZM74.941 20.52C79.6886 20.52 83.8964 21.7321 87.5951 24.1419L88.6868 22.4661C84.6415 19.8305 80.0493 18.52 74.941 18.52V20.52ZM87.6098 24.1513C91.3539 26.4983 94.3138 29.9757 96.4737 34.6365L98.2883 33.7955C95.9895 28.835 92.7894 25.0377 88.6721 22.4567L87.6098 24.1513ZM96.4756 34.6407C98.629 39.2307 99.725 44.7402 99.725 51.2H101.725C101.725 44.5185 100.592 38.7053 98.2863 33.7913L96.4756 34.6407ZM99.725 51.2C99.725 57.6593 98.6291 63.2002 96.4737 67.8515L98.2883 68.6925C100.591 63.7224 101.725 57.882 101.725 51.2H99.725ZM96.4756 67.8473C94.3161 72.4504 91.3539 75.9338 87.6008 78.3424L88.6811 80.0256C92.7894 77.3889 95.9871 73.5976 98.2863 68.6967L96.4756 67.8473ZM87.6041 78.3403C83.9045 80.6946 79.6934 81.88 74.941 81.88V83.88C80.0445 83.88 84.6335 82.6014 88.6778 80.0277L87.6041 78.3403ZM74.941 73.936C79.6712 73.936 83.4385 71.9547 86.1467 68.0499L84.5033 66.9101C82.1661 70.28 79.0108 71.936 74.941 71.936V73.936ZM86.1405 68.0587C88.8954 64.1768 90.197 58.506 90.197 51.2H88.197C88.197 58.326 86.9172 63.5086 84.5095 66.9013L86.1405 68.0587ZM90.197 51.2C90.197 43.894 88.8954 38.2232 86.1405 34.3413L84.5095 35.4987C86.9172 38.8914 88.197 44.074 88.197 51.2H90.197ZM86.1467 34.3501C83.4385 30.4453 79.6712 28.464 74.941 28.464V30.464C79.0108 30.464 82.1661 32.12 84.5033 35.4899L86.1467 34.3501ZM74.941 28.464C70.2652 28.464 66.5042 30.4483 63.7415 34.3413L65.3725 35.4987C67.7724 32.1171 70.9341 30.464 74.941 30.464V28.464ZM63.7353 34.3501C61.0441 38.2303 59.773 43.8972 59.773 51.2H61.773C61.773 44.0708 63.0245 38.8843 65.3787 35.4899L63.7353 34.3501ZM59.773 51.2C59.773 58.5028 61.0441 64.1696 63.7353 68.0499L65.3787 66.9101C63.0245 63.5157 61.773 58.3292 61.773 51.2H59.773ZM63.7415 68.0587C66.5042 71.9517 70.2652 73.936 74.941 73.936V71.936C70.9341 71.936 67.7724 70.2829 65.3725 66.9013L63.7415 68.0587ZM114.792 79.184L114.246 80.0219L114.255 80.0277L114.792 79.184ZM105.64 68.272L104.733 68.6925L104.735 68.6967L105.64 68.272ZM105.64 34.216L106.545 34.6407L106.547 34.6365L105.64 34.216ZM114.792 23.304L115.329 24.1477L115.338 24.1419L114.792 23.304ZM141.192 23.304L140.646 24.1419L140.653 24.1466L140.661 24.1513L141.192 23.304ZM150.432 34.216L149.525 34.6365L149.527 34.6407L150.432 34.216ZM150.432 68.272L151.337 68.6967L151.339 68.6925L150.432 68.272ZM141.192 79.184L141.729 80.0277L141.732 80.0256L141.192 79.184ZM138.376 67.48L137.56 66.9012L137.554 66.9101L138.376 67.48ZM138.376 34.92L137.554 35.4899L137.56 35.4987L138.376 34.92ZM117.608 34.92L116.792 34.3412L116.786 34.3501L117.608 34.92ZM117.608 67.48L116.786 68.0499L116.792 68.0587L117.608 67.48ZM127.992 81.88C123.239 81.88 119.028 80.6946 115.329 78.3403L114.255 80.0277C118.299 82.6014 122.888 83.88 127.992 83.88V81.88ZM115.338 78.3461C111.642 75.9383 108.707 72.4542 106.545 67.8473L104.735 68.6967C107.032 73.5938 110.198 77.3843 114.246 80.0219L115.338 78.3461ZM106.547 67.8515C104.392 63.2002 103.296 57.6593 103.296 51.2H101.296C101.296 57.882 102.429 63.7224 104.733 68.6925L106.547 67.8515ZM103.296 51.2C103.296 44.7402 104.392 39.2307 106.545 34.6407L104.735 33.7913C102.429 38.7053 101.296 44.5185 101.296 51.2H103.296ZM106.547 34.6365C108.709 29.9718 111.642 26.4938 115.329 24.1477L114.255 22.4603C110.198 25.0422 107.03 28.8388 104.733 33.7955L106.547 34.6365ZM115.338 24.1419C119.036 21.7321 123.244 20.52 127.992 20.52V18.52C122.884 18.52 118.291 19.8305 114.246 22.4661L115.338 24.1419ZM127.992 20.52C132.74 20.52 136.947 21.7321 140.646 24.1419L141.738 22.4661C137.692 19.8305 133.1 18.52 127.992 18.52V20.52ZM140.661 24.1513C144.405 26.4983 147.365 29.9757 149.525 34.6365L151.339 33.7955C149.04 28.835 145.84 25.0377 141.723 22.4567L140.661 24.1513ZM149.527 34.6407C151.68 39.2307 152.776 44.7402 152.776 51.2H154.776C154.776 44.5185 153.643 38.7053 151.337 33.7913L149.527 34.6407ZM152.776 51.2C152.776 57.6593 151.68 63.2002 149.525 67.8515L151.339 68.6925C153.642 63.7224 154.776 57.882 154.776 51.2H152.776ZM149.527 67.8473C147.367 72.4504 144.405 75.9338 140.652 78.3424L141.732 80.0256C145.84 77.3889 149.038 73.5976 151.337 68.6967L149.527 67.8473ZM140.655 78.3403C136.955 80.6946 132.744 81.88 127.992 81.88V83.88C133.095 83.88 137.684 82.6014 141.729 80.0277L140.655 78.3403ZM127.992 73.936C132.722 73.936 136.489 71.9547 139.198 68.0499L137.554 66.9101C135.217 70.28 132.062 71.936 127.992 71.936V73.936ZM139.191 68.0587C141.946 64.1768 143.248 58.506 143.248 51.2H141.248C141.248 58.326 139.968 63.5086 137.56 66.9013L139.191 68.0587ZM143.248 51.2C143.248 43.894 141.946 38.2232 139.191 34.3413L137.56 35.4987C139.968 38.8914 141.248 44.074 141.248 51.2H143.248ZM139.198 34.3501C136.489 30.4453 132.722 28.464 127.992 28.464V30.464C132.062 30.464 135.217 32.12 137.554 35.4899L139.198 34.3501ZM127.992 28.464C123.316 28.464 119.555 30.4483 116.792 34.3413L118.423 35.4987C120.823 32.1171 123.985 30.464 127.992 30.464V28.464ZM116.786 34.3501C114.095 38.2303 112.824 43.8972 112.824 51.2H114.824C114.824 44.0708 116.075 38.8843 118.43 35.4899L116.786 34.3501ZM112.824 51.2C112.824 58.5028 114.095 64.1696 116.786 68.0499L118.43 66.9101C116.075 63.5157 114.824 58.3292 114.824 51.2H112.824ZM116.792 68.0587C119.555 71.9517 123.316 73.936 127.992 73.936V71.936C123.985 71.936 120.823 70.2829 118.423 66.9013L116.792 68.0587ZM167.843 79.184L167.297 80.0219L167.306 80.0277L167.843 79.184ZM158.691 68.272L157.784 68.6925L157.786 68.6967L158.691 68.272ZM158.691 34.216L159.596 34.6407L159.598 34.6365L158.691 34.216ZM167.843 23.304L168.38 24.1477L168.389 24.1419L167.843 23.304ZM194.243 23.304L193.697 24.1419L193.704 24.1466L193.712 24.1513L194.243 23.304ZM203.483 34.216L202.576 34.6365L202.578 34.6407L203.483 34.216ZM203.483 68.272L204.388 68.6967L204.39 68.6925L203.483 68.272ZM194.243 79.184L194.78 80.0277L194.783 80.0256L194.243 79.184ZM191.427 67.48L190.611 66.9012L190.605 66.9101L191.427 67.48ZM191.427 34.92L190.605 35.4899L190.611 35.4987L191.427 34.92ZM170.659 34.92L169.843 34.3412L169.837 34.3501L170.659 34.92ZM170.659 67.48L169.837 68.0499L169.843 68.0587L170.659 67.48ZM181.043 81.88C176.29 81.88 172.079 80.6946 168.38 78.3403L167.306 80.0277C171.35 82.6014 175.939 83.88 181.043 83.88V81.88ZM168.389 78.3461C164.693 75.9383 161.757 72.4542 159.596 67.8473L157.786 68.6967C160.083 73.5938 163.249 77.3843 167.297 80.0219L168.389 78.3461ZM159.598 67.8515C157.443 63.2002 156.347 57.6593 156.347 51.2H154.347C154.347 57.882 155.48 63.7224 157.784 68.6925L159.598 67.8515ZM156.347 51.2C156.347 44.7402 157.443 39.2307 159.596 34.6407L157.786 33.7913C155.48 38.7053 154.347 44.5185 154.347 51.2H156.347ZM159.598 34.6365C161.76 29.9718 164.693 26.4938 168.38 24.1477L167.306 22.4603C163.249 25.0422 160.081 28.8388 157.784 33.7955L159.598 34.6365ZM168.389 24.1419C172.087 21.7321 176.295 20.52 181.043 20.52V18.52C175.935 18.52 171.342 19.8305 167.297 22.4661L168.389 24.1419ZM181.043 20.52C185.791 20.52 189.998 21.7321 193.697 24.1419L194.789 22.4661C190.743 19.8305 186.151 18.52 181.043 18.52V20.52ZM193.712 24.1513C197.456 26.4983 200.416 29.9757 202.576 34.6365L204.39 33.7955C202.091 28.835 198.891 25.0377 194.774 22.4567L193.712 24.1513ZM202.578 34.6407C204.731 39.2307 205.827 44.7402 205.827 51.2H207.827C207.827 44.5185 206.694 38.7053 204.388 33.7913L202.578 34.6407ZM205.827 51.2C205.827 57.6593 204.731 63.2002 202.576 67.8515L204.39 68.6925C206.693 63.7224 207.827 57.882 207.827 51.2H205.827ZM202.578 67.8473C200.418 72.4504 197.456 75.9338 193.703 78.3424L194.783 80.0256C198.891 77.3889 202.089 73.5976 204.388 68.6967L202.578 67.8473ZM193.706 78.3403C190.006 80.6946 185.795 81.88 181.043 81.88V83.88C186.146 83.88 190.735 82.6014 194.78 80.0277L193.706 78.3403ZM181.043 73.936C185.773 73.936 189.54 71.9547 192.249 68.0499L190.605 66.9101C188.268 70.28 185.113 71.936 181.043 71.936V73.936ZM192.242 68.0587C194.997 64.1768 196.299 58.506 196.299 51.2H194.299C194.299 58.326 193.019 63.5086 190.611 66.9013L192.242 68.0587ZM196.299 51.2C196.299 43.894 194.997 38.2232 192.242 34.3413L190.611 35.4987C193.019 38.8914 194.299 44.074 194.299 51.2H196.299ZM192.249 34.3501C189.54 30.4453 185.773 28.464 181.043 28.464V30.464C185.113 30.464 188.268 32.12 190.605 35.4899L192.249 34.3501ZM181.043 28.464C176.367 28.464 172.606 30.4483 169.843 34.3413L171.474 35.4987C173.874 32.1171 177.036 30.464 181.043 30.464V28.464ZM169.837 34.3501C167.146 38.2303 165.875 43.8972 165.875 51.2H167.875C167.875 44.0708 169.126 38.8843 171.481 35.4899L169.837 34.3501ZM165.875 51.2C165.875 58.5028 167.146 64.1696 169.837 68.0499L171.481 66.9101C169.126 63.5157 167.875 58.3292 167.875 51.2H165.875ZM169.843 68.0587C172.606 71.9517 176.367 73.936 181.043 73.936V71.936C177.036 71.936 173.874 70.2829 171.474 66.9013L169.843 68.0587Z" fill="url(#paint0_linear_852_2077)"/>
<path d="M36.4102 127.832C42.1009 128.536 46.4422 130.472 49.4342 133.64C52.4262 136.808 53.9222 140.768 53.9222 145.52C53.9222 149.099 53.0129 152.355 51.1942 155.288C49.3756 158.221 46.6182 160.568 42.9222 162.328C39.2849 164.029 34.8262 164.88 29.5462 164.88C25.1462 164.88 20.8929 164.264 16.7862 163.032C12.7382 161.741 9.27688 159.981 6.40222 157.752L11.3302 148.864C13.5596 150.741 16.2582 152.237 19.4262 153.352C22.6529 154.408 25.9676 154.936 29.3702 154.936C33.4182 154.936 36.5862 154.115 38.8742 152.472C41.2209 150.771 42.3942 148.483 42.3942 145.608C42.3942 142.733 41.2796 140.504 39.0502 138.92C36.8796 137.277 33.5356 136.456 29.0182 136.456H23.3862V128.624L37.3782 111.992H9.39422V102.4H51.3702V110.056L36.4102 127.832ZM80.941 164.88C76.013 164.88 71.613 163.648 67.741 161.184C63.869 158.661 60.8183 155.024 58.589 150.272C56.3596 145.461 55.245 139.771 55.245 133.2C55.245 126.629 56.3596 120.968 58.589 116.216C60.8183 111.405 63.869 107.768 67.741 105.304C71.613 102.781 76.013 101.52 80.941 101.52C85.869 101.52 90.269 102.781 94.141 105.304C98.0716 107.768 101.152 111.405 103.381 116.216C105.61 120.968 106.725 126.629 106.725 133.2C106.725 139.771 105.61 145.461 103.381 150.272C101.152 155.024 98.0716 158.661 94.141 161.184C90.269 163.648 85.869 164.88 80.941 164.88ZM80.941 154.936C85.341 154.936 88.8023 153.117 91.325 149.48C93.9063 145.843 95.197 140.416 95.197 133.2C95.197 125.984 93.9063 120.557 91.325 116.92C88.8023 113.283 85.341 111.464 80.941 111.464C76.5996 111.464 73.1383 113.283 70.557 116.92C68.0343 120.557 66.773 125.984 66.773 133.2C66.773 140.416 68.0343 145.843 70.557 149.48C73.1383 153.117 76.5996 154.936 80.941 154.936ZM133.992 164.88C129.064 164.88 124.664 163.648 120.792 161.184C116.92 158.661 113.869 155.024 111.64 150.272C109.411 145.461 108.296 139.771 108.296 133.2C108.296 126.629 109.411 120.968 111.64 116.216C113.869 111.405 116.92 107.768 120.792 105.304C124.664 102.781 129.064 101.52 133.992 101.52C138.92 101.52 143.32 102.781 147.192 105.304C151.123 107.768 154.203 111.405 156.432 116.216C158.661 120.968 159.776 126.629 159.776 133.2C159.776 139.771 158.661 145.461 156.432 150.272C154.203 155.024 151.123 158.661 147.192 161.184C143.32 163.648 138.92 164.88 133.992 164.88ZM133.992 154.936C138.392 154.936 141.853 153.117 144.376 149.48C146.957 145.843 148.248 140.416 148.248 133.2C148.248 125.984 146.957 120.557 144.376 116.92C141.853 113.283 138.392 111.464 133.992 111.464C129.651 111.464 126.189 113.283 123.608 116.92C121.085 120.557 119.824 125.984 119.824 133.2C119.824 140.416 121.085 145.843 123.608 149.48C126.189 153.117 129.651 154.936 133.992 154.936ZM187.043 164.88C182.115 164.88 177.715 163.648 173.843 161.184C169.971 158.661 166.92 155.024 164.691 150.272C162.462 145.461 161.347 139.771 161.347 133.2C161.347 126.629 162.462 120.968 164.691 116.216C166.92 111.405 169.971 107.768 173.843 105.304C177.715 102.781 182.115 101.52 187.043 101.52C191.971 101.52 196.371 102.781 200.243 105.304C204.174 107.768 207.254 111.405 209.483 116.216C211.712 120.968 212.827 126.629 212.827 133.2C212.827 139.771 211.712 145.461 209.483 150.272C207.254 155.024 204.174 158.661 200.243 161.184C196.371 163.648 191.971 164.88 187.043 164.88ZM187.043 154.936C191.443 154.936 194.904 153.117 197.427 149.48C200.008 145.843 201.299 140.416 201.299 133.2C201.299 125.984 200.008 120.557 197.427 116.92C194.904 113.283 191.443 111.464 187.043 111.464C182.702 111.464 179.24 113.283 176.659 116.92C174.136 120.557 172.875 125.984 172.875 133.2C172.875 140.416 174.136 145.843 176.659 149.48C179.24 153.117 182.702 154.936 187.043 154.936Z" fill="#2F323D"/>
<path d="M36.4102 127.832C42.1009 128.536 46.4422 130.472 49.4342 133.64C52.4262 136.808 53.9222 140.768 53.9222 145.52C53.9222 149.099 53.0129 152.355 51.1942 155.288C49.3756 158.221 46.6182 160.568 42.9222 162.328C39.2849 164.029 34.8262 164.88 29.5462 164.88C25.1462 164.88 20.8929 164.264 16.7862 163.032C12.7382 161.741 9.27688 159.981 6.40222 157.752L11.3302 148.864C13.5596 150.741 16.2582 152.237 19.4262 153.352C22.6529 154.408 25.9676 154.936 29.3702 154.936C33.4182 154.936 36.5862 154.115 38.8742 152.472C41.2209 150.771 42.3942 148.483 42.3942 145.608C42.3942 142.733 41.2796 140.504 39.0502 138.92C36.8796 137.277 33.5356 136.456 29.0182 136.456H23.3862V128.624L37.3782 111.992H9.39422V102.4H51.3702V110.056L36.4102 127.832ZM80.941 164.88C76.013 164.88 71.613 163.648 67.741 161.184C63.869 158.661 60.8183 155.024 58.589 150.272C56.3596 145.461 55.245 139.771 55.245 133.2C55.245 126.629 56.3596 120.968 58.589 116.216C60.8183 111.405 63.869 107.768 67.741 105.304C71.613 102.781 76.013 101.52 80.941 101.52C85.869 101.52 90.269 102.781 94.141 105.304C98.0716 107.768 101.152 111.405 103.381 116.216C105.61 120.968 106.725 126.629 106.725 133.2C106.725 139.771 105.61 145.461 103.381 150.272C101.152 155.024 98.0716 158.661 94.141 161.184C90.269 163.648 85.869 164.88 80.941 164.88ZM80.941 154.936C85.341 154.936 88.8023 153.117 91.325 149.48C93.9063 145.843 95.197 140.416 95.197 133.2C95.197 125.984 93.9063 120.557 91.325 116.92C88.8023 113.283 85.341 111.464 80.941 111.464C76.5996 111.464 73.1383 113.283 70.557 116.92C68.0343 120.557 66.773 125.984 66.773 133.2C66.773 140.416 68.0343 145.843 70.557 149.48C73.1383 153.117 76.5996 154.936 80.941 154.936ZM133.992 164.88C129.064 164.88 124.664 163.648 120.792 161.184C116.92 158.661 113.869 155.024 111.64 150.272C109.411 145.461 108.296 139.771 108.296 133.2C108.296 126.629 109.411 120.968 111.64 116.216C113.869 111.405 116.92 107.768 120.792 105.304C124.664 102.781 129.064 101.52 133.992 101.52C138.92 101.52 143.32 102.781 147.192 105.304C151.123 107.768 154.203 111.405 156.432 116.216C158.661 120.968 159.776 126.629 159.776 133.2C159.776 139.771 158.661 145.461 156.432 150.272C154.203 155.024 151.123 158.661 147.192 161.184C143.32 163.648 138.92 164.88 133.992 164.88ZM133.992 154.936C138.392 154.936 141.853 153.117 144.376 149.48C146.957 145.843 148.248 140.416 148.248 133.2C148.248 125.984 146.957 120.557 144.376 116.92C141.853 113.283 138.392 111.464 133.992 111.464C129.651 111.464 126.189 113.283 123.608 116.92C121.085 120.557 119.824 125.984 119.824 133.2C119.824 140.416 121.085 145.843 123.608 149.48C126.189 153.117 129.651 154.936 133.992 154.936ZM187.043 164.88C182.115 164.88 177.715 163.648 173.843 161.184C169.971 158.661 166.92 155.024 164.691 150.272C162.462 145.461 161.347 139.771 161.347 133.2C161.347 126.629 162.462 120.968 164.691 116.216C166.92 111.405 169.971 107.768 173.843 105.304C177.715 102.781 182.115 101.52 187.043 101.52C191.971 101.52 196.371 102.781 200.243 105.304C204.174 107.768 207.254 111.405 209.483 116.216C211.712 120.968 212.827 126.629 212.827 133.2C212.827 139.771 211.712 145.461 209.483 150.272C207.254 155.024 204.174 158.661 200.243 161.184C196.371 163.648 191.971 164.88 187.043 164.88ZM187.043 154.936C191.443 154.936 194.904 153.117 197.427 149.48C200.008 145.843 201.299 140.416 201.299 133.2C201.299 125.984 200.008 120.557 197.427 116.92C194.904 113.283 191.443 111.464 187.043 111.464C182.702 111.464 179.24 113.283 176.659 116.92C174.136 120.557 172.875 125.984 172.875 133.2C172.875 140.416 174.136 145.843 176.659 149.48C179.24 153.117 182.702 154.936 187.043 154.936Z" fill="url(#paint1_linear_852_2077)"/>
<path d="M36.4102 127.832C42.1009 128.536 46.4422 130.472 49.4342 133.64C52.4262 136.808 53.9222 140.768 53.9222 145.52C53.9222 149.099 53.0129 152.355 51.1942 155.288C49.3756 158.221 46.6182 160.568 42.9222 162.328C39.2849 164.029 34.8262 164.88 29.5462 164.88C25.1462 164.88 20.8929 164.264 16.7862 163.032C12.7382 161.741 9.27688 159.981 6.40222 157.752L11.3302 148.864C13.5596 150.741 16.2582 152.237 19.4262 153.352C22.6529 154.408 25.9676 154.936 29.3702 154.936C33.4182 154.936 36.5862 154.115 38.8742 152.472C41.2209 150.771 42.3942 148.483 42.3942 145.608C42.3942 142.733 41.2796 140.504 39.0502 138.92C36.8796 137.277 33.5356 136.456 29.0182 136.456H23.3862V128.624L37.3782 111.992H9.39422V102.4H51.3702V110.056L36.4102 127.832ZM80.941 164.88C76.013 164.88 71.613 163.648 67.741 161.184C63.869 158.661 60.8183 155.024 58.589 150.272C56.3596 145.461 55.245 139.771 55.245 133.2C55.245 126.629 56.3596 120.968 58.589 116.216C60.8183 111.405 63.869 107.768 67.741 105.304C71.613 102.781 76.013 101.52 80.941 101.52C85.869 101.52 90.269 102.781 94.141 105.304C98.0716 107.768 101.152 111.405 103.381 116.216C105.61 120.968 106.725 126.629 106.725 133.2C106.725 139.771 105.61 145.461 103.381 150.272C101.152 155.024 98.0716 158.661 94.141 161.184C90.269 163.648 85.869 164.88 80.941 164.88ZM80.941 154.936C85.341 154.936 88.8023 153.117 91.325 149.48C93.9063 145.843 95.197 140.416 95.197 133.2C95.197 125.984 93.9063 120.557 91.325 116.92C88.8023 113.283 85.341 111.464 80.941 111.464C76.5996 111.464 73.1383 113.283 70.557 116.92C68.0343 120.557 66.773 125.984 66.773 133.2C66.773 140.416 68.0343 145.843 70.557 149.48C73.1383 153.117 76.5996 154.936 80.941 154.936ZM133.992 164.88C129.064 164.88 124.664 163.648 120.792 161.184C116.92 158.661 113.869 155.024 111.64 150.272C109.411 145.461 108.296 139.771 108.296 133.2C108.296 126.629 109.411 120.968 111.64 116.216C113.869 111.405 116.92 107.768 120.792 105.304C124.664 102.781 129.064 101.52 133.992 101.52C138.92 101.52 143.32 102.781 147.192 105.304C151.123 107.768 154.203 111.405 156.432 116.216C158.661 120.968 159.776 126.629 159.776 133.2C159.776 139.771 158.661 145.461 156.432 150.272C154.203 155.024 151.123 158.661 147.192 161.184C143.32 163.648 138.92 164.88 133.992 164.88ZM133.992 154.936C138.392 154.936 141.853 153.117 144.376 149.48C146.957 145.843 148.248 140.416 148.248 133.2C148.248 125.984 146.957 120.557 144.376 116.92C141.853 113.283 138.392 111.464 133.992 111.464C129.651 111.464 126.189 113.283 123.608 116.92C121.085 120.557 119.824 125.984 119.824 133.2C119.824 140.416 121.085 145.843 123.608 149.48C126.189 153.117 129.651 154.936 133.992 154.936ZM187.043 164.88C182.115 164.88 177.715 163.648 173.843 161.184C169.971 158.661 166.92 155.024 164.691 150.272C162.462 145.461 161.347 139.771 161.347 133.2C161.347 126.629 162.462 120.968 164.691 116.216C166.92 111.405 169.971 107.768 173.843 105.304C177.715 102.781 182.115 101.52 187.043 101.52C191.971 101.52 196.371 102.781 200.243 105.304C204.174 107.768 207.254 111.405 209.483 116.216C211.712 120.968 212.827 126.629 212.827 133.2C212.827 139.771 211.712 145.461 209.483 150.272C207.254 155.024 204.174 158.661 200.243 161.184C196.371 163.648 191.971 164.88 187.043 164.88ZM187.043 154.936C191.443 154.936 194.904 153.117 197.427 149.48C200.008 145.843 201.299 140.416 201.299 133.2C201.299 125.984 200.008 120.557 197.427 116.92C194.904 113.283 191.443 111.464 187.043 111.464C182.702 111.464 179.24 113.283 176.659 116.92C174.136 120.557 172.875 125.984 172.875 133.2C172.875 140.416 174.136 145.843 176.659 149.48C179.24 153.117 182.702 154.936 187.043 154.936Z" fill="url(#paint2_linear_852_2077)"/>
<path opacity="0.8" d="M30.4102 86.832L29.6451 86.1881L28.4584 87.5982L30.2874 87.8244L30.4102 86.832ZM43.4342 92.64L44.1612 91.9534L44.1612 91.9534L43.4342 92.64ZM45.1942 114.288L46.0441 114.815L46.0441 114.815L45.1942 114.288ZM36.9222 121.328L37.3459 122.234L37.3522 122.231L36.9222 121.328ZM10.7862 122.032L10.4824 122.985L10.4906 122.987L10.4989 122.99L10.7862 122.032ZM0.402217 116.752L-0.472349 116.267L-0.888056 117.017L-0.210607 117.542L0.402217 116.752ZM5.33022 107.864L5.97435 107.099L5.04488 106.316L4.45565 107.379L5.33022 107.864ZM13.4262 112.352L13.0943 113.295L13.1047 113.299L13.1152 113.302L13.4262 112.352ZM32.8742 111.472L33.4574 112.284L33.4612 112.282L32.8742 111.472ZM33.0502 97.92L32.4468 98.7174L32.4588 98.7265L32.471 98.7352L33.0502 97.92ZM17.3862 95.456H16.3862V96.456H17.3862V95.456ZM17.3862 87.624L16.621 86.9802L16.3862 87.2593V87.624H17.3862ZM31.3782 70.992L32.1434 71.6358L33.5263 69.992H31.3782V70.992ZM3.39422 70.992H2.39422V71.992H3.39422V70.992ZM3.39422 61.4V60.4H2.39422V61.4H3.39422ZM45.3702 61.4H46.3702V60.4H45.3702V61.4ZM45.3702 69.056L46.1353 69.6999L46.3702 69.4208V69.056H45.3702ZM30.2874 87.8244C35.8209 88.509 39.9194 90.3748 42.7072 93.3266L44.1612 91.9534C40.9651 88.5692 36.3809 86.563 30.533 85.8396L30.2874 87.8244ZM42.7072 93.3266C45.5073 96.2914 46.9222 99.9981 46.9222 104.52H48.9222C48.9222 99.5379 47.3451 95.3246 44.1612 91.9534L42.7072 93.3266ZM46.9222 104.52C46.9222 107.92 46.0611 110.992 44.3443 113.761L46.0441 114.815C47.9646 111.717 48.9222 108.278 48.9222 104.52H46.9222ZM44.3443 113.761C42.6442 116.503 40.0478 118.732 36.4923 120.425L37.3522 122.231C41.1886 120.404 44.1069 117.94 46.0441 114.815L44.3443 113.761ZM36.4985 120.422C33.0287 122.045 28.7239 122.88 23.5462 122.88V124.88C28.9285 124.88 33.5411 124.013 37.3459 122.234L36.4985 120.422ZM23.5462 122.88C19.241 122.88 15.0846 122.277 11.0736 121.074L10.4989 122.99C14.7012 124.251 19.0515 124.88 23.5462 124.88V122.88ZM11.09 121.079C7.13533 119.818 3.78289 118.108 1.01504 115.962L-0.210607 117.542C2.77088 119.854 6.3411 121.664 10.4824 122.985L11.09 121.079ZM1.27678 117.237L6.20478 108.349L4.45565 107.379L-0.472349 116.267L1.27678 117.237ZM4.68608 108.629C7.02079 110.595 9.82943 112.147 13.0943 113.295L13.7581 111.409C10.687 110.328 8.09831 108.888 5.97435 107.099L4.68608 108.629ZM13.1152 113.302C16.4425 114.391 19.8621 114.936 23.3702 114.936V112.936C20.073 112.936 16.8633 112.425 13.7373 111.402L13.1152 113.302ZM23.3702 114.936C27.5395 114.936 30.9398 114.092 33.4574 112.284L32.291 110.66C30.2327 112.137 27.2969 112.936 23.3702 112.936V114.936ZM33.4612 112.282C36.0647 110.394 37.3942 107.806 37.3942 104.608H35.3942C35.3942 107.159 34.377 109.147 32.2872 110.662L33.4612 112.282ZM37.3942 104.608C37.3942 101.429 36.1383 98.8874 33.6294 97.1048L32.471 98.7352C34.4208 100.121 35.3942 102.038 35.3942 104.608H37.3942ZM33.6537 97.1226C31.2278 95.2868 27.6223 94.456 23.0182 94.456V96.456C27.4488 96.456 30.5313 97.2679 32.4468 98.7174L33.6537 97.1226ZM23.0182 94.456H17.3862V96.456H23.0182V94.456ZM18.3862 95.456V87.624H16.3862V95.456H18.3862ZM18.1514 88.2678L32.1434 71.6358L30.613 70.3482L16.621 86.9802L18.1514 88.2678ZM31.3782 69.992H3.39422V71.992H31.3782V69.992ZM4.39422 70.992V61.4H2.39422V70.992H4.39422ZM3.39422 62.4H45.3702V60.4H3.39422V62.4ZM44.3702 61.4V69.056H46.3702V61.4H44.3702ZM44.6051 68.4121L29.6451 86.1881L31.1753 87.4759L46.1353 69.6999L44.6051 68.4121ZM61.741 120.184L61.1951 121.022L61.2041 121.028L61.741 120.184ZM52.589 109.272L51.6816 109.692L51.6836 109.697L52.589 109.272ZM52.589 75.216L53.4943 75.6407L53.4963 75.6365L52.589 75.216ZM61.741 64.304L62.2779 65.1477L62.2868 65.1419L61.741 64.304ZM88.141 64.304L87.5951 65.1419L87.6024 65.1466L87.6098 65.1513L88.141 64.304ZM97.381 75.216L96.4736 75.6365L96.4756 75.6407L97.381 75.216ZM97.381 109.272L98.2863 109.697L98.2883 109.692L97.381 109.272ZM88.141 120.184L88.6778 121.028L88.6811 121.026L88.141 120.184ZM85.325 108.48L84.5094 107.901L84.5033 107.91L85.325 108.48ZM85.325 75.92L84.5032 76.4899L84.5095 76.4987L85.325 75.92ZM64.557 75.92L63.7414 75.3412L63.7353 75.3501L64.557 75.92ZM64.557 108.48L63.7352 109.05L63.7415 109.059L64.557 108.48ZM74.941 122.88C70.1885 122.88 65.9775 121.695 62.2778 119.34L61.2041 121.028C65.2485 123.601 69.8374 124.88 74.941 124.88V122.88ZM62.2868 119.346C58.5911 116.938 55.6556 113.454 53.4943 108.847L51.6836 109.697C53.981 114.594 57.1468 118.384 61.1951 121.022L62.2868 119.346ZM53.4963 108.852C51.3408 104.2 50.245 98.6593 50.245 92.2H48.245C48.245 98.882 49.3785 104.722 51.6817 109.692L53.4963 108.852ZM50.245 92.2C50.245 85.7402 51.341 80.2307 53.4943 75.6407L51.6836 74.7913C49.3783 79.7053 48.245 85.5185 48.245 92.2H50.245ZM53.4963 75.6365C55.6579 70.9718 58.5911 67.4938 62.2778 65.1477L61.2041 63.4603C57.1468 66.0422 53.9787 69.8388 51.6817 74.7955L53.4963 75.6365ZM62.2868 65.1419C65.9855 62.7321 70.1933 61.52 74.941 61.52V59.52C69.8326 59.52 65.2404 60.8305 61.1951 63.4661L62.2868 65.1419ZM74.941 61.52C79.6886 61.52 83.8964 62.7321 87.5951 65.1419L88.6868 63.4661C84.6415 60.8305 80.0493 59.52 74.941 59.52V61.52ZM87.6098 65.1513C91.3539 67.4983 94.3138 70.9757 96.4737 75.6365L98.2883 74.7955C95.9895 69.835 92.7894 66.0377 88.6721 63.4567L87.6098 65.1513ZM96.4756 75.6407C98.629 80.2307 99.725 85.7402 99.725 92.2H101.725C101.725 85.5185 100.592 79.7053 98.2863 74.7913L96.4756 75.6407ZM99.725 92.2C99.725 98.6593 98.6291 104.2 96.4737 108.852L98.2883 109.692C100.591 104.722 101.725 98.882 101.725 92.2H99.725ZM96.4756 108.847C94.3161 113.45 91.3539 116.934 87.6008 119.342L88.6811 121.026C92.7894 118.389 95.9871 114.598 98.2863 109.697L96.4756 108.847ZM87.6041 119.34C83.9045 121.695 79.6934 122.88 74.941 122.88V124.88C80.0445 124.88 84.6335 123.601 88.6778 121.028L87.6041 119.34ZM74.941 114.936C79.6712 114.936 83.4385 112.955 86.1467 109.05L84.5033 107.91C82.1661 111.28 79.0108 112.936 74.941 112.936V114.936ZM86.1405 109.059C88.8954 105.177 90.197 99.506 90.197 92.2H88.197C88.197 99.326 86.9172 104.509 84.5095 107.901L86.1405 109.059ZM90.197 92.2C90.197 84.894 88.8954 79.2232 86.1405 75.3413L84.5095 76.4987C86.9172 79.8914 88.197 85.074 88.197 92.2H90.197ZM86.1467 75.3501C83.4385 71.4453 79.6712 69.464 74.941 69.464V71.464C79.0108 71.464 82.1661 73.12 84.5033 76.4899L86.1467 75.3501ZM74.941 69.464C70.2652 69.464 66.5042 71.4483 63.7415 75.3413L65.3725 76.4987C67.7724 73.1171 70.9341 71.464 74.941 71.464V69.464ZM63.7353 75.3501C61.0441 79.2303 59.773 84.8972 59.773 92.2H61.773C61.773 85.0708 63.0245 79.8843 65.3787 76.4899L63.7353 75.3501ZM59.773 92.2C59.773 99.5028 61.0441 105.17 63.7353 109.05L65.3787 107.91C63.0245 104.516 61.773 99.3292 61.773 92.2H59.773ZM63.7415 109.059C66.5042 112.952 70.2652 114.936 74.941 114.936V112.936C70.9341 112.936 67.7724 111.283 65.3725 107.901L63.7415 109.059ZM114.792 120.184L114.246 121.022L114.255 121.028L114.792 120.184ZM105.64 109.272L104.733 109.692L104.735 109.697L105.64 109.272ZM105.64 75.216L106.545 75.6407L106.547 75.6365L105.64 75.216ZM114.792 64.304L115.329 65.1477L115.338 65.1419L114.792 64.304ZM141.192 64.304L140.646 65.1419L140.653 65.1466L140.661 65.1513L141.192 64.304ZM150.432 75.216L149.525 75.6365L149.527 75.6407L150.432 75.216ZM150.432 109.272L151.337 109.697L151.339 109.692L150.432 109.272ZM141.192 120.184L141.729 121.028L141.732 121.026L141.192 120.184ZM138.376 108.48L137.56 107.901L137.554 107.91L138.376 108.48ZM138.376 75.92L137.554 76.4899L137.56 76.4987L138.376 75.92ZM117.608 75.92L116.792 75.3412L116.786 75.3501L117.608 75.92ZM117.608 108.48L116.786 109.05L116.792 109.059L117.608 108.48ZM127.992 122.88C123.239 122.88 119.028 121.695 115.329 119.34L114.255 121.028C118.299 123.601 122.888 124.88 127.992 124.88V122.88ZM115.338 119.346C111.642 116.938 108.707 113.454 106.545 108.847L104.735 109.697C107.032 114.594 110.198 118.384 114.246 121.022L115.338 119.346ZM106.547 108.852C104.392 104.2 103.296 98.6593 103.296 92.2H101.296C101.296 98.882 102.429 104.722 104.733 109.692L106.547 108.852ZM103.296 92.2C103.296 85.7402 104.392 80.2307 106.545 75.6407L104.735 74.7913C102.429 79.7053 101.296 85.5185 101.296 92.2H103.296ZM106.547 75.6365C108.709 70.9718 111.642 67.4938 115.329 65.1477L114.255 63.4603C110.198 66.0422 107.03 69.8388 104.733 74.7955L106.547 75.6365ZM115.338 65.1419C119.036 62.7321 123.244 61.52 127.992 61.52V59.52C122.884 59.52 118.291 60.8305 114.246 63.4661L115.338 65.1419ZM127.992 61.52C132.74 61.52 136.947 62.7321 140.646 65.1419L141.738 63.4661C137.692 60.8305 133.1 59.52 127.992 59.52V61.52ZM140.661 65.1513C144.405 67.4983 147.365 70.9757 149.525 75.6365L151.339 74.7955C149.04 69.835 145.84 66.0377 141.723 63.4567L140.661 65.1513ZM149.527 75.6407C151.68 80.2307 152.776 85.7402 152.776 92.2H154.776C154.776 85.5185 153.643 79.7053 151.337 74.7913L149.527 75.6407ZM152.776 92.2C152.776 98.6593 151.68 104.2 149.525 108.852L151.339 109.692C153.642 104.722 154.776 98.882 154.776 92.2H152.776ZM149.527 108.847C147.367 113.45 144.405 116.934 140.652 119.342L141.732 121.026C145.84 118.389 149.038 114.598 151.337 109.697L149.527 108.847ZM140.655 119.34C136.955 121.695 132.744 122.88 127.992 122.88V124.88C133.095 124.88 137.684 123.601 141.729 121.028L140.655 119.34ZM127.992 114.936C132.722 114.936 136.489 112.955 139.198 109.05L137.554 107.91C135.217 111.28 132.062 112.936 127.992 112.936V114.936ZM139.191 109.059C141.946 105.177 143.248 99.506 143.248 92.2H141.248C141.248 99.326 139.968 104.509 137.56 107.901L139.191 109.059ZM143.248 92.2C143.248 84.894 141.946 79.2232 139.191 75.3413L137.56 76.4987C139.968 79.8914 141.248 85.074 141.248 92.2H143.248ZM139.198 75.3501C136.489 71.4453 132.722 69.464 127.992 69.464V71.464C132.062 71.464 135.217 73.12 137.554 76.4899L139.198 75.3501ZM127.992 69.464C123.316 69.464 119.555 71.4483 116.792 75.3413L118.423 76.4987C120.823 73.1171 123.985 71.464 127.992 71.464V69.464ZM116.786 75.3501C114.095 79.2303 112.824 84.8972 112.824 92.2H114.824C114.824 85.0708 116.075 79.8843 118.43 76.4899L116.786 75.3501ZM112.824 92.2C112.824 99.5028 114.095 105.17 116.786 109.05L118.43 107.91C116.075 104.516 114.824 99.3292 114.824 92.2H112.824ZM116.792 109.059C119.555 112.952 123.316 114.936 127.992 114.936V112.936C123.985 112.936 120.823 111.283 118.423 107.901L116.792 109.059ZM167.843 120.184L167.297 121.022L167.306 121.028L167.843 120.184ZM158.691 109.272L157.784 109.692L157.786 109.697L158.691 109.272ZM158.691 75.216L159.596 75.6407L159.598 75.6365L158.691 75.216ZM167.843 64.304L168.38 65.1477L168.389 65.1419L167.843 64.304ZM194.243 64.304L193.697 65.1419L193.704 65.1466L193.712 65.1513L194.243 64.304ZM203.483 75.216L202.576 75.6365L202.578 75.6407L203.483 75.216ZM203.483 109.272L204.388 109.697L204.39 109.692L203.483 109.272ZM194.243 120.184L194.78 121.028L194.783 121.026L194.243 120.184ZM191.427 108.48L190.611 107.901L190.605 107.91L191.427 108.48ZM191.427 75.92L190.605 76.4899L190.611 76.4987L191.427 75.92ZM170.659 75.92L169.843 75.3412L169.837 75.3501L170.659 75.92ZM170.659 108.48L169.837 109.05L169.843 109.059L170.659 108.48ZM181.043 122.88C176.29 122.88 172.079 121.695 168.38 119.34L167.306 121.028C171.35 123.601 175.939 124.88 181.043 124.88V122.88ZM168.389 119.346C164.693 116.938 161.757 113.454 159.596 108.847L157.786 109.697C160.083 114.594 163.249 118.384 167.297 121.022L168.389 119.346ZM159.598 108.852C157.443 104.2 156.347 98.6593 156.347 92.2H154.347C154.347 98.882 155.48 104.722 157.784 109.692L159.598 108.852ZM156.347 92.2C156.347 85.7402 157.443 80.2307 159.596 75.6407L157.786 74.7913C155.48 79.7053 154.347 85.5185 154.347 92.2H156.347ZM159.598 75.6365C161.76 70.9718 164.693 67.4938 168.38 65.1477L167.306 63.4603C163.249 66.0422 160.081 69.8388 157.784 74.7955L159.598 75.6365ZM168.389 65.1419C172.087 62.7321 176.295 61.52 181.043 61.52V59.52C175.935 59.52 171.342 60.8305 167.297 63.4661L168.389 65.1419ZM181.043 61.52C185.791 61.52 189.998 62.7321 193.697 65.1419L194.789 63.4661C190.743 60.8305 186.151 59.52 181.043 59.52V61.52ZM193.712 65.1513C197.456 67.4983 200.416 70.9757 202.576 75.6365L204.39 74.7955C202.091 69.835 198.891 66.0377 194.774 63.4567L193.712 65.1513ZM202.578 75.6407C204.731 80.2307 205.827 85.7402 205.827 92.2H207.827C207.827 85.5185 206.694 79.7053 204.388 74.7913L202.578 75.6407ZM205.827 92.2C205.827 98.6593 204.731 104.2 202.576 108.852L204.39 109.692C206.693 104.722 207.827 98.882 207.827 92.2H205.827ZM202.578 108.847C200.418 113.45 197.456 116.934 193.703 119.342L194.783 121.026C198.891 118.389 202.089 114.598 204.388 109.697L202.578 108.847ZM193.706 119.34C190.006 121.695 185.795 122.88 181.043 122.88V124.88C186.146 124.88 190.735 123.601 194.78 121.028L193.706 119.34ZM181.043 114.936C185.773 114.936 189.54 112.955 192.249 109.05L190.605 107.91C188.268 111.28 185.113 112.936 181.043 112.936V114.936ZM192.242 109.059C194.997 105.177 196.299 99.506 196.299 92.2H194.299C194.299 99.326 193.019 104.509 190.611 107.901L192.242 109.059ZM196.299 92.2C196.299 84.894 194.997 79.2232 192.242 75.3413L190.611 76.4987C193.019 79.8914 194.299 85.074 194.299 92.2H196.299ZM192.249 75.3501C189.54 71.4453 185.773 69.464 181.043 69.464V71.464C185.113 71.464 188.268 73.12 190.605 76.4899L192.249 75.3501ZM181.043 69.464C176.367 69.464 172.606 71.4483 169.843 75.3413L171.474 76.4987C173.874 73.1171 177.036 71.464 181.043 71.464V69.464ZM169.837 75.3501C167.146 79.2303 165.875 84.8972 165.875 92.2H167.875C167.875 85.0708 169.126 79.8843 171.481 76.4899L169.837 75.3501ZM165.875 92.2C165.875 99.5028 167.146 105.17 169.837 109.05L171.481 107.91C169.126 104.516 167.875 99.3292 167.875 92.2H165.875ZM169.843 109.059C172.606 112.952 176.367 114.936 181.043 114.936V112.936C177.036 112.936 173.874 111.283 171.474 107.901L169.843 109.059Z" fill="url(#paint3_linear_852_2077)"/>
<defs>
<linearGradient id="paint0_linear_852_2077" x1="97.7331" y1="6.82914e-08" x2="96.4448" y2="81.375" gradientUnits="userSpaceOnUse">
<stop stop-color="#5078E6"/>
<stop offset="1" stop-color="#78A0FF" stop-opacity="0"/>
</linearGradient>
<linearGradient id="paint1_linear_852_2077" x1="185.281" y1="78.659" x2="159.502" y2="211.735" gradientUnits="userSpaceOnUse">
<stop stop-color="#FA9751"/>
<stop offset="1" stop-color="#FABE4C"/>
</linearGradient>
<linearGradient id="paint2_linear_852_2077" x1="188.407" y1="88.8" x2="31.7837" y2="156.485" gradientUnits="userSpaceOnUse">
<stop stop-color="#5078E6"/>
<stop offset="1" stop-color="#78A0FF"/>
</linearGradient>
<linearGradient id="paint3_linear_852_2077" x1="97.7331" y1="41" x2="96.4448" y2="122.375" gradientUnits="userSpaceOnUse">
<stop stop-color="#5078E6"/>
<stop offset="1" stop-color="#78A0FF" stop-opacity="0"/>
</linearGradient>
</defs>
</svg>
