<svg width="571" height="686" viewBox="0 0 571 686" fill="none" xmlns="http://www.w3.org/2000/svg">
<circle cx="229.077" cy="342.81" r="52.5833" fill="#C4C4C4"/>
<circle cx="229.077" cy="342.81" r="52.5833" fill="url(#paint0_linear_842_1921)"/>
<circle cx="229.077" cy="342.81" r="52.5833" stroke="url(#paint1_linear_842_1921)" stroke-width="10"/>
<path fill-rule="evenodd" clip-rule="evenodd" d="M229.075 306.217L250.907 343.144L250.908 343.144L250.907 343.145L250.908 343.147L242.853 356.771L242.852 356.769L229.933 351.826L237.533 365.767L229.075 380.074L207.242 343.145L207.242 343.144L207.242 343.144L216.585 327.342L231.963 334.422L223.124 316.283L229.075 306.217Z" fill="white"/>
<circle cx="297.557" cy="341.997" r="213.317" stroke="#D2DBE9" stroke-width="3" stroke-dasharray="5 5"/>
<circle cx="225.818" cy="269.848" r="213.317" transform="rotate(90 225.818 269.848)" stroke="#D2DBE9" stroke-width="3" stroke-dasharray="5 5"/>
<circle cx="233.153" cy="412.514" r="213.317" transform="rotate(90 233.153 412.514)" stroke="#D2DBE9" stroke-width="3" stroke-dasharray="5 5"/>
<g filter="url(#filter0_d_842_1921)">
<circle cx="90.4855" cy="341.995" r="40.3547" fill="white"/>
</g>
<path d="M93.7223 329.109V335.265H91.2923V329.109C91.2923 328.672 90.9035 328.461 90.6443 328.461C90.5633 328.461 90.4823 328.478 90.4013 328.51L77.5543 333.354C76.6957 333.678 76.1449 334.488 76.1449 335.411V336.497C74.6707 337.598 73.7148 339.364 73.7148 341.357V335.411C73.7148 333.483 74.8975 331.766 76.6957 331.086L89.5588 326.226C89.9152 326.096 90.2878 326.031 90.6443 326.031C92.2643 326.031 93.7223 327.343 93.7223 329.109Z" fill="#292D32"/>
<path d="M93.7223 329.109V335.265H91.2923V329.109C91.2923 328.672 90.9035 328.461 90.6443 328.461C90.5633 328.461 90.4823 328.478 90.4013 328.51L77.5543 333.354C76.6957 333.678 76.1449 334.488 76.1449 335.411V336.497C74.6707 337.598 73.7148 339.364 73.7148 341.357V335.411C73.7148 333.483 74.8975 331.766 76.6957 331.086L89.5588 326.226C89.9152 326.096 90.2878 326.031 90.6443 326.031C92.2643 326.031 93.7223 327.343 93.7223 329.109Z" fill="url(#paint2_linear_842_1921)"/>
<path d="M104.496 346.203V347.823C104.496 348.26 104.156 348.616 103.703 348.633H101.337C100.479 348.633 99.7011 348.001 99.6363 347.158C99.5877 346.656 99.7821 346.186 100.106 345.862C100.398 345.555 100.803 345.393 101.24 345.393H103.686C104.156 345.409 104.496 345.765 104.496 346.203Z" fill="#292D32"/>
<path d="M104.496 346.203V347.823C104.496 348.26 104.156 348.616 103.703 348.633H101.337C100.479 348.633 99.7011 348.001 99.6363 347.158C99.5877 346.656 99.7821 346.186 100.106 345.862C100.398 345.555 100.803 345.393 101.24 345.393H103.686C104.156 345.409 104.496 345.765 104.496 346.203Z" fill="url(#paint3_linear_842_1921)"/>
<path d="M101.223 343.69H102.876C103.767 343.69 104.496 342.961 104.496 342.07V341.357C104.496 338.003 101.758 335.266 98.4042 335.266H79.8062C78.4292 335.266 77.1655 335.719 76.1449 336.497C74.6707 337.598 73.7148 339.364 73.7148 341.357V352.26C73.7148 355.613 76.4527 358.351 79.8062 358.351H98.4042C101.758 358.351 104.496 355.613 104.496 352.26V351.952C104.496 351.061 103.767 350.332 102.876 350.332H101.466C99.9109 350.332 98.4204 349.376 98.0154 347.87C97.6752 346.638 98.0802 345.456 98.8903 344.662C99.4897 344.046 100.316 343.69 101.223 343.69ZM92.3453 343.366H81.005C80.3408 343.366 79.79 342.815 79.79 342.151C79.79 341.487 80.3408 340.936 81.005 340.936H92.3453C93.0095 340.936 93.5603 341.487 93.5603 342.151C93.5603 342.815 93.0095 343.366 92.3453 343.366Z" fill="#292D32"/>
<path d="M101.223 343.69H102.876C103.767 343.69 104.496 342.961 104.496 342.07V341.357C104.496 338.003 101.758 335.266 98.4042 335.266H79.8062C78.4292 335.266 77.1655 335.719 76.1449 336.497C74.6707 337.598 73.7148 339.364 73.7148 341.357V352.26C73.7148 355.613 76.4527 358.351 79.8062 358.351H98.4042C101.758 358.351 104.496 355.613 104.496 352.26V351.952C104.496 351.061 103.767 350.332 102.876 350.332H101.466C99.9109 350.332 98.4204 349.376 98.0154 347.87C97.6752 346.638 98.0802 345.456 98.8903 344.662C99.4897 344.046 100.316 343.69 101.223 343.69ZM92.3453 343.366H81.005C80.3408 343.366 79.79 342.815 79.79 342.151C79.79 341.487 80.3408 340.936 81.005 340.936H92.3453C93.0095 340.936 93.5603 341.487 93.5603 342.151C93.5603 342.815 93.0095 343.366 92.3453 343.366Z" fill="url(#paint4_linear_842_1921)"/>
<rect x="78.3047" y="340.855" width="15.5524" height="3.45608" rx="1.72804" fill="#C4C4C4"/>
<rect x="78.3047" y="340.855" width="15.5524" height="3.45608" rx="1.72804" fill="url(#paint5_linear_842_1921)"/>
<rect x="99.9062" y="345.176" width="6.04815" height="3.45608" rx="1.72804" fill="#C4C4C4"/>
<rect x="99.9062" y="345.176" width="6.04815" height="3.45608" rx="1.72804" fill="url(#paint6_linear_842_1921)"/>
<g filter="url(#filter1_d_842_1921)">
<circle cx="129.616" cy="442.271" r="40.3547" fill="white"/>
</g>
<path d="M142.717 436.493L131.179 443.177C130.714 443.446 130.13 443.446 129.65 443.177L118.111 436.493C117.287 436.014 117.077 434.89 117.707 434.185C118.141 433.691 118.636 433.286 119.16 433.002L127.282 428.506C129.021 427.532 131.838 427.532 133.576 428.506L141.698 433.002C142.223 433.286 142.717 433.706 143.152 434.185C143.751 434.89 143.541 436.014 142.717 436.493Z" fill="#292D32"/>
<path d="M142.717 436.493L131.179 443.177C130.714 443.446 130.13 443.446 129.65 443.177L118.111 436.493C117.287 436.014 117.077 434.89 117.707 434.185C118.141 433.691 118.636 433.286 119.16 433.002L127.282 428.506C129.021 427.532 131.838 427.532 133.576 428.506L141.698 433.002C142.223 433.286 142.717 433.706 143.152 434.185C143.751 434.89 143.541 436.014 142.717 436.493Z" fill="url(#paint7_linear_842_1921)"/>
<path d="M129.562 445.962V456.182C129.562 457.321 128.408 458.071 127.389 457.576C124.302 456.063 119.102 453.23 119.102 453.23C117.274 452.196 115.775 449.589 115.775 447.446V439.714C115.775 438.53 117.019 437.78 118.038 438.365L128.813 444.614C129.262 444.898 129.562 445.408 129.562 445.962Z" fill="#292D32"/>
<path d="M129.562 445.962V456.182C129.562 457.321 128.408 458.071 127.389 457.576C124.302 456.063 119.102 453.23 119.102 453.23C117.274 452.196 115.775 449.589 115.775 447.446V439.714C115.775 438.53 117.019 437.78 118.038 438.365L128.813 444.614C129.262 444.898 129.562 445.408 129.562 445.962Z" fill="url(#paint8_linear_842_1921)"/>
<path d="M131.27 445.962V456.182C131.27 457.321 132.423 458.071 133.442 457.576C136.529 456.063 141.729 453.23 141.729 453.23C143.558 452.196 145.056 449.589 145.056 447.446V439.714C145.056 438.53 143.812 437.78 142.793 438.365L132.019 444.614C131.569 444.898 131.27 445.408 131.27 445.962Z" fill="#292D32"/>
<path d="M131.27 445.962V456.182C131.27 457.321 132.423 458.071 133.442 457.576C136.529 456.063 141.729 453.23 141.729 453.23C143.558 452.196 145.056 449.589 145.056 447.446V439.714C145.056 438.53 143.812 437.78 142.793 438.365L132.019 444.614C131.569 444.898 131.27 445.408 131.27 445.962Z" fill="url(#paint9_linear_842_1921)"/>
<path d="M131.27 445.962V456.182C131.27 457.321 132.423 458.071 133.442 457.576C136.529 456.063 141.729 453.23 141.729 453.23C143.558 452.196 145.056 449.589 145.056 447.446V439.714C145.056 438.53 143.812 437.78 142.793 438.365L132.019 444.614C131.569 444.898 131.27 445.408 131.27 445.962Z" fill="url(#paint10_linear_842_1921)"/>
<g filter="url(#filter2_d_842_1921)">
<circle cx="131.247" cy="243.351" r="40.3547" fill="white"/>
</g>
<path d="M148.724 248.35C148.724 255.246 143.147 260.824 136.25 260.824L138.121 257.705" stroke="url(#paint11_linear_842_1921)" stroke-width="1.5" stroke-linecap="round" stroke-linejoin="round"/>
<path d="M113.084 237.656C113.084 230.759 118.662 225.182 125.558 225.182L123.687 228.3" stroke="url(#paint12_linear_842_1921)" stroke-width="1.5" stroke-linecap="round" stroke-linejoin="round"/>
<path d="M148.725 229.102V229.298C148.725 229.797 148.333 230.189 147.834 230.189H131.795C131.296 230.189 130.904 229.797 130.904 229.298V229.102C130.904 225.966 131.688 225.182 134.86 225.182H144.769C147.941 225.182 148.725 225.966 148.725 229.102Z" fill="#292D32"/>
<path d="M148.725 229.102V229.298C148.725 229.797 148.333 230.189 147.834 230.189H131.795C131.296 230.189 130.904 229.797 130.904 229.298V229.102C130.904 225.966 131.688 225.182 134.86 225.182H144.769C147.941 225.182 148.725 225.966 148.725 229.102Z" fill="url(#paint13_linear_842_1921)"/>
<path d="M131.795 231.973C131.296 231.973 130.904 232.365 130.904 232.864V234.646V236.41C130.904 239.546 131.688 240.33 134.86 240.33H144.769C147.941 240.33 148.725 239.546 148.725 236.41V234.646V232.864C148.725 232.365 148.333 231.973 147.834 231.973H131.795Z" fill="#292D32"/>
<path d="M131.795 231.973C131.296 231.973 130.904 232.365 130.904 232.864V234.646V236.41C130.904 239.546 131.688 240.33 134.86 240.33H144.769C147.941 240.33 148.725 239.546 148.725 236.41V234.646V232.864C148.725 232.365 148.333 231.973 147.834 231.973H131.795Z" fill="url(#paint14_linear_842_1921)"/>
<path d="M130.904 249.596V249.792C130.904 250.291 130.512 250.683 130.013 250.683H113.975C113.476 250.683 113.084 250.291 113.084 249.792V249.596C113.084 246.46 113.868 245.676 117.04 245.676H126.948C130.12 245.676 130.904 246.46 130.904 249.596Z" fill="#292D32"/>
<path d="M130.904 249.596V249.792C130.904 250.291 130.512 250.683 130.013 250.683H113.975C113.476 250.683 113.084 250.291 113.084 249.792V249.596C113.084 246.46 113.868 245.676 117.04 245.676H126.948C130.12 245.676 130.904 246.46 130.904 249.596Z" fill="url(#paint15_linear_842_1921)"/>
<path d="M113.975 252.465C113.476 252.465 113.084 252.857 113.084 253.356V255.138V256.902C113.084 260.039 113.868 260.823 117.04 260.823H126.948C130.12 260.823 130.904 260.039 130.904 256.902V255.138V253.356C130.904 252.857 130.512 252.465 130.013 252.465H113.975V252.465Z" fill="#292D32"/>
<path d="M113.975 252.465C113.476 252.465 113.084 252.857 113.084 253.356V255.138V256.902C113.084 260.039 113.868 260.823 117.04 260.823H126.948C130.12 260.823 130.904 260.039 130.904 256.902V255.138V253.356C130.904 252.857 130.512 252.465 130.013 252.465H113.975V252.465Z" fill="url(#paint16_linear_842_1921)"/>
<path d="M130.486 228.927C130.486 226.28 132.632 224.135 135.278 224.135H144.144C146.79 224.135 148.936 226.28 148.936 228.927V228.927C148.936 229.985 148.078 230.844 147.019 230.844H132.403C131.345 230.844 130.486 229.985 130.486 228.927V228.927Z" fill="#C4C4C4"/>
<path d="M130.486 228.927C130.486 226.28 132.632 224.135 135.278 224.135H144.144C146.79 224.135 148.936 226.28 148.936 228.927V228.927C148.936 229.985 148.078 230.844 147.019 230.844H132.403C131.345 230.844 130.486 229.985 130.486 228.927V228.927Z" fill="url(#paint17_linear_842_1921)"/>
<path d="M112.875 249.052C112.875 246.405 115.02 244.26 117.667 244.26H126.532C129.179 244.26 131.324 246.405 131.324 249.052V249.052C131.324 250.11 130.466 250.969 129.408 250.969H114.792C113.733 250.969 112.875 250.11 112.875 249.052V249.052Z" fill="#C4C4C4"/>
<path d="M112.875 249.052C112.875 246.405 115.02 244.26 117.667 244.26H126.532C129.179 244.26 131.324 246.405 131.324 249.052V249.052C131.324 250.11 130.466 250.969 129.408 250.969H114.792C113.733 250.969 112.875 250.11 112.875 249.052V249.052Z" fill="url(#paint18_linear_842_1921)"/>
<g filter="url(#filter3_d_842_1921)">
<circle cx="326.907" cy="442.271" r="40.3547" fill="white"/>
</g>
<path d="M317.754 445.836H312.996C311.035 445.836 309.432 447.44 309.432 449.4V458.31C309.432 459.29 310.234 460.092 311.214 460.092H317.754C318.734 460.092 319.536 459.29 319.536 458.31V447.618C319.536 446.638 318.734 445.836 317.754 445.836Z" fill="#292D32"/>
<path d="M317.754 445.836H312.996C311.035 445.836 309.432 447.44 309.432 449.4V458.31C309.432 459.29 310.234 460.092 311.214 460.092H317.754C318.734 460.092 319.536 459.29 319.536 458.31V447.618C319.536 446.638 318.734 445.836 317.754 445.836Z" fill="url(#paint19_linear_842_1921)"/>
<path d="M329.621 438.707H324.863C322.903 438.707 321.299 440.311 321.299 442.271V458.31C321.299 459.29 322.101 460.092 323.081 460.092H331.403C332.383 460.092 333.185 459.29 333.185 458.31V442.271C333.185 440.311 331.599 438.707 329.621 438.707Z" fill="#292D32"/>
<path d="M329.621 438.707H324.863C322.903 438.707 321.299 440.311 321.299 442.271V458.31C321.299 459.29 322.101 460.092 323.081 460.092H331.403C332.383 460.092 333.185 459.29 333.185 458.31V442.271C333.185 440.311 331.599 438.707 329.621 438.707Z" fill="url(#paint20_linear_842_1921)"/>
<path d="M341.509 451.182H336.751C335.771 451.182 334.969 451.984 334.969 452.964V458.31C334.969 459.29 335.771 460.092 336.751 460.092H343.291C344.271 460.092 345.073 459.29 345.073 458.31V454.746C345.073 452.785 343.469 451.182 341.509 451.182Z" fill="#292D32"/>
<path d="M341.509 451.182H336.751C335.771 451.182 334.969 451.984 334.969 452.964V458.31C334.969 459.29 335.771 460.092 336.751 460.092H343.291C344.271 460.092 345.073 459.29 345.073 458.31V454.746C345.073 452.785 343.469 451.182 341.509 451.182Z" fill="url(#paint21_linear_842_1921)"/>
<path d="M332.616 429.529C333.168 428.977 333.382 428.317 333.204 427.747C333.026 427.177 332.473 426.767 331.689 426.642L329.978 426.357C329.907 426.357 329.747 426.232 329.711 426.161L328.766 424.272C328.054 422.829 326.432 422.829 325.719 424.272L324.775 426.161C324.757 426.232 324.596 426.357 324.525 426.357L322.814 426.642C322.03 426.767 321.496 427.177 321.3 427.747C321.121 428.317 321.335 428.977 321.888 429.529L323.206 430.866C323.278 430.919 323.331 431.133 323.313 431.204L322.939 432.844C322.654 434.073 323.117 434.626 323.42 434.84C323.723 435.053 324.383 435.339 325.47 434.697L327.073 433.753C327.145 433.699 327.376 433.699 327.448 433.753L329.034 434.697C329.533 435 329.943 435.089 330.263 435.089C330.638 435.089 330.905 434.946 331.065 434.84C331.368 434.626 331.832 434.073 331.546 432.844L331.172 431.204C331.154 431.115 331.208 430.919 331.279 430.866L332.616 429.529Z" fill="#292D32"/>
<path d="M332.616 429.529C333.168 428.977 333.382 428.317 333.204 427.747C333.026 427.177 332.473 426.767 331.689 426.642L329.978 426.357C329.907 426.357 329.747 426.232 329.711 426.161L328.766 424.272C328.054 422.829 326.432 422.829 325.719 424.272L324.775 426.161C324.757 426.232 324.596 426.357 324.525 426.357L322.814 426.642C322.03 426.767 321.496 427.177 321.3 427.747C321.121 428.317 321.335 428.977 321.888 429.529L323.206 430.866C323.278 430.919 323.331 431.133 323.313 431.204L322.939 432.844C322.654 434.073 323.117 434.626 323.42 434.84C323.723 435.053 324.383 435.339 325.47 434.697L327.073 433.753C327.145 433.699 327.376 433.699 327.448 433.753L329.034 434.697C329.533 435 329.943 435.089 330.263 435.089C330.638 435.089 330.905 434.946 331.065 434.84C331.368 434.626 331.832 434.073 331.546 432.844L331.172 431.204C331.154 431.115 331.208 430.919 331.279 430.866L332.616 429.529Z" fill="url(#paint22_linear_842_1921)"/>
<g filter="url(#filter4_d_842_1921)">
<circle cx="328.538" cy="243.351" r="40.3547" fill="white"/>
</g>
<path d="M327.404 229.385V245.094C327.404 245.669 327.126 246.191 326.655 246.522L314.099 255.317C313.071 256.031 311.608 255.474 311.382 254.237C311.121 252.739 311.469 250.98 312.514 249.082L317.948 239.312L323.068 230.099C323.468 229.385 323.904 228.758 324.356 228.219C325.401 226.999 327.404 227.783 327.404 229.385Z" fill="#292D32"/>
<path d="M327.404 229.385V245.094C327.404 245.669 327.126 246.191 326.655 246.522L314.099 255.317C313.071 256.031 311.608 255.474 311.382 254.237C311.121 252.739 311.469 250.98 312.514 249.082L317.948 239.312L323.068 230.099C323.468 229.385 323.904 228.758 324.356 228.219C325.401 226.999 327.404 227.783 327.404 229.385Z" fill="url(#paint23_linear_842_1921)"/>
<path d="M343.321 255.317L330.764 246.522C330.294 246.191 330.016 245.669 330.016 245.094V229.385C330.016 227.783 332.018 226.999 333.063 228.219C333.516 228.758 333.952 229.385 334.352 230.099L339.472 239.312L344.906 249.082C345.951 250.98 346.299 252.739 346.038 254.237C345.811 255.474 344.349 256.031 343.321 255.317Z" fill="#292D32"/>
<path d="M343.321 255.317L330.764 246.522C330.294 246.191 330.016 245.669 330.016 245.094V229.385C330.016 227.783 332.018 226.999 333.063 228.219C333.516 228.758 333.952 229.385 334.352 230.099L339.472 239.312L344.906 249.082C345.951 250.98 346.299 252.739 346.038 254.237C345.811 255.474 344.349 256.031 343.321 255.317Z" fill="url(#paint24_linear_842_1921)"/>
<path d="M316.971 255.926L327.682 248.785C328.256 248.402 329.197 248.402 329.772 248.785L340.482 255.926C343.321 257.824 342.851 259.374 339.437 259.374H317.999C314.603 259.357 314.132 257.807 316.971 255.926Z" fill="#292D32"/>
<path d="M316.971 255.926L327.682 248.785C328.256 248.402 329.197 248.402 329.772 248.785L340.482 255.926C343.321 257.824 342.851 259.374 339.437 259.374H317.999C314.603 259.357 314.132 257.807 316.971 255.926Z" fill="url(#paint25_linear_842_1921)"/>
<g filter="url(#filter5_d_842_1921)">
<circle cx="367.669" cy="341.995" r="40.3547" fill="white"/>
</g>
<path d="M369.435 328.368C369.574 328.368 369.714 328.368 369.87 328.385V323.23C369.87 322.516 369.278 321.924 368.564 321.924C367.85 321.924 367.258 322.516 367.258 323.23V328.385C367.397 328.368 367.537 328.368 367.693 328.368C359.665 328.768 353.273 335.386 353.273 343.519V346.898C353.273 348.813 354.841 350.381 356.757 350.381H380.372C382.288 350.381 383.855 348.813 383.855 346.898V343.519C383.855 335.386 377.463 328.768 369.435 328.368Z" fill="#292D32"/>
<path d="M369.435 328.368C369.574 328.368 369.714 328.368 369.87 328.385V323.23C369.87 322.516 369.278 321.924 368.564 321.924C367.85 321.924 367.258 322.516 367.258 323.23V328.385C367.397 328.368 367.537 328.368 367.693 328.368C359.665 328.768 353.273 335.386 353.273 343.519V346.898C353.273 348.813 354.841 350.381 356.757 350.381H380.372C382.288 350.381 383.855 348.813 383.855 346.898V343.519C383.855 335.386 377.463 328.768 369.435 328.368Z" fill="url(#paint26_linear_842_1921)"/>
<path d="M373.317 352.105C373.892 352.105 374.31 352.645 374.17 353.203C373.508 355.693 371.244 357.522 368.562 357.522C365.88 357.522 363.616 355.693 362.955 353.203C362.815 352.645 363.233 352.105 363.808 352.105H373.317Z" fill="#292D32"/>
<path d="M373.317 352.105C373.892 352.105 374.31 352.645 374.17 353.203C373.508 355.693 371.244 357.522 368.562 357.522C365.88 357.522 363.616 355.693 362.955 353.203C362.815 352.645 363.233 352.105 363.808 352.105H373.317Z" fill="url(#paint27_linear_842_1921)"/>
<g filter="url(#filter6_d_842_1921)">
<circle cx="228.575" cy="203.655" r="40.3547" transform="rotate(90 228.575 203.655)" fill="white"/>
</g>
<path d="M220.086 190.756H219.64V186.301C219.64 185.571 219.034 184.965 218.304 184.965C217.573 184.965 216.967 185.571 216.967 186.301V190.756H216.522C213.688 190.756 212.066 192.378 212.066 195.212V205.904C212.066 208.737 213.688 210.359 216.522 210.359H216.967V221.942C216.967 222.673 217.573 223.279 218.304 223.279C219.034 223.279 219.64 222.673 219.64 221.942V210.359H220.086C222.919 210.359 224.541 208.737 224.541 205.904V195.212C224.541 192.378 222.919 190.756 220.086 190.756Z" fill="#292D32"/>
<path d="M220.086 190.756H219.64V186.301C219.64 185.571 219.034 184.965 218.304 184.965C217.573 184.965 216.967 185.571 216.967 186.301V190.756H216.522C213.688 190.756 212.066 192.378 212.066 195.212V205.904C212.066 208.737 213.688 210.359 216.522 210.359H216.967V221.942C216.967 222.673 217.573 223.279 218.304 223.279C219.034 223.279 219.64 222.673 219.64 221.942V210.359H220.086C222.919 210.359 224.541 208.737 224.541 205.904V195.212C224.541 192.378 222.919 190.756 220.086 190.756Z" fill="url(#paint28_linear_842_1921)"/>
<path d="M239.689 197.885H239.244V186.301C239.244 185.571 238.638 184.965 237.907 184.965C237.176 184.965 236.571 185.571 236.571 186.301V197.885H236.125C233.292 197.885 231.67 199.506 231.67 202.34V213.032C231.67 215.865 233.292 217.487 236.125 217.487H236.571V221.942C236.571 222.673 237.176 223.279 237.907 223.279C238.638 223.279 239.244 222.673 239.244 221.942V217.487H239.689C242.523 217.487 244.144 215.865 244.144 213.032V202.34C244.144 199.506 242.523 197.885 239.689 197.885Z" fill="#292D32"/>
<path d="M239.689 197.885H239.244V186.301C239.244 185.571 238.638 184.965 237.907 184.965C237.176 184.965 236.571 185.571 236.571 186.301V197.885H236.125C233.292 197.885 231.67 199.506 231.67 202.34V213.032C231.67 215.865 233.292 217.487 236.125 217.487H236.571V221.942C236.571 222.673 237.176 223.279 237.907 223.279C238.638 223.279 239.244 222.673 239.244 221.942V217.487H239.689C242.523 217.487 244.144 215.865 244.144 213.032V202.34C244.144 199.506 242.523 197.885 239.689 197.885Z" fill="url(#paint29_linear_842_1921)"/>
<rect x="244.738" y="197.947" width="22.8102" height="13.3059" rx="4" transform="rotate(90 244.738 197.947)" fill="#C4C4C4"/>
<rect x="244.738" y="197.947" width="22.8102" height="13.3059" rx="4" transform="rotate(90 244.738 197.947)" fill="url(#paint30_linear_842_1921)"/>
<g filter="url(#filter7_d_842_1921)">
<circle cx="228.263" cy="482.218" r="40.3547" transform="rotate(90 228.263 482.218)" fill="white"/>
</g>
<path d="M236.288 468.027H221.863C217.168 468.027 215.467 469.728 215.467 474.508V495.567C215.467 500.347 217.168 502.048 221.863 502.048H236.271C240.982 502.048 242.683 500.347 242.683 495.567V474.508C242.683 469.728 240.982 468.027 236.288 468.027ZM229.075 497.455C227.442 497.455 226.098 496.112 226.098 494.479C226.098 492.846 227.442 491.502 229.075 491.502C230.708 491.502 232.052 492.846 232.052 494.479C232.052 496.112 230.708 497.455 229.075 497.455ZM232.477 475.257H225.673C224.976 475.257 224.397 474.678 224.397 473.981C224.397 473.284 224.976 472.705 225.673 472.705H232.477C233.175 472.705 233.753 473.284 233.753 473.981C233.753 474.678 233.175 475.257 232.477 475.257Z" fill="#292D32"/>
<path d="M236.288 468.027H221.863C217.168 468.027 215.467 469.728 215.467 474.508V495.567C215.467 500.347 217.168 502.048 221.863 502.048H236.271C240.982 502.048 242.683 500.347 242.683 495.567V474.508C242.683 469.728 240.982 468.027 236.288 468.027ZM229.075 497.455C227.442 497.455 226.098 496.112 226.098 494.479C226.098 492.846 227.442 491.502 229.075 491.502C230.708 491.502 232.052 492.846 232.052 494.479C232.052 496.112 230.708 497.455 229.075 497.455ZM232.477 475.257H225.673C224.976 475.257 224.397 474.678 224.397 473.981C224.397 473.284 224.976 472.705 225.673 472.705H232.477C233.175 472.705 233.753 473.284 233.753 473.981C233.753 474.678 233.175 475.257 232.477 475.257Z" fill="url(#paint31_linear_842_1921)"/>
<circle cx="225.815" cy="58.2901" r="58.2901" fill="#E3EDFF"/>
<g opacity="0.5">
<path d="M225.641 31.0582L210.429 46.27C209.854 46.8451 209.854 47.7365 210.429 48.3116L214.139 52.0211C214.714 52.5962 215.605 52.5962 216.181 52.0211L225.641 42.5605C226.216 41.9854 227.108 41.9854 227.683 42.5605L237.143 52.0211C237.719 52.5962 238.61 52.5962 239.185 52.0211L242.895 48.3116C243.47 47.7365 243.47 46.8451 242.895 46.27L227.683 31.0582C227.108 30.5118 226.187 30.5118 225.641 31.0582Z" fill="#224DCF"/>
<path d="M225.641 86.5564L210.429 71.3446C209.854 70.7695 209.854 69.878 210.429 69.3029L214.139 65.5934C214.714 65.0183 215.605 65.0183 216.181 65.5934L225.641 75.0541C226.216 75.6292 227.108 75.6292 227.683 75.0541L237.143 65.5934C237.719 65.0183 238.61 65.0183 239.185 65.5934L242.895 69.3029C243.47 69.878 243.47 70.7695 242.895 71.3446L227.683 86.5564C227.108 87.1027 226.187 87.1027 225.641 86.5564Z" fill="#224DCF"/>
<path d="M249.938 53.3434L254.367 57.7717C254.942 58.3469 254.942 59.2383 254.367 59.8134L249.938 64.2418C249.363 64.8169 248.472 64.8169 247.897 64.2418L243.468 59.8134C242.893 59.2383 242.893 58.3469 243.468 57.7717L247.897 53.3434C248.472 52.797 249.392 52.797 249.938 53.3434Z" fill="#224DCF"/>
<path d="M205.368 53.3434L209.797 57.7717C210.372 58.3469 210.372 59.2383 209.797 59.8134L205.368 64.2418C204.793 64.8169 203.902 64.8169 203.326 64.2418L198.898 59.8134C198.323 59.2383 198.323 58.3469 198.898 57.7717L203.326 53.3434C203.902 52.797 204.822 52.797 205.368 53.3434Z" fill="#224DCF"/>
<path d="M227.653 52.7126L232.742 57.8023C233.317 58.3775 233.317 59.2689 232.742 59.844L227.653 64.9338C227.078 65.5089 226.186 65.5089 225.611 64.9338L220.521 59.844C219.946 59.2689 219.946 58.3775 220.521 57.8023L225.611 52.7126C226.186 52.1375 227.106 52.1375 227.653 52.7126Z" fill="#224DCF"/>
</g>
<circle cx="233.153" cy="627.333" r="58.2901" fill="#E3EDFF"/>
<path d="M218.787 619.101L232.503 613.005C233.107 612.746 233.797 612.746 234.372 613.005L248.089 619.101C249.296 619.647 250.418 618.181 249.584 617.145L235.206 599.576C234.228 598.368 232.618 598.368 231.64 599.576L217.263 617.145C216.457 618.181 217.579 619.647 218.787 619.101Z" fill="#839DE7"/>
<path d="M218.787 635.778L232.532 641.875C233.136 642.133 233.826 642.133 234.401 641.875L248.146 635.778C249.354 635.232 250.476 636.699 249.642 637.734L235.264 655.304C234.286 656.511 232.676 656.511 231.698 655.304L217.32 637.734C216.458 636.699 217.55 635.232 218.787 635.778Z" fill="#839DE7"/>
<path d="M232.821 620.223L220.944 626.147C219.88 626.665 219.88 628.189 220.944 628.706L232.821 634.63C233.223 634.831 233.712 634.831 234.114 634.63L245.991 628.706C247.055 628.189 247.055 626.665 245.991 626.147L234.114 620.223C233.683 620.022 233.223 620.022 232.821 620.223Z" fill="#839DE7"/>
<circle cx="511.968" cy="341.995" r="58.2901" fill="#E3EDFF"/>
<path d="M504.395 353.24H512.271L505.715 342.972C509.455 341.195 511.479 337.728 511.479 332.927C511.479 326.038 506.903 322.127 498.852 322.127H485.477V353.24H492.428V344.35H498.852H499.512L504.395 353.24ZM492.428 338.483V327.949H498.852C502.68 327.949 504.879 329.683 504.879 333.15C504.879 336.705 502.68 338.483 498.852 338.483H492.428Z" fill="#839DE7"/>
<path d="M527.326 329.105C524.114 329.105 521.518 330.438 519.846 332.839V329.327H513.07V361.862H519.846V349.773C521.562 352.173 524.158 353.506 527.458 353.506C534.101 353.506 538.457 348.662 538.457 341.417C538.457 334.039 533.969 329.105 527.326 329.105ZM525.742 347.817C522.266 347.817 519.846 345.15 519.846 341.195C519.846 337.328 522.266 334.616 525.742 334.616C529.217 334.616 531.593 337.372 531.593 341.195C531.593 345.106 529.217 347.817 525.742 347.817Z" fill="#839DE7"/>
<defs>
<filter id="filter0_d_842_1921" x="0.130859" y="255.641" width="180.709" height="180.709" filterUnits="userSpaceOnUse" color-interpolation-filters="sRGB">
<feFlood flood-opacity="0" result="BackgroundImageFix"/>
<feColorMatrix in="SourceAlpha" type="matrix" values="0 0 0 0 0 0 0 0 0 0 0 0 0 0 0 0 0 0 127 0" result="hardAlpha"/>
<feOffset dy="4"/>
<feGaussianBlur stdDeviation="25"/>
<feComposite in2="hardAlpha" operator="out"/>
<feColorMatrix type="matrix" values="0 0 0 0 0.778646 0 0 0 0 0.788677 0 0 0 0 0.8125 0 0 0 0.45 0"/>
<feBlend mode="normal" in2="BackgroundImageFix" result="effect1_dropShadow_842_1921"/>
<feBlend mode="normal" in="SourceGraphic" in2="effect1_dropShadow_842_1921" result="shape"/>
</filter>
<filter id="filter1_d_842_1921" x="39.2617" y="355.916" width="180.709" height="180.709" filterUnits="userSpaceOnUse" color-interpolation-filters="sRGB">
<feFlood flood-opacity="0" result="BackgroundImageFix"/>
<feColorMatrix in="SourceAlpha" type="matrix" values="0 0 0 0 0 0 0 0 0 0 0 0 0 0 0 0 0 0 127 0" result="hardAlpha"/>
<feOffset dy="4"/>
<feGaussianBlur stdDeviation="25"/>
<feComposite in2="hardAlpha" operator="out"/>
<feColorMatrix type="matrix" values="0 0 0 0 0.778646 0 0 0 0 0.788677 0 0 0 0 0.8125 0 0 0 0.45 0"/>
<feBlend mode="normal" in2="BackgroundImageFix" result="effect1_dropShadow_842_1921"/>
<feBlend mode="normal" in="SourceGraphic" in2="effect1_dropShadow_842_1921" result="shape"/>
</filter>
<filter id="filter2_d_842_1921" x="40.8926" y="156.996" width="180.709" height="180.709" filterUnits="userSpaceOnUse" color-interpolation-filters="sRGB">
<feFlood flood-opacity="0" result="BackgroundImageFix"/>
<feColorMatrix in="SourceAlpha" type="matrix" values="0 0 0 0 0 0 0 0 0 0 0 0 0 0 0 0 0 0 127 0" result="hardAlpha"/>
<feOffset dy="4"/>
<feGaussianBlur stdDeviation="25"/>
<feComposite in2="hardAlpha" operator="out"/>
<feColorMatrix type="matrix" values="0 0 0 0 0.778646 0 0 0 0 0.788677 0 0 0 0 0.8125 0 0 0 0.45 0"/>
<feBlend mode="normal" in2="BackgroundImageFix" result="effect1_dropShadow_842_1921"/>
<feBlend mode="normal" in="SourceGraphic" in2="effect1_dropShadow_842_1921" result="shape"/>
</filter>
<filter id="filter3_d_842_1921" x="236.553" y="355.916" width="180.709" height="180.709" filterUnits="userSpaceOnUse" color-interpolation-filters="sRGB">
<feFlood flood-opacity="0" result="BackgroundImageFix"/>
<feColorMatrix in="SourceAlpha" type="matrix" values="0 0 0 0 0 0 0 0 0 0 0 0 0 0 0 0 0 0 127 0" result="hardAlpha"/>
<feOffset dy="4"/>
<feGaussianBlur stdDeviation="25"/>
<feComposite in2="hardAlpha" operator="out"/>
<feColorMatrix type="matrix" values="0 0 0 0 0.778646 0 0 0 0 0.788677 0 0 0 0 0.8125 0 0 0 0.45 0"/>
<feBlend mode="normal" in2="BackgroundImageFix" result="effect1_dropShadow_842_1921"/>
<feBlend mode="normal" in="SourceGraphic" in2="effect1_dropShadow_842_1921" result="shape"/>
</filter>
<filter id="filter4_d_842_1921" x="238.184" y="156.996" width="180.709" height="180.709" filterUnits="userSpaceOnUse" color-interpolation-filters="sRGB">
<feFlood flood-opacity="0" result="BackgroundImageFix"/>
<feColorMatrix in="SourceAlpha" type="matrix" values="0 0 0 0 0 0 0 0 0 0 0 0 0 0 0 0 0 0 127 0" result="hardAlpha"/>
<feOffset dy="4"/>
<feGaussianBlur stdDeviation="25"/>
<feComposite in2="hardAlpha" operator="out"/>
<feColorMatrix type="matrix" values="0 0 0 0 0.778646 0 0 0 0 0.788677 0 0 0 0 0.8125 0 0 0 0.45 0"/>
<feBlend mode="normal" in2="BackgroundImageFix" result="effect1_dropShadow_842_1921"/>
<feBlend mode="normal" in="SourceGraphic" in2="effect1_dropShadow_842_1921" result="shape"/>
</filter>
<filter id="filter5_d_842_1921" x="277.314" y="255.641" width="180.709" height="180.709" filterUnits="userSpaceOnUse" color-interpolation-filters="sRGB">
<feFlood flood-opacity="0" result="BackgroundImageFix"/>
<feColorMatrix in="SourceAlpha" type="matrix" values="0 0 0 0 0 0 0 0 0 0 0 0 0 0 0 0 0 0 127 0" result="hardAlpha"/>
<feOffset dy="4"/>
<feGaussianBlur stdDeviation="25"/>
<feComposite in2="hardAlpha" operator="out"/>
<feColorMatrix type="matrix" values="0 0 0 0 0.778646 0 0 0 0 0.788677 0 0 0 0 0.8125 0 0 0 0.45 0"/>
<feBlend mode="normal" in2="BackgroundImageFix" result="effect1_dropShadow_842_1921"/>
<feBlend mode="normal" in="SourceGraphic" in2="effect1_dropShadow_842_1921" result="shape"/>
</filter>
<filter id="filter6_d_842_1921" x="138.221" y="117.301" width="180.709" height="180.709" filterUnits="userSpaceOnUse" color-interpolation-filters="sRGB">
<feFlood flood-opacity="0" result="BackgroundImageFix"/>
<feColorMatrix in="SourceAlpha" type="matrix" values="0 0 0 0 0 0 0 0 0 0 0 0 0 0 0 0 0 0 127 0" result="hardAlpha"/>
<feOffset dy="4"/>
<feGaussianBlur stdDeviation="25"/>
<feComposite in2="hardAlpha" operator="out"/>
<feColorMatrix type="matrix" values="0 0 0 0 0.778646 0 0 0 0 0.788677 0 0 0 0 0.8125 0 0 0 0.45 0"/>
<feBlend mode="normal" in2="BackgroundImageFix" result="effect1_dropShadow_842_1921"/>
<feBlend mode="normal" in="SourceGraphic" in2="effect1_dropShadow_842_1921" result="shape"/>
</filter>
<filter id="filter7_d_842_1921" x="137.908" y="395.863" width="180.709" height="180.709" filterUnits="userSpaceOnUse" color-interpolation-filters="sRGB">
<feFlood flood-opacity="0" result="BackgroundImageFix"/>
<feColorMatrix in="SourceAlpha" type="matrix" values="0 0 0 0 0 0 0 0 0 0 0 0 0 0 0 0 0 0 127 0" result="hardAlpha"/>
<feOffset dy="4"/>
<feGaussianBlur stdDeviation="25"/>
<feComposite in2="hardAlpha" operator="out"/>
<feColorMatrix type="matrix" values="0 0 0 0 0.778646 0 0 0 0 0.788677 0 0 0 0 0.8125 0 0 0 0.45 0"/>
<feBlend mode="normal" in2="BackgroundImageFix" result="effect1_dropShadow_842_1921"/>
<feBlend mode="normal" in="SourceGraphic" in2="effect1_dropShadow_842_1921" result="shape"/>
</filter>
<linearGradient id="paint0_linear_842_1921" x1="260.806" y1="378.512" x2="260.806" y2="318.195" gradientUnits="userSpaceOnUse">
<stop stop-color="#FABE4C"/>
<stop offset="1" stop-color="#FA9751"/>
</linearGradient>
<linearGradient id="paint1_linear_842_1921" x1="234.613" y1="297.607" x2="228.77" y2="391.703" gradientUnits="userSpaceOnUse">
<stop stop-color="#FABE4C"/>
<stop offset="1" stop-color="#FA9751"/>
</linearGradient>
<linearGradient id="paint2_linear_842_1921" x1="73.7148" y1="326.031" x2="88.5115" y2="345.348" gradientUnits="userSpaceOnUse">
<stop stop-color="#78A0FF"/>
<stop offset="1" stop-color="#5078E6"/>
</linearGradient>
<linearGradient id="paint3_linear_842_1921" x1="99.6289" y1="345.393" x2="102.618" y2="349.883" gradientUnits="userSpaceOnUse">
<stop stop-color="#78A0FF"/>
<stop offset="1" stop-color="#5078E6"/>
</linearGradient>
<linearGradient id="paint4_linear_842_1921" x1="73.7148" y1="335.266" x2="95.877" y2="364.815" gradientUnits="userSpaceOnUse">
<stop stop-color="#78A0FF"/>
<stop offset="1" stop-color="#5078E6"/>
</linearGradient>
<linearGradient id="paint5_linear_842_1921" x1="78.3047" y1="340.855" x2="79.7684" y2="347.442" gradientUnits="userSpaceOnUse">
<stop stop-color="#FECF8E"/>
<stop offset="1" stop-color="#D27624"/>
</linearGradient>
<linearGradient id="paint6_linear_842_1921" x1="99.9062" y1="345.176" x2="102.884" y2="350.386" gradientUnits="userSpaceOnUse">
<stop stop-color="#FECF8E"/>
<stop offset="1" stop-color="#D27624"/>
</linearGradient>
<linearGradient id="paint7_linear_842_1921" x1="117.34" y1="427.775" x2="131.07" y2="450.791" gradientUnits="userSpaceOnUse">
<stop stop-color="#78A0FF"/>
<stop offset="1" stop-color="#5078E6"/>
</linearGradient>
<linearGradient id="paint8_linear_842_1921" x1="115.775" y1="438.162" x2="134.202" y2="451.144" gradientUnits="userSpaceOnUse">
<stop stop-color="#78A0FF"/>
<stop offset="1" stop-color="#5078E6"/>
</linearGradient>
<linearGradient id="paint9_linear_842_1921" x1="131.27" y1="438.162" x2="149.697" y2="451.144" gradientUnits="userSpaceOnUse">
<stop stop-color="#78A0FF"/>
<stop offset="1" stop-color="#5078E6"/>
</linearGradient>
<linearGradient id="paint10_linear_842_1921" x1="131.27" y1="438.162" x2="149.697" y2="451.144" gradientUnits="userSpaceOnUse">
<stop stop-color="#FECF8E"/>
<stop offset="1" stop-color="#D27624"/>
</linearGradient>
<linearGradient id="paint11_linear_842_1921" x1="136.25" y1="248.35" x2="148.724" y2="260.824" gradientUnits="userSpaceOnUse">
<stop stop-color="#78A0FF"/>
<stop offset="1" stop-color="#5078E6"/>
</linearGradient>
<linearGradient id="paint12_linear_842_1921" x1="113.084" y1="225.182" x2="125.558" y2="237.656" gradientUnits="userSpaceOnUse">
<stop stop-color="#78A0FF"/>
<stop offset="1" stop-color="#5078E6"/>
</linearGradient>
<linearGradient id="paint13_linear_842_1921" x1="130.904" y1="225.182" x2="133.513" y2="234.464" gradientUnits="userSpaceOnUse">
<stop stop-color="#78A0FF"/>
<stop offset="1" stop-color="#5078E6"/>
</linearGradient>
<linearGradient id="paint14_linear_842_1921" x1="130.904" y1="231.973" x2="137.33" y2="245.674" gradientUnits="userSpaceOnUse">
<stop stop-color="#78A0FF"/>
<stop offset="1" stop-color="#5078E6"/>
</linearGradient>
<linearGradient id="paint15_linear_842_1921" x1="113.084" y1="245.676" x2="115.692" y2="254.958" gradientUnits="userSpaceOnUse">
<stop stop-color="#78A0FF"/>
<stop offset="1" stop-color="#5078E6"/>
</linearGradient>
<linearGradient id="paint16_linear_842_1921" x1="113.084" y1="252.465" x2="119.51" y2="266.167" gradientUnits="userSpaceOnUse">
<stop stop-color="#78A0FF"/>
<stop offset="1" stop-color="#5078E6"/>
</linearGradient>
<linearGradient id="paint17_linear_842_1921" x1="130.486" y1="224.135" x2="134.796" y2="235.985" gradientUnits="userSpaceOnUse">
<stop stop-color="#FECF8E"/>
<stop offset="1" stop-color="#D27624"/>
</linearGradient>
<linearGradient id="paint18_linear_842_1921" x1="112.875" y1="244.26" x2="117.184" y2="256.11" gradientUnits="userSpaceOnUse">
<stop stop-color="#FECF8E"/>
<stop offset="1" stop-color="#D27624"/>
</linearGradient>
<linearGradient id="paint19_linear_842_1921" x1="309.432" y1="445.836" x2="322.883" y2="455.37" gradientUnits="userSpaceOnUse">
<stop stop-color="#78A0FF"/>
<stop offset="1" stop-color="#5078E6"/>
</linearGradient>
<linearGradient id="paint20_linear_842_1921" x1="321.299" y1="438.707" x2="339.46" y2="448.802" gradientUnits="userSpaceOnUse">
<stop stop-color="#78A0FF"/>
<stop offset="1" stop-color="#5078E6"/>
</linearGradient>
<linearGradient id="paint21_linear_842_1921" x1="334.969" y1="451.182" x2="343.809" y2="461.206" gradientUnits="userSpaceOnUse">
<stop stop-color="#78A0FF"/>
<stop offset="1" stop-color="#5078E6"/>
</linearGradient>
<linearGradient id="paint22_linear_842_1921" x1="321.238" y1="423.189" x2="333.139" y2="435.216" gradientUnits="userSpaceOnUse">
<stop stop-color="#FECF8E"/>
<stop offset="1" stop-color="#D27624"/>
</linearGradient>
<linearGradient id="paint23_linear_842_1921" x1="311.299" y1="227.623" x2="335.506" y2="241.542" gradientUnits="userSpaceOnUse">
<stop stop-color="#78A0FF"/>
<stop offset="1" stop-color="#5078E6"/>
</linearGradient>
<linearGradient id="paint24_linear_842_1921" x1="330.016" y1="227.623" x2="354.223" y2="241.542" gradientUnits="userSpaceOnUse">
<stop stop-color="#78A0FF"/>
<stop offset="1" stop-color="#5078E6"/>
</linearGradient>
<linearGradient id="paint25_linear_842_1921" x1="315.113" y1="248.498" x2="322.607" y2="267.256" gradientUnits="userSpaceOnUse">
<stop stop-color="#FECF8E"/>
<stop offset="1" stop-color="#D27624"/>
</linearGradient>
<linearGradient id="paint26_linear_842_1921" x1="353.273" y1="321.924" x2="381.657" y2="352.426" gradientUnits="userSpaceOnUse">
<stop stop-color="#78A0FF"/>
<stop offset="1" stop-color="#5078E6"/>
</linearGradient>
<linearGradient id="paint27_linear_842_1921" x1="362.928" y1="352.105" x2="367.157" y2="360.905" gradientUnits="userSpaceOnUse">
<stop stop-color="#FECF8E"/>
<stop offset="1" stop-color="#D27624"/>
</linearGradient>
<linearGradient id="paint28_linear_842_1921" x1="212.066" y1="184.965" x2="234.624" y2="192.309" gradientUnits="userSpaceOnUse">
<stop stop-color="#78A0FF"/>
<stop offset="1" stop-color="#5078E6"/>
</linearGradient>
<linearGradient id="paint29_linear_842_1921" x1="231.67" y1="184.965" x2="254.227" y2="192.309" gradientUnits="userSpaceOnUse">
<stop stop-color="#78A0FF"/>
<stop offset="1" stop-color="#5078E6"/>
</linearGradient>
<linearGradient id="paint30_linear_842_1921" x1="244.738" y1="197.947" x2="256.321" y2="217.803" gradientUnits="userSpaceOnUse">
<stop stop-color="#FECF8E"/>
<stop offset="1" stop-color="#D27624"/>
</linearGradient>
<linearGradient id="paint31_linear_842_1921" x1="215.467" y1="468.027" x2="248.658" y2="494.58" gradientUnits="userSpaceOnUse">
<stop stop-color="#78A0FF"/>
<stop offset="1" stop-color="#5078E6"/>
</linearGradient>
</defs>
</svg>
