<svg width="345" height="210" viewBox="0 0 345 210" fill="none" xmlns="http://www.w3.org/2000/svg">
<mask id="mask0_858_2034" style="mask-type:alpha" maskUnits="userSpaceOnUse" x="0" y="0" width="345" height="210">
<rect width="345" height="210" fill="#5078E6"/>
</mask>
<g mask="url(#mask0_858_2034)">
<g filter="url(#filter0_f_858_2034)">
<ellipse cx="345" cy="74.5699" rx="258.75" ry="183.033" fill="#6CCAFF"/>
</g>
<rect opacity="0.23" x="177.291" y="15.0605" width="91.928" height="91.928" rx="45.964" fill="white"/>
<path d="M233.295 192.069C233.295 192.028 233.321 191.987 233.321 191.932V178.882C233.321 176.794 231.708 175.105 229.713 175.105H224.557L226.407 173.498C226.827 173.127 226.88 172.481 226.538 172.042C226.184 171.602 225.568 171.547 225.148 171.904L221.212 175.338C220.989 175.531 220.857 175.819 220.857 176.135C220.857 176.451 220.989 176.726 221.212 176.932L225.148 180.366C225.331 180.531 225.554 180.599 225.777 180.599C226.053 180.599 226.342 180.476 226.538 180.229C226.893 179.789 226.827 179.143 226.407 178.773L224.557 177.165H229.713C230.619 177.165 231.353 177.935 231.353 178.882V191.932C231.353 191.987 231.38 192.028 231.38 192.069C229.674 192.523 228.401 194.13 228.401 196.053C228.401 198.333 230.16 200.174 232.337 200.174C234.515 200.174 236.273 198.333 236.273 196.053C236.273 194.13 235.001 192.523 233.295 192.069Z" fill="white"/>
<path d="M225.097 195.943L221.161 192.509C220.741 192.138 220.124 192.207 219.77 192.646C219.416 193.086 219.482 193.732 219.901 194.102L221.751 195.71H216.595C215.69 195.71 214.955 194.94 214.955 193.993V180.943C214.955 180.888 214.929 180.847 214.929 180.806C216.635 180.352 217.907 178.745 217.907 176.822C217.907 174.542 216.149 172.701 213.971 172.701C211.793 172.701 210.035 174.542 210.035 176.822C210.035 178.745 211.308 180.352 213.013 180.806C213.013 180.847 212.987 180.888 212.987 180.943V193.993C212.987 196.08 214.601 197.77 216.595 197.77H221.751L219.901 199.377C219.482 199.748 219.429 200.394 219.77 200.833C219.967 201.08 220.243 201.204 220.531 201.204C220.754 201.204 220.977 201.122 221.161 200.971L225.097 197.536C225.32 197.344 225.451 197.056 225.451 196.74C225.451 196.424 225.32 196.149 225.097 195.943Z" fill="white"/>
<rect opacity="0.12" x="259.119" y="142.75" width="61.4808" height="61.4808" rx="30.7404" stroke="white" stroke-width="2"/>
<circle cx="316.459" cy="153.125" r="11.3747" fill="white" stroke="#62ABF4" stroke-width="4"/>
<mask id="mask1_858_2034" style="mask-type:alpha" maskUnits="userSpaceOnUse" x="310" y="147" width="12" height="12">
<rect x="310.963" y="147.631" width="10.991" height="10.991" fill="#D9D9D9"/>
</mask>
<g mask="url(#mask1_858_2034)">
<path d="M315.851 156.481V153.733H313.104V152.519H315.851V149.771H317.065V152.519H319.813V153.733H317.065V156.481H315.851Z" fill="#60A8F1"/>
</g>
<rect x="115" y="3.42188" width="42.9445" height="42.9445" rx="21.4722" fill="white"/>
<path d="M139.924 139.747C139.561 139.367 138.934 139.626 138.934 140.154V143.385C138.934 144.736 140.03 145.856 141.365 145.856C142.205 145.866 143.372 145.866 144.371 145.866C144.875 145.866 145.141 145.246 144.787 144.875C143.514 143.533 141.232 141.117 139.924 139.747Z" fill="#5993EE"/>
<path d="M144.079 147.134H141.524C139.428 147.134 137.722 145.348 137.722 143.154V140.478C137.722 139.969 137.324 139.553 136.838 139.553H133.089C130.366 139.553 128.164 141.404 128.164 144.709V152.911C128.164 156.216 130.366 158.067 133.089 158.067H140.039C142.762 158.067 144.963 156.216 144.963 152.911V148.06C144.963 147.551 144.566 147.134 144.079 147.134ZM136.122 154.133H132.585C132.222 154.133 131.922 153.818 131.922 153.438C131.922 153.059 132.222 152.744 132.585 152.744H136.122C136.484 152.744 136.785 153.059 136.785 153.438C136.785 153.818 136.484 154.133 136.122 154.133ZM137.89 150.43H132.585C132.222 150.43 131.922 150.115 131.922 149.736C131.922 149.356 132.222 149.041 132.585 149.041H137.89C138.253 149.041 138.553 149.356 138.553 149.736C138.553 150.115 138.253 150.43 137.89 150.43Z" fill="#5993EE"/>
<rect x="253.959" y="23.2734" width="26.0119" height="26.0119" rx="13.006" fill="white"/>
<path d="M269.055 155.205C268.835 154.975 268.455 155.132 268.455 155.452V157.409C268.455 158.227 269.119 158.906 269.928 158.906C270.437 158.911 271.144 158.911 271.749 158.911C272.054 158.911 272.215 158.536 272 158.311C271.229 157.498 269.848 156.035 269.055 155.205Z" fill="#5993EE"/>
<path d="M271.572 159.678H270.024C268.755 159.678 267.721 158.596 267.721 157.267V155.647C267.721 155.338 267.48 155.086 267.185 155.086H264.915C263.265 155.086 261.932 156.207 261.932 158.209V163.177C261.932 165.179 263.265 166.3 264.915 166.3H269.124C270.774 166.3 272.107 165.179 272.107 163.177V160.239C272.107 159.93 271.866 159.678 271.572 159.678ZM266.752 163.917H264.609C264.39 163.917 264.208 163.727 264.208 163.497C264.208 163.267 264.39 163.076 264.609 163.076H266.752C266.971 163.076 267.153 163.267 267.153 163.497C267.153 163.727 266.971 163.917 266.752 163.917ZM267.823 161.674H264.609C264.39 161.674 264.208 161.484 264.208 161.254C264.208 161.024 264.39 160.833 264.609 160.833H267.823C268.042 160.833 268.224 161.024 268.224 161.254C268.224 161.484 268.042 161.674 267.823 161.674Z" fill="#5993EE"/>
<g filter="url(#filter1_d_858_2034)">
<rect x="211.518" y="88.3027" width="119.107" height="39.0179" rx="19.5089" fill="white"/>
</g>
<path d="M253.482 101.886C253.092 101.886 252.717 101.835 252.357 101.733C251.997 101.625 251.715 101.49 251.511 101.328L251.871 100.644C252.081 100.794 252.336 100.914 252.636 101.004C252.936 101.094 253.239 101.139 253.545 101.139C254.301 101.139 254.679 100.923 254.679 100.491C254.679 100.347 254.628 100.233 254.526 100.149C254.424 100.065 254.295 100.005 254.139 99.969C253.989 99.927 253.773 99.882 253.491 99.834C253.107 99.774 252.792 99.705 252.546 99.627C252.306 99.549 252.099 99.417 251.925 99.231C251.751 99.045 251.664 98.784 251.664 98.448C251.664 98.016 251.844 97.671 252.204 97.413C252.564 97.149 253.047 97.017 253.653 97.017C253.971 97.017 254.289 97.056 254.607 97.134C254.925 97.212 255.186 97.317 255.39 97.449L255.021 98.133C254.631 97.881 254.172 97.755 253.644 97.755C253.278 97.755 252.999 97.815 252.807 97.935C252.615 98.055 252.519 98.214 252.519 98.412C252.519 98.568 252.573 98.691 252.681 98.781C252.789 98.871 252.921 98.937 253.077 98.979C253.239 99.021 253.464 99.069 253.752 99.123C254.136 99.189 254.445 99.261 254.679 99.339C254.919 99.411 255.123 99.537 255.291 99.717C255.459 99.897 255.543 100.149 255.543 100.473C255.543 100.905 255.357 101.25 254.985 101.508C254.619 101.76 254.118 101.886 253.482 101.886ZM260.934 99.474C260.934 99.54 260.928 99.627 260.916 99.735H257.046C257.1 100.155 257.283 100.494 257.595 100.752C257.913 101.004 258.306 101.13 258.774 101.13C259.344 101.13 259.803 100.938 260.151 100.554L260.628 101.112C260.412 101.364 260.142 101.556 259.818 101.688C259.5 101.82 259.143 101.886 258.747 101.886C258.243 101.886 257.796 101.784 257.406 101.58C257.016 101.37 256.713 101.079 256.497 100.707C256.287 100.335 256.182 99.915 256.182 99.447C256.182 98.985 256.284 98.568 256.488 98.196C256.698 97.824 256.983 97.536 257.343 97.332C257.709 97.122 258.12 97.017 258.576 97.017C259.032 97.017 259.437 97.122 259.791 97.332C260.151 97.536 260.43 97.824 260.628 98.196C260.832 98.568 260.934 98.994 260.934 99.474ZM258.576 97.746C258.162 97.746 257.814 97.872 257.532 98.124C257.256 98.376 257.094 98.706 257.046 99.114H260.106C260.058 98.712 259.893 98.385 259.611 98.133C259.335 97.875 258.99 97.746 258.576 97.746ZM264.68 97.017C265.286 97.017 265.766 97.194 266.12 97.548C266.48 97.896 266.66 98.409 266.66 99.087V101.832H265.796V99.186C265.796 98.724 265.685 98.376 265.463 98.142C265.241 97.908 264.923 97.791 264.509 97.791C264.041 97.791 263.672 97.929 263.402 98.205C263.132 98.475 262.997 98.865 262.997 99.375V101.832H262.133V97.062H262.961V97.782C263.135 97.536 263.369 97.347 263.663 97.215C263.963 97.083 264.302 97.017 264.68 97.017ZM272.786 95.154V101.832H271.958V101.076C271.766 101.34 271.523 101.541 271.229 101.679C270.935 101.817 270.611 101.886 270.257 101.886C269.795 101.886 269.381 101.784 269.015 101.58C268.649 101.376 268.361 101.091 268.151 100.725C267.947 100.353 267.845 99.927 267.845 99.447C267.845 98.967 267.947 98.544 268.151 98.178C268.361 97.812 268.649 97.527 269.015 97.323C269.381 97.119 269.795 97.017 270.257 97.017C270.599 97.017 270.914 97.083 271.202 97.215C271.49 97.341 271.73 97.53 271.922 97.782V95.154H272.786ZM270.329 101.13C270.629 101.13 270.902 101.061 271.148 100.923C271.394 100.779 271.586 100.581 271.724 100.329C271.862 100.071 271.931 99.777 271.931 99.447C271.931 99.117 271.862 98.826 271.724 98.574C271.586 98.316 271.394 98.118 271.148 97.98C270.902 97.842 270.629 97.773 270.329 97.773C270.023 97.773 269.747 97.842 269.501 97.98C269.261 98.118 269.069 98.316 268.925 98.574C268.787 98.826 268.718 99.117 268.718 99.447C268.718 99.777 268.787 100.071 268.925 100.329C269.069 100.581 269.261 100.779 269.501 100.923C269.747 101.061 270.023 101.13 270.329 101.13Z" fill="#939393"/>
<path d="M254.991 116.479C254.375 116.479 253.825 116.325 253.341 116.017C252.857 115.702 252.476 115.247 252.197 114.653C251.918 114.052 251.779 113.34 251.779 112.519C251.779 111.698 251.918 110.99 252.197 110.396C252.476 109.795 252.857 109.34 253.341 109.032C253.825 108.717 254.375 108.559 254.991 108.559C255.607 108.559 256.157 108.717 256.641 109.032C257.132 109.34 257.517 109.795 257.796 110.396C258.075 110.99 258.214 111.698 258.214 112.519C258.214 113.34 258.075 114.052 257.796 114.653C257.517 115.247 257.132 115.702 256.641 116.017C256.157 116.325 255.607 116.479 254.991 116.479ZM254.991 115.236C255.541 115.236 255.974 115.009 256.289 114.554C256.612 114.099 256.773 113.421 256.773 112.519C256.773 111.617 256.612 110.939 256.289 110.484C255.974 110.029 255.541 109.802 254.991 109.802C254.448 109.802 254.016 110.029 253.693 110.484C253.378 110.939 253.22 111.617 253.22 112.519C253.22 113.421 253.378 114.099 253.693 114.554C254.016 115.009 254.448 115.236 254.991 115.236ZM259.909 116.446C259.66 116.446 259.447 116.362 259.271 116.193C259.095 116.017 259.007 115.797 259.007 115.533C259.007 115.262 259.092 115.042 259.26 114.873C259.436 114.704 259.653 114.62 259.909 114.62C260.166 114.62 260.379 114.704 260.547 114.873C260.723 115.042 260.811 115.262 260.811 115.533C260.811 115.797 260.723 116.017 260.547 116.193C260.371 116.362 260.159 116.446 259.909 116.446ZM268.547 114.62H267.183V116.369H265.797V114.62H261.573V113.63L265.368 108.669H266.897L263.322 113.41H265.841V111.859H267.183V113.41H268.547V114.62ZM271.526 111.65C272.611 111.65 273.414 111.863 273.935 112.288C274.455 112.706 274.716 113.278 274.716 114.004C274.716 114.466 274.602 114.884 274.375 115.258C274.147 115.632 273.806 115.929 273.352 116.149C272.897 116.369 272.336 116.479 271.669 116.479C271.119 116.479 270.587 116.402 270.074 116.248C269.56 116.087 269.128 115.867 268.776 115.588L269.381 114.477C269.667 114.712 270.008 114.899 270.404 115.038C270.807 115.17 271.221 115.236 271.647 115.236C272.153 115.236 272.549 115.133 272.835 114.928C273.128 114.715 273.275 114.426 273.275 114.059C273.275 113.663 273.117 113.366 272.802 113.168C272.494 112.963 271.962 112.86 271.207 112.86H269.348L269.744 108.669H274.265V109.868H270.954L270.789 111.65H271.526ZM278.765 111.848C279.476 111.936 280.019 112.178 280.393 112.574C280.767 112.97 280.954 113.465 280.954 114.059C280.954 114.506 280.84 114.913 280.613 115.28C280.386 115.647 280.041 115.94 279.579 116.16C279.124 116.373 278.567 116.479 277.907 116.479C277.357 116.479 276.825 116.402 276.312 116.248C275.806 116.087 275.373 115.867 275.014 115.588L275.63 114.477C275.909 114.712 276.246 114.899 276.642 115.038C277.045 115.17 277.46 115.236 277.885 115.236C278.391 115.236 278.787 115.133 279.073 114.928C279.366 114.715 279.513 114.429 279.513 114.07C279.513 113.711 279.374 113.432 279.095 113.234C278.824 113.029 278.406 112.926 277.841 112.926H277.137V111.947L278.886 109.868H275.388V108.669H280.635V109.626L278.765 111.848ZM288.753 114.62H287.389V116.369H286.003V114.62H281.779V113.63L285.574 108.669H287.103L283.528 113.41H286.047V111.859H287.389V113.41H288.753V114.62ZM298.335 113.465C298.335 113.56 298.328 113.696 298.313 113.872H293.704C293.785 114.305 293.994 114.649 294.331 114.906C294.676 115.155 295.101 115.28 295.607 115.28C296.252 115.28 296.784 115.067 297.202 114.642L297.939 115.489C297.675 115.804 297.341 116.043 296.938 116.204C296.535 116.365 296.08 116.446 295.574 116.446C294.929 116.446 294.36 116.318 293.869 116.061C293.378 115.804 292.996 115.449 292.725 114.994C292.461 114.532 292.329 114.011 292.329 113.432C292.329 112.86 292.457 112.347 292.714 111.892C292.978 111.43 293.341 111.071 293.803 110.814C294.265 110.557 294.786 110.429 295.365 110.429C295.937 110.429 296.447 110.557 296.894 110.814C297.349 111.063 297.701 111.419 297.95 111.881C298.207 112.336 298.335 112.864 298.335 113.465ZM295.365 111.529C294.925 111.529 294.551 111.661 294.243 111.925C293.942 112.182 293.759 112.526 293.693 112.959H297.026C296.967 112.534 296.788 112.189 296.487 111.925C296.186 111.661 295.812 111.529 295.365 111.529ZM303.187 116.05C303.026 116.182 302.828 116.281 302.593 116.347C302.366 116.413 302.124 116.446 301.867 116.446C301.222 116.446 300.723 116.277 300.371 115.94C300.019 115.603 299.843 115.111 299.843 114.466V111.639H298.875V110.539H299.843V109.197H301.218V110.539H302.791V111.639H301.218V114.433C301.218 114.719 301.288 114.939 301.427 115.093C301.566 115.24 301.768 115.313 302.032 115.313C302.34 115.313 302.597 115.232 302.802 115.071L303.187 116.05ZM307.651 110.429C308.392 110.429 308.986 110.645 309.433 111.078C309.88 111.511 310.104 112.152 310.104 113.003V116.369H308.729V113.179C308.729 112.666 308.608 112.281 308.366 112.024C308.124 111.76 307.779 111.628 307.332 111.628C306.826 111.628 306.426 111.782 306.133 112.09C305.84 112.391 305.693 112.827 305.693 113.399V116.369H304.318V108.207H305.693V111.177C305.92 110.935 306.199 110.752 306.529 110.627C306.866 110.495 307.24 110.429 307.651 110.429Z" fill="#2F323D"/>
<circle cx="231.11" cy="107.895" r="11.28" fill="#D9D9D9"/>
<circle cx="231.11" cy="107.895" r="11.28" fill="url(#paint0_linear_858_2034)"/>
<circle cx="231.11" cy="107.895" r="11.28" stroke="url(#paint1_linear_858_2034)" stroke-width="4"/>
<path d="M228.438 106.657L231.26 105.402C231.384 105.349 231.526 105.349 231.645 105.402L234.467 106.657C234.715 106.769 234.946 106.467 234.774 106.254L231.816 102.639C231.615 102.391 231.284 102.391 231.083 102.639L228.124 106.254C227.959 106.467 228.189 106.769 228.438 106.657Z" fill="white"/>
<path d="M228.438 110.089L231.265 111.343C231.39 111.396 231.532 111.396 231.65 111.343L234.478 110.089C234.726 109.976 234.957 110.278 234.786 110.491L231.828 114.106C231.626 114.354 231.295 114.354 231.094 114.106L228.136 110.491C227.958 110.278 228.183 109.976 228.438 110.089Z" fill="white"/>
<path d="M231.324 106.888L228.881 108.107C228.662 108.214 228.662 108.527 228.881 108.634L231.324 109.853C231.407 109.894 231.508 109.894 231.591 109.853L234.034 108.634C234.253 108.527 234.253 108.214 234.034 108.107L231.591 106.888C231.502 106.847 231.407 106.847 231.324 106.888Z" fill="white"/>
<circle opacity="0.2" cx="102.336" cy="60.7872" r="5.81845" fill="#FABE4C"/>
<circle cx="102.337" cy="60.7881" r="2.90923" fill="#FABE4C"/>
<circle opacity="0.2" cx="227.604" cy="169.42" r="5.81845" fill="#FABE4C"/>
<circle cx="227.605" cy="169.421" r="2.90923" fill="#FABE4C"/>
<circle opacity="0.2" cx="313.376" cy="86.7999" r="6.71007" fill="#FABE4C"/>
<circle cx="313.377" cy="86.7984" r="3.35504" fill="#FABE4C"/>
<circle opacity="0.2" cx="33.5422" cy="32.7219" r="10.9524" fill="#FABE4C"/>
<circle cx="33.5426" cy="32.7203" r="5.47619" fill="#FABE4C"/>
</g>
<defs>
<filter id="filter0_f_858_2034" x="-397.75" y="-592.463" width="1485.5" height="1334.07" filterUnits="userSpaceOnUse" color-interpolation-filters="sRGB">
<feFlood flood-opacity="0" result="BackgroundImageFix"/>
<feBlend mode="normal" in="SourceGraphic" in2="BackgroundImageFix" result="shape"/>
<feGaussianBlur stdDeviation="242" result="effect1_foregroundBlur_858_2034"/>
</filter>
<filter id="filter1_d_858_2034" x="147.518" y="28.3027" width="247.107" height="167.018" filterUnits="userSpaceOnUse" color-interpolation-filters="sRGB">
<feFlood flood-opacity="0" result="BackgroundImageFix"/>
<feColorMatrix in="SourceAlpha" type="matrix" values="0 0 0 0 0 0 0 0 0 0 0 0 0 0 0 0 0 0 127 0" result="hardAlpha"/>
<feOffset dy="4"/>
<feGaussianBlur stdDeviation="32"/>
<feComposite in2="hardAlpha" operator="out"/>
<feColorMatrix type="matrix" values="0 0 0 0 0 0 0 0 0 0 0 0 0 0 0 0 0 0 0.08 0"/>
<feBlend mode="normal" in2="BackgroundImageFix" result="effect1_dropShadow_858_2034"/>
<feBlend mode="normal" in="SourceGraphic" in2="effect1_dropShadow_858_2034" result="shape"/>
</filter>
<linearGradient id="paint0_linear_858_2034" x1="237.916" y1="115.554" x2="237.916" y2="102.615" gradientUnits="userSpaceOnUse">
<stop stop-color="#FABE4C"/>
<stop offset="1" stop-color="#FA9751"/>
</linearGradient>
<linearGradient id="paint1_linear_858_2034" x1="241.203" y1="98.0995" x2="223.689" y2="115.91" gradientUnits="userSpaceOnUse">
<stop stop-color="#FABE4C"/>
<stop offset="1" stop-color="#FA9751"/>
</linearGradient>
</defs>
</svg>
