<svg width="403" height="91" viewBox="0 0 403 91" fill="none" xmlns="http://www.w3.org/2000/svg">
<circle cx="45.5" cy="45.5" r="45.5" fill="white"/>
<path d="M57 50.1447C57 52.3277 56.1771 54.1872 54.5313 55.7234C52.9129 57.2326 50.554 58.1489 47.4544 58.4723V63H44.0805V58.5128C42.0507 58.378 40.1306 58.0142 38.3202 57.4213C36.5098 56.8284 35.0698 56.0738 34 55.1574L35.8515 51.0745C36.8664 51.883 38.1008 52.5702 39.5546 53.1362C41.0083 53.6752 42.517 54.0121 44.0805 54.1468V46.0617C42.133 45.6035 40.5009 45.105 39.1843 44.566C37.8951 44 36.8116 43.1915 35.9338 42.1404C35.0561 41.0624 34.6172 39.6475 34.6172 37.8957C34.6172 35.7128 35.4264 33.8532 37.0447 32.317C38.6631 30.7809 41.0083 29.8645 44.0805 29.5681V25H47.4544V29.4872C48.9905 29.5681 50.4854 29.8241 51.9392 30.2553C53.4204 30.6865 54.7096 31.2525 55.8068 31.9532L54.1199 36.0362C52.0352 34.8504 49.8134 34.1227 47.4544 33.8532V42.0191C49.4293 42.4773 51.0614 42.9759 52.3506 43.5149C53.6673 44.0539 54.7645 44.8624 55.6422 45.9404C56.5474 46.9915 57 48.3929 57 50.1447ZM39.9249 37.6532C39.9249 38.5426 40.2815 39.2567 40.9946 39.7957C41.7078 40.3348 42.7364 40.7929 44.0805 41.1702V33.9745C42.6816 34.1901 41.6392 34.6213 40.9535 35.2681C40.2677 35.9149 39.9249 36.7099 39.9249 37.6532ZM47.4544 54.066C48.9082 53.8504 49.9779 53.4326 50.6637 52.8128C51.3769 52.1929 51.7335 51.4248 51.7335 50.5085C51.7335 49.5922 51.3631 48.8645 50.6225 48.3255C49.8819 47.7596 48.8259 47.2879 47.4544 46.9106V54.066Z" fill="#FAAE4E"/>
<circle cx="149.5" cy="45.5" r="45.5" fill="white"/>
<path d="M146.734 56.0873H163.223V61H136V56.0873H140.796V47.0732H136V43.3775H140.796V41.3042C140.796 38.8103 141.344 36.6469 142.44 34.8141C143.567 32.9512 145.196 31.5239 147.328 30.5324C149.459 29.5108 152.017 29 155.002 29C158.625 29 161.625 29.7061 164 31.1183L162.127 35.8958C160.27 34.7239 157.788 34.138 154.682 34.138C152.094 34.138 150.114 34.754 148.744 35.9859C147.404 37.1878 146.734 38.9455 146.734 41.2592V43.3775H158.29V47.0732H146.734V56.0873Z" fill="#FAAE4E"/>
<circle cx="253.5" cy="45.5" r="45.5" fill="white"/>
<path d="M258.165 47.8457H266.027V51.2457H256.602V54.5486H266.027V57.9486H256.602V63H250.445V57.9486H241.02V54.5486H250.445V51.2457H241.02V47.8457H248.835L236 29H242.536L253.666 45.32L264.796 29H271L258.165 47.8457Z" fill="#FAAE4E"/>
<circle cx="357.5" cy="45.5" r="45.5" fill="white"/>
<path d="M355.776 54.9333C359.126 54.9333 361.949 53.7037 364.242 51.2444L368 54.8C366.551 56.4889 364.74 57.7778 362.567 58.6667C360.424 59.5556 358.055 60 355.459 60C352.834 60 350.389 59.5259 348.125 58.5778C345.892 57.6296 343.99 56.2963 342.421 54.5778C340.881 52.8593 339.795 50.8741 339.161 48.6222H334V45.5111H338.573C338.542 45.1852 338.527 44.6815 338.527 44C338.527 43.3185 338.542 42.8148 338.573 42.4889H334V39.3778H339.161C339.795 37.1259 340.881 35.1407 342.421 33.4222C343.99 31.7037 345.892 30.3704 348.125 29.4222C350.389 28.4741 352.834 28 355.459 28C358.055 28 360.424 28.4444 362.567 29.3333C364.74 30.2222 366.551 31.5111 368 33.2L364.242 36.7111C361.949 34.2815 359.126 33.0667 355.776 33.0667C353.362 33.0667 351.234 33.6296 349.393 34.7556C347.582 35.8815 346.239 37.4222 345.364 39.3778H358.357V42.4889H344.503C344.443 43.1407 344.413 43.6444 344.413 44C344.413 44.3556 344.443 44.8593 344.503 45.5111H358.357V48.6222H345.364C346.239 50.5778 347.582 52.1185 349.393 53.2444C351.234 54.3704 353.362 54.9333 355.776 54.9333Z" fill="#FAAE4E"/>
</svg>
