<svg width="17" height="17" viewBox="0 0 17 17" fill="none" xmlns="http://www.w3.org/2000/svg">
<path fill-rule="evenodd" clip-rule="evenodd" d="M8.5 17C13.1944 17 17 13.1944 17 8.5C17 3.80558 13.1944 0 8.5 0C3.80558 0 0 3.80558 0 8.5C0 13.1944 3.80558 17 8.5 17ZM7.93135 8.20564C7.71956 8.51873 7.61366 8.91469 7.61366 9.39352H9.69935C9.69935 9.09885 9.77762 8.85023 9.93416 8.64764C10.0907 8.43585 10.3393 8.17802 10.68 7.87414C10.9655 7.61631 11.1957 7.39071 11.3707 7.19733C11.5548 6.99475 11.7068 6.75073 11.8265 6.46527C11.9554 6.17981 12.0199 5.84831 12.0199 5.47077C12.0199 4.66964 11.6976 4.04348 11.053 3.59227C10.4176 3.14106 9.57043 2.91546 8.51148 2.91546C7.60906 2.91546 6.82635 3.0766 6.16335 3.39889C5.50956 3.72119 4.98929 4.177 4.60254 4.76633L6.27385 5.74702C6.50406 5.42473 6.78491 5.1761 7.11641 5.00114C7.45712 4.81698 7.84387 4.72489 8.27666 4.72489C8.72787 4.72489 9.087 4.82619 9.35404 5.02877C9.63029 5.22214 9.76841 5.48919 9.76841 5.82989C9.76841 6.06931 9.69475 6.28571 9.54741 6.47908C9.40929 6.66325 9.18829 6.89346 8.88441 7.16971C8.47004 7.54725 8.15235 7.89256 7.93135 8.20564ZM7.71035 12.5013C7.96818 12.7407 8.28587 12.8605 8.66341 12.8605C9.04096 12.8605 9.35404 12.7407 9.60266 12.5013C9.8605 12.2527 9.98941 11.9534 9.98941 11.6035C9.98941 11.2536 9.8651 10.9635 9.61648 10.7333C9.36785 10.4939 9.05016 10.3742 8.66341 10.3742C8.27666 10.3742 7.95898 10.4939 7.71035 10.7333C7.46173 10.9635 7.33741 11.2536 7.33741 11.6035C7.33741 11.9534 7.46173 12.2527 7.71035 12.5013Z" fill="#DADFE7"/>
</svg>
