<svg width="64" height="64" viewBox="0 0 64 64" fill="none" xmlns="http://www.w3.org/2000/svg">
    <g filter="url(#filter0_dsdgdgdsgds)">
        <path fill-rule="evenodd" clip-rule="evenodd" d="M16 32C16 23.1615 23.1615 16 32 16C40.8258 16 48 23.1615 47.9874 32V32.0126C47.9874 40.8385 40.8258 48 32 48H31.9874C23.1615 48 16 40.8385 16 32.0126V32Z" fill="url(#paint0_radialsafasfasf)"/>
    </g>
    <path d="M35.6438 27.2845C35.6438 27.8644 36.1229 28.3436 36.7029 28.3436C37.2955 28.3436 37.762 27.8644 37.762 27.2845C37.762 26.7045 37.2829 26.2254 36.7029 26.2254C36.1229 26.2254 35.6438 26.7045 35.6438 27.2845Z" fill="white"/>
    <path fill-rule="evenodd" clip-rule="evenodd" d="M27.4736 32C27.4736 34.4964 29.4909 36.5264 32 36.5264C34.4964 36.5264 36.5264 34.4964 36.5264 32C36.5264 29.5035 34.509 27.4736 32 27.4736C29.5035 27.4736 27.4736 29.4909 27.4736 32ZM34.9378 32C34.9378 33.6225 33.6225 34.9378 32 34.9378C30.3775 34.9378 29.0623 33.6225 29.0623 32C29.0623 30.3775 30.3775 29.0623 32 29.0623C33.6225 29.0623 34.9378 30.3775 34.9378 32Z" fill="white"/>
    <path fill-rule="evenodd" clip-rule="evenodd" d="M40.7754 35.6313C40.7376 36.5769 40.5863 37.2073 40.3593 37.7747C40.1324 38.3547 39.8298 38.8464 39.3381 39.3381C38.8463 39.8299 38.3546 40.1325 37.7746 40.3594C37.2072 40.5738 36.5768 40.7251 35.6312 40.7755L35.6021 40.7767C34.6793 40.8136 34.3707 40.8259 31.9874 40.8259C29.6043 40.8259 29.2924 40.8134 28.3584 40.7761L28.3436 40.7755C27.3979 40.7377 26.7675 40.5864 26.2001 40.3594C25.6202 40.1325 25.1284 39.8299 24.6367 39.3381C24.145 38.8464 23.8424 38.3547 23.6154 37.7747C23.4011 37.2073 23.2498 36.5769 23.1994 35.6313L23.1982 35.6022C23.1613 34.6794 23.1489 34.3708 23.1489 31.9875C23.1489 30.0237 23.1741 29.4768 23.2039 28.8291C23.2106 28.6826 23.2176 28.5307 23.2246 28.3563C23.2624 27.4106 23.4137 26.7802 23.6407 26.2128C23.8676 25.6329 24.1702 25.1411 24.6619 24.6494C25.1537 24.1577 25.6454 23.8551 26.2254 23.6281C26.7927 23.4138 27.4232 23.2625 28.3688 23.2121L28.3836 23.2115C29.3176 23.1741 29.6295 23.1616 32.0126 23.1616C34.3957 23.1616 34.7076 23.1741 35.6416 23.2115L35.6564 23.2121C36.602 23.2499 37.2325 23.4012 37.7998 23.6281C38.3798 23.8551 38.8715 24.1577 39.3633 24.6494C39.855 25.1411 40.1576 25.6329 40.3845 26.2128C40.5989 26.7802 40.7502 27.4106 40.8006 28.3563L40.8012 28.3711C40.8386 29.3051 40.8511 29.6171 40.8511 32.0001C40.826 34.3842 40.8133 34.6953 40.7759 35.618L40.7754 35.6313ZM38.8715 26.7927C38.7076 26.3767 38.5185 26.0867 38.2159 25.7841C37.9133 25.4815 37.6107 25.2797 37.2072 25.1284C36.892 25.0023 36.4255 24.8636 35.5681 24.8258L35.5293 24.8243C34.627 24.7876 34.3247 24.7754 32 24.7754C29.6752 24.7754 29.373 24.7876 28.4706 24.8243L28.4318 24.8258C27.5744 24.8636 27.1079 25.0149 26.7927 25.1284C26.3767 25.2923 26.0867 25.4815 25.7841 25.7841C25.4815 26.0867 25.2797 26.3893 25.1284 26.7927C25.0023 27.1079 24.8636 27.5744 24.8258 28.4318L24.8243 28.4706C24.7876 29.373 24.7754 29.6752 24.7754 32C24.7754 34.3247 24.7876 34.627 24.8243 35.5293L24.8258 35.5681C24.8636 36.4255 25.0149 36.892 25.1284 37.2072C25.2923 37.6233 25.4815 37.9133 25.7841 38.2159C26.0867 38.5185 26.3893 38.7202 26.7927 38.8715C27.1079 38.9976 27.5744 39.1363 28.4318 39.1741L28.4706 39.1757C29.373 39.2123 29.6752 39.2246 32 39.2246C34.3247 39.2246 34.627 39.2123 35.5293 39.1757L35.5681 39.1741C36.4255 39.1363 36.892 38.985 37.2072 38.8715C37.6233 38.7076 37.9133 38.5185 38.2159 38.2159C38.5185 37.9133 38.7202 37.6107 38.8715 37.2072C38.9976 36.892 39.1363 36.4255 39.1741 35.5681L39.1757 35.5294C39.2123 34.627 39.2246 34.3247 39.2246 32C39.2246 29.6752 39.2123 29.373 39.1757 28.4706L39.1741 28.4318C39.1363 27.5744 38.9976 27.1079 38.8715 26.7927Z" fill="white"/>
    <defs>
        <filter id="filter0_dsdgdgdsgds" x="8" y="12" width="47.9874" height="48" filterUnits="userSpaceOnUse" color-interpolation-filters="sRGB">
            <feFlood flood-opacity="0" result="BackgroundImageFix"/>
            <feColorMatrix in="SourceAlpha" type="matrix" values="0 0 0 0 0 0 0 0 0 0 0 0 0 0 0 0 0 0 127 0"/>
            <feOffset dy="4"/>
            <feGaussianBlur stdDeviation="4"/>
            <feColorMatrix type="matrix" values="0 0 0 0 0.972549 0 0 0 0 0.372549 0 0 0 0 0.482353 0 0 0 0.3 0"/>
            <feBlend mode="normal" in2="BackgroundImageFix" result="effect1_dropShadow"/>
            <feBlend mode="normal" in="SourceGraphic" in2="effect1_dropShadow" result="shape"/>
        </filter>
        <radialGradient id="paint0_radialsafasfasf" cx="0" cy="0" r="1" gradientUnits="userSpaceOnUse" gradientTransform="translate(21 45) rotate(-43.4792) scale(39.9656 46.5956)">
            <stop stop-color="#FFB45D"/>
            <stop offset="0.40625" stop-color="#FF6363"/>
            <stop offset="1" stop-color="#CE43FF"/>
        </radialGradient>
    </defs>
</svg>
