<svg width="64" height="64" viewBox="0 0 64 64" fill="none" xmlns="http://www.w3.org/2000/svg">
    <g filter="url(#filter0_dsafafaf)">
        <path d="M32 48C40.8366 48 48 40.8366 48 32C48 23.1634 40.8366 16 32 16C23.1634 16 16 23.1634 16 32C16 40.8366 23.1634 48 32 48Z" fill="#1DA1F2"/>
        <path d="M32 48C40.8366 48 48 40.8366 48 32C48 23.1634 40.8366 16 32 16C23.1634 16 16 23.1634 16 32C16 40.8366 23.1634 48 32 48Z" fill="url(#paint0_linearsafsafsaf)"/>
    </g>
    <path d="M29.072 40.4402C36.168 40.4402 40.048 34.5602 40.048 29.4642C40.048 29.2962 40.048 29.1282 40.04 28.9682C40.792 28.4242 41.448 27.7442 41.968 26.9682C41.28 27.2722 40.536 27.4802 39.752 27.5762C40.552 27.0962 41.16 26.3442 41.448 25.4402C40.704 25.8802 39.88 26.2002 39 26.3762C38.296 25.6242 37.296 25.1602 36.184 25.1602C34.056 25.1602 32.328 26.8882 32.328 29.0162C32.328 29.3202 32.36 29.6162 32.432 29.8962C29.224 29.7362 26.384 28.2002 24.48 25.8642C24.152 26.4322 23.96 27.0962 23.96 27.8002C23.96 29.1362 24.64 30.3202 25.68 31.0082C25.048 30.9922 24.456 30.8162 23.936 30.5282C23.936 30.5442 23.936 30.5602 23.936 30.5762C23.936 32.4482 25.264 34.0002 27.032 34.3602C26.712 34.4482 26.368 34.4962 26.016 34.4962C25.768 34.4962 25.528 34.4722 25.288 34.4242C25.776 35.9602 27.2 37.0722 28.888 37.1042C27.568 38.1362 25.904 38.7522 24.096 38.7522C23.784 38.7522 23.48 38.7362 23.176 38.6962C24.864 39.8002 26.896 40.4402 29.072 40.4402Z" fill="white"/>
    <defs>
        <filter id="filter0_dsafafaf" x="8" y="12" width="48" height="48" filterUnits="userSpaceOnUse" color-interpolation-filters="sRGB">
            <feFlood flood-opacity="0" result="BackgroundImageFix"/>
            <feColorMatrix in="SourceAlpha" type="matrix" values="0 0 0 0 0 0 0 0 0 0 0 0 0 0 0 0 0 0 127 0"/>
            <feOffset dy="4"/>
            <feGaussianBlur stdDeviation="4"/>
            <feColorMatrix type="matrix" values="0 0 0 0 0.113725 0 0 0 0 0.631373 0 0 0 0 0.94902 0 0 0 0.3 0"/>
            <feBlend mode="normal" in2="BackgroundImageFix" result="effect1_dropShadow"/>
            <feBlend mode="normal" in="SourceGraphic" in2="effect1_dropShadow" result="shape"/>
        </filter>
        <linearGradient id="paint0_linearsafsafsaf" x1="32" y1="16" x2="32" y2="48" gradientUnits="userSpaceOnUse">
            <stop stop-color="#5EC2FF"/>
            <stop offset="1" stop-color="#1DA1F2"/>
        </linearGradient>
    </defs>
</svg>
