<svg width="880" height="640" viewBox="0 0 880 640" fill="none" xmlns="http://www.w3.org/2000/svg">
    <path opacity="0.1" d="M196.309 343.78C200.355 356.267 206.642 367.912 214.862 378.146C227.808 393.875 246.86 405.229 267.214 406.073C294.297 407.195 319.054 390.109 336.804 369.617C368.512 332.994 393.809 266.754 451.574 268C481.496 268.651 507.415 288.271 529.403 306.617C561.249 333.215 606.249 368.467 649.296 345.026C685.822 325.129 698.38 274.563 686.68 236.722C670.065 182.833 625.19 134.081 578.28 104.188C537.406 78.1432 486.688 67.1633 438.074 68.0495C370.741 69.2679 302.729 92.8893 254.088 139.44C206.61 184.882 178.627 257.2 190.812 322.651C192.131 329.817 193.968 336.879 196.309 343.78Z" fill="#648CF5"/>
    <path opacity="0.1" d="M440 566.092C588.267 566.092 708.461 559.075 708.461 550.418C708.461 541.762 588.267 534.745 440 534.745C291.733 534.745 171.539 541.762 171.539 550.418C171.539 559.075 291.733 566.092 440 566.092Z" fill="#648CF5"/>
    <path d="M546.13 218.777L541.561 212.547C541.698 211.803 541.654 211.037 541.432 210.314C541.21 209.591 540.817 208.932 540.287 208.393C538.459 206.316 526.593 207.41 524.766 207.59C522.938 207.77 519.919 215.053 521.706 217.171C523.492 219.29 534.901 219.65 535.953 218.736L539.553 223.748L546.13 218.777Z" fill="#9F5B53"/>
    <path d="M614.86 203.312C614.5 198.327 617.629 196.388 621.617 198.092C625.605 199.795 629.052 193.938 634.369 195.322C639.686 196.707 638.052 202.01 640.794 203.312C643.535 204.613 646.623 203.048 647.814 209.722C649.004 216.396 644.629 212.935 646.554 218.778C648.478 224.621 654.211 226.268 649.323 231.239C644.435 236.21 641.112 238.162 644.948 242.316C648.783 246.47 644.629 250.457 642.871 251.828C641.112 253.199 650.5 261.133 647.855 268.249C645.211 275.366 623.154 281.943 609.543 276.751C595.933 271.559 592.153 263.694 592.928 254.75C593.703 245.805 600.308 243.437 599.851 240.64C599.394 237.844 595.046 235.393 597.511 231.281C599.976 227.168 606.816 226.808 604.628 222.876C602.44 218.944 602.717 214.568 605.182 212.644C607.646 210.719 609.945 211.259 609.488 207.313C609.031 203.367 614.86 203.312 614.86 203.312Z" fill="#263238"/>
    <path d="M602.942 246.456C602.942 246.456 571.691 246.733 565.848 239.533C560.005 232.333 545.231 215.164 545.231 215.164L536.924 220.342C536.924 220.342 551.462 252.811 560.587 259.942C569.711 267.073 596.877 268.54 596.877 268.54L602.942 246.456Z" fill="#648CF5"/>
    <path opacity="0.3" d="M602.942 246.456C602.942 246.456 571.691 246.733 565.848 239.533C560.005 232.333 545.231 215.164 545.231 215.164L536.924 220.342C536.924 220.342 551.462 252.811 560.587 259.942C569.711 267.073 596.877 268.54 596.877 268.54L602.942 246.456Z" fill="white"/>
    <path d="M549.605 532.944L557.913 534.412L561.319 523.086L564.421 512.701L554.853 509.351L552.07 521.84L549.605 532.944Z" fill="#E4897B"/>
    <path d="M559.783 534.191C559.921 533.263 548.554 532.003 548.554 532.003C548.554 532.003 540.385 537.818 533.392 538.206C526.4 538.594 529.432 543.301 536.951 544.63L555.532 547.912C560.863 548.853 558.329 543.717 559.783 534.191Z" fill="#648CF5"/>
    <path d="M541.187 533.387C541.046 533.213 540.963 532.999 540.951 532.776C540.938 532.552 540.997 532.33 541.118 532.141C541.189 531.988 541.291 531.852 541.417 531.74C541.543 531.628 541.691 531.543 541.851 531.491C542.708 531.304 543.601 531.361 544.427 531.657C543.596 531.006 542.904 530.272 542.973 529.677C542.973 529.289 543.319 529.012 543.873 528.86C544.119 528.788 544.378 528.77 544.631 528.808C544.885 528.846 545.127 528.94 545.341 529.081C546.725 529.981 547.237 532.764 547.251 532.889C547.265 532.934 547.265 532.982 547.251 533.027V533.097C547.246 533.115 547.237 533.131 547.225 533.145C547.213 533.16 547.199 533.171 547.182 533.18H547.085C545.754 533.561 544.384 533.784 543.001 533.844C542.683 533.895 542.359 533.88 542.047 533.801C541.735 533.723 541.443 533.582 541.187 533.387ZM542.059 532.003C541.975 532.028 541.897 532.07 541.83 532.127C541.763 532.185 541.709 532.256 541.671 532.335C541.478 532.751 541.602 532.903 541.671 532.944C542.115 533.471 544.288 533.221 546.074 532.806C544.828 532.363 542.945 531.726 542.059 532.086V532.003ZM544.039 529.386C543.873 529.386 543.582 529.538 543.568 529.691C543.568 530.203 544.953 531.366 546.517 532.294C546.326 531.232 545.797 530.26 545.008 529.524C544.823 529.404 544.606 529.342 544.385 529.344C544.266 529.363 544.15 529.395 544.039 529.441V529.386Z" fill="#263238"/>
    <path opacity="0.2" d="M552.029 522.103L561.278 523.321L564.408 512.812L554.84 509.406L552.029 522.103Z" fill="black"/>
    <path d="M605.031 536.503H613.464L614.848 524.761L616.094 513.989L606.084 512.355L605.53 525.135L605.031 536.503Z" fill="#E4897B"/>
    <path d="M615.263 535.963C615.263 535.035 603.826 535.755 603.826 535.755C603.826 535.755 596.806 542.9 589.98 544.506C583.154 546.112 586.961 550.21 594.59 550.21H613.463C618.876 550.21 615.498 545.586 615.263 535.963Z" fill="#648CF5"/>
    <path d="M596.806 538.4C596.644 538.25 596.53 538.055 596.481 537.84C596.432 537.625 596.448 537.4 596.529 537.195C596.571 537.031 596.647 536.877 596.752 536.743C596.857 536.61 596.988 536.499 597.138 536.42C597.949 536.09 598.837 535.994 599.7 536.143C598.772 535.644 597.969 535.035 597.927 534.44C597.927 534.052 598.163 533.72 598.675 533.484C598.907 533.375 599.16 533.318 599.416 533.318C599.672 533.318 599.925 533.375 600.157 533.484C601.707 534.121 602.663 536.794 602.704 536.904C602.722 536.941 602.731 536.981 602.731 537.022C602.731 537.063 602.722 537.103 602.704 537.14L602.607 537.223C601.119 537.95 599.518 538.419 597.872 538.607C597.503 538.673 597.123 538.599 596.806 538.4ZM597.443 536.932C597.285 537.019 597.166 537.162 597.11 537.334C597 537.791 597.11 537.901 597.194 537.943C597.734 538.386 599.824 537.749 601.5 537.043C600.184 536.63 598.779 536.591 597.443 536.932ZM598.938 534.024C598.786 534.094 598.523 534.246 598.523 534.398C598.523 534.924 600.198 535.783 601.887 536.447C601.509 535.442 600.82 534.584 599.921 533.997C599.778 533.931 599.622 533.898 599.464 533.9C599.282 533.901 599.102 533.944 598.938 534.024Z" fill="#263238"/>
    <path opacity="0.2" d="M605.531 525.398L614.85 524.997L616.096 514.1L606.085 512.425L605.531 525.398Z" fill="black"/>
    <path d="M551.238 515.471L564.891 517.88C578.654 483.556 588.429 454.922 595.352 431.148C599.076 418.327 601.97 406.931 604.213 396.81L603.59 434.194V519.043H617.436C651.138 358.276 627.253 321.529 627.253 321.529L586.92 314.606C585.326 322.051 584.197 329.589 583.541 337.175L581.727 350.523L565.998 431.951L551.238 515.471Z" fill="#263238"/>
    <path opacity="0.2" d="M551.238 515.471L564.891 517.88C578.654 483.556 588.429 454.922 595.352 431.148C599.076 418.327 601.97 406.931 604.213 396.81L603.59 434.194V519.043H617.436C651.138 358.276 627.253 321.529 627.253 321.529L586.92 314.606C585.326 322.051 584.197 329.589 583.541 337.175L581.727 350.523L565.998 431.951L551.238 515.471Z" fill="white"/>
    <path d="M567.025 516.232L550.105 510.624L550.327 517.811L564.325 522.283L567.025 516.232Z" fill="#263238"/>
    <path d="M619.279 517.008L601.639 514.432L603.106 521.48L617.672 523.446L619.279 517.008Z" fill="#263238"/>
    <path d="M627.295 315.506V321.529L586.158 318.372V311.255L627.295 315.506Z" fill="#263238"/>
    <path d="M595.079 319.51L604.07 320.315L604.682 313.489L595.69 312.683L595.079 319.51Z" fill="white"/>
    <path d="M612.95 323.376L614.996 323.481L615.526 313.096L613.479 312.992L612.95 323.376Z" fill="#263238"/>
    <path opacity="0.2" d="M612.95 323.376L614.996 323.481L615.526 313.096L613.479 312.992L612.95 323.376Z" fill="white"/>
    <path d="M587.797 320.623L589.844 320.728L590.373 310.343L588.327 310.238L587.797 320.623Z" fill="#263238"/>
    <path opacity="0.2" d="M587.797 320.623L589.844 320.728L590.373 310.343L588.327 310.238L587.797 320.623Z" fill="white"/>
    <path d="M647.815 257.56C646.569 260.094 645.433 262.503 644.381 264.774C643.481 266.685 642.65 268.499 641.861 270.23L640.476 273.165C640.144 273.913 639.812 274.66 639.507 275.38C638.413 277.859 637.444 280.171 636.572 282.303C636.059 283.577 635.589 284.809 635.187 286L634.578 287.634C633.636 290.14 632.847 292.466 632.155 294.668C631.559 296.579 631.033 298.406 630.549 300.206C629.912 302.629 629.372 304.983 628.873 307.378C628.486 309.22 628.126 311.089 627.766 313.028C627.599 313.845 627.447 314.675 627.295 315.52L586.158 311.242C586.297 308.929 586.449 306.686 586.615 304.498C586.754 302.56 586.892 300.677 587.044 298.849C587.266 296.246 587.487 293.754 587.709 291.359C587.903 289.42 588.097 287.551 588.291 285.751C588.567 283.12 588.858 280.642 589.149 278.288C589.384 276.322 589.634 274.466 589.869 272.749C590.243 269.98 590.617 267.557 590.963 265.328C591.309 263.099 591.614 261.423 591.904 259.79C592.283 257.74 592.615 256.037 592.901 254.68C594.715 246.373 596.044 246.193 596.044 246.193C596.044 246.193 605.293 246.387 613.227 247.384H613.435C618.797 248.212 624.101 249.378 629.316 250.873C629.995 251.053 630.701 251.247 631.324 251.454C636.962 253.086 642.474 255.127 647.815 257.56Z" fill="#648CF5"/>
    <path opacity="0.6" d="M647.815 257.56C646.569 260.094 645.433 262.503 644.381 264.774C643.481 266.685 642.65 268.499 641.861 270.23L640.476 273.165C640.144 273.913 639.812 274.66 639.507 275.38C638.413 277.859 637.444 280.171 636.572 282.303C636.059 283.577 635.589 284.809 635.187 286L634.578 287.634C633.636 290.14 632.847 292.466 632.155 294.668C631.559 296.579 631.033 298.406 630.549 300.206C629.912 302.629 629.372 304.983 628.873 307.378C628.486 309.22 628.126 311.089 627.766 313.028C627.599 313.845 627.447 314.675 627.295 315.52L586.158 311.242C586.297 308.929 586.449 306.686 586.615 304.498C586.754 302.56 586.892 300.677 587.044 298.849C587.266 296.246 587.487 293.754 587.709 291.359C587.903 289.42 588.097 287.551 588.291 285.751C588.567 283.12 588.858 280.642 589.149 278.288C589.384 276.322 589.634 274.466 589.869 272.749C590.243 269.98 590.617 267.557 590.963 265.328C591.309 263.099 591.614 261.423 591.904 259.79C592.283 257.74 592.615 256.037 592.901 254.68C594.715 246.373 596.044 246.193 596.044 246.193C596.044 246.193 605.293 246.387 613.227 247.384H613.435C618.797 248.212 624.101 249.378 629.316 250.873C629.995 251.053 630.701 251.247 631.324 251.454C636.962 253.086 642.474 255.127 647.815 257.56Z" fill="white"/>
    <path opacity="0.2" d="M595.381 431.19C599.105 418.368 601.999 406.973 604.242 396.852C604.047 384.872 603.173 372.913 601.625 361.032C601.625 361.032 595.727 407.222 595.381 431.19Z" fill="black"/>
    <path d="M616.995 247.203C612.135 246.497 609.144 249.267 611.387 253.919C613.63 258.571 614.378 259.263 622.021 257.893C629.664 256.522 638.553 250.36 616.995 247.203Z" fill="#648CF5"/>
    <path d="M641.862 270.229L640.477 273.165C640.145 273.913 639.813 274.66 639.508 275.38C627.296 272.514 604.408 267.322 590.908 265.3C591.241 263.237 591.559 261.396 591.85 259.762C608.719 262.225 625.421 265.72 641.862 270.229Z" fill="#648CF5"/>
    <path d="M636.612 282.345C636.1 283.619 635.629 284.851 635.228 286.042L634.618 287.675C622.157 284.782 601.817 280.24 589.189 278.302C589.425 276.336 589.674 274.48 589.909 272.763C605.643 275.088 621.234 278.287 636.612 282.345Z" fill="#648CF5"/>
    <path d="M632.155 294.709C631.56 296.62 631.033 298.448 630.549 300.248C618.323 297.479 599.824 293.325 587.709 291.4C587.903 289.462 588.097 287.593 588.291 285.793C603.056 288.007 617.697 290.983 632.155 294.709Z" fill="#648CF5"/>
    <path d="M628.873 307.392C628.486 309.234 628.126 311.103 627.766 313.042C615.955 310.272 598.578 306.465 586.615 304.512C586.754 302.574 586.892 300.691 587.044 298.863C597.152 300.428 612.826 303.197 628.873 307.392Z" fill="#648CF5"/>
    <g opacity="0.3">
        <path opacity="0.3" d="M616.995 247.203C612.135 246.497 609.144 249.267 611.387 253.919C613.63 258.571 614.378 259.263 622.021 257.893C629.664 256.522 638.553 250.36 616.995 247.203Z" fill="white"/>
        <path opacity="0.3" d="M641.862 270.229L640.477 273.165C640.145 273.912 639.812 274.66 639.508 275.38C627.296 272.514 604.408 267.322 590.908 265.3C591.241 263.237 591.559 261.396 591.85 259.762C608.719 262.225 625.421 265.72 641.862 270.229Z" fill="white"/>
        <path opacity="0.3" d="M636.614 282.345C636.102 283.619 635.631 284.851 635.229 286.042L634.62 287.676C622.159 284.782 601.819 280.24 589.191 278.302C589.427 276.336 589.676 274.48 589.911 272.763C605.645 275.088 621.236 278.287 636.614 282.345Z" fill="white"/>
        <path opacity="0.3" d="M632.155 294.709C631.559 296.62 631.033 298.448 630.549 300.248C618.323 297.478 599.824 293.325 587.709 291.4C587.903 289.462 588.097 287.592 588.291 285.792C603.056 288.007 617.697 290.983 632.155 294.709Z" fill="white"/>
        <path opacity="0.3" d="M628.873 307.392C628.486 309.234 628.126 311.103 627.766 313.042C615.955 310.272 598.578 306.465 586.615 304.512C586.754 302.574 586.892 300.691 587.044 298.863C597.152 300.428 612.826 303.197 628.873 307.392Z" fill="white"/>
    </g>
    <path d="M615.539 256.771C625.757 256.674 629.288 252.728 629.288 252.728C623.611 245.943 630.16 236.113 630.16 236.113L617.768 236.944C617.846 238.666 617.804 240.392 617.643 242.108C616.854 249.474 613.49 249.156 613.49 249.156C610.928 252.894 615.539 256.771 615.539 256.771Z" fill="#9F5B53"/>
    <path opacity="0.2" d="M617.769 236.957C617.847 238.68 617.805 240.405 617.645 242.122C625.828 243.091 630.106 236.127 630.106 236.127L617.769 236.957Z" fill="black"/>
    <path d="M628.473 203.935C618.005 202.121 613.671 207.133 611.013 217.781C607.717 231.101 609.033 241.194 622.63 240.599C641.072 239.713 645.863 206.898 628.473 203.935Z" fill="#9F5B53"/>
    <path d="M617.894 218.307C616.779 219.721 615.501 220.999 614.086 222.114C614.318 222.599 614.677 223.012 615.126 223.307C615.576 223.602 616.097 223.769 616.634 223.79L617.894 218.307Z" fill="#892B29"/>
    <path d="M624.442 218.57C624.276 219.428 624.595 220.204 625.162 220.328C625.73 220.453 626.339 219.83 626.547 218.944C626.755 218.058 626.395 217.31 625.827 217.199C625.259 217.088 624.609 217.781 624.442 218.57Z" fill="#263238"/>
    <path d="M626.008 217.31L624.291 216.216C624.291 216.216 624.914 217.961 626.008 217.31Z" fill="#263238"/>
    <path d="M613.838 216.285C613.658 217.13 613.99 217.919 614.558 218.03C615.126 218.141 615.735 217.545 615.943 216.645C616.15 215.745 615.79 215.011 615.223 214.887C614.655 214.762 614.004 215.427 613.838 216.285Z" fill="#263238"/>
    <path d="M615.402 215.011L613.686 213.904C613.686 213.904 614.309 215.676 615.402 215.011Z" fill="#263238"/>
    <path d="M625.801 211.356C626.646 211.401 627.471 211.638 628.21 212.051C628.949 212.464 629.584 213.041 630.065 213.738" stroke="#263238" stroke-width="0.72468" stroke-linecap="round" stroke-linejoin="round"/>
    <path d="M618.281 209.598C617.596 209.291 616.85 209.142 616.1 209.164C615.349 209.186 614.614 209.376 613.947 209.722" stroke="#263238" stroke-width="0.72468" stroke-linecap="round" stroke-linejoin="round"/>
    <path d="M617.451 228.165C617.74 229.432 617.934 230.719 618.033 232.014H618.725C621.827 232.236 623.336 231.322 624.07 230.228C624.603 229.369 624.818 228.35 624.679 227.348C622.704 228.063 620.597 228.342 618.503 228.165C617.853 228.207 617.451 228.165 617.451 228.165Z" fill="#263238"/>
    <path d="M618.502 228.22L618.71 229.356C621.631 229.564 623.708 229.356 624.691 228.484C624.738 228.125 624.738 227.762 624.691 227.404C622.711 228.12 620.6 228.399 618.502 228.22Z" fill="white"/>
    <path d="M618.725 232.07C621.826 232.291 623.335 231.377 624.069 230.284C622.89 230.219 621.708 230.364 620.58 230.713C619.833 230.957 619.183 231.432 618.725 232.07Z" fill="#DE5753"/>
    <path d="M636.85 223.499C636.85 223.499 633.443 214.056 635.34 207.535C635.34 207.535 616.081 195.461 611.387 216.327C611.387 216.327 612.619 197.288 630.688 200.002C648.757 202.716 644.091 229.079 633.457 235.254C633.43 235.254 638.94 229.411 636.85 223.499Z" fill="#263238"/>
    <path d="M634.744 225.41C635.057 224.216 635.829 223.195 636.893 222.569C637.957 221.944 639.226 221.765 640.421 222.073C643.605 223.001 643.993 229.924 635.644 230.117C634.439 230.145 633.982 228.857 634.744 225.41Z" fill="#9F5B53"/>
    <path d="M652.023 294.723L639.561 290.888C639.561 290.888 639.838 288.299 638.44 287.675C637.041 287.052 619.194 285.225 618.723 286.872C618.252 288.52 619.222 298.78 622.019 300.22C624.815 301.66 637.055 302.214 637.415 301.605C637.775 300.995 638.44 300.22 638.44 300.22L651.234 304.166L652.023 294.723Z" fill="#9F5B53"/>
    <path d="M647.815 257.56C657.687 262.046 679.231 301.148 675.95 310.078C672.668 319.009 645.641 304.845 645.641 304.845L647.815 291.442L653.99 292.992C653.99 292.992 646.264 280.323 639.562 275.38C639.626 271.938 640.409 268.547 641.861 265.425C643.437 262.518 645.444 259.866 647.815 257.56Z" fill="#648CF5"/>
    <path opacity="0.3" d="M647.815 257.56C657.687 262.046 679.231 301.148 675.95 310.078C672.668 319.009 645.641 304.845 645.641 304.845L647.815 291.442L653.99 292.992C653.99 292.992 646.264 280.323 639.562 275.38C639.626 271.938 640.409 268.547 641.861 265.425C643.437 262.518 645.444 259.866 647.815 257.56Z" fill="white"/>
    <path d="M348.877 164.736L354.803 129.166C351.618 126.009 358.957 107.954 358.957 106.002C358.957 104.049 370.117 112.385 370.311 114.171C370.504 115.957 367.541 128.668 364.204 130.495L362.46 168.475C362.46 168.475 355.398 171.466 348.877 164.736Z" fill="#E4897B"/>
    <path d="M295.35 193.19C295.35 193.19 332.194 191.584 339.269 186.461C346.345 181.338 351.232 137.39 351.232 137.39L369.232 139.163C369.232 139.163 364.428 187.859 354.998 200.085C345.569 212.311 308.462 218.168 308.462 218.168L295.35 193.19Z" fill="#263238"/>
    <path opacity="0.2" d="M369.26 139.163C369.26 139.163 364.455 187.859 355.026 200.085C350.332 206.15 338.729 210.678 328.289 213.682C321.766 215.537 315.147 217.035 308.462 218.168L301.317 204.53L295.363 193.19C295.363 193.19 332.208 191.584 339.283 186.461C346.358 181.338 351.246 137.39 351.246 137.39L369.26 139.163Z" fill="white"/>
    <path opacity="0.2" d="M328.29 213.627C321.769 215.5 315.15 217.016 308.463 218.168L301.318 204.53C308.463 205.153 323.527 207.202 328.29 213.627Z" fill="black"/>
    <path d="M211.346 237.165L192.307 206.482C194.052 202.328 196.6 188.247 195.783 186.461C194.966 184.675 181.632 180.701 181.078 182.376C179.431 186.835 180.303 210.899 184.138 211.315L200.269 245.805C200.269 245.805 207.87 245.888 211.346 237.165Z" fill="#E4897B"/>
    <path d="M301.887 539.895L313.13 541.086L315.234 516.855L304.005 515.665L301.887 539.895Z" fill="#E4897B"/>
    <path d="M245.838 539.078H256.721L257.621 513.864H246.724L245.838 539.078Z" fill="#E4897B"/>
    <path d="M258.228 537.818H245.005C244.788 537.817 244.577 537.89 244.408 538.027C244.239 538.163 244.122 538.353 244.078 538.566L241.932 548.258C241.846 548.675 241.929 549.109 242.162 549.464C242.396 549.82 242.761 550.068 243.178 550.155C243.293 550.169 243.409 550.169 243.524 550.155C247.802 550.086 250.918 549.823 256.29 549.823C259.599 549.823 269.582 550.169 274.151 550.169C278.72 550.169 279.316 545.655 277.447 545.24C269.056 543.412 262.742 540.878 260.056 538.469C259.553 538.026 258.898 537.793 258.228 537.818Z" fill="#263238"/>
    <path d="M258.975 539.327C258.925 539.314 258.879 539.286 258.844 539.246C258.81 539.207 258.788 539.158 258.781 539.106C258.775 539.057 258.783 539.007 258.806 538.962C258.828 538.918 258.863 538.881 258.906 538.857C259.294 538.607 262.811 536.447 264.015 537.071C264.152 537.133 264.267 537.235 264.346 537.363C264.425 537.492 264.464 537.64 264.458 537.791C264.498 538.048 264.469 538.312 264.374 538.555C264.28 538.799 264.122 539.012 263.918 539.175C263.304 539.592 262.567 539.787 261.827 539.729C260.865 539.698 259.909 539.564 258.975 539.327ZM259.723 538.967C260.993 539.397 262.379 539.327 263.6 538.774C263.73 538.66 263.83 538.516 263.891 538.354C263.951 538.192 263.97 538.017 263.946 537.846C263.946 537.638 263.849 537.541 263.78 537.541C263.679 537.483 263.563 537.459 263.447 537.472C262.118 537.739 260.853 538.261 259.723 539.009V538.967Z" fill="#648CF5"/>
    <path d="M258.906 539.383C258.869 539.356 258.838 539.32 258.816 539.28C258.795 539.239 258.783 539.194 258.781 539.148C258.781 538.995 259.058 535.866 260.318 534.841C260.466 534.711 260.641 534.615 260.829 534.557C261.018 534.5 261.217 534.484 261.412 534.509C261.609 534.503 261.802 534.568 261.954 534.693C262.107 534.818 262.209 534.993 262.243 535.188C262.464 536.337 260.29 538.732 259.169 539.341H259.044C259.004 539.369 258.955 539.384 258.906 539.383ZM260.65 535.146C259.889 536.126 259.44 537.313 259.363 538.552C260.484 537.708 261.869 535.894 261.73 535.188C261.73 535.118 261.73 534.925 261.357 534.925H261.232C261.018 534.929 260.813 535.007 260.65 535.146Z" fill="#648CF5"/>
    <path d="M314.305 537.472H301.082C300.864 537.471 300.653 537.544 300.484 537.68C300.315 537.817 300.199 538.007 300.154 538.22L298.008 547.912C297.922 548.329 298.005 548.763 298.238 549.118C298.472 549.474 298.837 549.722 299.254 549.809C299.369 549.822 299.485 549.822 299.6 549.809C303.878 549.74 306.994 549.477 312.366 549.477C315.675 549.477 325.658 549.823 330.227 549.823C334.797 549.823 335.392 545.309 333.523 544.894C325.132 543.066 318.818 540.532 316.132 538.123C315.629 537.68 314.975 537.447 314.305 537.472Z" fill="#263238"/>
    <path d="M315.051 539.009C315.001 538.996 314.955 538.967 314.921 538.928C314.886 538.888 314.864 538.84 314.858 538.787C314.851 538.738 314.86 538.688 314.882 538.644C314.904 538.599 314.939 538.563 314.982 538.538C315.37 538.289 318.887 536.129 320.091 536.752C320.228 536.815 320.343 536.917 320.422 537.045C320.501 537.173 320.54 537.322 320.534 537.472C320.574 537.73 320.545 537.994 320.451 538.237C320.356 538.48 320.198 538.694 319.994 538.857C319.381 539.273 318.643 539.469 317.904 539.411C316.941 539.38 315.985 539.245 315.051 539.009ZM315.799 538.649C317.069 539.078 318.455 539.009 319.676 538.455C319.806 538.342 319.906 538.197 319.967 538.035C320.027 537.873 320.046 537.699 320.022 537.528C320.022 537.32 319.925 537.223 319.856 537.223C319.756 537.165 319.639 537.14 319.524 537.154C318.199 537.399 316.935 537.897 315.799 538.621V538.649Z" fill="#648CF5"/>
    <path d="M314.982 539.009C314.945 538.982 314.914 538.946 314.893 538.906C314.871 538.865 314.859 538.82 314.857 538.774C314.857 538.621 315.134 535.492 316.394 534.467C316.542 534.337 316.717 534.24 316.905 534.183C317.094 534.126 317.293 534.109 317.488 534.135C317.685 534.129 317.878 534.194 318.03 534.319C318.183 534.444 318.286 534.619 318.319 534.814C318.54 535.963 316.367 538.358 315.245 538.967H315.12C315.08 538.995 315.031 539.01 314.982 539.009ZM316.768 534.855C316.006 535.835 315.558 537.022 315.48 538.261C316.602 537.417 317.987 535.603 317.848 534.897C317.848 534.827 317.848 534.634 317.474 534.634H317.35C317.136 534.638 316.931 534.716 316.768 534.855Z" fill="#648CF5"/>
    <path opacity="0.2" d="M304.004 515.665L315.233 516.855L314.139 529.344L302.896 528.167L304.004 515.665Z" fill="black"/>
    <path opacity="0.2" d="M246.723 513.878H257.62L257.149 526.88H246.252L246.723 513.878Z" fill="black"/>
    <path d="M251.222 292.702H308.988C314.527 322.692 331.682 428.85 319.345 523.418L299.781 521.009C299.781 521.009 301.594 395.453 284.328 349.041C282.348 373.881 279.981 400.272 277.931 414.381C272.905 448.996 262.147 524.637 262.147 524.637H242.236C242.236 524.637 246.307 452.236 248.19 418.216C250.309 381.261 251.139 300.289 251.222 292.702Z" fill="#648CF5"/>
    <path d="M321.574 527.974L297.371 524.374L298.119 517.672L323.291 520.981L321.574 527.974Z" fill="#648CF5"/>
    <path d="M264.543 524.789H241.061V517.769L265.43 517.312L264.543 524.789Z" fill="#648CF5"/>
    <path opacity="0.2" d="M284.33 349.027C287.169 357.142 289.327 365.478 290.782 373.95C292.402 351.797 285.936 328.397 285.936 328.397L284.33 349.027Z" fill="black"/>
    <path d="M241.213 197.87C244.412 209.62 246.726 221.594 248.136 233.69C248.593 237.401 248.967 241.042 249.271 244.573C249.673 249.059 249.95 253.379 250.171 257.477C250.448 262.67 250.531 268.803 250.517 274.84C250.517 288.686 249.936 302.048 249.936 302.048C261.013 304.817 293.025 302.975 310.512 301.701C312.573 284.98 313.11 268.107 312.119 251.288C311.541 240.182 310.32 229.119 308.463 218.155C307.524 212.3 306.22 206.511 304.559 200.819C303.916 198.802 302.708 197.011 301.078 195.659C299.449 194.307 297.466 193.45 295.365 193.19C293.246 192.927 290.796 192.664 288.22 192.512C287.223 192.512 286.226 192.415 285.216 192.401C276.956 192.495 268.708 193.068 260.514 194.118C258.964 194.298 257.385 194.533 255.862 194.782C250.928 195.553 246.038 196.584 241.213 197.87Z" fill="#263238"/>
    <path opacity="0.7" d="M310.51 301.715C293.022 302.989 261.01 304.831 249.933 302.062C249.933 302.062 250.487 288.728 250.515 274.854C250.515 268.817 250.446 262.683 250.169 257.491C249.947 253.337 249.67 249.073 249.269 244.587C248.964 241.056 248.59 237.414 248.133 233.704C248.023 232.707 247.898 231.696 247.76 230.699C247.358 227.501 246.873 224.316 246.375 221.145V221.062L251.761 213.308L262.464 197.884C262.464 197.884 280.27 205.084 287.664 194.81C295.009 200.298 301.699 206.611 307.602 213.627C307.893 215.011 308.17 216.59 308.447 218.182C310.309 229.147 311.534 240.21 312.116 251.316C313.107 268.13 312.569 284.999 310.51 301.715Z" fill="white"/>
    <path d="M269.404 216.036C278.8 215.787 288.202 216.069 297.566 216.881C298.656 217.007 299.66 217.53 300.388 218.35C301.116 219.169 301.516 220.229 301.513 221.325C301.514 221.913 301.4 222.495 301.176 223.039C300.952 223.582 300.622 224.076 300.207 224.492C299.791 224.907 299.297 225.237 298.754 225.461C298.21 225.685 297.628 225.799 297.04 225.798H269.528C268.382 225.799 267.278 225.36 266.446 224.572C265.614 223.783 265.116 222.705 265.056 221.561V220.744C265.022 220.147 265.109 219.549 265.311 218.987C265.513 218.424 265.826 217.908 266.232 217.468C266.638 217.029 267.127 216.676 267.672 216.43C268.217 216.184 268.806 216.05 269.404 216.036Z" fill="#263238"/>
    <path opacity="0.2" d="M241.213 197.87C244.412 209.62 246.726 221.594 248.136 233.69C248.593 237.401 248.967 241.042 249.271 244.573C249.673 249.059 249.95 253.379 250.171 257.477C250.448 262.67 250.531 268.803 250.517 274.84C250.517 288.686 249.936 302.048 249.936 302.048C261.013 304.817 293.025 302.975 310.512 301.701C312.573 284.98 313.11 268.107 312.119 251.288C311.541 240.182 310.32 229.119 308.463 218.155C307.524 212.3 306.22 206.511 304.559 200.819C303.916 198.802 302.708 197.011 301.078 195.659C299.449 194.307 297.466 193.45 295.365 193.19C293.246 192.927 290.796 192.664 288.22 192.512C287.223 192.512 286.226 192.415 285.216 192.401C276.956 192.495 268.708 193.068 260.514 194.118C258.964 194.298 257.385 194.533 255.862 194.782C250.928 195.553 246.038 196.584 241.213 197.87Z" fill="white"/>
    <path d="M289.991 144.244C289.991 144.244 293.411 156.249 286.252 162.992C279.094 169.735 275.508 142.043 275.508 142.043L289.991 144.244Z" fill="#263238"/>
    <path d="M260.484 194.049C265.787 198.867 278.789 197.081 278.789 197.081C278.789 197.081 286.889 194.866 285.186 192.332C280.409 191.542 278.097 189.313 277.141 186.461C276.618 184.693 276.453 182.838 276.657 181.006C276.736 179.984 276.87 178.967 277.058 177.959L260.997 166.066C263.101 173.916 265.677 188.358 260.484 194.049Z" fill="#E4897B"/>
    <path opacity="0.2" d="M264.709 173.626C265.346 183.318 273.266 185.921 277.17 186.461C276.647 184.693 276.483 182.838 276.686 181.006L264.709 173.626Z" fill="black"/>
    <path d="M264.875 177.793C266.849 180.027 269.502 181.552 272.426 182.132C275.35 182.712 278.384 182.317 281.061 181.006C284.551 179.373 287.291 176.478 288.732 172.906C288.926 172.421 289.106 171.909 289.258 171.383C292.027 161.787 291.127 145.726 280.743 141.018C277.192 139.381 273.136 139.221 269.467 140.574C265.798 141.926 262.816 144.681 261.178 148.232C260.189 150.328 259.714 152.63 259.794 154.947C260.001 165.733 259.641 172.089 264.875 177.793Z" fill="#E4897B"/>
    <path d="M276.049 158.616C275.952 159.489 276.451 160.223 277.032 160.236C277.614 160.25 278.098 159.558 278.14 158.686C278.181 157.813 277.725 157.079 277.157 157.066C276.589 157.052 276.091 157.73 276.049 158.616Z" fill="#263238"/>
    <path d="M285.977 159.004C285.88 159.877 286.379 160.61 286.946 160.638C287.514 160.666 288.012 159.96 288.054 159.087C288.095 158.215 287.639 157.481 287.071 157.453C286.503 157.426 286.005 158.243 285.977 159.004Z" fill="#263238"/>
    <path d="M282.805 159.323C283.74 162.048 285.049 164.629 286.696 166.993C286.074 167.396 285.371 167.66 284.638 167.765C283.904 167.87 283.156 167.815 282.445 167.603L282.805 159.323Z" fill="#DE5753"/>
    <path d="M273.101 155.28C273.194 155.301 273.292 155.295 273.382 155.263C273.473 155.231 273.553 155.175 273.613 155.1C274.011 154.591 274.523 154.182 275.107 153.906C275.691 153.629 276.331 153.493 276.977 153.507C277.045 153.515 277.113 153.509 277.178 153.49C277.243 153.472 277.304 153.44 277.357 153.397C277.409 153.355 277.453 153.302 277.486 153.243C277.518 153.183 277.538 153.118 277.545 153.05C277.557 152.915 277.516 152.781 277.431 152.675C277.346 152.569 277.223 152.5 277.088 152.483C276.272 152.447 275.459 152.606 274.717 152.948C273.975 153.29 273.326 153.805 272.824 154.449C272.729 154.545 272.676 154.674 272.676 154.809C272.676 154.944 272.729 155.073 272.824 155.169C272.908 155.222 273.002 155.26 273.101 155.28Z" fill="#263238"/>
    <path d="M290.365 155.764C290.464 155.798 290.571 155.798 290.67 155.764C290.733 155.74 290.79 155.703 290.838 155.656C290.886 155.609 290.925 155.553 290.95 155.491C290.976 155.429 290.989 155.362 290.989 155.295C290.988 155.228 290.974 155.161 290.947 155.1C290.637 154.342 290.15 153.669 289.526 153.139C288.901 152.609 288.159 152.237 287.361 152.053C287.226 152.037 287.09 152.072 286.979 152.151C286.869 152.231 286.792 152.349 286.766 152.483C286.749 152.616 286.785 152.751 286.865 152.859C286.944 152.967 287.063 153.04 287.195 153.064C287.816 153.232 288.389 153.543 288.87 153.97C289.35 154.398 289.725 154.932 289.964 155.529C290.008 155.597 290.067 155.654 290.136 155.695C290.206 155.736 290.285 155.759 290.365 155.764Z" fill="#263238"/>
    <path d="M273.321 135.84C272.033 135.84 270.746 135.84 269.458 135.937C265.735 136.076 262.134 137.304 259.101 139.467C252.316 144.77 255.03 155.75 256.913 162.853C259.42 172.296 263.836 176.159 263.836 176.159C260.956 171.881 260.486 162.867 261.94 162.438C263.393 162.009 263.504 163.753 263.504 163.753C266.55 161.247 268.766 155.03 267.201 151.057C266.01 147.997 269.236 145.2 272.407 146.307L273.363 146.626L274.844 147.097L273.321 135.84Z" fill="#263238"/>
    <path d="M254.767 163.601C255.863 166.085 257.9 168.032 260.43 169.015C263.795 170.289 265.802 167.367 265.152 164.016C264.542 161.04 262.078 156.706 258.561 156.886C255.044 157.066 253.452 160.527 254.767 163.601Z" fill="#E4897B"/>
    <path d="M280.935 169.749C280.256 170.852 279.659 172.005 279.149 173.196C278.914 173.196 278.692 173.099 278.471 173.03C275.466 172.241 274.317 170.884 273.985 169.624C273.838 169 273.838 168.351 273.985 167.727C274.052 167.369 274.174 167.024 274.345 166.703C275.972 168.011 277.86 168.955 279.883 169.472C280.534 169.652 280.935 169.749 280.935 169.749Z" fill="#263238"/>
    <path d="M279.913 169.458L279.359 170.469C276.59 169.721 274.637 168.821 273.973 167.699C274.04 167.342 274.162 166.996 274.333 166.675C275.971 167.993 277.874 168.943 279.913 169.458Z" fill="white"/>
    <path d="M278.47 173.03C275.466 172.241 274.317 170.884 273.984 169.624C275.124 169.945 276.198 170.465 277.155 171.161C277.783 171.626 278.245 172.282 278.47 173.03Z" fill="#DE5753"/>
    <path d="M255.182 155.252C255.182 155.252 253.479 148.661 253.797 144.867C254.116 141.074 262.23 132.849 271.077 132.06C279.925 131.271 282.154 132.06 284.923 135.051C287.693 138.041 289.659 146.03 289.659 146.03C289.659 146.03 272.31 141.932 255.182 155.252Z" fill="#648CF5"/>
    <path d="M255.182 155.252C255.182 155.252 271.395 137.474 287.595 136.089C303.795 134.704 306.107 139.523 290.697 148.55C290.697 148.55 281.157 140.603 255.182 155.252Z" fill="#648CF5"/>
    <path opacity="0.2" d="M255.182 155.252C255.182 155.252 271.395 137.474 287.595 136.089C303.795 134.704 306.107 139.523 290.697 148.55C290.697 148.55 281.157 140.603 255.182 155.252Z" fill="black"/>
    <path opacity="0.2" d="M247.76 230.699C247.358 227.501 246.873 224.316 246.375 221.145V221.062C246.846 220.273 250.709 213.807 251.097 209.182C251.422 210.548 251.644 211.937 251.761 213.336C252.176 217.781 251.983 224.898 247.76 230.699Z" fill="black"/>
    <path d="M247.067 225.701C244.45 235.033 228.846 254.985 216.44 256.688C194.051 259.762 183.652 220.204 183.652 220.204L199.174 209.722C199.174 209.722 206.997 227.404 211.04 230.117C216.038 233.482 232.501 204.544 241.21 197.87C241.21 197.87 254.281 200.044 247.067 225.701Z" fill="#263238"/>
    <path opacity="0.2" d="M247.067 225.701C244.45 235.033 228.846 254.985 216.44 256.688C194.051 259.762 183.652 220.204 183.652 220.204L199.174 209.722C199.174 209.722 206.997 227.404 211.04 230.117C216.038 233.482 232.501 204.544 241.21 197.87C241.21 197.87 254.281 200.044 247.067 225.701Z" fill="white"/>
    <path d="M471.443 212.242L481.039 205.568C482.109 203.587 483.396 201.729 484.874 200.03C486.785 198.036 492.808 194.907 494.455 195.101C496.103 195.295 503.691 200.764 500.714 203.644C497.737 206.524 490.468 210.151 489.249 209.708L488.031 209.265L475.999 218.958L471.443 212.242Z" fill="#EEC1BB"/>
    <path d="M484.873 213.918C484.873 213.918 458.413 237.165 448.305 242.219C443.349 244.711 431.69 248.726 421.223 252.133C410.423 255.636 400.8 258.516 400.8 258.516L399.124 255.4L389.557 237.608C389.557 237.608 439.541 230.685 443.93 228.844C448.319 227.002 478.282 205.541 478.282 205.541L484.873 213.918Z" fill="#263238"/>
    <path opacity="0.2" d="M421.264 252.133C410.464 255.636 400.841 258.516 400.841 258.516L399.166 255.4V247.203C399.166 247.203 414.466 247.688 421.264 252.133Z" fill="black"/>
    <path d="M326.074 332.426L319.483 342.118C319.17 344.339 318.622 346.52 317.849 348.626C316.756 351.173 312.242 356.227 310.636 356.629C309.029 357.03 299.974 354.607 301.746 350.869C303.519 347.13 309.016 341.177 310.317 341.177H311.605L319.428 327.87L326.074 332.426Z" fill="#EEC1BB"/>
    <path d="M372.278 184.01C379.7 183.913 394.861 196.97 394.861 196.97C394.861 196.97 399.347 216.354 403.543 220.328L400.331 221.713L397.644 217.642L399.167 223.527C399.167 223.527 385.751 229.522 374.688 230.104C363.625 230.685 358.516 228.456 358.516 228.456L359.623 223.527L357.477 227.764L352.936 225.839C355.056 218.395 356.575 210.792 357.477 203.104C358.516 192.29 372.278 184.01 372.278 184.01Z" fill="#263238"/>
    <path d="M389.266 485.632C380.89 496.155 373.371 505.695 366.808 512.66C360.259 519.708 356.881 524.083 356.881 524.083L350.387 520.358C350.387 520.358 356.382 510.874 364.51 497.789C371.433 486.712 379.893 473.005 387.577 460.308C397.533 443.914 406.159 429.21 408.443 423.948C410.063 420.21 405.674 405.851 400.8 392.31C395.857 378.533 390.43 365.573 390.43 365.573L408.153 335.61C408.153 335.61 415.352 355.563 421.749 376.609C425.903 390.455 429.794 404.647 431.082 414.118C432.868 427.34 410.036 459.491 389.266 485.632Z" fill="#EEC1BB"/>
    <path opacity="0.2" d="M389.322 485.632C381.014 496.155 372.914 505.695 366.933 512.66C366.074 508.381 365.216 503.314 364.523 497.789C371.446 486.712 379.906 473.005 387.591 460.308C387.424 468.784 388.003 477.258 389.322 485.632Z" fill="black"/>
    <path opacity="0.2" d="M421.722 376.609L400.8 392.31C395.857 378.533 390.43 365.573 390.43 365.573L408.153 335.61C408.153 335.61 415.325 355.563 421.722 376.609Z" fill="black"/>
    <path d="M385.181 539.383L377.691 540.394C377.691 540.394 366.863 487.128 367.195 443.167C363.18 428.623 360.045 413.85 357.808 398.929C355.149 380.929 353.848 360.88 357.351 345.926L383.589 357.737L384.129 397.087L384.572 429.888L385.181 539.383Z" fill="#EEC1BB"/>
    <path opacity="0.2" d="M384.076 397.059L357.768 398.901C355.11 380.901 353.809 360.852 357.312 345.898L383.55 357.709L384.076 397.059Z" fill="black"/>
    <path d="M350.818 516.218C351.593 515.651 358.129 525.44 358.129 525.44C358.129 525.44 356.675 535.644 359.624 542.221C362.573 548.798 356.855 548.23 352.078 542L340.309 526.548C336.93 522.158 342.815 522.048 350.818 516.218Z" fill="#263238"/>
    <path d="M360.344 532.82C358.862 532.474 357.893 528.251 357.713 527.406V527.281C357.713 527.281 357.713 527.281 357.713 527.184V527.101H357.81C357.948 527.101 360.717 526.188 362.199 527.101C362.427 527.23 362.625 527.407 362.778 527.62C362.931 527.832 363.036 528.076 363.085 528.334C363.21 528.915 363.085 529.317 362.78 529.538C362.476 529.76 361.257 529.608 360.274 529.151C360.939 529.763 361.419 530.55 361.659 531.421C361.69 531.594 361.683 531.77 361.64 531.94C361.597 532.109 361.519 532.268 361.41 532.404C361.304 532.564 361.162 532.697 360.997 532.793C360.831 532.889 360.645 532.946 360.454 532.958L360.344 532.82ZM360.482 532.224C360.482 532.224 360.731 532.224 361.022 531.906C361.078 531.834 361.118 531.752 361.14 531.663C361.161 531.575 361.164 531.483 361.147 531.394C361.022 530.424 359.554 528.998 358.53 528.14C358.987 529.954 359.79 532.086 360.482 532.224ZM358.779 527.461C360.357 528.444 362.102 529.22 362.545 528.846C362.67 528.763 362.628 528.458 362.545 528.278C362.511 528.107 362.44 527.945 362.337 527.804C362.234 527.663 362.102 527.546 361.95 527.461C361.52 527.247 361.045 527.143 360.565 527.157C359.96 527.193 359.362 527.295 358.779 527.461Z" fill="#648CF5"/>
    <path d="M374.924 535.561C374.924 534.606 386.679 535.354 386.679 535.354C386.679 535.354 393.906 542.692 400.926 544.354C407.946 546.015 404.014 550.21 396.177 550.21H376.793C371.24 550.21 374.73 545.461 374.924 535.561Z" fill="#263238"/>
    <path d="M388.035 536.863C387.998 536.848 387.964 536.824 387.938 536.794C387.934 536.766 387.934 536.738 387.938 536.711C387.932 536.679 387.932 536.646 387.938 536.614C387.938 536.614 387.938 536.517 387.938 536.489C387.938 536.461 388.963 533.623 390.555 532.958C390.792 532.849 391.049 532.792 391.31 532.792C391.57 532.792 391.828 532.849 392.064 532.958C392.604 533.221 392.867 533.554 392.84 533.955C392.812 534.357 391.967 535.187 391.012 535.7C391.899 535.547 392.811 535.648 393.643 535.991C393.799 536.069 393.936 536.181 394.046 536.317C394.156 536.453 394.235 536.611 394.28 536.78C394.364 536.992 394.381 537.226 394.329 537.448C394.277 537.671 394.159 537.873 393.989 538.026C393.688 538.242 393.32 538.345 392.95 538.317C391.238 538.13 389.573 537.637 388.035 536.863ZM389.101 536.669C390.832 537.403 392.992 538.054 393.546 537.597C393.546 537.597 393.74 537.431 393.615 536.974C393.59 536.886 393.547 536.804 393.49 536.733C393.433 536.661 393.363 536.602 393.283 536.558C392.848 536.366 392.373 536.281 391.898 536.309C390.956 536.335 390.019 536.456 389.101 536.669ZM390.735 533.54C389.806 534.135 389.1 535.021 388.727 536.06C390.458 535.395 392.133 534.481 392.175 533.955C392.175 533.789 391.912 533.637 391.746 533.567C391.577 533.487 391.393 533.444 391.206 533.443C391.044 533.442 390.883 533.475 390.735 533.54Z" fill="#648CF5"/>
    <path d="M395.693 384.93L424.091 370.087C415.174 342.977 407.13 327.594 407.13 327.594C379.244 332.371 381.791 354.413 381.791 354.413C381.791 354.413 388.894 369.09 395.693 384.93Z" fill="#648CF5"/>
    <path opacity="0.2" d="M393.907 380.749C394.516 382.133 395.112 383.518 395.721 384.902L424.092 370.087C415.175 342.977 407.13 327.594 407.13 327.594C389.92 330.557 384.298 340.055 382.512 346.978C381.857 349.413 381.609 351.939 381.778 354.455C381.778 354.455 387.677 366.598 393.907 380.749Z" fill="white"/>
    <path opacity="0.2" d="M393.907 380.749C387.677 366.598 381.778 354.441 381.778 354.441C381.609 351.926 381.857 349.399 382.512 346.964C383.4 346.383 384.384 345.965 385.42 345.732C385.42 345.732 393.007 357.626 393.907 380.749Z" fill="black"/>
    <path d="M386.942 391.05L386.001 345.677L408.487 339.114C408.487 339.114 406.728 318.344 404.098 308.029C404.098 308.029 367.572 298.932 362.006 311.324C362.006 311.324 362.006 311.518 361.922 311.588L361.839 311.698C361.839 311.698 351.344 330.155 354.473 391.05H386.942Z" fill="#648CF5"/>
    <path opacity="0.2" d="M386.942 391.05L386.001 345.677L408.487 339.114C408.487 339.114 406.728 318.344 404.098 308.029C404.098 308.029 367.572 298.932 362.006 311.324C362.006 311.324 362.006 311.518 361.922 311.588L361.839 311.698C361.839 311.698 351.344 330.155 354.473 391.05H386.942Z" fill="white"/>
    <path d="M361.562 305.038V311.228L403.544 307.988V300.663L361.562 305.038Z" fill="#648CF5"/>
    <path d="M375.805 302.41L373.703 302.517L374.25 313.206L376.352 313.099L375.805 302.41Z" fill="#648CF5"/>
    <path d="M394.121 302.157L384.867 302.986L385.495 309.992L394.749 309.163L394.121 302.157Z" fill="white"/>
    <path d="M401.643 299.584L399.541 299.691L400.088 310.38L402.19 310.273L401.643 299.584Z" fill="#648CF5"/>
    <path opacity="0.2" d="M375.805 302.41L373.703 302.517L374.25 313.206L376.352 313.099L375.805 302.41Z" fill="white"/>
    <path opacity="0.2" d="M401.643 299.584L399.541 299.691L400.088 310.38L402.19 310.273L401.643 299.584Z" fill="white"/>
    <path d="M404 301.411L361.756 305.011C361.442 298.47 360.763 291.952 359.72 285.488C358.485 278.523 356.835 271.639 354.777 264.871C353.573 260.717 352.146 256.259 350.443 251.122C349.64 248.667 348.759 246.068 347.799 243.327C353.54 241.487 359.408 240.071 365.356 239.09C371.634 237.999 377.983 237.356 384.352 237.165C392.577 237.165 402.034 238.024 402.034 238.024C402.034 238.024 403.418 238.356 404.222 247.065C404.997 255.234 405.758 271.614 404 301.411Z" fill="#263238"/>
    <path d="M351.73 389.195L388.783 388.862L388.132 394.442L353.364 394.11L351.73 389.195Z" fill="#648CF5"/>
    <path d="M393.379 384.598L424.2 367.872L425.848 372.787L395.996 387.547L393.379 384.598Z" fill="#648CF5"/>
    <path d="M380.862 246.483C370.436 245.099 367.293 240.682 367.293 240.682C371.558 236.68 370.782 230.74 369.702 227.044C369.371 225.874 368.94 224.734 368.415 223.637L380.973 225.977C380.677 227.726 380.51 229.494 380.474 231.267C380.44 232.573 380.561 233.879 380.834 235.157C381.693 238.91 383.825 238.951 383.825 238.951C385.999 243.077 380.862 246.483 380.862 246.483Z" fill="#EEC1BB"/>
    <path opacity="0.2" d="M380.462 231.267C380.427 232.573 380.548 233.879 380.822 235.157C375.837 234.493 372.057 230.505 369.745 227.044C369.413 225.874 368.983 224.734 368.457 223.637L381.015 225.977C380.701 227.724 380.516 229.492 380.462 231.267Z" fill="black"/>
    <path d="M378.411 191.224C389.322 191.625 392.617 197.607 393.005 208.891C393.475 222.987 390 232.859 376.459 229.342C358.071 224.579 360.273 190.559 378.411 191.224Z" fill="#EEC1BB"/>
    <path d="M386 208.088C386.814 209.748 387.823 211.305 389.005 212.727C388.67 213.168 388.22 213.507 387.704 213.708C387.189 213.908 386.627 213.962 386.083 213.862L386 208.088Z" fill="#D4827D"/>
    <path d="M379.492 199.324C378.633 199.187 377.755 199.25 376.924 199.507C376.093 199.764 375.333 200.208 374.701 200.805" stroke="#263238" stroke-width="0.707962" stroke-linecap="round" stroke-linejoin="round"/>
    <path d="M387.383 199.158C388.137 198.999 388.917 199.013 389.665 199.197C390.413 199.382 391.109 199.733 391.703 200.224" stroke="#263238" stroke-width="0.707962" stroke-linecap="round" stroke-linejoin="round"/>
    <path d="M384.311 218.016C383.758 219.231 383.295 220.485 382.927 221.768L382.235 221.671C379.064 221.228 377.748 219.982 377.236 218.736C377.005 218.118 376.924 217.453 377.001 216.798C377.031 216.424 377.11 216.057 377.236 215.704C379.066 216.854 381.128 217.586 383.273 217.85C383.882 217.974 384.311 218.016 384.311 218.016Z" fill="#263238"/>
    <path d="M383.229 217.85L382.786 218.944C379.795 218.528 377.76 217.836 376.957 216.798C376.988 216.424 377.067 216.057 377.192 215.704C379.023 216.854 381.084 217.586 383.229 217.85Z" fill="white"/>
    <path d="M382.192 221.671C379.021 221.228 377.706 219.982 377.193 218.736C378.393 218.927 379.55 219.325 380.613 219.913C381.305 220.326 381.855 220.939 382.192 221.671Z" fill="#DE5753"/>
    <path d="M365.799 209.182C365.799 209.182 371.24 200.404 370.714 193.453C370.714 193.453 392.674 185.409 392.868 207.41C392.868 207.41 395.637 188.025 376.945 186.862C358.253 185.699 357.256 213.17 366.643 221.727C366.712 221.727 362.462 214.679 365.799 209.182Z" fill="#263238"/>
    <path d="M367.487 211.55C367.46 210.922 367.31 210.306 367.045 209.737C366.78 209.168 366.405 208.656 365.942 208.232C365.479 207.807 364.937 207.478 364.347 207.264C363.756 207.049 363.13 206.953 362.502 206.981C359.11 207.23 357.241 214.111 365.59 216.091C366.781 216.396 367.514 215.219 367.487 211.55Z" fill="#EEC1BB"/>
    <path d="M372.279 184.01C378.178 182.376 393.921 182.155 397.645 198.438L395.458 199.532C391.759 197.677 387.76 196.495 383.647 196.042C382.773 194.487 381.748 193.022 380.587 191.667C380.707 193.049 380.707 194.439 380.587 195.821C380.587 195.821 370.313 197.316 365.716 201.498C358.503 208.061 358.073 212.214 358.073 212.214C358.073 212.214 353.061 189.355 372.279 184.01Z" fill="#263238"/>
    <path d="M371.404 185.215C371.404 185.215 392.506 177.89 399.096 197.898" stroke="#263238" stroke-width="0.488465" stroke-linecap="round" stroke-linejoin="round"/>
    <path d="M376.307 206.884C376.307 206.884 378.868 204.71 380.073 207.632C378.901 207.068 377.605 206.81 376.307 206.884Z" fill="#263238"/>
    <path d="M388.465 208.504C388.465 208.504 389.849 205.541 391.76 207.631C390.608 207.655 389.478 207.954 388.465 208.504Z" fill="#263238"/>
    <path opacity="0.3" d="M392.617 252.617H398.737C398.959 252.627 399.175 252.69 399.368 252.802C399.56 252.913 399.723 253.069 399.842 253.256C399.962 253.443 400.035 253.657 400.054 253.878C400.074 254.1 400.04 254.322 399.955 254.528L397.421 259.983C397.311 260.19 397.15 260.366 396.954 260.494C396.757 260.621 396.531 260.697 396.297 260.714C396.063 260.73 395.829 260.687 395.617 260.589C395.404 260.49 395.22 260.339 395.081 260.149L391.481 254.708C391.359 254.502 391.292 254.267 391.287 254.027C391.283 253.788 391.34 253.551 391.455 253.34C391.569 253.129 391.737 252.952 391.94 252.825C392.144 252.698 392.377 252.627 392.617 252.617Z" fill="white"/>
    <path opacity="0.2" d="M359.693 285.543C358.458 278.578 356.807 271.694 354.75 264.926L357.048 260.773C359.934 268.691 360.841 277.194 359.693 285.543Z" fill="black"/>
    <path d="M347.799 243.382C343.839 248.394 342.053 284.325 334.036 298.891C326.019 313.457 314.748 333.229 314.748 333.229L322.973 340.374C322.973 340.374 348.297 310.798 352.34 299.431C356.383 288.063 357.477 272.957 357.477 272.957C359.692 252.617 347.799 243.382 347.799 243.382Z" fill="#263238"/>
    <path opacity="0.6" d="M350.818 516.218C351.593 515.651 358.129 525.44 358.129 525.44C358.129 525.44 356.675 535.644 359.624 542.221C362.573 548.798 356.855 548.23 352.078 542L340.309 526.548C336.93 522.158 342.815 522.048 350.818 516.218Z" fill="white"/>
    <path opacity="0.6" d="M374.924 535.561C374.924 534.606 386.679 535.354 386.679 535.354C386.679 535.354 393.906 542.692 400.926 544.354C407.946 546.015 404.014 550.21 396.177 550.21H376.793C371.24 550.21 374.73 545.461 374.924 535.561Z" fill="white"/>
    <path d="M432.993 270.022C440.11 272.888 446.133 265.757 446.41 257.27C446.41 257.27 452.904 253.116 460.256 248.602C465.799 245.119 471.515 241.922 477.383 239.021C478.343 238.572 479.176 237.892 479.806 237.041C485.483 229.674 482.866 208.448 482.866 208.448C469.713 209.916 443.433 233.745 431.927 245.237C420.421 256.73 425.876 267.142 432.993 270.022Z" fill="#648CF5"/>
    <path opacity="0.2" d="M460.256 248.602C465.799 245.119 471.515 241.921 477.384 239.021C478.343 238.572 479.176 237.892 479.807 237.041L470.585 228.858C470.585 228.858 462.374 239.533 460.256 248.602Z" fill="black"/>
    <path d="M476.305 539.895L465.075 541.086L462.957 516.855L474.2 515.665L476.305 539.895Z" fill="#EBB376"/>
    <path d="M532.351 539.078H521.468L520.568 513.865H531.465L532.351 539.078Z" fill="#EBB376"/>
    <path d="M519.961 537.818H533.184C533.401 537.817 533.612 537.89 533.781 538.027C533.95 538.163 534.067 538.353 534.112 538.566L536.258 548.258C536.344 548.675 536.261 549.109 536.027 549.464C535.794 549.82 535.428 550.069 535.012 550.155C534.897 550.17 534.781 550.17 534.666 550.155C530.387 550.086 527.272 549.823 521.899 549.823C518.59 549.823 508.607 550.169 504.038 550.169C499.469 550.169 498.873 545.655 500.743 545.24C509.133 543.412 515.447 540.878 518.133 538.469C518.637 538.026 519.291 537.793 519.961 537.818Z" fill="#263238"/>
    <path d="M516.359 539.729C515.62 539.785 514.883 539.59 514.268 539.175C514.066 539.011 513.911 538.796 513.816 538.554C513.721 538.311 513.691 538.048 513.728 537.79C513.723 537.64 513.762 537.491 513.841 537.363C513.92 537.235 514.035 537.133 514.171 537.07C515.376 536.447 518.893 538.607 519.281 538.857C519.325 538.88 519.361 538.916 519.384 538.961C519.406 539.006 519.414 539.056 519.405 539.106C519.399 539.158 519.377 539.207 519.342 539.246C519.308 539.286 519.262 539.314 519.211 539.327C518.278 539.565 517.322 539.699 516.359 539.729ZM514.767 537.472C514.651 537.46 514.535 537.484 514.434 537.541C514.365 537.541 514.282 537.638 514.268 537.846C514.247 538.017 514.267 538.191 514.327 538.352C514.387 538.514 514.486 538.658 514.614 538.774C515.836 539.327 517.221 539.397 518.491 538.967C517.359 538.231 516.094 537.724 514.767 537.472Z" fill="#648CF5"/>
    <path d="M519.144 539.341H519.019C517.898 538.732 515.724 536.337 515.945 535.187C515.984 534.996 516.088 534.823 516.239 534.699C516.391 534.576 516.581 534.508 516.776 534.509C516.972 534.483 517.17 534.5 517.359 534.557C517.548 534.614 517.722 534.711 517.87 534.841C519.13 535.866 519.393 538.995 519.407 539.147C519.408 539.194 519.397 539.24 519.375 539.281C519.353 539.322 519.321 539.357 519.282 539.383C519.233 539.384 519.185 539.369 519.144 539.341ZM516.956 534.924H516.832C516.499 534.924 516.472 535.118 516.458 535.187C516.319 535.894 517.704 537.707 518.825 538.552C518.755 537.312 518.306 536.123 517.538 535.146C517.375 535.007 517.17 534.929 516.956 534.924Z" fill="#648CF5"/>
    <path d="M463.885 537.472H477.108C477.325 537.471 477.536 537.544 477.705 537.681C477.874 537.817 477.991 538.007 478.035 538.22L480.182 547.912C480.268 548.329 480.185 548.763 479.951 549.118C479.717 549.474 479.352 549.722 478.935 549.809C478.821 549.823 478.704 549.823 478.589 549.809C474.311 549.74 471.196 549.477 465.823 549.477C462.514 549.477 452.531 549.823 447.962 549.823C443.393 549.823 442.797 545.309 444.666 544.894C453.057 543.066 459.371 540.532 462.057 538.123C462.56 537.68 463.215 537.447 463.885 537.472Z" fill="#263238"/>
    <path d="M460.283 539.383C459.543 539.439 458.807 539.244 458.192 538.829C457.99 538.665 457.834 538.451 457.74 538.208C457.645 537.965 457.615 537.702 457.652 537.444C457.647 537.294 457.686 537.145 457.765 537.017C457.843 536.889 457.958 536.787 458.095 536.724C459.3 536.101 462.817 538.261 463.204 538.511C463.249 538.534 463.285 538.57 463.307 538.615C463.33 538.66 463.337 538.711 463.329 538.76C463.322 538.812 463.3 538.861 463.266 538.9C463.231 538.94 463.186 538.968 463.135 538.981C462.202 539.219 461.245 539.353 460.283 539.383ZM458.663 537.126C458.548 537.114 458.431 537.138 458.331 537.195C458.261 537.195 458.178 537.292 458.164 537.5C458.143 537.671 458.163 537.845 458.223 538.006C458.284 538.168 458.382 538.312 458.511 538.428C459.732 538.981 461.117 539.051 462.387 538.621C461.255 537.885 459.99 537.378 458.663 537.126Z" fill="#648CF5"/>
    <path d="M463.068 539.009H462.943C461.822 538.4 459.648 536.005 459.869 534.855C459.908 534.664 460.012 534.491 460.163 534.367C460.315 534.244 460.504 534.176 460.7 534.177C460.895 534.151 461.094 534.168 461.283 534.225C461.471 534.282 461.646 534.379 461.794 534.509C463.054 535.534 463.317 538.663 463.331 538.815C463.331 538.862 463.32 538.908 463.299 538.949C463.277 538.99 463.245 539.025 463.206 539.051C463.157 539.052 463.108 539.037 463.068 539.009ZM460.88 534.592H460.769C460.437 534.592 460.409 534.786 460.395 534.855C460.257 535.561 461.642 537.375 462.763 538.22C462.693 536.979 462.243 535.79 461.475 534.814C461.311 534.667 461.1 534.584 460.88 534.578V534.592Z" fill="#648CF5"/>
    <path opacity="0.2" d="M474.2 515.665L462.957 516.855L464.065 529.344L475.294 528.168L474.2 515.665Z" fill="black"/>
    <path opacity="0.2" d="M531.465 513.878H520.568L521.039 526.88H531.936L531.465 513.878Z" fill="black"/>
    <path d="M526.965 303.778H469.2C463.661 333.769 446.52 428.85 458.843 523.418L478.407 521.009C478.407 521.009 476.593 406.53 493.859 360.118C495.853 384.958 498.207 400.272 500.256 414.381C505.282 448.996 516.041 524.637 516.041 524.637H535.951C535.951 524.637 531.881 452.236 529.998 418.216C527.935 381.261 527.048 311.366 526.965 303.778Z" fill="#263238"/>
    <path d="M456.615 527.974L480.818 524.374L480.084 517.672L454.898 520.981L456.615 527.974Z" fill="#648CF5"/>
    <path d="M513.646 524.789H537.129V517.769L512.76 517.312L513.646 524.789Z" fill="#648CF5"/>
    <path opacity="0.2" d="M493.859 360.104C491.02 368.218 488.862 376.555 487.407 385.027C485.787 362.873 492.253 339.474 492.253 339.474L493.859 360.104Z" fill="black"/>
    <path d="M536.921 213.101C533.722 224.851 531.408 236.824 529.998 248.92C529.541 252.631 529.167 256.273 528.863 259.803C528.461 264.29 528.184 268.609 527.963 272.708C527.686 277.9 527.603 284.034 527.617 290.071C527.617 303.917 528.198 313.125 528.198 313.125C517.121 315.894 485.109 314.052 467.622 312.778C465.565 297.449 465.027 281.954 466.015 266.519C466.598 255.413 467.823 244.35 469.685 233.385C470.624 227.531 471.928 221.741 473.589 216.05C474.232 214.032 475.44 212.242 477.069 210.89C478.699 209.537 480.682 208.681 482.783 208.421C484.901 208.158 487.352 207.895 489.928 207.742C490.924 207.742 491.921 207.645 492.932 207.631C501.192 207.726 509.44 208.299 517.634 209.348C519.184 209.528 520.763 209.764 522.286 210.013C527.215 210.784 532.1 211.815 536.921 213.101Z" fill="#648CF5"/>
    <path d="M517.704 209.279C512.401 214.098 499.413 212.311 499.413 212.311C499.413 212.311 491.299 210.096 493.003 207.562C497.779 206.773 500.092 204.544 501.047 201.692C501.57 199.924 501.735 198.069 501.532 196.236C501.452 195.214 501.318 194.198 501.13 193.19L502.113 192.47L505.464 189.978L517.192 181.296C516.099 185.346 515.326 189.476 514.879 193.647C514.353 197.628 514.612 201.673 515.641 205.555C516.059 206.927 516.762 208.196 517.704 209.279Z" fill="#EBB376"/>
    <path opacity="0.2" d="M530.428 245.93C530.83 242.731 531.314 239.547 531.813 236.376V236.293C531.342 235.504 527.479 229.037 527.091 224.413C526.766 225.779 526.544 227.167 526.427 228.567C526.011 233.011 526.205 240.128 530.428 245.93Z" fill="black"/>
    <path d="M559.144 279.562L541.075 315.797C536.118 316.572 530.857 337.784 529.638 339.598C528.42 341.412 543.983 341.149 545.326 339.598C546.669 338.047 552.415 324.644 550.532 320.74L573.945 285.045C573.945 285.045 569.487 277.748 559.144 279.562Z" fill="#EBB376"/>
    <path d="M536.923 213.101C539.318 212.838 580.039 248.92 579.485 268.485C578.932 288.049 573.462 288.659 573.462 288.659L558.232 285.502C558.232 285.502 561.624 268.776 557.969 265.009C554.313 261.243 531.107 240.862 531.107 240.862C531.107 240.862 523.174 214.624 536.923 213.101Z" fill="#648CF5"/>
    <path opacity="0.6" d="M479.779 228.414C479.779 228.414 505.532 229.577 515.972 232.097C515.972 232.097 511.458 269.136 511.542 280.199C511.542 280.199 482.229 278.911 473.922 278.523C473.922 278.523 477.148 238.965 479.779 228.414Z" fill="white"/>
    <path d="M438.131 252.617L473.992 256.854C476.997 253.531 495.384 259.983 497.336 259.97C499.289 259.956 491.48 271.42 489.707 271.697C487.935 271.974 475.1 269.662 473.092 266.353H435.016C435.016 266.353 431.693 259.443 438.131 252.617Z" fill="#EBB376"/>
    <path opacity="0.2" d="M515.639 205.555C507.262 206.468 503.565 197.732 502.111 192.47L505.462 189.978C508.66 191.042 511.803 192.266 514.877 193.647C514.351 197.628 514.61 201.673 515.639 205.555Z" fill="black"/>
    <path d="M529.998 163.172C529.998 163.172 531.839 175.522 523.878 181.282C515.916 187.042 515.916 159.129 515.916 159.129L529.998 163.172Z" fill="#263238"/>
    <path d="M500.825 193.204C502.493 195.673 504.926 197.527 507.75 198.48C510.574 199.433 513.633 199.433 516.457 198.479C520.129 197.31 523.222 194.791 525.111 191.432C525.374 190.982 525.614 190.52 525.831 190.047C529.749 180.881 530.995 164.847 521.303 158.838C519.172 157.499 516.734 156.728 514.22 156.597C511.707 156.466 509.202 156.98 506.943 158.09C504.685 159.2 502.747 160.869 501.315 162.939C499.883 165.008 499.004 167.41 498.762 169.915C497.571 180.618 496.366 186.862 500.825 193.204Z" fill="#EBB376"/>
    <path d="M514.381 175.633C514.173 176.478 514.561 177.267 515.142 177.364C515.724 177.461 516.278 176.838 516.43 175.979C516.582 175.121 516.236 174.332 515.669 174.235C515.101 174.138 514.533 174.761 514.381 175.633Z" fill="#263238"/>
    <path d="M524.155 177.295C523.961 178.153 524.363 178.942 524.916 179.039C525.47 179.136 526.066 178.499 526.218 177.655C526.37 176.81 526.01 176.007 525.456 175.924C524.903 175.841 524.307 176.478 524.155 177.295Z" fill="#263238"/>
    <path d="M520.985 177.198C521.556 180.023 522.52 182.755 523.851 185.312C523.179 185.627 522.447 185.79 521.705 185.79C520.963 185.79 520.23 185.627 519.559 185.312L520.985 177.198Z" fill="#D58745"/>
    <path d="M511.888 171.95C511.979 171.979 512.076 171.983 512.169 171.961C512.261 171.939 512.346 171.892 512.414 171.826C512.876 171.374 513.437 171.036 514.052 170.839C514.668 170.642 515.321 170.591 515.959 170.69C516.091 170.719 516.229 170.695 516.344 170.622C516.458 170.549 516.539 170.435 516.568 170.303C516.585 170.238 516.588 170.171 516.578 170.105C516.568 170.039 516.545 169.976 516.51 169.919C516.475 169.862 516.429 169.813 516.375 169.774C516.321 169.735 516.259 169.708 516.194 169.693C515.39 169.55 514.564 169.601 513.783 169.841C513.003 170.082 512.292 170.506 511.708 171.078C511.614 171.174 511.561 171.303 511.561 171.438C511.561 171.573 511.614 171.702 511.708 171.798C511.76 171.858 511.821 171.909 511.888 171.95Z" fill="#263238"/>
    <path d="M528.944 174.65C529.033 174.701 529.134 174.725 529.235 174.719C529.366 174.681 529.477 174.593 529.544 174.474C529.611 174.355 529.629 174.215 529.595 174.082C529.381 173.291 528.982 172.562 528.431 171.955C527.88 171.348 527.192 170.882 526.424 170.593C526.36 170.572 526.292 170.565 526.224 170.571C526.157 170.577 526.091 170.597 526.031 170.629C525.972 170.662 525.919 170.706 525.877 170.759C525.835 170.813 525.805 170.874 525.788 170.939C525.753 171.07 525.769 171.209 525.833 171.327C525.898 171.446 526.005 171.535 526.134 171.576C526.733 171.814 527.27 172.188 527.7 172.668C528.13 173.149 528.442 173.723 528.612 174.346C528.642 174.417 528.688 174.482 528.745 174.534C528.802 174.587 528.87 174.626 528.944 174.65Z" fill="#263238"/>
    <path d="M514.601 152.704C513.328 152.524 512.054 152.372 510.766 152.316C507.056 151.969 503.326 152.715 500.035 154.463C492.628 158.852 493.902 170.095 494.857 177.378C496.131 187.07 499.938 191.459 499.938 191.459C497.626 186.835 498.318 177.835 499.814 177.613C501.309 177.392 501.198 179.109 501.198 179.109C504.549 177.032 507.554 171.147 506.515 166.993C505.712 163.809 509.285 161.455 512.275 162.95L513.189 163.393L514.574 164.058L514.601 152.704Z" fill="#263238"/>
    <path d="M492.614 177.821C492.991 179.112 493.619 180.317 494.462 181.365C495.306 182.413 496.348 183.283 497.529 183.927C500.7 185.63 503.068 182.986 502.86 179.579C502.639 176.561 500.756 171.936 497.253 171.673C493.75 171.41 491.728 174.609 492.614 177.821Z" fill="#EBB376"/>
    <path d="M494.94 161.538C494.94 161.538 493.556 150.544 506.35 148.703C519.143 146.861 530.234 143.995 530.234 143.995C530.234 143.995 530.04 150.461 527.686 152.303C527.686 152.303 532.283 152.51 535.025 150.683C535.025 150.683 534.291 156.346 532.643 158.353L535.025 156.526C534.759 158.67 533.831 160.679 532.369 162.27C530.907 163.861 528.984 164.956 526.869 165.401C519.323 167.118 505.228 161.538 505.228 161.538H494.94Z" fill="#263238"/>
    <path d="M519.226 188.981C518.406 189.992 517.661 191.061 516.996 192.179C516.789 192.096 516.567 192.027 516.36 191.93C513.48 190.767 512.524 189.272 512.344 187.97C512.272 187.333 512.352 186.687 512.58 186.087C512.696 185.743 512.859 185.417 513.064 185.118C514.528 186.623 516.292 187.803 518.243 188.579C518.838 188.842 519.226 188.981 519.226 188.981Z" fill="#263238"/>
    <path d="M518.243 188.579L517.565 189.493C514.795 188.399 513.092 187.25 512.58 186.087C512.697 185.743 512.86 185.417 513.065 185.118C514.528 186.623 516.293 187.803 518.243 188.579Z" fill="white"/>
    <path d="M516.359 191.93C513.479 190.767 512.524 189.272 512.344 187.97C513.434 188.43 514.433 189.082 515.293 189.895C515.845 190.45 516.217 191.16 516.359 191.93Z" fill="#DE5753"/>
</svg>
