<svg width="880" height="640" viewBox="0 0 880 640" fill="none" xmlns="http://www.w3.org/2000/svg">
    <path opacity="0.1" d="M401.728 368.013C455.565 355.302 514.048 399.808 569.792 391.053C623.552 382.656 667.712 339.776 646.157 281.677C625.267 225.357 564.339 188.544 507.674 188.864C472.576 189.056 454.221 188.518 423.117 164.646C399.04 146.24 380.211 122.982 350.81 113.024C293.683 93.6704 266.688 128.23 263.04 173.658C259.097 222.835 220.378 249.062 211.443 296.294C203.878 336.243 219.264 389.658 271.846 403.123C320.96 415.693 360.077 377.843 401.728 368.013Z" fill="#648CF5"/>
    <path opacity="0.1" d="M440 547.277C577.066 547.277 688.179 540.79 688.179 532.787C688.179 524.785 577.066 518.298 440 518.298C302.934 518.298 191.821 524.785 191.821 532.787C191.821 540.79 302.934 547.277 440 547.277Z" fill="#648CF5"/>
    <path d="M331.968 183.181C332.211 180.352 344.397 169.92 357.12 177.203C369.843 184.486 360.64 206.502 374.477 208.64C365.517 217.6 336.333 228.544 327.36 218.266C318.387 207.987 317.235 179.2 331.968 183.181Z" fill="#263238"/>
    <path d="M383.219 254.17C383.552 258.906 384.051 263.923 384.717 268.71C385.312 273.428 386.271 278.092 387.584 282.662C387.738 283.213 387.93 283.738 388.109 284.25L388.595 285.606C388.695 285.901 388.842 286.178 389.03 286.426C389.325 286.861 391.027 287.258 393.024 287.002C397.586 286.225 402.013 284.798 406.17 282.765L409.421 287.539C408.387 288.449 407.306 289.303 406.182 290.099C405.082 290.893 403.955 291.661 402.765 292.352C400.296 293.864 397.635 295.039 394.854 295.846C393.245 296.296 391.585 296.537 389.914 296.563C387.841 296.579 385.796 296.082 383.962 295.117C381.979 294.03 380.353 292.394 379.277 290.406L378.931 289.728L378.714 289.242L378.266 288.243C377.958 287.59 377.664 286.963 377.434 286.272C375.521 281.171 374.118 275.893 373.248 270.515C372.355 265.291 371.795 260.015 371.571 254.72L383.219 254.17Z" fill="#E9A472"/>
    <path d="M376.96 241.446C387.341 249.382 386.918 264.358 386.918 264.358L368.32 268.8C368.32 268.8 362.624 253.747 364.941 248.23C367.385 242.483 371.123 236.966 376.96 241.446Z" fill="#648CF5"/>
    <path d="M405.158 283.878L411.981 277.043L415.654 287.731C415.654 287.731 409.894 290.842 404.377 287.898L405.158 283.878Z" fill="#E9A472"/>
    <path d="M421.427 275.994L422.682 284.429L415.654 287.718L411.981 277.043L421.427 275.994Z" fill="#E9A472"/>
    <path d="M316.813 523.904L327.258 524.915L338.125 500.07L327.68 499.046L316.813 523.904Z" fill="#E9A472"/>
    <path d="M249.574 487.168L257.408 494.528L274.342 475.93L266.496 468.557L249.574 487.168Z" fill="#E9A472"/>
    <path d="M261.03 490.995L255.142 480.384C255.044 480.2 254.882 480.058 254.686 479.985C254.491 479.912 254.275 479.913 254.08 479.987L245.005 483.443C244.78 483.538 244.578 483.68 244.412 483.858C244.245 484.036 244.118 484.247 244.038 484.478C243.959 484.708 243.928 484.953 243.949 485.196C243.97 485.439 244.042 485.675 244.16 485.888C246.285 489.549 247.488 491.213 250.086 495.885C251.674 498.752 254.784 505.344 256.986 509.312C259.187 513.28 263.219 511.309 262.656 509.466C260.096 501.171 260.621 496.563 261.376 492.902C261.492 492.246 261.37 491.569 261.03 490.995Z" fill="#263238"/>
    <path d="M328.64 521.69H315.84C315.609 521.69 315.385 521.767 315.202 521.908C315.019 522.05 314.888 522.247 314.829 522.47L312 532.621C311.932 532.86 311.921 533.112 311.967 533.356C312.014 533.6 312.118 533.83 312.27 534.026C312.422 534.223 312.618 534.382 312.842 534.489C313.067 534.596 313.313 534.649 313.562 534.643C318.08 534.643 320.218 534.643 325.862 534.643H343.091C347.776 534.643 348.761 529.907 346.816 529.523C338.125 527.603 333.12 524.954 330.432 522.419C329.947 521.96 329.308 521.699 328.64 521.69Z" fill="#263238"/>
    <path opacity="0.2" d="M338.112 500.083L332.518 512.883H321.625L327.667 499.059L338.112 500.083Z" fill="black"/>
    <path opacity="0.2" d="M266.496 468.57L274.33 475.93L265.6 485.517L257.766 478.157L266.496 468.57Z" fill="black"/>
    <path d="M373.824 239.898C373.824 239.898 378.56 241.92 362.778 304.256L319.053 300.48C321.331 282.739 322.291 271.77 316.954 234.509C323.184 233.772 329.46 233.49 335.731 233.664C342.381 233.767 349.015 234.34 355.584 235.379C361.736 236.579 367.824 238.087 373.824 239.898Z" fill="#648CF5"/>
    <path d="M343.552 255.77C343.515 255.782 343.474 255.782 343.437 255.77C333.978 247.987 328.077 235.981 329.971 233.152C329.995 233.112 330.034 233.082 330.08 233.07C330.125 233.058 330.174 233.065 330.214 233.088C330.256 233.114 330.285 233.156 330.297 233.203C330.309 233.251 330.302 233.301 330.278 233.344C328.563 235.994 334.426 247.782 343.462 255.309C345.741 248.435 349.619 245.683 349.658 245.658C349.698 245.64 349.744 245.636 349.786 245.648C349.829 245.66 349.867 245.686 349.892 245.722C349.918 245.758 349.93 245.802 349.927 245.846C349.924 245.891 349.906 245.933 349.875 245.965C349.875 245.965 345.958 248.742 343.718 255.68C343.71 255.707 343.695 255.731 343.675 255.751C343.655 255.771 343.63 255.786 343.603 255.795L343.552 255.77Z" fill="white"/>
    <path d="M358.682 256.192C358.65 256.185 358.621 256.17 358.599 256.147C358.576 256.124 358.56 256.095 358.554 256.064C356.57 248.922 352.614 246.08 352.576 246.054C352.547 246.018 352.531 245.973 352.531 245.926C352.531 245.88 352.547 245.835 352.576 245.798C352.611 245.767 352.657 245.75 352.704 245.75C352.751 245.75 352.797 245.767 352.832 245.798C352.832 245.798 356.813 248.653 358.861 255.68C363.61 249.856 360.909 238.784 359.066 235.942C359.041 235.9 359.035 235.849 359.047 235.802C359.058 235.754 359.088 235.713 359.13 235.686C359.163 235.656 359.206 235.639 359.251 235.639C359.296 235.639 359.34 235.656 359.373 235.686C361.28 238.643 364.083 250.24 358.912 256.166C358.881 256.193 358.842 256.21 358.801 256.215C358.76 256.22 358.718 256.211 358.682 256.192Z" fill="white"/>
    <path d="M339.635 211.482C340.326 217.971 340.57 229.786 335.731 233.664C340.433 238.025 345.683 241.755 351.347 244.762C358.95 239.514 355.584 235.379 355.584 235.379C348.608 233.062 349.184 227.802 350.925 222.938L339.635 211.482Z" fill="#E9A472"/>
    <path opacity="0.2" d="M344.23 216.154L350.912 222.938C350.508 224.065 350.204 225.226 350.003 226.406C347.315 225.779 343.424 222.989 343.373 220.109C343.43 218.751 343.72 217.413 344.23 216.154Z" fill="black"/>
    <path d="M333.913 201.331C336.627 211.712 337.549 216.154 343.91 220.531C353.485 227.072 365.67 221.478 366.093 210.496C366.489 200.614 361.997 185.306 350.886 183.142C348.442 182.656 345.915 182.802 343.543 183.566C341.172 184.331 339.034 185.688 337.334 187.51C335.634 189.332 334.428 191.558 333.829 193.976C333.231 196.395 333.26 198.927 333.913 201.331Z" fill="#E9A472"/>
    <path d="M336.87 209.101C340.39 214.221 349.568 183.718 337.677 184.678C325.785 185.638 327.219 198.554 336.87 209.101Z" fill="#263238"/>
    <path d="M338.445 186.419C345.318 189.914 365.325 194.099 362.586 188.531C361.091 185.738 358.865 183.404 356.146 181.778C353.427 180.152 350.317 179.297 347.149 179.302C340.621 179.2 332.378 183.347 338.445 186.419Z" fill="#263238"/>
    <path d="M333.056 210.125C333.533 211.037 334.186 211.846 334.976 212.505C335.767 213.164 336.681 213.66 337.664 213.965C340.301 214.758 341.67 212.416 340.979 209.907C340.365 207.642 338.253 204.506 335.59 204.787C335.008 204.864 334.454 205.086 333.979 205.432C333.505 205.777 333.124 206.236 332.872 206.767C332.62 207.298 332.505 207.883 332.537 208.469C332.569 209.056 332.747 209.625 333.056 210.125Z" fill="#E9A472"/>
    <path d="M362.777 304.256C362.777 304.256 377.574 369.702 367.705 415.846C361.088 446.746 337.229 509.171 337.229 509.171L318.579 508.698C318.579 508.698 336.64 443.187 340.339 417.421C346.739 373.35 330.739 301.491 330.739 301.491L362.777 304.256Z" fill="#263238"/>
    <path opacity="0.2" d="M345.715 317.44L336.397 332.16C339.207 349.602 340.989 367.194 341.734 384.845C354.842 361.382 348.634 329.907 345.715 317.44Z" fill="black"/>
    <path d="M339.853 510.144L316.813 509.555L318.157 502.477L341.658 503.59L339.853 510.144Z" fill="#648CF5"/>
    <path d="M353.216 303.565C353.216 303.565 344.538 372.966 325.722 410.854C310.528 441.472 269.978 485.03 269.978 485.03L259.61 474.355C259.61 474.355 287.002 426.995 298.291 406.669C325.99 356.826 303.411 318.784 319.053 300.429L353.216 303.565Z" fill="#263238"/>
    <path d="M271.027 486.464L257.651 473.421L262.093 467.379L276.275 481.549L271.027 486.464Z" fill="#648CF5"/>
    <path d="M318.617 297.856L316.313 301.594C316.134 301.888 316.467 302.221 316.966 302.272L362.829 306.24C363.226 306.24 363.571 306.099 363.61 305.856L364.339 302.016C364.339 301.747 364.07 301.491 363.648 301.453L319.36 297.613C319.226 297.587 319.087 297.596 318.957 297.639C318.827 297.681 318.71 297.756 318.617 297.856Z" fill="#648CF5"/>
    <path opacity="0.3" d="M318.617 297.856L316.313 301.594C316.134 301.888 316.467 302.221 316.966 302.272L362.829 306.24C363.226 306.24 363.571 306.099 363.61 305.856L364.339 302.016C364.339 301.747 364.07 301.491 363.648 301.453L319.36 297.613C319.226 297.587 319.087 297.596 318.957 297.639C318.827 297.681 318.71 297.756 318.617 297.856Z" fill="black"/>
    <path d="M324.134 303.36L322.957 303.258C322.713 303.258 322.547 303.091 322.573 302.95L323.571 297.907C323.571 297.766 323.814 297.664 324.057 297.677L325.235 297.779C325.478 297.779 325.645 297.946 325.619 298.086L324.621 303.13C324.595 303.232 324.377 303.36 324.134 303.36Z" fill="#263238"/>
    <path d="M359.462 306.368L358.272 306.266C358.042 306.266 357.862 306.112 357.901 305.958L358.886 300.928C358.886 300.774 359.142 300.672 359.373 300.698L360.563 300.8C360.793 300.8 360.96 300.954 360.934 301.107L359.936 306.138C359.91 306.291 359.693 306.394 359.462 306.368Z" fill="#263238"/>
    <path d="M341.798 304.845L340.608 304.742C340.378 304.742 340.211 304.589 340.237 304.435L341.235 299.405C341.235 299.251 341.478 299.149 341.709 299.174L342.899 299.277C343.142 299.277 343.309 299.43 343.283 299.571L342.285 304.614C342.24 304.7 342.168 304.769 342.08 304.811C341.992 304.852 341.893 304.864 341.798 304.845Z" fill="#263238"/>
    <path d="M351.488 200.96C351.654 201.818 352.243 202.419 352.768 202.304C353.293 202.189 353.651 201.421 353.485 200.563C353.318 199.706 352.73 199.104 352.205 199.206C351.68 199.309 351.309 200.115 351.488 200.96Z" fill="#263238"/>
    <path d="M361.152 199.066C361.318 199.923 361.907 200.538 362.432 200.422C362.957 200.307 363.302 199.526 363.136 198.669C362.97 197.811 362.381 197.21 361.856 197.325C361.331 197.44 360.986 198.221 361.152 199.066Z" fill="#263238"/>
    <path d="M361.625 197.414L363.558 196.429C363.558 196.429 362.816 198.234 361.625 197.414Z" fill="#263238"/>
    <path d="M357.824 201.203C358.962 203.007 360.34 204.647 361.92 206.08C361.545 206.475 361.088 206.783 360.582 206.984C360.076 207.185 359.533 207.274 358.989 207.245L357.824 201.203Z" fill="#CC8450"/>
    <path d="M355.059 211.315C353.257 211.339 351.513 210.675 350.182 209.459C350.142 209.418 350.119 209.363 350.119 209.306C350.119 209.248 350.142 209.193 350.182 209.152C350.201 209.132 350.224 209.117 350.25 209.106C350.275 209.095 350.302 209.09 350.33 209.09C350.357 209.09 350.384 209.095 350.41 209.106C350.435 209.117 350.458 209.132 350.477 209.152C351.297 209.871 352.274 210.387 353.33 210.661C354.386 210.934 355.491 210.957 356.557 210.726C356.613 210.715 356.671 210.726 356.719 210.757C356.767 210.788 356.8 210.837 356.813 210.893C356.818 210.92 356.818 210.948 356.813 210.974C356.808 211.001 356.797 211.027 356.781 211.05C356.766 211.072 356.746 211.092 356.723 211.107C356.699 211.121 356.674 211.131 356.646 211.136C356.125 211.249 355.593 211.309 355.059 211.315Z" fill="#263238"/>
    <path d="M345.677 197.658C345.605 197.676 345.531 197.676 345.459 197.658C345.411 197.629 345.368 197.59 345.335 197.545C345.302 197.5 345.278 197.448 345.265 197.393C345.251 197.338 345.249 197.281 345.259 197.225C345.268 197.17 345.288 197.116 345.318 197.069C345.711 196.376 346.265 195.789 346.934 195.356C347.602 194.924 348.366 194.659 349.158 194.586C349.214 194.584 349.269 194.593 349.321 194.613C349.373 194.632 349.42 194.662 349.461 194.7C349.501 194.738 349.534 194.784 349.557 194.835C349.579 194.885 349.592 194.94 349.594 194.995C349.595 195.051 349.586 195.106 349.566 195.158C349.547 195.21 349.517 195.257 349.479 195.298C349.441 195.338 349.395 195.371 349.345 195.393C349.294 195.416 349.239 195.429 349.184 195.43C348.529 195.501 347.9 195.727 347.35 196.09C346.8 196.453 346.345 196.942 346.022 197.517C345.979 197.565 345.926 197.603 345.866 197.627C345.806 197.652 345.741 197.662 345.677 197.658Z" fill="#263238"/>
    <path d="M363.84 194.227C363.768 194.245 363.694 194.245 363.622 194.227C363.06 193.889 362.425 193.691 361.77 193.648C361.116 193.606 360.46 193.721 359.859 193.984C359.759 194.034 359.642 194.044 359.535 194.01C359.428 193.977 359.337 193.903 359.283 193.805C359.256 193.755 359.24 193.701 359.235 193.645C359.229 193.589 359.235 193.533 359.252 193.479C359.268 193.426 359.296 193.376 359.332 193.333C359.368 193.29 359.412 193.254 359.462 193.229C360.19 192.9 360.987 192.751 361.785 192.796C362.583 192.84 363.358 193.077 364.045 193.485C364.094 193.512 364.137 193.548 364.172 193.591C364.206 193.635 364.232 193.685 364.248 193.738C364.263 193.792 364.268 193.848 364.262 193.903C364.255 193.958 364.238 194.012 364.211 194.061C364.167 194.117 364.111 194.161 364.046 194.19C363.981 194.219 363.911 194.232 363.84 194.227Z" fill="#263238"/>
    <path d="M323.187 250.88C321.472 253.722 319.654 256.64 317.952 259.558C316.249 262.477 314.496 265.37 312.832 268.301C311.168 271.232 309.619 274.163 308.301 277.082C307.942 277.811 307.661 278.528 307.328 279.245C306.995 279.962 306.79 280.64 306.521 281.344C306.399 281.663 306.309 281.993 306.253 282.33C306.253 282.496 306.253 282.445 306.176 282.419C306.099 282.394 306.393 282.906 307.456 283.354C308.691 283.845 309.98 284.188 311.296 284.378C314.449 284.833 317.635 285.017 320.819 284.928C327.548 284.746 334.261 284.19 340.928 283.264L342.208 288.883C335.407 291.015 328.429 292.531 321.357 293.414C317.644 293.895 313.893 294.019 310.157 293.786C308.035 293.648 305.94 293.24 303.923 292.57C302.691 292.151 301.52 291.57 300.441 290.842C299.044 289.921 297.893 288.672 297.089 287.204C296.286 285.736 295.855 284.093 295.833 282.419C295.817 281.029 296.007 279.645 296.397 278.31C296.678 277.376 296.947 276.403 297.254 275.507C297.561 274.611 297.869 273.715 298.214 272.845C299.571 269.389 301.069 266.138 302.694 262.963C304.32 259.789 305.997 256.678 307.737 253.619C309.478 250.56 311.296 247.578 313.305 244.582L323.187 250.88Z" fill="#E9A472"/>
    <path d="M338.317 284.57L346.854 280.051L347.174 289.562C347.174 289.562 341.21 291.712 337.677 288.947L338.317 284.57Z" fill="#E9A472"/>
    <path d="M352.051 280.73L350.771 289.152L347.174 289.562L346.842 280.051L352.051 280.73Z" fill="#E9A472"/>
    <path d="M316.953 234.509C311.59 235.52 304.077 250.88 304.077 250.88L320.717 265.28C320.717 265.28 328.333 251.379 327.769 244.39C327.283 238.413 323.776 233.306 316.953 234.509Z" fill="#648CF5"/>
    <path d="M263.104 496.704C262.961 496.701 262.819 496.68 262.682 496.64C261.402 496.205 260.557 493.824 260.122 492.454C260.1 492.42 260.089 492.38 260.089 492.339C260.089 492.298 260.1 492.259 260.122 492.224C260.159 492.203 260.201 492.191 260.243 492.191C260.286 492.191 260.328 492.203 260.365 492.224C260.749 492.429 264.205 494.259 264.282 495.603C264.298 495.75 264.273 495.898 264.21 496.032C264.147 496.165 264.047 496.278 263.923 496.358C263.691 496.553 263.406 496.674 263.104 496.704ZM260.723 492.864C261.325 494.771 262.093 496.026 262.822 496.269C262.988 496.319 263.163 496.325 263.331 496.287C263.499 496.248 263.655 496.167 263.782 496.051C263.848 496.012 263.901 495.956 263.935 495.887C263.969 495.819 263.983 495.743 263.974 495.667C263.91 494.797 261.901 493.491 260.723 492.8V492.864Z" fill="#648CF5"/>
    <path d="M263.629 493.363C262.462 493.359 261.312 493.092 260.262 492.582C260.231 492.561 260.205 492.533 260.187 492.499C260.169 492.466 260.16 492.428 260.16 492.39C260.162 492.353 260.174 492.317 260.194 492.286C260.214 492.254 260.242 492.229 260.275 492.211C260.39 492.147 263.104 490.65 264.563 491.174C264.743 491.234 264.908 491.332 265.045 491.463C265.182 491.593 265.289 491.753 265.357 491.93C265.448 492.101 265.479 492.297 265.444 492.488C265.409 492.678 265.311 492.852 265.165 492.979C264.71 493.276 264.169 493.411 263.629 493.363ZM260.838 492.39C262.003 492.89 264.256 493.197 264.896 492.659C264.998 492.57 265.101 492.416 264.896 492.096C264.849 491.975 264.777 491.866 264.684 491.775C264.591 491.685 264.48 491.615 264.358 491.571C263.424 491.226 261.619 492.019 260.8 492.39H260.838Z" fill="#648CF5"/>
    <path d="M334.336 523.763C333.155 523.738 331.98 523.592 330.829 523.328C330.785 523.316 330.746 523.291 330.717 523.257C330.687 523.223 330.668 523.181 330.662 523.136C330.66 523.091 330.671 523.047 330.694 523.008C330.717 522.969 330.75 522.938 330.79 522.918C331.315 522.675 335.91 520.525 337.19 521.318C337.298 521.39 337.383 521.491 337.437 521.608C337.492 521.725 337.512 521.856 337.498 521.984C337.488 522.218 337.425 522.446 337.314 522.653C337.203 522.859 337.047 523.037 336.858 523.174C336.101 523.635 335.218 523.841 334.336 523.763ZM331.558 523.034C332.941 523.302 335.501 523.635 336.55 522.842C336.692 522.742 336.808 522.609 336.888 522.456C336.968 522.302 337.01 522.132 337.011 521.958C337.011 521.779 337.011 521.715 336.896 521.677C336.243 521.229 333.491 522.24 331.558 523.034Z" fill="#648CF5"/>
    <path d="M330.88 523.328C330.835 523.346 330.784 523.346 330.739 523.328C330.718 523.298 330.707 523.262 330.707 523.226C330.707 523.189 330.718 523.153 330.739 523.123C330.739 522.931 331.84 518.336 334.362 518.63C334.989 518.707 335.168 519.014 335.194 519.27C335.36 520.435 332.429 522.79 331.021 523.366L330.88 523.328ZM334.067 518.989C332.454 518.989 331.507 521.664 331.2 522.726C332.723 521.933 334.81 520.026 334.707 519.27C334.707 519.27 334.707 519.053 334.246 519.002L334.067 518.989Z" fill="#648CF5"/>
    <path d="M351.949 199.322L353.894 198.323C353.894 198.323 353.152 200.141 351.949 199.322Z" fill="#263238"/>
    <path d="M576.486 240.858C576.422 241.741 576.346 242.368 576.256 243.098C576.166 243.827 576.064 244.48 575.949 245.158C575.718 246.528 575.45 247.872 575.155 249.216C574.557 251.894 573.817 254.539 572.941 257.139C571.155 262.395 568.73 267.412 565.722 272.077L564.544 273.818L564.25 274.24L564.07 274.496L563.802 274.854C563.412 275.316 562.983 275.744 562.522 276.134C561.017 277.487 559.221 278.477 557.274 279.027C554.285 279.831 551.179 280.104 548.096 279.834C542.651 279.384 537.298 278.16 532.198 276.198L533.581 270.682C538.395 271.173 543.241 271.272 548.07 270.976C550.113 270.86 552.125 270.428 554.035 269.696C554.53 269.491 554.969 269.171 555.315 268.762C555.174 268.954 556.032 267.482 556.595 266.56C558.834 262.426 560.64 258.073 561.984 253.568C562.675 251.29 563.264 248.986 563.776 246.682C564.032 245.517 564.262 244.352 564.467 243.2L564.736 241.472L564.966 239.898L576.486 240.858Z" fill="#B55B52"/>
    <path d="M579.149 233.344C579.431 240.512 576.653 253.44 576.653 253.44L558.912 251.29C558.912 251.29 558.259 232.371 561.703 227.802C567.475 220.16 578.893 226.56 579.149 233.344Z" fill="#263238"/>
    <path d="M536 271.437L525.376 267.661L527.59 275.622C527.59 275.622 532.557 278.528 535.398 275.226L536 271.437Z" fill="#B55B52"/>
    <path d="M521.728 269.696L520.269 275.315L527.603 275.622L525.389 267.661L521.728 269.696Z" fill="#B55B52"/>
    <path d="M471.834 306.893C479.228 307.005 486.57 305.645 493.434 302.893C500.297 300.141 506.545 296.051 511.814 290.862C517.082 285.673 521.266 279.488 524.122 272.667C526.977 265.845 528.448 258.524 528.448 251.13C528.448 243.735 526.977 236.414 524.122 229.592C521.266 222.771 517.082 216.586 511.814 211.397C506.545 206.208 500.297 202.118 493.434 199.366C486.57 196.614 479.228 195.254 471.834 195.366H464.602V306.893H471.834Z" fill="#648CF5"/>
    <path d="M464.602 306.893C495.402 306.893 520.371 281.924 520.371 251.123C520.371 220.322 495.402 195.354 464.602 195.354C433.801 195.354 408.832 220.322 408.832 251.123C408.832 281.924 433.801 306.893 464.602 306.893Z" fill="#648CF5"/>
    <path opacity="0.2" d="M464.602 306.893C495.402 306.893 520.371 281.924 520.371 251.123C520.371 220.322 495.402 195.354 464.602 195.354C433.801 195.354 408.832 220.322 408.832 251.123C408.832 281.924 433.801 306.893 464.602 306.893Z" fill="black"/>
    <path opacity="0.8" d="M499.568 286.096C518.878 266.786 518.878 235.478 499.568 216.168C480.258 196.858 448.95 196.858 429.64 216.168C410.33 235.478 410.33 266.786 429.64 286.096C448.95 305.406 480.258 305.406 499.568 286.096Z" fill="#648CF5"/>
    <path d="M490.022 254.31C487.707 251.713 484.589 249.965 481.165 249.344C483.461 248.642 485.534 247.354 487.181 245.606C489.235 243.258 490.336 240.226 490.266 237.107C490.302 235.243 489.934 233.394 489.187 231.686C488.441 229.978 487.332 228.452 485.939 227.213C483.064 224.542 478.933 223.206 473.549 223.206H470.234V213.837H463.974V223.206H456.218V213.837H449.958V223.206H436.352V234.522H441.28V267.738H436.39V279.04H449.997V288.41H456.256V279.04H464.013V288.41H470.272V279.04H471.066C473.637 278.917 476.201 278.66 478.746 278.272C481.028 278.096 483.256 277.488 485.312 276.48C487.61 275.178 489.518 273.287 490.842 271.002C492.2 268.626 492.894 265.929 492.851 263.194C492.982 259.992 491.98 256.847 490.022 254.31ZM458.65 234.522H466.266C468.89 234.522 470.72 234.982 471.77 235.891C472.306 236.37 472.728 236.965 473.003 237.629C473.278 238.294 473.399 239.013 473.357 239.731C473.401 240.476 473.282 241.222 473.008 241.916C472.734 242.611 472.311 243.237 471.77 243.75C470.72 244.672 468.851 245.133 466.163 245.133H458.65V234.522ZM473.741 265.472C472.461 266.522 470.426 267.046 467.456 267.046H458.65V255.744H467.418C470.438 255.744 472.55 256.243 473.754 257.242C474.343 257.72 474.813 258.329 475.129 259.019C475.444 259.71 475.595 260.464 475.571 261.222C475.605 262.023 475.457 262.82 475.14 263.556C474.824 264.291 474.345 264.946 473.741 265.472Z" fill="white"/>
    <path d="M525.991 196.582C525.991 197.414 525.517 198.093 524.979 198.106C524.442 198.118 523.994 197.44 524.007 196.621C524.019 195.802 524.467 195.11 525.018 195.098C525.568 195.085 526.003 195.763 525.991 196.582Z" fill="#263238"/>
    <path d="M525.261 195.149L523.2 194.56C523.2 194.56 524.263 196.134 525.261 195.149Z" fill="#263238"/>
    <path d="M525.274 197.402C524.499 199.311 523.47 201.106 522.215 202.739C522.643 203.033 523.131 203.232 523.643 203.32C524.156 203.408 524.682 203.385 525.184 203.251L525.274 197.402Z" fill="#A02724"/>
    <path d="M524.941 191.078C525.017 191.097 525.096 191.097 525.171 191.078C525.761 190.867 526.391 190.794 527.013 190.868C527.635 190.941 528.231 191.158 528.755 191.501C528.859 191.579 528.989 191.613 529.118 191.595C529.181 191.586 529.242 191.564 529.298 191.532C529.353 191.499 529.401 191.456 529.44 191.405C529.479 191.354 529.507 191.295 529.523 191.233C529.539 191.171 529.543 191.106 529.534 191.043C529.525 190.979 529.504 190.918 529.471 190.862C529.438 190.807 529.395 190.759 529.344 190.72C528.69 190.29 527.946 190.016 527.17 189.918C526.393 189.82 525.604 189.902 524.864 190.157C524.803 190.176 524.746 190.207 524.697 190.248C524.647 190.29 524.607 190.341 524.579 190.398C524.55 190.456 524.533 190.518 524.529 190.582C524.526 190.647 524.535 190.711 524.557 190.771C524.588 190.852 524.64 190.923 524.707 190.977C524.775 191.031 524.855 191.066 524.941 191.078Z" fill="#263238"/>
    <path d="M550.528 205.427C549.978 211.661 552.064 221.862 556.774 225.331C556.774 225.331 553.229 231.885 541.875 233.408C529.382 235.085 535.245 228.058 535.245 228.058C541.888 225.498 541.184 220.544 539.494 215.987L550.528 205.427Z" fill="#B55B52"/>
    <path d="M527.834 240.717C526.477 247.205 524.768 253.615 522.714 259.917C520.706 266.264 518.304 272.48 515.52 278.528L514.995 279.68C514.778 280.128 514.496 280.653 514.24 281.126C513.737 282.012 513.182 282.867 512.576 283.686C511.465 285.146 510.254 286.527 508.954 287.821C506.517 290.228 503.926 292.472 501.197 294.541C495.909 298.548 490.315 302.134 484.467 305.267L481.331 300.506C486.182 296.461 491.034 292.237 495.514 287.91C497.723 285.811 499.817 283.594 501.786 281.267C502.685 280.196 503.515 279.067 504.269 277.888C504.591 277.375 504.886 276.845 505.152 276.301L505.459 275.571L505.882 274.483C507.008 271.59 508.007 268.621 509.018 265.651C510.029 262.682 510.912 259.661 511.795 256.691C513.523 250.65 515.149 244.442 516.57 238.438L527.834 240.717Z" fill="#B55B52"/>
    <path d="M485.043 304.819L479.155 308.659L476.237 303.654C476.237 303.654 482.022 296.742 485.517 301.658L485.043 304.819Z" fill="#B55B52"/>
    <path d="M483.52 299.661L480.192 299.162L476.455 299.955L475.495 301.043L477.927 301.402L478.567 302.362L479.386 302.886L483.52 299.661Z" fill="#B55B52"/>
    <path d="M473.306 309.158L470.067 306.547L476.237 303.68L479.155 308.685L473.306 309.158Z" fill="#B55B52"/>
    <path d="M568.973 521.485L558.643 522.253L555.571 498.534L565.901 497.766L568.973 521.485Z" fill="#B55B52"/>
    <path d="M635.111 491.354L626.163 496.794L611.29 478.208L620.237 472.768L635.111 491.354Z" fill="#B55B52"/>
    <path d="M623.488 494.797L631.974 486.63C632.115 486.486 632.303 486.399 632.504 486.385C632.704 486.37 632.903 486.431 633.062 486.554L640.294 492.134C640.469 492.289 640.609 492.48 640.705 492.692C640.8 492.905 640.85 493.136 640.85 493.37C640.85 493.603 640.8 493.834 640.705 494.047C640.609 494.26 640.469 494.45 640.294 494.605C637.286 497.408 635.699 498.611 631.962 502.208C629.67 504.422 626.534 507.878 623.36 510.938C620.186 513.997 617.101 511.104 618.15 509.555C622.886 502.618 622.17 500.019 622.605 496.474C622.692 495.828 623.005 495.234 623.488 494.797Z" fill="#263238"/>
    <path d="M558.003 520.781H569.613C569.813 520.778 570.007 520.848 570.16 520.978C570.313 521.107 570.414 521.287 570.445 521.485L572.007 530.662C572.04 530.892 572.023 531.125 571.958 531.347C571.892 531.57 571.78 531.775 571.628 531.95C571.476 532.125 571.289 532.265 571.078 532.361C570.867 532.457 570.638 532.506 570.407 532.506C566.349 532.506 564.391 532.198 559.283 532.198C556.147 532.198 549.658 532.518 545.319 532.518C540.979 532.518 540.647 528.23 542.439 527.846C550.49 526.106 553.626 523.699 556.288 521.446C556.762 521.027 557.37 520.791 558.003 520.781Z" fill="#263238"/>
    <path opacity="0.2" d="M555.584 498.534L557.286 511.718L567.488 510.003L565.914 497.779L555.584 498.534Z" fill="black"/>
    <path opacity="0.2" d="M620.237 472.768L611.29 478.221L617.447 485.901L626.586 480.691L620.237 472.768Z" fill="black"/>
    <path d="M574.182 287.565L532.352 293.184C516.147 234.509 520.935 232.922 520.935 232.922C524.065 231.445 527.284 230.162 530.573 229.082L531.149 228.902C533.85 228.096 534.413 227.981 538.01 227.162C544.192 226.074 549.926 225.229 557.005 224.602L558.285 224.499C559.565 224.41 560.845 224.346 562.125 224.307C562.957 224.307 563.776 224.307 564.557 224.243H568.64C569.44 224.262 570.228 224.446 570.953 224.785C571.679 225.123 572.326 225.608 572.854 226.21C573.382 226.812 573.78 227.516 574.022 228.279C574.264 229.042 574.345 229.847 574.259 230.643C570.701 261.632 571.84 271.77 574.182 287.565Z" fill="#263238"/>
    <path opacity="0.2" d="M528.32 250.88C529.153 256.948 528.376 263.127 526.067 268.8C523.277 257.357 521.779 249.6 521.024 244.224C524.173 244.083 527.501 245.312 528.32 250.88Z" fill="black"/>
    <path d="M521.293 232.755C514.138 236.851 509.158 246.618 507.661 252.288L522.906 266.24C522.906 266.24 532.762 247.27 530.189 242.138C527.501 236.8 524.007 231.206 521.293 232.755Z" fill="#263238"/>
    <path d="M554.061 193.92C553.28 204.16 553.178 208.435 547.904 213.734C539.981 221.709 527.514 218.854 525.197 208.755C523.123 199.642 524.723 184.435 534.861 180.314C537.029 179.345 539.413 178.958 541.777 179.191C544.141 179.423 546.403 180.268 548.341 181.641C550.279 183.015 551.826 184.869 552.829 187.022C553.832 189.176 554.256 191.553 554.061 193.92Z" fill="#B55B52"/>
    <path d="M532.954 198.029C534.003 194.406 525.862 190.285 524.992 184.73C523.866 177.523 529.447 171.699 534.656 175.091C536.768 170.266 551.104 168.23 558.976 174.208C567.834 180.915 556.979 188.006 565.811 193.946C572.851 198.682 573.811 201.626 569.459 207.296C566.157 211.61 574.695 210.688 572.531 217.984C570.368 225.28 526.208 227.955 532.07 211.584C537.28 197.12 530.88 205.427 532.954 198.029Z" fill="#263238"/>
    <path d="M535.437 197.222C535.374 199.121 534.726 200.954 533.581 202.47C531.994 204.621 530.138 204.045 529.741 202.061C529.331 200.282 529.677 197.018 531.686 195.533C533.696 194.048 535.424 195.098 535.437 197.222Z" fill="#B55B52"/>
    <path d="M569.011 207.68C568.972 207.679 568.935 207.666 568.904 207.642C568.873 207.618 568.851 207.585 568.841 207.547C568.831 207.51 568.833 207.47 568.848 207.434C568.862 207.398 568.888 207.367 568.922 207.347C571.699 205.747 573.184 203.507 573.12 201.178C573.043 198.182 570.56 195.162 566.502 193.101C561.664 190.643 562.035 187.315 562.406 184.141C562.778 180.966 563.149 177.562 558.426 174.822C558.384 174.796 558.354 174.756 558.34 174.709C558.326 174.662 558.329 174.611 558.349 174.566C558.375 174.525 558.416 174.495 558.464 174.483C558.512 174.472 558.562 174.478 558.605 174.502C563.546 177.37 563.149 180.826 562.765 184.179C562.381 187.533 562.048 190.49 566.605 192.832C570.79 194.944 573.338 198.08 573.427 201.216C573.427 203.776 571.942 206.054 569.05 207.706C569.036 207.699 569.023 207.69 569.011 207.68Z" fill="#263238"/>
    <path d="M543.398 291.699C543.398 291.699 559.642 360.333 567.232 399.77C575.232 441.37 613.658 484.71 613.658 484.71L626.701 477.44C626.701 477.44 602.522 437.888 594.701 399.04C578.778 320.192 589.581 304.32 574.221 287.578L543.398 291.699Z" fill="#648CF5"/>
    <path d="M612.365 485.926L628.646 476.851L626.266 472.038L608 480.448L612.365 485.926Z" fill="#263238"/>
    <path opacity="0.2" d="M552.026 306.611C564.659 317.581 563.29 356.531 561.971 374.016C556.672 349.082 550.298 321.331 546.611 305.267C547.891 304.269 549.709 304.64 552.026 306.611Z" fill="black"/>
    <path d="M619.93 499.533C620.053 499.552 620.178 499.552 620.301 499.533C621.581 499.533 623.104 497.536 623.872 496.358C623.897 496.318 623.91 496.271 623.91 496.224C623.91 496.177 623.897 496.13 623.872 496.09C623.846 496.047 623.807 496.014 623.761 495.996C623.715 495.977 623.664 495.974 623.616 495.987C623.207 496.064 619.507 496.845 619.021 498.074C618.967 498.208 618.949 498.355 618.97 498.499C618.99 498.642 619.047 498.778 619.136 498.893C619.319 499.191 619.6 499.417 619.93 499.533ZM623.117 496.627C622.042 498.163 621.005 499.072 620.288 499.085C620.135 499.085 619.985 499.045 619.852 498.969C619.72 498.892 619.609 498.782 619.533 498.65C619.492 498.6 619.465 498.542 619.454 498.479C619.443 498.416 619.448 498.351 619.469 498.291C619.738 497.638 621.645 496.986 623.117 496.64V496.627Z" fill="#648CF5"/>
    <path d="M532.979 293.21C532.979 293.21 525.67 374.707 529.6 405.76C533.747 438.093 554.855 508.429 554.855 508.429L569.741 506.509C569.741 506.509 557.645 436.8 555.495 404.8C553.152 369.894 563.559 289.075 563.559 289.075L532.979 293.21Z" fill="#648CF5"/>
    <path d="M551.731 509.312L572.966 506.573L572.634 500.301L549.606 502.528L551.731 509.312Z" fill="#263238"/>
    <path d="M620.48 496.333C621.539 496.62 622.648 496.677 623.731 496.499C623.774 496.487 623.813 496.465 623.845 496.433C623.876 496.402 623.899 496.363 623.91 496.32C623.919 496.279 623.918 496.237 623.907 496.197C623.896 496.157 623.875 496.12 623.846 496.09C623.757 496 621.734 493.914 620.237 493.978C620.044 493.98 619.853 494.026 619.68 494.113C619.507 494.199 619.356 494.324 619.238 494.477C619.098 494.612 619.008 494.792 618.985 494.985C618.961 495.179 619.006 495.375 619.11 495.539C619.464 495.951 619.947 496.231 620.48 496.333ZM623.155 496.102C621.875 496.243 619.904 495.872 619.52 495.283C619.456 495.181 619.405 495.04 619.61 494.784C619.688 494.685 619.787 494.606 619.9 494.55C620.013 494.495 620.137 494.465 620.262 494.464C621.373 494.696 622.385 495.269 623.155 496.102Z" fill="#648CF5"/>
    <path d="M554.163 522.586C555.252 522.566 556.337 522.442 557.402 522.214C557.451 522.204 557.496 522.179 557.53 522.142C557.565 522.106 557.587 522.059 557.594 522.01C557.602 521.959 557.594 521.907 557.571 521.861C557.548 521.815 557.511 521.777 557.466 521.754C556.992 521.51 552.806 519.398 551.565 520.115C551.448 520.178 551.351 520.27 551.281 520.382C551.211 520.495 551.172 520.623 551.168 520.755C551.145 520.977 551.176 521.201 551.259 521.409C551.341 521.616 551.472 521.8 551.642 521.946C552.386 522.436 553.275 522.662 554.163 522.586ZM556.582 521.869C554.304 522.24 552.602 522.15 551.962 521.587C551.854 521.487 551.77 521.363 551.717 521.226C551.663 521.088 551.642 520.941 551.654 520.794C551.655 520.741 551.669 520.69 551.696 520.645C551.723 520.6 551.762 520.563 551.808 520.538C552.486 520.154 554.867 521.05 556.582 521.869Z" fill="#648CF5"/>
    <path d="M557.35 522.24C557.401 522.252 557.454 522.252 557.504 522.24C557.537 522.212 557.563 522.177 557.579 522.136C557.594 522.096 557.599 522.052 557.594 522.01C557.594 521.83 557.107 517.606 554.79 517.606H554.586C553.92 517.67 553.728 518.003 553.69 518.285C553.498 519.45 555.994 521.69 557.261 522.253L557.35 522.24ZM554.79 518.054C556.288 518.054 556.877 520.512 557.056 521.562C555.776 520.794 554.074 519.002 554.176 518.336C554.176 518.272 554.176 518.106 554.65 518.067L554.79 518.054Z" fill="#648CF5"/>
    <path d="M574.541 285.043L576.819 288.512C576.999 288.781 576.691 289.114 576.205 289.178L532.339 295.066C531.968 295.066 531.635 294.976 531.584 294.746L530.816 291.085C530.816 290.829 531.059 290.56 531.482 290.509L573.824 284.826C573.952 284.798 574.085 284.803 574.211 284.841C574.336 284.879 574.45 284.949 574.541 285.043Z" fill="#648CF5"/>
    <path opacity="0.5" d="M574.541 285.043L576.819 288.512C576.999 288.781 576.691 289.114 576.205 289.178L532.339 295.066C531.968 295.066 531.635 294.976 531.584 294.746L530.816 291.085C530.816 290.829 531.059 290.56 531.482 290.509L573.824 284.826C573.952 284.798 574.085 284.803 574.211 284.841C574.336 284.879 574.45 284.949 574.541 285.043Z" fill="white"/>
    <path d="M569.357 290.56L570.496 290.406C570.714 290.406 570.88 290.24 570.842 290.099L569.805 285.338C569.805 285.21 569.562 285.12 569.331 285.146L568.205 285.299C567.975 285.299 567.808 285.466 567.847 285.606L568.883 290.368C568.922 290.445 569.127 290.56 569.357 290.56Z" fill="#648CF5"/>
    <path d="M540.711 294.4L541.837 294.246C542.067 294.246 542.221 294.08 542.195 293.939L541.146 289.178C541.146 289.037 540.915 288.947 540.685 288.986L539.546 289.126C539.328 289.126 539.162 289.306 539.2 289.446L540.237 294.195C540.275 294.4 540.48 294.4 540.711 294.4Z" fill="#648CF5"/>
</svg>
