<svg width="880" height="800" viewBox="0 0 880 800" fill="none" xmlns="http://www.w3.org/2000/svg">
    <path opacity="0.1" d="M392.16 460.016C459.456 444.128 532.56 499.76 602.24 488.816C669.44 478.32 724.64 424.72 697.696 352.096C671.584 281.696 595.424 235.68 524.592 236.08C480.72 236.32 457.776 235.648 418.896 205.808C388.8 182.8 365.264 153.728 328.512 141.28C257.104 117.088 223.36 160.288 218.8 217.072C213.872 278.544 165.472 311.328 154.304 370.368C144.848 420.304 164.08 487.072 229.808 503.904C291.2 519.616 340.096 472.304 392.16 460.016Z" fill="#648CF5"/>
    <path opacity="0.1" d="M440 684.096C611.332 684.096 750.224 675.987 750.224 665.984C750.224 655.981 611.332 647.872 440 647.872C268.668 647.872 129.776 655.981 129.776 665.984C129.776 675.987 268.668 684.096 440 684.096Z" fill="#648CF5"/>
    <path d="M304.96 228.976C305.264 225.44 320.496 212.4 336.4 221.504C352.304 230.608 340.8 258.128 358.096 260.8C346.896 272 310.416 285.68 299.2 272.832C287.984 259.984 286.544 224 304.96 228.976Z" fill="#263238"/>
    <path d="M369.024 317.712C369.44 323.632 370.064 329.904 370.896 335.888C371.64 341.785 372.839 347.615 374.48 353.328C374.672 354.016 374.912 354.672 375.136 355.312L375.744 357.008C375.869 357.376 376.053 357.722 376.288 358.032C376.656 358.576 378.784 359.072 381.28 358.752C386.982 357.781 392.516 355.997 397.712 353.456L401.776 359.424C400.484 360.561 399.132 361.629 397.728 362.624C396.352 363.616 394.944 364.576 393.456 365.44C390.369 367.33 387.044 368.799 383.568 369.808C381.556 370.371 379.481 370.672 377.392 370.704C374.801 370.723 372.245 370.102 369.952 368.896C367.474 367.538 365.441 365.493 364.096 363.008L363.664 362.16L363.392 361.552L362.832 360.304C362.448 359.488 362.08 358.704 361.792 357.84C359.4 351.464 357.648 344.866 356.56 338.144C355.443 331.614 354.743 325.019 354.464 318.4L369.024 317.712Z" fill="#E9A472"/>
    <path d="M361.2 301.808C374.176 311.728 373.648 330.448 373.648 330.448L350.4 336C350.4 336 343.28 317.184 346.176 310.288C349.232 303.104 353.904 296.208 361.2 301.808Z" fill="#648CF5"/>
    <path d="M396.448 354.848L404.976 346.304L409.568 359.664C409.568 359.664 402.368 363.552 395.472 359.872L396.448 354.848Z" fill="#E9A472"/>
    <path d="M416.784 344.992L418.352 355.536L409.568 359.648L404.976 346.304L416.784 344.992Z" fill="#E9A472"/>
    <path d="M286.016 654.88L299.072 656.144L312.656 625.088L299.6 623.808L286.016 654.88Z" fill="#E9A472"/>
    <path d="M201.968 608.96L211.76 618.16L232.928 594.912L223.12 585.696L201.968 608.96Z" fill="#E9A472"/>
    <path d="M216.288 613.744L208.928 600.48C208.805 600.25 208.602 600.073 208.358 599.981C208.113 599.89 207.844 599.891 207.6 599.984L196.256 604.304C195.975 604.423 195.723 604.599 195.515 604.822C195.307 605.045 195.148 605.309 195.048 605.597C194.948 605.885 194.911 606.191 194.937 606.495C194.963 606.798 195.053 607.093 195.2 607.36C197.856 611.936 199.36 614.016 202.608 619.856C204.592 623.44 208.48 631.68 211.232 636.64C213.984 641.6 219.024 639.136 218.32 636.832C215.12 626.464 215.776 620.704 216.72 616.128C216.866 615.307 216.712 614.462 216.288 613.744V613.744Z" fill="#263238"/>
    <path d="M300.8 652.112H284.8C284.511 652.113 284.231 652.209 284.002 652.385C283.774 652.562 283.61 652.809 283.536 653.088L280 665.776C279.915 666.075 279.901 666.39 279.959 666.695C280.018 667 280.148 667.287 280.337 667.533C280.527 667.779 280.772 667.977 281.053 668.111C281.333 668.245 281.641 668.311 281.952 668.304C287.6 668.304 290.272 668.304 297.328 668.304H318.864C324.72 668.304 325.952 662.384 323.52 661.904C312.656 659.504 306.4 656.192 303.04 653.024C302.434 652.45 301.635 652.124 300.8 652.112V652.112Z" fill="#263238"/>
    <path opacity="0.2" d="M312.64 625.104L305.648 641.104H292.032L299.584 623.824L312.64 625.104Z" fill="black"/>
    <path opacity="0.2" d="M223.12 585.712L232.912 594.912L222 606.896L212.208 597.696L223.12 585.712Z" fill="black"/>
    <path d="M357.28 299.872C357.28 299.872 363.2 302.4 343.472 380.32L288.816 375.6C291.664 353.424 292.864 339.712 286.192 293.136C293.98 292.216 301.825 291.863 309.664 292.08C317.976 292.209 326.269 292.925 334.48 294.224C342.17 295.723 349.779 297.609 357.28 299.872V299.872Z" fill="#648CF5"/>
    <path d="M319.44 319.712C319.393 319.728 319.343 319.728 319.296 319.712C307.472 309.984 300.096 294.976 302.464 291.44C302.494 291.389 302.543 291.353 302.6 291.338C302.657 291.323 302.717 291.331 302.768 291.36C302.82 291.393 302.857 291.445 302.872 291.504C302.887 291.564 302.878 291.627 302.848 291.68C300.704 294.992 308.032 309.728 319.328 319.136C322.176 310.544 327.024 307.104 327.072 307.072C327.123 307.049 327.18 307.045 327.233 307.06C327.287 307.075 327.333 307.107 327.365 307.153C327.397 307.198 327.413 307.253 327.409 307.308C327.405 307.363 327.382 307.416 327.344 307.456C327.344 307.456 322.448 310.928 319.648 319.6C319.637 319.634 319.618 319.664 319.593 319.689C319.568 319.714 319.538 319.733 319.504 319.744L319.44 319.712Z" fill="white"/>
    <path d="M338.352 320.24C338.313 320.232 338.277 320.212 338.248 320.184C338.22 320.155 338.201 320.119 338.192 320.08C335.712 311.152 330.768 307.6 330.72 307.568C330.684 307.523 330.664 307.466 330.664 307.408C330.664 307.35 330.684 307.293 330.72 307.248C330.764 307.209 330.821 307.187 330.88 307.187C330.939 307.187 330.996 307.209 331.04 307.248C331.04 307.248 336.016 310.816 338.576 319.6C344.512 312.32 341.136 298.48 338.832 294.928C338.802 294.875 338.794 294.812 338.808 294.752C338.823 294.693 338.86 294.641 338.912 294.608C338.954 294.57 339.008 294.549 339.064 294.549C339.12 294.549 339.175 294.57 339.216 294.608C341.6 298.304 345.104 312.8 338.64 320.208C338.601 320.242 338.553 320.263 338.501 320.269C338.45 320.274 338.398 320.264 338.352 320.24Z" fill="white"/>
    <path d="M314.544 264.352C315.408 272.464 315.712 287.232 309.664 292.08C315.542 297.531 322.103 302.194 329.184 305.952C338.688 299.392 334.48 294.224 334.48 294.224C325.76 291.328 326.48 284.752 328.656 278.672L314.544 264.352Z" fill="#E9A472"/>
    <path opacity="0.2" d="M320.288 270.192L328.64 278.672C328.135 280.081 327.755 281.532 327.504 283.008C324.144 282.224 319.28 278.736 319.216 275.136C319.287 273.439 319.65 271.766 320.288 270.192V270.192Z" fill="black"/>
    <path d="M307.392 251.664C310.784 264.64 311.936 270.192 319.888 275.664C331.856 283.84 347.088 276.848 347.616 263.12C348.112 250.768 342.496 231.632 328.608 228.928C325.553 228.32 322.394 228.503 319.429 229.458C316.465 230.413 313.793 232.11 311.668 234.387C309.543 236.665 308.035 239.447 307.287 242.47C306.538 245.494 306.575 248.658 307.392 251.664Z" fill="#E9A472"/>
    <path d="M311.088 261.376C315.488 267.776 326.96 229.648 312.096 230.848C297.232 232.048 299.024 248.192 311.088 261.376Z" fill="#263238"/>
    <path d="M313.056 233.024C321.648 237.392 346.656 242.624 343.232 235.664C341.364 232.172 338.581 229.255 335.182 227.223C331.783 225.19 327.896 224.121 323.936 224.128C315.776 224 305.472 229.184 313.056 233.024Z" fill="#263238"/>
    <path d="M306.32 262.656C306.916 263.796 307.732 264.807 308.721 265.631C309.709 266.455 310.851 267.075 312.08 267.456C315.376 268.448 317.088 265.52 316.224 262.384C315.456 259.552 312.816 255.632 309.488 255.984C308.76 256.08 308.068 256.357 307.475 256.789C306.881 257.222 306.405 257.796 306.09 258.459C305.775 259.122 305.631 259.853 305.672 260.587C305.712 261.32 305.935 262.031 306.32 262.656V262.656Z" fill="#E9A472"/>
    <path d="M343.472 380.32C343.472 380.32 361.968 462.128 349.632 519.808C341.36 558.432 311.536 636.464 311.536 636.464L288.224 635.872C288.224 635.872 310.8 553.984 315.424 521.776C323.424 466.688 303.424 376.864 303.424 376.864L343.472 380.32Z" fill="#263238"/>
    <path opacity="0.2" d="M322.144 396.8L310.496 415.2C314.009 437.002 316.237 458.992 317.168 481.056C333.552 451.728 325.792 412.384 322.144 396.8Z" fill="black"/>
    <path d="M314.816 637.68L286.016 636.944L287.696 628.096L317.072 629.488L314.816 637.68Z" fill="#648CF5"/>
    <path d="M331.52 379.456C331.52 379.456 320.672 466.208 297.152 513.568C278.16 551.84 227.472 606.288 227.472 606.288L214.512 592.944C214.512 592.944 248.752 533.744 262.864 508.336C297.488 446.032 269.264 398.48 288.816 375.536L331.52 379.456Z" fill="#263238"/>
    <path d="M228.784 608.08L212.064 591.776L217.616 584.224L235.344 601.936L228.784 608.08Z" fill="#648CF5"/>
    <path d="M288.272 372.32L285.392 376.992C285.168 377.36 285.584 377.776 286.208 377.84L343.536 382.8C344.032 382.8 344.464 382.624 344.512 382.32L345.424 377.52C345.424 377.184 345.088 376.864 344.56 376.816L289.2 372.016C289.032 371.984 288.859 371.995 288.697 372.048C288.534 372.101 288.388 372.195 288.272 372.32V372.32Z" fill="#648CF5"/>
    <path opacity="0.3" d="M288.272 372.32L285.392 376.992C285.168 377.36 285.584 377.776 286.208 377.84L343.536 382.8C344.032 382.8 344.464 382.624 344.512 382.32L345.424 377.52C345.424 377.184 345.088 376.864 344.56 376.816L289.2 372.016C289.032 371.984 288.859 371.995 288.697 372.048C288.534 372.101 288.388 372.195 288.272 372.32V372.32Z" fill="black"/>
    <path d="M295.168 379.2L293.696 379.072C293.392 379.072 293.184 378.864 293.216 378.688L294.464 372.384C294.464 372.208 294.768 372.08 295.072 372.096L296.544 372.224C296.848 372.224 297.056 372.432 297.024 372.608L295.776 378.912C295.744 379.04 295.472 379.2 295.168 379.2Z" fill="#263238"/>
    <path d="M339.328 382.96L337.84 382.832C337.552 382.832 337.328 382.64 337.376 382.448L338.608 376.16C338.608 375.968 338.928 375.84 339.216 375.872L340.704 376C340.992 376 341.2 376.192 341.168 376.384L339.92 382.672C339.888 382.864 339.616 382.992 339.328 382.96Z" fill="#263238"/>
    <path d="M317.248 381.056L315.76 380.928C315.472 380.928 315.264 380.736 315.296 380.544L316.544 374.256C316.544 374.064 316.848 373.936 317.136 373.968L318.624 374.096C318.928 374.096 319.136 374.288 319.104 374.464L317.856 380.768C317.8 380.875 317.71 380.961 317.6 381.013C317.49 381.065 317.367 381.08 317.248 381.056Z" fill="#263238"/>
    <path d="M329.36 251.2C329.568 252.272 330.304 253.024 330.96 252.88C331.616 252.736 332.064 251.776 331.856 250.704C331.648 249.632 330.912 248.88 330.256 249.008C329.6 249.136 329.136 250.144 329.36 251.2Z" fill="#263238"/>
    <path d="M341.44 248.832C341.648 249.904 342.384 250.672 343.04 250.528C343.696 250.384 344.128 249.408 343.92 248.336C343.712 247.264 342.976 246.512 342.32 246.656C341.664 246.8 341.232 247.776 341.44 248.832Z" fill="#263238"/>
    <path d="M342.032 246.768L344.448 245.536C344.448 245.536 343.52 247.792 342.032 246.768Z" fill="#263238"/>
    <path d="M337.28 251.504C338.703 253.758 340.425 255.809 342.4 257.6C341.931 258.093 341.36 258.479 340.728 258.73C340.095 258.982 339.416 259.093 338.736 259.056L337.28 251.504Z" fill="#CC8450"/>
    <path d="M333.824 264.144C331.571 264.174 329.391 263.344 327.728 261.824C327.677 261.773 327.649 261.704 327.649 261.632C327.649 261.56 327.677 261.491 327.728 261.44C327.752 261.415 327.78 261.396 327.812 261.382C327.844 261.369 327.878 261.362 327.912 261.362C327.946 261.362 327.98 261.369 328.012 261.382C328.044 261.396 328.072 261.415 328.096 261.44C329.121 262.338 330.343 262.984 331.662 263.326C332.982 263.668 334.363 263.696 335.696 263.408C335.766 263.394 335.839 263.408 335.899 263.446C335.958 263.485 336.001 263.546 336.016 263.616C336.023 263.65 336.023 263.684 336.016 263.718C336.009 263.752 335.996 263.784 335.977 263.812C335.957 263.841 335.932 263.865 335.903 263.883C335.874 263.902 335.842 263.914 335.808 263.92C335.156 264.061 334.491 264.136 333.824 264.144V264.144Z" fill="#263238"/>
    <path d="M322.096 247.072C322.007 247.095 321.913 247.095 321.824 247.072C321.764 247.036 321.711 246.988 321.669 246.931C321.627 246.874 321.597 246.81 321.581 246.741C321.564 246.673 321.562 246.601 321.574 246.532C321.585 246.462 321.611 246.396 321.648 246.336C322.139 245.47 322.832 244.736 323.667 244.195C324.503 243.655 325.457 243.324 326.448 243.232C326.518 243.23 326.587 243.241 326.651 243.266C326.716 243.291 326.776 243.328 326.826 243.375C326.877 243.423 326.917 243.48 326.946 243.543C326.974 243.606 326.99 243.675 326.992 243.744C326.994 243.813 326.983 243.882 326.958 243.947C326.934 244.012 326.896 244.072 326.849 244.122C326.801 244.173 326.744 244.213 326.681 244.242C326.618 244.27 326.55 244.286 326.48 244.288C325.661 244.376 324.875 244.659 324.188 245.113C323.501 245.566 322.931 246.178 322.528 246.896C322.475 246.956 322.408 247.004 322.333 247.034C322.258 247.065 322.177 247.078 322.096 247.072V247.072Z" fill="#263238"/>
    <path d="M344.8 242.784C344.711 242.806 344.617 242.806 344.528 242.784C343.825 242.361 343.031 242.113 342.213 242.06C341.395 242.008 340.575 242.151 339.824 242.48C339.698 242.543 339.553 242.555 339.419 242.513C339.285 242.471 339.172 242.379 339.104 242.256C339.071 242.194 339.05 242.126 339.043 242.056C339.037 241.987 339.044 241.916 339.065 241.849C339.086 241.782 339.12 241.72 339.165 241.666C339.21 241.612 339.266 241.568 339.328 241.536C340.238 241.125 341.234 240.939 342.231 240.995C343.228 241.05 344.197 241.346 345.056 241.856C345.117 241.889 345.171 241.935 345.215 241.989C345.258 242.043 345.291 242.106 345.31 242.173C345.329 242.24 345.335 242.31 345.327 242.379C345.319 242.448 345.298 242.515 345.264 242.576C345.209 242.646 345.139 242.701 345.058 242.738C344.977 242.774 344.888 242.79 344.8 242.784Z" fill="#263238"/>
    <path d="M293.984 313.6C291.84 317.152 289.568 320.8 287.44 324.448C285.312 328.096 283.12 331.712 281.04 335.376C278.96 339.04 277.024 342.704 275.376 346.352C274.928 347.264 274.576 348.16 274.16 349.056C273.744 349.952 273.488 350.8 273.152 351.68C272.999 352.078 272.887 352.491 272.816 352.912C272.816 353.12 272.816 353.056 272.72 353.024C272.624 352.992 272.992 353.632 274.32 354.192C275.864 354.806 277.475 355.236 279.12 355.472C283.061 356.041 287.044 356.271 291.024 356.16C299.435 355.932 307.826 355.238 316.16 354.08L317.76 361.104C309.259 363.768 300.536 365.664 291.696 366.768C287.055 367.369 282.367 367.524 277.696 367.232C275.044 367.06 272.426 366.549 269.904 365.712C268.364 365.188 266.9 364.462 265.552 363.552C263.805 362.401 262.366 360.84 261.362 359.005C260.358 357.169 259.819 355.116 259.792 353.024C259.772 351.287 260.009 349.556 260.496 347.888C260.848 346.72 261.184 345.504 261.568 344.384C261.952 343.264 262.336 342.144 262.768 341.056C264.464 336.736 266.336 332.672 268.368 328.704C270.4 324.736 272.496 320.848 274.672 317.024C276.848 313.2 279.12 309.472 281.632 305.728L293.984 313.6Z" fill="#E9A472"/>
    <path d="M312.896 355.712L323.568 350.064L323.968 361.952C323.968 361.952 316.512 364.64 312.096 361.184L312.896 355.712Z" fill="#E9A472"/>
    <path d="M330.064 350.912L328.464 361.44L323.968 361.952L323.552 350.064L330.064 350.912Z" fill="#E9A472"/>
    <path d="M286.192 293.136C279.488 294.4 270.096 313.6 270.096 313.6L290.896 331.6C290.896 331.6 300.416 314.224 299.712 305.488C299.104 298.016 294.72 291.632 286.192 293.136Z" fill="#648CF5"/>
    <path d="M218.88 620.88C218.701 620.877 218.524 620.85 218.352 620.8C216.752 620.256 215.696 617.28 215.152 615.568C215.125 615.525 215.111 615.475 215.111 615.424C215.111 615.373 215.125 615.323 215.152 615.28C215.198 615.253 215.251 615.239 215.304 615.239C215.357 615.239 215.41 615.253 215.456 615.28C215.936 615.536 220.256 617.824 220.352 619.504C220.373 619.687 220.342 619.873 220.262 620.04C220.183 620.207 220.059 620.348 219.904 620.448C219.614 620.692 219.257 620.842 218.88 620.88V620.88ZM215.904 616.08C216.656 618.464 217.616 620.032 218.528 620.336C218.735 620.398 218.954 620.406 219.164 620.358C219.374 620.311 219.569 620.209 219.728 620.064C219.81 620.015 219.876 619.944 219.919 619.859C219.961 619.774 219.978 619.679 219.968 619.584C219.888 618.496 217.376 616.864 215.904 616V616.08Z" fill="#648CF5"/>
    <path d="M219.536 616.704C218.078 616.698 216.64 616.365 215.328 615.728C215.289 615.701 215.256 615.666 215.234 615.624C215.212 615.582 215.2 615.535 215.2 615.488C215.203 615.441 215.218 615.396 215.243 615.357C215.268 615.318 215.303 615.286 215.344 615.264C215.488 615.184 218.88 613.312 220.704 613.968C220.929 614.042 221.135 614.165 221.306 614.328C221.478 614.491 221.611 614.691 221.696 614.912C221.81 615.125 221.849 615.371 221.805 615.609C221.761 615.848 221.639 616.064 221.456 616.224C220.888 616.594 220.212 616.764 219.536 616.704V616.704ZM216.048 615.488C217.504 616.112 220.32 616.496 221.12 615.824C221.248 615.712 221.376 615.52 221.12 615.12C221.061 614.969 220.971 614.832 220.855 614.719C220.739 614.606 220.6 614.519 220.448 614.464C219.28 614.032 217.024 615.024 216 615.488H216.048Z" fill="#648CF5"/>
    <path d="M307.92 654.704C306.444 654.672 304.975 654.49 303.536 654.16C303.482 654.145 303.433 654.114 303.396 654.071C303.359 654.028 303.335 653.976 303.328 653.92C303.325 653.864 303.339 653.808 303.367 653.76C303.396 653.712 303.438 653.673 303.488 653.648C304.144 653.344 309.888 650.656 311.488 651.648C311.622 651.738 311.729 651.863 311.797 652.01C311.864 652.157 311.89 652.319 311.872 652.48C311.86 652.772 311.781 653.058 311.643 653.316C311.504 653.573 311.309 653.796 311.072 653.968C310.127 654.543 309.022 654.801 307.92 654.704V654.704ZM304.448 653.792C306.176 654.128 309.376 654.544 310.688 653.552C310.865 653.427 311.009 653.262 311.11 653.07C311.21 652.878 311.263 652.664 311.264 652.448C311.264 652.224 311.264 652.144 311.12 652.096C310.304 651.536 306.864 652.8 304.448 653.792Z" fill="#648CF5"/>
    <path d="M303.6 654.16C303.544 654.182 303.481 654.182 303.424 654.16C303.398 654.123 303.384 654.078 303.384 654.032C303.384 653.986 303.398 653.942 303.424 653.904C303.424 653.664 304.8 647.92 307.952 648.288C308.736 648.384 308.96 648.768 308.992 649.088C309.2 650.544 305.536 653.488 303.776 654.208L303.6 654.16ZM307.584 648.736C305.568 648.736 304.384 652.08 304 653.408C305.904 652.416 308.512 650.032 308.384 649.088C308.384 649.088 308.384 648.816 307.808 648.752L307.584 648.736Z" fill="#648CF5"/>
    <path d="M329.936 249.152L332.368 247.904C332.368 247.904 331.44 250.176 329.936 249.152Z" fill="#263238"/>
    <path d="M610.608 301.072C610.528 302.176 610.432 302.96 610.32 303.872C610.208 304.784 610.08 305.6 609.936 306.448C609.648 308.16 609.312 309.84 608.944 311.52C608.195 314.868 607.271 318.173 606.176 321.424C603.943 327.994 600.912 334.265 597.152 340.096L595.68 342.272L595.312 342.8L595.088 343.12L594.752 343.568C594.264 344.145 593.729 344.68 593.152 345.168C591.27 346.859 589.026 348.096 586.592 348.784C582.856 349.789 578.973 350.13 575.12 349.792C568.314 349.23 561.622 347.7 555.248 345.248L556.976 338.352C562.993 338.967 569.051 339.09 575.088 338.72C577.641 338.575 580.156 338.035 582.544 337.12C583.163 336.864 583.712 336.464 584.144 335.952C583.968 336.192 585.04 334.352 585.744 333.2C588.543 328.033 590.8 322.591 592.48 316.96C593.344 314.112 594.08 311.232 594.72 308.352C595.04 306.896 595.328 305.44 595.584 304L595.92 301.84L596.208 299.872L610.608 301.072Z" fill="#B55B52"/>
    <path d="M613.936 291.68C614.288 300.64 610.816 316.8 610.816 316.8L588.64 314.112C588.64 314.112 587.824 290.464 592.128 284.752C599.344 275.2 613.616 283.2 613.936 291.68Z" fill="#263238"/>
    <path d="M560 339.296L546.72 334.576L549.488 344.528C549.488 344.528 555.696 348.16 559.248 344.032L560 339.296Z" fill="#B55B52"/>
    <path d="M542.16 337.12L540.336 344.144L549.504 344.528L546.736 334.576L542.16 337.12Z" fill="#B55B52"/>
    <path d="M479.792 383.616C489.034 383.756 498.213 382.057 506.792 378.616C515.372 375.176 523.181 370.064 529.767 363.578C536.353 357.091 541.582 349.36 545.152 340.833C548.722 332.307 550.56 323.156 550.56 313.912C550.56 304.668 548.722 295.517 545.152 286.991C541.582 278.464 536.353 270.733 529.767 264.246C523.181 257.76 515.372 252.648 506.792 249.208C498.213 245.767 489.034 244.068 479.792 244.208H470.752V383.616H479.792Z" fill="#648CF5"/>
    <path d="M470.752 383.616C509.253 383.616 540.464 352.405 540.464 313.904C540.464 275.403 509.253 244.192 470.752 244.192C432.251 244.192 401.04 275.403 401.04 313.904C401.04 352.405 432.251 383.616 470.752 383.616Z" fill="#648CF5"/>
    <path opacity="0.2" d="M470.752 383.616C509.253 383.616 540.464 352.405 540.464 313.904C540.464 275.403 509.253 244.192 470.752 244.192C432.251 244.192 401.04 275.403 401.04 313.904C401.04 352.405 432.251 383.616 470.752 383.616Z" fill="black"/>
    <path opacity="0.8" d="M514.459 357.62C538.597 333.483 538.597 294.348 514.459 270.21C490.322 246.073 451.187 246.073 427.05 270.21C402.912 294.348 402.912 333.483 427.05 357.62C451.187 381.758 490.322 381.758 514.459 357.62Z" fill="#648CF5"/>
    <path d="M502.528 317.888C499.634 314.641 495.736 312.456 491.456 311.68C494.326 310.802 496.918 309.192 498.976 307.008C501.544 304.073 502.92 300.283 502.832 296.384C502.878 294.054 502.418 291.742 501.484 289.607C500.551 287.472 499.165 285.564 497.424 284.016C493.829 280.677 488.667 279.008 481.936 279.008H477.792V267.296H469.968V279.008H460.272V267.296H452.448V279.008H435.44V293.152H441.6V334.672H435.488V348.8H452.496V360.512H460.32V348.8H470.016V360.512H477.84V348.8H478.832C482.046 348.646 485.251 348.326 488.432 347.84C491.285 347.62 494.07 346.859 496.64 345.6C499.512 343.973 501.898 341.609 503.552 338.752C505.249 335.783 506.117 332.412 506.064 328.992C506.227 324.99 504.975 321.059 502.528 317.888V317.888ZM463.312 293.152H472.832C476.112 293.152 478.4 293.728 479.712 294.864C480.383 295.463 480.91 296.206 481.254 297.037C481.597 297.868 481.748 298.766 481.696 299.664C481.751 300.595 481.603 301.528 481.26 302.396C480.917 303.263 480.389 304.046 479.712 304.688C478.4 305.84 476.064 306.416 472.704 306.416H463.312V293.152ZM482.176 331.84C480.576 333.152 478.032 333.808 474.32 333.808H463.312V319.68H474.272C478.048 319.68 480.688 320.304 482.192 321.552C482.928 322.15 483.517 322.911 483.911 323.774C484.305 324.637 484.494 325.58 484.464 326.528C484.506 327.528 484.322 328.525 483.926 329.445C483.529 330.364 482.931 331.183 482.176 331.84V331.84Z" fill="white"/>
    <path d="M547.488 245.728C547.488 246.768 546.896 247.616 546.224 247.632C545.552 247.648 544.992 246.8 545.008 245.776C545.024 244.752 545.584 243.888 546.272 243.872C546.96 243.856 547.504 244.704 547.488 245.728Z" fill="#263238"/>
    <path d="M546.576 243.936L544 243.2C544 243.2 545.328 245.168 546.576 243.936Z" fill="#263238"/>
    <path d="M546.592 246.752C545.624 249.138 544.338 251.382 542.768 253.424C543.304 253.792 543.913 254.039 544.554 254.15C545.195 254.26 545.852 254.231 546.48 254.064L546.592 246.752Z" fill="#A02724"/>
    <path d="M546.176 238.848C546.271 238.872 546.37 238.872 546.464 238.848C547.201 238.583 547.989 238.493 548.766 238.585C549.544 238.676 550.289 238.947 550.944 239.376C551.073 239.474 551.236 239.516 551.397 239.493C551.476 239.482 551.553 239.455 551.622 239.415C551.691 239.374 551.752 239.32 551.8 239.256C551.848 239.192 551.884 239.119 551.904 239.041C551.924 238.964 551.928 238.883 551.917 238.803C551.906 238.724 551.879 238.647 551.839 238.578C551.798 238.509 551.744 238.448 551.68 238.4C550.862 237.862 549.933 237.519 548.962 237.397C547.991 237.275 547.005 237.377 546.08 237.696C546.003 237.719 545.932 237.758 545.871 237.81C545.809 237.862 545.759 237.926 545.723 237.998C545.687 238.069 545.666 238.148 545.662 238.228C545.657 238.308 545.669 238.388 545.696 238.464C545.735 238.565 545.8 238.654 545.884 238.721C545.968 238.789 546.069 238.832 546.176 238.848V238.848Z" fill="#263238"/>
    <path d="M578.16 256.784C577.472 264.576 580.08 277.328 585.968 281.664C585.968 281.664 581.536 289.856 567.344 291.76C551.728 293.856 559.056 285.072 559.056 285.072C567.36 281.872 566.48 275.68 564.368 269.984L578.16 256.784Z" fill="#B55B52"/>
    <path d="M549.792 300.896C548.096 309.006 545.96 317.018 543.392 324.896C540.883 332.831 537.879 340.6 534.4 348.16L533.744 349.6C533.472 350.16 533.12 350.816 532.8 351.408C532.172 352.516 531.477 353.584 530.72 354.608C529.331 356.432 527.818 358.159 526.192 359.776C523.147 362.784 519.908 365.59 516.496 368.176C509.886 373.184 502.894 377.667 495.584 381.584L491.664 375.632C497.728 370.576 503.792 365.296 509.392 359.888C512.154 357.264 514.771 354.492 517.232 351.584C518.357 350.244 519.394 348.834 520.336 347.36C520.739 346.719 521.108 346.057 521.44 345.376L521.824 344.464L522.352 343.104C523.76 339.488 525.008 335.776 526.272 332.064C527.536 328.352 528.64 324.576 529.744 320.864C531.904 313.312 533.936 305.552 535.712 298.048L549.792 300.896Z" fill="#B55B52"/>
    <path d="M496.304 381.024L488.944 385.824L485.296 379.568C485.296 379.568 492.528 370.928 496.896 377.072L496.304 381.024Z" fill="#B55B52"/>
    <path d="M494.4 374.576L490.24 373.952L485.568 374.944L484.368 376.304L487.408 376.752L488.208 377.952L489.232 378.608L494.4 374.576Z" fill="#B55B52"/>
    <path d="M481.632 386.448L477.584 383.184L485.296 379.6L488.944 385.856L481.632 386.448Z" fill="#B55B52"/>
    <path d="M601.216 651.856L588.304 652.816L584.464 623.168L597.376 622.208L601.216 651.856Z" fill="#B55B52"/>
    <path d="M683.888 614.192L672.704 620.992L654.112 597.76L665.296 590.96L683.888 614.192Z" fill="#B55B52"/>
    <path d="M669.36 618.496L679.968 608.288C680.143 608.108 680.379 607.998 680.629 607.981C680.88 607.963 681.129 608.038 681.328 608.192L690.368 615.168C690.586 615.362 690.761 615.599 690.881 615.865C691 616.132 691.062 616.42 691.062 616.712C691.062 617.004 691 617.292 690.881 617.558C690.761 617.825 690.586 618.062 690.368 618.256C686.608 621.76 684.624 623.264 679.952 627.76C677.088 630.528 673.168 634.848 669.2 638.672C665.232 642.496 661.376 638.88 662.688 636.944C668.608 628.272 667.712 625.024 668.256 620.592C668.365 619.785 668.756 619.043 669.36 618.496V618.496Z" fill="#263238"/>
    <path d="M587.504 650.976H602.016C602.266 650.973 602.509 651.06 602.7 651.222C602.891 651.384 603.017 651.609 603.056 651.856L605.008 663.328C605.049 663.615 605.028 663.907 604.947 664.184C604.865 664.462 604.725 664.719 604.535 664.938C604.345 665.156 604.11 665.332 603.847 665.451C603.583 665.571 603.297 665.633 603.008 665.632C597.936 665.632 595.488 665.248 589.104 665.248C585.184 665.248 577.072 665.648 571.648 665.648C566.224 665.648 565.808 660.288 568.048 659.808C578.112 657.632 582.032 654.624 585.36 651.808C585.952 651.284 586.713 650.988 587.504 650.976Z" fill="#263238"/>
    <path opacity="0.2" d="M584.48 623.168L586.608 639.648L599.36 637.504L597.392 622.224L584.48 623.168Z" fill="black"/>
    <path opacity="0.2" d="M665.296 590.96L654.112 597.776L661.808 607.376L673.232 600.864L665.296 590.96Z" fill="black"/>
    <path d="M607.728 359.456L555.44 366.48C535.184 293.136 541.168 291.152 541.168 291.152C545.082 289.306 549.105 287.703 553.216 286.352L553.936 286.128C557.312 285.12 558.016 284.976 562.512 283.952C570.24 282.592 577.408 281.536 586.256 280.752L587.856 280.624C589.456 280.512 591.056 280.432 592.656 280.384C593.696 280.384 594.72 280.384 595.696 280.304H600.8C601.8 280.327 602.785 280.558 603.692 280.981C604.598 281.404 605.407 282.011 606.068 282.763C606.728 283.514 607.225 284.395 607.527 285.349C607.829 286.303 607.93 287.309 607.824 288.304C603.376 327.04 604.8 339.712 607.728 359.456Z" fill="#263238"/>
    <path opacity="0.2" d="M550.4 313.6C551.441 321.184 550.47 328.909 547.584 336C544.096 321.696 542.224 312 541.28 305.28C545.216 305.104 549.376 306.64 550.4 313.6Z" fill="black"/>
    <path d="M541.616 290.944C532.672 296.064 526.448 308.272 524.576 315.36L543.632 332.8C543.632 332.8 555.952 309.088 552.736 302.672C549.376 296 545.008 289.008 541.616 290.944Z" fill="#263238"/>
    <path d="M582.576 242.4C581.6 255.2 581.472 260.544 574.88 267.168C564.976 277.136 549.392 273.568 546.496 260.944C543.904 249.552 545.904 230.544 558.576 225.392C561.287 224.181 564.266 223.697 567.221 223.988C570.176 224.279 573.004 225.335 575.426 227.052C577.848 228.769 579.782 231.087 581.036 233.778C582.289 236.469 582.82 239.441 582.576 242.4Z" fill="#B55B52"/>
    <path d="M556.192 247.536C557.504 243.008 547.328 237.856 546.24 230.912C544.832 221.904 551.808 214.624 558.32 218.864C560.96 212.832 578.88 210.288 588.72 217.76C599.792 226.144 586.224 235.008 597.264 242.432C606.064 248.352 607.264 252.032 601.824 259.12C597.696 264.512 608.368 263.36 605.664 272.48C602.96 281.6 547.76 284.944 555.088 264.48C561.6 246.4 553.6 256.784 556.192 247.536Z" fill="#263238"/>
    <path d="M559.296 246.528C559.217 248.901 558.407 251.193 556.976 253.088C554.992 255.776 552.672 255.056 552.176 252.576C551.664 250.352 552.096 246.272 554.608 244.416C557.12 242.56 559.28 243.872 559.296 246.528Z" fill="#B55B52"/>
    <path d="M601.264 259.6C601.215 259.599 601.168 259.583 601.13 259.553C601.091 259.523 601.064 259.481 601.051 259.434C601.038 259.387 601.041 259.337 601.06 259.292C601.078 259.247 601.11 259.209 601.152 259.184C604.624 257.184 606.48 254.384 606.4 251.472C606.304 247.728 603.2 243.952 598.128 241.376C592.08 238.304 592.544 234.144 593.008 230.176C593.472 226.208 593.936 221.952 588.032 218.528C587.98 218.495 587.942 218.445 587.925 218.386C587.907 218.327 587.911 218.264 587.936 218.208C587.969 218.156 588.021 218.119 588.08 218.104C588.14 218.089 588.203 218.098 588.256 218.128C594.432 221.712 593.936 226.032 593.456 230.224C592.976 234.416 592.56 238.112 598.256 241.04C603.488 243.68 606.672 247.6 606.784 251.52C606.784 254.72 604.928 257.568 601.312 259.632C601.294 259.624 601.278 259.613 601.264 259.6V259.6Z" fill="#263238"/>
    <path d="M569.248 364.624C569.248 364.624 589.552 450.416 599.04 499.712C609.04 551.712 657.072 605.888 657.072 605.888L673.376 596.8C673.376 596.8 643.152 547.36 633.376 498.8C613.472 400.24 626.976 380.4 607.776 359.472L569.248 364.624Z" fill="#648CF5"/>
    <path d="M655.456 607.408L675.808 596.064L672.832 590.048L650 600.56L655.456 607.408Z" fill="#263238"/>
    <path opacity="0.2" d="M580.032 383.264C595.824 396.976 594.112 445.664 592.464 467.52C585.84 436.352 577.872 401.664 573.264 381.584C574.864 380.336 577.136 380.8 580.032 383.264Z" fill="black"/>
    <path d="M664.912 624.416C665.065 624.441 665.222 624.441 665.376 624.416C666.976 624.416 668.88 621.92 669.84 620.448C669.871 620.397 669.888 620.339 669.888 620.28C669.888 620.221 669.871 620.162 669.84 620.112C669.807 620.059 669.759 620.018 669.701 619.995C669.643 619.972 669.58 619.968 669.52 619.984C669.008 620.08 664.384 621.056 663.776 622.592C663.708 622.761 663.686 622.944 663.711 623.123C663.737 623.303 663.808 623.473 663.92 623.616C664.149 623.989 664.499 624.272 664.912 624.416V624.416ZM668.896 620.784C667.552 622.704 666.256 623.84 665.36 623.856C665.168 623.857 664.98 623.807 664.815 623.711C664.649 623.616 664.511 623.478 664.416 623.312C664.365 623.251 664.331 623.177 664.317 623.099C664.303 623.02 664.309 622.94 664.336 622.864C664.672 622.048 667.056 621.232 668.896 620.8V620.784Z" fill="#648CF5"/>
    <path d="M556.224 366.512C556.224 366.512 547.088 468.384 552 507.2C557.184 547.616 583.568 635.536 583.568 635.536L602.176 633.136C602.176 633.136 587.056 546 584.368 506C581.44 462.368 594.448 361.344 594.448 361.344L556.224 366.512Z" fill="#648CF5"/>
    <path d="M579.664 636.64L606.208 633.216L605.792 625.376L577.008 628.16L579.664 636.64Z" fill="#263238"/>
    <path d="M665.6 620.416C666.924 620.775 668.31 620.846 669.664 620.624C669.718 620.609 669.766 620.581 669.806 620.541C669.845 620.502 669.873 620.453 669.888 620.4C669.899 620.349 669.898 620.296 669.884 620.246C669.87 620.196 669.844 620.15 669.808 620.112C669.696 620 667.168 617.392 665.296 617.472C665.054 617.475 664.817 617.533 664.6 617.641C664.384 617.749 664.195 617.905 664.048 618.096C663.872 618.265 663.76 618.489 663.731 618.731C663.702 618.973 663.757 619.218 663.888 619.424C664.33 619.939 664.933 620.289 665.6 620.416ZM668.944 620.128C667.344 620.304 664.88 619.84 664.4 619.104C664.32 618.976 664.256 618.8 664.512 618.48C664.61 618.357 664.734 618.257 664.875 618.188C665.016 618.119 665.171 618.082 665.328 618.08C666.717 618.371 667.981 619.086 668.944 620.128V620.128Z" fill="#648CF5"/>
    <path d="M582.704 653.232C584.065 653.208 585.421 653.052 586.752 652.768C586.814 652.756 586.87 652.724 586.913 652.678C586.956 652.632 586.983 652.574 586.992 652.512C587.003 652.449 586.993 652.384 586.964 652.326C586.935 652.269 586.889 652.222 586.832 652.192C586.24 651.888 581.008 649.248 579.456 650.144C579.31 650.223 579.188 650.338 579.101 650.478C579.014 650.618 578.965 650.779 578.96 650.944C578.931 651.222 578.97 651.502 579.073 651.761C579.176 652.02 579.34 652.25 579.552 652.432C580.483 653.045 581.593 653.327 582.704 653.232V653.232ZM585.728 652.336C582.88 652.8 580.752 652.688 579.952 651.984C579.817 651.859 579.712 651.704 579.646 651.532C579.579 651.361 579.553 651.176 579.568 650.992C579.568 650.927 579.587 650.862 579.62 650.806C579.654 650.75 579.702 650.704 579.76 650.672C580.608 650.192 583.584 651.312 585.728 652.336Z" fill="#648CF5"/>
    <path d="M586.688 652.8C586.751 652.815 586.816 652.815 586.88 652.8C586.921 652.766 586.953 652.721 586.973 652.671C586.992 652.62 586.999 652.566 586.992 652.512C586.992 652.288 586.384 647.008 583.488 647.008H583.232C582.4 647.088 582.16 647.504 582.112 647.856C581.872 649.312 584.992 652.112 586.576 652.816L586.688 652.8ZM583.488 647.568C585.36 647.568 586.096 650.64 586.32 651.952C584.72 650.992 582.592 648.752 582.72 647.92C582.72 647.84 582.72 647.632 583.312 647.584L583.488 647.568Z" fill="#648CF5"/>
    <path d="M608.176 356.304L611.024 360.64C611.248 360.976 610.864 361.392 610.256 361.472L555.424 368.832C554.96 368.832 554.544 368.72 554.48 368.432L553.52 363.856C553.52 363.536 553.824 363.2 554.352 363.136L607.28 356.032C607.44 355.997 607.606 356.004 607.763 356.051C607.92 356.099 608.062 356.186 608.176 356.304V356.304Z" fill="#648CF5"/>
    <path opacity="0.5" d="M608.176 356.304L611.024 360.64C611.248 360.976 610.864 361.392 610.256 361.472L555.424 368.832C554.96 368.832 554.544 368.72 554.48 368.432L553.52 363.856C553.52 363.536 553.824 363.2 554.352 363.136L607.28 356.032C607.44 355.997 607.606 356.004 607.763 356.051C607.92 356.099 608.062 356.186 608.176 356.304V356.304Z" fill="white"/>
    <path d="M601.696 363.2L603.12 363.008C603.392 363.008 603.6 362.8 603.552 362.624L602.256 356.672C602.256 356.512 601.952 356.4 601.664 356.432L600.256 356.624C599.968 356.624 599.76 356.832 599.808 357.008L601.104 362.96C601.152 363.056 601.408 363.2 601.696 363.2Z" fill="#648CF5"/>
    <path d="M565.888 368L567.296 367.808C567.584 367.808 567.776 367.6 567.744 367.424L566.432 361.472C566.432 361.296 566.144 361.184 565.856 361.232L564.432 361.408C564.16 361.408 563.952 361.632 564 361.808L565.296 367.744C565.344 368 565.6 368 565.888 368Z" fill="#648CF5"/>
</svg>
