<svg width="21" height="14" viewBox="0 0 21 14" fill="none" xmlns="http://www.w3.org/2000/svg">
<path d="M20.2658 11.7766C20.1513 12.1979 19.9283 12.582 19.6191 12.8907C19.3098 13.1994 18.925 13.422 18.5029 13.5363C16.9575 13.9575 10.7371 13.9575 10.7371 13.9575C10.7371 13.9575 4.51634 13.9451 2.97056 13.5239C2.54847 13.4096 2.16367 13.187 1.85442 12.8783C1.54517 12.5696 1.32223 12.1855 1.20774 11.7641C0.798828 10.2211 0.798828 6.99496 0.798828 6.99496C0.798828 6.99496 0.798828 3.76884 1.22049 2.21336C1.33498 1.792 1.55792 1.40789 1.86717 1.09918C2.17642 0.790471 2.56121 0.567916 2.98331 0.453628C4.52877 0.0323982 10.7495 0.0323987 10.7495 0.0323987C10.7495 0.0323987 16.9702 0.0323984 18.516 0.453318C18.9381 0.567605 19.3229 0.790161 19.6321 1.09887C19.9414 1.40758 20.1643 1.79169 20.2788 2.21305C20.7002 3.75611 20.7002 6.99496 20.7002 6.99496C20.7002 6.99496 20.6877 10.2211 20.2658 11.7766Z" fill="#9095A5"/>
<path d="M8.75715 4.01114L13.9175 6.99483L8.75684 9.97852L8.75715 4.01114Z" fill="white"/>
</svg>
