<svg width="24" height="24" viewBox="0 0 24 24" fill="none" xmlns="http://www.w3.org/2000/svg">
<path d="M20 5.00027H3V9.00027H4V20.0003H19V9.00027H20V5.00027ZM18 19.0003H5V9.00027H18V19.0003ZM19 8.00027H4V6.00027H19V8.00027ZM9 14.0003H14.016C15.119 14.0003 16.016 13.1033 16.016 12.0003C16.016 10.8973 15.119 10.0003 14.016 10.0003H9C7.897 10.0003 7 10.8973 7 12.0003C7 13.1033 7.897 14.0003 9 14.0003ZM9 11.0003H14.016C14.568 11.0003 15.016 11.4483 15.016 12.0003C15.016 12.5523 14.568 13.0003 14.016 13.0003H9C8.448 13.0003 8 12.5523 8 12.0003C8 11.4483 8.448 11.0003 9 11.0003Z" fill="currentColor"/>
</svg>
