<svg fill="none" height="24" viewBox="0 0 24 24" width="24" xmlns="http://www.w3.org/2000/svg"><path clip-rule="evenodd" d="m9 19h-1.83041c-2.30346 0-3.74757-2.4884-2.60473-4.4884l1.03992-1.8199c.25903-.4533.39527-.9663.39527-1.4884v-3.2033c0-3.31371 2.6863-6 6.00005-6 3.3137 0 6 2.68629 6 6v3.2033c0 .5221.1362 1.0351.3952 1.4884l1.0399 1.8199c1.1429 2-.3012 4.4884-2.6047 4.4884h-1.8305c0 1.6569-1.3431 3-3 3s-3-1.3431-3-3zm3.0001-15c2.2091 0 4 1.79086 4 4v3.2033c0 .8701.227 1.7252.6587 2.4807l1.04 1.8199c.3809.6666-.1005 1.4961-.8683 1.4961h-9.66091c-.76782 0-1.24919-.8295-.86824-1.4961l1.03992-1.8199c.43171-.7555.65878-1.6106.65878-2.4807v-3.2033c0-2.20914 1.79087-4 4.00005-4zm-.0001 16c-.5523 0-1-.4477-1-1h2c0 .5523-.4477 1-1 1z" fill="currentColor" fill-rule="evenodd"/></svg>