<svg width="24" height="24" viewBox="0 0 24 24" fill="none" xmlns="http://www.w3.org/2000/svg">
<path d="M19.592 4.15227C19.539 4.14227 18.271 3.90827 16.611 3.90827C14.506 3.90827 12.783 4.27427 11.486 4.99627C9.968 4.23127 8.222 3.84427 6.29 3.84427C4.609 3.84427 3.424 4.14627 3.375 4.15927L3 4.25727L3.001 18.1633L3.625 18.0023C3.636 18.0003 4.745 17.7193 6.29 17.7193C7.737 17.7193 9.061 17.9593 10.25 18.4223V19.2503H12.75V18.3943C14.031 17.9063 15.497 17.7833 16.61 17.7833C18.172 17.7833 19.396 18.0083 19.408 18.0103L20 18.1203V4.22927L19.592 4.15227ZM4 16.9073V5.04927C4.451 4.96527 5.277 4.84427 6.29 4.84427C8.051 4.84427 9.629 5.20427 11 5.88827V17.6643C9.597 17.0473 8.023 16.7193 6.29 16.7193C5.321 16.7193 4.517 16.8203 4 16.9073ZM19 16.9383C18.464 16.8683 17.607 16.7843 16.61 16.7843C14.762 16.7843 13.229 17.0823 12 17.6393V5.86627C13.422 5.08627 15.271 4.90827 16.61 4.90827C17.633 4.90827 18.512 5.00527 19 5.07227V16.9383Z" fill="currentColor"/>
</svg>
