<svg width="24" height="24" viewBox="0 0 24 24" fill="none" xmlns="http://www.w3.org/2000/svg">
<mask id="path-1-inside-1" fill="white">
<path fill-rule="evenodd" clip-rule="evenodd" d="M12 20.0003C16.4183 20.0003 20 16.4186 20 12.0003C20 7.582 16.4183 4.00027 12 4.00027C7.58172 4.00027 4 7.582 4 12.0003C4 13.2763 4.29875 14.4826 4.83013 15.5529L2 20.0003L7.73683 18.771C8.97098 19.5497 10.4329 20.0003 12 20.0003Z"/>
</mask>
<path d="M4.83013 15.5529L5.67379 16.0898L5.97676 15.6137L5.72583 15.1083L4.83013 15.5529ZM2 20.0003L1.15634 19.4634L-0.126033 21.4786L2.20953 20.9781L2 20.0003ZM7.73683 18.771L8.27046 17.9252L7.9258 17.7078L7.52731 17.7932L7.73683 18.771ZM19 12.0003C19 15.8663 15.866 19.0003 12 19.0003V21.0003C16.9706 21.0003 21 16.9708 21 12.0003H19ZM12 5.00027C15.866 5.00027 19 8.13428 19 12.0003H21C21 7.02971 16.9706 3.00027 12 3.00027V5.00027ZM5 12.0003C5 8.13428 8.13401 5.00027 12 5.00027V3.00027C7.02944 3.00027 3 7.02971 3 12.0003H5ZM5.72583 15.1083C5.26152 14.173 5 13.1186 5 12.0003H3C3 13.434 3.33599 14.7921 3.93444 15.9976L5.72583 15.1083ZM3.98647 15.0161L1.15634 19.4634L2.84366 20.5371L5.67379 16.0898L3.98647 15.0161ZM2.20953 20.9781L7.94636 19.7488L7.52731 17.7932L1.79047 19.0225L2.20953 20.9781ZM12 19.0003C10.6272 19.0003 9.34958 18.6061 8.27046 17.9252L7.20321 19.6167C8.59238 20.4932 10.2385 21.0003 12 21.0003V19.0003Z" fill="currentColor" mask="url(#path-1-inside-1)"/>
</svg>
