<svg width="24" height="24" viewBox="0 0 24 24" fill="none" xmlns="http://www.w3.org/2000/svg">
<path d="M8.958 6.00027V5.00027H6.042V6.00027H3V18.0003H20V6.00027H8.958ZM19 17.0003H4V10.0003H10.557C10.212 10.5913 10 11.2693 10 12.0003C10 14.2063 11.794 16.0003 14 16.0003C16.206 16.0003 18 14.2063 18 12.0003C18 11.2693 17.788 10.5913 17.443 10.0003H19V17.0003ZM17 12.0003C17 13.6543 15.654 15.0003 14 15.0003C12.346 15.0003 11 13.6543 11 12.0003C11 10.3463 12.346 9.00027 14 9.00027C15.654 9.00027 17 10.3463 17 12.0003ZM16.618 9.00027C15.914 8.38627 15.006 8.00027 14 8.00027C12.994 8.00027 12.086 8.38627 11.382 9.00027H4V7.00027H19V9.00027H16.618Z" fill="currentColor" fill-opacity="0.87"/>
</svg>
