<svg width="24" height="24" viewBox="0 0 24 24" fill="none" xmlns="http://www.w3.org/2000/svg">
<path fill-rule="evenodd" clip-rule="evenodd" d="M11.9999 12.7071L6.79276 17.9142C6.5975 18.1095 6.28092 18.1095 6.08566 17.9142C5.89039 17.7189 5.89039 17.4024 6.08566 17.2071L11.2928 12L6.08566 6.79288C5.89039 6.59762 5.89039 6.28104 6.08566 6.08578C6.28092 5.89052 6.5975 5.89052 6.79276 6.08578L11.9999 11.2929L17.207 6.08578C17.4022 5.89052 17.7188 5.89052 17.9141 6.08578C18.1093 6.28104 18.1093 6.59762 17.9141 6.79288L12.707 12L17.9141 17.2071C18.1093 17.4024 18.1093 17.7189 17.9141 17.9142C17.7188 18.1095 17.4022 18.1095 17.207 17.9142L11.9999 12.7071Z" fill="currentColor"/>
</svg>
