<svg width="24" height="24" viewBox="0 0 24 24" fill="none" xmlns="http://www.w3.org/2000/svg">
<path fill-rule="evenodd" clip-rule="evenodd" d="M12.5 3.50027C12.7761 3.50027 13 3.72413 13 4.00027V13.2932L17.1464 9.14672C17.3417 8.95146 17.6583 8.95146 17.8536 9.14672C18.0488 9.34198 18.0488 9.65857 17.8536 9.85383L13.2071 14.5003C12.8166 14.8908 12.1834 14.8908 11.7929 14.5003L7.14645 9.85383C6.95118 9.65857 6.95118 9.34198 7.14645 9.14672C7.34171 8.95146 7.65829 8.95146 7.85355 9.14672L12 13.2932V4.00027C12 3.72413 12.2239 3.50027 12.5 3.50027ZM4.5 12.5003C4.77614 12.5003 5 12.7241 5 13.0003V17.5003C5 18.3287 5.67157 19.0003 6.5 19.0003H18.5C19.3284 19.0003 20 18.3287 20 17.5003V13.0003C20 12.7241 20.2239 12.5003 20.5 12.5003C20.7761 12.5003 21 12.7241 21 13.0003V17.5003C21 18.881 19.8807 20.0003 18.5 20.0003H6.5C5.11929 20.0003 4 18.881 4 17.5003V13.0003C4 12.7241 4.22386 12.5003 4.5 12.5003Z" fill="currentColor" fill-opacity="0.87"/>
</svg>
