<svg width="24" height="25" viewBox="0 0 24 25" fill="none" xmlns="http://www.w3.org/2000/svg">
<mask id="mask0_13744_10851" style="mask-type:alpha" maskUnits="userSpaceOnUse" x="0" y="0" width="24" height="25">
<rect x="0.313477" y="0.8125" width="23.3731" height="23.3731" fill="#D9D9D9"/>
</mask>
<g mask="url(#mask0_13744_10851)">
<path d="M5.94776 20.7769C5.41213 20.7769 4.95375 20.603 4.57264 20.2552C4.19088 19.9067 4 19.4881 4 18.9992V4.77769C4 4.28883 4.19088 3.87018 4.57264 3.52175C4.95375 3.17392 5.41213 3 5.94776 3H13.7388L19.5821 8.33307V18.9992C19.5821 19.4881 19.3915 19.9067 19.0104 20.2552C18.6287 20.603 18.17 20.7769 17.6343 20.7769H5.94776ZM12.7649 9.22192V4.77769H5.94776V18.9992H17.6343V9.22192H12.7649Z" fill="#5078E6"/>
</g>
</svg>
