<svg width="24" height="24" viewBox="0 0 24 24" fill="none" xmlns="http://www.w3.org/2000/svg">
<path d="M11.5 3.00027C6.813 3.00027 3 6.81327 3 11.5003C3 16.1873 6.813 20.0003 11.5 20.0003C16.187 20.0003 20 16.1873 20 11.5003C20 6.81327 16.187 3.00027 11.5 3.00027ZM11.5 19.0003C7.364 19.0003 4 15.6363 4 11.5003C4 7.36427 7.364 4.00027 11.5 4.00027C15.636 4.00027 19 7.36427 19 11.5003C19 15.6363 15.636 19.0003 11.5 19.0003ZM16 12.0003C16 14.4813 13.981 16.5003 11.5 16.5003C9.019 16.5003 7 14.4813 7 12.0003C7 11.7243 7.224 11.5003 7.5 11.5003C7.776 11.5003 8 11.7243 8 12.0003C8 13.9303 9.57 15.5003 11.5 15.5003C13.43 15.5003 15 13.9303 15 12.0003C15 11.7243 15.224 11.5003 15.5 11.5003C15.776 11.5003 16 11.7243 16 12.0003ZM7.5 8.50027C7.5 7.94827 7.948 7.50027 8.5 7.50027C9.052 7.50027 9.5 7.94827 9.5 8.50027C9.5 9.05227 9.052 9.50027 8.5 9.50027C7.948 9.50027 7.5 9.05227 7.5 8.50027ZM13.5 8.50027C13.5 7.94827 13.948 7.50027 14.5 7.50027C15.052 7.50027 15.5 7.94827 15.5 8.50027C15.5 9.05227 15.052 9.50027 14.5 9.50027C13.948 9.50027 13.5 9.05227 13.5 8.50027Z" fill="currentColor"/>
</svg>
