<svg width="24" height="24" viewBox="0 0 24 24" fill="none" xmlns="http://www.w3.org/2000/svg">
<path fill-rule="evenodd" clip-rule="evenodd" d="M12 3.99973C7.58172 3.99973 4 7.58145 4 11.9997C4 16.418 7.58172 19.9997 12 19.9997C16.4183 19.9997 20 16.418 20 11.9997C20 7.58145 16.4183 3.99973 12 3.99973ZM2 11.9997C2 6.47688 6.47715 1.99973 12 1.99973C17.5228 1.99973 22 6.47688 22 11.9997C22 17.5226 17.5228 21.9997 12 21.9997C6.47715 21.9997 2 17.5226 2 11.9997Z" fill="#808080"/>
<path fill-rule="evenodd" clip-rule="evenodd" d="M7.75736 14.8282C8.14788 14.4376 8.78105 14.4376 9.17157 14.8282C10.7337 16.3903 13.2663 16.3903 14.8284 14.8282C15.219 14.4376 15.8521 14.4376 16.2426 14.8282C16.6332 15.2187 16.6332 15.8518 16.2426 16.2424C13.8995 18.5855 10.1005 18.5855 7.75736 16.2424C7.36683 15.8518 7.36683 15.2187 7.75736 14.8282Z" fill="#808080"/>
<path fill-rule="evenodd" clip-rule="evenodd" d="M8.5 11.9997C9.32843 11.9997 10 11.3282 10 10.4997C10 9.6713 9.32843 8.99973 8.5 8.99973C7.67157 8.99973 7 9.6713 7 10.4997C7 11.3282 7.67157 11.9997 8.5 11.9997Z" fill="#808080"/>
<path fill-rule="evenodd" clip-rule="evenodd" d="M15.5 11.9997C16.3284 11.9997 17 11.3282 17 10.4997C17 9.6713 16.3284 8.99973 15.5 8.99973C14.6716 8.99973 14 9.6713 14 10.4997C14 11.3282 14.6716 11.9997 15.5 11.9997Z" fill="#808080"/>
</svg>
