<svg width="24" height="24" viewBox="0 0 24 24" fill="none" xmlns="http://www.w3.org/2000/svg">
    <path fill-rule="evenodd" clip-rule="evenodd" d="M3 6C2.44772 6 2 6.44772 2 7V17C2 17.5523 2.44772 18 3 18H21C21.5523 18 22 17.5523 22 17V7C22 6.44772 21.5523 6 21 6H3ZM4 13.5V10.5C5.38071 10.5 6.5 9.38071 6.5 8H17.5C17.5 9.38071 18.6193 10.5 20 10.5V13.5C18.6193 13.5 17.5 14.6193 17.5 16H6.5C6.5 14.6193 5.38071 13.5 4 13.5ZM12 14C13.1046 14 14 13.1046 14 12C14 10.8954 13.1046 10 12 10C10.8954 10 10 10.8954 10 12C10 13.1046 10.8954 14 12 14Z" fill="currentColor"/>
</svg>
