<svg width="24" height="24" viewBox="0 0 24 24" fill="none" xmlns="http://www.w3.org/2000/svg">
<path d="M11.5 3.00027C6.813 3.00027 3 6.81327 3 11.5003C3 16.1873 6.813 20.0003 11.5 20.0003C16.187 20.0003 20 16.1873 20 11.5003C20 6.81327 16.187 3.00027 11.5 3.00027ZM11.5 19.0003C7.364 19.0003 4 15.6363 4 11.5003C4 7.36427 7.364 4.00027 11.5 4.00027C15.636 4.00027 19 7.36427 19 11.5003C19 15.6363 15.636 19.0003 11.5 19.0003ZM12.658 15.2193C12.658 15.7873 12.196 16.2503 11.627 16.2503C11.056 16.2503 10.594 15.7873 10.594 15.2193C10.594 14.6493 11.056 14.1873 11.627 14.1873C12.196 14.1873 12.658 14.6483 12.658 15.2193ZM13.662 7.21527C14.11 7.78027 14.336 8.54327 14.212 9.07027C13.969 10.0973 13.37 10.6373 12.841 11.1133C12.298 11.6023 11.907 11.9533 11.907 12.7603H10.907C10.907 11.5093 11.578 10.9043 12.171 10.3703C12.632 9.95527 13.067 9.56327 13.237 8.84127C13.271 8.69827 13.198 8.24127 12.877 7.83627C12.57 7.44727 12.149 7.25027 11.629 7.25027C9.85 7.25027 9.76 8.69427 9.756 8.85927L8.756 8.83227C8.78 7.93927 9.411 6.25027 11.629 6.25027C12.447 6.25027 13.168 6.59327 13.662 7.21527Z" fill="currentColor" fill-opacity="0.87"/>
</svg>
