<svg width="24" height="24" viewBox="0 0 24 24" fill="none" xmlns="http://www.w3.org/2000/svg">
<path fill-rule="evenodd" clip-rule="evenodd" d="M7.16049 16.3797C8.08418 17.651 9.4312 18.5511 10.9593 18.9179C12.4873 19.2848 14.0961 19.0944 15.4963 18.3809C16.8965 17.6675 17.9962 16.4779 18.5976 15.026C19.199 13.5741 19.2626 11.9553 18.777 10.4608C18.2914 8.96621 17.2884 7.69396 15.9485 6.87287C14.6086 6.05177 13.0197 5.73571 11.4675 5.98155C9.9154 6.22738 8.50191 7.01897 7.48132 8.21393C6.56942 9.28164 6.02465 10.6088 5.91896 12.0003H9V13.0003H4V8.00029H5V12.0003H5.01668C5.02787 11.8328 5.04466 11.666 5.06695 11.5003C5.25836 10.0775 5.85547 8.73177 6.79695 7.62943C7.95672 6.27152 9.56295 5.37199 11.3267 5.09263C13.0905 4.81327 14.8961 5.17243 16.4187 6.10549C17.9414 7.03855 19.0811 8.48429 19.6329 10.1827C20.1848 11.881 20.1125 13.7206 19.4291 15.3704C18.7457 17.0203 17.4961 18.3721 15.9049 19.1828C14.3138 19.9936 12.4856 20.2099 10.7492 19.7931C9.33954 19.4546 8.0655 18.7169 7.07432 17.6783C6.84483 17.4379 6.63049 17.1813 6.43316 16.9098L6.43237 16.9087L7.16049 16.3797ZM13 8.00025H12V12.7074L15.3464 16.0538L16.0536 15.3467L13 12.2931V8.00025Z" fill="currentColor" fill-opacity="0.87"/>
</svg>
