<svg width="24" height="24" viewBox="0 0 24 24" fill="none" xmlns="http://www.w3.org/2000/svg">
<path fill-rule="evenodd" clip-rule="evenodd" d="M15.9305 5.64273C14.5026 4.98446 12.8947 4.82609 11.3658 5.19314C9.83691 5.5602 8.47612 6.4313 7.50269 7.66608C6.73743 8.63681 6.24662 9.78787 6.0717 10.9997H8.99991C9.5522 10.9997 9.99991 11.4474 9.99991 11.9997C9.99991 12.552 9.5522 12.9997 8.99991 12.9997H3.99991C3.51156 12.9997 3.09464 12.647 3.01373 12.1654L2.01373 6.21265C1.92224 5.668 2.28959 5.1523 2.83425 5.0608C3.3789 4.9693 3.8946 5.33666 3.9861 5.88131L4.51146 9.00871C4.83778 8.08263 5.31568 7.20976 5.93206 6.42789C7.1836 4.84031 8.93319 3.72033 10.8989 3.2484C12.8646 2.77648 14.932 2.98009 16.7679 3.82644C18.6037 4.67279 20.1012 6.11259 21.019 7.91382C21.9367 9.71505 22.2214 11.7728 21.827 13.7555C21.4326 15.7383 20.3822 17.5305 18.8449 18.8434C17.3077 20.1563 15.3733 20.9134 13.3533 20.9928C11.3332 21.0722 9.34533 20.4691 7.70985 19.2809C7.26304 18.9563 7.16399 18.3309 7.48862 17.8841C7.81324 17.4373 8.43861 17.3382 8.88542 17.6629C10.1575 18.587 11.7036 19.0561 13.2747 18.9943C14.8459 18.9326 16.3504 18.3437 17.5461 17.3226C18.7417 16.3014 19.5587 14.9075 19.8654 13.3654C20.1722 11.8232 19.9508 10.2228 19.237 8.8218C18.5231 7.42084 17.3584 6.301 15.9305 5.64273Z" fill="currentColor"/>
<path fill-rule="evenodd" clip-rule="evenodd" d="M12.9999 6.99973C13.5522 6.99973 13.9999 7.44744 13.9999 7.99973V11.5855L16.707 14.2926C17.0975 14.6831 17.0975 15.3163 16.707 15.7068C16.3165 16.0974 15.6833 16.0974 15.2928 15.7068L11.9999 12.4139V7.99973C11.9999 7.44744 12.4476 6.99973 12.9999 6.99973Z" fill="currentColor"/>
</svg>
