<svg width="24" height="24" viewBox="0 0 24 24" fill="none" xmlns="http://www.w3.org/2000/svg">
<path fill-rule="evenodd" clip-rule="evenodd" d="M9.5 15.0003C12.5376 15.0003 15 12.5378 15 9.50027C15 6.46271 12.5376 4.00027 9.5 4.00027C6.46243 4.00027 4 6.46271 4 9.50027C4 12.5378 6.46243 15.0003 9.5 15.0003ZM9.5 16.0003C13.0899 16.0003 16 13.0901 16 9.50027C16 5.91042 13.0899 3.00027 9.5 3.00027C5.91015 3.00027 3 5.91042 3 9.50027C3 13.0901 5.91015 16.0003 9.5 16.0003Z" fill="currentColor" fill-opacity="0.87"/>
<path fill-rule="evenodd" clip-rule="evenodd" d="M9.5 5.00027C9.22386 5.00027 9 5.22413 9 5.50027V6.00027H8C7.44772 6.00027 7 6.44799 7 7.00027V9.00027V10.0003V12.0003C7 12.5526 7.44772 13.0003 8 13.0003H9V13.5003C9 13.7764 9.22386 14.0003 9.5 14.0003C9.77614 14.0003 10 13.7764 10 13.5003V13.0003H10.5C11.6046 13.0003 12.5 12.1048 12.5 11.0003C12.5 10.4029 12.2381 9.86675 11.8229 9.50028C12.2381 9.1338 12.5 8.59762 12.5 8.00027C12.5 6.89571 11.6046 6.00027 10.5 6.00027H10V5.50027C10 5.22413 9.77614 5.00027 9.5 5.00027ZM10.5 9.00027C11.0523 9.00027 11.5 8.55256 11.5 8.00027C11.5 7.44799 11.0523 7.00027 10.5 7.00027H8V9.00027H10.5ZM8 10.0003V12.0003H10.5C11.0523 12.0003 11.5 11.5526 11.5 11.0003C11.5 10.448 11.0523 10.0003 10.5 10.0003H8Z" fill="currentColor" fill-opacity="0.87"/>
<path fill-rule="evenodd" clip-rule="evenodd" d="M12 19.0003H11L11 20.0003H12V19.0003ZM11 18.0003C10.4477 18.0003 10 18.448 10 19.0003V20.0003C10 20.5526 10.4477 21.0003 11 21.0003H12C12.5523 21.0003 13 20.5526 13 20.0003V19.0003C13 18.448 12.5523 18.0003 12 18.0003H11Z" fill="currentColor" fill-opacity="0.87"/>
<path fill-rule="evenodd" clip-rule="evenodd" d="M6.5 20.0003C6.22386 20.0003 6 20.2241 6 20.5003C6 20.7764 6.22386 21.0003 6.5 21.0003H8.5C8.77614 21.0003 9 20.7764 9 20.5003C9 20.2241 8.77614 20.0003 8.5 20.0003H6.5Z" fill="currentColor" fill-opacity="0.87"/>
<path fill-rule="evenodd" clip-rule="evenodd" d="M16 16.0003H15L15 20.0003H16V16.0003ZM15 15.0003C14.4477 15.0003 14 15.448 14 16.0003V20.0003C14 20.5526 14.4477 21.0003 15 21.0003H16C16.5523 21.0003 17 20.5526 17 20.0003V16.0003C17 15.448 16.5523 15.0003 16 15.0003H15Z" fill="currentColor" fill-opacity="0.87"/>
<path fill-rule="evenodd" clip-rule="evenodd" d="M20 10.0003H19L19 20.0003H20V10.0003ZM19 9.00027C18.4477 9.00027 18 9.44799 18 10.0003V20.0003C18 20.5526 18.4477 21.0003 19 21.0003H20C20.5523 21.0003 21 20.5526 21 20.0003V10.0003C21 9.44799 20.5523 9.00027 20 9.00027H19Z" fill="currentColor" fill-opacity="0.87"/>
</svg>
