<svg width="25" height="25" viewBox="0 0 25 25" fill="none" xmlns="http://www.w3.org/2000/svg">
<g clip-path="url(#clip0_4_61)">
<path d="M12.7992 10.448C13.1816 10.448 13.5461 10.5301 13.8774 10.6777C13.9022 10.1227 14.0886 9.60945 14.3875 9.18451C14.177 9.13932 13.9599 9.11536 13.7376 9.11536H11.6316C11.4097 9.11536 11.1926 9.13914 10.9838 9.18378C11.3024 9.63761 11.4927 10.1914 11.4958 10.7911C11.8829 10.5726 12.327 10.448 12.7992 10.448Z" fill="#1C1B1F"/>
<path d="M12.7992 10.448C13.1816 10.448 13.5461 10.5301 13.8774 10.6777C13.9022 10.1227 14.0886 9.60945 14.3875 9.18451C14.177 9.13932 13.9599 9.11536 13.7376 9.11536H11.6316C11.4097 9.11536 11.1926 9.13914 10.9838 9.18378C11.3024 9.63761 11.4927 10.1914 11.4958 10.7911C11.8829 10.5726 12.327 10.448 12.7992 10.448Z" fill="url(#paint0_linear_4_61)"/>
<path d="M12.7399 8.94133C14.1107 8.94133 15.222 7.80034 15.222 6.39286C15.222 4.98547 14.1107 3.84448 12.7399 3.84448C11.3691 3.84448 10.2578 4.98547 10.2578 6.39286C10.2578 7.80034 11.3691 8.94133 12.7399 8.94133Z" fill="#1C1B1F"/>
<path d="M12.7399 8.94133C14.1107 8.94133 15.222 7.80034 15.222 6.39286C15.222 4.98547 14.1107 3.84448 12.7399 3.84448C11.3691 3.84448 10.2578 4.98547 10.2578 6.39286C10.2578 7.80034 11.3691 8.94133 12.7399 8.94133Z" fill="url(#paint1_linear_4_61)"/>
<path d="M16.6074 13.2897C17.8707 13.2897 18.8942 12.2383 18.8942 10.9418C18.8942 9.64478 17.8707 8.59399 16.6074 8.59399C15.3559 8.59399 14.3412 9.6261 14.3223 10.9064C15.0433 11.3706 15.5489 12.1558 15.6411 13.0673C15.9348 13.2086 16.2614 13.2897 16.6074 13.2897Z" fill="#1C1B1F"/>
<path d="M16.6074 13.2897C17.8707 13.2897 18.8942 12.2383 18.8942 10.9418C18.8942 9.64478 17.8707 8.59399 16.6074 8.59399C15.3559 8.59399 14.3412 9.6261 14.3223 10.9064C15.0433 11.3706 15.5489 12.1558 15.6411 13.0673C15.9348 13.2086 16.2614 13.2897 16.6074 13.2897Z" fill="url(#paint2_linear_4_61)"/>
<path d="M8.82918 8.59399C7.56566 8.59399 6.54211 9.64505 6.54211 10.9418C6.54211 12.2386 7.56566 13.2895 8.82918 13.2895C9.27663 13.2895 9.69255 13.1552 10.0454 12.9272C10.1578 12.1768 10.5495 11.5204 11.1093 11.0737C11.1117 11.0298 11.1157 10.9863 11.1157 10.9418C11.1157 9.64505 10.0917 8.59399 8.82918 8.59399Z" fill="#1C1B1F"/>
<path d="M8.82918 8.59399C7.56566 8.59399 6.54211 9.64505 6.54211 10.9418C6.54211 12.2386 7.56566 13.2895 8.82918 13.2895C9.27663 13.2895 9.69255 13.1552 10.0454 12.9272C10.1578 12.1768 10.5495 11.5204 11.1093 11.0737C11.1117 11.0298 11.1157 10.9863 11.1157 10.9418C11.1157 9.64505 10.0917 8.59399 8.82918 8.59399Z" fill="url(#paint3_linear_4_61)"/>
<path d="M18.1233 8.54418C18.8443 9.00848 19.3499 9.79368 19.4419 10.7053C19.7354 10.8465 20.0622 10.9277 20.4082 10.9277C21.6714 10.9277 22.695 9.87668 22.695 8.5799C22.695 7.28311 21.6714 6.23206 20.4082 6.23206C19.1569 6.23178 18.1422 7.26416 18.1233 8.54418Z" fill="#1C1B1F"/>
<path d="M18.1233 8.54418C18.8443 9.00848 19.3499 9.79368 19.4419 10.7053C19.7354 10.8465 20.0622 10.9277 20.4082 10.9277C21.6714 10.9277 22.695 9.87668 22.695 8.5799C22.695 7.28311 21.6714 6.23206 20.4082 6.23206C19.1569 6.23178 18.1422 7.26416 18.1233 8.54418Z" fill="url(#paint4_linear_4_61)"/>
<path d="M12.8154 15.7138C14.0785 15.7138 15.1024 14.6626 15.1024 13.3657C15.1024 12.0689 14.0785 11.0176 12.8154 11.0176C11.5523 11.0176 10.5283 12.0689 10.5283 13.3657C10.5283 14.6626 11.5523 15.7138 12.8154 15.7138Z" fill="#1C1B1F"/>
<path d="M12.8154 15.7138C14.0785 15.7138 15.1024 14.6626 15.1024 13.3657C15.1024 12.0689 14.0785 11.0176 12.8154 11.0176C11.5523 11.0176 10.5283 12.0689 10.5283 13.3657C10.5283 14.6626 11.5523 15.7138 12.8154 15.7138Z" fill="url(#paint5_linear_4_61)"/>
<path d="M17.5738 13.4493H15.6479C15.6268 14.2404 15.2981 14.9528 14.7778 15.4648C16.2128 15.9033 17.2631 17.2697 17.2631 18.8838V19.6346C19.1644 19.5625 20.2602 19.0099 20.3323 18.972L20.4851 18.8924H20.501V16.4556C20.5014 14.7979 19.188 13.4493 17.5738 13.4493Z" fill="#1C1B1F"/>
<path d="M17.5738 13.4493H15.6479C15.6268 14.2404 15.2981 14.9528 14.7778 15.4648C16.2128 15.9033 17.2631 17.2697 17.2631 18.8838V19.6346C19.1644 19.5625 20.2602 19.0099 20.3323 18.972L20.4851 18.8924H20.501V16.4556C20.5014 14.7979 19.188 13.4493 17.5738 13.4493Z" fill="url(#paint6_linear_4_61)"/>
<path d="M21.3741 11.087H19.4486C19.4278 11.8781 19.0988 12.5905 18.5789 13.1025C20.0139 13.541 21.0638 14.9072 21.0638 16.5214V17.2721C22.9649 17.2002 24.061 16.6476 24.1331 16.6095L24.2859 16.5301H24.3022V14.0933C24.3022 12.4358 22.9887 11.087 21.3741 11.087Z" fill="#1C1B1F"/>
<path d="M21.3741 11.087H19.4486C19.4278 11.8781 19.0988 12.5905 18.5789 13.1025C20.0139 13.541 21.0638 14.9072 21.0638 16.5214V17.2721C22.9649 17.2002 24.061 16.6476 24.1331 16.6095L24.2859 16.5301H24.3022V14.0933C24.3022 12.4358 22.9887 11.087 21.3741 11.087Z" fill="url(#paint7_linear_4_61)"/>
<path d="M10.8575 15.4648C10.3398 14.9551 10.0121 14.2467 9.98794 13.4607C9.91678 13.4554 9.84608 13.4493 9.77328 13.4493H7.83334C6.21867 13.4493 4.90503 14.7981 4.90503 16.4559V18.8929L4.91095 18.9305L5.07431 18.9834C6.31042 19.3799 7.41387 19.562 8.37181 19.6198V18.8838C8.37235 17.27 9.42205 15.9035 10.8575 15.4648Z" fill="#1C1B1F"/>
<path d="M10.8575 15.4648C10.3398 14.9551 10.0121 14.2467 9.98794 13.4607C9.91678 13.4554 9.84608 13.4493 9.77328 13.4493H7.83334C6.21867 13.4493 4.90503 14.7981 4.90503 16.4559V18.8929L4.91095 18.9305L5.07431 18.9834C6.31042 19.3799 7.41387 19.562 8.37181 19.6198V18.8838C8.37235 17.27 9.42205 15.9035 10.8575 15.4648Z" fill="url(#paint8_linear_4_61)"/>
<path d="M13.7601 15.8735H11.8195C10.2049 15.8735 8.89124 17.2228 8.89124 18.8799V21.3169L8.89734 21.355L9.06052 21.4074C10.6015 21.9015 11.9402 22.0666 13.0417 22.0666C15.1939 22.0666 16.4412 21.4366 16.5182 21.3965L16.671 21.3169H16.6871V18.8799C16.6878 17.2223 15.3743 15.8735 13.7601 15.8735Z" fill="#1C1B1F"/>
<path d="M13.7601 15.8735H11.8195C10.2049 15.8735 8.89124 17.2228 8.89124 18.8799V21.3169L8.89734 21.355L9.06052 21.4074C10.6015 21.9015 11.9402 22.0666 13.0417 22.0666C15.1939 22.0666 16.4412 21.4366 16.5182 21.3965L16.671 21.3169H16.6871V18.8799C16.6878 17.2223 15.3743 15.8735 13.7601 15.8735Z" fill="url(#paint9_linear_4_61)"/>
<path d="M5.03527 11.0015C5.38131 11.0015 5.70785 10.9201 6.0016 10.7791C6.0938 9.86735 6.59919 9.08188 7.32016 8.61767C7.3013 7.33792 6.2865 6.30554 5.03527 6.30554C3.77174 6.30554 2.74829 7.3566 2.74829 8.65366C2.74829 9.95044 3.77174 11.0015 5.03527 11.0015Z" fill="#1C1B1F"/>
<path d="M5.03527 11.0015C5.38131 11.0015 5.70785 10.9201 6.0016 10.7791C6.0938 9.86735 6.59919 9.08188 7.32016 8.61767C7.3013 7.33792 6.2865 6.30554 5.03527 6.30554C3.77174 6.30554 2.74829 7.3566 2.74829 8.65366C2.74829 9.95044 3.77174 11.0015 5.03527 11.0015Z" fill="url(#paint10_linear_4_61)"/>
<path d="M6.83441 13.1782C6.31462 12.6661 5.98571 11.9535 5.96494 11.1622H4.03921C2.42454 11.1625 1.11108 12.5112 1.11108 14.1688V16.6058H1.12739L1.28019 16.6852C1.35253 16.7226 2.44814 17.2759 4.34945 17.3476V16.5968C4.34945 14.983 5.39923 13.6165 6.83441 13.1782Z" fill="#1C1B1F"/>
<path d="M6.83441 13.1782C6.31462 12.6661 5.98571 11.9535 5.96494 11.1622H4.03921C2.42454 11.1625 1.11108 12.5112 1.11108 14.1688V16.6058H1.12739L1.28019 16.6852C1.35253 16.7226 2.44814 17.2759 4.34945 17.3476V16.5968C4.34945 14.983 5.39923 13.6165 6.83441 13.1782Z" fill="url(#paint11_linear_4_61)"/>
<path d="M7.70577 8.36147C7.98002 8.2474 8.39858 8.10727 8.79829 8.10727C9.26341 8.10727 9.71842 8.23018 10.1242 8.46397C10.2146 8.37295 10.2973 8.27382 10.3725 8.16777C9.98711 7.64789 9.77664 7.01084 9.77664 6.35547C9.77664 5.91413 9.87258 5.47607 10.0556 5.07819C9.63897 4.6916 9.10734 4.48059 8.54245 4.48059C7.51417 4.48059 6.61909 5.19518 6.35706 6.20159C7.12512 6.66042 7.6256 7.46266 7.70577 8.36147Z" fill="#1C1B1F"/>
<path d="M7.70577 8.36147C7.98002 8.2474 8.39858 8.10727 8.79829 8.10727C9.26341 8.10727 9.71842 8.23018 10.1242 8.46397C10.2146 8.37295 10.2973 8.27382 10.3725 8.16777C9.98711 7.64789 9.77664 7.01084 9.77664 6.35547C9.77664 5.91413 9.87258 5.47607 10.0556 5.07819C9.63897 4.6916 9.10734 4.48059 8.54245 4.48059C7.51417 4.48059 6.61909 5.19518 6.35706 6.20159C7.12512 6.66042 7.6256 7.46266 7.70577 8.36147Z" fill="url(#paint12_linear_4_61)"/>
<path d="M15.0483 8.03547C15.1278 8.16512 15.2207 8.28721 15.3262 8.40092C15.7017 8.20858 16.1146 8.10754 16.5304 8.10754C16.9393 8.10754 17.3311 8.21487 17.5879 8.3047C17.6683 7.33036 18.2422 6.47036 19.1014 6.03458C18.7864 5.11071 17.9336 4.48022 16.9681 4.48022C16.3438 4.48022 15.7525 4.74335 15.3257 5.20665C15.4757 5.57374 15.5515 5.9596 15.5515 6.35511C15.5513 6.96082 15.3777 7.53819 15.0483 8.03547Z" fill="#1C1B1F"/>
<path d="M15.0483 8.03547C15.1278 8.16512 15.2207 8.28721 15.3262 8.40092C15.7017 8.20858 16.1146 8.10754 16.5304 8.10754C16.9393 8.10754 17.3311 8.21487 17.5879 8.3047C17.6683 7.33036 18.2422 6.47036 19.1014 6.03458C18.7864 5.11071 17.9336 4.48022 16.9681 4.48022C16.3438 4.48022 15.7525 4.74335 15.3257 5.20665C15.4757 5.57374 15.5515 5.9596 15.5515 6.35511C15.5513 6.96082 15.3777 7.53819 15.0483 8.03547Z" fill="url(#paint13_linear_4_61)"/>
</g>
<defs>
<linearGradient id="paint0_linear_4_61" x1="13.7125" y1="10.5221" x2="13.7125" y2="9.56098" gradientUnits="userSpaceOnUse">
<stop stop-color="#FABE4C"/>
<stop offset="1" stop-color="#FA9751"/>
</linearGradient>
<linearGradient id="paint1_linear_4_61" x1="14.2376" y1="8.12315" x2="14.2376" y2="5.19994" gradientUnits="userSpaceOnUse">
<stop stop-color="#FABE4C"/>
<stop offset="1" stop-color="#FA9751"/>
</linearGradient>
<linearGradient id="paint2_linear_4_61" x1="17.9876" y1="12.5359" x2="17.9876" y2="9.84276" gradientUnits="userSpaceOnUse">
<stop stop-color="#FABE4C"/>
<stop offset="1" stop-color="#FA9751"/>
</linearGradient>
<linearGradient id="paint3_linear_4_61" x1="10.2088" y1="12.5357" x2="10.2088" y2="9.84276" gradientUnits="userSpaceOnUse">
<stop stop-color="#FABE4C"/>
<stop offset="1" stop-color="#FA9751"/>
</linearGradient>
<linearGradient id="paint4_linear_4_61" x1="21.7884" y1="10.174" x2="21.7884" y2="7.48082" gradientUnits="userSpaceOnUse">
<stop stop-color="#FABE4C"/>
<stop offset="1" stop-color="#FA9751"/>
</linearGradient>
<linearGradient id="paint5_linear_4_61" x1="14.1954" y1="14.96" x2="14.1954" y2="12.2665" gradientUnits="userSpaceOnUse">
<stop stop-color="#FABE4C"/>
<stop offset="1" stop-color="#FA9751"/>
</linearGradient>
<linearGradient id="paint6_linear_4_61" x1="19.366" y1="18.6418" x2="19.366" y2="15.0943" gradientUnits="userSpaceOnUse">
<stop stop-color="#FABE4C"/>
<stop offset="1" stop-color="#FA9751"/>
</linearGradient>
<linearGradient id="paint7_linear_4_61" x1="23.1672" y1="16.2793" x2="23.1672" y2="12.732" gradientUnits="userSpaceOnUse">
<stop stop-color="#FABE4C"/>
<stop offset="1" stop-color="#FA9751"/>
</linearGradient>
<linearGradient id="paint8_linear_4_61" x1="9.67716" y1="18.6293" x2="9.67716" y2="15.0903" gradientUnits="userSpaceOnUse">
<stop stop-color="#FABE4C"/>
<stop offset="1" stop-color="#FA9751"/>
</linearGradient>
<linearGradient id="paint9_linear_4_61" x1="15.1412" y1="21.0725" x2="15.1412" y2="17.5206" gradientUnits="userSpaceOnUse">
<stop stop-color="#FABE4C"/>
<stop offset="1" stop-color="#FA9751"/>
</linearGradient>
<linearGradient id="paint10_linear_4_61" x1="6.4136" y1="10.2476" x2="6.4136" y2="7.5544" gradientUnits="userSpaceOnUse">
<stop stop-color="#FABE4C"/>
<stop offset="1" stop-color="#FA9751"/>
</linearGradient>
<linearGradient id="paint11_linear_4_61" x1="5.69953" y1="16.3547" x2="5.69953" y2="12.8072" gradientUnits="userSpaceOnUse">
<stop stop-color="#FABE4C"/>
<stop offset="1" stop-color="#FA9751"/>
</linearGradient>
<linearGradient id="paint12_linear_4_61" x1="9.57629" y1="7.82455" x2="9.57629" y2="5.53994" gradientUnits="userSpaceOnUse">
<stop stop-color="#FABE4C"/>
<stop offset="1" stop-color="#FA9751"/>
</linearGradient>
<linearGradient id="paint13_linear_4_61" x1="18.2976" y1="7.77152" x2="18.2976" y2="5.5229" gradientUnits="userSpaceOnUse">
<stop stop-color="#FABE4C"/>
<stop offset="1" stop-color="#FA9751"/>
</linearGradient>
<clipPath id="clip0_4_61">
<rect width="24" height="24" fill="white" transform="translate(0.785767 0.785767)"/>
</clipPath>
</defs>
</svg>
