<svg width="24" height="24" viewBox="0 0 24 24" fill="none" xmlns="http://www.w3.org/2000/svg">
<path d="M8.10532 1H3.42707C2.0867 1 1 2.0868 1 3.42729V8.10597C1 9.44656 2.0867 10.5333 3.42707 10.5333H8.10532C9.44579 10.5333 10.5324 9.44656 10.5324 8.10597V3.42729C10.5324 2.0868 9.44579 1 8.10532 1Z" fill="#1C1B1F"/>
<path d="M8.10532 1H3.42707C2.0867 1 1 2.0868 1 3.42729V8.10597C1 9.44656 2.0867 10.5333 3.42707 10.5333H8.10532C9.44579 10.5333 10.5324 9.44656 10.5324 8.10597V3.42729C10.5324 2.0868 9.44579 1 8.10532 1Z" fill="url(#paint0_linear_4_60)"/>
<path d="M20.5728 1H15.8946C14.5541 1 13.4675 2.0868 13.4675 3.42729V8.10597C13.4675 9.44656 14.5541 10.5333 15.8946 10.5333H20.5728C21.9132 10.5333 22.9999 9.44656 22.9999 8.10597V3.42729C22.9999 2.0868 21.9132 1 20.5728 1Z" fill="#1C1B1F"/>
<path d="M20.5728 1H15.8946C14.5541 1 13.4675 2.0868 13.4675 3.42729V8.10597C13.4675 9.44656 14.5541 10.5333 15.8946 10.5333H20.5728C21.9132 10.5333 22.9999 9.44656 22.9999 8.10597V3.42729C22.9999 2.0868 21.9132 1 20.5728 1Z" fill="url(#paint1_linear_4_60)"/>
<path d="M8.10532 13.4668H3.42707C2.0867 13.4668 1 14.5535 1 15.8941V20.5728C1 21.9134 2.0867 23.0001 3.42707 23.0001H8.10532C9.44579 23.0001 10.5324 21.9134 10.5324 20.5728V15.8941C10.5324 14.5535 9.44579 13.4668 8.10532 13.4668Z" fill="#1C1B1F"/>
<path d="M8.10532 13.4668H3.42707C2.0867 13.4668 1 14.5535 1 15.8941V20.5728C1 21.9134 2.0867 23.0001 3.42707 23.0001H8.10532C9.44579 23.0001 10.5324 21.9134 10.5324 20.5728V15.8941C10.5324 14.5535 9.44579 13.4668 8.10532 13.4668Z" fill="url(#paint2_linear_4_60)"/>
<path d="M18.2337 23.0001C20.866 23.0001 22.9999 20.866 22.9999 18.2335C22.9999 15.6009 20.866 13.4668 18.2337 13.4668C15.6014 13.4668 13.4675 15.6009 13.4675 18.2335C13.4675 20.866 15.6014 23.0001 18.2337 23.0001Z" fill="#1C1B1F"/>
<path d="M18.2337 23.0001C20.866 23.0001 22.9999 20.866 22.9999 18.2335C22.9999 15.6009 20.866 13.4668 18.2337 13.4668C15.6014 13.4668 13.4675 15.6009 13.4675 18.2335C13.4675 20.866 15.6014 23.0001 18.2337 23.0001Z" fill="url(#paint3_linear_4_60)"/>
<defs>
<linearGradient id="paint0_linear_4_60" x1="8.64207" y1="9.00296" x2="8.64207" y2="3.53529" gradientUnits="userSpaceOnUse">
<stop stop-color="#FABE4C"/>
<stop offset="1" stop-color="#FA9751"/>
</linearGradient>
<linearGradient id="paint1_linear_4_60" x1="21.1096" y1="9.00296" x2="21.1096" y2="3.53529" gradientUnits="userSpaceOnUse">
<stop stop-color="#FABE4C"/>
<stop offset="1" stop-color="#FA9751"/>
</linearGradient>
<linearGradient id="paint2_linear_4_60" x1="8.64207" y1="21.4698" x2="8.64207" y2="16.0021" gradientUnits="userSpaceOnUse">
<stop stop-color="#FABE4C"/>
<stop offset="1" stop-color="#FA9751"/>
</linearGradient>
<linearGradient id="paint3_linear_4_60" x1="21.1096" y1="21.4698" x2="21.1096" y2="16.0021" gradientUnits="userSpaceOnUse">
<stop stop-color="#FABE4C"/>
<stop offset="1" stop-color="#FA9751"/>
</linearGradient>
</defs>
</svg>
