<svg width="24" height="24" viewBox="0 0 24 24" fill="none" xmlns="http://www.w3.org/2000/svg">
<path fill-rule="evenodd" clip-rule="evenodd" d="M6.12215 3.90956C7.83062 2.66827 9.88821 1.99973 12 1.99973C12.5523 1.99973 13 2.44744 13 2.99973C13 3.55201 12.5523 3.99973 12 3.99973C10.3106 3.99973 8.6645 4.53456 7.29772 5.52759C5.93094 6.52061 4.91361 7.92084 4.39155 9.52759C3.86948 11.1343 3.86948 12.8651 4.39155 14.4719C4.91361 16.0786 5.93094 17.4788 7.29772 18.4719C8.6645 19.4649 10.3106 19.9997 12 19.9997C13.6894 19.9997 15.3355 19.4649 16.7023 18.4719C18.0691 17.4788 19.0864 16.0786 19.6085 14.4719C20.1305 12.8651 20.1305 11.1343 19.6085 9.52759C19.4378 9.00233 19.7252 8.43818 20.2505 8.26751C20.7757 8.09685 21.3399 8.3843 21.5106 8.90955C22.1631 10.918 22.1631 13.0815 21.5106 15.0899C20.858 17.0983 19.5863 18.8486 17.8779 20.0899C16.1694 21.3312 14.1118 21.9997 12 21.9997C9.88821 21.9997 7.83062 21.3312 6.12215 20.0899C4.41367 18.8486 3.14201 17.0983 2.48943 15.0899C1.83686 13.0815 1.83686 10.918 2.48943 8.90956C3.14201 6.90112 4.41367 5.15084 6.12215 3.90956Z" fill="#808080"/>
</svg>
