<svg width="24" height="24" viewBox="0 0 24 24" fill="none" xmlns="http://www.w3.org/2000/svg">
<mask id="path-1-inside-1" fill="white">
<path fill-rule="evenodd" clip-rule="evenodd" d="M12 4.96027C13.5813 4.96027 15.1166 5.49266 16.3584 6.47164C17.6003 7.45063 18.4763 8.8192 18.8455 10.3568C19.2146 11.8944 19.0554 13.5116 18.3933 14.9476C17.7313 16.3837 16.6051 17.5551 15.1961 18.273C13.7871 18.9909 12.1775 19.2135 10.6266 18.905C9.07562 18.5965 7.67372 17.7748 6.64674 16.5724C5.61976 15.3699 5.02751 13.8567 4.96543 12.2767C4.90336 10.6968 5.37489 9.14211 6.30405 7.86292C6.30421 7.8627 6.30437 7.86248 6.30453 7.86225L5.52788 7.29798C5.52767 7.29826 5.52746 7.29855 5.52726 7.29884C5.33014 7.57022 5.15115 7.85251 4.99084 8.14387C4.29251 9.4131 3.94881 10.8543 4.00617 12.3143C4.07671 14.1099 4.74972 15.8294 5.91675 17.1958C7.08377 18.5623 8.67685 19.496 10.4393 19.8466C12.2017 20.1971 14.0308 19.9441 15.6319 19.1283C17.233 18.3125 18.5128 16.9814 19.2651 15.3496C20.0175 13.7177 20.1985 11.88 19.779 10.1327C19.3595 8.38541 18.3639 6.83022 16.9528 5.71774C15.8053 4.81313 14.4373 4.24408 13 4.06301C12.6697 4.0214 12.3358 4.00027 12 4.00027V4.96027Z"/>
</mask>
<path fill-rule="evenodd" clip-rule="evenodd" d="M12 4.96027C13.5813 4.96027 15.1166 5.49266 16.3584 6.47164C17.6003 7.45063 18.4763 8.8192 18.8455 10.3568C19.2146 11.8944 19.0554 13.5116 18.3933 14.9476C17.7313 16.3837 16.6051 17.5551 15.1961 18.273C13.7871 18.9909 12.1775 19.2135 10.6266 18.905C9.07562 18.5965 7.67372 17.7748 6.64674 16.5724C5.61976 15.3699 5.02751 13.8567 4.96543 12.2767C4.90336 10.6968 5.37489 9.14211 6.30405 7.86292C6.30421 7.8627 6.30437 7.86248 6.30453 7.86225L5.52788 7.29798C5.52767 7.29826 5.52746 7.29855 5.52726 7.29884C5.33014 7.57022 5.15115 7.85251 4.99084 8.14387C4.29251 9.4131 3.94881 10.8543 4.00617 12.3143C4.07671 14.1099 4.74972 15.8294 5.91675 17.1958C7.08377 18.5623 8.67685 19.496 10.4393 19.8466C12.2017 20.1971 14.0308 19.9441 15.6319 19.1283C17.233 18.3125 18.5128 16.9814 19.2651 15.3496C20.0175 13.7177 20.1985 11.88 19.779 10.1327C19.3595 8.38541 18.3639 6.83022 16.9528 5.71774C15.8053 4.81313 14.4373 4.24408 13 4.06301C12.6697 4.0214 12.3358 4.00027 12 4.00027V4.96027Z" fill="currentColor" fill-opacity="0.87"/>
<path d="M16.3584 6.47164L16.9775 5.68633V5.68633L16.3584 6.47164ZM12 4.96027H11V5.96027H12V4.96027ZM18.8455 10.3568L17.8731 10.5903V10.5903L18.8455 10.3568ZM18.3933 14.9476L19.3015 15.3663V15.3663L18.3933 14.9476ZM15.1961 18.273L15.6501 19.164H15.6501L15.1961 18.273ZM10.6266 18.905L10.8216 17.9242H10.8216L10.6266 18.905ZM4.96543 12.2767L5.96466 12.2374L4.96543 12.2767ZM6.30405 7.86292L5.49509 7.27506L5.49496 7.27523L6.30405 7.86292ZM6.30453 7.86225L7.11349 8.45012L7.70141 7.64108L6.89232 7.05324L6.30453 7.86225ZM5.52788 7.29798L6.11566 6.48896L5.30647 5.90105L4.71873 6.71037L5.52788 7.29798ZM5.52726 7.29884L6.33635 7.88652L6.3364 7.88644L5.52726 7.29884ZM4.99084 8.14387L5.86698 8.62592L4.99084 8.14387ZM4.00617 12.3143L3.00694 12.3536L4.00617 12.3143ZM10.4393 19.8466L10.2442 20.8273H10.2442L10.4393 19.8466ZM15.6319 19.1283L16.0859 20.0193H16.0859L15.6319 19.1283ZM19.2651 15.3496L18.357 14.9309V14.9309L19.2651 15.3496ZM19.779 10.1327L18.8066 10.3662V10.3662L19.779 10.1327ZM16.9528 5.71774L17.5718 4.93242L16.9528 5.71774ZM13 4.06301L12.875 5.05517L13 4.06301ZM12 4.00027V3.00027H11V4.00027H12ZM16.9775 5.68633C15.5593 4.56828 13.8059 3.96027 12 3.96027V5.96027C13.3567 5.96027 14.6739 6.41704 15.7393 7.25696L16.9775 5.68633ZM19.8179 10.1234C19.3963 8.36734 18.3958 6.80437 16.9775 5.68633L15.7393 7.25696C16.8048 8.09689 17.5564 9.27105 17.8731 10.5903L19.8179 10.1234ZM19.3015 15.3663C20.0575 13.7263 20.2394 11.8794 19.8179 10.1234L17.8731 10.5903C18.1898 11.9095 18.0532 13.2969 17.4852 14.529L19.3015 15.3663ZM15.6501 19.164C17.2592 18.3441 18.5454 17.0064 19.3015 15.3663L17.4852 14.529C16.9172 15.7611 15.9509 16.766 14.7421 17.382L15.6501 19.164ZM10.4315 19.8858C12.2027 20.2381 14.041 19.9838 15.6501 19.164L14.7421 17.382C13.5333 17.9979 12.1523 18.1889 10.8216 17.9242L10.4315 19.8858ZM5.88633 17.2218C7.05919 18.5951 8.66023 19.5335 10.4315 19.8858L10.8216 17.9242C9.49102 17.6595 8.28825 16.9546 7.40714 15.9229L5.88633 17.2218ZM3.9662 12.3159C4.0371 14.1205 4.71347 15.8486 5.88633 17.2218L7.40714 15.9229C6.52604 14.8913 6.01792 13.593 5.96466 12.2374L3.9662 12.3159ZM5.49496 7.27523C4.43382 8.73612 3.89532 10.5117 3.9662 12.3159L5.96466 12.2374C5.91141 10.882 6.31596 9.5481 7.11313 8.45061L5.49496 7.27523ZM5.49557 7.27439C5.49546 7.27455 5.49535 7.2747 5.49527 7.2748C5.49519 7.27492 5.49514 7.27499 5.49509 7.27506L7.11301 8.45078C7.11312 8.45063 7.11323 8.45048 7.11331 8.45037C7.11339 8.45025 7.11345 8.45018 7.11349 8.45012L5.49557 7.27439ZM6.89232 7.05324L6.11566 6.48896L4.94009 8.10699L5.71675 8.67127L6.89232 7.05324ZM6.3364 7.88644C6.33644 7.8864 6.33648 7.88633 6.33659 7.88618C6.33669 7.88605 6.33685 7.88582 6.33702 7.88559L4.71873 6.71037C4.7187 6.71042 4.71865 6.71048 4.71854 6.71064C4.71844 6.71077 4.71828 6.71099 4.71811 6.71123L6.3364 7.88644ZM5.86698 8.62592C6.00724 8.371 6.16386 8.12399 6.33635 7.88652L4.71816 6.71115C4.49642 7.01644 4.29505 7.33402 4.1147 7.66181L5.86698 8.62592ZM5.0054 12.2751C4.95521 10.9975 5.25594 9.7365 5.86698 8.62592L4.1147 7.66181C3.32908 9.08969 2.94241 10.711 3.00694 12.3536L5.0054 12.2751ZM6.67715 16.5464C5.65601 15.3508 5.06713 13.8462 5.0054 12.2751L3.00694 12.3536C3.0863 14.3736 3.84344 16.3081 5.15634 17.8453L6.67715 16.5464ZM10.6344 18.8658C9.09224 18.559 7.6983 17.742 6.67715 16.5464L5.15634 17.8453C6.46924 19.3825 8.26145 20.4329 10.2442 20.8273L10.6344 18.8658ZM15.1779 18.2373C13.777 18.9511 12.1765 19.1725 10.6344 18.8658L10.2442 20.8273C12.2269 21.2217 14.2847 20.9371 16.0859 20.0193L15.1779 18.2373ZM18.357 14.9309C17.6987 16.3588 16.5789 17.5235 15.1779 18.2373L16.0859 20.0193C17.8871 19.1016 19.3269 17.6041 20.1733 15.7682L18.357 14.9309ZM18.8066 10.3662C19.1736 11.8951 19.0153 13.503 18.357 14.9309L20.1733 15.7682C21.0196 13.9323 21.2233 11.865 20.7513 9.89927L18.8066 10.3662ZM16.3337 6.50306C17.5684 7.47648 18.4395 8.83727 18.8066 10.3662L20.7513 9.89927C20.2794 7.93356 19.1594 6.18397 17.5718 4.93242L16.3337 6.50306ZM12.875 5.05517C14.1326 5.21361 15.3296 5.71154 16.3337 6.50306L17.5718 4.93242C16.2809 3.91473 14.742 3.27456 13.125 3.07085L12.875 5.05517ZM12 5.00027C12.2938 5.00027 12.586 5.01876 12.875 5.05517L13.125 3.07085C12.7534 3.02404 12.3777 3.00027 12 3.00027V5.00027ZM13 4.96027V4.00027H11V4.96027H13Z" fill="currentColor" fill-opacity="0.87" mask="url(#path-1-inside-1)"/>
</svg>
