<svg width="24" height="24" viewBox="0 0 24 24" fill="none" xmlns="http://www.w3.org/2000/svg">
<path d="M4 12.0003C4 14.2063 5.711 16.0003 7.813 16.0003V17.0003C5.159 17.0003 3 14.7573 3 12.0003C3 9.24328 5.159 7.00028 7.813 7.00028H12.042L10.396 5.35428L11.103 4.64728L13.957 7.50028L11.104 10.3543L10.396 9.64628L12.043 8.00028H7.813C5.711 8.00028 4 9.79428 4 12.0003ZM15.187 7.00028V8.00028C17.289 8.00028 19 9.79428 19 12.0003C19 14.2063 17.289 16.0003 15.187 16.0003H10.957L12.603 14.3543L11.896 13.6473L9.043 16.5003L11.897 19.3543L12.604 18.6473L10.957 17.0003H15.186C17.841 17.0003 20 14.7573 20 12.0003C20 9.24328 17.841 7.00028 15.187 7.00028Z" fill="currentColor" fill-opacity="0.87"/>
</svg>
