<svg width="24" height="24" viewBox="0 0 24 24" fill="none" xmlns="http://www.w3.org/2000/svg">
<path fill-rule="evenodd" clip-rule="evenodd" d="M21 9C21.5523 9 22 9.44772 22 10V12C22 15.866 18.866 19 15 19H10.4142L11.7071 20.2929C12.0976 20.6834 12.0976 21.3166 11.7071 21.7071C11.3166 22.0976 10.6834 22.0976 10.2929 21.7071L7.64645 19.0607C7.06066 18.4749 7.06066 17.5251 7.64645 16.9393L10.2929 14.2929C10.6834 13.9024 11.3166 13.9024 11.7071 14.2929C12.0976 14.6834 12.0976 15.3166 11.7071 15.7071L10.4142 17H15C17.7614 17 20 14.7614 20 12V10C20 9.44772 20.4477 9 21 9Z" fill="currentColor"/>
<path fill-rule="evenodd" clip-rule="evenodd" d="M3 15C2.44771 15 2 14.5523 2 14V12C2 8.13401 5.13401 5 9 5H13.5858L12.2929 3.70711C11.9024 3.31658 11.9024 2.68342 12.2929 2.29289C12.6834 1.90237 13.3166 1.90237 13.7071 2.29289L16.3536 4.93934C16.9393 5.52513 16.9393 6.47487 16.3536 7.06066L13.7071 9.70711C13.3166 10.0976 12.6834 10.0976 12.2929 9.70711C11.9024 9.31658 11.9024 8.68342 12.2929 8.29289L13.5858 7H9C6.23858 7 4 9.23858 4 12V14C4 14.5523 3.55229 15 3 15Z" fill="currentColor"/>
</svg>
