<svg width="24" height="24" viewBox="0 0 24 24" fill="none" xmlns="http://www.w3.org/2000/svg">
<mask id="mask0_13744_10474" style="mask-type:alpha" maskUnits="userSpaceOnUse" x="0" y="0" width="24" height="24">
<rect width="24" height="24" fill="#D9D9D9"/>
</mask>
<g mask="url(#mask0_13744_10474)">
<path d="M11.1 19H12.85V17.75C13.6833 17.6 14.4 17.275 15 16.775C15.6 16.275 15.9 15.5333 15.9 14.55C15.9 13.85 15.7 13.2083 15.3 12.625C14.9 12.0417 14.1 11.5333 12.9 11.1C11.9 10.7667 11.2083 10.475 10.825 10.225C10.4417 9.975 10.25 9.63333 10.25 9.2C10.25 8.76667 10.4043 8.425 10.713 8.175C11.021 7.925 11.4667 7.8 12.05 7.8C12.5833 7.8 13 7.92933 13.3 8.188C13.6 8.446 13.8167 8.76667 13.95 9.15L15.55 8.5C15.3667 7.91667 15.0293 7.40833 14.538 6.975C14.046 6.54167 13.5 6.3 12.9 6.25V5H11.15V6.25C10.3167 6.43333 9.66667 6.8 9.2 7.35C8.73333 7.9 8.5 8.51667 8.5 9.2C8.5 9.98333 8.72933 10.6167 9.188 11.1C9.646 11.5833 10.3667 12 11.35 12.35C12.4 12.7333 13.1293 13.075 13.538 13.375C13.946 13.675 14.15 14.0667 14.15 14.55C14.15 15.1 13.954 15.504 13.562 15.762C13.1707 16.0207 12.7 16.15 12.15 16.15C11.6 16.15 11.1127 15.979 10.688 15.637C10.2627 15.2957 9.95 14.7833 9.75 14.1L8.1 14.75C8.33333 15.55 8.696 16.196 9.188 16.688C9.67933 17.1793 10.3167 17.5167 11.1 17.7V19ZM12 22C10.6167 22 9.31667 21.7373 8.1 21.212C6.88333 20.6873 5.825 19.975 4.925 19.075C4.025 18.175 3.31267 17.1167 2.788 15.9C2.26267 14.6833 2 13.3833 2 12C2 10.6167 2.26267 9.31667 2.788 8.1C3.31267 6.88333 4.025 5.825 4.925 4.925C5.825 4.025 6.88333 3.31233 8.1 2.787C9.31667 2.26233 10.6167 2 12 2C13.3833 2 14.6833 2.26233 15.9 2.787C17.1167 3.31233 18.175 4.025 19.075 4.925C19.975 5.825 20.6873 6.88333 21.212 8.1C21.7373 9.31667 22 10.6167 22 12C22 13.3833 21.7373 14.6833 21.212 15.9C20.6873 17.1167 19.975 18.175 19.075 19.075C18.175 19.975 17.1167 20.6873 15.9 21.212C14.6833 21.7373 13.3833 22 12 22Z" fill="url(#paint0_linear_13744_10474)"/>
</g>
<defs>
<linearGradient id="paint0_linear_13744_10474" x1="18.034" y1="18.7895" x2="18.034" y2="7.31891" gradientUnits="userSpaceOnUse">
<stop stop-color="#FABE4C"/>
<stop offset="1" stop-color="#FA9751"/>
</linearGradient>
</defs>
</svg>
