<svg width="24" height="24" viewBox="0 0 24 24" fill="none" xmlns="http://www.w3.org/2000/svg">
<mask id="path-1-inside-1" fill="white">
<path fill-rule="evenodd" clip-rule="evenodd" d="M7 4.00027H4V20.0003H7V4.00027ZM3 3.00027V21.0003H8V3.00027H3Z"/>
</mask>
<path d="M4 4.00027V3.00027H3V4.00027H4ZM7 4.00027H8V3.00027H7V4.00027ZM4 20.0003H3V21.0003H4V20.0003ZM7 20.0003V21.0003H8V20.0003H7ZM3 3.00027V2.00027H2V3.00027H3ZM3 21.0003H2V22.0003H3V21.0003ZM8 21.0003V22.0003H9V21.0003H8ZM8 3.00027H9V2.00027H8V3.00027ZM4 5.00027H7V3.00027H4V5.00027ZM5 20.0003V4.00027H3V20.0003H5ZM7 19.0003H4V21.0003H7V19.0003ZM6 4.00027V20.0003H8V4.00027H6ZM3 4.00027H8V2.00027H3V4.00027ZM4 21.0003V3.00027H2V21.0003H4ZM8 20.0003H3V22.0003H8V20.0003ZM7 3.00027V21.0003H9V3.00027H7Z" fill="currentColor" fill-opacity="0.87" mask="url(#path-1-inside-1)"/>
<mask id="path-3-inside-2" fill="white">
<path fill-rule="evenodd" clip-rule="evenodd" d="M13 4.00027H10V20.0003H13V4.00027ZM9 3.00027V21.0003H14V3.00027H9Z"/>
</mask>
<path d="M10 4.00027V3.00027H9V4.00027H10ZM13 4.00027H14V3.00027H13V4.00027ZM10 20.0003H9V21.0003H10V20.0003ZM13 20.0003V21.0003H14V20.0003H13ZM9 3.00027V2.00027H8V3.00027H9ZM9 21.0003H8V22.0003H9V21.0003ZM14 21.0003V22.0003H15V21.0003H14ZM14 3.00027H15V2.00027H14V3.00027ZM10 5.00027H13V3.00027H10V5.00027ZM11 20.0003V4.00027H9V20.0003H11ZM13 19.0003H10V21.0003H13V19.0003ZM12 4.00027V20.0003H14V4.00027H12ZM9 4.00027H14V2.00027H9V4.00027ZM10 21.0003V3.00027H8V21.0003H10ZM14 20.0003H9V22.0003H14V20.0003ZM13 3.00027V21.0003H15V3.00027H13Z" fill="currentColor" fill-opacity="0.87" mask="url(#path-3-inside-2)"/>
<mask id="path-5-inside-3" fill="white">
<path fill-rule="evenodd" clip-rule="evenodd" d="M19 4.00027H16V20.0003H19V4.00027ZM15 3.00027V21.0003H20V3.00027H15Z"/>
</mask>
<path d="M16 4.00027V3.00027H15V4.00027H16ZM19 4.00027H20V3.00027H19V4.00027ZM16 20.0003H15V21.0003H16V20.0003ZM19 20.0003V21.0003H20V20.0003H19ZM15 3.00027V2.00027H14V3.00027H15ZM15 21.0003H14V22.0003H15V21.0003ZM20 21.0003V22.0003H21V21.0003H20ZM20 3.00027H21V2.00027H20V3.00027ZM16 5.00027H19V3.00027H16V5.00027ZM17 20.0003V4.00027H15V20.0003H17ZM19 19.0003H16V21.0003H19V19.0003ZM18 4.00027V20.0003H20V4.00027H18ZM15 4.00027H20V2.00027H15V4.00027ZM16 21.0003V3.00027H14V21.0003H16ZM20 20.0003H15V22.0003H20V20.0003ZM19 3.00027V21.0003H21V3.00027H19Z" fill="currentColor" fill-opacity="0.87" mask="url(#path-5-inside-3)"/>
</svg>
