<svg width="24" height="24" viewBox="0 0 24 24" fill="none" xmlns="http://www.w3.org/2000/svg">
<path fill-rule="evenodd" clip-rule="evenodd" d="M3 6C3 4.34315 4.34315 3 6 3H18C19.6569 3 21 4.34315 21 6V18C21 19.6569 19.6569 21 18 21H6C4.34315 21 3 19.6569 3 18V6ZM6 5C5.44772 5 5 5.44772 5 6V18C5 18.5523 5.44772 19 6 19H18C18.5523 19 19 18.5523 19 18V6C19 5.44772 18.5523 5 18 5H6Z" fill="#808080"/>
<path fill-rule="evenodd" clip-rule="evenodd" d="M6.5 8C6.5 7.44772 6.94772 7 7.5 7H10.5C11.0523 7 11.5 7.44772 11.5 8C11.5 8.55228 11.0523 9 10.5 9H10V16C10 16.5523 9.55228 17 9 17C8.44772 17 8 16.5523 8 16V9H7.5C6.94772 9 6.5 8.55228 6.5 8Z" fill="#808080"/>
<path fill-rule="evenodd" clip-rule="evenodd" d="M12.5 16C12.5 16.5523 12.9477 17 13.5 17H16.5C17.0523 17 17.5 16.5523 17.5 16C17.5 15.4477 17.0523 15 16.5 15H16V8C16 7.44771 15.5523 7 15 7C14.4477 7 14 7.44771 14 8V15H13.5C12.9477 15 12.5 15.4477 12.5 16Z" fill="#808080"/>
</svg>
