<svg width="24" height="24" viewBox="0 0 24 24" fill="none" xmlns="http://www.w3.org/2000/svg">
<path d="M3 3.00026V20.0003H20V3.00026H3ZM19 19.0003H4V4.00026H19V19.0003ZM7 13.2323V16.0003H8V13.2323C8.738 13.0143 9.281 12.3383 9.281 11.5313C9.281 10.7243 8.738 10.0483 8 9.83026V7.00026H7V9.83026C6.262 10.0483 5.719 10.7243 5.719 11.5313C5.719 12.3383 6.262 13.0153 7 13.2323ZM7.5 10.7503C7.931 10.7503 8.281 11.1013 8.281 11.5313C8.281 11.9613 7.931 12.3123 7.5 12.3123C7.069 12.3123 6.719 11.9623 6.719 11.5313C6.719 11.1003 7.069 10.7503 7.5 10.7503ZM11 11.1073V16.0003H12V11.1073C12.738 10.8893 13.281 10.2133 13.281 9.40626C13.281 8.59926 12.738 7.92326 12 7.70526V7.00026H11V7.70526C10.262 7.92326 9.719 8.59926 9.719 9.40626C9.719 10.2133 10.262 10.8903 11 11.1073ZM11.5 8.62526C11.931 8.62526 12.281 8.97626 12.281 9.40626C12.281 9.83626 11.931 10.1883 11.5 10.1883C11.069 10.1883 10.719 9.83726 10.719 9.40626C10.719 8.97526 11.069 8.62526 11.5 8.62526ZM15.5 16.4173C16.482 16.4173 17.281 15.6183 17.281 14.6363C17.281 13.8283 16.738 13.1533 16 12.9353V7.00026H15V12.9353C14.262 13.1533 13.719 13.8293 13.719 14.6363C13.719 15.6183 14.518 16.4173 15.5 16.4173ZM15.5 13.8543C15.931 13.8543 16.281 14.2053 16.281 14.6353C16.281 15.0653 15.93 15.4163 15.5 15.4163C15.07 15.4163 14.719 15.0653 14.719 14.6353C14.719 14.2053 15.069 13.8543 15.5 13.8543Z" fill="currentColor" fill-opacity="0.87"/>
</svg>
