<svg width="24" height="24" viewBox="0 0 24 24" fill="none" xmlns="http://www.w3.org/2000/svg">
<path d="M18.529 5.85728L17.126 4.45328C16.561 3.88728 15.571 3.88728 15.004 4.45328L5.94698 13.5113L4.22498 18.7993L9.47298 17.0343L18.528 7.97828C19.114 7.39428 19.114 6.44228 18.529 5.85728ZM6.09398 16.2943L6.73898 14.3153L8.67298 16.2503L6.70998 16.9103L6.09398 16.2943ZM7.35498 13.5183L12.848 8.02528L14.959 10.1353L9.46498 15.6293L7.35498 13.5183ZM13.555 7.31728L14.284 6.58828L16.395 8.69828L15.666 9.42728L13.555 7.31728ZM17.822 7.27128L17.102 7.99128L14.991 5.88128L15.711 5.16028C15.9 4.97128 16.229 4.97128 16.418 5.16028L17.821 6.56428C18.017 6.76028 18.017 7.07628 17.822 7.27128Z" fill="currentColor"/>
</svg>
