<svg width="24" height="24" viewBox="0 0 24 24" fill="none" xmlns="http://www.w3.org/2000/svg">
<path fill-rule="evenodd" clip-rule="evenodd" d="M19.7071 4.29262C20.0976 4.68314 20.0976 5.31631 19.7071 5.70683L5.70711 19.7068C5.31658 20.0974 4.68342 20.0974 4.29289 19.7068C3.90237 19.3163 3.90237 18.6831 4.29289 18.2926L18.2929 4.29262C18.6834 3.90209 19.3166 3.90209 19.7071 4.29262Z" fill="#808080"/>
<path fill-rule="evenodd" clip-rule="evenodd" d="M6.5 4.99973C5.67157 4.99973 5 5.6713 5 6.49973C5 7.32815 5.67157 7.99973 6.5 7.99973C7.32843 7.99973 8 7.32815 8 6.49973C8 5.6713 7.32843 4.99973 6.5 4.99973ZM3 6.49973C3 4.56673 4.567 2.99973 6.5 2.99973C8.433 2.99973 10 4.56673 10 6.49973C10 8.43272 8.433 9.99973 6.5 9.99973C4.567 9.99973 3 8.43272 3 6.49973Z" fill="#808080"/>
<path fill-rule="evenodd" clip-rule="evenodd" d="M17.5 15.9997C16.6716 15.9997 16 16.6713 16 17.4997C16 18.3282 16.6716 18.9997 17.5 18.9997C18.3284 18.9997 19 18.3282 19 17.4997C19 16.6713 18.3284 15.9997 17.5 15.9997ZM14 17.4997C14 15.5667 15.567 13.9997 17.5 13.9997C19.433 13.9997 21 15.5667 21 17.4997C21 19.4327 19.433 20.9997 17.5 20.9997C15.567 20.9997 14 19.4327 14 17.4997Z" fill="#808080"/>
</svg>
