<svg width="24" height="24" viewBox="0 0 24 24" fill="none" xmlns="http://www.w3.org/2000/svg">
<path d="M14.33 15.9321C14.7583 15.9321 15.1054 15.5849 15.1054 15.1567C15.1054 14.7285 14.7583 14.3813 14.33 14.3813C13.9018 14.3813 13.5547 14.7285 13.5547 15.1567C13.5547 15.5849 13.9018 15.9321 14.33 15.9321Z" fill="#1C1B1F"/>
<path d="M14.33 15.9321C14.7583 15.9321 15.1054 15.5849 15.1054 15.1567C15.1054 14.7285 14.7583 14.3813 14.33 14.3813C13.9018 14.3813 13.5547 14.7285 13.5547 15.1567C13.5547 15.5849 13.9018 15.9321 14.33 15.9321Z" fill="url(#paint0_linear_4_62)"/>
<path d="M9.67384 12.3134C10.102 12.3134 10.4492 11.9663 10.4492 11.5381C10.4492 11.1098 10.102 10.7627 9.67384 10.7627C9.24564 10.7627 8.89844 11.1098 8.89844 11.5381C8.89844 11.9663 9.24564 12.3134 9.67384 12.3134Z" fill="#1C1B1F"/>
<path d="M9.67384 12.3134C10.102 12.3134 10.4492 11.9663 10.4492 11.5381C10.4492 11.1098 10.102 10.7627 9.67384 10.7627C9.24564 10.7627 8.89844 11.1098 8.89844 11.5381C8.89844 11.9663 9.24564 12.3134 9.67384 12.3134Z" fill="url(#paint1_linear_4_62)"/>
<path d="M22.4971 9.3087L14.4406 1.9526C13.7757 1.34 12.9048 1 12.0008 1C11.0968 1 10.2258 1.34 9.56099 1.9526L1.50289 9.3092C1.28109 9.5125 1.12329 9.7759 1.04859 10.0673C0.973892 10.3588 0.985492 10.6656 1.08219 10.9505C1.17879 11.2354 1.35629 11.4861 1.59289 11.6719C1.82949 11.8577 2.11499 11.9707 2.41469 11.9971L3.77519 12.1155C3.90439 12.1268 4.02459 12.1862 4.11199 12.2819C4.19939 12.3776 4.24769 12.5027 4.24719 12.6324V21.1009C4.24719 21.5122 4.41059 21.9066 4.70139 22.1974C4.99219 22.4882 5.38659 22.6516 5.79789 22.6516H18.2037C18.6149 22.6516 19.0094 22.4882 19.3002 22.1974C19.591 21.9066 19.7544 21.5122 19.7544 21.1009V12.6314C19.7539 12.5017 19.8021 12.3766 19.8895 12.2809C19.977 12.1851 20.0972 12.1257 20.2263 12.1144L21.5853 11.9971C21.885 11.9707 22.1705 11.8577 22.4071 11.6719C22.6437 11.4861 22.8212 11.2354 22.9178 10.9505C23.0145 10.6656 23.0261 10.3588 22.9514 10.0673C22.8767 9.7759 22.7189 9.5125 22.4971 9.3092V9.3087ZM7.86549 11.5381C7.86549 11.1803 7.97159 10.8305 8.17039 10.533C8.36919 10.2355 8.65179 10.0036 8.98239 9.8666C9.31289 9.7297 9.67669 9.6939 10.0276 9.7637C10.3786 9.8335 10.701 10.0058 10.954 10.2588C11.207 10.5118 11.3793 10.8342 11.4491 11.1851C11.5189 11.5361 11.4831 11.8999 11.3462 12.2304C11.2092 12.561 10.9773 12.8436 10.6798 13.0424C10.3823 13.2412 10.0325 13.3473 9.67469 13.3473C9.19489 13.3473 8.73469 13.1567 8.39539 12.8174C8.05609 12.4781 7.86549 12.0179 7.86549 11.5381ZM9.92489 16.8281C9.83039 16.828 9.73779 16.8019 9.65709 16.7529C9.57639 16.7038 9.51069 16.6335 9.46709 16.5497C9.42349 16.4659 9.40369 16.3717 9.40989 16.2775C9.41599 16.1832 9.44789 16.0924 9.50199 16.015L13.6549 10.0866C13.6938 10.031 13.7433 9.9836 13.8006 9.9471C13.8578 9.9106 13.9217 9.8857 13.9886 9.8739C14.0554 9.8621 14.124 9.8636 14.1903 9.8783C14.2565 9.8929 14.3193 9.9205 14.3749 9.9595C14.4306 9.9984 14.478 10.0479 14.5145 10.1052C14.551 10.1624 14.5758 10.2263 14.5876 10.2932C14.5994 10.36 14.598 10.4286 14.5833 10.4948C14.5686 10.5611 14.541 10.6239 14.5021 10.6795L10.3493 16.6079C10.3015 16.6761 10.2379 16.7317 10.1641 16.77C10.0902 16.8084 10.0081 16.8283 9.92489 16.8281ZM14.3269 16.9656C13.969 16.9656 13.6193 16.8595 13.3217 16.6607C13.0242 16.4619 12.7923 16.1794 12.6554 15.8488C12.5185 15.5182 12.4826 15.1544 12.5524 14.8035C12.6223 14.4525 12.7946 14.1302 13.0476 13.8772C13.3006 13.6241 13.623 13.4518 13.9739 13.382C14.3249 13.3122 14.6886 13.3481 15.0192 13.485C15.3498 13.6219 15.6323 13.8538 15.8311 14.1513C16.0299 14.4488 16.136 14.7986 16.136 15.1564C16.136 15.6363 15.9454 16.0964 15.6061 16.4357C15.2669 16.775 14.8067 16.9656 14.3269 16.9656Z" fill="#1C1B1F"/>
<path d="M22.4971 9.3087L14.4406 1.9526C13.7757 1.34 12.9048 1 12.0008 1C11.0968 1 10.2258 1.34 9.56099 1.9526L1.50289 9.3092C1.28109 9.5125 1.12329 9.7759 1.04859 10.0673C0.973892 10.3588 0.985492 10.6656 1.08219 10.9505C1.17879 11.2354 1.35629 11.4861 1.59289 11.6719C1.82949 11.8577 2.11499 11.9707 2.41469 11.9971L3.77519 12.1155C3.90439 12.1268 4.02459 12.1862 4.11199 12.2819C4.19939 12.3776 4.24769 12.5027 4.24719 12.6324V21.1009C4.24719 21.5122 4.41059 21.9066 4.70139 22.1974C4.99219 22.4882 5.38659 22.6516 5.79789 22.6516H18.2037C18.6149 22.6516 19.0094 22.4882 19.3002 22.1974C19.591 21.9066 19.7544 21.5122 19.7544 21.1009V12.6314C19.7539 12.5017 19.8021 12.3766 19.8895 12.2809C19.977 12.1851 20.0972 12.1257 20.2263 12.1144L21.5853 11.9971C21.885 11.9707 22.1705 11.8577 22.4071 11.6719C22.6437 11.4861 22.8212 11.2354 22.9178 10.9505C23.0145 10.6656 23.0261 10.3588 22.9514 10.0673C22.8767 9.7759 22.7189 9.5125 22.4971 9.3092V9.3087ZM7.86549 11.5381C7.86549 11.1803 7.97159 10.8305 8.17039 10.533C8.36919 10.2355 8.65179 10.0036 8.98239 9.8666C9.31289 9.7297 9.67669 9.6939 10.0276 9.7637C10.3786 9.8335 10.701 10.0058 10.954 10.2588C11.207 10.5118 11.3793 10.8342 11.4491 11.1851C11.5189 11.5361 11.4831 11.8999 11.3462 12.2304C11.2092 12.561 10.9773 12.8436 10.6798 13.0424C10.3823 13.2412 10.0325 13.3473 9.67469 13.3473C9.19489 13.3473 8.73469 13.1567 8.39539 12.8174C8.05609 12.4781 7.86549 12.0179 7.86549 11.5381ZM9.92489 16.8281C9.83039 16.828 9.73779 16.8019 9.65709 16.7529C9.57639 16.7038 9.51069 16.6335 9.46709 16.5497C9.42349 16.4659 9.40369 16.3717 9.40989 16.2775C9.41599 16.1832 9.44789 16.0924 9.50199 16.015L13.6549 10.0866C13.6938 10.031 13.7433 9.9836 13.8006 9.9471C13.8578 9.9106 13.9217 9.8857 13.9886 9.8739C14.0554 9.8621 14.124 9.8636 14.1903 9.8783C14.2565 9.8929 14.3193 9.9205 14.3749 9.9595C14.4306 9.9984 14.478 10.0479 14.5145 10.1052C14.551 10.1624 14.5758 10.2263 14.5876 10.2932C14.5994 10.36 14.598 10.4286 14.5833 10.4948C14.5686 10.5611 14.541 10.6239 14.5021 10.6795L10.3493 16.6079C10.3015 16.6761 10.2379 16.7317 10.1641 16.77C10.0902 16.8084 10.0081 16.8283 9.92489 16.8281ZM14.3269 16.9656C13.969 16.9656 13.6193 16.8595 13.3217 16.6607C13.0242 16.4619 12.7923 16.1794 12.6554 15.8488C12.5185 15.5182 12.4826 15.1544 12.5524 14.8035C12.6223 14.4525 12.7946 14.1302 13.0476 13.8772C13.3006 13.6241 13.623 13.4518 13.9739 13.382C14.3249 13.3122 14.6886 13.3481 15.0192 13.485C15.3498 13.6219 15.6323 13.8538 15.8311 14.1513C16.0299 14.4488 16.136 14.7986 16.136 15.1564C16.136 15.6363 15.9454 16.0964 15.6061 16.4357C15.2669 16.775 14.8067 16.9656 14.3269 16.9656Z" fill="url(#paint2_linear_4_62)"/>
<defs>
<linearGradient id="paint0_linear_4_62" x1="14.7979" y1="15.6831" x2="14.7979" y2="14.7938" gradientUnits="userSpaceOnUse">
<stop stop-color="#FABE4C"/>
<stop offset="1" stop-color="#FA9751"/>
</linearGradient>
<linearGradient id="paint1_linear_4_62" x1="10.1416" y1="12.0645" x2="10.1416" y2="11.1751" gradientUnits="userSpaceOnUse">
<stop stop-color="#FABE4C"/>
<stop offset="1" stop-color="#FA9751"/>
</linearGradient>
<linearGradient id="paint2_linear_4_62" x1="18.6373" y1="19.176" x2="18.6373" y2="6.7581" gradientUnits="userSpaceOnUse">
<stop stop-color="#FABE4C"/>
<stop offset="1" stop-color="#FA9751"/>
</linearGradient>
</defs>
</svg>
