<svg width="24" height="24" viewBox="0 0 24 24" fill="none" xmlns="http://www.w3.org/2000/svg">
<path fill-rule="evenodd" clip-rule="evenodd" d="M7 10.0003C8.65685 10.0003 10 8.65713 10 7.00027C10 5.34342 8.65685 4.00027 7 4.00027C5.34315 4.00027 4 5.34342 4 7.00027C4 8.65713 5.34315 10.0003 7 10.0003ZM7 9.00027C8.10457 9.00027 9 8.10484 9 7.00027C9 5.89571 8.10457 5.00027 7 5.00027C5.89543 5.00027 5 5.89571 5 7.00027C5 8.10484 5.89543 9.00027 7 9.00027Z" fill="currentColor"/>
<path fill-rule="evenodd" clip-rule="evenodd" d="M17 20.0003C18.6569 20.0003 20 18.6571 20 17.0003C20 15.3434 18.6569 14.0003 17 14.0003C15.3431 14.0003 14 15.3434 14 17.0003C14 18.6571 15.3431 20.0003 17 20.0003ZM17 19.0003C18.1046 19.0003 19 18.1048 19 17.0003C19 15.8957 18.1046 15.0003 17 15.0003C15.8954 15.0003 15 15.8957 15 17.0003C15 18.1048 15.8954 19.0003 17 19.0003Z" fill="currentColor"/>
<path d="M19.2797 4.00027L4 19.28L4.72029 20.0003L20 4.72057L19.2797 4.00027Z" fill="currentColor"/>
</svg>
