<svg width="24" height="24" viewBox="0 0 24 24" fill="none" xmlns="http://www.w3.org/2000/svg">
<path fill-rule="evenodd" clip-rule="evenodd" d="M12 19.9415C16.3858 19.9415 19.9412 16.3861 19.9412 12.0003C19.9412 7.61448 16.3858 4.0591 12 4.0591C7.61421 4.0591 4.05882 7.61448 4.05882 12.0003C4.05882 16.3861 7.61421 19.9415 12 19.9415ZM12 21.0003C16.9706 21.0003 21 16.9708 21 12.0003C21 7.02971 16.9706 3.00027 12 3.00027C7.02944 3.00027 3 7.02971 3 12.0003C3 16.9708 7.02944 21.0003 12 21.0003Z" fill="currentColor"/>
<path fill-rule="evenodd" clip-rule="evenodd" d="M11.4444 11.4447V7.00027H12.5556V11.4447H17V12.5558H12.5556V17.0003H11.4444V12.5558H7V11.4447H11.4444Z" fill="currentColor"/>
</svg>
