<svg width="24" height="24" fill="none" xmlns="http://www.w3.org/2000/svg"><path fill-rule="evenodd" clip-rule="evenodd" d="M4 14a1 1 0 011 1v3a1 1 0 001 1h12a1 1 0 001-1v-3a1 1 0 112 0v3a3 3 0 01-3 3H6a3 3 0 01-3-3v-3a1 1 0 011-1z" fill="currentColor"/><path fill-rule="evenodd" clip-rule="evenodd" d="M18.915 9.598a1 1 0 01-.178 1.078l-5.5 6a1 1 0 01-1.474 0l-5.5-6A1 1 0 017 9h2.01c.004-.399.004-.774-.016-1.147-.036-.65-.134-1.147-.326-1.53C8.356 5.697 7.595 5 5 5a1 1 0 01-.707-1.707L5 4c-.707-.707-.706-.708-.706-.708l.003-.003.005-.005.01-.01a1.517 1.517 0 01.101-.088c.059-.049.136-.108.235-.174a4.66 4.66 0 01.856-.44C6.258 2.269 7.386 2 9 2c1.579 0 3.387.256 4.79 1.503 1.266 1.126 2.03 2.9 2.182 5.497H18a1 1 0 01.915.598zM9.223 4.002c.537.371.944.846 1.234 1.426.37.741.492 1.556.534 2.314.029.52.021 1.087.015 1.618-.003.221-.006.437-.006.64a1 1 0 01-1 1h-.727l3.227 3.52L15.727 11H15a1 1 0 01-1-1c0-2.85-.712-4.267-1.54-5.002-.802-.714-1.914-.97-3.237-.996z" fill="currentColor"/></svg>