<svg width="24" height="24" viewBox="0 0 24 24" fill="none" xmlns="http://www.w3.org/2000/svg">
<path fill-rule="evenodd" clip-rule="evenodd" d="M17.9619 11.309C18.0393 11.4958 17.9966 11.7109 17.8536 11.8539L12.9037 16.8037C12.7085 16.999 12.3919 16.999 12.1966 16.8037L7.2469 11.8539C7.1039 11.7109 7.06112 11.4959 7.13851 11.3091C7.2159 11.1222 7.39821 11.0004 7.60044 11.0004L9.9929 11.0003C9.91671 8.36025 9.23454 6.64501 8.28916 5.58274C7.29173 4.46197 5.94088 4.00034 4.5 4.00034C4.22386 4.00034 4 3.77648 4 3.50034C4 3.22419 4.22386 3.00034 4.5 3.00034C8.06007 3.00034 10.6965 3.76161 12.448 5.24365C14.1006 6.64202 14.8942 8.62057 14.9901 11.0004L17.5 11.0003C17.7022 11.0003 17.8845 11.1222 17.9619 11.309ZM8.56067 4.44287C8.72514 4.58867 8.8839 4.74683 9.03618 4.91793C10.2573 6.29003 11 8.42598 11 11.5003C11 11.7765 10.7761 12.0003 10.5 12.0003L8.80753 12.0004L12.5502 15.743L16.2929 12.0004L14.5 12.0004C14.3674 12.0004 14.2402 11.9477 14.1465 11.8539C14.0527 11.7602 14 11.633 14 11.5004C14 9.10341 13.285 7.26187 11.802 6.00704C10.9881 5.31832 9.91892 4.78574 8.56067 4.44287Z" fill="currentColor" fill-opacity="0.87"/>
<path fill-rule="evenodd" clip-rule="evenodd" d="M4.50001 12.5003C4.77616 12.5003 5.00001 12.7242 5.00001 13.0003V18.5003C5.00001 19.3288 5.67159 20.0003 6.50001 20.0003H18.5C19.3284 20.0003 20 19.3288 20 18.5003V13.0003C20 12.7242 20.2239 12.5003 20.5 12.5003C20.7762 12.5003 21 12.7242 21 13.0003V18.5003C21 19.881 19.8807 21.0003 18.5 21.0003H6.50001C5.1193 21.0003 4.00001 19.881 4.00001 18.5003V13.0003C4.00001 12.7242 4.22387 12.5003 4.50001 12.5003Z" fill="currentColor" fill-opacity="0.87"/>
</svg>
