<svg width="24" height="24" viewBox="0 0 24 24" fill="none" xmlns="http://www.w3.org/2000/svg">
<path d="M11.9997 12.3751C13.242 12.3751 14.2492 11.368 14.2492 10.1255C14.2492 8.88311 13.242 7.87598 11.9997 7.87598C10.7572 7.87598 9.75 8.88311 9.75 10.1255C9.75 11.368 10.7572 12.3751 11.9997 12.3751Z" fill="#1C1B1F"/>
<path d="M11.9997 12.3751C13.242 12.3751 14.2492 11.368 14.2492 10.1255C14.2492 8.88311 13.242 7.87598 11.9997 7.87598C10.7572 7.87598 9.75 8.88311 9.75 10.1255C9.75 11.368 10.7572 12.3751 11.9997 12.3751Z" fill="url(#paint0_linear_3_22)"/>
<path d="M21.7481 9.75043C21.2171 9.7513 20.7033 9.93994 20.2978 10.283C19.8924 10.626 19.6212 11.1014 19.5324 11.625H17.6048C17.5238 10.3963 17.0395 9.22858 16.2271 8.30323L18.1964 6.3337C18.657 6.66134 19.2239 6.804 19.7847 6.73334C20.3456 6.66269 20.8594 6.3839 21.2243 5.95229C21.5892 5.52058 21.7787 4.96762 21.755 4.40285C21.7314 3.83818 21.4965 3.30288 21.0968 2.90323C20.6971 2.50349 20.1618 2.26858 19.5972 2.24496C19.0324 2.22134 18.4793 2.41085 18.0477 2.77574C17.6161 3.14064 17.3373 3.65443 17.2667 4.21526C17.196 4.7761 17.3387 5.34298 17.6663 5.80358L15.697 7.77283C14.7715 6.96029 13.6038 6.47606 12.3749 6.39504V4.46765C12.9311 4.37366 13.4316 4.07414 13.7774 3.62851C14.1231 3.18278 14.2888 2.62349 14.2417 2.06141C14.1946 1.49933 13.938 0.975552 13.5228 0.593664C13.1076 0.211872 12.5641 0 12 0C11.4359 0 10.8924 0.211872 10.4772 0.593664C10.062 0.975552 9.80544 1.49933 9.7583 2.06141C9.71117 2.62349 9.87686 3.18278 10.2226 3.62851C10.5684 4.07414 11.0689 4.37366 11.625 4.46765V6.39523C10.3963 6.47616 9.22858 6.96048 8.30323 7.77293L6.3337 5.80358C6.66135 5.34298 6.804 4.7761 6.73334 4.21526C6.66269 3.65443 6.3839 3.14064 5.95229 2.77574C5.52058 2.41085 4.96762 2.22134 4.40285 2.24496C3.83818 2.26858 3.30288 2.50349 2.90323 2.90323C2.50349 3.30288 2.26858 3.83818 2.24496 4.40285C2.22134 4.96762 2.41085 5.52058 2.77574 5.95229C3.14064 6.3839 3.65443 6.66269 4.21526 6.73334C4.7761 6.804 5.34298 6.66134 5.80358 6.3337L7.77283 8.30323C6.96038 9.22858 6.47607 10.3963 6.39504 11.625H4.46765C4.37366 11.0689 4.07414 10.5684 3.62851 10.2226C3.18278 9.87686 2.62349 9.71117 2.06141 9.7583C1.49933 9.80544 0.975552 10.062 0.593664 10.4772C0.211872 10.8924 0 11.4359 0 12C0 12.5641 0.211872 13.1076 0.593664 13.5228C0.975552 13.938 1.49933 14.1946 2.06141 14.2417C2.62349 14.2888 3.18278 14.1231 3.62851 13.7774C4.07414 13.4316 4.37366 12.9311 4.46765 12.375H6.38918C6.44832 13.2759 6.72422 14.1492 7.19338 14.9207C7.32547 15.1333 7.47072 15.3374 7.62835 15.5318C7.67434 15.5887 7.72714 15.6396 7.77523 15.6946L5.80358 17.6663C5.34298 17.3387 4.7761 17.196 4.21526 17.2667C3.65443 17.3373 3.14064 17.6161 2.77574 18.0477C2.41085 18.4794 2.22134 19.0324 2.24496 19.5972C2.26858 20.1618 2.50349 20.6971 2.90323 21.0968C3.30288 21.4965 3.83818 21.7314 4.40285 21.755C4.96762 21.7787 5.52058 21.5892 5.95229 21.2243C6.3839 20.8594 6.66269 20.3456 6.73334 19.7847C6.804 19.2239 6.66135 18.657 6.3337 18.1964L8.30563 16.2246C9.2303 17.0366 10.3971 17.521 11.625 17.6023V19.5324C11.0689 19.6263 10.5684 19.9259 10.2226 20.3715C9.87686 20.8172 9.71117 21.3765 9.7583 21.9386C9.80544 22.5007 10.062 23.0244 10.4772 23.4063C10.8924 23.7881 11.4359 24 12 24C12.5641 24 13.1076 23.7881 13.5228 23.4063C13.938 23.0244 14.1946 22.5007 14.2417 21.9386C14.2888 21.3765 14.1231 20.8172 13.7774 20.3715C13.4316 19.9259 12.9311 19.6263 12.3749 19.5324V17.6022C13.6029 17.5209 14.7697 17.0365 15.6944 16.2245L17.6665 18.1963C17.3388 18.6569 17.1962 19.2238 17.2668 19.7846C17.3375 20.3454 17.6163 20.8592 18.0479 21.2242C18.4795 21.5891 19.0326 21.7786 19.5973 21.7549C20.162 21.7313 20.6973 21.4964 21.097 21.0967C21.4967 20.697 21.7316 20.1617 21.7552 19.597C21.7789 19.0323 21.5893 18.4792 21.2244 18.0476C20.8595 17.616 20.3457 17.3372 19.7849 17.2666C19.2241 17.1959 18.6572 17.3386 18.1966 17.6662L16.225 15.6945C16.2731 15.6395 16.3259 15.5886 16.3718 15.5317C16.5295 15.3373 16.6747 15.1332 16.8068 14.9206C17.2759 14.1492 17.5517 13.2758 17.6108 12.375H19.5324C19.604 12.7976 19.795 13.1909 20.0828 13.5085C20.3706 13.8263 20.7433 14.0551 21.1569 14.168C21.5703 14.2809 22.0075 14.2733 22.4169 14.146C22.8262 14.0187 23.1906 13.777 23.4672 13.4494C23.7437 13.1219 23.9209 12.7221 23.9777 12.2972C24.0347 11.8723 23.9689 11.44 23.7882 11.0513C23.6076 10.6625 23.3195 10.3335 22.958 10.103C22.5966 9.87264 22.1769 9.75024 21.7481 9.75043ZM16.2142 14.4445C14.9769 13.5852 13.5064 13.1248 12 13.1248C10.4936 13.1248 9.02314 13.5852 7.78579 14.4445C7.35533 13.7038 7.12771 12.8627 7.12598 12.006C7.12416 11.1492 7.34822 10.3071 7.77552 9.56458C8.20282 8.82202 8.81837 8.20522 9.55997 7.77629C10.3017 7.34736 11.1433 7.12157 12 7.12157C12.8567 7.12157 13.6983 7.34736 14.44 7.77629C15.1816 8.20522 15.7972 8.82202 16.2245 9.56458C16.6518 10.3071 16.8758 11.1492 16.874 12.006C16.8723 12.8627 16.6447 13.7038 16.2142 14.4445Z" fill="#1C1B1F"/>
<path d="M21.7481 9.75043C21.2171 9.7513 20.7033 9.93994 20.2978 10.283C19.8924 10.626 19.6212 11.1014 19.5324 11.625H17.6048C17.5238 10.3963 17.0395 9.22858 16.2271 8.30323L18.1964 6.3337C18.657 6.66134 19.2239 6.804 19.7847 6.73334C20.3456 6.66269 20.8594 6.3839 21.2243 5.95229C21.5892 5.52058 21.7787 4.96762 21.755 4.40285C21.7314 3.83818 21.4965 3.30288 21.0968 2.90323C20.6971 2.50349 20.1618 2.26858 19.5972 2.24496C19.0324 2.22134 18.4793 2.41085 18.0477 2.77574C17.6161 3.14064 17.3373 3.65443 17.2667 4.21526C17.196 4.7761 17.3387 5.34298 17.6663 5.80358L15.697 7.77283C14.7715 6.96029 13.6038 6.47606 12.3749 6.39504V4.46765C12.9311 4.37366 13.4316 4.07414 13.7774 3.62851C14.1231 3.18278 14.2888 2.62349 14.2417 2.06141C14.1946 1.49933 13.938 0.975552 13.5228 0.593664C13.1076 0.211872 12.5641 0 12 0C11.4359 0 10.8924 0.211872 10.4772 0.593664C10.062 0.975552 9.80544 1.49933 9.7583 2.06141C9.71117 2.62349 9.87686 3.18278 10.2226 3.62851C10.5684 4.07414 11.0689 4.37366 11.625 4.46765V6.39523C10.3963 6.47616 9.22858 6.96048 8.30323 7.77293L6.3337 5.80358C6.66135 5.34298 6.804 4.7761 6.73334 4.21526C6.66269 3.65443 6.3839 3.14064 5.95229 2.77574C5.52058 2.41085 4.96762 2.22134 4.40285 2.24496C3.83818 2.26858 3.30288 2.50349 2.90323 2.90323C2.50349 3.30288 2.26858 3.83818 2.24496 4.40285C2.22134 4.96762 2.41085 5.52058 2.77574 5.95229C3.14064 6.3839 3.65443 6.66269 4.21526 6.73334C4.7761 6.804 5.34298 6.66134 5.80358 6.3337L7.77283 8.30323C6.96038 9.22858 6.47607 10.3963 6.39504 11.625H4.46765C4.37366 11.0689 4.07414 10.5684 3.62851 10.2226C3.18278 9.87686 2.62349 9.71117 2.06141 9.7583C1.49933 9.80544 0.975552 10.062 0.593664 10.4772C0.211872 10.8924 0 11.4359 0 12C0 12.5641 0.211872 13.1076 0.593664 13.5228C0.975552 13.938 1.49933 14.1946 2.06141 14.2417C2.62349 14.2888 3.18278 14.1231 3.62851 13.7774C4.07414 13.4316 4.37366 12.9311 4.46765 12.375H6.38918C6.44832 13.2759 6.72422 14.1492 7.19338 14.9207C7.32547 15.1333 7.47072 15.3374 7.62835 15.5318C7.67434 15.5887 7.72714 15.6396 7.77523 15.6946L5.80358 17.6663C5.34298 17.3387 4.7761 17.196 4.21526 17.2667C3.65443 17.3373 3.14064 17.6161 2.77574 18.0477C2.41085 18.4794 2.22134 19.0324 2.24496 19.5972C2.26858 20.1618 2.50349 20.6971 2.90323 21.0968C3.30288 21.4965 3.83818 21.7314 4.40285 21.755C4.96762 21.7787 5.52058 21.5892 5.95229 21.2243C6.3839 20.8594 6.66269 20.3456 6.73334 19.7847C6.804 19.2239 6.66135 18.657 6.3337 18.1964L8.30563 16.2246C9.2303 17.0366 10.3971 17.521 11.625 17.6023V19.5324C11.0689 19.6263 10.5684 19.9259 10.2226 20.3715C9.87686 20.8172 9.71117 21.3765 9.7583 21.9386C9.80544 22.5007 10.062 23.0244 10.4772 23.4063C10.8924 23.7881 11.4359 24 12 24C12.5641 24 13.1076 23.7881 13.5228 23.4063C13.938 23.0244 14.1946 22.5007 14.2417 21.9386C14.2888 21.3765 14.1231 20.8172 13.7774 20.3715C13.4316 19.9259 12.9311 19.6263 12.3749 19.5324V17.6022C13.6029 17.5209 14.7697 17.0365 15.6944 16.2245L17.6665 18.1963C17.3388 18.6569 17.1962 19.2238 17.2668 19.7846C17.3375 20.3454 17.6163 20.8592 18.0479 21.2242C18.4795 21.5891 19.0326 21.7786 19.5973 21.7549C20.162 21.7313 20.6973 21.4964 21.097 21.0967C21.4967 20.697 21.7316 20.1617 21.7552 19.597C21.7789 19.0323 21.5893 18.4792 21.2244 18.0476C20.8595 17.616 20.3457 17.3372 19.7849 17.2666C19.2241 17.1959 18.6572 17.3386 18.1966 17.6662L16.225 15.6945C16.2731 15.6395 16.3259 15.5886 16.3718 15.5317C16.5295 15.3373 16.6747 15.1332 16.8068 14.9206C17.2759 14.1492 17.5517 13.2758 17.6108 12.375H19.5324C19.604 12.7976 19.795 13.1909 20.0828 13.5085C20.3706 13.8263 20.7433 14.0551 21.1569 14.168C21.5703 14.2809 22.0075 14.2733 22.4169 14.146C22.8262 14.0187 23.1906 13.777 23.4672 13.4494C23.7437 13.1219 23.9209 12.7221 23.9777 12.2972C24.0347 11.8723 23.9689 11.44 23.7882 11.0513C23.6076 10.6625 23.3195 10.3335 22.958 10.103C22.5966 9.87264 22.1769 9.75024 21.7481 9.75043ZM16.2142 14.4445C14.9769 13.5852 13.5064 13.1248 12 13.1248C10.4936 13.1248 9.02314 13.5852 7.78579 14.4445C7.35533 13.7038 7.12771 12.8627 7.12598 12.006C7.12416 11.1492 7.34822 10.3071 7.77552 9.56458C8.20282 8.82202 8.81837 8.20522 9.55997 7.77629C10.3017 7.34736 11.1433 7.12157 12 7.12157C12.8567 7.12157 13.6983 7.34736 14.44 7.77629C15.1816 8.20522 15.7972 8.82202 16.2245 9.56458C16.6518 10.3071 16.8758 11.1492 16.874 12.006C16.8723 12.8627 16.6447 13.7038 16.2142 14.4445Z" fill="url(#paint1_linear_3_22)"/>
<defs>
<linearGradient id="paint0_linear_3_22" x1="13.357" y1="11.6529" x2="13.357" y2="9.07252" gradientUnits="userSpaceOnUse">
<stop stop-color="#FABE4C"/>
<stop offset="1" stop-color="#FA9751"/>
</linearGradient>
<linearGradient id="paint1_linear_3_22" x1="19.2389" y1="20.1474" x2="19.2389" y2="6.38266" gradientUnits="userSpaceOnUse">
<stop stop-color="#FABE4C"/>
<stop offset="1" stop-color="#FA9751"/>
</linearGradient>
</defs>
</svg>
