<svg width="24" height="24" viewBox="0 0 24 24" fill="none" xmlns="http://www.w3.org/2000/svg">
<path fill-rule="evenodd" clip-rule="evenodd" d="M10.9593 18.9177C9.4312 18.5508 8.08418 17.6508 7.16049 16.3794L6.43237 16.9084L6.43316 16.9095C6.63049 17.181 6.84483 17.4376 7.07432 17.6781C8.0655 18.7167 9.33954 19.4544 10.7492 19.7928C12.4856 20.2097 14.3138 19.9933 15.9049 19.1826C17.4961 18.3718 18.7457 17.02 19.4291 15.3701C20.1125 13.7203 20.1848 11.8808 19.6329 10.1824C19.0811 8.48402 17.9414 7.03828 16.4187 6.10521C14.8961 5.17215 13.0905 4.813 11.3267 5.09235C9.56295 5.37171 7.95672 6.27124 6.79695 7.62916C5.85547 8.7315 5.25836 10.0772 5.06695 11.5C5.04466 11.6657 5.02787 11.8325 5.01668 12H5V5.00002H4V13H12V12H5.91896C6.02465 10.6085 6.56942 9.28136 7.48132 8.21366C8.50191 7.0187 9.9154 6.22711 11.4675 5.98127C13.0197 5.73544 14.6086 6.0515 15.9485 6.87259C17.2884 7.69369 18.2914 8.96594 18.777 10.4605C19.2626 11.9551 19.199 13.5739 18.5976 15.0257C17.9962 16.4776 16.8965 17.6672 15.4963 18.3807C14.0961 19.0941 12.4873 19.2845 10.9593 18.9177Z" fill="currentColor" fill-opacity="0.87"/>
</svg>
