<svg width="24" height="24" viewBox="0 0 24 24" fill="none" xmlns="http://www.w3.org/2000/svg">
<path d="M21 20.3283L15.431 14.7233C16.406 13.5863 17 12.1123 17 10.5003C17 6.91627 14.084 4.00027 10.5 4.00027C8.764 4.00027 7.131 4.67627 5.902 5.90327C4.675 7.13127 3.999 8.76427 4 10.5003C4 14.0843 6.916 17.0003 10.5 17.0003C12.112 17.0003 13.587 16.4063 14.724 15.4313L20.3 21.0003L21 20.3283ZM10.5 16.0003C7.468 16.0003 5 13.5333 5 10.5003C4.999 9.03027 5.571 7.64927 6.61 6.61127C7.648 5.57227 9.03 5.00027 10.5 5.00027C13.532 5.00027 16 7.46727 16 10.5003C16 13.5323 13.532 16.0003 10.5 16.0003Z" fill="currentColor" fill-opacity="0.87"/>
</svg>
