<svg width="24" height="24" viewBox="0 0 24 24" fill="none" xmlns="http://www.w3.org/2000/svg">
<path fill-rule="evenodd" clip-rule="evenodd" d="M6.5 5.00026C5.67112 5.00026 5 5.67089 5 6.49886V17.5034C5 18.3308 5.67056 19.0003 6.5 19.0003H17.5C18.3284 19.0003 19 18.3287 19 17.5003V16.0003C19 15.7241 19.2239 15.5003 19.5 15.5003C19.7761 15.5003 20 15.7241 20 16.0003V17.5003C20 18.881 18.8807 20.0003 17.5 20.0003H6.5C5.1203 20.0003 4 18.8851 4 17.5034V6.49886C4 5.11769 5.11975 4.00026 6.5 4.00026H8C8.27614 4.00026 8.5 4.22412 8.5 4.50026C8.5 4.7764 8.27614 5.00026 8 5.00026H6.5Z" fill="currentColor" fill-opacity="0.87"/>
<path fill-rule="evenodd" clip-rule="evenodd" d="M16.3087 3.03834C16.4955 2.96094 16.7106 3.00372 16.8536 3.14672L21.8034 8.09652C21.9986 8.29179 21.9986 8.60837 21.8034 8.80363L16.8536 13.7534C16.7106 13.8964 16.4956 13.9392 16.3087 13.8618C16.1219 13.7844 16.0001 13.6021 16.0001 13.3998L16 11.0074C13.3599 11.0836 11.6447 11.7657 10.5824 12.7111C9.46163 13.7085 9 15.0594 9 16.5003C9 16.7764 8.77614 17.0003 8.5 17.0003C8.22386 17.0003 8 16.7764 8 16.5003C8 12.9402 8.76127 10.3038 10.2433 8.5523C11.6417 6.89969 13.6202 6.10605 16 6.0102L16 3.50028C16 3.29805 16.1218 3.11573 16.3087 3.03834ZM9.44254 12.4396C9.58833 12.2751 9.74649 12.1164 9.9176 11.9641C11.2897 10.743 13.4256 10.0003 16.5 10.0003C16.7761 10.0003 17 10.2241 17 10.5003L17 12.1927L20.7427 8.45008L17 4.7074L17.0001 6.50026C17.0001 6.63287 16.9474 6.76005 16.8536 6.85382C16.7598 6.94759 16.6327 7.00027 16.5001 7.00027C14.1031 7.00027 12.2615 7.71527 11.0067 9.19825C10.318 10.0122 9.7854 11.0814 9.44254 12.4396Z" fill="currentColor" fill-opacity="0.87"/>
</svg>
