<svg width="24" height="24" fill="none" xmlns="http://www.w3.org/2000/svg"><path fill-rule="evenodd" clip-rule="evenodd" d="M14.597 2.085a1 1 0 011.079.178l6 5.5a1 1 0 010 1.474l-6 5.5A1 1 0 0114 14v-1.915c-2.235.38-4.305 1.992-5.051 4.231a1 1 0 01-1.91-.041c-1.1-3.85-.003-6.725 1.879-8.607C10.412 6.174 12.372 5.333 14 5.08V3a1 1 0 01.597-.915zM16 5.273V6a1 1 0 01-1 1c-1.24 0-3.234.648-4.668 2.082a5.776 5.776 0 00-1.723 3.883C10.215 11.114 12.605 10 15 10a1 1 0 011 1v.727L19.52 8.5 16 5.273z" fill="currentColor"/><path fill-rule="evenodd" clip-rule="evenodd" d="M3 6a3 3 0 013-3h1a1 1 0 010 2H6a1 1 0 00-1 1v12a1 1 0 001 1h12a1 1 0 001-1v-1a1 1 0 112 0v1a3 3 0 01-3 3H6a3 3 0 01-3-3V6z" fill="currentColor"/></svg>