<svg width="24" height="24" viewBox="0 0 24 24" fill="none" xmlns="http://www.w3.org/2000/svg">
<path d="M11.5 8.97224C10.122 8.97224 9 10.0942 9 11.4722C9 12.8502 10.122 13.9722 11.5 13.9722C12.878 13.9722 14 12.8502 14 11.4722C14 10.0942 12.878 8.97224 11.5 8.97224ZM11.5 12.9722C10.673 12.9722 10 12.2992 10 11.4722C10 10.6452 10.673 9.97224 11.5 9.97224C12.327 9.97224 13 10.6452 13 11.4722C13 12.2992 12.327 12.9722 11.5 12.9722ZM19.94 12.4462C19.977 12.1252 20 11.8012 20 11.4722C20 11.1432 19.977 10.8192 19.94 10.4982L17.352 9.72024C17.233 9.31824 17.074 8.93324 16.878 8.57124L18.157 6.19424C17.751 5.68424 17.288 5.22124 16.777 4.81424L14.4 6.09424C14.037 5.89824 13.652 5.74024 13.25 5.62024L12.474 3.03224C12.154 2.99524 11.83 2.97224 11.5 2.97224C11.17 2.97224 10.846 2.99524 10.526 3.03224L9.75 5.62024C9.347 5.73924 8.961 5.89824 8.6 6.09524L6.223 4.81524C5.712 5.22124 5.249 5.68424 4.844 6.19524L6.123 8.57024C5.927 8.93224 5.769 9.31824 5.649 9.72024L3.06 10.4982C3.023 10.8182 3 11.1422 3 11.4722C3 11.8022 3.023 12.1262 3.06 12.4462L5.648 13.2222C5.768 13.6252 5.926 14.0112 6.122 14.3732L4.843 16.7492C5.249 17.2602 5.712 17.7232 6.223 18.1292L8.6 16.8502C8.962 17.0462 9.348 17.2042 9.75 17.3242L10.526 19.9122C10.847 19.9492 11.171 19.9722 11.5 19.9722C11.829 19.9722 12.154 19.9492 12.474 19.9122L13.25 17.3242C13.652 17.2042 14.038 17.0462 14.4 16.8502L16.776 18.1292C17.287 17.7222 17.75 17.2592 18.156 16.7482L16.878 14.3722C17.074 14.0102 17.232 13.6242 17.352 13.2222L19.94 12.4462ZM16.548 12.4192L16.394 12.9372C16.294 13.2742 16.161 13.5972 15.998 13.8962L15.742 14.3712L15.997 14.8462L16.949 16.6162C16.85 16.7212 16.748 16.8232 16.643 16.9222L14.4 15.7132L13.925 15.9692C13.624 16.1322 13.301 16.2642 12.965 16.3652L12.447 16.5192L12.292 17.0372L11.713 18.9692C11.641 18.9712 11.57 18.9722 11.5 18.9722C11.43 18.9722 11.359 18.9712 11.287 18.9692L10.708 17.0372L10.553 16.5192L10.035 16.3652C9.699 16.2652 9.376 16.1322 9.076 15.9692L8.601 15.7132L6.356 16.9202C6.252 16.8212 6.149 16.7192 6.05 16.6142L7.258 14.3702L7.002 13.8952C6.84 13.5952 6.707 13.2722 6.606 12.9352L6.453 12.4182L4.004 11.6842C4.001 11.6122 4 11.5412 4 11.4722C4 11.4022 4.001 11.3312 4.004 11.2592L6.452 10.5252L6.606 10.0072C6.706 9.67024 6.839 9.34724 7.002 9.04824L7.258 8.57324L6.05 6.32824C6.149 6.22424 6.251 6.12124 6.355 6.02224L8.602 7.23224L9.078 6.97324C9.375 6.81124 9.697 6.67824 10.034 6.57824L10.552 6.42424L10.707 5.90624L11.286 3.97424C11.359 3.97324 11.43 3.97224 11.5 3.97224C11.57 3.97224 11.641 3.97324 11.713 3.97524L12.292 5.90724L12.447 6.42524L12.965 6.57924C13.3 6.67924 13.624 6.81224 13.925 6.97524L14.4 7.23024L16.644 6.02224C16.748 6.12124 16.851 6.22324 16.95 6.32824L15.997 8.09824L15.742 8.57324L15.999 9.04824C16.162 9.34824 16.294 9.67024 16.394 10.0052L16.548 10.5232L17.066 10.6782L18.998 11.2592C18.999 11.3312 19 11.4022 19 11.4722C19 11.5422 18.999 11.6132 18.996 11.6852L16.548 12.4192Z" fill="currentColor" fill-opacity="0.87"/>
</svg>
