<svg width="24" height="24" viewBox="0 0 24 24" fill="none" xmlns="http://www.w3.org/2000/svg">
<path fill-rule="evenodd" clip-rule="evenodd" d="M9.70255 6.45558C9.93432 6.35943 10.1273 6.18178 10.2205 5.94879L10.7485 4.62861C10.9004 4.24895 11.2681 4 11.677 4H12.323C12.7319 4 13.0996 4.24895 13.2514 4.62861L13.7795 5.94878C13.8727 6.18177 14.0657 6.35943 14.2974 6.45558C14.5294 6.55181 14.7896 6.56176 15.0204 6.46284L16.3273 5.90273C16.7032 5.74166 17.1392 5.82563 17.4284 6.11477L17.8851 6.57152C18.1742 6.86066 18.2582 7.2967 18.0971 7.67254L17.5371 8.97928C17.4382 9.21017 17.4481 9.47046 17.5444 9.70248C17.6406 9.93434 17.8183 10.1274 18.0513 10.2206L19.3713 10.7486C19.7509 10.9004 19.9999 11.2681 19.9999 11.677V12.323C19.9999 12.7319 19.7509 13.0996 19.3713 13.2514L18.0513 13.7794C17.8183 13.8726 17.6406 14.0656 17.5444 14.2974C17.4482 14.5294 17.4382 14.7897 17.5371 15.0205L18.0972 16.3274C18.2583 16.7032 18.1743 17.1393 17.8852 17.4284L17.4284 17.8851C17.1393 18.1743 16.7033 18.2583 16.3274 18.0972L15.0206 17.5371C14.7898 17.4382 14.5295 17.4481 14.2975 17.5444C14.0657 17.6406 13.8727 17.8183 13.7795 18.0513L13.2514 19.3714C13.0996 19.751 12.7319 20 12.323 20H11.677C11.2681 20 10.9004 19.751 10.7485 19.3714L10.2205 18.0513C10.1273 17.8182 9.9343 17.6406 9.70248 17.5444C9.47049 17.4482 9.21024 17.4382 8.97939 17.5371L7.67242 18.0973C7.29658 18.2583 6.86054 18.1744 6.5714 17.8852L6.11465 17.4285C5.82551 17.1393 5.74154 16.7033 5.90261 16.3275L6.46282 15.0203C6.56172 14.7895 6.55177 14.5294 6.45557 14.2974C6.35943 14.0657 6.18179 13.8728 5.94883 13.7796L4.62849 13.2514C4.24883 13.0996 3.99988 12.7319 3.99988 12.323V11.677C3.99988 11.2681 4.24883 10.9004 4.62849 10.7486L5.94878 10.2204C6.18177 10.1272 6.35944 9.93428 6.45559 9.70249C6.55182 9.47053 6.56178 9.21031 6.46285 8.97948L5.9027 7.67246C5.74162 7.29662 5.8256 6.86057 6.11474 6.57143L6.57148 6.11469C6.86062 5.82555 7.29667 5.74157 7.67251 5.90265L8.9796 6.46283C9.2104 6.56175 9.4706 6.5518 9.70255 6.45558ZM11.677 2H12.323C13.5497 2 14.6528 2.74685 15.1084 3.88583L15.2325 4.19603L15.5395 4.06444C16.667 3.58122 17.9752 3.83314 18.8426 4.70056L19.2993 5.1573C20.1667 6.02472 20.4187 7.33285 19.9354 8.46038L19.8038 8.7675L20.114 8.8916C21.253 9.34719 21.9999 10.4503 21.9999 11.677V12.323C21.9999 13.5497 21.253 14.6528 20.114 15.1084L19.8039 15.2324L19.9355 15.5395C20.4187 16.6671 20.1668 17.9752 19.2994 18.8426L18.8427 19.2994C17.9752 20.1668 16.6671 20.4187 15.5396 19.9355L15.2325 19.8039L15.1084 20.1142C14.6528 21.2531 13.5497 22 12.323 22H11.677C10.4503 22 9.34718 21.2531 8.89159 20.1142L8.76748 19.8039L8.46026 19.9356C7.33273 20.4188 6.0246 20.1669 5.15718 19.2994L4.70044 18.8427C3.83302 17.9753 3.5811 16.6671 4.06432 15.5396L4.19595 15.2325L3.88571 15.1084C2.74673 14.6528 1.99988 13.5497 1.99988 12.323V11.677C1.99988 10.4503 2.74673 9.34719 3.88571 8.8916L4.19605 8.76746L4.06441 8.4603C3.58118 7.33277 3.83311 6.02463 4.70052 5.15722L5.15727 4.70047C6.02469 3.83306 7.33282 3.58113 8.46035 4.06436L8.76752 4.196L8.89159 3.88583C9.34718 2.74685 10.4503 2 11.677 2ZM12 14C13.1046 14 14 13.1046 14 12C14 10.8954 13.1046 10 12 10C10.8954 10 9.99999 10.8954 9.99999 12C9.99999 13.1046 10.8954 14 12 14ZM16 12C16 14.2091 14.2091 16 12 16C9.79085 16 7.99999 14.2091 7.99999 12C7.99999 9.79086 9.79085 8 12 8C14.2091 8 16 9.79086 16 12Z" fill="#808080"/>
</svg>
