<svg width="24" height="24" viewBox="0 0 24 24" fill="none" xmlns="http://www.w3.org/2000/svg">
<path d="M18 5.00027C18 6.65427 16.654 8.01628 15 8.01628C13.346 8.01628 12 6.65427 12 5.00027H11C11 6.65427 9.654 8.01628 8 8.01628C6.346 8.01628 5 6.65427 5 5.00027H4V11.8633C4 17.2683 11.002 19.8633 11.301 19.9703L11.467 20.0003L11.634 19.9733C11.934 19.8703 19 17.3863 19 11.8353V5.00027H18ZM5 11.8623V7.65828C5.733 8.49028 6.807 9.01628 8 9.01628C9.196 9.01628 10.266 8.48328 11 7.64728V18.7613C9.341 18.0143 5 15.6943 5 11.8623ZM18 11.8353C18 15.7303 13.707 17.9983 12 18.7473V7.64628C12.734 8.48228 13.804 9.01528 15 9.01528C16.193 9.01528 17.267 8.49028 18 7.65828V11.8353Z" fill="currentColor"/>
</svg>
