<svg width="24" height="24" viewBox="0 0 24 24" fill="none" xmlns="http://www.w3.org/2000/svg">
<path d="M11.5 8.00027C9.57 8.00027 8 9.57027 8 11.5003C8 13.4303 9.57 15.0003 11.5 15.0003C13.43 15.0003 15 13.4303 15 11.5003C15 9.57027 13.43 8.00027 11.5 8.00027ZM11.5 14.0003C10.122 14.0003 9 12.8783 9 11.5003C9 10.1223 10.122 9.00027 11.5 9.00027C12.878 9.00027 14 10.1223 14 11.5003C14 12.8783 12.878 14.0003 11.5 14.0003ZM12 7.00027H11V4.00027H12V7.00027ZM11 16.0003H12V19.0003H11V16.0003ZM19 11.0003V12.0003H16V11.0003H19ZM7 12.0003H4V11.0003H7V12.0003ZM15.036 8.67127L14.329 7.96427L16.45 5.84327L17.157 6.55027L15.036 8.67127ZM7.964 14.3293L8.671 15.0363L6.55 17.1573L5.843 16.4503L7.964 14.3293ZM15.036 14.3293L17.157 16.4503L16.45 17.1573L14.329 15.0363L15.036 14.3293ZM7.964 8.67127L5.843 6.55027L6.55 5.84327L8.671 7.96427L7.964 8.67127Z" fill="currentColor"/>
</svg>
