<svg width="24" height="24" viewBox="0 0 24 24" fill="none" xmlns="http://www.w3.org/2000/svg">
<path d="M6.75003 15.5C5.78503 15.5 5.00003 16.285 5.00003 17.25C5.00003 18.215 5.78503 19 6.75003 19C7.71503 19 8.50003 18.215 8.50003 17.25C8.50003 16.285 7.71503 15.5 6.75003 15.5ZM6.75003 18C6.33603 18 6.00003 17.663 6.00003 17.25C6.00003 16.837 6.33603 16.5 6.75003 16.5C7.16403 16.5 7.50003 16.837 7.50003 17.25C7.50003 17.663 7.16403 18 6.75003 18ZM15.25 15.5C14.285 15.5 13.5 16.285 13.5 17.25C13.5 18.215 14.285 19 15.25 19C16.215 19 17 18.215 17 17.25C17 16.285 16.215 15.5 15.25 15.5ZM15.25 18C14.836 18 14.5 17.663 14.5 17.25C14.5 16.837 14.836 16.5 15.25 16.5C15.664 16.5 16 16.837 16 17.25C16 17.663 15.664 18 15.25 18ZM17.371 5L17.069 7H3.92603L5.04403 15.036H16.957L17.995 7.573L18.231 6H21V5H17.371ZM16.926 8L16.787 9H5.21303L5.07403 8H16.926ZM5.91403 14.036L5.35303 10H16.648L16.087 14.036H5.91403Z" fill="currentColor" fill-opacity="0.87"/>
</svg>
