<svg width="24" height="24" viewBox="0 0 24 24" fill="none" xmlns="http://www.w3.org/2000/svg">
<mask id="mask0_13744_10326" style="mask-type:alpha" maskUnits="userSpaceOnUse" x="0" y="0" width="24" height="24">
<rect width="24" height="24" fill="#D9D9D9"/>
</mask>
<g mask="url(#mask0_13744_10326)">
<path d="M12 22C10.6167 22 9.31667 21.7373 8.1 21.212C6.88333 20.6873 5.825 19.975 4.925 19.075C4.025 18.175 3.31267 17.1167 2.788 15.9C2.26267 14.6833 2 13.3833 2 12C2 10.6167 2.26267 9.31667 2.788 8.1C3.31267 6.88333 4.025 5.825 4.925 4.925C5.825 4.025 6.88333 3.31233 8.1 2.787C9.31667 2.26233 10.6167 2 12 2H13V10.275C13.3 10.4583 13.5417 10.6957 13.725 10.987C13.9083 11.279 14 11.6167 14 12C14 12.55 13.8043 13.0207 13.413 13.412C13.021 13.804 12.55 14 12 14C11.45 14 10.9793 13.804 10.588 13.412C10.196 13.0207 10 12.55 10 12C10 11.6167 10.0917 11.275 10.275 10.975C10.4583 10.675 10.7 10.4417 11 10.275V8.125C10.1333 8.35833 9.41667 8.829 8.85 9.537C8.28333 10.2457 8 11.0667 8 12C8 13.1 8.39167 14.0417 9.175 14.825C9.95833 15.6083 10.9 16 12 16C13.1 16 14.0417 15.6083 14.825 14.825C15.6083 14.0417 16 13.1 16 12C16 11.4 15.879 10.8457 15.637 10.337C15.3957 9.829 15.0667 9.38333 14.65 9L16.075 7.575C16.6583 8.125 17.125 8.779 17.475 9.537C17.825 10.2957 18 11.1167 18 12C18 13.6667 17.4167 15.0833 16.25 16.25C15.0833 17.4167 13.6667 18 12 18C10.3333 18 8.91667 17.4167 7.75 16.25C6.58333 15.0833 6 13.6667 6 12C6 10.5 6.475 9.196 7.425 8.088C8.375 6.97933 9.56667 6.30833 11 6.075V4.05C9.01667 4.3 7.35433 5.175 6.013 6.675C4.671 8.175 4 9.95 4 12C4 14.2333 4.775 16.125 6.325 17.675C7.875 19.225 9.76667 20 12 20C14.2333 20 16.125 19.225 17.675 17.675C19.225 16.125 20 14.2333 20 12C20 10.85 19.775 9.775 19.325 8.775C18.875 7.775 18.2583 6.90833 17.475 6.175L18.9 4.75C19.85 5.66667 20.6043 6.74567 21.163 7.987C21.721 9.229 22 10.5667 22 12C22 13.3833 21.7373 14.6833 21.212 15.9C20.6873 17.1167 19.975 18.175 19.075 19.075C18.175 19.975 17.1167 20.6873 15.9 21.212C14.6833 21.7373 13.3833 22 12 22Z" fill="url(#paint0_linear_13744_10326)"/>
</g>
<defs>
<linearGradient id="paint0_linear_13744_10326" x1="18.034" y1="18.7895" x2="18.034" y2="7.31891" gradientUnits="userSpaceOnUse">
<stop stop-color="#FABE4C"/>
<stop offset="1" stop-color="#FA9751"/>
</linearGradient>
</defs>
</svg>
