<svg width="24" height="24" viewBox="0 0 24 24" fill="none" xmlns="http://www.w3.org/2000/svg">
<path fill-rule="evenodd" clip-rule="evenodd" d="M8.99986 9C11.9999 9 11.9999 6.54852 11.9999 4.04853V3C11.6469 3 11.314 3.01495 10.9999 3.04413C6.86367 3.42847 5.99985 6.28233 5.99985 10C5.99985 10.6383 5.99985 12 5.00011 12L5 13C5.82156 14.068 7.65557 14.2586 9.3929 13.5717C9.42865 13.5576 9.46435 13.5431 9.5 13.5282V14.8466C6.14892 15.3542 3.57195 17.1622 3.08363 19.9999C3.02851 20.3202 3 20.6537 3 20.9999H20C20 20.6537 19.9715 20.3202 19.9164 19.9999C19.4281 17.1622 16.8511 15.3542 13.5 14.8466V13.5283C15.2686 14.2661 17.1615 14.09 18 13L17.9999 12C17 12 17 10.6382 17 10C17 5.57876 15.4362 3.50319 13 3.08194C12.6811 3.0268 12.3471 3 11.9999 3V4.04853C11.9999 5.04853 13 8 14 9C14 10.599 13.5739 11.6298 13.1758 12.2439C12.8271 12.7819 12.5 13 12.5 13L12.5 15.7065L13.3502 15.8353C16.3854 16.2951 18.4236 17.8199 18.8953 19.9999H4.10466C4.57636 17.8199 6.61461 16.2951 9.64978 15.8353L10.5 15.7065V13C10.1725 13 9.89849 12.7373 9.67825 12.3295C9.359 11.7384 9.15243 10.8425 9.05853 9.99973C9.01942 9.64861 8.99986 9.30673 8.99986 9ZM8.76285 12.7373C8.62087 12.4617 8.50897 12.1655 8.41973 11.8778C8.13551 10.9613 7.99985 9.85954 7.99986 9L7.99986 8H8.99986C9.61268 8 9.97167 7.87289 10.1903 7.73116C10.4026 7.59355 10.5679 7.38719 10.6964 7.06611C10.981 6.35468 10.9994 5.34072 10.9998 4.04853C9.36367 4.21819 8.47438 4.8159 7.94409 5.57346C7.25645 6.5558 6.99985 8.03532 6.99985 10L6.99987 10.033C7.00012 10.3397 7.00063 10.9623 6.83339 11.5246C6.74407 11.8249 6.5842 12.1918 6.27758 12.492C6.21703 12.5512 6.15291 12.6057 6.08547 12.6553C6.37505 12.8443 6.80337 12.975 7.37498 12.975C7.80779 12.975 8.2829 12.8972 8.76285 12.7373ZM14.0814 12.6826L14.1075 12.6395C14.5785 11.8544 15 10.6757 15 9V8.58579L14.7071 8.29289C14.3711 7.95685 13.9317 7.13664 13.5613 6.14888C13.3858 5.68075 13.2413 5.21706 13.142 4.81996C13.0601 4.49241 13.0193 4.25028 13.0055 4.10129C13.7702 4.269 14.3744 4.64589 14.8357 5.23894C15.5176 6.11572 16 7.60828 16 10L16 10.0328C15.9997 10.3393 15.9992 10.9621 16.1665 11.5244C16.2558 11.8247 16.4157 12.1917 16.7223 12.4919C16.7829 12.5512 16.847 12.6057 16.9145 12.6553C16.6249 12.8443 16.1966 12.975 15.625 12.975C15.1454 12.975 14.6139 12.8795 14.0814 12.6826Z" fill="currentColor" fill-opacity="0.87"/>
</svg>
