<svg width="24" height="24" fill="none" xmlns="http://www.w3.org/2000/svg"><path fill-rule="evenodd" clip-rule="evenodd" d="M8.076 18h7.848c-.085-.488-.23-.82-.392-1.052-.173-.248-.4-.43-.698-.57C14.185 16.076 13.258 16 12 16s-2.185.076-2.834.378a1.682 1.682 0 00-.698.57c-.162.232-.307.564-.392 1.052zm.245-3.434C9.421 14.053 10.771 14 12 14c1.23 0 2.579.053 3.679.566a3.68 3.68 0 011.493 1.237c.396.566.641 1.255.754 2.06C18.101 19.11 17.055 20 16 20H8c-1.055 0-2.101-.889-1.926-2.137.113-.805.358-1.494.754-2.06a3.68 3.68 0 011.493-1.238z" fill="currentColor"/><path fill-rule="evenodd" clip-rule="evenodd" d="M12 10a1 1 0 100 2 1 1 0 000-2zm-3 1a3 3 0 116 0 3 3 0 01-6 0zm7-6a1 1 0 100 2 1 1 0 000-2zm-3 1a3 3 0 116 0 3 3 0 01-6 0z" fill="currentColor"/><path fill-rule="evenodd" clip-rule="evenodd" d="M16 7a1 1 0 011 1v1l.004.004a.066.066 0 00.044.018c1.051.05 2.172.212 3.09.794.983.623 1.59 1.631 1.788 3.047C22.101 14.11 21.055 15 20 15h-3a1 1 0 110-2h2.924c-.147-.853-.48-1.256-.857-1.495-.461-.293-1.143-.439-2.115-.486C15.902 10.97 15 10.121 15 9V8a1 1 0 011-1zM8 5a1 1 0 110 2 1 1 0 010-2zm3 1a3 3 0 10-6 0 3 3 0 006 0z" fill="currentColor"/><path fill-rule="evenodd" clip-rule="evenodd" d="M8 7a1 1 0 00-1 1v1l-.004.004a.067.067 0 01-.044.018c-1.051.05-2.172.212-3.09.794-.983.623-1.59 1.631-1.788 3.047C1.899 14.11 2.945 15 4 15h3a1 1 0 100-2H4.076c.147-.853.48-1.256.857-1.495.461-.293 1.143-.439 2.115-.486C8.098 10.97 9 10.121 9 9V8a1 1 0 00-1-1z" fill="currentColor"/></svg>