<svg width="24" height="24" viewBox="0 0 24 24" fill="none" xmlns="http://www.w3.org/2000/svg">
<path d="M19.989 19.4884C19.9261 16.8014 17.2148 14.4894 13.4768 13.8794V12.5054C13.9682 12.0324 14.3177 11.2984 14.5464 10.6724C14.8779 10.5064 15.1695 10.1364 15.3393 9.63943C15.577 8.95143 15.4851 8.31643 15.1336 8.01043C15.1615 7.77243 15.1795 7.52943 15.1486 7.28743C15.0697 6.62443 15.2135 6.24943 15.3423 5.91943C15.4482 5.64243 15.571 5.32843 15.4482 4.97443C15.0068 3.70143 13.7235 3.00043 11.835 3.00043L11.5714 3.00543C10.2602 3.05243 9.86671 3.60543 9.60307 4.12043C9.57011 4.18243 9.52617 4.26643 9.52617 4.27143C7.81648 4.42443 7.83146 5.84043 7.84445 6.97843L7.84744 7.34743C7.84744 7.55243 7.85643 7.76643 7.87341 7.98643C7.44898 8.28643 7.37009 8.99143 7.69465 9.72343C7.8794 10.1384 8.14604 10.4524 8.44264 10.6154C8.68531 11.2894 9.06679 12.0854 9.62004 12.5804V13.8634C5.82718 14.4524 3.0749 16.7704 3.01198 19.4884L3 20.0004H20L19.989 19.4884ZM4.06456 19.0004C4.45603 16.9064 6.9197 15.1794 10.1783 14.7964L10.6187 14.7444V12.0784L10.403 11.9284C10.0105 11.6564 9.61305 10.9814 9.31446 10.0774L9.23157 9.79643L8.93797 9.74543C8.88504 9.72643 8.73025 9.59243 8.60841 9.31743C8.53351 9.14943 8.50455 9.00543 8.49656 8.90243L9.00587 9.04543L8.91 8.29643C8.86806 7.96643 8.84609 7.64543 8.84609 7.34643L8.8431 6.96643C8.82812 5.62543 8.89403 5.33243 9.61505 5.26743C10.1593 5.21943 10.366 4.81843 10.4899 4.57843C10.6397 4.28643 10.7695 4.03543 11.6084 4.00443L11.835 4.00043C12.6629 4.00043 14.111 4.16943 14.5004 5.28243C14.5004 5.32543 14.4485 5.45943 14.4106 5.55743C14.2658 5.93143 14.0471 6.49643 14.1569 7.41043C14.1809 7.59843 14.1499 7.83443 14.117 8.08543L14.0281 8.89043L14.4685 8.84243C14.4765 8.94643 14.4645 9.11143 14.3936 9.31443C14.2967 9.60343 14.1519 9.75243 14.1569 9.76843H13.7974L13.6835 10.1104C13.4009 10.9634 13.0344 11.6074 12.6759 11.8784L12.4782 12.0284V14.7544L12.9156 14.8094C16.1222 15.2104 18.549 16.9324 18.9374 19.0014H4.06456V19.0004Z" fill="currentColor" fill-opacity="0.87"/>
</svg>
