<svg width="24" height="24" viewBox="0 0 24 24" fill="none" xmlns="http://www.w3.org/2000/svg">
<path fill-rule="evenodd" clip-rule="evenodd" d="M2 7C2 5.34315 3.34315 4 5 4H18C19.6569 4 21 5.34315 21 7V8.76389C21.6137 9.31321 22 10.1115 22 11V17C22 18.6569 20.6569 20 19 20H5C3.34315 20 2 18.6569 2 17V7ZM4 9.82929V17C4 17.5523 4.44772 18 5 18H19C19.5523 18 20 17.5523 20 17V11C20 10.4477 19.5523 10 19 10H5C4.64936 10 4.31278 9.93985 4 9.82929ZM4 7C4 7.55228 4.44772 8 5 8H19V7C19 6.44772 18.5523 6 18 6H5C4.44772 6 4 6.44772 4 7Z" fill="currentColor"/>
<path d="M18 14.5C18 15.3284 17.3284 16 16.5 16C15.6716 16 15 15.3284 15 14.5C15 13.6716 15.6716 13 16.5 13C17.3284 13 18 13.6716 18 14.5Z" fill="currentColor"/>
</svg>
