<svg width="24" height="24" viewBox="0 0 24 24" fill="none" xmlns="http://www.w3.org/2000/svg">
<path d="M4.564 5.00026C3.71 5.00026 3.014 5.68952 3.014 6.53661H3V17.4639C3 18.311 3.695 19.0003 4.55 19.0003H17.042C17.5943 19.0003 18.042 18.5525 18.042 18.0003V17.347H19C19.5523 17.347 20 16.8993 20 16.347V6.00026C20 5.44797 19.5523 5.00026 19 5.00026H4.564ZM4.55 18.0003C4.247 18.0003 4 17.7596 4 17.4629V7.89016C4.024 7.89716 4.054 7.89516 4.078 7.90215C4.221 7.94411 4.371 7.97008 4.531 7.97307C4.538 7.97307 4.543 7.97607 4.55 7.97607H17.043V11.0078H14.184C13.322 11.0078 12.621 11.6801 12.621 12.5062V13.5051C12.621 14.3313 13.322 15.0035 14.184 15.0035H17.043V18.0003H4.55ZM14.183 14.0046C13.872 14.0046 13.62 13.7809 13.62 13.5051V12.5062C13.62 12.2305 13.873 12.0068 14.183 12.0068H19V14.0046H14.183ZM19 16.3471H18.042V15.0035H19V16.3471ZM18.042 11.0078V7.97714C18.042 7.42486 17.5943 6.97714 17.042 6.97714H4.564C4.291 6.97714 4.014 6.84029 4.014 6.53661C4.015 6.23993 4.262 5.99919 4.564 5.99919H19V11.0078H18.042Z" fill="currentColor" fill-opacity="0.87"/>
</svg>
