<svg width="31" height="31" viewBox="0 0 31 31" fill="none" xmlns="http://www.w3.org/2000/svg">
<path d="M30 15.5C30 23.5081 23.5081 30 15.5 30C7.49187 30 1 23.5081 1 15.5C1 7.49187 7.49187 1 15.5 1C23.5081 1 30 7.49187 30 15.5Z" stroke="currentColor" stroke-width="2"/>
<path fill-rule="evenodd" clip-rule="evenodd" d="M23 17.7913V13.2087C23 13.2087 23 11 20.5874 11H11.4118C11.4118 11 9 11 9 13.2087V17.7913C9 17.7913 9 20 11.4118 20H20.5874C20.5874 20 23 20 23 17.7913ZM18.718 15.5064L14.1348 17.9706V13.0414L18.718 15.5064Z" fill="currentColor"/>
</svg>
