<svg width="2929" height="1220" fill="none" xmlns="http://www.w3.org/2000/svg"><path fill-rule="evenodd" clip-rule="evenodd" d="M524.998 1035.29s307.185 229.27 852.102 166.04c347.72-40.34 606.29-36.14 747.9-27.82 0 0 267.11 21.58 424 0S2928.5 1063 2928.5 1063V281H.998S52.429 497 172.5 692.5c120.071 195.5 352.498 342.79 352.498 342.79z" fill="url(#paint0_linear)"/><path d="M1709.52 1052.91c-51.04-448.751-167.23-339.014-411.52-475.698-165.73-92.727-196.38-222.64-198.96-296.609-6.5-277.5 789.41-410.542 1094-108 223 221.499 280.75 498.499 177 665.499-56.86 91.526-134.5 185.998-244.38 269.258-172.83 142.05-390.04 175.11-416.14-54.45z" fill="url(#paint1_linear)"/><mask id="a" maskUnits="userSpaceOnUse" x="1099" y="0" width="1321" height="1220"><path d="M1709.52 1052.91c-51.04-448.751-167.23-339.014-411.52-475.698-165.73-92.727-196.38-222.64-198.96-296.609-6.5-277.5 789.41-410.542 1094-108 223 221.499 280.75 498.499 177 665.499-56.86 91.526-134.5 185.998-244.38 269.258-172.83 142.05-390.04 175.11-416.14-54.45z" fill="url(#paint2_linear)"/></mask><g mask="url(#a)" fill-rule="evenodd" clip-rule="evenodd"><path d="M1934 1140c281.11 0 509-227.887 509-509s-227.89-509-509-509-509 227.887-509 509 227.89 509 509 509z" fill="url(#paint3_linear)"/><path d="M2056.5 1217c100.24 0 181.5-81.26 181.5-181.5S2156.74 854 2056.5 854 1875 935.26 1875 1035.5s81.26 181.5 181.5 181.5z" fill="url(#paint4_linear)"/></g><defs><linearGradient id="paint0_linear" x1="326.469" y1="627.383" x2="456.49" y2="1357.47" gradientUnits="userSpaceOnUse"><stop stop-color="#fff"/><stop offset="1" stop-color="#FAF8F5"/></linearGradient><linearGradient id="paint1_linear" x1="1099" y1="1219.61" x2="2419.9" y2="1219.61" gradientUnits="userSpaceOnUse"><stop stop-color="#FFB300"/><stop offset="1" stop-color="#FF8E36"/></linearGradient><linearGradient id="paint2_linear" x1="1099" y1="1219.61" x2="2419.9" y2="1219.61" gradientUnits="userSpaceOnUse"><stop stop-color="#FFB300"/><stop offset="1" stop-color="#FF8E36"/></linearGradient><linearGradient id="paint3_linear" x1="1425" y1="122" x2="1425" y2="1140" gradientUnits="userSpaceOnUse"><stop stop-color="#FFA561"/><stop offset="1" stop-color="#FFC75D" stop-opacity=".01"/></linearGradient><linearGradient id="paint4_linear" x1="2238" y1="1217" x2="2238" y2="854" gradientUnits="userSpaceOnUse"><stop stop-color="#FFC65D" stop-opacity=".395"/><stop offset="1" stop-color="#FFAE61" stop-opacity=".01"/></linearGradient></defs></svg>