<svg width="1600" height="383" viewBox="0 0 1600 383" fill="none" xmlns="http://www.w3.org/2000/svg">
<mask id="mask0" mask-type="alpha" maskUnits="userSpaceOnUse" x="0" y="0" width="1600" height="383">
<rect width="1600" height="383" fill="white"/>
</mask>
<g mask="url(#mask0)">
<path fill-rule="evenodd" clip-rule="evenodd" d="M914 -279.839C914 -279.839 511.672 -110.937 588.659 46.5638C665.646 204.065 925.656 103.914 1232 224C1553.43 350 2121.72 84.0273 1901.05 -209.884C1494.21 -751.758 1624.08 -364 1624.08 -364L914 -279.839Z" fill="#D8D8D8"/>
<rect x="-169" y="-60" width="1769" height="1005" fill="url(#paint0_linear)"/>
<path fill-rule="evenodd" clip-rule="evenodd" d="M1409 859C1690.11 859 1918 631.113 1918 350C1918 68.8871 1690.11 -159 1409 -159C1127.89 -159 900 68.8871 900 350C900 631.113 1127.89 859 1409 859Z" fill="url(#paint1_linear)"/>
<path fill-rule="evenodd" clip-rule="evenodd" d="M870 408C1151.11 408 1379 180.113 1379 -101C1379 -382.113 1151.11 -610 870 -610C588.887 -610 361 -382.113 361 -101C361 180.113 588.887 408 870 408Z" fill="url(#paint2_linear)"/>
<path fill-rule="evenodd" clip-rule="evenodd" d="M111.5 579C214.501 579 298 495.501 298 392.5C298 289.499 214.501 206 111.5 206C8.49889 206 -75 289.499 -75 392.5C-75 495.501 8.49889 579 111.5 579Z" fill="url(#paint3_linear)"/>
<path fill-rule="evenodd" clip-rule="evenodd" d="M1527.5 579C1630.5 579 1714 495.501 1714 392.5C1714 289.499 1630.5 206 1527.5 206C1424.5 206 1341 289.499 1341 392.5C1341 495.501 1424.5 579 1527.5 579Z" fill="url(#paint4_linear)"/>
</g>
<defs>
<linearGradient id="paint0_linear" x1="-870.835" y1="408.352" x2="-167.513" y2="1723.21" gradientUnits="userSpaceOnUse">
<stop stop-color="#FFC85D"/>
<stop offset="1" stop-color="#FF9E64"/>
</linearGradient>
<linearGradient id="paint1_linear" x1="570.903" y1="-71.6844" x2="860.9" y2="1143.35" gradientUnits="userSpaceOnUse">
<stop stop-color="#FFA561"/>
<stop offset="1" stop-color="#FFC75D" stop-opacity="0.01"/>
</linearGradient>
<linearGradient id="paint2_linear" x1="31.9031" y1="-522.684" x2="321.9" y2="692.354" gradientUnits="userSpaceOnUse">
<stop stop-color="#FFA561"/>
<stop offset="1" stop-color="#FFC75D" stop-opacity="0.119482"/>
</linearGradient>
<linearGradient id="paint3_linear" x1="298" y1="579" x2="298" y2="206" gradientUnits="userSpaceOnUse">
<stop stop-color="#FFC65D" stop-opacity="0.149749"/>
<stop offset="1" stop-color="#FFAC61" stop-opacity="0.229759"/>
</linearGradient>
<linearGradient id="paint4_linear" x1="1714" y1="579" x2="1714" y2="206" gradientUnits="userSpaceOnUse">
<stop stop-color="#FFC65D" stop-opacity="0.149749"/>
<stop offset="1" stop-color="#FFC25D" stop-opacity="0.174415"/>
</linearGradient>
</defs>
</svg>
