<svg width="2929" height="1220" fill="none" xmlns="http://www.w3.org/2000/svg"><path fill-rule="evenodd" clip-rule="evenodd" d="M525 1035s307 230 852 166c348-40 606-36 748-27 0 0 267 21 424 0s380-111 380-111V281H1s51 216 172 412c120 195 352 342 352 342z" fill="url(#paint0_linear)"/><path d="M1710 1053c-52-449-168-339-412-476-166-93-196-222-199-296-6-278 789-411 1094-108 223 221 281 498 177 665a988 988 0 01-244 269c-173 142-390 175-416-54z" fill="url(#paint1_linear)"/><mask id="a" maskUnits="userSpaceOnUse" x="1099" y="0" width="1321" height="1220"><path d="M1710 1053c-52-449-168-339-412-476-166-93-196-222-199-296-6-278 789-411 1094-108 223 221 281 498 177 665a988 988 0 01-244 269c-173 142-390 175-416-54z" fill="url(#paint2_linear)"/></mask><g mask="url(#a)" fill-rule="evenodd" clip-rule="evenodd"><path d="M1934 1140a509 509 0 100-1018 509 509 0 000 1018z" fill="url(#paint3_linear)"/><path d="M2057 1217a181 181 0 100-363 181 181 0 000 363z" fill="url(#paint4_linear)"/></g><defs><linearGradient id="paint0_linear" x1="326" y1="627" x2="456" y2="1357" gradientUnits="userSpaceOnUse"><stop stop-color="#fff"/><stop offset="1" stop-color="#FAF8F5"/></linearGradient><linearGradient id="paint1_linear" x1="1099" y1="1220" x2="2420" y2="1220" gradientUnits="userSpaceOnUse"><stop stop-color="#FFB300"/><stop offset="1" stop-color="#FF8E36"/></linearGradient><linearGradient id="paint2_linear" x1="1099" y1="1220" x2="2420" y2="1220" gradientUnits="userSpaceOnUse"><stop stop-color="#FFB300"/><stop offset="1" stop-color="#FF8E36"/></linearGradient><linearGradient id="paint3_linear" x1="1425" y1="122" x2="1425" y2="1140" gradientUnits="userSpaceOnUse"><stop stop-color="#FFA561"/><stop offset="1" stop-color="#FFC75D" stop-opacity="0"/></linearGradient><linearGradient id="paint4_linear" x1="2238" y1="1217" x2="2238" y2="854" gradientUnits="userSpaceOnUse"><stop stop-color="#FFC65D" stop-opacity="0"/><stop offset="1" stop-color="#FFAE61" stop-opacity="0"/></linearGradient></defs></svg>