<svg width="80" height="80" fill="none" xmlns="http://www.w3.org/2000/svg"><path d="M63 12c-14-8-32-8-46 0v10c0 19 9 35 23 43 14-8 23-24 23-43V12z" fill="url(#paint0_linear)"/><path fill-rule="evenodd" clip-rule="evenodd" d="M37 71l3 2 3-2c8-4 15-11 20-20 5-8 7-18 7-28v-2l-2-3a54 54 0 0 0-56 0l-2 3v2c0 10 3 20 7 28 5 9 12 16 20 20zM14 21a50 50 0 0 1 53 0v2c0 9-3 19-7 27-5 8-11 14-18 18l-2 1-2-1c-7-4-13-10-18-18-4-8-6-18-6-27v-2z" fill="url(#paint1_linear)"/><path d="M40 46h-1l-9-9a2 2 0 1 1 2-3l8 8 10-16a2 2 0 0 1 3 2L42 45l-2 1z" fill="#fff"/><defs><linearGradient id="paint0_linear" x1="17" y1="65" x2="63" y2="65" gradientUnits="userSpaceOnUse"><stop stop-color="#FFB833"/><stop offset="1" stop-color="#FF964D"/></linearGradient><linearGradient id="paint1_linear" x1="10" y1="72" x2="69" y2="72" gradientUnits="userSpaceOnUse"><stop stop-color="#658BF5"/><stop offset="1" stop-color="#8DB0FF"/></linearGradient></defs></svg>