<svg width="80" height="80" fill="none" xmlns="http://www.w3.org/2000/svg"><path d="M14 6v60h52V6H14z" fill="url(#paint0_linear)"/><path fill-rule="evenodd" clip-rule="evenodd" d="M10 10h60l2 2v59l-2 2H10l-2-2V12l2-2zm1 60h58V19H11v51z" fill="url(#paint1_linear)"/><path d="M13 16a2 2 0 10-1-3 2 2 0 001 3zm6 0a2 2 0 10-1-3 2 2 0 001 3zm5 0a2 2 0 10-1-3 2 2 0 001 3z" fill="#fff"/><path fill-rule="evenodd" clip-rule="evenodd" d="M30 37h21c1 0 2 1 2 3v15c0 2-1 3-2 3H30c-1 0-2-1-2-3V40c0-2 1-3 2-3zm12 15v-4l1-2c0-2-1-3-3-3-1 0-2 1-2 3l1 2v4h3z" fill="#fff"/><path d="M48 41l-2-2v-5c0-4-2-6-5-6-4-1-7 2-7 6v5l-1 2-2-2v-5c0-6 4-10 10-10 5 0 9 4 9 10v5l-2 2z" fill="#fff"/><defs><linearGradient id="paint0_linear" x1="14" y1="66" x2="66" y2="66" gradientUnits="userSpaceOnUse"><stop stop-color="#FFB833"/><stop offset="1" stop-color="#FF964D"/></linearGradient><linearGradient id="paint1_linear" x1="8" y1="72" x2="71" y2="72" gradientUnits="userSpaceOnUse"><stop stop-color="#658BF5"/><stop offset="1" stop-color="#8DB0FF"/></linearGradient></defs></svg>