<svg width="80" height="80" fill="none" xmlns="http://www.w3.org/2000/svg"><path d="M72 52L47 38l-3 2 25 14-28 16h-1L12 54l25-14-3-2L9 52v4l29 16a5 5 0 005 0l29-16v-4z" fill="url(#paint0_linear)"/><path d="M41 37l16-9-16-9-16 9 16 9z" fill="url(#paint1_linear)"/><path d="M74 40l-15-8-18 10h-2L21 31 5 40l35 20 34-20z" fill="url(#paint2_linear)"/><path fill-rule="evenodd" clip-rule="evenodd" d="M38 7a4 4 0 015 0l29 16v5L43 44a4 4 0 01-5 0L9 28v-5L38 7zm4 2h-2L13 25l27 16h2l27-16L42 9z" fill="url(#paint3_linear)"/><defs><linearGradient id="paint0_linear" x1="8" y1="73" x2="72" y2="73" gradientUnits="userSpaceOnUse"><stop stop-color="#658BF5"/><stop offset="1" stop-color="#8DB0FF"/></linearGradient><linearGradient id="paint1_linear" x1="25" y1="37" x2="57" y2="37" gradientUnits="userSpaceOnUse"><stop stop-color="#FFB833"/><stop offset="1" stop-color="#FF964D"/></linearGradient><linearGradient id="paint2_linear" x1="5" y1="60" x2="74" y2="60" gradientUnits="userSpaceOnUse"><stop stop-color="#FFB833"/><stop offset="1" stop-color="#FF964D"/></linearGradient><linearGradient id="paint3_linear" x1="8" y1="45" x2="72" y2="45" gradientUnits="userSpaceOnUse"><stop stop-color="#658BF5"/><stop offset="1" stop-color="#8DB0FF"/></linearGradient></defs></svg>