<svg width="31" height="31" viewBox="0 0 31 31" fill="none" xmlns="http://www.w3.org/2000/svg">
<path d="M14.2084 20.8604V24.3479C14.2084 27.2541 13.0459 28.4166 10.1396 28.4166H6.65212C3.74587 28.4166 2.58337 27.2541 2.58337 24.3479V20.8604C2.58337 17.9541 3.74587 16.7916 6.65212 16.7916H10.1396C13.0459 16.7916 14.2084 17.9541 14.2084 20.8604Z" fill="#D5DBE4"/>
<path d="M21.2867 2.5835H11.005C7.06542 2.5835 3.875 5.77391 3.875 9.7135V13.5627C3.875 14.2731 4.45625 14.8543 5.16667 14.8543H10.9792C13.8337 14.8543 16.1458 17.1664 16.1458 20.021V25.8335C16.1458 26.5439 16.7271 27.1252 17.4375 27.1252H21.2867C25.7429 27.1252 28.4167 24.4643 28.4167 19.9952V9.7135C28.4167 5.77391 25.2262 2.5835 21.2867 2.5835ZM24.2317 12.9039C24.2317 13.4335 23.7925 13.8727 23.2629 13.8727C22.7333 13.8727 22.2942 13.4335 22.2942 12.9039V10.0622L17.4762 14.8931C17.2825 15.0868 17.0371 15.1772 16.7917 15.1772C16.5462 15.1772 16.3008 15.0868 16.1071 14.8931C15.7325 14.5185 15.7325 13.8985 16.1071 13.5239L20.925 8.68016H18.0833C17.5408 8.68016 17.1146 8.25391 17.1146 7.71141C17.1146 7.18183 17.5408 6.74266 18.0833 6.74266H23.2629C23.3792 6.74266 23.4954 6.78141 23.5987 6.82016C23.6375 6.83308 23.6633 6.846 23.6892 6.85891C23.7667 6.89766 23.8312 6.93641 23.8958 7.001C23.9217 7.01391 23.9475 7.03975 23.9733 7.06558C24.0379 7.14308 24.0896 7.22058 24.1413 7.311C24.1413 7.32391 24.1542 7.33683 24.1542 7.34975C24.2058 7.45308 24.2188 7.56933 24.2188 7.68558C24.2317 7.6985 24.2317 7.6985 24.2317 7.71141V12.9039Z" fill="#D5DBE4"/>
</svg>
