<svg width="12" height="12" viewBox="0 0 12 12" fill="none" xmlns="http://www.w3.org/2000/svg">
<path d="M10.05 4.60972C9.145 4.60972 8.775 3.96972 9.225 3.18472C9.485 2.72972 9.33 2.14972 8.875 1.88972L8.01 1.39472C7.615 1.15972 7.105 1.29972 6.87 1.69472L6.815 1.78972C6.365 2.57472 5.625 2.57472 5.17 1.78972L5.115 1.69472C4.89 1.29972 4.38 1.15972 3.985 1.39472L3.12 1.88972C2.665 2.14972 2.51 2.73472 2.77 3.18972C3.225 3.96972 2.855 4.60972 1.95 4.60972C1.43 4.60972 1 5.03472 1 5.55972V6.43972C1 6.95972 1.425 7.38972 1.95 7.38972C2.855 7.38972 3.225 8.02972 2.77 8.81472C2.51 9.26972 2.665 9.84972 3.12 10.1097L3.985 10.6047C4.38 10.8397 4.89 10.6997 5.125 10.3047L5.18 10.2097C5.63 9.42472 6.37 9.42472 6.825 10.2097L6.88 10.3047C7.115 10.6997 7.625 10.8397 8.02 10.6047L8.885 10.1097C9.34 9.84972 9.495 9.26472 9.235 8.81472C8.78 8.02972 9.15 7.38972 10.055 7.38972C10.575 7.38972 11.005 6.96472 11.005 6.43972V5.55972C11 5.03972 10.575 4.60972 10.05 4.60972ZM6 7.62472C5.105 7.62472 4.375 6.89472 4.375 5.99972C4.375 5.10472 5.105 4.37472 6 4.37472C6.895 4.37472 7.625 5.10472 7.625 5.99972C7.625 6.89472 6.895 7.62472 6 7.62472Z" fill="#365FD9"/>
</svg>
