<svg width="61" height="70" fill="none" xmlns="http://www.w3.org/2000/svg"><path fill="url(#paint0_linear)" d="M44 0h17v70H44z"/><path fill="url(#paint1_linear)" d="M22 27h17v43H22z"/><path fill="url(#paint2_linear)" d="M0 39h17v31H0z"/><path d="M33.973 4.007l-8.436 1.102c-.77.096-1.082 1.031-.529 1.558l2.14 2.134L6.741 24.572a1.906 1.906 0 00-.337 2.685c.385.48.937.743 1.514.743.409 0 .817-.12 1.178-.407l20.79-16.084 2.428 2.421a.918.918 0 001.562-.527l1.106-8.413c.12-.552-.409-1.055-1.01-.983z" fill="url(#paint3_linear)"/><defs><linearGradient id="paint0_linear" x1="44" y1="70.014" x2="61.001" y2="70.014" gradientUnits="userSpaceOnUse"><stop stop-color="#FFB300"/><stop offset="1" stop-color="#FF8E37"/></linearGradient><linearGradient id="paint1_linear" x1="21.999" y1="69.998" x2="39.001" y2="69.998" gradientUnits="userSpaceOnUse"><stop stop-color="#FFB300"/><stop offset="1" stop-color="#FF8E37"/></linearGradient><linearGradient id="paint2_linear" x1="-.001" y1="70.014" x2="17" y2="70.014" gradientUnits="userSpaceOnUse"><stop stop-color="#FFB300"/><stop offset="1" stop-color="#FF8E37"/></linearGradient><linearGradient id="paint3_linear" x1="6.017" y1="28.016" x2="35.026" y2="28.016" gradientUnits="userSpaceOnUse"><stop stop-color="#5C8BFC"/><stop offset="1" stop-color="#84B0FF"/></linearGradient></defs></svg>