<svg width="84" height="70" fill="none" xmlns="http://www.w3.org/2000/svg"><path d="M26.842 36.82c.394.024.764.024 1.158.049V11.148H11.197v30.516c3.992-2.803 9.264-5.115 15.645-4.844z" fill="url(#paint0_linear)"/><path d="M26.596 42.721c-4.83-.196-9.51 1.55-13.871 5.189-.567.467-1.06.934-1.528 1.377v20.68H28V42.795l-1.404-.074z" fill="url(#paint1_linear)"/><path d="M50.926 41.536V20H34.123v17.805c6.086 1.025 10.545 2.78 16.803 3.732z" fill="url(#paint2_linear)"/><path d="M40.603 45.268c-2.144-.561-4.213-1.098-6.504-1.512V69.95h16.803V47.439c-3.918-.513-7.145-1.366-10.299-2.171z" fill="url(#paint3_linear)"/><path d="M57.232 47.768c-.37 0-.74 0-1.109-.025h-.099V69.95h16.803V42.764c-4.311 2.884-9.56 5.004-15.595 5.004z" fill="url(#paint4_linear)"/><path d="M56.37 41.828c6.627.27 12.22-2.81 16.457-6.458V0H56.024v41.828h.345z" fill="url(#paint5_linear)"/><path d="M1.994 51.95c-.372 0-.719-.1-1.066-.3-.917-.6-1.215-1.824-.62-2.75.397-.624 9.42-14.8 25.113-14.8.372 0 .744 0 1.116.025 6.47.275 11.031 1.475 15.444 2.65 4.388 1.175 8.553 2.25 14.602 2.525 14.204.6 23.6-16.15 23.699-16.325a1.983 1.983 0 012.702-.775c.967.55 1.29 1.75.769 2.725-.422.775-10.363 18.4-26.402 18.4-.322 0-.62 0-.942-.025-6.47-.274-11.032-1.474-15.444-2.65-4.388-1.175-8.553-2.25-14.602-2.525-14.106-.6-22.633 12.776-22.733 12.9-.322.6-.966.926-1.636.926z" fill="url(#paint6_linear)"/><defs><linearGradient id="paint0_linear" x1="11.184" y1="41.671" x2="27.988" y2="41.671" gradientUnits="userSpaceOnUse"><stop stop-color="#FFB833"/><stop offset="1" stop-color="#FF964D"/></linearGradient><linearGradient id="paint1_linear" x1="11.184" y1="69.974" x2="27.988" y2="69.974" gradientUnits="userSpaceOnUse"><stop stop-color="#FFB833"/><stop offset="1" stop-color="#FF964D"/></linearGradient><linearGradient id="paint2_linear" x1="34.111" y1="41.536" x2="50.915" y2="41.536" gradientUnits="userSpaceOnUse"><stop stop-color="#FFB833"/><stop offset="1" stop-color="#FF964D"/></linearGradient><linearGradient id="paint3_linear" x1="34.111" y1="69.951" x2="50.915" y2="69.951" gradientUnits="userSpaceOnUse"><stop stop-color="#FFB833"/><stop offset="1" stop-color="#FF964D"/></linearGradient><linearGradient id="paint4_linear" x1="56.038" y1="69.96" x2="72.842" y2="69.96" gradientUnits="userSpaceOnUse"><stop stop-color="#FFB833"/><stop offset="1" stop-color="#FF964D"/></linearGradient><linearGradient id="paint5_linear" x1="56.038" y1="41.846" x2="72.842" y2="41.846" gradientUnits="userSpaceOnUse"><stop stop-color="#FFB833"/><stop offset="1" stop-color="#FF964D"/></linearGradient><linearGradient id="paint6_linear" x1="-8.668" y1="47.807" x2="49.179" y2="88.301" gradientUnits="userSpaceOnUse"><stop stop-color="#658BF5"/><stop offset="1" stop-color="#8DB0FF"/></linearGradient></defs></svg>