<svg width="23" height="23" viewBox="0 0 23 23" fill="none" xmlns="http://www.w3.org/2000/svg">
<path d="M20.2083 7.29V12.925C20.2083 13.2508 19.8921 13.4808 19.5854 13.385L15.8192 12.2158C14.7842 11.8996 13.6725 12.1679 12.9154 12.925C12.1488 13.6917 11.8708 14.8129 12.1967 15.8479L13.3563 19.5854C13.4521 19.8921 13.2221 20.2083 12.8963 20.2083H7.29C3.98375 20.2083 2 18.2342 2 14.9183V7.29C2 3.97417 3.98375 2 7.29 2H14.9183C18.2246 2 20.2083 3.97417 20.2083 7.29Z" fill="#5078E6"/>
<path d="M21.0445 18.0551L19.4824 18.5821C19.0511 18.7259 18.7061 19.0613 18.5624 19.5021L18.0353 21.0642C17.5849 22.4155 15.6874 22.3867 15.2657 21.0355L13.4928 15.3334C13.1478 14.2026 14.1924 13.1484 15.3136 13.503L21.0253 15.2759C22.367 15.6976 22.3861 17.6046 21.0445 18.0551Z" fill="#FA9751"/>
</svg>
