<svg width="23" height="23" viewBox="0 0 23 23" fill="none" xmlns="http://www.w3.org/2000/svg">
<path d="M21.0833 14.375C21.0833 18.0838 18.0838 21.0833 14.375 21.0833L15.3812 19.4063" stroke="#FA9751" stroke-width="1.5" stroke-linecap="round" stroke-linejoin="round"/>
<path d="M1.91699 8.62496C1.91699 4.91621 4.91658 1.91663 8.62533 1.91663L7.61908 3.59371" stroke="#FA9751" stroke-width="1.5" stroke-linecap="round" stroke-linejoin="round"/>
<path d="M21.0833 4.02502V4.13044C21.0833 4.39877 20.8725 4.6096 20.6042 4.6096H11.9792C11.7108 4.6096 11.5 4.39877 11.5 4.13044V4.02502C11.5 2.33835 11.9217 1.91669 13.6275 1.91669H18.9558C20.6617 1.91669 21.0833 2.33835 21.0833 4.02502Z" fill="#5078E6"/>
<path d="M11.9792 5.56793C11.7108 5.56793 11.5 5.77877 11.5 6.0471V7.00543V7.95418C11.5 9.64085 11.9217 10.0625 13.6275 10.0625H18.9558C20.6617 10.0625 21.0833 9.64085 21.0833 7.95418V7.00543V6.0471C21.0833 5.77877 20.8725 5.56793 20.6042 5.56793H11.9792Z" fill="#5078E6"/>
<path d="M11.5003 15.0458V15.1513C11.5003 15.4196 11.2895 15.6304 11.0212 15.6304H2.39616C2.12783 15.6304 1.91699 15.4196 1.91699 15.1513V15.0458C1.91699 13.3592 2.33866 12.9375 4.04449 12.9375H9.37283C11.0787 12.9375 11.5003 13.3592 11.5003 15.0458Z" fill="#5078E6"/>
<path d="M2.39616 16.5887C2.12783 16.5887 1.91699 16.7996 1.91699 17.0679V18.0262V18.975C1.91699 20.6617 2.33866 21.0833 4.04449 21.0833H9.37283C11.0787 21.0833 11.5003 20.6617 11.5003 18.975V18.0262V17.0679C11.5003 16.7996 11.2895 16.5887 11.0212 16.5887H2.39616Z" fill="#5078E6"/>
</svg>
