<svg width="18" height="20" viewBox="0 0 18 20" fill="none" xmlns="http://www.w3.org/2000/svg">
<path d="M13.9093 11.4551C11.6507 11.4551 9.81836 13.2864 9.81836 15.5458C9.81836 17.8047 11.6507 19.6367 13.9093 19.6367C16.168 19.6367 18.0003 17.8047 18.0003 15.5458C18.0003 13.2864 16.168 11.4551 13.9093 11.4551ZM16.3638 16.1594H13.2957V13.0913H14.5229V14.9322H16.3638V16.1594Z" fill="#FA9751"/>
<path d="M13.091 0H1.63643C0.736837 0 0 0.736597 0 1.63643V16.3636C0 17.2632 0.736837 17.9998 1.63643 17.9998H8.1819V15.5452C8.1819 12.3877 10.7515 9.8181 13.909 9.8181H14.7271V1.63643C14.7271 0.736597 13.9905 0 13.091 0ZM2.45452 2.45452H10.6364V4.09095H2.45452V2.45452ZM5.72738 13.909H2.45452V12.2726H5.72738V13.909ZM7.36357 10.6362H2.45452V9H7.36357V10.6362ZM12.2726 7.36357H2.45452V5.72714H12.2726V7.36357Z" fill="#5078E6"/>
</svg>
