<svg width="18" height="18" viewBox="0 0 18 18" fill="none" xmlns="http://www.w3.org/2000/svg">
<path d="M12.7774 0H5.23161C1.95397 0 0 1.953 0 5.229V12.762C0 16.047 1.95397 18 5.23161 18H12.7684C16.046 18 18 16.047 18 12.771V5.229C18.009 1.953 16.055 0 12.7774 0ZM9.00449 14.409C6.15006 14.409 3.82691 12.087 3.82691 9.234C3.82691 8.208 4.12405 7.209 4.70034 6.363C4.90744 6.048 5.33066 5.967 5.63681 6.174C5.94296 6.381 6.03301 6.804 5.8169 7.11C5.40269 7.74 5.17758 8.478 5.17758 9.234C5.17758 11.34 6.89744 13.059 9.00449 13.059C11.1115 13.059 12.8314 11.34 12.8314 9.234C12.8314 7.128 11.1115 5.409 9.00449 5.409C8.8334 5.409 8.67132 5.427 8.50024 5.445L9.00449 5.814C9.30163 6.03 9.37367 6.453 9.14856 6.759C9.01349 6.939 8.80639 7.038 8.59929 7.038C8.46422 7.038 8.32015 6.993 8.20309 6.912L6.45622 5.625C6.45622 5.625 6.44721 5.616 6.43821 5.607C6.4292 5.598 6.4202 5.598 6.41119 5.589C6.38418 5.571 6.37518 5.535 6.34816 5.508C6.32115 5.472 6.29414 5.445 6.26712 5.4C6.24911 5.364 6.24011 5.319 6.2221 5.283C6.2131 5.238 6.19509 5.202 6.19509 5.157C6.19509 5.112 6.19509 5.076 6.20409 5.031C6.20409 4.986 6.20409 4.95 6.2221 4.905C6.2221 4.86 6.24911 4.824 6.26712 4.779C6.28513 4.752 6.28513 4.716 6.31215 4.68C6.32115 4.68 6.33015 4.671 6.33916 4.662C6.34816 4.653 6.34816 4.644 6.35717 4.635L7.86092 2.916C8.10404 2.637 8.53625 2.601 8.81539 2.853C9.09453 3.096 9.12154 3.528 8.87842 3.807L8.6263 4.095C8.75236 4.086 8.87842 4.068 9.01349 4.068C11.8679 4.068 14.1911 6.39 14.1911 9.243C14.1911 12.096 11.8589 14.409 9.00449 14.409Z" fill="#5078E6"/>
</svg>
