<svg width="23" height="23" viewBox="0 0 23 23" fill="none" xmlns="http://www.w3.org/2000/svg">
<path d="M11.4426 2.11787L9.13298 7.49412H6.8234C6.44007 7.49412 6.06632 7.52287 5.70215 7.59953L6.66048 5.29953L6.69882 5.21328L6.75632 5.05995C6.78507 4.99287 6.80423 4.93537 6.83298 4.88745C7.94465 2.30953 9.19048 1.50453 11.4426 2.11787Z" fill="#5078E6"/>
<path d="M17.9498 7.75293L17.9307 7.74334C17.3556 7.58043 16.7711 7.49418 16.1769 7.49418H10.1777L12.334 2.48209L12.3627 2.41501C12.4969 2.46293 12.6407 2.53001 12.7844 2.57793L14.9023 3.46918C16.0811 3.95793 16.9052 4.46584 17.4132 5.07918C17.4994 5.19418 17.5761 5.29959 17.6527 5.42418C17.739 5.55834 17.8061 5.69251 17.8444 5.83626C17.8827 5.92251 17.9115 5.99918 17.9307 6.08543C18.0744 6.57417 18.084 7.13001 17.9498 7.75293Z" fill="#FA9751"/>
<path d="M17.5282 9.12328C17.097 8.99869 16.6466 8.93161 16.177 8.93161H6.82364C6.17197 8.93161 5.55864 9.05619 4.98364 9.30536C3.31614 10.0241 2.14697 11.682 2.14697 13.6083V15.477C2.14697 15.707 2.16614 15.9274 2.19489 16.1574C2.40572 19.2049 4.03489 20.8341 7.08239 21.0354C7.30281 21.0641 7.52322 21.0833 7.76281 21.0833H15.2378C18.7836 21.0833 20.6524 19.3966 20.8345 16.0424C20.8441 15.8604 20.8536 15.6687 20.8536 15.477V13.6083C20.8536 11.4904 19.4449 9.70786 17.5282 9.12328ZM13.8961 16.052H9.10447C8.71156 16.052 8.38572 15.7262 8.38572 15.3333C8.38572 14.9404 8.71156 14.6145 9.10447 14.6145H13.8961C14.2891 14.6145 14.6149 14.9404 14.6149 15.3333C14.6149 15.7262 14.2891 16.052 13.8961 16.052Z" fill="#5078E6"/>
</svg>
