<svg width="5" height="17" viewBox="0 0 5 17" fill="none" xmlns="http://www.w3.org/2000/svg">
<path d="M2.80859 0.337891C1.7093 0.337891 0.808594 1.22527 0.808594 2.32392C0.808594 3.42258 1.70221 4.30995 2.80859 4.30995C3.91498 4.30995 4.80859 3.42258 4.80859 2.32392C4.80859 1.22527 3.90788 0.337891 2.80859 0.337891Z" fill="#FA9751"/>
<path d="M2.80859 6.31006C1.7093 6.31006 0.808594 7.19743 0.808594 8.29609C0.808594 9.39474 1.70221 10.2821 2.80859 10.2821C3.91498 10.2821 4.80859 9.39474 4.80859 8.29609C4.80859 7.19743 3.90788 6.31006 2.80859 6.31006Z" fill="#5078E6"/>
<path d="M2.80859 12.2822C1.7093 12.2822 0.808594 13.1696 0.808594 14.2683C0.808594 15.3669 1.70221 16.2543 2.80859 16.2543C3.91498 16.2543 4.80859 15.3669 4.80859 14.2683C4.80859 13.1696 3.90788 12.2822 2.80859 12.2822Z" fill="#5078E6"/>
</svg>
