<svg width="23" height="23" viewBox="0 0 23 23" fill="none" xmlns="http://www.w3.org/2000/svg">
<path d="M8.62533 21.0832H14.3753C19.167 21.0832 21.0837 19.1665 21.0837 14.3748V8.62484C21.0837 3.83317 19.167 1.9165 14.3753 1.9165H8.62533C3.83366 1.9165 1.91699 3.83317 1.91699 8.62484V14.3748C1.91699 19.1665 3.83366 21.0832 8.62533 21.0832Z" fill="#5078E6" stroke="#5078E6" stroke-width="1.5" stroke-linecap="round" stroke-linejoin="round"/>
<path d="M14.708 13.3333V8.97917C14.708 8.475 14.2955 8.0625 13.7913 8.0625H11.2705" stroke="#F1F5FF" stroke-linecap="round" stroke-linejoin="round"/>
<path d="M12.417 6.9165L11.042 8.06234L12.417 9.20817" stroke="#F1F5FF" stroke-linecap="round" stroke-linejoin="round"/>
<path d="M14.708 16.0835C15.4674 16.0835 16.083 15.4679 16.083 14.7085C16.083 13.9491 15.4674 13.3335 14.708 13.3335C13.9486 13.3335 13.333 13.9491 13.333 14.7085C13.333 15.4679 13.9486 16.0835 14.708 16.0835Z" stroke="#F1F5FF" stroke-linecap="round" stroke-linejoin="round"/>
<path d="M8.29199 9.6665V14.0207C8.29199 14.5248 8.70449 14.9373 9.20866 14.9373H11.7295" stroke="#F1F5FF" stroke-linecap="round" stroke-linejoin="round"/>
<path d="M10.583 16.0832L11.958 14.9373L10.583 13.7915" stroke="#F1F5FF" stroke-linecap="round" stroke-linejoin="round"/>
<path d="M8.29199 9.6665C9.05138 9.6665 9.66699 9.0509 9.66699 8.2915C9.66699 7.53211 9.05138 6.9165 8.29199 6.9165C7.5326 6.9165 6.91699 7.53211 6.91699 8.2915C6.91699 9.0509 7.5326 9.6665 8.29199 9.6665Z" stroke="#F1F5FF" stroke-linecap="round" stroke-linejoin="round"/>
</svg>
