<svg width="23" height="23" viewBox="0 0 23 23" fill="none" xmlns="http://www.w3.org/2000/svg">
<path d="M22.0413 15.3047C22.0413 19.0134 19.0418 22.013 15.333 22.013L16.3393 20.3359" stroke="#FA9751" stroke-width="1.5" stroke-linecap="round" stroke-linejoin="round"/>
<path d="M0.958008 7.63802C0.958008 3.92927 3.95759 0.929688 7.66634 0.929688L6.66009 2.60677" stroke="#5078E6" stroke-width="1.5" stroke-linecap="round" stroke-linejoin="round"/>
<path d="M20.6022 8.3089C20.6022 11.5768 17.9572 14.2219 14.6893 14.2219H14.2197C13.9993 11.3181 11.6801 8.99889 8.77637 8.77847V8.3089C8.77637 5.04098 11.4214 2.396 14.6893 2.396C17.9572 2.396 20.6022 5.04098 20.6022 8.3089Z" fill="#FA9751" stroke="#FA9751" stroke-width="1.5" stroke-miterlimit="10" stroke-linecap="round" stroke-linejoin="round"/>
<path d="M14.2311 14.6913C14.2311 17.9592 11.5861 20.6042 8.31819 20.6042C5.05028 20.6042 2.40527 17.9592 2.40527 14.6913C2.40527 11.4234 5.05028 8.77832 8.31819 8.77832C8.47153 8.77832 8.61527 8.78792 8.77819 8.79751C11.6819 9.01792 14.0011 11.3371 14.2215 14.2408C14.2215 14.3846 14.2311 14.5284 14.2311 14.6913Z" fill="#5078E6" stroke="#5078E6" stroke-width="1.5" stroke-miterlimit="10" stroke-linecap="round" stroke-linejoin="round"/>
<path d="M6.34375 12.5225H9.03667C9.63083 12.5225 10.1196 13.0591 10.1196 13.6054C10.1196 14.1995 9.64042 14.6883 9.03667 14.6883H6.34375V12.5225Z" stroke="#F1F5FF" stroke-miterlimit="10" stroke-linecap="round" stroke-linejoin="round"/>
<path d="M6.34375 14.6885H9.42958C10.11 14.6885 10.6658 15.1676 10.6658 15.7714C10.6658 16.3656 10.11 16.8543 9.42958 16.8543H6.34375V14.6885Z" stroke="#F1F5FF" stroke-miterlimit="10" stroke-linecap="round" stroke-linejoin="round"/>
<path d="M8.06836 16.8447V17.9181" stroke="#F1F5FF" stroke-miterlimit="10" stroke-linecap="round" stroke-linejoin="round"/>
<path d="M8.06836 11.4492V12.5225" stroke="#F1F5FF" stroke-miterlimit="10" stroke-linecap="round" stroke-linejoin="round"/>
</svg>
