<svg width="23" height="24" viewBox="0 0 23 24" fill="none" xmlns="http://www.w3.org/2000/svg">
<path d="M15.8458 9.17166C16.8259 9.17166 17.6205 8.41683 17.6205 7.4857C17.6205 6.55457 16.8259 5.79975 15.8458 5.79975C14.8657 5.79975 14.0711 6.55457 14.0711 7.4857C14.0711 8.41683 14.8657 9.17166 15.8458 9.17166Z" fill="#DFE3F0"/>
<path d="M15.8458 9.17166C16.8259 9.17166 17.6205 8.41683 17.6205 7.4857C17.6205 6.55457 16.8259 5.79975 15.8458 5.79975C14.8657 5.79975 14.0711 6.55457 14.0711 7.4857C14.0711 8.41683 14.8657 9.17166 15.8458 9.17166Z" fill="#5078E6"/>
<path d="M15.8458 9.873C14.2787 9.873 13.0085 11.0519 13.0085 12.5063V15.9986C13.0085 16.1444 13.1351 16.2619 13.2922 16.2619H18.4038C18.5609 16.2619 18.6875 16.1444 18.6875 15.9986V12.5063C18.6831 11.056 17.4129 9.873 15.8458 9.873Z" fill="#DFE3F0"/>
<path d="M15.8458 9.873C14.2787 9.873 13.0085 11.0519 13.0085 12.5063V15.9986C13.0085 16.1444 13.1351 16.2619 13.2922 16.2619H18.4038C18.5609 16.2619 18.6875 16.1444 18.6875 15.9986V12.5063C18.6831 11.056 17.4129 9.873 15.8458 9.873Z" fill="#5078E6"/>
<path d="M7.14982 9.15514C8.12996 9.15514 8.92451 8.40031 8.92451 7.46918C8.92451 6.53805 8.12996 5.78323 7.14982 5.78323C6.16969 5.78323 5.37513 6.53805 5.37513 7.46918C5.37513 8.40031 6.16969 9.15514 7.14982 9.15514Z" fill="#DFE3F0"/>
<path d="M7.14982 9.15514C8.12996 9.15514 8.92451 8.40031 8.92451 7.46918C8.92451 6.53805 8.12996 5.78323 7.14982 5.78323C6.16969 5.78323 5.37513 6.53805 5.37513 7.46918C5.37513 8.40031 6.16969 9.15514 7.14982 9.15514Z" fill="#5078E6"/>
<path d="M7.14982 9.873C5.58275 9.873 4.3125 11.0519 4.3125 12.5063V15.9986C4.3125 16.1444 4.43909 16.2619 4.59623 16.2619H9.70778C9.86492 16.2619 9.99151 16.1444 9.99151 15.9986V12.5063C9.98715 11.056 8.7169 9.873 7.14982 9.873Z" fill="#DFE3F0"/>
<path d="M7.14982 9.873C5.58275 9.873 4.3125 11.0519 4.3125 12.5063V15.9986C4.3125 16.1444 4.43909 16.2619 4.59623 16.2619H9.70778C9.86492 16.2619 9.99151 16.1444 9.99151 15.9986V12.5063C9.98715 11.056 8.7169 9.873 7.14982 9.873Z" fill="#5078E6"/>
<path d="M11.4091 10.8491C12.3892 10.8491 13.1838 10.0943 13.1838 9.16313C13.1838 8.232 12.3892 7.47717 11.4091 7.47717C10.4289 7.47717 9.63439 8.232 9.63439 9.16313C9.63439 10.0943 10.4289 10.8491 11.4091 10.8491Z" fill="#DFE3F0"/>
<path d="M11.4091 10.8491C12.3892 10.8491 13.1838 10.0943 13.1838 9.16313C13.1838 8.232 12.3892 7.47717 11.4091 7.47717C10.4289 7.47717 9.63439 8.232 9.63439 9.16313C9.63439 10.0943 10.4289 10.8491 11.4091 10.8491Z" fill="#5078E6"/>
<path d="M11.4091 11.5504C9.84201 11.5504 8.57176 12.7294 8.57176 14.1838V17.676C8.57176 17.8218 8.69835 17.9393 8.85549 17.9393H13.967C14.1242 17.9393 14.2508 17.8218 14.2508 17.676V14.1838C14.2464 12.7334 12.9762 11.5504 11.4091 11.5504Z" fill="#DFE3F0"/>
<path d="M11.4091 11.5504C9.84201 11.5504 8.57176 12.7294 8.57176 14.1838V17.676C8.57176 17.8218 8.69835 17.9393 8.85549 17.9393H13.967C14.1242 17.9393 14.2508 17.8218 14.2508 17.676V14.1838C14.2464 12.7334 12.9762 11.5504 11.4091 11.5504Z" fill="#5078E6"/>
</svg>
