<svg width="23" height="24" viewBox="0 0 23 24" fill="none" xmlns="http://www.w3.org/2000/svg">
<path d="M15.5155 2.41666H7.48466C3.99633 2.41666 1.91675 4.49624 1.91675 7.98457V16.0058C1.91675 19.5037 3.99633 21.5833 7.48466 21.5833H15.5059C18.9942 21.5833 21.0738 19.5037 21.0738 16.0154V7.98457C21.0834 4.49624 19.0038 2.41666 15.5155 2.41666ZM8.7305 16.6958C8.7305 16.9642 8.51966 17.175 8.25133 17.175H5.57758C5.30925 17.175 5.09841 16.9642 5.09841 16.6958V12.2683C5.09841 11.6646 5.58716 11.1758 6.19091 11.1758H8.25133C8.51966 11.1758 8.7305 11.3867 8.7305 11.655V16.6958ZM13.3113 16.6958C13.3113 16.9642 13.1005 17.175 12.8322 17.175H10.1584C9.89008 17.175 9.67925 16.9642 9.67925 16.6958V7.91749C9.67925 7.31374 10.168 6.82499 10.7717 6.82499H12.2284C12.8322 6.82499 13.3209 7.31374 13.3209 7.91749V16.6958H13.3113ZM17.9017 16.6958C17.9017 16.9642 17.6909 17.175 17.4226 17.175H14.7488C14.4805 17.175 14.2697 16.9642 14.2697 16.6958V13.2937C14.2697 13.0254 14.4805 12.8146 14.7488 12.8146H16.8092C17.413 12.8146 17.9017 13.3033 17.9017 13.9071V16.6958Z" fill="#5078E6"/>
</svg>
