<svg width="23" height="23" viewBox="0 0 23 23" fill="none" xmlns="http://www.w3.org/2000/svg">
<path d="M20.202 8.22237V14.7773C20.202 15.8507 19.627 16.8474 18.6974 17.3936L13.0049 20.6807C12.0753 21.2174 10.9253 21.2174 9.98615 20.6807L4.29365 17.3936C3.36406 16.857 2.78906 15.8603 2.78906 14.7773V8.22237C2.78906 7.14904 3.36406 6.15233 4.29365 5.60608L9.98615 2.319C10.9157 1.78234 12.0657 1.78234 13.0049 2.319L18.6974 5.60608C19.627 6.15233 20.202 7.13945 20.202 8.22237Z" fill="#5078E6" stroke="#5078E6" stroke-width="1.5" stroke-linecap="round" stroke-linejoin="round"/>
<path d="M11.5005 10.5415C12.7337 10.5415 13.7334 9.54176 13.7334 8.30856C13.7334 7.07535 12.7337 6.07568 11.5005 6.07568C10.2673 6.07568 9.26758 7.07535 9.26758 8.30856C9.26758 9.54176 10.2673 10.5415 11.5005 10.5415Z" stroke="#F1F5FF" stroke-linecap="round" stroke-linejoin="round"/>
<path d="M15.3337 15.9654C15.3337 14.2404 13.6182 12.8413 11.5003 12.8413C9.38241 12.8413 7.66699 14.2404 7.66699 15.9654" stroke="#F1F5FF" stroke-linecap="round" stroke-linejoin="round"/>
</svg>
