<svg width="23" height="23" viewBox="0 0 23 23" fill="none" xmlns="http://www.w3.org/2000/svg">
<path d="M19.5117 12.1995C19.1571 12.1995 18.86 11.9312 18.8217 11.5766C18.5917 9.46828 17.4609 7.57078 15.7167 6.36328C15.4005 6.14286 15.3238 5.71161 15.5442 5.39536C15.7646 5.07911 16.1959 5.00245 16.5121 5.22286C18.5917 6.66995 19.9334 8.93161 20.2113 11.4329C20.2496 11.8162 19.9717 12.1612 19.5884 12.1995C19.5596 12.1995 19.5405 12.1995 19.5117 12.1995Z" fill="#5078E6"/>
<path d="M3.5844 12.2475C3.56524 12.2475 3.53649 12.2475 3.51732 12.2475C3.13399 12.2091 2.85607 11.8641 2.8944 11.4808C3.15315 8.97955 4.47565 6.71788 6.53607 5.26121C6.84274 5.0408 7.28357 5.11746 7.50399 5.42413C7.7244 5.74038 7.64774 6.17163 7.34107 6.39205C5.61607 7.61871 4.49482 9.51621 4.28399 11.615C4.24565 11.9791 3.93899 12.2475 3.5844 12.2475Z" fill="#5078E6"/>
<path d="M15.3234 20.2208C14.1447 20.7862 12.8797 21.0737 11.5572 21.0737C10.1772 21.0737 8.86425 20.7671 7.63759 20.1441C7.29259 19.9812 7.15842 19.5596 7.33092 19.2146C7.49384 18.8696 7.9155 18.7354 8.2605 18.8983C8.86425 19.205 9.50634 19.4158 10.158 19.5404C11.0397 19.7129 11.9405 19.7225 12.8222 19.5691C13.4738 19.4541 14.1159 19.2529 14.7101 18.9654C15.0647 18.8025 15.4863 18.9366 15.6397 19.2912C15.8122 19.6362 15.678 20.0579 15.3234 20.2208Z" fill="#5078E6"/>
<path d="M11.5484 1.92625C10.063 1.92625 8.84595 3.13375 8.84595 4.62875C8.84595 6.12375 10.0534 7.33125 11.5484 7.33125C13.0434 7.33125 14.2509 6.12375 14.2509 4.62875C14.2509 3.13375 13.0434 1.92625 11.5484 1.92625Z" fill="#FA9751"/>
<path d="M4.83995 13.2921C3.35453 13.2921 2.13745 14.4996 2.13745 15.9946C2.13745 17.4896 3.34495 18.6971 4.83995 18.6971C6.33495 18.6971 7.54245 17.4896 7.54245 15.9946C7.54245 14.4996 6.32537 13.2921 4.83995 13.2921Z" fill="#5078E6"/>
<path d="M18.1603 13.2921C16.6748 13.2921 15.4578 14.4996 15.4578 15.9946C15.4578 17.4896 16.6653 18.6971 18.1603 18.6971C19.6553 18.6971 20.8628 17.4896 20.8628 15.9946C20.8628 14.4996 19.6553 13.2921 18.1603 13.2921Z" fill="#5078E6"/>
</svg>
