<svg width="40" height="39" viewBox="0 0 40 39" fill="none" xmlns="http://www.w3.org/2000/svg">
<path d="M20.2259 -8.56817e-08C30.9954 -8.56817e-08 39.7259 8.73044 39.7259 19.5C39.7259 30.2696 30.9954 39 20.2259 39C9.4563 39 0.725861 30.2696 0.725861 19.5C0.725861 8.73044 9.4563 -8.56817e-08 20.2259 -8.56817e-08Z" fill="#F0B90B"/>
<path d="M15.1802 17.4054L18.1328 14.4625L18.7552 13.8401L20.2307 12.3646L25.2552 17.4054L28.1802 14.4625L20.2307 6.49998L12.2552 14.4625L15.1802 17.4054Z" fill="white"/>
<path d="M17.2976 19.4952L20.2346 16.5582L23.1716 19.4952L20.2346 22.4322L17.2976 19.4952Z" fill="white"/>
<path d="M25.2553 21.6011L20.2291 26.6272L18.4644 24.8625L18.1394 24.5375L15.1803 21.6011L12.2552 24.5261L20.2307 32.4886L28.1803 24.5261L25.2553 21.6011Z" fill="white"/>
<path d="M7.22583 19.5032L10.1628 16.5663L13.0998 19.5032L10.1628 22.4402L7.22583 19.5032Z" fill="white"/>
<path d="M27.3531 19.5016L30.2901 16.5646L33.2271 19.5016L30.2901 22.4386L27.3531 19.5016Z" fill="white"/>
</svg>
