<svg width="39" height="40" viewBox="0 0 39 40" fill="none" xmlns="http://www.w3.org/2000/svg">
<path d="M19.5 0.27417C30.2696 0.27417 39 9.00461 39 19.7742C39 30.5437 30.2696 39.2742 19.5 39.2742C8.73044 39.2742 0 30.5437 0 19.7742C0 9.00461 8.73044 0.27417 19.5 0.27417Z" fill="#F0B90B"/>
<path d="M14.4543 17.6796L17.407 14.7368L18.0293 14.1144L19.5048 12.6389L24.5293 17.6796L27.4543 14.7368L19.5048 6.77422L11.5293 14.7368L14.4543 17.6796Z" fill="white"/>
<path d="M16.5717 19.7693L19.5087 16.8323L22.4457 19.7693L19.5087 22.7064L16.5717 19.7693Z" fill="white"/>
<path d="M24.5294 21.8753L19.5033 26.9014L17.7385 25.1367L17.4135 24.8117L14.4544 21.8753L11.5294 24.8003L19.5049 32.7628L27.4544 24.8003L24.5294 21.8753Z" fill="white"/>
<path d="M6.49997 19.7775L9.43698 16.8405L12.3739 19.7775L9.43698 22.7145L6.49997 19.7775Z" fill="white"/>
<path d="M26.6273 19.7758L29.5643 16.8388L32.5012 19.7758L29.5643 22.7128L26.6273 19.7758Z" fill="white"/>
</svg>
