<svg width="40" height="40" viewBox="0 0 40 40" fill="none" xmlns="http://www.w3.org/2000/svg">
<path d="M19.6944 0.194382C30.4639 0.194382 39.1944 8.92483 39.1944 19.6944C39.1944 30.4639 30.4639 39.1944 19.6944 39.1944C8.92482 39.1944 0.194374 30.4639 0.194374 19.6944C0.194374 8.92483 8.92482 0.194382 19.6944 0.194382Z" fill="#F0B90B"/>
<path d="M14.6487 17.5998L17.6013 14.6569L18.2237 14.0345L19.6992 12.559L24.7237 17.5998L27.6487 14.6569L19.6992 6.69435L11.7237 14.6569L14.6487 17.5998Z" fill="white"/>
<path d="M16.7661 19.6895L19.7031 16.7525L22.6401 19.6895L19.7031 22.6266L16.7661 19.6895Z" fill="white"/>
<path d="M24.7238 21.7955L19.6976 26.8216L17.9329 25.0569L17.6079 24.7319L14.6488 21.7955L11.7238 24.7205L19.6993 32.683L27.6488 24.7205L24.7238 21.7955Z" fill="white"/>
<path d="M6.69437 19.6976L9.63137 16.7607L12.5683 19.6976L9.63137 22.6346L6.69437 19.6976Z" fill="white"/>
<path d="M26.8216 19.696L29.7586 16.759L32.6956 19.696L29.7586 22.633L26.8216 19.696Z" fill="white"/>
</svg>
