<svg width="39" height="39" viewBox="0 0 39 39" fill="none" xmlns="http://www.w3.org/2000/svg">
<path d="M38.4156 24.2191C35.8127 34.6648 25.2298 41.0223 14.7811 38.4155C4.33234 35.8087 -2.02227 25.231 0.584746 14.7844C3.19176 4.33774 13.7694 -2.02275 24.2158 0.584469C34.6622 3.19169 41.0226 13.7699 38.4156 24.2191Z" fill="#F7931A"/>
<path d="M27.9505 16.6476C28.3452 14.1259 26.3333 12.7702 23.5819 11.8659L24.4755 8.45008L22.296 7.93198L21.4254 11.2579C20.8531 11.1219 20.265 10.9926 19.6804 10.8661L20.5541 7.5181L18.3767 7L17.4858 10.4145L13.091 9.37561L12.5111 11.5968C12.5111 11.5968 14.1279 11.9504 14.0938 11.9724C14.9762 12.1827 15.1363 12.7399 15.1093 13.1818L12.664 22.5394C12.556 22.7953 12.2824 23.1788 11.6656 23.0322C11.6875 23.0625 10.0818 22.6531 10.0818 22.6531L9 25.0369L13.3884 26.0943L12.4865 29.5499L14.6629 30.068L15.5564 26.6496C16.1522 26.8035 16.728 26.9456 17.2923 27.0794L16.4024 30.4819L18.5815 31L19.4834 27.551C23.1993 28.2219 25.9936 27.9513 27.1681 24.7464C28.1157 22.1644 27.1216 20.6749 25.1665 19.7032C26.5903 19.3886 27.6626 18.4953 27.9487 16.6489L27.9505 16.6476ZM22.9703 23.3103C22.2952 25.8923 17.7409 24.497 16.2632 24.1464L17.4597 19.569C18.9367 19.9207 23.6721 20.6177 22.9703 23.3103ZM23.6462 16.611C23.0319 18.9609 19.2397 17.767 18.009 17.474L19.0924 13.3213C20.3235 13.6146 24.2852 14.1608 23.6447 16.6108" fill="white"/>
</svg>
