<svg width="23" height="23" viewBox="0 0 23 23" fill="none" xmlns="http://www.w3.org/2000/svg">
<g clip-path="url(#clip0_5648_11479)">
<path d="M11.5 23C17.8513 23 23 17.8513 23 11.5C23 5.14873 17.8513 0 11.5 0C5.14873 0 0 5.14873 0 11.5C0 17.8513 5.14873 23 11.5 23Z" fill="#627EEA"/>
<path d="M11.8584 2.875V9.25031L17.2469 11.6581L11.8584 2.875Z" fill="white" fill-opacity="0.602"/>
<path d="M11.8579 2.875L6.46875 11.6581L11.8579 9.25031V2.875Z" fill="white"/>
<path d="M11.8584 15.7896V20.1215L17.2505 12.6616L11.8584 15.7896Z" fill="white" fill-opacity="0.602"/>
<path d="M11.8579 20.1215V15.7889L6.46875 12.6616L11.8579 20.1215Z" fill="white"/>
<path d="M11.8584 14.787L17.2469 11.6583L11.8584 9.25195V14.787Z" fill="white" fill-opacity="0.2"/>
<path d="M6.46875 11.6583L11.8579 14.787V9.25195L6.46875 11.6583Z" fill="white" fill-opacity="0.602"/>
</g>
<defs>
<clipPath id="clip0_5648_11479">
<rect width="23" height="23" fill="white"/>
</clipPath>
</defs>
</svg>
