<svg width="39" height="39" viewBox="0 0 39 39" fill="none" xmlns="http://www.w3.org/2000/svg">
<rect width="39" height="39" rx="19.5" fill="#6CC592"/>
<path d="M17.1309 25.4418H20.6094L17.7139 20.9071C19.3656 20.1219 20.2596 18.5907 20.2596 16.4706C20.2596 13.4278 18.2386 11.7002 14.6824 11.7002H8.77499V25.4418H11.8454V21.5157H14.6824H14.9739L17.1309 25.4418ZM11.8454 18.9244V14.2719H14.6824C16.3731 14.2719 17.3447 15.0375 17.3447 16.5687C17.3447 18.1392 16.3731 18.9244 14.6824 18.9244H11.8454Z" fill="white"/>
<path d="M27.2586 14.7823C25.84 14.7823 24.6935 15.3712 23.9551 16.4313V14.8805H20.9625V29.2502H23.9551V23.9106C24.7129 24.9707 25.8594 25.5596 27.3169 25.5596C30.2512 25.5596 32.175 23.4199 32.175 20.2201C32.175 16.9613 30.1929 14.7823 27.2586 14.7823ZM26.559 23.0469C25.0239 23.0469 23.9551 21.8691 23.9551 20.1219C23.9551 18.4141 25.0239 17.2166 26.559 17.2166C28.0941 17.2166 29.1435 18.4337 29.1435 20.1219C29.1435 21.8494 28.0941 23.0469 26.559 23.0469Z" fill="white"/>
</svg>
