<svg width="39" height="39" viewBox="0 0 39 39" fill="none" xmlns="http://www.w3.org/2000/svg">
<circle cx="19.5" cy="19.5" r="19.5" fill="#8898D7"/>
<path d="M13.7127 15.6675L19.7136 13.0004C19.9778 12.8872 20.2798 12.8872 20.5314 13.0004L26.5324 15.6675C27.0608 15.9065 27.5514 15.2649 27.1865 14.812L20.8962 7.12523C20.4685 6.59685 19.764 6.59685 19.3362 7.12523L13.0459 14.812C12.6936 15.2649 13.1843 15.9065 13.7127 15.6675Z" fill="white"/>
<path d="M13.7122 22.9635L19.7257 25.6306C19.9899 25.7438 20.2919 25.7438 20.5435 25.6306L26.557 22.9635C27.0854 22.7244 27.5761 23.3661 27.2112 23.819L20.9209 31.5057C20.4932 32.0341 19.7887 32.0341 19.3609 31.5057L13.0706 23.819C12.6932 23.3661 13.1712 22.7244 13.7122 22.9635Z" fill="white"/>
<path d="M19.8505 16.158L14.6547 18.7496C14.1892 18.9761 14.1892 19.6428 14.6547 19.8693L19.8505 22.4609C20.0266 22.549 20.2404 22.549 20.4166 22.4609L25.6124 19.8693C26.0779 19.6428 26.0779 18.9761 25.6124 18.7496L20.4166 16.158C20.2279 16.0699 20.0266 16.0699 19.8505 16.158Z" fill="white"/>
</svg>
