<svg width="39" height="39" viewBox="0 0 39 39" fill="none" xmlns="http://www.w3.org/2000/svg">
<rect width="39" height="39" rx="19.5" fill="#6CC592"/>
<path d="M14.0942 27.55V24.9199H12V22.5357H14.0942V20.6184H12V17.5706H14.0942V10H20.0628C22.4712 10 24.2251 10.4587 25.3246 11.3764C26.4415 12.2941 27 13.5558 27 15.1617C27 16.1122 26.7731 17.0052 26.3194 17.841C25.8656 18.6766 25.1065 19.3485 24.0419 19.8565C22.9948 20.3644 21.5637 20.6184 19.7487 20.6184H18.0471V22.5357H22.0785V24.9199H18.0471V27.55H14.0942ZM18.0471 17.5706H19.356C20.4729 17.5706 21.3543 17.3903 22 17.0298C22.6632 16.6693 22.9948 16.0876 22.9948 15.2846C22.9948 13.7934 21.9476 13.0479 19.8534 13.0479H18.0471V17.5706Z" fill="white"/>
</svg>
