<svg width="20" height="20" viewBox="0 0 20 20" fill="none" xmlns="http://www.w3.org/2000/svg">
<path d="M16.667 3.41669H4.58363C4.3253 3.41669 4.07531 3.54169 3.91698 3.75002L2.66698 5.41669C2.25864 5.96669 2.6503 6.75002 3.33363 6.75002H15.417C15.6753 6.75002 15.9253 6.62502 16.0836 6.41669L17.3336 4.75002C17.742 4.20002 17.3503 3.41669 16.667 3.41669Z" fill="#B378FF"/>
<path d="M3.33363 8.83331H15.417C15.6753 8.83331 15.9253 8.95831 16.0836 9.16665L17.3336 10.8333C17.742 11.3833 17.3503 12.1666 16.667 12.1666H4.58363C4.3253 12.1666 4.07531 12.0416 3.91698 11.8333L2.66698 10.1666C2.25864 9.61665 2.6503 8.83331 3.33363 8.83331Z" fill="#B378FF"/>
<path d="M16.667 14.25H4.58363C4.3253 14.25 4.07531 14.375 3.91698 14.5833L2.66698 16.25C2.25864 16.8 2.6503 17.5833 3.33363 17.5833H15.417C15.6753 17.5833 15.9253 17.4583 16.0836 17.25L17.3336 15.5833C17.742 15.0333 17.3503 14.25 16.667 14.25Z" fill="#B378FF"/>
</svg>
