<svg width="39" height="39" viewBox="0 0 39 39" fill="none" xmlns="http://www.w3.org/2000/svg">
<rect width="39" height="39" rx="19.5" fill="#3697E1"/>
<path fill-rule="evenodd" clip-rule="evenodd" d="M10.92 8.96997H28.08C28.665 8.96997 29.25 9.06747 29.9325 9.35997C30.7125 9.74997 31.1025 10.2375 31.395 10.725C31.785 11.31 31.98 11.9925 31.98 12.7725C31.98 13.455 31.785 14.1375 31.4925 14.7225L20.67 33.345C20.28 34.0275 19.5 34.2225 18.8175 33.8325C18.6225 33.735 18.4275 33.54 18.33 33.345L7.7025 14.7225C7.5075 14.3325 7.1175 13.7475 7.02 12.87C6.9225 11.31 7.7025 9.94497 9.0675 9.26247C9.75 8.96997 10.53 8.96997 10.92 8.96997ZM18.135 11.6025H10.92C10.4325 11.6025 10.2375 11.6025 10.14 11.7C9.75 11.895 9.555 12.285 9.555 12.675C9.555 12.7725 9.6525 12.87 9.8475 13.3575L18.0375 27.69C18.135 27.69 18.135 11.6025 18.135 11.6025ZM20.865 11.6025V27.69L29.25 13.3575C29.3475 13.1625 29.445 12.87 29.445 12.675C29.445 12.48 29.445 12.285 29.3475 12.09C29.25 11.9925 29.25 11.895 29.1525 11.7975L29.055 11.7C28.86 11.6025 28.5675 11.505 28.3725 11.6025H20.865Z" fill="white"/>
</svg>
