<svg width="40" height="40" viewBox="0 0 40 40" fill="none" xmlns="http://www.w3.org/2000/svg">
<circle cx="20.25" cy="20" r="19.5" fill="#8898D7"/>
<path d="M26.2503 23.3956C26.2503 24.602 25.8031 25.6297 24.9086 26.4786C24.0291 27.3127 22.747 27.819 21.0625 27.9978V30.4999H19.2288V28.0201C18.1257 27.9456 17.0821 27.7446 16.0982 27.4169C15.1143 27.0893 14.3317 26.6722 13.7503 26.1659L14.7566 23.9095C15.3081 24.3563 15.979 24.7361 16.7691 25.0488C17.5592 25.3467 18.3791 25.5329 19.2288 25.6073V21.1393C18.1704 20.8861 17.2834 20.6105 16.5678 20.3127C15.8672 19.9999 15.2783 19.5531 14.8013 18.9722C14.3242 18.3765 14.0857 17.5946 14.0857 16.6265C14.0857 15.4201 14.5255 14.3924 15.405 13.5435C16.2846 12.6946 17.5592 12.1882 19.2288 12.0244V9.49989H21.0625V11.9797C21.8973 12.0244 22.7098 12.1659 23.4999 12.4041C24.3049 12.6424 25.0055 12.9552 25.6018 13.3424L24.685 15.5988C23.552 14.9435 22.3445 14.5414 21.0625 14.3924V18.9052C22.1358 19.1584 23.0228 19.4339 23.7235 19.7318C24.439 20.0297 25.0353 20.4765 25.5124 21.0722C26.0043 21.6531 26.2503 22.4276 26.2503 23.3956ZM16.9703 16.4924C16.9703 16.9839 17.1641 17.3786 17.5517 17.6765C17.9393 17.9744 18.4984 18.2276 19.2288 18.4361V14.4595C18.4686 14.5786 17.9021 14.8169 17.5294 15.1744C17.1567 15.5318 16.9703 15.9712 16.9703 16.4924ZM21.0625 25.5627C21.8526 25.4435 22.434 25.2127 22.8067 24.8701C23.1943 24.5276 23.3881 24.1031 23.3881 23.5967C23.3881 23.0903 23.1868 22.6882 22.7843 22.3903C22.3818 22.0776 21.8078 21.8169 21.0625 21.6084V25.5627Z" fill="white"/>
</svg>
