<svg width="39" height="39" viewBox="0 0 39 39" fill="none" xmlns="http://www.w3.org/2000/svg">
<circle cx="19.5" cy="19.5" r="19.5" fill="#64AA92"/>
<path d="M30.697 17.1993L28.0551 11.8934C27.5377 10.8476 26.1617 10 24.9948 10H15.0215C13.8547 10 12.4787 10.8476 11.9613 11.8934L9.31934 17.1993C8.68087 18.4762 9.03313 20.2925 10.0789 21.2502L17.7075 28.1743C18.9734 29.3192 21.0319 29.3192 22.2979 28.1743L29.9264 21.2502C30.9832 20.2925 31.3355 18.4652 30.697 17.1993ZM24.4114 16.4838H20.8338V22.263C20.8338 22.7143 20.4595 23.0886 20.0082 23.0886C19.5568 23.0886 19.1826 22.7143 19.1826 22.263V16.4838H15.6049C15.1536 16.4838 14.7793 16.1095 14.7793 15.6581C14.7793 15.2068 15.1536 14.8325 15.6049 14.8325H24.4114C24.8627 14.8325 25.237 15.2068 25.237 15.6581C25.237 16.1095 24.8627 16.4838 24.4114 16.4838Z" fill="white"/>
</svg>
