<svg width="39" height="39" viewBox="0 0 39 39" fill="none" xmlns="http://www.w3.org/2000/svg">
<circle cx="19.5" cy="19.5" r="19.5" fill="#64AA92"/>
<path d="M30.1892 17.1888L27.5473 11.8829C27.0299 10.8372 25.6539 9.98956 24.487 9.98956H14.5137C13.3469 9.98956 11.9708 10.8372 11.4535 11.8829L8.81152 17.1888C8.17305 18.4658 8.52532 20.2821 9.57108 21.2398L17.1997 28.1639C18.4656 29.3087 20.5241 29.3087 21.79 28.1639L29.4186 21.2398C30.4754 20.2821 30.8277 18.4548 30.1892 17.1888ZM23.9036 16.4733H20.326V22.2525C20.326 22.7039 19.9517 23.0782 19.5004 23.0782C19.049 23.0782 18.6748 22.7039 18.6748 22.2525V16.4733H15.0971C14.6458 16.4733 14.2715 16.099 14.2715 15.6477C14.2715 15.1964 14.6458 14.8221 15.0971 14.8221H23.9036C24.3549 14.8221 24.7292 15.1964 24.7292 15.6477C24.7292 16.099 24.3549 16.4733 23.9036 16.4733Z" fill="white"/>
</svg>
