<svg width="39" height="41" viewBox="0 0 39 41" fill="none" xmlns="http://www.w3.org/2000/svg">
<ellipse cx="19.5" cy="20.5" rx="19.5" ry="20.5" fill="#64AA92"/>
<path d="M30.1892 18.0703L27.5473 12.4924C27.0299 11.393 25.6539 10.5019 24.487 10.5019H14.5137C13.3469 10.5019 11.9708 11.393 11.4535 12.4924L8.81152 18.0703C8.17305 19.4128 8.52532 21.3222 9.57108 22.3291L17.1997 29.6082C18.4656 30.8118 20.5241 30.8118 21.79 29.6082L29.4186 22.3291C30.4754 21.3222 30.8277 19.4012 30.1892 18.0703ZM23.9036 17.3181H20.326V23.3937C20.326 23.8682 19.9517 24.2617 19.5004 24.2617C19.049 24.2617 18.6748 23.8682 18.6748 23.3937V17.3181H15.0971C14.6458 17.3181 14.2715 16.9247 14.2715 16.4502C14.2715 15.9757 14.6458 15.5822 15.0971 15.5822H23.9036C24.3549 15.5822 24.7292 15.9757 24.7292 16.4502C24.7292 16.9247 24.3549 17.3181 23.9036 17.3181Z" fill="white"/>
</svg>
