<svg width="60" height="71" fill="none" xmlns="http://www.w3.org/2000/svg"><path fill-rule="evenodd" clip-rule="evenodd" d="M1.804 71h51.414A1.78 1.78 0 0055 69.189V14.037c0-.498-.18-.95-.518-1.29L42.304.52A1.822 1.822 0 0041.019 0H1.803C.812 0 0 .815 0 1.811V69.19C0 70.185.812 71 1.804 71zm49.587-3.622H3.608V3.623h36.666l11.117 11.161v52.594z" fill="url(#paint0_linear)"/><path d="M33.17 20H12.83c-1.006 0-1.83-.9-1.83-2s.824-2 1.83-2h20.34c1.006 0 1.83.9 1.83 2s-.824 2-1.83 2z" fill="url(#paint1_linear)"/><path d="M36.45 30h-23.9c-.841 0-1.55-.9-1.55-2s.687-2 1.55-2h23.9c.841 0 1.55.9 1.55 2s-.709 2-1.55 2z" fill="url(#paint2_linear)"/><path d="M35.321 41H12.68c-.93 0-1.679-.9-1.679-2s.749-2 1.679-2H35.32c.93 0 1.679.9 1.679 2s-.726 2-1.679 2z" fill="url(#paint3_linear)"/><path d="M40.144 52H12.833C11.825 52 11 51.1 11 50s.825-2 1.833-2h27.334c1.008 0 1.833.9 1.833 2s-.825 2-1.856 2z" fill="url(#paint4_linear)"/><path fill-rule="evenodd" clip-rule="evenodd" d="M57.025 37.465h-1.294v-4.708c0-5.866-4.724-10.641-10.56-10.755-6.019-.114-10.924 4.934-10.924 10.937v4.526h-1.295A2.948 2.948 0 0030 40.42v18.623A2.948 2.948 0 0032.952 62h24.096A2.948 2.948 0 0060 59.044V40.42a2.982 2.982 0 00-2.975-2.956zm-18.872-4.708c0-3.842 3.18-6.935 7.017-6.821 3.702.113 6.609 3.251 6.609 6.958v4.57H38.153v-4.707zm8.675 22.672V50.38a3.334 3.334 0 001.476-2.82 3.404 3.404 0 00-3.406-3.41 3.404 3.404 0 00-3.407 3.41 3.38 3.38 0 001.5 2.82v5.048h3.837z" fill="url(#paint5_linear)"/><defs><linearGradient id="paint0_linear" x1=".004" y1="71.005" x2="55.012" y2="71.005" gradientUnits="userSpaceOnUse"><stop stop-color="#5C8BFC"/><stop offset="1" stop-color="#84B0FF"/></linearGradient><linearGradient id="paint1_linear" x1="11.017" y1="20.002" x2="35.006" y2="20.002" gradientUnits="userSpaceOnUse"><stop stop-color="#5C8BFC"/><stop offset="1" stop-color="#84B0FF"/></linearGradient><linearGradient id="paint2_linear" x1="11.016" y1="30.008" x2="37.99" y2="30.008" gradientUnits="userSpaceOnUse"><stop stop-color="#5C8BFC"/><stop offset="1" stop-color="#84B0FF"/></linearGradient><linearGradient id="paint3_linear" x1="10.994" y1="40.995" x2="37.023" y2="40.995" gradientUnits="userSpaceOnUse"><stop stop-color="#5C8BFC"/><stop offset="1" stop-color="#84B0FF"/></linearGradient><linearGradient id="paint4_linear" x1="10.994" y1="52" x2="41.985" y2="52" gradientUnits="userSpaceOnUse"><stop stop-color="#5C8BFC"/><stop offset="1" stop-color="#84B0FF"/></linearGradient><linearGradient id="paint5_linear" x1="29.974" y1="62.008" x2="59.979" y2="62.008" gradientUnits="userSpaceOnUse"><stop stop-color="#FFB300"/><stop offset="1" stop-color="#FF8E37"/></linearGradient></defs></svg>