<svg width="77" height="67" fill="none" xmlns="http://www.w3.org/2000/svg"><path d="M64.198 13.127H24.896c-1.982 0-3.357-5.422-5.408-5.422H4.592a2.71 2.71 0 00-2.704 2.711v51.605a2.71 2.71 0 002.704 2.711h59.606a2.71 2.71 0 002.704-2.711V15.839a2.71 2.71 0 00-2.704-2.712z" fill="url(#paint0_linear)"/><path fill-rule="evenodd" clip-rule="evenodd" d="M4.569 66.626h59.629a4.553 4.553 0 004.546-4.605V15.84c0-2.524-2.052-4.58-4.57-4.58H25.083c-.326-.281-.932-1.216-1.282-1.8l-.024-.038c-1.066-1.697-2.252-3.585-4.311-3.585H4.569C2.05 5.836 0 7.893 0 10.416v51.629c0 2.524 2.051 4.58 4.569 4.58zm-.84-56.21c0-.467.373-.84.84-.84H19.3c.35.28.98 1.261 1.352 1.869l.047.074c1.037 1.641 2.198 3.478 4.196 3.478h39.278c.467 0 .84.374.84.842v46.206a.837.837 0 01-.84.84H4.57a.837.837 0 01-.84-.84V10.416z" fill="url(#paint1_linear)"/><path d="M63.82 22.813H4.854c-.555 0-1.017.471-1.017 1.037v37.925c0 .566.462 1.038 1.017 1.038H63.82c.555 0 1.017-.472 1.017-1.038V23.85c0-.566-.462-1.038-1.017-1.038z" fill="#FBF8F6"/><path d="M44.236 38.46l-3.039 3.025 5.088 5.066-6.1 6.074-5.089-5.066-3.816 3.8a4.4 4.4 0 01-6.195.023l.07.07c-1.695-1.688-1.695-4.456.024-6.167l24.71-24.6a14.108 14.108 0 01-1.578-6.52C48.31 6.332 54.694 0 62.538 0s14.228 6.355 14.228 14.165c0 7.809-6.384 14.164-14.228 14.164-2.355 0-4.593-.563-6.548-1.571l-5.653 5.628 4.075 4.057-6.101 6.074-4.075-4.057z" fill="url(#paint2_linear)"/><path d="M66.338 17.762a5.193 5.193 0 000-7.355 5.22 5.22 0 00-7.37 0 5.193 5.193 0 000 7.355 5.22 5.22 0 007.37 0z" fill="#fff"/><defs><linearGradient id="paint0_linear" x1="1.863" y1="64.746" x2="66.898" y2="64.746" gradientUnits="userSpaceOnUse"><stop stop-color="#5C8BFC"/><stop offset="1" stop-color="#84B0FF"/></linearGradient><linearGradient id="paint1_linear" x1="-.002" y1="66.628" x2="68.763" y2="66.628" gradientUnits="userSpaceOnUse"><stop stop-color="#5C8BFC"/><stop offset="1" stop-color="#84B0FF"/></linearGradient><linearGradient id="paint2_linear" x1="48.86" y1="75.051" x2="96.122" y2="27.579" gradientUnits="userSpaceOnUse"><stop stop-color="#FFB300"/><stop offset="1" stop-color="#FF8E37"/></linearGradient></defs></svg>