<svg width="166" height="131" viewBox="0 0 166 131" fill="none" xmlns="http://www.w3.org/2000/svg">
<g filter="url(#filter0_d_391_1417)">
<path d="M135.89 55.7148C140.638 74.5277 129.376 94.1412 110.734 99.5229C92.0926 104.905 73.131 94.0166 68.3823 75.2038C63.6336 56.3909 74.8961 36.7774 93.5377 31.3957C112.179 26.0139 131.141 36.902 135.89 55.7148Z" fill="url(#paint0_linear_391_1417)" stroke="url(#paint1_linear_391_1417)"/>
</g>
<path d="M107.322 61.6212L109.347 57.374L116.808 61.2581L119.845 54.8874L99.548 44.3205L96.5106 50.6912L103.971 54.5752L101.946 58.8224C95.7094 56.1056 90.3589 55.2639 89.4814 57.1043C88.6039 58.9448 92.4694 62.901 98.3012 66.4672L91.8887 79.9165L97.2647 82.7153L103.677 69.266C109.914 71.9828 115.197 72.9661 116.142 70.9841C117.087 69.0021 113.154 65.1874 107.322 61.6212ZM104.285 67.9919C104.175 67.9348 103.297 67.4778 101.651 66.621C100.225 65.8785 99.2378 65.3644 98.9761 65.0515C93.6677 62.1112 90.258 58.9223 91.0004 57.365C91.7429 55.8078 96.2326 56.7314 101.744 59.2471L99.5161 63.919C99.8453 64.0903 100.765 64.7459 102.191 65.4885C103.837 66.3452 104.782 66.6606 104.892 66.7177L107.052 62.1875C112.293 65.2694 115.635 68.5998 114.96 70.0155C114.285 71.4312 109.796 70.5075 104.285 67.9919Z" fill="white"/>
<ellipse cx="53.1195" cy="62.4272" rx="30.8426" ry="43.8428" transform="rotate(-116.642 53.1195 62.4272)" fill="#C4C4C4"/>
<ellipse cx="53.1195" cy="62.4272" rx="30.8426" ry="43.8428" transform="rotate(-116.642 53.1195 62.4272)" fill="url(#paint2_linear_391_1417)"/>
<ellipse cx="53.1195" cy="62.4272" rx="30.8426" ry="43.8428" transform="rotate(-116.642 53.1195 62.4272)" stroke="url(#paint3_linear_391_1417)"/>
<path fill-rule="evenodd" clip-rule="evenodd" d="M25.8659 76.1024L47.6215 50.8769L47.6251 50.8459L59.8975 49.9749L59.8974 49.9794L59.9181 49.9779L59.8967 49.9997L59.6111 58.6133L68.0183 49.3982L80.9055 48.4835L59.1258 73.7369L59.1097 73.7381L59.1097 73.7385L44.8758 74.7487L46.1045 64.0658L34.9333 75.4588L25.8659 76.1024Z" fill="white"/>
<defs>
<filter id="filter0_d_391_1417" x="62.8002" y="29.5159" width="78.6715" height="79.887" filterUnits="userSpaceOnUse" color-interpolation-filters="sRGB">
<feFlood flood-opacity="0" result="BackgroundImageFix"/>
<feColorMatrix in="SourceAlpha" type="matrix" values="0 0 0 0 0 0 0 0 0 0 0 0 0 0 0 0 0 0 127 0" result="hardAlpha"/>
<feOffset dy="4"/>
<feGaussianBlur stdDeviation="2"/>
<feComposite in2="hardAlpha" operator="out"/>
<feColorMatrix type="matrix" values="0 0 0 0 0 0 0 0 0 0 0 0 0 0 0 0 0 0 0.05 0"/>
<feBlend mode="normal" in2="BackgroundImageFix" result="effect1_dropShadow_391_1417"/>
<feBlend mode="normal" in="SourceGraphic" in2="effect1_dropShadow_391_1417" result="shape"/>
</filter>
<linearGradient id="paint0_linear_391_1417" x1="128.341" y1="82.7071" x2="117.169" y2="44.0117" gradientUnits="userSpaceOnUse">
<stop stop-color="#86B2F3"/>
<stop offset="1" stop-color="#BCD6FD"/>
</linearGradient>
<linearGradient id="paint1_linear_391_1417" x1="93.5377" y1="31.3957" x2="113.015" y2="98.8644" gradientUnits="userSpaceOnUse">
<stop stop-color="#85B1F3"/>
<stop offset="1" stop-color="#BDD6FD"/>
</linearGradient>
<linearGradient id="paint2_linear_391_1417" x1="71.7298" y1="92.1944" x2="71.7298" y2="41.904" gradientUnits="userSpaceOnUse">
<stop stop-color="#FABE4C"/>
<stop offset="1" stop-color="#FA9751"/>
</linearGradient>
<linearGradient id="paint3_linear_391_1417" x1="56.3661" y1="24.7378" x2="49.4684" y2="102.887" gradientUnits="userSpaceOnUse">
<stop stop-color="#FABE4C"/>
<stop offset="1" stop-color="#FA9751"/>
</linearGradient>
</defs>
</svg>
